<?xml version="1.0" encoding="UTF-8"?>
<svg id="Layer_2" data-name="Layer 2" xmlns="http://www.w3.org/2000/svg" xmlns:xlink="http://www.w3.org/1999/xlink" viewBox="0 0 601.33 732.91">
  <defs>
    <style>
      .cls-1 {
        fill: #f9dc5c;
      }

      .cls-2 {
        stroke: #2a3c24;
        stroke-linecap: round;
        stroke-linejoin: round;
      }

      .cls-2, .cls-3 {
        fill: none;
      }

      .cls-4 {
        fill: #dbecd9;
      }

      .cls-5 {
        fill: #a690a4;
      }

      .cls-6 {
        clip-path: url(#clippath);
      }

      .cls-7 {
        fill: #fbf3d3;
      }
    </style>
    <clipPath id="clippath">
      <rect class="cls-3" y="18.45" width="601.33" height="451"/>
    </clipPath>
  </defs>
  <g id="balloner">
    <g class="cls-6">
      <rect class="cls-5" y="18.45" width="601.33" height="451"/>
      <g>
        <path class="cls-7" d="m197.9,92.04c-5.41-12.75-3.62-28.78,5.94-38.8s26.92-12.19,37.64-3.42c10.22,8.36,12.22,23.76,8.3,36.37-3.02,9.72-13.99,32.61-24.72,31.5-11.1-1.15-23.21-16.34-27.16-25.64Z"/>
        <path class="cls-2" d="m225.17,117.75c5.2,2.05,7.31,8.58,6.43,14.09s-3.96,10.38-6.43,15.39-4.37,10.78-2.72,16.11c1.78,5.75,7.17,9.49,10.9,14.22,6.03,7.64,7.64,18.03,6.47,27.69s-4.83,18.81-8.47,27.84"/>
      </g>
      <g>
        <path class="cls-1" d="m27.97,49.49c-5.61-13.23-3.75-29.85,6.16-40.25,9.92-10.4,27.92-12.64,39.04-3.54,10.6,8.67,12.67,24.65,8.61,37.72-3.14,10.09-14.51,33.82-25.65,32.67-11.51-1.19-24.07-16.95-28.17-26.6Z"/>
        <path class="cls-2" d="m56.25,76.16c5.39,2.12,7.58,8.9,6.67,14.62s-4.11,10.76-6.67,15.96-4.53,11.18-2.82,16.72c1.85,5.97,7.44,9.84,11.31,14.75,6.25,7.92,7.92,18.7,6.72,28.72-1.21,10.02-5.01,19.52-8.78,28.88"/>
      </g>
      <g>
        <path class="cls-4" d="m58.04,258.04c-12.11-28.55-8.1-64.42,13.3-86.87,21.4-22.44,60.26-27.28,84.27-7.65,22.87,18.71,27.35,53.19,18.57,81.41-6.77,21.77-31.33,72.99-55.35,70.51-24.84-2.56-51.96-36.59-60.79-57.41Z"/>
        <path class="cls-2" d="m119.08,315.6c11.63,4.58,16.36,19.21,14.39,31.55-1.97,12.34-8.87,23.23-14.39,34.45s-9.78,24.13-6.08,36.08c3.99,12.88,16.06,21.24,24.41,31.83,13.49,17.1,17.1,40.36,14.49,61.99s-10.82,42.12-18.96,62.33"/>
      </g>
      <g>
        <path class="cls-1" d="m294.3,194.96c-9.17-21.62-6.13-48.78,10.07-65.77,16.21-16.99,45.62-20.66,63.8-5.79,17.32,14.17,20.71,40.27,14.06,61.64-5.13,16.48-23.72,55.27-41.91,53.39-18.81-1.94-39.34-27.7-46.03-43.47Z"/>
        <path class="cls-2" d="m340.51,238.54c8.81,3.47,12.39,14.54,10.89,23.89s-6.72,17.59-10.89,26.08-7.41,18.27-4.61,27.31c3.02,9.75,12.16,16.08,18.48,24.1,10.22,12.95,12.95,30.56,10.97,46.93-1.98,16.37-8.19,31.89-14.35,47.19"/>
      </g>
      <g>
        <path class="cls-4" d="m501.46,86.38c-4.82-11.36-3.22-25.63,5.29-34.56,8.51-8.93,23.97-10.85,33.52-3.04,9.1,7.44,10.88,21.16,7.39,32.39-2.69,8.66-12.46,29.04-22.02,28.05s-20.67-14.55-24.18-22.84Z"/>
        <path class="cls-2" d="m525.74,109.28c4.63,1.82,6.51,7.64,5.72,12.55s-3.53,9.24-5.72,13.71-3.89,9.6-2.42,14.35c1.59,5.12,6.39,8.45,9.71,12.66,5.37,6.8,6.8,16.06,5.77,24.66s-4.31,16.76-7.54,24.79"/>
      </g>
      <g>
        <path class="cls-7" d="m414.27,302.74c-16.48-38.85-11.02-87.66,18.1-118.2,29.12-30.54,81.99-37.12,114.66-10.41,31.12,25.46,37.21,72.38,25.27,110.77-9.21,29.62-42.62,99.32-75.31,95.95-33.8-3.49-70.7-49.78-82.72-78.12Z"/>
        <path class="cls-2" d="m497.33,381.06c15.83,6.23,22.26,26.13,19.58,42.93-2.68,16.8-12.08,31.61-19.58,46.88-7.5,15.27-13.31,32.84-8.28,49.09,5.43,17.53,21.85,28.9,33.21,43.31,18.36,23.27,23.27,54.92,19.72,84.34-3.55,29.42-14.73,57.31-25.8,84.81"/>
      </g>
    </g>
  </g>
</svg>