<?xml version="1.0" encoding="UTF-8"?>
<svg id="Layer_2" data-name="Layer 2" xmlns="http://www.w3.org/2000/svg" xmlns:xlink="http://www.w3.org/1999/xlink" viewBox="0 0 664.25 510.88">
  <defs>
    <style>
      .cls-1, .cls-2, .cls-3, .cls-4, .cls-5, .cls-6, .cls-7 {
        stroke-linecap: round;
        stroke-linejoin: round;
      }

      .cls-1, .cls-2, .cls-4, .cls-5, .cls-6, .cls-7 {
        stroke: #2a3c24;
      }

      .cls-1, .cls-8, .cls-5 {
        fill: none;
      }

      .cls-2, .cls-4, .cls-9 {
        fill: #c59b6d;
      }

      .cls-2, .cls-5, .cls-7 {
        stroke-width: .5px;
      }

      .cls-10 {
        fill: #dbecd9;
      }

      .cls-3 {
        fill: #f9dc5c;
        stroke: #f9dc5c;
      }

      .cls-11 {
        fill: #fcf4d4;
      }

      .cls-12 {
        clip-path: url(#clippath);
      }

      .cls-6, .cls-7 {
        fill: #2a3c24;
      }
    </style>
    <clipPath id="clippath">
      <rect class="cls-8" x="24.41" y="40.69" width="601.33" height="451"/>
    </clipPath>
  </defs>
  <g id="signeringer">
    <g class="cls-12">
      <rect class="cls-10" x="24.79" y="41.47" width="601.33" height="451"/>
      <g>
        <g>
          <path class="cls-7" d="m74.37,79.57c3.98-5.58,8.59-10.67,13.19-15.75,8.19-9.04,16.71-18.33,27.83-23.36,3.12-1.41,6.9-2.43,9.86-.71,1.1.64,1.97,1.59,2.82,2.53,18.63,20.56,37.29,41.13,54.42,62.95,5.43,6.92,10.83,14.2,13,22.73.25,1,.44,2.15-.16,2.99-.32.45-.78.82-1.29,1.02-15.41,5.88-28.18,12.73-34.73,19-.91.87-17.66,18.06-17.67,19.32,0,0-2.24,1.49-4.47,3.19-6.74,5.13-12.35,5.68-23.02,14.42-6.54,5.36-9.91,12.13-12.46,16.05-3.36,5.15-6.1,9.4-10.03,14.14-6.96-6.45-14.1-9.69-21.19-16.01-21.98-19.59-44.06-42.61-65.03-62.05-1.81-1.68-2.64-4.4-2.38-6.85.31-2.88,2.77-5.09,5.39-6.34,2.62-1.25,5.67-4.37,8.27-5.66,3.29-1.64,12.24-7.59,12.24-7.59,6.78-2.77,19.48-10.13,23.85-13.38,8.68-6.46,15.55-12.23,21.54-20.63Z"/>
          <path class="cls-11" d="m67.08,96.45c17.78,19.87,40.43,37.2,58.27,57.03,3.95,4.39,7.7,9.19,9.34,14.86,14.11-18.15,35.3-35.81,58.09-38.81-8.66-16.39-20.84-30.61-32.9-44.68-12.63-14.72-25.25-29.43-37.88-44.15-24.8,14.01-37.7,34.4-54.92,55.74-6.7,8.3-16.65,10.74-26.14,15.04-12.22,5.54-24.37,12.14-33.12,22.6,25.59,28.66,54.96,54.6,85.23,78.27,5.89-19.29,23.68-34.85,41.64-44.02"/>
          <path class="cls-5" d="m79.33,101.22c7.79-7.71,19.37-12.69,22.63-23.15.82-2.64,1.03-5.47,2.1-8.02,2.49-5.92,8.91-9,14.81-11.55"/>
          <path class="cls-5" d="m97.98,113.7c5.96-3.26,14.02-2.29,18.92-7,3.57-3.43,4.27-8.79,6.44-13.23,2.76-5.68,8.21-9.99,14.38-11.36"/>
          <path class="cls-5" d="m118.84,127.55c8.61-3.21,16.3-8.84,21.96-16.07,2.19-2.8,4.53-6.12,8.07-6.51"/>
          <path class="cls-5" d="m23.28,136.85c8.15-6.93,21.6-4.88,29.18-12.43,1.94-1.94,3.32-4.36,5.19-6.37,1.87-2,4.51-3.63,7.22-3.19"/>
          <path class="cls-5" d="m37.86,152.62c12.56-.41,24.88-5.99,33.47-15.16,2.22-2.37,4.23-4.99,6.9-6.83"/>
          <path class="cls-5" d="m59.16,170.79c7.67-1.21,14.89-5.09,20.13-10.81,3.35-3.65,6.14-8.2,10.73-10.06"/>
          <path class="cls-5" d="m76.61,186.61c10.43-.56,18.39-9.15,25.15-17.11,2.66-3.14,5.33-6.27,7.99-9.41"/>
          <path class="cls-1" d="m132.44,145.65c1.86-.9,3.03-3.05,2.78-5.1-.07-.6-.3-1.24-.81-1.57s-1.35-.15-1.49.44c.28.79.57,1.61,1.17,2.2s1.59.87,2.29.41c.97-.64.76-2.13.22-3.16s-1.33-2.05-1.19-3.2c-.19.93-.2,1.9-.03,2.83.11.63.32,1.28.77,1.74s1.19.68,1.76.38.75-1.21.25-1.61c.42.78,1.19,1.36,2.06,1.55.28-1.32.55-2.63.83-3.95,1.01,1.43,3.23,1.47,4.75.6s2.55-2.36,3.64-3.73,2.42-2.72,4.14-3.04l-1.08.24"/>
        </g>
        <g>
          <path class="cls-9" d="m200.24,75.72c.21-7.93-6.89-14.21-14.7-15.62s-15.4,6.66-15.72,14.59c-.17,4.06-.94,7.36-1.14,10.95-.47,8.24-9.13,17.43-12.17,18.32-7.33-16.15-.47-43.84,11.69-63.13,5.98-9.49,19.02-4.65,29.63-1.01s21.04,7.16,31.23,11.85,21.69,7.93,32.59,5.28c4.12,9.09,5.2,19.64,2.59,29.27-7.28,3.31-14.56,6.63-21.84,9.94-6.71,3.06-13.6,6.16-20.95,6.68-6.86.48-13.64-1.31-20.44-2.29s-14.17-1.03-20.04,2.54c-3.32,2.02-5.96,5.1-9.49,6.73s-8.66,1.05-10.07-2.57c-1.11-2.83.58-5.93,2.4-8.36,10.6-14.13,28.36-22.57,46-21.88"/>
          <path class="cls-2" d="m184.11,59.62c-8.71-.08-16.6,8.11-16.19,16.81.14,3-1.78,7.19-1.46,10.18.87,8.37.76,15.92,4.68,23.37,1.44,2.73,2.95,5.26,6.04,5.13s4.65-9.09,4.45-12.43c1.83,1.54,4.09,9.41,9.05,8.5,5.83-3.26-1.25-9.2-.81-10.87,1.53,2.64,7.18,9.94,10.09,8.33,4.7-2.61,2.62-11.89,3.04-15.06.65-4.97,7.77-14.09,6.11-18.88-2.82-8.15-15.68-14.98-24.99-15.07Z"/>
          <g>
            <path class="cls-8" d="m169.49,74.84c-.08,1.91-.29,3.65-.51,5.34,2.06-5.64,4.21-11.26,6.42-16.86-3.36,2.85-5.73,7.2-5.9,11.52Z"/>
            <path class="cls-8" d="m197.49,10.82c-.31.38-.58.73-.78,1.03-1.48,2.26-2.87,4.57-4.18,6.92-2.57,4.62-4.81,9.42-6.69,14.33-.1.27-.21.54-.31.81.61.11,1.22.23,1.83.35,3.06-7.19,6.17-14.36,9.27-21.52.28-.64.56-1.29.85-1.93Z"/>
            <path class="cls-8" d="m184.11,69.41c-2.41,5.72-4.84,11.44-7.34,17.13,9.6-6.38,21.17-9.83,32.7-9.38l-9.56-1.3c.19-7-5.33-12.71-12-14.92-.11.11-.22.2-.35.27-1.14,2.73-2.29,5.47-3.45,8.19Z"/>
            <path class="cls-8" d="m165.3,110.66s-.05-.01-.08-.02c0,.01-.01.03-.02.04.03,0,.06-.02.1-.02Z"/>
            <path class="cls-6" d="m204.32,3.18c.64.21,1.48.52,2.16.44.29-.03.68-.34,1.01-.28-.02-.6-.07-1.19-.17-1.75-.38-2.25-2.59-.65-4.36,1.07.44-.06,1.05.4,1.36.5Z"/>
            <path class="cls-6" d="m197.49,10.82c-.29.64-.58,1.29-.85,1.93-3.1,7.16-6.21,14.33-9.27,21.52,3.45.71,6.79,1.67,9.69,2.63,0-.02.01-.03.02-.05,1.96-5.57,5.91-10.92,7.43-16.63.73-2.77,1.78-8.1,2.38-10.9.32-1.5.57-3.21.61-4.88-.13.08-.27.13-.42.15-.27.04-.55,0-.82-.06-.45-.09-3.83-.5-3.8-1.33-.58.61-1.08,1.18-1.39,1.56-.08.1-.15.2-.23.3.02.13.03.28.02.46-.04,1.49-2.04,3.67-3.35,5.29Z"/>
            <path class="cls-6" d="m162.27,110.25c.92.41,1.96.62,2.94.43,0-.01.01-.03.02-.04-1.86-.41-3.46-1.45-4.16-3.23-1.11-2.83.58-5.93,2.4-8.36,3.67-4.9,8.21-9.11,13.3-12.5,2.51-5.69,4.93-11.42,7.34-17.13,1.15-2.73,2.31-5.46,3.45-8.19-1.51.97-4.08.04-5.67-.62-.18-.08-.4-.17-.63-.27-2.12.45-4.13,1.51-5.87,2.99-2.21,5.6-4.35,11.22-6.42,16.86-.25,1.89-.52,3.71-.63,5.61-.32,5.52-2.86,10.95-6.37,14.68-.87,2.71-1.71,5.42-2.53,8.14.12,0,.25.04.39.1.85.37,1.55,1.15,2.43,1.55Z"/>
            <path class="cls-6" d="m155.34,123.91c-.07-.07-.11-.14-.13-.21-.55,2.1-1.08,4.2-1.59,6.3,1.21-1.77,2.37-3.56,3.52-5.37-.52-.19-1.43-.37-1.8-.72Z"/>
            <path class="cls-6" d="m160.41,111.26c-.53-.33-1.09-.68-1.4-1.22,0,0,0,0,0,0-1.24,4.15-2.41,8.32-3.52,12.51.13.22.39.37.65.44.33.08.69.08,1.02.16.26.06.51.19.66.39,2.3-3.69,4.47-7.46,6.54-11.28-.65.26-1.4.21-2.06,0-.68-.22-1.29-.6-1.89-.97Z"/>
            <path class="cls-6" d="m185.84,33.11c1.88-4.91,4.12-9.7,6.69-14.33,1.31-2.35,2.7-4.66,4.18-6.92.2-.3.47-.65.78-1.03.92-2.02,1.96-4.01,3.33-5.75-.37-3.2-6.37,5.17-7.19,6.33-2.83,4-5.18,8.3-6.99,12.8-1.23,3.06-2.2,6.22-2.91,9.42.6.09,1.2.19,1.8.29.1-.27.2-.54.31-.81Z"/>
            <path class="cls-6" d="m200.84,5.53c0-.18,0-.32-.02-.46-1.36,1.74-2.4,3.73-3.33,5.75,1.31-1.62,3.31-3.81,3.35-5.29Z"/>
            <path class="cls-3" d="m187.56,61.22c.12-.08.24-.17.35-.27-.07-.02-.14-.04-.21-.07-.05.11-.09.23-.14.34Z"/>
            <path class="cls-3" d="m185.21,60.25c-1.33-.24-2.66-.2-3.95.08.23.1.44.19.63.27,1.59.67,4.16,1.59,5.67.62.05-.11.09-.23.14-.34-.82-.26-1.65-.47-2.5-.63Z"/>
            <path class="cls-3" d="m155.43,122.37c.09.46-.34.94-.23,1.32.1-.38.2-.77.3-1.15-.03-.05-.06-.11-.07-.18Z"/>
            <path class="cls-3" d="m157.21,124.65c.24-.31.48-.62.72-.93-.02-.07-.05-.14-.1-.2-.23.37-.46.73-.7,1.1.02,0,.05.02.07.03Z"/>
            <path class="cls-3" d="m157.17,123.14c-.33-.08-.69-.07-1.02-.16-.27-.07-.53-.22-.65-.44-.1.38-.2.77-.3,1.15.02.07.06.15.13.21.37.34,1.27.53,1.8.72.23-.37.47-.73.7-1.1-.14-.2-.4-.33-.66-.39Z"/>
            <path class="cls-3" d="m202.74,2.77c-.21.16-.3.3-.3.44.17-.17.34-.35.52-.52-.08.01-.15.04-.21.09Z"/>
            <path class="cls-3" d="m207.76,4.19c.26-.39.2-.71-.25-.83-.01,0-.02,0-.03,0,.01.36.02.72,0,1.09.11-.06.21-.15.27-.25Z"/>
            <path class="cls-3" d="m206.24,4.54c.27.05.55.09.82.06.15-.02.29-.07.42-.15,0-.37,0-.73,0-1.09-.33-.06-.72.24-1.01.28-.67.07-1.51-.24-2.16-.44-.31-.1-.92-.57-1.36-.5-.18.17-.35.35-.52.52-.03.84,3.35,1.25,3.8,1.33Z"/>
            <path class="cls-3" d="m165.2,110.68c-.28.52-.55,1.04-.83,1.56,0,0,.02,0,.03,0,.62-.26,1.12-.86,1.16-1.53-.09-.01-.17-.03-.25-.05-.03,0-.06.02-.1.02Z"/>
            <path class="cls-3" d="m159.02,110.04c.14-.48.28-.95.43-1.43-.66-.04-.83.72-.43,1.43Z"/>
            <path class="cls-3" d="m162.27,110.25c-.87-.39-1.58-1.18-2.43-1.55-.15-.06-.28-.09-.39-.1-.14.48-.29.95-.43,1.43,0,0,0,0,0,0,.31.54.86.89,1.4,1.22.61.37,1.22.75,1.89.97.67.22,1.41.27,2.06,0,.28-.52.56-1.04.83-1.56-.98.19-2.02-.02-2.94-.43Z"/>
            <path class="cls-2" d="m153.98,93.36c.67,3.75,2.31,6.61,3.02,10.47,2.05-.82,3.25-1.52,4.98-3.36,2.19-6.81,4.53-13.57,6.99-20.29.22-1.69.44-3.43.51-5.34.18-4.32,2.54-8.68,5.9-11.52.71-1.8,1.43-3.59,2.15-5.38-.13-.18-.23-.35-.28-.53-.48-1.61,2.24-4.83,2.14-5.14.07.1.17.22.3.34,2.51-6.13,5.07-12.24,7.67-18.33-.15-.03.15.03,0,0"/>
            <path class="cls-2" d="m185.53,33.92c-.12-.02.12.02,0,0-.8,2.12-1.61,4.26-2.85,6.18.22-2.17.58-4.33,1.05-6.47-.08-.01.67.1,0,0"/>
            <path class="cls-2" d="m196.22,39.24c-2.2,6.25-3.78,10.08-6.28,16.21.61,1.62-.41,3.77-1.96,5.43-.02.02-.05.04-.07.07,6.67,2.21,8.91,10.61,8.72,17.61l9.53-1.03c-11.71.29-19.79,2.64-29.39,9.02-3.43,3.68-24.79,17.32-11.54,24.1.03,0,.05.01.08.02.09-.02.18-.04.26-.06,0,.04,0,.07,0,.11,1.84.32,3.89.05,5.58-.73,3.53-1.63,6.17-4.71,9.49-6.73,5.87-3.58,13.24-3.52,20.04-2.54s13.59,2.77,20.44,2.29c2.19-.15,4.59-.66,7.07-1.36"/>
            <path class="cls-6" d="m179.7,52.6c.8.75,2.72,1.76,5.11,2.17,1.71.29,3.41.41,5.11.61-.03-.08-.01-.04,0,0s.03.08,0,0c.01.02.02.05.03.07,2.5-6.13,4.92-12.3,7.11-18.55-2.9-.95-6.24-1.92-9.69-2.63-2.6,6.09-5.16,12.2-7.67,18.33Z"/>
            <path class="cls-6" d="m168.34,85.79c.11-1.9.37-3.72.63-5.61-2.46,6.72-4.8,13.48-6.99,20.29,3.5-3.73,6.05-9.16,6.37-14.68Z"/>
            <path class="cls-6" d="m175.39,63.32c1.74-1.48,3.76-2.54,5.87-2.99-1.24-.55-3-1.42-3.73-2.4-.72,1.79-1.44,3.59-2.15,5.38Z"/>
            <path class="cls-6" d="m185.53,33.92c-.6-.11-1.2-.21-1.8-.29-.47,2.14-.83,4.3-1.05,6.47,1.24-1.92,2.05-4.06,2.85-6.18Z"/>
            <path class="cls-3" d="m179.39,52.26c.1.31-2.62,3.53-2.14,5.14.05.18.15.36.28.53.72-1.78,1.43-3.55,2.16-5.33-.13-.12-.24-.24-.3-.34Z"/>
            <path class="cls-3" d="m187.91,60.94s.05-.04.07-.07c1.55-1.66,2.57-3.81,1.96-5.43-.74,1.81-1.49,3.62-2.24,5.43.07.02.14.04.21.07Z"/>
            <path class="cls-4" d="m189.92,55.38c.03.08.01.04,0,0h0Z"/>
            <path class="cls-4" d="m189.92,55.38s-.03-.08,0,0h0Z"/>
            <path class="cls-3" d="m184.81,54.77c-2.39-.41-4.32-1.42-5.11-2.17-.73,1.77-1.44,3.55-2.16,5.33.72.98,2.48,1.85,3.73,2.4,1.29-.27,2.62-.32,3.95-.08.84.15,1.68.37,2.5.63.75-1.81,1.5-3.62,2.24-5.43,0-.02-.02-.05-.03-.07-1.7-.2-3.4-.32-5.11-.61Z"/>
            <path class="cls-4" d="m165.3,110.66c.08.02.17.03.25.05,0-.04,0-.07,0-.11-.09.03-.17.04-.26.06Z"/>
          </g>
          <path class="cls-2" d="m153.93,93.02c2.02-1.64,4.26-1.57,6.35.06s3,4.75,2.1,7.25c-.76,2.13-2.77,3.66-4.94,3.89-.65.07-1.25-.34-1.41-.97l-2.24-8.49c-.28-1.63.2-1.27.13-1.74"/>
          <path class="cls-2" d="m170.37,97.4c2.6,2.17,3.39,6.42,1.31,9.09-1.98,2.55-6.19,2.88-8.61.74s-.93-5.14,1.16-7.6c1.86-2.19,3.56-3.98,6.1-2.66"/>
          <path class="cls-2" d="m184.32,73.55c3.17-1.85,7.89-.25,10.31,3.49"/>
          <path class="cls-2" d="m155.04,79.62c4.08-1.11,5.92-1.61,5.51-1.5"/>
          <path class="cls-2" d="m155.2,83.11c4.46-1.63,6.72-2.46,6.84-2.5"/>
          <path class="cls-2" d="m182.28,86.35c-.47,2.77.8,5.77,3.13,7.36"/>
          <path class="cls-2" d="m184.95,85.44c1.79.47,2.72,2.9,1.7,4.45"/>
          <path class="cls-2" d="m188.46,84.69c1.67,2.4,2.08,5.63,1.05,8.36"/>
          <path class="cls-2" d="m166.91,52.19c-1.55.18-2.85-1.14-2.47-2.5"/>
        </g>
      </g>
      <g>
        <g>
          <path class="cls-7" d="m535.04,258.58c6.76,1.15,13.35,3.09,19.93,5.02,11.71,3.44,23.77,7.07,33.14,14.88,2.63,2.2,5.19,5.15,4.93,8.57-.09,1.27-.58,2.47-1.05,3.64-10.4,25.72-20.8,51.47-32.99,76.4-3.86,7.9-8.07,15.93-14.8,21.6-.79.67-1.74,1.33-2.76,1.16-.55-.09-1.08-.34-1.48-.72-12-11.31-23.73-19.83-32.22-23-1.18-.44-23.94-8.04-25.08-7.51,0,0-2.31-1.37-4.81-2.64-7.55-3.84-10.49-8.65-23-14.44-7.67-3.55-15.23-3.64-19.88-4.23-6.1-.78-11.12-1.4-17.09-2.87,2.78-9.08,2.59-16.92,5.19-26.05,8.07-28.31,19.19-58.21,27.56-85.55.72-2.36,2.81-4.29,5.14-5.12,2.73-.97,5.79.28,8.05,2.09,2.26,1.81,6.4,3.21,8.69,4.98,2.91,2.25,12.16,7.72,12.16,7.72,5.44,4.89,17.6,13.13,22.43,15.65,9.59,5.01,17.78,8.68,27.95,10.41Z"/>
          <path class="cls-11" d="m516.66,259.37c-10.15,24.66-15.89,52.59-25.98,77.28-2.23,5.46-4.92,10.93-9.31,14.88,22.48,4.8,47.6,16.19,60.22,35.4,10.98-14.93,18.49-32.08,25.9-49.07,7.75-17.77,15.51-35.54,23.26-53.32-23.4-16.23-47.38-18.97-74.09-25.18-10.39-2.42-16.92-10.31-24.92-16.98-10.31-8.59-21.54-16.66-34.76-19.98-14.66,35.52-25.24,73.25-33.37,110.8,19.93-3.09,41.68,6.15,57.76,18.32"/>
          <path class="cls-5" d="m517.71,272.47c10.33,3.65,19.86,11.92,30.7,10.3,2.74-.41,5.37-1.45,8.13-1.6,6.42-.34,11.98,4.11,16.85,8.3"/>
          <path class="cls-5" d="m514.59,294.7c5.53,3.95,8.16,11.62,14.54,13.99,4.64,1.72,9.77.02,14.72.03,6.32.02,12.57,3.05,16.49,8"/>
          <path class="cls-5" d="m511.19,319.51c6.63,6.36,15.05,10.83,24.03,12.78,3.48.75,7.48,1.42,9.38,4.43"/>
          <path class="cls-5" d="m461.23,237.52c9.79,4.32,13.8,17.32,23.89,20.86,2.59.9,5.38,1.09,7.99,1.9,2.62.81,5.23,2.49,6.01,5.11"/>
          <path class="cls-5" d="m453.38,257.5c5.83,11.13,16.22,19.79,28.22,23.53,3.1.97,6.33,1.63,9.15,3.24"/>
          <path class="cls-5" d="m446.29,284.59c4.43,6.38,11.06,11.19,18.5,13.42,4.75,1.42,10.06,1.95,13.73,5.28"/>
          <path class="cls-5" d="m439.64,307.19c5.05,9.14,16.24,12.57,26.35,15.2,3.98,1.03,7.96,2.07,11.95,3.1"/>
          <path class="cls-1" d="m500.82,339.63c1.62,1.28,4.06,1.4,5.8.28.51-.33.99-.81,1.06-1.41s-.46-1.28-1.05-1.15c-.59.59-1.2,1.22-1.47,2.01s-.09,1.81.63,2.24c1,.59,2.25-.24,2.94-1.17s1.27-2.09,2.36-2.46c-.92.24-1.8.65-2.57,1.2-.52.38-1.01.84-1.23,1.45s-.09,1.37.42,1.75,1.41.15,1.56-.48c-.52.72-.71,1.67-.5,2.53,1.3-.33,2.61-.65,3.91-.98-.85,1.53.08,3.54,1.52,4.54s3.24,1.27,4.95,1.66,3.5,1,4.54,2.41l-.68-.87"/>
        </g>
        <g>
          <path class="cls-9" d="m593.28,370.23c7.23-3.26,9.79-12.39,7.66-20.03s-12.7-10.96-19.98-7.8c-3.72,1.62-7.03,2.36-10.35,3.74-7.63,3.16-19.66-.63-21.79-2.99,11.35-13.63,39.27-19.5,61.92-16.95,11.15,1.25,12.47,15.1,13.81,26.24,1.34,11.14,2.71,22.06,2.93,33.27s2.3,22.98,9.43,31.64c-6.39,7.67-15.42,13.23-25.23,15.07-6.15-5.11-12.31-10.22-18.46-15.33-5.67-4.71-11.46-9.56-15.13-15.96-3.42-5.96-4.76-12.85-6.84-19.4-2.08-6.55-5.24-13.21-11.01-16.94-3.27-2.11-7.19-3.15-10.19-5.61s-4.72-7.33-2.07-10.18c2.06-2.23,5.6-2.06,8.57-1.48,17.33,3.39,32.67,15.7,39.72,31.89"/>
          <path class="cls-2" d="m600.76,348.7c-3.72-7.88-14.53-11.41-22.18-7.26-2.64,1.43-7.24,1.53-9.8,3.11-7.16,4.43-14,7.62-19,14.39-1.84,2.49-3.45,4.94-1.99,7.67s10.21.23,13.13-1.4c-.59,2.32-6.69,7.78-3.71,11.85,5.47,3.84,7.74-5.13,9.43-5.46-1.71,2.53-5.82,10.79-3.11,12.71,4.4,3.1,11.85-2.82,14.88-3.82,4.75-1.58,16.06.86,19.65-2.72,6.11-6.09,6.66-20.64,2.69-29.05Z"/>
          <g>
            <path class="cls-8" d="m580.7,342.16c-1.75.76-3.41,1.33-5.03,1.86,5.98-.6,11.97-1.11,17.97-1.56-4.03-1.79-8.98-2.02-12.94-.3Z"/>
            <path class="cls-8" d="m650.52,339.5c-.48-.11-.91-.2-1.27-.25-2.68-.35-5.36-.6-8.05-.75-5.28-.3-10.57-.23-15.81.21-.29.02-.58.05-.86.08.17.6.33,1.2.48,1.8,7.81-.37,15.61-.7,23.41-1.02.7-.03,1.4-.05,2.11-.07Z"/>
            <path class="cls-8" d="m591.95,352.96c-6.2.31-12.41.62-18.62.85,9.92,5.86,18.07,14.78,22.67,25.36l-2.99-9.18c6.39-2.88,9.12-10.33,8.21-17.3-.14-.05-.27-.12-.4-.19-2.96.16-5.92.31-8.88.46Z"/>
            <path class="cls-8" d="m546.62,353.98s-.01-.05-.02-.08c-.02,0-.03,0-.05,0,.02.03.04.05.06.08Z"/>
            <path class="cls-6" d="m660.37,342.33c.09.67.18,1.56.54,2.13.15.25.6.46.69.79.53-.28,1.04-.58,1.5-.91,1.86-1.32-.54-2.62-2.86-3.45.25.37.09,1.12.14,1.44Z"/>
            <path class="cls-6" d="m650.52,339.5c-.71.02-1.41.04-2.11.07-7.8.32-15.6.65-23.41,1.02.86,3.42,1.45,6.84,1.85,9.87.02,0,.03,0,.05,0,5.87-.66,12.41.57,18.21-.55,2.81-.54,8.06-1.92,10.85-2.6,1.49-.37,3.14-.89,4.66-1.57-.12-.08-.23-.19-.32-.32-.15-.23-.24-.5-.31-.77-.12-.44-1.22-3.66-.45-4-.8-.26-1.53-.46-2.01-.57-.12-.03-.25-.05-.38-.08-.11.07-.24.15-.4.22-1.36.61-4.2-.24-6.22-.71Z"/>
            <path class="cls-6" d="m545.67,351.07c.03,1,.29,2.03.89,2.83.02,0,.03,0,.05,0-.45-1.86-.2-3.75,1.1-5.15,2.06-2.23,5.6-2.06,8.57-1.48,6.01,1.18,11.78,3.43,17.05,6.54,6.21-.22,12.42-.53,18.62-.85,2.96-.15,5.92-.3,8.88-.46-1.53-.94-1.81-3.65-1.91-5.38-.01-.2-.02-.43-.03-.68-1.32-1.71-3.16-3.06-5.25-3.99-6,.45-11.99.96-17.97,1.56-1.81.6-3.57,1.15-5.33,1.88-5.1,2.12-11.1,2.19-15.99.66-2.81.39-5.62.81-8.43,1.26.04.11.07.24.08.4.04.93-.36,1.9-.34,2.86Z"/>
            <path class="cls-6" d="m530.36,350.78c.03-.09.08-.16.13-.21-2.12.42-4.25.86-6.36,1.31,2.12.32,4.24.59,6.37.83-.05-.55-.28-1.45-.13-1.93Z"/>
            <path class="cls-6" d="m543.95,349.85c.06-.62.14-1.27.49-1.79,0,0,0,0,0,0-4.28.69-8.54,1.45-12.8,2.28-.14.21-.16.51-.11.78.07.34.23.65.3.99.06.26.05.54-.06.76,4.32.46,8.66.78,13.01.98-.52-.47-.8-1.16-.89-1.86-.1-.7-.02-1.42.05-2.13Z"/>
            <path class="cls-6" d="m625.39,338.72c5.24-.44,10.53-.51,15.81-.21,2.69.15,5.37.4,8.05.75.36.05.79.14,1.27.25,2.22-.05,4.46.02,6.63.49,2.72-1.73-7.43-3.48-8.83-3.72-4.83-.81-9.73-1.05-14.57-.72-3.29.23-6.55.72-9.74,1.48.18.58.36,1.16.52,1.75.29-.03.58-.05.86-.08Z"/>
            <path class="cls-6" d="m656.74,340.21c.16-.07.29-.15.4-.22-2.16-.47-4.41-.54-6.63-.49,2.03.47,4.87,1.32,6.22.71Z"/>
            <path class="cls-3" d="m600.83,352.5c.12.08.26.14.4.19,0-.07-.02-.14-.03-.21-.12,0-.25.01-.37.02Z"/>
            <path class="cls-3" d="m600.67,349.96c-.36-1.3-.98-2.48-1.79-3.52,0,.25.02.48.03.68.09,1.72.38,4.44,1.91,5.38.12,0,.25-.01.37-.02-.12-.85-.29-1.69-.52-2.52Z"/>
            <path class="cls-3" d="m531.78,350.19c-.37.28-.99.1-1.29.37.39-.08.77-.16,1.16-.23.04-.05.08-.1.13-.14Z"/>
            <path class="cls-3" d="m530.5,352.78c.38.08.77.16,1.15.24.06-.05.1-.11.13-.17-.43-.05-.86-.1-1.29-.15,0,.03,0,.05,0,.08Z"/>
            <path class="cls-3" d="m531.85,352.09c-.08-.33-.24-.65-.3-.99-.05-.27-.03-.57.11-.78-.39.08-.77.16-1.16.23-.06.05-.1.12-.13.21-.15.48.08,1.38.13,1.93.43.05.86.1,1.29.15.12-.22.12-.5.06-.76Z"/>
            <path class="cls-3" d="m660.06,340.73c-.23-.12-.4-.14-.52-.08.23.07.46.15.69.24-.04-.06-.1-.12-.17-.16Z"/>
            <path class="cls-3" d="m660.96,345.87c.47.06.73-.13.64-.59,0-.01,0-.02-.01-.03-.32.17-.64.33-.98.48.11.07.22.12.35.14Z"/>
            <path class="cls-3" d="m659.99,344.65c.07.27.15.54.31.77.08.12.19.23.32.32.33-.15.66-.31.98-.48-.09-.32-.53-.54-.69-.79-.36-.57-.45-1.47-.54-2.13-.04-.32.11-1.07-.14-1.44-.23-.08-.47-.16-.69-.24-.77.34.34,3.56.45,4Z"/>
            <path class="cls-3" d="m546.56,353.9c-.59-.02-1.18-.04-1.77-.07,0,0,.01.01.02.02.51.45,1.26.63,1.88.38-.02-.08-.05-.17-.07-.25-.02-.03-.04-.05-.06-.08Z"/>
            <path class="cls-3" d="m544.45,348.05c.49-.08.98-.16,1.47-.24-.25-.61-1.01-.44-1.47.24Z"/>
            <path class="cls-3" d="m545.67,351.07c-.03-.96.37-1.93.34-2.86,0-.16-.04-.29-.08-.4-.49.08-.98.16-1.47.24,0,0,0,0,0,0-.35.52-.43,1.17-.49,1.79-.07.71-.15,1.42-.05,2.13.09.7.37,1.39.89,1.86.59.03,1.18.05,1.77.07-.6-.8-.86-1.83-.89-2.83Z"/>
            <path class="cls-2" d="m557.27,336.26c-3.08,2.24-4.95,4.96-8.11,7.27,1.63,1.49,2.78,2.27,5.2,3.02,7.08-.99,14.19-1.82,21.31-2.54,1.61-.53,3.27-1.1,5.03-1.86,3.97-1.72,8.92-1.49,12.94.3,1.93-.14,3.85-.28,5.78-.41.1-.19.22-.36.36-.49,1.24-1.13,5.32-.09,5.56-.31-.07.11-.12.25-.18.42,6.61-.41,13.22-.76,19.84-1.08-.04-.15.04.15,0,0"/>
            <path class="cls-2" d="m624.52,338.79c-.03-.12.03.12,0,0-2.26.2-4.53.41-6.8.12,2.05-.75,4.15-1.37,6.28-1.87-.02-.07.2.65,0,0"/>
            <path class="cls-2" d="m624.38,350.73c-6.58.74-10.72.99-17.33,1.4-1.19,1.25-3.57,1.27-5.74.6-.03,0-.06-.03-.09-.04.91,6.97-5.67,12.64-12.06,15.52l5.07,8.13c-5.36-10.42-10.99-16.67-20.91-22.53-4.81-1.49-26.38-14.78-26.72.09,0,.03.01.05.02.08.06.07.11.14.17.21-.03.02-.07.03-.1.04.51,1.8,1.65,3.53,3.09,4.71,3.01,2.46,6.93,3.5,10.19,5.61,5.77,3.73,8.93,10.39,11.01,16.94s3.42,13.44,6.84,19.4c1.09,1.9,2.59,3.85,4.31,5.77"/>
            <path class="cls-6" d="m605.16,341.67c-.33,1.04-.4,3.21.28,5.54.48,1.67,1.12,3.24,1.67,4.86.06-.06.03-.03,0,0s-.06.06,0,0c-.02.02-.04.04-.06.06,6.61-.41,13.21-.92,19.8-1.67-.4-3.03-.99-6.46-1.85-9.87-6.62.32-13.23.66-19.84,1.08Z"/>
            <path class="cls-6" d="m570.34,345.89c1.76-.73,3.51-1.28,5.33-1.88-7.12.71-14.23,1.55-21.31,2.54,4.89,1.53,10.88,1.46,15.99-.66Z"/>
            <path class="cls-6" d="m593.64,342.45c2.09.93,3.92,2.27,5.25,3.99-.05-1.36-.03-3.32.54-4.4-1.93.13-3.86.27-5.78.41Z"/>
            <path class="cls-6" d="m624.52,338.79c-.16-.59-.34-1.17-.52-1.75-2.13.51-4.23,1.13-6.28,1.87,2.27.28,4.54.08,6.8-.12Z"/>
            <path class="cls-3" d="m605.34,341.25c-.24.22-4.32-.82-5.56.31-.14.13-.26.29-.36.49,1.91-.13,3.82-.26,5.74-.37.05-.17.11-.32.18-.42Z"/>
            <path class="cls-3" d="m601.22,352.69s.06.03.09.04c2.17.68,4.55.66,5.74-.6-1.95.12-3.91.24-5.86.35.01.07.02.14.03.21Z"/>
            <path class="cls-4" d="m607.11,352.08c-.06.06-.03.03,0,0h0Z"/>
            <path class="cls-4" d="m607.11,352.08s.06-.06,0,0h0Z"/>
            <path class="cls-3" d="m605.44,347.21c-.68-2.33-.6-4.5-.28-5.54-1.91.12-3.83.24-5.74.37-.56,1.08-.59,3.04-.54,4.4.81,1.04,1.42,2.22,1.79,3.52.23.83.4,1.67.52,2.52,1.95-.11,3.91-.22,5.86-.35.02-.02.04-.04.06-.06-.56-1.62-1.19-3.2-1.67-4.86Z"/>
            <path class="cls-4" d="m546.62,353.98c.02.08.04.17.07.25.03-.01.07-.02.1-.04-.06-.07-.12-.14-.17-.21Z"/>
          </g>
          <path class="cls-2" d="m557.56,336.06c2.35,1.11,3.27,3.15,2.71,5.74s-2.97,4.77-5.62,5.05c-2.25.24-4.5-.9-5.66-2.75-.34-.55-.24-1.27.26-1.69l6.67-5.71c1.35-.96,1.23-.38,1.63-.64"/>
          <path class="cls-2" d="m560.77,352.77c-.82,3.28-4.3,5.85-7.61,5.14-3.16-.68-5.29-4.32-4.42-7.43s4.22-3.08,7.35-2.27c2.78.72,5.13,1.47,5.05,4.34"/>
          <path class="cls-2" d="m588.32,354.95c3.05,2.05,3.66,6.99,1.34,10.8"/>
          <path class="cls-2" d="m570.11,331.23c2.78,3.19,4.03,4.63,3.75,4.31"/>
          <path class="cls-2" d="m567.03,332.89c3.41,3.31,5.14,4.98,5.23,5.07"/>
          <path class="cls-2" d="m575.9,358.68c-2.7.79-4.84,3.23-5.26,6.02"/>
          <path class="cls-2" d="m577.89,360.69c.35,1.82-1.43,3.71-3.27,3.47"/>
          <path class="cls-2" d="m580.08,363.53c-1.43,2.55-4.16,4.32-7.07,4.59"/>
          <path class="cls-2" d="m599.97,329.98c-.83-1.32-.22-3.06,1.17-3.31"/>
        </g>
      </g>
      <g>
        <g>
          <path class="cls-7" d="m150.59,372.89c6.75-1.18,13.61-1.57,20.46-1.96,12.18-.69,24.77-1.32,36.22,2.89,3.22,1.18,6.62,3.11,7.52,6.42.34,1.22.29,2.52.23,3.78-1.15,27.72-2.31,55.47-5.42,83.04-.99,8.74-2.25,17.72-6.69,25.31-.52.89-1.2,1.84-2.21,2.02-.54.1-1.13.04-1.63-.18-15.1-6.62-29.01-10.71-38.08-10.84-1.26-.02-25.25.47-26.15,1.35,0,0-2.64-.51-5.42-.87-8.4-1.08-12.78-4.62-26.52-5.88-8.42-.77-15.57,1.69-20.14,2.69-6.01,1.31-10.95,2.42-17.07,3.03-.43-9.48-3.24-16.8-3.86-26.27-1.91-29.38-1.48-61.28-2.77-89.84-.11-2.46,1.21-4.99,3.12-6.55,2.25-1.83,5.55-1.68,8.29-.73,2.74.95,7.11.87,9.86,1.77,3.5,1.14,14.05,3.19,14.05,3.19,6.77,2.78,20.99,6.46,26.38,7.21,10.72,1.5,19.66,2.2,29.82.42Z"/>
          <path class="cls-11" d="m133.55,379.8c-1.28,26.63,2.7,54.87,1.48,81.52-.27,5.9-.97,11.95-3.78,17.14,22.79-3.03,50.27-.73,68.61,13.13,5.33-17.75,6.64-36.43,7.92-54.92,1.34-19.34,2.67-38.69,4.01-58.03-27.49-7.43-51-1.96-78.24,1.17-10.6,1.21-19.4-4.03-29.17-7.63-12.6-4.63-25.88-8.46-39.45-7.15-1.88,38.38.83,77.47,5.77,115.57,17.74-9.6,41.32-8.21,60.56-2.14"/>
          <path class="cls-5" d="m138.93,391.79c10.96-.03,22.71,4.56,32.37-.61,2.44-1.3,4.57-3.17,7.12-4.24,5.93-2.47,12.66-.15,18.66,2.16"/>
          <path class="cls-5" d="m143.46,413.77c6.54,1.86,11.59,8.21,18.39,8.29,4.95.06,9.21-3.26,13.87-4.91,5.96-2.11,12.86-1.35,18.22,2"/>
          <path class="cls-5" d="m148.59,438.28c8.38,3.76,17.82,5.15,26.93,3.97,3.53-.46,7.53-1.18,10.32,1.03"/>
          <path class="cls-5" d="m74,377.83c10.67.78,18.81,11.69,29.51,11.62,2.74-.02,5.43-.78,8.17-.89,2.74-.12,5.76.58,7.38,2.8"/>
          <path class="cls-5" d="m73.31,399.29c9.23,8.53,21.93,13.2,34.48,12.69,3.24-.13,6.51-.59,9.71-.02"/>
          <path class="cls-5" d="m75.73,427.19c6.31,4.52,14.18,6.83,21.93,6.43,4.95-.26,10.13-1.54,14.71.37"/>
          <path class="cls-5" d="m77.06,450.71c7.82,6.92,19.52,6.39,29.92,5.47,4.1-.36,8.2-.73,12.29-1.09"/>
          <path class="cls-1" d="m145.58,460.71c1.96.67,4.3-.04,5.56-1.68.37-.48.66-1.09.52-1.68s-.86-1.05-1.38-.73c-.36.76-.72,1.55-.71,2.39s.52,1.73,1.34,1.9c1.14.22,2.04-.98,2.37-2.09s.49-2.4,1.4-3.11c-.79.53-1.47,1.21-2.01,2-.36.53-.67,1.13-.67,1.78s.37,1.32.99,1.5,1.38-.34,1.3-.97c-.25.85-.11,1.81.38,2.55,1.12-.74,2.24-1.49,3.36-2.23-.29,1.73,1.27,3.31,2.96,3.76s3.48.11,5.22-.1,3.63-.23,5.08.74l-.94-.59"/>
        </g>
        <g>
          <path class="cls-9" d="m242.95,458.49c5.72-5.5,5.06-14.96.49-21.44s-15.64-6.06-21.44-.64c-2.96,2.77-5.83,4.59-8.5,7-6.12,5.54-18.73,6.01-21.52,4.5,6.11-16.65,30.44-31.56,52.64-36.76,10.92-2.56,16.81,10.04,21.81,20.08,5,10.04,9.96,19.87,13.93,30.36s9.88,20.87,19.51,26.63c-3.44,9.37-10.08,17.64-18.7,22.67-7.51-2.75-15.02-5.49-22.53-8.24-6.92-2.53-14.01-5.16-19.61-9.95-5.22-4.47-8.8-10.51-12.95-15.98-4.16-5.47-9.37-10.68-16.06-12.25-3.78-.89-7.83-.55-11.49-1.86s-6.91-5.32-5.37-8.9c1.2-2.79,4.58-3.82,7.58-4.27,17.46-2.63,36.04,3.82,48.12,16.7"/>
          <path class="cls-2" d="m242.76,435.7c-6.15-6.17-17.52-5.87-23.33.61-2.01,2.24-6.31,3.87-8.19,6.22-5.26,6.57-10.63,11.88-13.06,19.93-.89,2.96-1.59,5.81.7,7.89s9.69-3.21,11.89-5.73c.23,2.38-3.69,9.57.48,12.41,6.44,1.78,5.57-7.43,7.05-8.31-.76,2.95-1.86,12.12,1.34,13.01,5.18,1.44,10.21-6.63,12.74-8.6,3.95-3.08,15.42-4.59,17.6-9.16,3.71-7.79-.66-21.68-7.22-28.27Z"/>
          <g>
            <path class="cls-8" d="m221.67,436.27c-1.4,1.31-2.77,2.4-4.11,3.44,5.43-2.57,10.9-5.07,16.4-7.51-4.39-.33-9.13,1.11-12.29,4.07Z"/>
            <path class="cls-8" d="m286.54,410.33c-.49.06-.93.12-1.28.19-2.64.57-5.25,1.24-7.84,2-5.08,1.49-10.04,3.33-14.82,5.51-.26.12-.53.24-.79.36.36.51.71,1.02,1.06,1.54,7.23-2.97,14.47-5.9,21.71-8.82.65-.26,1.3-.52,1.96-.77Z"/>
            <path class="cls-8" d="m235.89,442.68c-5.73,2.38-11.48,4.76-17.26,7.05,11.31,2.19,21.98,7.86,29.87,16.27l-5.9-7.64c5.05-4.86,5.12-12.8,1.93-19.05-.15,0-.3-.02-.44-.05-2.73,1.15-5.47,2.28-8.21,3.42Z"/>
            <path class="cls-8" d="m193.54,458.85s-.03-.04-.04-.07c-.01,0-.03,0-.04.01.03.02.06.03.09.05Z"/>
            <path class="cls-6" d="m296.77,409.68c.31.6.69,1.41,1.22,1.83.23.18.72.24.91.51.41-.44.78-.9,1.11-1.36,1.31-1.87-1.39-2.28-3.86-2.29.36.26.47,1.03.62,1.31Z"/>
            <path class="cls-6" d="m286.54,410.33c-.66.25-1.31.51-1.96.77-7.24,2.92-14.48,5.85-21.71,8.82,1.96,2.93,3.66,5.96,5.06,8.68.02,0,.03-.01.05-.02,5.3-2.6,11.88-3.63,16.96-6.63,2.46-1.46,6.95-4.52,9.34-6.09,1.28-.84,2.66-1.89,3.86-3.05-.15-.04-.28-.1-.41-.19-.22-.16-.39-.39-.55-.62-.26-.37-2.38-3.04-1.77-3.62-.84.02-1.6.08-2.09.14-.13.01-.25.04-.38.05-.08.11-.18.22-.31.34-1.07,1.03-4.03,1.19-6.1,1.42Z"/>
            <path class="cls-6" d="m191.67,456.43c.36.94.96,1.82,1.79,2.37.01,0,.03,0,.04-.01-1.04-1.6-1.45-3.46-.69-5.22,1.2-2.79,4.58-3.82,7.58-4.27,6.06-.91,12.24-.73,18.25.43,5.78-2.29,11.52-4.67,17.26-7.05,2.74-1.14,5.47-2.27,8.21-3.42-1.76-.37-2.94-2.83-3.6-4.43-.08-.18-.17-.4-.26-.63-1.82-1.17-4-1.82-6.28-1.99-5.5,2.44-10.97,4.93-16.4,7.51-1.51,1.17-2.98,2.28-4.39,3.56-4.1,3.71-9.72,5.79-14.84,5.99-2.52,1.32-5.02,2.66-7.52,4.02.08.09.15.2.21.35.35.86.3,1.91.64,2.81Z"/>
            <path class="cls-6" d="m177.15,461.3c0-.1.02-.18.05-.25-1.86,1.11-3.71,2.23-5.55,3.38,2.1-.41,4.19-.87,6.27-1.36-.24-.5-.75-1.27-.77-1.77Z"/>
            <path class="cls-6" d="m189.64,455.85c-.15-.61-.3-1.25-.14-1.85,0,0,0,0,0,0-3.79,2.09-7.56,4.23-11.29,6.44-.07.25.02.53.16.77.18.29.43.54.62.83.14.22.23.49.2.74,4.23-1.02,8.42-2.17,12.58-3.44-.65-.27-1.14-.83-1.46-1.45-.33-.63-.5-1.33-.67-2.02Z"/>
            <path class="cls-6" d="m262.6,418.03c4.79-2.18,9.75-4.02,14.82-5.51,2.58-.76,5.2-1.42,7.84-2,.35-.08.79-.14,1.28-.19,2.08-.79,4.21-1.48,6.41-1.76,1.98-2.54-8.17-.79-9.57-.54-4.82.86-9.52,2.28-13.96,4.22-3.03,1.32-5.93,2.88-8.68,4.67.37.48.72.98,1.08,1.47.26-.12.53-.24.79-.36Z"/>
            <path class="cls-6" d="m292.64,408.91c.13-.12.22-.23.31-.34-2.2.28-4.33.97-6.41,1.76,2.07-.23,5.03-.39,6.1-1.42Z"/>
            <path class="cls-3" d="m244.1,439.26c.14.03.29.05.44.05-.03-.06-.07-.13-.1-.19-.11.05-.23.1-.34.14Z"/>
            <path class="cls-3" d="m243.1,436.92c-.78-1.1-1.76-2-2.86-2.71.09.23.18.45.26.63.67,1.59,1.85,4.06,3.6,4.43.11-.05.23-.1.34-.14-.4-.76-.84-1.5-1.34-2.2Z"/>
            <path class="cls-3" d="m178.29,460.27c-.26.39-.9.43-1.09.78.34-.2.68-.41,1.02-.61.02-.06.04-.12.08-.17Z"/>
            <path class="cls-3" d="m177.96,463.14c.39-.05.77-.11,1.16-.16.04-.06.06-.13.07-.21-.42.1-.84.2-1.27.29.01.02.02.05.03.07Z"/>
            <path class="cls-3" d="m178.99,462.04c-.18-.29-.44-.54-.62-.83-.14-.23-.22-.52-.16-.77-.34.2-.68.41-1.02.61-.04.07-.06.15-.05.25.02.5.54,1.27.77,1.77.42-.1.84-.19,1.27-.29.04-.24-.05-.51-.2-.74Z"/>
            <path class="cls-3" d="m295.94,408.28c-.26-.03-.42,0-.52.1.24,0,.48-.01.73,0-.06-.05-.13-.08-.21-.09Z"/>
            <path class="cls-3" d="m298.52,412.81c.46-.1.65-.37.41-.77,0,0-.01-.02-.02-.02-.24.27-.5.53-.76.78.12.03.25.04.37.01Z"/>
            <path class="cls-3" d="m297.19,411.99c.16.23.33.45.55.62.12.09.26.16.41.19.26-.26.52-.52.76-.78-.19-.27-.68-.33-.91-.51-.53-.42-.91-1.23-1.22-1.83-.15-.29-.26-1.05-.62-1.31-.25,0-.49,0-.73,0-.61.58,1.51,3.24,1.77,3.62Z"/>
            <path class="cls-3" d="m193.46,458.8c-.56.18-1.13.35-1.69.53,0,0,.02,0,.03.01.63.25,1.4.17,1.9-.28-.05-.07-.1-.14-.15-.21-.03-.02-.06-.03-.09-.05Z"/>
            <path class="cls-3" d="m189.5,454c.44-.24.87-.48,1.31-.72-.44-.49-1.1-.07-1.31.72Z"/>
            <path class="cls-3" d="m191.67,456.43c-.35-.89-.3-1.95-.64-2.81-.06-.15-.13-.26-.21-.35-.44.24-.87.48-1.31.72,0,0,0,0,0,0-.16.6-.01,1.24.14,1.85.17.69.34,1.39.67,2.02.32.62.82,1.18,1.46,1.45.56-.17,1.13-.35,1.69-.53-.83-.55-1.43-1.43-1.79-2.37Z"/>
            <path class="cls-2" d="m197.62,438.58c-2.15,3.14-3,6.33-5.2,9.57,2.03.86,3.38,1.2,5.91,1.1,6.34-3.31,12.75-6.48,19.22-9.55,1.34-1.04,2.72-2.13,4.11-3.44,3.16-2.95,7.9-4.4,12.29-4.07,1.77-.78,3.54-1.56,5.31-2.33.03-.22.09-.41.17-.58.79-1.48,4.98-1.87,5.13-2.16-.03.12-.03.28-.03.46,6.09-2.61,12.2-5.16,18.33-7.68-.08-.13.09.13,0,0"/>
            <path class="cls-2" d="m261.82,418.39c-.07-.1.07.1,0,0-2.06.95-4.13,1.91-6.37,2.4,1.68-1.39,3.45-2.68,5.29-3.87-.05-.06.41.54,0,0"/>
            <path class="cls-2" d="m265.69,429.68c-5.95,2.91-9.76,4.53-15.85,7.14-.7,1.58-2.93,2.4-5.21,2.49-.03,0-.07,0-.1,0,3.2,6.26-1.1,13.81-6.15,18.67l7.51,5.96c-8.55-8.02-15.95-12.01-27.26-14.2-5.03.22-29.81-5.06-25.14,9.06.01.02.03.04.04.07.08.05.15.1.23.14-.03.03-.06.05-.08.07,1.08,1.52,2.74,2.77,4.49,3.4,3.66,1.31,7.7.97,11.49,1.86,6.69,1.57,11.9,6.78,16.06,12.25s7.73,11.51,12.95,15.98c1.67,1.43,3.73,2.76,5.99,3.99"/>
            <path class="cls-6" d="m244.55,427.6c.04,1.09.7,3.16,2.12,5.13,1.01,1.41,2.14,2.68,3.21,4.02.03-.08.02-.04,0,0s-.03.08,0,0c0,.02-.02.05-.03.07,6.09-2.61,12.14-5.31,18.09-8.22-1.4-2.72-3.1-5.75-5.06-8.68-6.13,2.52-12.24,5.07-18.33,7.68Z"/>
            <path class="cls-6" d="m213.17,443.27c1.41-1.28,2.88-2.39,4.39-3.56-6.47,3.06-12.88,6.23-19.22,9.55,5.12-.2,10.74-2.28,14.84-5.99Z"/>
            <path class="cls-6" d="m233.96,432.21c2.28.17,4.46.82,6.28,1.99-.5-1.26-1.14-3.12-.97-4.32-1.77.77-3.54,1.55-5.31,2.33Z"/>
            <path class="cls-6" d="m261.82,418.39c-.35-.5-.71-.99-1.08-1.47-1.84,1.19-3.61,2.48-5.29,3.87,2.23-.49,4.3-1.45,6.37-2.4Z"/>
            <path class="cls-3" d="m244.57,427.14c-.15.29-4.34.68-5.13,2.16-.09.17-.14.36-.17.58,1.76-.76,3.52-1.53,5.28-2.28,0-.18,0-.34.03-.46Z"/>
            <path class="cls-3" d="m244.54,439.31s.06,0,.1,0c2.27-.09,4.5-.91,5.21-2.49-1.8.77-3.6,1.54-5.4,2.29.03.06.07.13.1.19Z"/>
            <path class="cls-4" d="m249.88,436.75c-.03.08-.02.04,0,0h0Z"/>
            <path class="cls-4" d="m249.88,436.75s.03-.08,0,0h0Z"/>
            <path class="cls-3" d="m246.67,432.73c-1.42-1.97-2.08-4.04-2.12-5.13-1.76.75-3.52,1.52-5.28,2.28-.17,1.2.47,3.06.97,4.32,1.11.71,2.09,1.61,2.86,2.71.49.7.94,1.44,1.34,2.2,1.8-.76,3.61-1.52,5.4-2.29.01-.02.02-.05.03-.07-1.07-1.34-2.2-2.61-3.21-4.02Z"/>
            <path class="cls-4" d="m193.54,458.85c.05.07.1.14.15.21.03-.02.06-.05.08-.07-.08-.04-.15-.09-.23-.14Z"/>
          </g>
          <path class="cls-2" d="m197.82,438.3c2.59.25,4.14,1.87,4.49,4.5s-1.19,5.49-3.59,6.64c-2.04.98-4.54.66-6.25-.69-.51-.4-.65-1.12-.33-1.68l4.37-7.62c.95-1.36,1.03-.77,1.32-1.15"/>
          <path class="cls-2" d="m206.46,452.97c.33,3.37-2.09,6.95-5.44,7.39-3.2.42-6.43-2.3-6.66-5.52s2.94-4.32,6.16-4.6c2.86-.25,5.33-.34,6.21,2.39"/>
          <path class="cls-2" d="m233.14,445.76c3.56.91,5.8,5.36,4.89,9.72"/>
          <path class="cls-2" d="m208.02,429.54c3.69,2.07,5.35,3.01,4.98,2.8"/>
          <path class="cls-2" d="m205.68,432.13c4.32,1.97,6.51,2.97,6.62,3.02"/>
          <path class="cls-2" d="m222.7,453.45c-2.28,1.65-3.48,4.67-2.94,7.43"/>
          <path class="cls-2" d="m225.24,454.68c.95,1.59-.1,3.98-1.91,4.37"/>
          <path class="cls-2" d="m228.26,456.61c-.49,2.88-2.47,5.47-5.12,6.69"/>
          <path class="cls-2" d="m235.73,418.33c-1.23-.96-1.23-2.81,0-3.51"/>
        </g>
      </g>
      <g>
        <g>
          <path class="cls-7" d="m608.2,115.82c-1.33,4.19-3.14,8.21-4.94,12.22-3.22,7.13-6.58,14.48-12.37,19.75-1.63,1.48-3.73,2.84-5.88,2.38-.8-.17-1.52-.58-2.22-.99-15.43-8.87-30.87-17.74-45.63-27.68-4.68-3.15-9.41-6.53-12.42-11.3-.35-.56-.69-1.23-.5-1.86.1-.34.31-.65.59-.88,8.24-6.63,14.68-13.33,17.44-18.45.38-.71,7.21-14.5,6.97-15.27,0,0,1.07-1.35,2.1-2.83,3.1-4.46,6.41-5.9,11.2-13.34,2.93-4.56,3.65-9.36,4.44-12.26,1.03-3.81,1.87-6.94,3.33-10.61,5.52,2.56,10.52,3.13,16.09,5.59,17.28,7.61,35.29,17.31,51.93,25.03,1.43.67,2.48,2.16,2.8,3.71.38,1.82-.69,3.65-2.04,4.93-1.35,1.28-2.6,3.78-3.93,5.09-1.68,1.65-5.97,7.05-5.97,7.05-3.59,3.03-9.89,10.03-11.92,12.87-4.03,5.65-7.08,10.53-9.07,16.84Z"/>
          <path class="cls-11" d="m609.32,104.08c-14.77-8.61-32.01-14.72-46.81-23.3-3.27-1.9-6.51-4.09-8.63-7.22-5.03,13.86-14.47,28.82-27.79,35.14,8.52,8.29,18.75,14.57,28.9,20.77,10.61,6.49,21.22,12.98,31.83,19.47,12.37-13.44,16.22-28.43,22.51-44.85,2.45-6.39,8.04-9.84,12.98-14.34,6.37-5.8,12.48-12.22,15.75-20.32-21.27-12.44-44.31-22.47-67.45-30.95.21,12.93-7.57,25.94-16.72,35.08"/>
          <path class="cls-5" d="m600.9,103.59c-3.23,6.24-9.32,11.57-9.24,18.6.02,1.77.45,3.54.3,5.31-.35,4.11-3.66,7.25-6.76,9.97"/>
          <path class="cls-5" d="m587.06,99.65c-2.99,3.17-8.1,4.16-10.16,8-1.5,2.8-.87,6.2-1.32,9.35-.57,4.01-3.04,7.72-6.53,9.77"/>
          <path class="cls-5" d="m571.6,95.31c-4.62,3.66-8.2,8.61-10.23,14.14-.79,2.14-1.56,4.63-3.64,5.57"/>
          <path class="cls-5" d="m628.08,70.78c-3.61,5.84-12.22,7.24-15.35,13.35-.8,1.56-1.17,3.32-1.91,4.91s-2.04,3.1-3.78,3.37"/>
          <path class="cls-5" d="m616.07,64.04c-7.59,2.73-14,8.56-17.43,15.86-.89,1.88-1.59,3.88-2.86,5.53"/>
          <path class="cls-5" d="m599.48,57.15c-4.44,2.25-8.08,6.04-10.15,10.57-1.32,2.89-2.13,6.22-4.56,8.26"/>
          <path class="cls-5" d="m585.71,50.94c-6.25,2.4-9.42,9.21-11.97,15.4-1.01,2.44-2.01,4.88-3.02,7.32"/>
          <path class="cls-1" d="m559.73,86.96c-.96.92-1.25,2.46-.69,3.66.16.35.43.7.8.8s.85-.18.82-.57c-.33-.43-.67-.87-1.15-1.11s-1.14-.22-1.48.2c-.46.58-.05,1.45.49,1.97s1.22.99,1.36,1.72c-.07-.61-.25-1.2-.54-1.74-.19-.36-.45-.72-.81-.91s-.86-.18-1.15.12-.22.89.17,1.03c-.41-.4-1-.6-1.56-.54.09.86.18,1.71.28,2.57-.9-.67-2.26-.26-3.02.57s-1.09,1.95-1.49,3-.94,2.14-1.93,2.67l.61-.36"/>
        </g>
        <g>
          <path class="cls-9" d="m532.16,143c1.44,4.88,7.01,7.31,12.05,6.63s8.08-7.1,6.71-12c-.7-2.51-.88-4.68-1.46-6.91-1.34-5.12,2.13-12.43,3.81-13.58,7.66,8.41,8.94,26.66,5.32,40.83-1.78,6.97-10.69,6.59-17.88,6.46s-14.25-.22-21.4-1.07-14.8-.56-20.93,3.21c-4.31-4.73-7.05-10.96-7.35-17.35,3.79-3.46,7.58-6.92,11.36-10.38,3.49-3.19,7.08-6.44,11.47-8.21,4.09-1.65,8.58-1.89,12.93-2.64s8.85-2.17,11.73-5.51c1.63-1.89,2.63-4.29,4.46-5.98s5.07-2.35,6.65-.42c1.23,1.51.82,3.74.19,5.58-3.68,10.71-12.85,19.37-23.75,22.43"/>
          <path class="cls-2" d="m545.17,149.65c5.33-1.67,8.53-8.22,6.57-13.45-.68-1.8-.34-4.74-1.11-6.5-2.18-4.94-3.61-9.56-7.47-13.33-1.42-1.38-2.84-2.63-4.7-1.94s-1.04,6.46-.27,8.46c-1.42-.58-4.35-4.93-7.2-3.4-2.92,3.14,2.58,5.37,2.64,6.47-1.45-1.31-6.34-4.65-7.8-3.09-2.35,2.52.75,7.77,1.12,9.79.58,3.16-1.96,10.13,0,12.73,3.33,4.42,12.52,6.05,18.22,4.26Z"/>
          <g>
            <path class="cls-8" d="m551.1,137.47c-.33-1.18-.54-2.29-.74-3.36-.15,3.85-.35,7.7-.59,11.55,1.49-2.4,2.07-5.52,1.33-8.2Z"/>
            <path class="cls-8" d="m546.64,182.07c.11-.29.21-.56.27-.78.45-1.67.85-3.36,1.18-5.05.66-3.33,1.08-6.7,1.26-10.06,0-.18.02-.37.03-.56-.4.05-.79.1-1.19.15-.45,4.99-.93,9.98-1.41,14.96-.04.45-.09.9-.14,1.35Z"/>
            <path class="cls-8" d="m543.24,143.67c.35-3.97.69-7.94,1.1-11.9-4.6,5.79-10.98,10.18-18.1,12.17l6.09-1.09c1.27,4.31,5.76,6.7,10.27,6.74.04-.09.1-.16.16-.24.16-1.89.32-3.79.49-5.68Z"/>
            <path class="cls-8" d="m546.58,114.79s.03,0,.05,0c0,0,0-.02,0-.03-.02.01-.04.02-.05.03Z"/>
            <path class="cls-6" d="m543.98,188.07c-.43,0-1.01-.02-1.4.15-.17.08-.35.34-.56.37.13.36.28.71.45,1.03.68,1.3,1.71-.11,2.45-1.52-.26.13-.72-.04-.93-.04Z"/>
            <path class="cls-6" d="m546.64,182.07c.05-.45.1-.9.14-1.35.48-4.98.96-9.97,1.41-14.96-2.24.24-4.47.32-6.43.31,0,.01,0,.02,0,.03-.09,3.79-1.45,7.83-1.25,11.62.1,1.83.51,5.29.7,7.12.1.98.29,2.07.59,3.1.06-.07.14-.13.23-.17.16-.08.34-.11.51-.13.29-.04,2.43-.45,2.58.06.24-.48.43-.93.54-1.23.03-.08.05-.15.08-.23-.04-.08-.07-.17-.1-.28-.27-.91.52-2.64,1-3.89Z"/>
            <path class="cls-6" d="m548.51,114.44c-.64-.07-1.32,0-1.88.32,0,0,0,.02,0,.03,1.22-.12,2.4.2,3.18,1.15,1.23,1.51.82,3.74.19,5.58-1.28,3.71-3.21,7.18-5.65,10.25-.41,3.97-.76,7.94-1.1,11.9-.16,1.89-.33,3.79-.49,5.68.73-.89,2.48-.83,3.58-.74.13.01.28.02.44.04,1.2-.69,2.22-1.74,2.99-2.98.24-3.85.44-7.7.59-11.55-.22-1.2-.42-2.37-.73-3.55-.9-3.43-.41-7.24.99-10.21,0-1.82-.02-3.64-.06-5.47-.07.02-.16.03-.26.02-.59-.06-1.18-.4-1.79-.46Z"/>
            <path class="cls-6" d="m550.05,104.74c.06.03.1.06.12.1-.08-1.39-.17-2.77-.28-4.16-.39,1.32-.75,2.64-1.09,3.97.36.01.95-.05,1.24.08Z"/>
            <path class="cls-6" d="m549.44,113.46c.39.1.8.2,1.09.47,0,0,0,0,0,0-.07-2.78-.17-5.55-.32-8.33-.12-.11-.31-.15-.48-.14-.22.01-.43.09-.65.11-.17.01-.35-.01-.48-.11-.67,2.71-1.26,5.43-1.77,8.18.34-.29.81-.4,1.26-.4.46,0,.9.11,1.35.22Z"/>
            <path class="cls-6" d="m549.35,166.17c-.18,3.37-.6,6.74-1.26,10.06-.33,1.69-.73,3.38-1.18,5.05-.06.22-.16.49-.27.78-.16,1.42-.41,2.83-.9,4.17.86,1.88,2.87-4.41,3.14-5.28.94-3,1.52-6.09,1.74-9.19.15-2.11.12-4.23-.08-6.32-.38.06-.77.12-1.16.18,0,.19-.02.37-.03.56Z"/>
            <path class="cls-6" d="m545.64,185.96c.03.11.07.2.1.28.49-1.33.73-2.75.9-4.17-.48,1.25-1.27,2.98-1,3.89Z"/>
            <path class="cls-3" d="m542.75,149.35c-.06.07-.11.15-.16.24.05,0,.09,0,.14,0,0-.08.01-.16.02-.24Z"/>
            <path class="cls-3" d="m544.38,149.48c.86-.12,1.66-.41,2.39-.82-.16-.02-.31-.03-.44-.04-1.1-.09-2.85-.15-3.58.74,0,.08-.01.16-.02.24.55,0,1.1-.04,1.65-.11Z"/>
            <path class="cls-3" d="m550.29,105.7c-.14-.26.03-.64-.12-.85.01.25.03.51.05.76.03.03.06.06.08.09Z"/>
            <path class="cls-3" d="m548.76,104.65c-.08.24-.17.47-.25.71.03.04.06.07.1.1.07-.27.14-.54.21-.81-.02,0-.04,0-.05,0Z"/>
            <path class="cls-3" d="m549.08,105.57c.22-.02.43-.09.65-.11.18-.01.36.03.48.14-.01-.25-.03-.51-.05-.76-.03-.04-.07-.08-.12-.1-.29-.14-.88-.07-1.24-.08-.07.27-.14.54-.21.81.13.09.31.12.48.11Z"/>
            <path class="cls-3" d="m545.02,188.02c.1-.14.12-.24.1-.33-.07.14-.14.28-.21.42.05-.02.08-.05.11-.09Z"/>
            <path class="cls-3" d="m541.68,188.14c-.08.29.02.48.32.46,0,0,.01,0,.02,0-.08-.22-.15-.44-.22-.66-.05.06-.1.13-.12.21Z"/>
            <path class="cls-3" d="m542.54,187.63c-.18.02-.35.05-.51.13-.09.04-.17.1-.23.17.07.23.14.45.22.66.21-.03.39-.29.56-.37.4-.18.97-.15,1.4-.15.21,0,.67.16.93.04.07-.14.14-.28.21-.42-.15-.52-2.29-.1-2.58-.06Z"/>
            <path class="cls-3" d="m546.64,114.76c.07-.37.13-.75.2-1.12,0,0,0,0-.01.01-.33.28-.51.75-.4,1.16.05,0,.11-.02.16-.02.02-.01.04-.02.05-.03Z"/>
            <path class="cls-3" d="m550.54,113.93c0,.32.01.64.02.96.41-.1.37-.6-.02-.96Z"/>
            <path class="cls-3" d="m548.51,114.44c.61.07,1.19.41,1.79.46.1,0,.19,0,.26-.02,0-.32-.01-.64-.02-.96,0,0,0,0,0,0-.3-.27-.7-.37-1.09-.47-.44-.11-.89-.22-1.35-.22-.45,0-.92.11-1.26.4-.07.37-.13.74-.2,1.12.56-.31,1.24-.39,1.88-.32Z"/>
            <path class="cls-2" d="m556.9,123.11c-1.15-2.16-2.71-3.58-3.91-5.79-1.09.9-1.69,1.57-2.38,3.04,0,4.59-.09,9.17-.26,13.76.2,1.07.41,2.18.74,3.36.74,2.67.16,5.8-1.33,8.2-.08,1.24-.16,2.47-.25,3.71.11.08.21.17.28.27.61.89-.41,3.39-.29,3.56-.06-.05-.15-.1-.25-.15-.32,4.23-.68,8.47-1.06,12.7.1-.01-.1.01,0,0"/>
            <path class="cls-2" d="m549.38,165.61c.08-.01-.08.01,0,0,.07-1.45.14-2.92.52-4.33.29,1.37.5,2.76.64,4.16.05,0-.43.07,0,0"/>
            <path class="cls-2" d="m541.81,164.47c.11-4.25.32-6.9.63-11.13-.69-.87-.5-2.38.13-3.7,0-.02.02-.04.03-.05-4.51-.04-7.53-4.72-8.8-9.03l-5.61,2.51c7.09-2.49,11.56-5.51,16.15-11.3,1.37-2.92,11.71-15.46,2.29-16.98-.02,0-.03,0-.05,0-.05.03-.1.06-.15.09,0-.02-.01-.05-.02-.07-1.19.17-2.39.74-3.26,1.55-1.83,1.69-2.84,4.09-4.46,5.98-2.88,3.34-7.38,4.76-11.73,5.51s-8.84.99-12.93,2.64c-1.3.53-2.67,1.31-4.05,2.23"/>
            <path class="cls-6" d="m549.25,153.06c-.63-.3-2-.54-3.55-.31-1.1.16-2.16.42-3.24.64.03.04.02.02,0,0s-.03-.04,0,0c-.01-.01-.02-.03-.03-.04-.32,4.24-.57,8.48-.68,12.72,1.96,0,4.19-.06,6.43-.31.38-4.23.74-8.46,1.06-12.7Z"/>
            <path class="cls-6" d="m549.63,130.57c.31,1.18.51,2.34.73,3.55.17-4.59.27-9.18.26-13.76-1.4,2.97-1.88,6.79-.99,10.21Z"/>
            <path class="cls-6" d="m549.77,145.67c-.77,1.25-1.79,2.29-2.99,2.98.87.09,2.11.27,2.75.73.09-1.24.17-2.47.25-3.71Z"/>
            <path class="cls-6" d="m549.38,165.61c.39-.05.77-.11,1.16-.18-.13-1.4-.34-2.79-.64-4.16-.38,1.42-.45,2.88-.52,4.33Z"/>
            <path class="cls-3" d="m549.51,153.21c-.12-.17.9-2.67.29-3.56-.07-.1-.16-.19-.28-.27-.09,1.23-.17,2.45-.27,3.68.1.05.19.1.25.15Z"/>
            <path class="cls-3" d="m542.6,149.59s-.02.04-.03.05c-.62,1.32-.82,2.83-.13,3.7.09-1.25.19-2.5.3-3.75-.05,0-.09,0-.14,0Z"/>
            <path class="cls-4" d="m542.47,153.38s-.02-.02,0,0h0Z"/>
            <path class="cls-4" d="m542.47,153.38s.03.04,0,0h0Z"/>
            <path class="cls-3" d="m545.71,152.75c1.54-.22,2.91.01,3.55.31.09-1.23.18-2.45.27-3.68-.63-.45-1.88-.64-2.75-.73-.73.42-1.53.71-2.39.82-.54.07-1.1.11-1.65.11-.1,1.25-.2,2.5-.3,3.75.01.01.02.03.03.04,1.08-.21,2.14-.48,3.24-.64Z"/>
            <path class="cls-4" d="m546.58,114.79c-.05,0-.11.01-.16.02,0,.02,0,.05.02.07.05-.03.1-.06.15-.09Z"/>
          </g>
          <path class="cls-2" d="m557,123.31c-.91,1.4-2.29,1.8-3.89,1.22s-2.77-2.31-2.71-4.01c.05-1.45.97-2.78,2.25-3.35.38-.17.83-.04,1.05.31l3.04,4.74c.49.94.13.81.26,1.09"/>
          <path class="cls-2" d="m546.1,123.88c-2.01-.81-3.34-3.25-2.59-5.29.71-1.95,3.21-2.98,5.11-2.15s1.58,2.95.79,4.87c-.7,1.7-1.38,3.13-3.2,2.83"/>
          <path class="cls-2" d="m542.3,141.19c-1.57,1.76-4.76,1.71-6.98-.1"/>
          <path class="cls-2" d="m558.97,131.71c-2.27,1.48-3.29,2.15-3.07,2"/>
          <path class="cls-2" d="m558.18,129.61l-3.68,2.87"/>
          <path class="cls-2" d="m541.02,132.98c-.26-1.79-1.63-3.36-3.36-3.87"/>
          <path class="cls-2" d="m539.57,134.06c-1.19.07-2.23-1.23-1.92-2.38"/>
          <path class="cls-2" d="m537.58,135.2c-1.49-1.13-2.38-3.02-2.29-4.89"/>
          <path class="cls-2" d="m557.14,150.79c.91-.41,1.97.13,2,1.04"/>
        </g>
      </g>
      <g>
        <g>
          <path class="cls-7" d="m308.14,270.75c-3.03,3.19-6.41,6.01-9.79,8.82-6.01,5.01-12.26,10.14-19.77,12.34-2.11.62-4.6.92-6.33-.43-.64-.5-1.11-1.19-1.56-1.86-9.99-14.73-19.99-29.47-28.91-44.86-2.83-4.88-5.6-9.99-6.22-15.6-.07-.66-.09-1.4.37-1.89.24-.26.57-.45.91-.53,10.31-2.35,19.04-5.56,23.76-8.95.66-.47,12.83-9.88,12.96-10.68,0,0,1.55-.74,3.12-1.62,4.74-2.65,8.35-2.5,15.91-7.09,4.63-2.82,7.38-6.82,9.35-9.08,2.59-2.97,4.72-5.43,7.64-8.08,3.84,4.72,8.09,7.42,12.02,12.07,12.2,14.41,24.15,31.01,35.73,45.24,1,1.23,1.28,3.03.89,4.56-.46,1.8-2.22,2.98-3.99,3.54-1.77.56-4,2.26-5.76,2.85-2.24.75-8.46,3.72-8.46,3.72-4.55,1.15-13.28,4.68-16.35,6.36-6.09,3.32-10.97,6.37-15.53,11.17Z"/>
          <path class="cls-11" d="m314.28,260.69c-9.51-14.21-22.34-27.25-31.89-41.44-2.11-3.14-4.07-6.53-4.6-10.27-10.59,10.26-25.63,19.57-40.37,19.43,4.03,11.18,10.49,21.31,16.89,31.32,6.7,10.48,13.39,20.96,20.09,31.44,17-6.67,27.03-18.46,39.87-30.47,5-4.67,11.54-5.33,17.95-7.21,8.26-2.42,16.57-5.52,23.06-11.38-13.68-20.49-30-39.6-47.1-57.35-5.47,11.72-18.16,20-30.39,24.22"/>
          <path class="cls-5" d="m306.93,256.56c-5.64,4.2-13.44,6.32-16.45,12.67-.76,1.6-1.14,3.38-2.05,4.9-2.11,3.54-6.47,4.91-10.44,6.01"/>
          <path class="cls-5" d="m296.21,246.96c-4.08,1.54-9.11.2-12.64,2.75-2.57,1.86-3.5,5.2-5.27,7.83-2.27,3.36-6.11,5.61-10.15,5.93"/>
          <path class="cls-5" d="m284.2,236.3c-5.76,1.26-11.15,4.15-15.39,8.24-1.64,1.58-3.43,3.48-5.71,3.41"/>
          <path class="cls-5" d="m345.72,238.97c-5.8,3.67-14.16,1.16-19.64,5.28-1.41,1.06-2.5,2.47-3.87,3.58s-3.19,1.9-4.87,1.38"/>
          <path class="cls-5" d="m337.88,227.64c-8.01-.87-16.34,1.57-22.61,6.63-1.62,1.3-3.13,2.79-4.99,3.72"/>
          <path class="cls-5" d="m325.98,214.19c-4.98.08-9.91,1.89-13.76,5.06-2.45,2.02-4.63,4.66-7.72,5.43"/>
          <path class="cls-5" d="m316.32,202.58c-6.67-.58-12.5,4.16-17.51,8.61-1.97,1.75-3.95,3.5-5.92,5.26"/>
          <path class="cls-1" d="m277.19,223.59c-1.26.4-2.2,1.66-2.22,2.99,0,.39.08.81.37,1.07s.84.21.99-.15c-.11-.53-.22-1.08-.55-1.5s-.93-.69-1.42-.46c-.67.32-.68,1.28-.42,1.98s.66,1.42.47,2.14c.2-.57.3-1.19.28-1.8-.01-.41-.09-.84-.33-1.17s-.69-.54-1.08-.4-.58.7-.3,1c-.19-.53-.64-.97-1.17-1.17-.29.81-.59,1.62-.88,2.43-.51-1-1.92-1.22-2.96-.81s-1.83,1.27-2.65,2.04-1.78,1.51-2.9,1.56l.71-.05"/>
        </g>
        <g>
          <path class="cls-9" d="m227.86,261.91c-.85,5.02,3.1,9.64,7.93,11.24s10.37-2.85,11.29-7.85c.47-2.56,1.25-4.59,1.71-6.85,1.04-5.19,7.36-10.25,9.37-10.54,3.21,10.91-3.64,27.88-13.09,39.04-4.65,5.49-12.5,1.25-18.91-2.02s-12.72-6.44-18.77-10.33-13.06-6.98-20.22-6.27c-1.8-6.14-1.54-12.94.98-18.82,4.92-1.45,9.84-2.9,14.76-4.36,4.53-1.34,9.19-2.69,13.9-2.36,4.4.31,8.54,2.06,12.78,3.29s8.91,1.93,12.96.18c2.29-.99,4.24-2.7,6.63-3.42s5.59.11,6.17,2.53c.45,1.89-.9,3.72-2.27,5.09-8,8.02-20.03,11.79-31.17,9.76"/>
          <path class="cls-2" d="m236.66,273.58c5.52.83,11.27-3.66,11.79-9.22.18-1.92,1.77-4.41,1.84-6.33.2-5.39.94-10.18-.88-15.26-.67-1.87-1.4-3.6-3.37-3.8s-3.77,5.36-3.94,7.49c-1.03-1.14-1.75-6.34-4.99-6.21-4,1.54-.03,5.96-.46,6.97-.73-1.81-3.67-6.96-5.66-6.19-3.22,1.24-2.73,7.32-3.28,9.29-.86,3.1-6.2,8.25-5.57,11.44,1.06,5.43,8.61,10.92,14.51,11.81Z"/>
          <g>
            <path class="cls-8" d="m247.31,265.23c.22-1.21.51-2.29.81-3.34-1.82,3.4-3.68,6.77-5.59,10.13,2.39-1.51,4.28-4.06,4.78-6.79Z"/>
            <path class="cls-8" d="m223.79,303.37c.23-.21.43-.41.59-.59,1.14-1.3,2.23-2.64,3.27-4.02,2.05-2.71,3.9-5.55,5.54-8.5.09-.16.18-.32.27-.49-.38-.12-.76-.25-1.13-.39-2.59,4.29-5.21,8.57-7.82,12.83-.23.38-.47.77-.72,1.15Z"/>
            <path class="cls-8" d="m237.54,267.36c2.05-3.41,4.1-6.83,6.2-10.22-6.67,3.19-14.33,4.34-21.6,3.02l5.96,1.69c-.75,4.43,2.24,8.55,6.28,10.55.08-.06.16-.1.24-.14.97-1.63,1.95-3.26,2.92-4.89Z"/>
            <path class="cls-8" d="m253.19,242.85s.03.01.05.02c0,0,.01-.02.02-.02-.02,0-.04,0-.06,0Z"/>
            <path class="cls-6" d="m218.77,307.6c-.39-.19-.9-.46-1.33-.48-.19,0-.46.15-.66.09-.04.38-.06.76-.05,1.12.04,1.46,1.59.65,2.86-.29-.29,0-.63-.35-.82-.44Z"/>
            <path class="cls-6" d="m223.79,303.37c.24-.38.48-.77.72-1.15,2.61-4.27,5.23-8.54,7.82-12.83-2.13-.76-4.16-1.67-5.92-2.54,0,0-.01.02-.02.03-1.74,3.36-4.74,6.41-6.21,9.9-.71,1.69-1.86,4.98-2.49,6.71-.34.92-.65,1.99-.83,3.04.09-.04.19-.06.28-.06.18,0,.35.05.52.11.28.09,2.39.66,2.29,1.19.42-.33.79-.65,1.03-.87.06-.06.12-.12.18-.17,0-.09,0-.18.03-.29.16-.94,1.62-2.15,2.6-3.06Z"/>
            <path class="cls-6" d="m255.08,243.39c-.55-.34-1.19-.57-1.83-.54,0,0-.01.02-.02.02,1.15.43,2.07,1.23,2.35,2.43.45,1.89-.9,3.72-2.27,5.09-2.77,2.78-6.03,5.05-9.57,6.74-2.1,3.39-4.15,6.81-6.2,10.22-.98,1.63-1.95,3.26-2.92,4.89,1.05-.48,2.59.34,3.55.9.11.07.24.14.37.23,1.38-.09,2.76-.59,4-1.37,1.9-3.36,3.77-6.73,5.59-10.13.33-1.18.66-2.31.9-3.51.7-3.47,2.8-6.69,5.36-8.75.8-1.64,1.57-3.29,2.34-4.94-.07-.02-.15-.05-.24-.1-.51-.31-.88-.87-1.4-1.2Z"/>
            <path class="cls-6" d="m260.7,235.34s.06.1.07.15c.53-1.28,1.06-2.57,1.57-3.86-.93,1.01-1.83,2.05-2.72,3.1.31.17.87.37,1.08.62Z"/>
            <path class="cls-6" d="m256.34,242.91c.31.26.63.53.78.9,0,0,0,0,0,0,1.16-2.53,2.28-5.07,3.36-7.63-.06-.15-.21-.27-.37-.34-.2-.08-.43-.11-.63-.19-.16-.06-.31-.17-.38-.31-1.79,2.14-3.51,4.33-5.17,6.58.44-.11.9,0,1.31.19.41.2.76.5,1.12.79Z"/>
            <path class="cls-6" d="m233.18,290.26c-1.64,2.95-3.49,5.79-5.54,8.5-1.04,1.38-2.13,2.72-3.27,4.02-.15.17-.36.37-.59.59-.77,1.2-1.61,2.37-2.63,3.35-.05,2.07,4.51-2.71,5.13-3.38,2.16-2.28,4.04-4.81,5.59-7.5,1.06-1.83,1.96-3.75,2.69-5.72-.37-.11-.75-.23-1.12-.35-.09.16-.18.33-.27.49Z"/>
            <path class="cls-6" d="m221.19,306.43c-.02.11-.03.21-.03.29,1.02-.98,1.86-2.15,2.63-3.35-.98.91-2.44,2.12-2.6,3.06Z"/>
            <path class="cls-3" d="m234.61,272.25c-.09.04-.17.09-.24.14.04.02.08.04.12.06.04-.07.08-.14.12-.2Z"/>
            <path class="cls-3" d="m236.02,273.08c.82.27,1.67.36,2.51.31-.14-.08-.26-.16-.37-.23-.95-.57-2.5-1.38-3.55-.9-.04.07-.08.14-.12.2.5.24,1.01.45,1.53.62Z"/>
            <path class="cls-3" d="m260.5,236.3c-.02-.3.3-.56.26-.82-.1.23-.19.47-.29.7.01.04.03.08.03.12Z"/>
            <path class="cls-3" d="m259.58,234.7c-.18.18-.36.35-.54.53,0,.05.02.09.04.13.18-.21.36-.42.54-.64-.01,0-.03-.02-.04-.02Z"/>
            <path class="cls-3" d="m259.47,235.66c.21.08.43.11.63.19.16.07.31.18.37.34.1-.23.19-.47.29-.7,0-.05-.03-.1-.07-.15-.2-.25-.76-.45-1.08-.62-.18.21-.36.42-.54.64.07.14.22.24.38.31Z"/>
            <path class="cls-3" d="m219.73,308.01c.15-.08.22-.16.23-.25-.12.09-.25.19-.37.28.05,0,.1,0,.14-.03Z"/>
            <path class="cls-3" d="m216.67,306.66c-.2.23-.19.44.08.55,0,0,.01,0,.02,0,.02-.23.05-.46.09-.69-.07.03-.14.08-.2.14Z"/>
            <path class="cls-3" d="m217.67,306.57c-.17-.06-.34-.11-.52-.11-.1,0-.19.02-.28.06-.04.23-.07.46-.09.69.2.07.48-.09.66-.09.43.01.94.29,1.33.48.19.09.53.44.82.44.13-.09.25-.19.37-.28.09-.53-2.02-1.09-2.29-1.19Z"/>
            <path class="cls-3" d="m253.25,242.85c.22-.31.44-.61.67-.92,0,0-.01,0-.02,0-.42.11-.79.45-.87.87.05.02.11.03.16.05.02,0,.04,0,.06,0Z"/>
            <path class="cls-3" d="m257.12,243.82c-.13.29-.27.58-.4.87.41.08.59-.38.4-.87Z"/>
            <path class="cls-3" d="m255.08,243.39c.52.33.9.89,1.4,1.2.09.05.17.08.24.1.13-.29.27-.58.4-.87,0,0,0,0,0,0-.15-.37-.47-.65-.78-.9-.35-.29-.71-.59-1.12-.79-.4-.2-.87-.3-1.31-.19-.22.3-.45.61-.67.92.64-.03,1.28.19,1.83.54Z"/>
            <path class="cls-2" d="m258.82,254.86c-.09-2.44-.87-4.41-.98-6.92-1.38.34-2.2.67-3.47,1.69-2,4.13-4.1,8.21-6.26,12.26-.29,1.05-.58,2.14-.81,3.34-.5,2.73-2.39,5.28-4.78,6.79-.61,1.08-1.23,2.15-1.85,3.23.07.12.11.25.13.36.16,1.06-1.85,2.86-1.82,3.07-.03-.07-.09-.16-.16-.25-2.14,3.67-4.32,7.32-6.51,10.95.09.03-.09-.03,0,0"/>
            <path class="cls-2" d="m233.45,289.77c.08.03-.08-.03,0,0,.7-1.28,1.4-2.56,2.36-3.67-.34,1.36-.76,2.7-1.25,4.02.05.01-.42-.12,0,0"/>
            <path class="cls-2" d="m227.14,285.43c1.96-3.77,3.3-6.06,5.44-9.73-.24-1.08.6-2.36,1.73-3.27.02-.01.04-.02.05-.04-4.04-2-4.71-7.54-3.96-11.97l-6.14-.2c7.46.87,12.81.1,19.47-3.09,2.51-2.03,17.3-8.77,9.49-14.27-.02,0-.03-.01-.05-.02-.06,0-.12,0-.17.02,0-.02.01-.05.02-.07-1.14-.37-2.47-.38-3.61-.04-2.39.72-4.34,2.44-6.63,3.42-4.05,1.74-8.72,1.05-12.96-.18s-8.38-2.98-12.78-3.29c-1.4-.1-2.98,0-4.61.23"/>
            <path class="cls-6" d="m238.83,278.43c-.44-.55-1.57-1.36-3.05-1.83-1.06-.34-2.13-.56-3.19-.85.01.05,0,.03,0,0s-.01-.05,0,0c0-.02,0-.03,0-.05-2.14,3.67-4.23,7.37-6.18,11.14,1.76.87,3.79,1.78,5.92,2.54,2.2-3.64,4.37-7.29,6.51-10.95Z"/>
            <path class="cls-6" d="m249.02,258.38c-.24,1.2-.57,2.33-.9,3.51,2.16-4.05,4.26-8.13,6.26-12.26-2.56,2.06-4.66,5.28-5.36,8.75Z"/>
            <path class="cls-6" d="m242.53,272.02c-1.24.78-2.61,1.28-4,1.37.74.46,1.78,1.17,2.15,1.86.62-1.07,1.24-2.15,1.85-3.23Z"/>
            <path class="cls-6" d="m233.45,289.77c.37.12.74.24,1.12.35.49-1.32.91-2.66,1.25-4.02-.96,1.11-1.66,2.39-2.36,3.67Z"/>
            <path class="cls-3" d="m239,278.68c-.03-.21,1.98-2.01,1.82-3.07-.02-.12-.06-.24-.13-.36-.61,1.06-1.23,2.13-1.85,3.19.07.09.13.17.16.25Z"/>
            <path class="cls-3" d="m234.37,272.4s-.04.02-.05.04c-1.14.92-1.97,2.19-1.73,3.27.63-1.08,1.27-2.17,1.91-3.25-.04-.02-.08-.04-.12-.06Z"/>
            <path class="cls-4" d="m232.59,275.75c-.01-.05,0-.03,0,0h0Z"/>
            <path class="cls-4" d="m232.59,275.75s.01.05,0,0h0Z"/>
            <path class="cls-3" d="m235.78,276.6c1.48.47,2.61,1.29,3.05,1.83.62-1.06,1.24-2.13,1.85-3.19-.37-.68-1.41-1.4-2.15-1.86-.84.06-1.69-.03-2.51-.31-.52-.17-1.03-.38-1.53-.62-.64,1.08-1.28,2.16-1.91,3.25,0,.02,0,.03,0,.05,1.06.28,2.13.51,3.19.85Z"/>
            <path class="cls-4" d="m253.19,242.85c-.05-.02-.1-.04-.16-.05,0,.02-.01.05-.02.07.06,0,.11-.01.17-.02Z"/>
          </g>
          <path class="cls-2" d="m258.83,255.08c-1.43.86-2.84.62-4.03-.61s-1.48-3.28-.68-4.8c.68-1.28,2.09-2.08,3.49-2.03.42.01.76.33.81.74l.66,5.59c.03,1.06-.24.79-.24,1.09"/>
          <path class="cls-2" d="m248.78,250.82c-1.45-1.61-1.58-4.38-.02-5.89,1.49-1.44,4.19-1.27,5.54.3s.13,3.35-1.42,4.72c-1.38,1.22-2.62,2.21-4.11,1.14"/>
          <path class="cls-2" d="m237.78,264.72c-2.18.89-5.03-.55-6.23-3.14"/>
          <path class="cls-2" d="m256.92,263.49c-2.69.34-3.9.49-3.63.46"/>
          <path class="cls-2" d="m257.13,261.26l-4.57.97"/>
          <path class="cls-2" d="m240.22,256.77c.55-1.72,0-3.73-1.33-4.95"/>
          <path class="cls-2" d="m238.44,257.11c-1.1-.46-1.47-2.09-.68-2.98"/>
          <path class="cls-2" d="m236.15,257.27c-.85-1.67-.82-3.76.08-5.4"/>
          <path class="cls-2" d="m246.92,279.84c1,.03,1.71.98,1.35,1.81"/>
        </g>
      </g>
      <g>
        <g>
          <path class="cls-7" d="m467.8,453.18c-1.65,2.77-3.62,5.33-5.58,7.89-3.49,4.55-7.13,9.23-12.14,12.02-1.41.78-3.14,1.4-4.59.71-.54-.26-.98-.67-1.42-1.08-9.53-8.92-19.06-17.84-27.93-27.41-2.81-3.03-5.62-6.24-6.97-10.15-.16-.46-.29-.99-.04-1.41.13-.22.33-.41.57-.53,6.99-3.35,12.72-7.05,15.55-10.24.39-.44,7.58-9.14,7.54-9.73,0,0,.99-.78,1.97-1.67,2.96-2.66,5.57-3.14,10.23-7.65,2.86-2.76,4.18-6.07,5.22-8,1.38-2.54,2.5-4.64,4.15-7.01,3.51,2.76,6.98,4,10.55,6.69,11.06,8.33,22.29,18.27,32.87,26.58.91.72,1.41,1.96,1.38,3.12-.04,1.36-1.1,2.49-2.28,3.18s-2.49,2.26-3.66,2.97c-1.48.9-5.45,4.03-5.45,4.03-3.07,1.56-8.74,5.5-10.66,7.19-3.82,3.36-6.82,6.33-9.3,10.5Z"/>
          <path class="cls-11" d="m470.56,444.99c-9.1-8.63-20.38-15.88-29.51-24.48-2.02-1.9-3.96-4.01-4.95-6.6-5.91,9.05-15.16,18.14-25.73,20.43,4.69,7.35,10.94,13.54,17.14,19.67,6.48,6.41,12.97,12.82,19.45,19.23,11.08-7.52,16.34-17.57,23.59-28.24,2.82-4.15,7.39-5.68,11.67-8.06,5.52-3.07,10.96-6.63,14.65-11.87-13.1-12.45-27.86-23.47-42.96-33.4-2.02,9.27-9.75,17.24-17.82,22.24"/>
          <path class="cls-5" d="m464.64,443.23c-3.35,3.91-8.59,6.7-9.72,11.72-.28,1.27-.27,2.6-.68,3.84-.94,2.87-3.83,4.56-6.49,5.99"/>
          <path class="cls-5" d="m455.42,438.09c-2.67,1.76-6.48,1.61-8.6,4.01-1.54,1.74-1.66,4.28-2.51,6.45-1.08,2.77-3.46,5-6.3,5.88"/>
          <path class="cls-5" d="m445.11,432.4c-3.91,1.83-7.3,4.77-9.67,8.38-.92,1.4-1.89,3.04-3.53,3.36"/>
          <path class="cls-5" d="m489.53,424.37c-3.55,3.56-9.94,3.12-13.2,6.95-.84.98-1.39,2.17-2.19,3.18s-1.98,1.87-3.26,1.77"/>
          <path class="cls-5" d="m482.1,417.54c-5.87.67-11.43,3.77-15.1,8.4-.95,1.2-1.79,2.5-2.97,3.47"/>
          <path class="cls-5" d="m471.41,409.84c-3.55.86-6.78,2.96-9.02,5.84-1.43,1.84-2.56,4.08-4.64,5.13"/>
          <path class="cls-5" d="m462.62,403.1c-4.87.67-8.27,5-11.13,8.99-1.13,1.57-2.25,3.14-3.38,4.72"/>
          <path class="cls-1" d="m438.03,424.45c-.84.49-1.3,1.55-1.11,2.5.06.28.19.57.44.7s.64.02.68-.27c-.16-.36-.33-.73-.63-.99s-.78-.35-1.09-.1c-.43.34-.28,1.03.02,1.49s.7.91.68,1.45c.05-.44.02-.9-.09-1.33-.08-.29-.2-.59-.43-.78s-.58-.27-.84-.11-.3.6-.05.76c-.23-.35-.61-.59-1.03-.65-.08.63-.16,1.25-.23,1.88-.53-.63-1.57-.56-2.25-.1s-1.1,1.21-1.56,1.89-1.03,1.37-1.82,1.58l.5-.15"/>
        </g>
        <g>
          <path class="cls-9" d="m408.95,459.83c.21,3.72,3.78,6.39,7.49,6.75s6.96-3.72,6.81-7.44c-.08-1.91.16-3.49.11-5.18-.1-3.88,3.61-8.52,5-9.05,4.06,7.28,1.91,20.53-3.05,30.04-2.44,4.68-8.74,2.91-13.85,1.61s-10.14-2.55-15.09-4.35-10.47-2.88-15.48-1.22c-2.28-4.1-3.19-9.01-2.34-13.62,3.28-1.83,6.57-3.67,9.85-5.5,3.03-1.69,6.14-3.41,9.56-3.94,3.19-.49,6.44.09,9.67.29s6.68-.06,9.3-1.96c1.48-1.08,2.6-2.62,4.19-3.52s4.02-.83,4.82.81c.63,1.28-.04,2.8-.8,4.01-4.42,7.03-12.42,11.67-20.72,12.03"/>
          <path class="cls-2" d="m417.13,466.76c4.08-.3,7.47-4.44,6.94-8.5-.18-1.4.56-3.44.29-4.83-.73-3.89-.97-7.43-3.09-10.77-.78-1.23-1.58-2.35-3.03-2.17s-1.83,4.44-1.61,6c-.92-.65-2.28-4.25-4.57-3.63-2.61,1.75.94,4.27.8,5.06-.82-1.18-3.75-4.38-5.05-3.51-2.1,1.4-.77,5.67-.84,7.18-.11,2.35-3.1,6.9-2.14,9.08,1.64,3.71,7.93,6.42,12.29,6.1Z"/>
          <g>
            <path class="cls-8" d="m423.4,459.06c-.04-.9,0-1.72.04-2.52-.75,2.72-1.54,5.44-2.36,8.15,1.47-1.46,2.41-3.6,2.32-5.63Z"/>
            <path class="cls-8" d="m412.74,490.14c.13-.19.24-.37.32-.51.6-1.12,1.17-2.25,1.69-3.41,1.03-2.27,1.89-4.6,2.59-6.97.04-.13.08-.26.11-.39-.29-.03-.58-.06-.87-.09-1.16,3.49-2.34,6.97-3.52,10.44-.11.31-.21.62-.33.94Z"/>
            <path class="cls-8" d="m416.75,462.17c.91-2.77,1.83-5.55,2.78-8.31-4.25,3.36-9.54,5.42-14.96,5.65l4.53.24c.18,3.29,2.99,5.75,6.2,6.53.05-.05.1-.1.15-.14.43-1.33.86-2.65,1.3-3.97Z"/>
            <path class="cls-8" d="m423.98,442.11s.02,0,.04,0c0,0,0-.01,0-.02-.01,0-.03,0-.04.01Z"/>
            <path class="cls-6" d="m409.84,493.99c-.31-.07-.72-.19-1.03-.13-.13.03-.3.18-.46.17.03.28.08.55.15.81.26,1.04,1.24.21,2-.67-.2.05-.51-.15-.66-.18Z"/>
            <path class="cls-6" d="m412.74,490.14c.11-.31.22-.63.33-.94,1.18-3.48,2.36-6.96,3.52-10.44-1.64-.2-3.25-.52-4.64-.86,0,0,0,.02,0,.02-.7,2.69-2.35,5.35-2.84,8.08-.24,1.33-.52,3.86-.69,5.2-.09.71-.14,1.53-.1,2.31.06-.04.12-.07.19-.09.13-.03.26-.02.39,0,.21.02,1.81.09,1.83.48.25-.31.46-.59.59-.79.03-.05.06-.1.1-.15-.01-.06-.02-.13-.03-.21-.04-.7.81-1.8,1.37-2.61Z"/>
            <path class="cls-6" d="m425.42,442.19c-.45-.16-.94-.22-1.39-.09,0,0,0,.01,0,.02.89.12,1.68.55,2.07,1.36.63,1.28-.04,2.8-.8,4.01-1.53,2.44-3.5,4.59-5.75,6.37-.96,2.76-1.87,5.54-2.78,8.31-.44,1.32-.87,2.65-1.3,3.97.67-.51,1.91-.18,2.68.07.09.03.19.06.3.1.98-.29,1.88-.87,2.64-1.63.82-2.71,1.61-5.42,2.36-8.15.05-.9.1-1.76.08-2.65-.06-2.6.92-5.24,2.42-7.13.3-1.3.59-2.61.87-3.91-.06,0-.12,0-.19-.03-.41-.14-.77-.48-1.2-.63Z"/>
            <path class="cls-6" d="m428.14,435.52s.06.06.07.09c.17-1,.34-2.01.5-3.01-.5.88-.98,1.76-1.44,2.65.25.07.68.12.87.27Z"/>
            <path class="cls-6" d="m426.25,441.64c.26.13.53.28.7.52,0,0,0,0,0,0,.42-1.99.81-3.99,1.17-6-.07-.1-.19-.16-.32-.18-.16-.03-.32-.01-.48-.03-.12-.02-.25-.07-.32-.16-.94,1.82-1.81,3.67-2.63,5.54.29-.15.65-.15.97-.08.33.08.63.23.92.38Z"/>
            <path class="cls-6" d="m417.34,479.25c-.69,2.37-1.56,4.71-2.59,6.97-.52,1.15-1.09,2.29-1.69,3.41-.08.15-.19.32-.32.51-.35.98-.77,1.95-1.34,2.82.3,1.49,2.79-2.67,3.13-3.25,1.17-1.98,2.11-4.09,2.78-6.27.46-1.48.79-3,1-4.53-.28-.02-.57-.04-.86-.07-.04.13-.08.26-.11.39Z"/>
            <path class="cls-6" d="m411.38,492.75c0,.08.01.15.03.21.57-.87.98-1.84,1.34-2.82-.55.81-1.4,1.91-1.37,2.61Z"/>
            <path class="cls-3" d="m415.45,466.14c-.05.04-.11.09-.15.14.03,0,.07.02.1.02.02-.05.04-.11.05-.16Z"/>
            <path class="cls-3" d="m416.59,466.5c.63.06,1.25-.01,1.85-.19-.11-.04-.21-.07-.3-.1-.77-.25-2.01-.59-2.68-.07-.02.05-.04.11-.05.16.39.09.79.16,1.19.2Z"/>
            <path class="cls-3" d="m428.16,436.24c-.06-.21.13-.45.06-.63-.03.18-.06.37-.09.55.02.02.03.05.04.08Z"/>
            <path class="cls-3" d="m427.24,435.24c-.1.15-.2.31-.3.46.01.03.03.06.05.09.09-.18.19-.36.28-.54-.01,0-.03,0-.04,0Z"/>
            <path class="cls-3" d="m427.31,435.95c.16.02.33,0,.48.03.13.02.25.08.32.18.03-.18.06-.37.09-.55-.01-.03-.04-.07-.07-.09-.19-.15-.62-.2-.87-.27-.09.18-.19.36-.28.54.07.09.2.14.32.16Z"/>
            <path class="cls-3" d="m410.59,494.12c.09-.08.13-.15.12-.22-.07.09-.15.18-.22.26.04,0,.07-.02.1-.05Z"/>
            <path class="cls-3" d="m408.18,493.65c-.11.19-.07.34.15.38,0,0,0,0,.01,0-.02-.17-.04-.34-.05-.51-.05.03-.09.08-.12.13Z"/>
            <path class="cls-3" d="m408.88,493.43c-.13-.01-.26-.02-.39,0-.07.02-.14.04-.19.09,0,.17.03.34.05.51.16.02.33-.14.46-.17.31-.06.72.05,1.03.13.15.04.45.23.66.18.08-.09.15-.18.22-.26-.02-.39-1.62-.46-1.83-.48Z"/>
            <path class="cls-3" d="m424.03,442.1c.11-.25.22-.51.33-.76,0,0,0,0-.01,0-.28.15-.49.45-.48.76.04,0,.08,0,.12.01.01,0,.03-.01.04-.01Z"/>
            <path class="cls-3" d="m426.95,442.16c-.05.23-.1.46-.15.69.31,0,.36-.37.15-.69Z"/>
            <path class="cls-3" d="m425.42,442.19c.42.15.78.49,1.2.63.07.02.13.03.19.03.05-.23.1-.46.15-.69,0,0,0,0,0,0-.17-.24-.44-.39-.7-.52-.3-.15-.6-.31-.92-.38-.32-.08-.67-.07-.97.08-.11.25-.22.51-.33.76.45-.13.95-.07,1.39.09Z"/>
            <path class="cls-2" d="m429.96,449.78c-.46-1.73-1.34-3.01-1.82-4.79-.93.46-1.47.84-2.21,1.77-.76,3.28-1.6,6.53-2.5,9.78-.04.8-.07,1.62-.04,2.52.08,2.03-.86,4.16-2.32,5.63-.26.87-.53,1.74-.8,2.61.07.08.12.16.15.24.29.73-.86,2.35-.8,2.49-.04-.05-.09-.1-.15-.15-.94,2.97-1.91,5.93-2.89,8.89.07,0-.07,0,0,0"/>
            <path class="cls-2" d="m417.46,478.86c.06,0-.06,0,0,0,.29-1.03.59-2.06,1.1-3.01-.02,1.03-.1,2.05-.24,3.07.04,0-.32-.02,0,0"/>
            <path class="cls-2" d="m412.24,476.78c.79-3.01,1.38-4.87,2.32-7.84-.35-.73.05-1.78.71-2.62,0-.01.02-.02.03-.03-3.21-.78-4.59-4.63-4.77-7.92l-4.43.85c5.48-.59,9.18-2,13.43-5.36,1.47-1.86,10.95-9.07,4.48-11.74-.01,0-.02,0-.04,0-.04.01-.08.02-.12.04,0-.02,0-.03,0-.05-.87-.08-1.83.13-2.59.56-1.59.9-2.71,2.45-4.19,3.52-2.61,1.9-6.07,2.16-9.3,1.96s-6.47-.78-9.67-.29c-1.02.16-2.13.48-3.26.91"/>
            <path class="cls-6" d="m419.47,469.88c-.4-.32-1.34-.72-2.48-.82-.81-.07-1.61-.06-2.42-.09.02.04,0,.02,0,0s-.02-.04,0,0c0-.01,0-.02-.01-.03-.94,2.97-1.83,5.95-2.62,8.97,1.4.34,3,.66,4.64.86.98-2.96,1.95-5.92,2.89-8.89Z"/>
            <path class="cls-6" d="m423.51,453.89c.02.89-.03,1.76-.08,2.65.89-3.25,1.73-6.5,2.5-9.78-1.5,1.88-2.48,4.53-2.42,7.13Z"/>
            <path class="cls-6" d="m421.08,464.69c-.76.76-1.66,1.34-2.64,1.63.6.21,1.46.55,1.84.98.27-.87.54-1.74.8-2.61Z"/>
            <path class="cls-6" d="m417.46,478.86c.29.03.57.05.86.07.14-1.02.22-2.05.24-3.07-.51.95-.8,1.98-1.1,3.01Z"/>
            <path class="cls-3" d="m419.63,470.03c-.06-.14,1.09-1.76.8-2.49-.03-.08-.09-.16-.15-.24-.27.86-.54,1.72-.81,2.58.07.05.12.1.15.15Z"/>
            <path class="cls-3" d="m415.3,466.28s-.02.02-.03.03c-.66.84-1.06,1.88-.71,2.62.28-.88.56-1.75.84-2.63-.03,0-.07-.02-.1-.02Z"/>
            <path class="cls-4" d="m414.58,468.97s0-.02,0,0h0Z"/>
            <path class="cls-4" d="m414.58,468.97s.02.04,0,0h0Z"/>
            <path class="cls-3" d="m416.99,469.06c1.14.1,2.08.5,2.48.82.27-.86.54-1.72.81-2.58-.38-.43-1.23-.77-1.84-.98-.59.18-1.21.25-1.85.19-.4-.04-.8-.11-1.19-.2-.28.88-.56,1.75-.84,2.63,0,.01,0,.02.01.03.81.03,1.6.02,2.42.09Z"/>
            <path class="cls-4" d="m423.98,442.11s-.08,0-.12-.01c0,.02,0,.03,0,.05.04-.02.08-.03.12-.04Z"/>
          </g>
          <path class="cls-2" d="m429.99,449.94c-.88.84-1.93.9-2.98.22s-1.59-2.11-1.26-3.32c.28-1.03,1.16-1.82,2.16-2.02.3-.06.6.11.7.4l1.38,3.9c.19.75-.04.6,0,.82"/>
          <path class="cls-2" d="m422.12,448.52c-1.3-.92-1.84-2.88-.97-4.21.83-1.27,2.79-1.59,4.01-.68s.64,2.37-.25,3.61c-.79,1.1-1.51,2-2.76,1.48"/>
          <path class="cls-2" d="m416.5,460.24c-1.42.99-3.69.42-4.97-1.24"/>
          <path class="cls-2" d="m429.99,456.27c-1.87.68-2.71.98-2.52.92"/>
          <path class="cls-2" d="m429.78,454.64l-3.11,1.43"/>
          <path class="cls-2" d="m416.96,454.16c.11-1.32-.6-2.67-1.75-3.33"/>
          <path class="cls-2" d="m415.74,454.69c-.86-.15-1.39-1.26-.97-2.02"/>
          <path class="cls-2" d="m414.13,455.17c-.88-1.06-1.19-2.56-.81-3.88"/>
          <path class="cls-2" d="m425.48,469.58c.72-.14,1.38.42,1.25,1.08"/>
        </g>
      </g>
      <g>
        <g>
          <path class="cls-7" d="m369.78,49.31c2.66-1.82,5.52-3.32,8.38-4.81,5.08-2.66,10.35-5.38,16.07-5.79,1.61-.12,3.44.05,4.47,1.29.38.46.61,1.02.83,1.58,4.89,12.1,9.78,24.21,13.8,36.62,1.27,3.93,2.47,8.03,2.05,12.14-.05.48-.16,1.02-.55,1.3-.21.15-.48.24-.74.24-7.75.09-14.5,1.04-18.41,2.75-.54.24-10.72,5.1-10.94,5.66,0,0-1.23.29-2.49.68-3.81,1.17-6.37.5-12.5,2.63-3.76,1.3-6.34,3.75-8.11,5.06-2.32,1.73-4.22,3.16-6.72,4.61-2.03-3.98-4.65-6.57-6.75-10.5-6.52-12.21-12.53-25.96-18.63-37.94-.53-1.03-.45-2.37.06-3.41.61-1.22,2.05-1.8,3.41-1.92s3.21-1.01,4.57-1.16c1.72-.19,6.64-1.36,6.64-1.36,3.44-.12,10.24-1.31,12.7-2.03,4.88-1.44,8.85-2.87,12.86-5.61Z"/>
          <path class="cls-11" d="m363.82,55.58c4.62,11.66,11.81,22.98,16.46,34.63,1.03,2.58,1.91,5.31,1.71,8.07,9.17-5.72,21.39-10.07,31.94-7.7-1.16-8.64-4.23-16.89-7.27-25.06-3.18-8.54-6.37-17.09-9.55-25.63-13.22,2.16-22.22,9.06-33.29,15.69-4.3,2.58-9.09,2.04-13.98,2.4-6.3.46-12.73,1.4-18.28,4.6,6.64,16.8,15.39,33.02,24.91,48.38,5.73-7.56,16.11-11.54,25.52-12.67"/>
          <path class="cls-5" d="m368.46,59.67c4.69-2.14,10.61-2.46,13.75-6.54.79-1.03,1.34-2.25,2.23-3.2,2.06-2.21,5.39-2.52,8.41-2.7"/>
          <path class="cls-5" d="m374.66,68.21c3.16-.47,6.56,1.26,9.49-.02,2.13-.93,3.31-3.18,4.99-4.8,2.14-2.06,5.25-3.07,8.19-2.68"/>
          <path class="cls-5" d="m381.62,77.71c4.32-.02,8.63-1.25,12.3-3.53,1.42-.88,2.99-1.97,4.62-1.56"/>
          <path class="cls-5" d="m337.93,66.3c4.72-1.74,10.33,1.35,14.9-.75,1.17-.54,2.17-1.39,3.33-1.97s2.58-.87,3.7-.23"/>
          <path class="cls-5" d="m341.81,75.62c5.61,1.86,11.95,1.4,17.23-1.26,1.36-.69,2.68-1.52,4.15-1.9"/>
          <path class="cls-5" d="m348.26,87.1c3.58.71,7.4.17,10.64-1.5,2.07-1.07,4.04-2.62,6.37-2.7"/>
          <path class="cls-5" d="m353.39,96.92c4.69,1.44,9.6-1.05,13.88-3.47,1.68-.95,3.37-1.9,5.05-2.85"/>
          <path class="cls-1" d="m384.68,87.9c.97-.09,1.83-.85,2.05-1.8.06-.28.07-.59-.1-.82s-.57-.28-.73-.05c0,.39,0,.8.16,1.16s.56.64.94.55c.53-.13.68-.82.61-1.36s-.25-1.12,0-1.61c-.23.38-.4.81-.47,1.25-.05.3-.07.62.06.89s.41.49.71.45.53-.41.37-.67c.06.41.3.8.66,1.02.33-.54.67-1.07,1-1.61.21.8,1.19,1.17,2,1.04s1.51-.63,2.21-1.06,1.51-.81,2.32-.67l-.52-.07"/>
        </g>
        <g>
          <path class="cls-9" d="m425.96,68.05c1.38-3.47-.74-7.39-3.95-9.28s-7.88.44-9.31,3.89c-.73,1.76-1.61,3.1-2.28,4.65-1.55,3.56-6.86,6.21-8.34,6.11-.61-8.32,6.91-19.43,15.41-25.96,4.18-3.22,9.15,1.03,13.24,4.36s8.12,6.58,11.86,10.3,8.29,7.02,13.53,7.62c.34,4.68-.9,9.51-3.61,13.34-3.75.28-7.5.56-11.25.84-3.46.26-7,.51-10.33-.45-3.1-.9-5.81-2.79-8.65-4.33s-6.09-2.76-9.26-2.13c-1.79.35-3.46,1.28-5.28,1.43s-3.99-.94-4.03-2.77c-.03-1.43,1.22-2.53,2.42-3.3,6.97-4.51,16.18-5.36,23.85-2.19"/>
          <path class="cls-2" d="m421.45,58.32c-3.83-1.45-8.64.88-9.88,4.79-.43,1.35-1.95,2.88-2.3,4.25-.98,3.84-2.25,7.15-1.73,11.07.19,1.44.45,2.8,1.83,3.24s3.53-3.26,3.98-4.76c.56.98.28,4.82,2.62,5.22,3.1-.49.94-4.27,1.41-4.93.25,1.41,1.56,5.55,3.1,5.31,2.5-.39,3.09-4.82,3.79-6.16,1.09-2.09,5.71-4.96,5.76-7.34.08-4.06-4.49-9.16-8.58-10.71Z"/>
          <g>
            <path class="cls-8" d="m412.53,62.66c-.34.83-.72,1.56-1.09,2.27,1.83-2.16,3.69-4.29,5.57-6.4-1.95.71-3.7,2.25-4.48,4.13Z"/>
            <path class="cls-8" d="m435.28,38.95c-.2.12-.37.23-.51.33-1.02.76-2.01,1.55-2.97,2.38-1.89,1.62-3.65,3.37-5.28,5.24-.09.1-.18.2-.27.31.25.15.5.3.75.45,2.52-2.68,5.05-5.34,7.59-7.99.23-.24.46-.48.69-.71Z"/>
            <path class="cls-8" d="m419.86,62.64c-1.99,2.13-3.99,4.27-6.02,6.37,5.27-1.26,10.94-.9,15.95,1.17l-4.01-2.13c1.22-3.06-.29-6.48-2.87-8.53-.06.03-.13.05-.2.06-.95,1.02-1.9,2.04-2.85,3.06Z"/>
            <path class="cls-8" d="m404.86,77.79s-.02-.01-.03-.02c0,0-.01,0-.02.01.02,0,.03,0,.05,0Z"/>
            <path class="cls-6" d="m439.53,36.69c.25.2.57.47.88.55.13.03.35-.04.49.04.09-.27.16-.54.21-.8.2-1.05-1.04-.71-2.1-.23.2.04.4.35.52.44Z"/>
            <path class="cls-6" d="m435.28,38.95c-.23.24-.46.47-.69.71-2.53,2.66-5.07,5.32-7.59,7.99,1.41.87,2.73,1.84,3.85,2.73,0,0,.01-.01.02-.02,1.77-2.14,4.38-3.86,5.98-6.14.77-1.1,2.1-3.28,2.82-4.42.38-.61.77-1.33,1.06-2.05-.07.01-.14.01-.21,0-.13-.03-.24-.09-.35-.16-.18-.11-1.61-.84-1.46-1.21-.36.17-.67.35-.87.46-.05.03-.1.06-.15.1-.01.06-.03.13-.07.21-.26.65-1.5,1.29-2.34,1.79Z"/>
            <path class="cls-6" d="m403.59,77.12c.34.33.76.59,1.23.67,0,0,.01,0,.02-.01-.76-.48-1.29-1.2-1.31-2.1-.03-1.43,1.22-2.53,2.42-3.3,2.42-1.57,5.1-2.69,7.9-3.36,2.03-2.1,4.03-4.24,6.02-6.37.95-1.02,1.9-2.04,2.85-3.06-.82.18-1.81-.64-2.4-1.2-.07-.06-.15-.14-.23-.22-1.01-.15-2.07,0-3.08.37-1.88,2.11-3.74,4.24-5.57,6.4-.42.79-.83,1.56-1.19,2.38-1.04,2.38-3.04,4.37-5.19,5.45-.82,1.05-1.64,2.11-2.44,3.18.05.02.1.06.16.11.32.3.5.76.82,1.08Z"/>
            <path class="cls-6" d="m398.32,82.02s-.03-.08-.02-.12c-.58.84-1.16,1.68-1.72,2.52.82-.58,1.63-1.19,2.42-1.8-.2-.17-.57-.4-.68-.61Z"/>
            <path class="cls-6" d="m402.61,77.27c-.18-.23-.37-.48-.42-.77,0,0,0,0,0,0-1.22,1.63-2.42,3.28-3.58,4.95.02.12.11.23.22.3.13.09.29.15.43.23.1.07.2.17.23.28,1.61-1.26,3.19-2.57,4.72-3.92-.33.01-.65-.13-.91-.34-.26-.21-.47-.47-.68-.74Z"/>
            <path class="cls-6" d="m426.52,46.9c1.63-1.86,3.39-3.61,5.28-5.24.96-.83,1.95-1.62,2.97-2.38.14-.1.31-.21.51-.33.74-.74,1.52-1.45,2.4-2,.35-1.47-3.65,1.25-4.2,1.63-1.9,1.3-3.63,2.82-5.16,4.52-1.04,1.15-1.98,2.39-2.81,3.68.25.14.5.28.75.42.09-.1.18-.21.27-.31Z"/>
            <path class="cls-6" d="m437.62,37.16c.03-.08.05-.14.07-.21-.88.55-1.67,1.26-2.4,2,.84-.5,2.08-1.14,2.34-1.79Z"/>
            <path class="cls-3" d="m422.72,59.59c.07-.01.13-.04.2-.06-.03-.02-.05-.04-.08-.06-.04.04-.08.08-.12.13Z"/>
            <path class="cls-3" d="m421.83,58.78c-.55-.32-1.14-.52-1.75-.61.08.08.16.16.23.22.6.55,1.58,1.38,2.4,1.2.04-.04.08-.08.12-.13-.32-.25-.65-.48-1-.68Z"/>
            <path class="cls-3" d="m398.61,81.36c-.04.22-.3.36-.32.55.11-.15.21-.31.32-.46,0-.03,0-.06,0-.09Z"/>
            <path class="cls-3" d="m399.02,82.66c.16-.1.31-.2.47-.29,0-.03,0-.07-.01-.1-.16.13-.32.25-.49.37,0,0,.02.02.03.02Z"/>
            <path class="cls-3" d="m399.25,81.98c-.13-.09-.29-.14-.43-.23-.11-.07-.2-.18-.22-.3-.11.15-.21.31-.32.46,0,.04,0,.07.02.12.11.21.48.44.68.61.16-.12.32-.25.49-.37-.03-.11-.12-.21-.23-.28Z"/>
            <path class="cls-3" d="m438.91,36.25c-.12.04-.18.08-.2.14.1-.05.21-.1.31-.15-.04,0-.07,0-.11,0Z"/>
            <path class="cls-3" d="m440.89,37.7c.18-.13.21-.28.02-.41,0,0,0,0-.01,0-.05.16-.11.32-.17.48.06-.01.11-.03.16-.07Z"/>
            <path class="cls-3" d="m440.16,37.6c.11.07.23.13.35.16.07.01.14.02.21,0,.06-.16.12-.32.17-.48-.14-.08-.36,0-.49-.04-.31-.08-.63-.35-.88-.55-.12-.09-.31-.4-.52-.44-.11.05-.21.1-.31.15-.15.36,1.28,1.1,1.46,1.21Z"/>
            <path class="cls-3" d="m404.82,77.79c-.21.18-.41.37-.62.55,0,0,0,0,.01,0,.32-.01.63-.2.76-.49-.04-.02-.07-.04-.1-.06-.02,0-.03,0-.05,0Z"/>
            <path class="cls-3" d="m402.19,76.5c.14-.19.28-.37.42-.56-.28-.12-.48.18-.42.56Z"/>
            <path class="cls-3" d="m403.59,77.12c-.32-.32-.5-.78-.82-1.08-.05-.05-.11-.09-.16-.11-.14.19-.28.37-.42.56,0,0,0,0,0,0,.05.29.24.53.42.77.21.26.42.53.68.74.26.2.58.35.91.34.21-.18.41-.37.62-.55-.46-.08-.89-.34-1.23-.67Z"/>
            <path class="cls-2" d="m402.67,68.32c-.31,1.76-.06,3.29-.37,5.11,1.04-.03,1.68-.14,2.75-.67,2.07-2.65,4.2-5.25,6.38-7.82.37-.71.75-1.44,1.09-2.27.78-1.88,2.53-3.42,4.48-4.13.6-.68,1.21-1.35,1.82-2.03-.03-.1-.04-.19-.04-.28.05-.79,1.77-1.77,1.78-1.92.01.06.04.13.08.2,2.1-2.3,4.22-4.58,6.36-6.85-.06-.04.06.04,0,0"/>
            <path class="cls-2" d="m426.25,47.21c-.05-.03.05.03,0,0-.7.81-1.4,1.62-2.26,2.26.45-.92.96-1.82,1.51-2.69-.03-.02.28.15,0,0"/>
            <path class="cls-2" d="m430.11,51.29c-1.98,2.4-3.3,3.84-5.4,6.13,0,.81-.79,1.6-1.75,2.08-.01,0-.03.01-.04.02,2.58,2.06,2.21,6.13.99,9.19l4.37,1.09c-5.22-1.77-9.16-2.05-14.44-.79-2.11,1.07-13.75,3.62-9.01,8.76.01,0,.02.01.03.02.04,0,.08.01.13.01,0,.02-.01.03-.02.05.76.44,1.71.65,2.58.58,1.82-.15,3.49-1.08,5.28-1.43,3.17-.63,6.41.59,9.26,2.13s5.55,3.43,8.65,4.33c.99.29,2.13.46,3.34.55"/>
            <path class="cls-6" d="m420.64,54.51c.23.46.91,1.22,1.9,1.79.71.41,1.44.73,2.16,1.1,0-.04,0-.02,0,0s0,.04,0,0c0,.01,0,.02,0,.04,2.1-2.3,4.17-4.63,6.15-7.03-1.13-.89-2.45-1.86-3.85-2.73-2.13,2.27-4.26,4.55-6.36,6.85Z"/>
            <path class="cls-6" d="m410.25,67.31c.36-.82.77-1.58,1.19-2.38-2.18,2.57-4.31,5.17-6.38,7.82,2.15-1.08,4.16-3.06,5.19-5.45Z"/>
            <path class="cls-6" d="m417,58.54c1.01-.37,2.07-.51,3.08-.37-.46-.44-1.09-1.11-1.26-1.66-.61.67-1.22,1.35-1.82,2.03Z"/>
            <path class="cls-6" d="m426.25,47.21c-.25-.14-.5-.29-.75-.42-.56.87-1.06,1.76-1.51,2.69.86-.65,1.56-1.46,2.26-2.26Z"/>
            <path class="cls-3" d="m420.57,54.31c0,.15-1.73,1.13-1.78,1.92,0,.09,0,.18.04.28.6-.67,1.21-1.34,1.82-2-.04-.08-.06-.14-.08-.2Z"/>
            <path class="cls-3" d="m422.91,59.52s.03-.01.04-.02c.96-.48,1.75-1.26,1.75-2.08-.62.68-1.24,1.36-1.87,2.03.03.02.05.04.08.06Z"/>
            <path class="cls-4" d="m424.7,57.39s0,.02,0,0h0Z"/>
            <path class="cls-4" d="m424.7,57.39s0-.04,0,0h0Z"/>
            <path class="cls-3" d="m422.55,56.29c-.99-.57-1.67-1.33-1.9-1.79-.61.67-1.21,1.33-1.82,2,.16.55.8,1.22,1.26,1.66.61.09,1.21.29,1.75.61.35.2.68.43,1,.68.63-.67,1.25-1.35,1.87-2.03,0-.01,0-.02,0-.04-.72-.37-1.45-.69-2.16-1.1Z"/>
            <path class="cls-4" d="m404.86,77.79s.07.04.1.06c0-.02.02-.03.02-.05-.04,0-.08,0-.13-.01Z"/>
          </g>
          <path class="cls-2" d="m402.71,68.16c1.16-.39,2.13,0,2.79,1.06s.55,2.58-.25,3.54c-.68.82-1.82,1.17-2.81.92-.3-.07-.5-.35-.47-.66l.39-4.11c.14-.77.29-.53.34-.75"/>
          <path class="cls-2" d="m409.25,72.77c.79,1.38.46,3.38-.9,4.22-1.29.8-3.2.26-3.92-1.07s.42-2.42,1.75-3.17c1.18-.66,2.22-1.18,3.13-.18"/>
          <path class="cls-2" d="m419.28,64.5c1.7-.3,3.52,1.17,3.98,3.21"/>
          <path class="cls-2" d="m405.38,62.43c1.98.17,2.87.25,2.68.23"/>
          <path class="cls-2" d="m404.88,63.99h3.42"/>
          <path class="cls-2" d="m416.3,69.82c-.66,1.15-.58,2.68.19,3.75"/>
          <path class="cls-2" d="m417.63,69.85c.71.5.73,1.72.03,2.24"/>
          <path class="cls-2" d="m419.3,70.09c.35,1.33,0,2.82-.89,3.86"/>
          <path class="cls-2" d="m415.07,52.25c-.71-.17-1.07-.97-.69-1.5"/>
        </g>
      </g>
      <g>
        <g>
          <path class="cls-7" d="m52.23,312.2c-3.01-1.14-5.88-2.63-8.74-4.12-5.09-2.65-10.33-5.42-13.95-9.87-1.02-1.25-1.93-2.85-1.5-4.4.16-.58.49-1.09.81-1.59,7.13-10.93,14.26-21.87,22.14-32.27,2.5-3.3,5.17-6.62,8.79-8.62.42-.24.93-.46,1.38-.29.24.09.47.26.62.47,4.51,6.31,9.15,11.3,12.79,13.53.51.31,10.32,5.88,10.9,5.74,0,0,.94.84,1.98,1.65,3.14,2.46,4.06,4.94,9.31,8.75,3.22,2.33,6.7,3.06,8.79,3.75,2.75.91,5.01,1.65,7.63,2.87-2.1,3.94-2.73,7.57-4.75,11.55-6.29,12.33-14.13,25.12-20.47,36.98-.55,1.02-1.69,1.73-2.83,1.9-1.35.2-2.65-.65-3.53-1.7s-2.66-2.06-3.56-3.09c-1.14-1.3-4.91-4.66-4.91-4.66-2.07-2.75-6.93-7.65-8.93-9.25-3.97-3.18-7.42-5.61-11.95-7.34Z"/>
          <path class="cls-11" d="m60.78,313.5c6.92-10.46,12.1-22.83,18.99-33.31,1.53-2.32,3.26-4.6,5.64-6.02-9.94-4.25-20.5-11.78-24.58-21.79-6.42,5.9-11.44,13.13-16.4,20.3-5.19,7.5-10.38,15-15.56,22.5,9.33,9.61,20.15,13.04,31.91,18.33,4.58,2.06,6.87,6.29,9.96,10.09,3.98,4.9,8.43,9.64,14.23,12.37,9.98-15.06,18.28-31.51,25.44-48.11-9.48-.38-18.68-6.61-24.99-13.69"/>
          <path class="cls-5" d="m61.48,307.36c-4.44-2.62-8.09-7.3-13.23-7.53-1.3-.06-2.61.18-3.9,0-2.99-.43-5.16-2.98-7.02-5.36"/>
          <path class="cls-5" d="m64.93,297.39c-2.2-2.32-2.71-6.1-5.44-7.77-1.98-1.21-4.51-.89-6.79-1.35-2.91-.58-5.52-2.54-6.88-5.19"/>
          <path class="cls-5" d="m68.75,286.25c-2.49-3.53-5.96-6.36-9.93-8.07-1.54-.66-3.33-1.33-3.92-2.9"/>
          <path class="cls-5" d="m84.38,328.61c-4.13-2.88-4.8-9.24-9.14-11.79-1.11-.65-2.38-.99-3.52-1.6s-2.19-1.62-2.31-2.9"/>
          <path class="cls-5" d="m89.81,320.1c-1.68-5.67-5.69-10.6-10.89-13.42-1.34-.73-2.77-1.33-3.93-2.32"/>
          <path class="cls-5" d="m95.54,308.24c-1.46-3.34-4.09-6.17-7.32-7.87-2.06-1.09-4.46-1.81-5.86-3.68"/>
          <path class="cls-5" d="m100.65,298.41c-1.5-4.68-6.36-7.27-10.78-9.4-1.74-.84-3.49-1.67-5.23-2.51"/>
          <path class="cls-1" d="m75.35,277.9c-.63-.74-1.75-1.02-2.65-.65-.27.11-.53.28-.62.55s.09.63.38.63c.33-.22.67-.45.86-.79s.21-.83-.09-1.09c-.41-.36-1.06-.09-1.46.27s-.77.85-1.31.92c.45-.03.89-.14,1.29-.32.27-.13.54-.3.7-.56s.17-.62-.04-.84-.64-.2-.76.08c.31-.28.48-.71.46-1.12-.63.03-1.26.06-1.89.1.53-.63.28-1.64-.29-2.23s-1.38-.88-2.13-1.21-1.52-.78-1.88-1.52l.24.46"/>
        </g>
        <g>
          <path class="cls-9" d="m35.46,255.41c-3.63.85-5.64,4.83-5.35,8.55s4.87,6.21,8.51,5.41c1.86-.41,3.46-.45,5.12-.79,3.81-.77,9.02,2.07,9.78,3.35-6.47,5.26-19.89,5.44-30.11,2.21-5.03-1.59-4.39-8.1-3.99-13.36.39-5.26.75-10.42,1.66-15.62s1.02-10.81-1.49-15.45c3.64-2.96,8.31-4.71,13.01-4.67,2.38,2.92,4.75,5.83,7.13,8.75,2.19,2.69,4.42,5.45,5.54,8.73,1.04,3.06,1.03,6.36,1.4,9.57s1.22,6.57,3.55,8.81c1.32,1.27,3.03,2.1,4.2,3.51s1.51,3.81.03,4.89c-1.15.84-2.77.44-4.09-.09-7.69-3.13-13.65-10.21-15.44-18.31"/>
          <path class="cls-2" d="m30.06,264.66c1,3.97,5.67,6.58,9.58,5.36,1.35-.42,3.48-.05,4.8-.55,3.7-1.39,7.15-2.25,10.07-4.92,1.07-.98,2.04-1.97,1.61-3.36s-4.69-1.03-6.18-.54c.48-1.02,3.79-2.98,2.79-5.13-2.18-2.27-4.04,1.67-4.85,1.67,1.02-1.01,3.67-4.45,2.58-5.58-1.75-1.83-5.72.23-7.21.42-2.34.3-7.34-1.85-9.32-.53-3.37,2.26-4.94,8.92-3.87,13.16Z"/>
          <g>
            <path class="cls-8" d="m38.73,269.5c.88-.19,1.7-.3,2.49-.4-2.81-.27-5.63-.57-8.43-.91,1.7,1.19,3.96,1.74,5.95,1.31Z"/>
            <path class="cls-8" d="m6.26,264.4c.21.09.4.18.56.23,1.2.4,2.42.76,3.65,1.07,2.41.62,4.86,1.07,7.32,1.34.13.01.27.03.41.04-.02-.29-.04-.58-.06-.87-3.64-.54-7.27-1.09-10.9-1.65-.32-.05-.65-.1-.98-.16Z"/>
            <path class="cls-8" d="m34.51,263.5c2.89.42,5.78.84,8.67,1.3-4.05-3.6-7-8.46-8.17-13.75l.55,4.5c-3.21.75-5.15,3.94-5.36,7.24.06.04.12.08.17.12,1.38.19,2.76.39,4.14.59Z"/>
            <path class="cls-8" d="m55.52,267.13s0,.02,0,.04c0,0,.01,0,.02,0,0-.01-.01-.03-.02-.04Z"/>
            <path class="cls-6" d="m1.98,262.21c.02-.32.06-.74-.05-1.03-.05-.13-.23-.27-.25-.42-.27.08-.53.17-.77.28-.98.44.01,1.26,1.01,1.85-.08-.19.06-.53.07-.68Z"/>
            <path class="cls-6" d="m6.26,264.4c.33.06.65.11.98.16,3.63.56,7.26,1.11,10.9,1.65-.09-1.65-.05-3.29.04-4.72,0,0-.02,0-.02,0-2.77-.23-5.67-1.39-8.45-1.39-1.35,0-3.9.16-5.24.22-.72.03-1.53.12-2.29.3.05.05.09.11.12.17.05.12.06.25.07.38.01.21.23,1.8-.15,1.89.34.19.67.35.88.45.05.03.11.05.17.07.06-.02.13-.05.21-.06.68-.16,1.91.49,2.81.89Z"/>
            <path class="cls-6" d="m55.7,268.56c.08-.47.05-.96-.15-1.39,0,0-.01,0-.02,0,.04.9-.25,1.75-.97,2.28-1.15.84-2.77.44-4.09-.09-2.67-1.09-5.12-2.65-7.27-4.56-2.89-.46-5.78-.88-8.67-1.3-1.38-.2-2.76-.4-4.14-.59.62.57.51,1.85.39,2.65-.01.09-.03.2-.05.32.46.91,1.18,1.7,2.06,2.32,2.81.34,5.62.64,8.43.91.89-.11,1.75-.21,2.63-.38,2.55-.51,5.32,0,7.44,1.14,1.33.07,2.67.13,4,.18-.01-.05-.01-.12,0-.19.07-.43.34-.84.41-1.29Z"/>
            <path class="cls-6" d="m62.74,270.08s-.05.07-.08.09c1.02,0,2.04-.01,3.06-.03-.95-.34-1.9-.65-2.86-.96-.03.26,0,.69-.11.9Z"/>
            <path class="cls-6" d="m56.38,269.28c-.09.28-.18.57-.39.78,0,0,0,0,0,0,2.04.07,4.07.1,6.11.11.09-.08.12-.22.12-.35,0-.16-.05-.32-.05-.48,0-.12.02-.26.1-.35-1.95-.61-3.93-1.15-5.91-1.63.2.26.26.61.24.94-.02.33-.12.66-.22.98Z"/>
            <path class="cls-6" d="m17.79,267.04c-2.46-.27-4.91-.72-7.32-1.34-1.23-.31-2.44-.67-3.65-1.07-.16-.05-.35-.13-.56-.23-1.03-.18-2.06-.41-3.01-.83-1.41.55,3.11,2.28,3.74,2.52,2.16.81,4.4,1.37,6.66,1.65,1.54.19,3.09.26,4.63.2-.03-.28-.06-.57-.08-.85-.14-.01-.27-.03-.41-.04Z"/>
            <path class="cls-6" d="m3.46,263.51c-.08.02-.15.04-.21.06.96.41,1.98.65,3.01.83-.89-.4-2.13-1.05-2.81-.89Z"/>
            <path class="cls-3" d="m30.37,262.91c-.05-.05-.11-.09-.17-.12,0,.03,0,.07,0,.1.06,0,.11.02.17.02Z"/>
            <path class="cls-3" d="m30.21,264.09c.05.63.23,1.23.51,1.79.02-.12.03-.22.05-.32.11-.8.23-2.08-.39-2.65-.06,0-.11-.02-.17-.02-.02.4-.02.81.01,1.21Z"/>
            <path class="cls-3" d="m62.02,270.23c.2-.1.47.04.63-.05-.19,0-.37,0-.56,0-.02.02-.04.04-.07.05Z"/>
            <path class="cls-3" d="m62.85,269.15c-.17-.07-.34-.14-.51-.21-.03.02-.06.04-.08.07.19.06.39.12.58.19,0-.01,0-.03,0-.04Z"/>
            <path class="cls-3" d="m62.17,269.34c0,.16.05.32.05.48,0,.13-.04.26-.12.35.19,0,.37,0,.56,0,.03-.02.06-.05.08-.09.11-.21.09-.64.11-.9-.19-.06-.39-.12-.58-.19-.07.09-.1.22-.1.35Z"/>
            <path class="cls-3" d="m1.97,262.97c.1.08.17.1.23.08-.1-.05-.2-.11-.3-.17.01.03.03.06.06.09Z"/>
            <path class="cls-3" d="m2.02,260.52c-.21-.07-.35,0-.35.21,0,0,0,0,0,.01.16-.05.33-.09.49-.13-.04-.04-.09-.08-.15-.09Z"/>
            <path class="cls-3" d="m2.36,261.17c0-.13-.02-.26-.07-.38-.03-.06-.07-.13-.12-.17-.17.04-.33.08-.49.13.01.16.2.3.25.42.11.3.07.72.05,1.03,0,.15-.15.49-.07.68.1.06.2.12.3.17.38-.09.17-1.67.15-1.89Z"/>
            <path class="cls-3" d="m55.54,267.17c.27.06.54.13.81.19,0,0,0,0,0-.01-.19-.25-.52-.41-.83-.34,0,.04,0,.08,0,.12,0,.01.02.03.02.04Z"/>
            <path class="cls-3" d="m55.99,270.07c-.23,0-.47-.02-.7-.02.06.3.43.29.7.02Z"/>
            <path class="cls-3" d="m55.7,268.56c-.07.44-.35.86-.41,1.29-.01.07,0,.14,0,.19.23,0,.47.02.7.02,0,0,0,0,0,0,.21-.21.3-.5.39-.78.1-.32.2-.64.22-.98.02-.33-.05-.67-.24-.94-.27-.07-.54-.13-.81-.19.2.42.23.92.15,1.39Z"/>
            <path class="cls-2" d="m49,274.35c1.63-.75,2.73-1.84,4.4-2.62-.62-.83-1.08-1.3-2.12-1.87-3.36-.18-6.71-.44-10.06-.76-.79.1-1.61.21-2.49.4-1.99.44-4.25-.12-5.95-1.31-.9-.11-1.8-.22-2.71-.33-.06.08-.13.15-.21.19-.67.41-2.46-.44-2.59-.36.04-.04.08-.1.12-.18-3.09-.41-6.17-.85-9.25-1.3,0,.07,0-.07,0,0"/>
            <path class="cls-2" d="m18.2,267.09c0,.06,0-.06,0,0,1.06.11,2.13.22,3.15.56-1.01.16-2.04.25-3.07.3,0,.04-.03-.32,0,0"/>
            <path class="cls-2" d="m19.34,261.59c3.11.25,5.03.52,8.12.92.66-.47,1.76-.26,2.7.24.01,0,.03.02.04.03.21-3.3,3.76-5.32,6.97-6.07l-1.6-4.21c1.53,5.29,3.56,8.69,7.61,12.29,2.08,1.12,10.84,9.21,12.34,2.38,0-.01,0-.02,0-.04-.02-.04-.04-.08-.06-.11.02,0,.03,0,.05,0-.07-.88-.44-1.78-1-2.45-1.16-1.41-2.88-2.24-4.2-3.51-2.33-2.24-3.18-5.6-3.55-8.81s-.36-6.51-1.4-9.57c-.33-.98-.85-2.01-1.46-3.05"/>
            <path class="cls-6" d="m27.39,267.51c.24-.45.48-1.45.37-2.58-.07-.81-.22-1.6-.33-2.4-.03.02-.02.01,0,0s.03-.02,0,0c0,0,.02-.01.03-.02-3.09-.41-6.18-.77-9.29-1.02-.09,1.43-.13,3.07-.04,4.72,3.08.45,6.17.89,9.25,1.3Z"/>
            <path class="cls-6" d="m43.84,268.72c-.88.18-1.74.27-2.63.38,3.35.32,6.71.58,10.06.76-2.12-1.15-4.89-1.66-7.44-1.14Z"/>
            <path class="cls-6" d="m32.78,268.19c-.88-.62-1.61-1.4-2.06-2.32-.1.63-.29,1.54-.65,1.98.9.11,1.8.23,2.71.33Z"/>
            <path class="cls-6" d="m18.2,267.09c.02.29.05.57.08.85,1.03-.04,2.05-.14,3.07-.3-1.02-.34-2.09-.45-3.15-.56Z"/>
            <path class="cls-3" d="m27.27,267.69c.13-.08,1.92.77,2.59.36.08-.05.15-.11.21-.19-.89-.11-1.79-.23-2.68-.35-.04.07-.08.14-.12.18Z"/>
            <path class="cls-3" d="m30.21,262.78s-.02-.02-.04-.03c-.94-.51-2.04-.71-2.7-.24.91.12,1.82.24,2.74.37,0-.03,0-.07,0-.1Z"/>
            <path class="cls-4" d="m27.44,262.53s.02-.01,0,0h0Z"/>
            <path class="cls-4" d="m27.44,262.53s-.03.02,0,0h0Z"/>
            <path class="cls-3" d="m27.77,264.93c.1,1.14-.13,2.13-.37,2.58.89.12,1.79.23,2.68.35.36-.45.55-1.35.65-1.98-.28-.55-.46-1.15-.51-1.79-.03-.4-.03-.81-.01-1.21-.91-.13-1.82-.25-2.74-.37-.01,0-.02.01-.03.02.11.8.26,1.58.33,2.4Z"/>
            <path class="cls-4" d="m55.52,267.13s0-.08,0-.12c-.02,0-.03,0-.05,0,.02.04.04.07.06.11Z"/>
          </g>
          <path class="cls-2" d="m48.85,274.41c-.99-.72-1.22-1.75-.73-2.9s1.8-1.93,3.05-1.82c1.06.09,2,.82,2.36,1.78.11.29,0,.61-.27.76l-3.6,2.03c-.71.32-.6.06-.81.15"/>
          <path class="cls-2" d="m48.88,266.41c.68-1.44,2.51-2.31,3.98-1.68,1.4.6,2.05,2.47,1.37,3.83s-2.23,1.04-3.6.38c-1.22-.58-2.24-1.14-1.94-2.46"/>
          <path class="cls-2" d="m36.37,262.91c-1.22-1.22-1.06-3.56.36-5.11"/>
          <path class="cls-2" d="m42.62,275.5c-.99-1.72-1.44-2.5-1.34-2.33"/>
          <path class="cls-2" d="m44.19,275.02l-1.95-2.81"/>
          <path class="cls-2" d="m42.43,262.31c1.32-.12,2.53-1.05,2.97-2.3"/>
          <path class="cls-2" d="m41.7,261.2c0-.87,1-1.58,1.82-1.31"/>
          <path class="cls-2" d="m40.95,259.7c.89-1.05,2.31-1.62,3.68-1.48"/>
          <path class="cls-2" d="m28.73,273.38c.27.68-.18,1.43-.84,1.42"/>
        </g>
      </g>
    </g>
  </g>
</svg>