<?xml version="1.0" encoding="UTF-8"?>
<svg id="Layer_2" data-name="Layer 2" xmlns="http://www.w3.org/2000/svg" xmlns:xlink="http://www.w3.org/1999/xlink" viewBox="0 0 633.06 497.41">
  <defs>
    <style>
      .cls-1 {
        fill: #f9dc5c;
      }

      .cls-2 {
        fill: #fbf3d3;
        stroke-width: .75px;
      }

      .cls-2, .cls-3, .cls-4 {
        stroke: #2a3c24;
      }

      .cls-2, .cls-4 {
        stroke-linecap: round;
        stroke-linejoin: round;
      }

      .cls-3 {
        fill: #a690a4;
      }

      .cls-3, .cls-5 {
        stroke-miterlimit: 10;
      }

      .cls-6 {
        clip-path: url(#clippath);
      }

      .cls-7, .cls-5 {
        fill: none;
      }

      .cls-4 {
        fill: #2a3c24;
      }

      .cls-5 {
        stroke: #000;
        stroke-width: .5px;
      }
    </style>
    <clipPath id="clippath">
      <rect class="cls-7" x="14.98" y="29.83" width="601.33" height="451"/>
    </clipPath>
  </defs>
  <g id="flyvende_skrivemaskiner" data-name="flyvende skrivemaskiner">
    <g class="cls-6">
      <rect class="cls-1" x="14.98" y="29.83" width="601.33" height="451"/>
      <g>
        <path class="cls-2" d="m574.53,3.06c.33-.64.68-1.28,1.2-1.77,2.21-2.05,5.69-.21,8.27,1.36,10.49,6.37,24.18,7.1,35.29,1.87.82,10.62-2.42,21.27-7.59,30.59-5.17,9.32-12.21,17.45-19.49,25.24-1.61,1.72-3.29,3.47-5.44,4.42-2.48,1.09-5.3,1-7.98.64-9.26-1.24-20.24-5.94-25.82-13.67,11.65-15.19,12.88-31.89,21.56-48.68Z"/>
        <path class="cls-3" d="m526.15,55.06c6.59-6.24,14.91-11.06,23.95-11.81,8.84-.73,17.48,2.42,26.25,3.67,7.94,1.13,16.24.75,23.68,3.73,8.63,3.46,15.11,11.29,18.1,20.1,2.98,8.81,2.72,18.49.49,27.53-1.04,4.22-2.98,8.85-7.09,10.27-2.51.87-5.26.3-7.85-.27-28.98-6.38-57.96-12.76-86.94-19.14-3.36-.74-6.99-1.64-9.13-4.33-5.18-6.48,13.98-25.44,18.54-29.76Z"/>
        <path class="cls-3" d="m563.23,47.25c13.27,2.97,26.54,5.94,39.81,8.91,3.42.76,7.28,1.56,9.81,1.21-1.36-2.36-6.82-4.88-12.54-6.6s-11.82-2.85-17.78-4.16c-9.41-2.06-25.57-6.46-34.36-6.29-10.34.2,9.7,5.73,15.07,6.93Z"/>
        <path class="cls-4" d="m545.77,56.25c-.9-1.07-1.9-2.06-2.98-2.95,1.52-1.51,4.28-1.47,5.76.08-.43.62-1.14.97-1.76,1.38s-1.25.99-1.31,1.74"/>
        <path class="cls-4" d="m553.69,57.97c-.9-1.07-1.9-2.06-2.98-2.95,1.52-1.51,4.28-1.47,5.76.08-.43.62-1.14.97-1.76,1.38s-1.25.99-1.31,1.74"/>
        <path class="cls-4" d="m561.96,59.77c-.9-1.07-1.9-2.06-2.98-2.95,1.52-1.51,4.28-1.47,5.76.08-.43.62-1.14.97-1.76,1.38s-1.25.99-1.31,1.74"/>
        <path class="cls-4" d="m569.87,61.49c-.9-1.07-1.9-2.06-2.98-2.95,1.52-1.51,4.28-1.47,5.76.08-.43.62-1.14.97-1.76,1.38s-1.25.99-1.31,1.74"/>
        <path class="cls-4" d="m578.15,63.29c-.9-1.07-1.9-2.06-2.98-2.95,1.52-1.51,4.28-1.47,5.76.08-.43.62-1.14.97-1.76,1.38s-1.25.99-1.31,1.74"/>
        <path class="cls-4" d="m586.06,65.01c-.9-1.07-1.9-2.06-2.98-2.95,1.52-1.51,4.28-1.47,5.76.08-.43.62-1.14.97-1.76,1.38s-1.25.99-1.31,1.74"/>
        <path class="cls-4" d="m594.33,66.81c-.9-1.07-1.9-2.06-2.98-2.95,1.52-1.51,4.28-1.47,5.76.08-.43.62-1.14.97-1.76,1.38s-1.25.99-1.31,1.74"/>
        <path class="cls-4" d="m602.25,68.53c-.9-1.07-1.9-2.06-2.98-2.95,1.52-1.51,4.28-1.47,5.76.08-.43.62-1.14.97-1.76,1.38s-1.25.99-1.31,1.74"/>
        <path class="cls-4" d="m534.8,61.96c-.9-1.07-1.9-2.06-2.98-2.95,1.52-1.51,4.28-1.47,5.76.08-.43.62-1.14.97-1.76,1.38s-1.25.99-1.31,1.74"/>
        <path class="cls-4" d="m542.71,63.68c-.9-1.07-1.9-2.06-2.98-2.95,1.52-1.51,4.28-1.47,5.76.08-.43.62-1.14.97-1.76,1.38s-1.25.99-1.31,1.74"/>
        <path class="cls-4" d="m550.98,65.48c-.9-1.07-1.9-2.06-2.98-2.95,1.52-1.51,4.28-1.47,5.76.08-.43.62-1.14.97-1.76,1.38s-1.25.99-1.31,1.74"/>
        <path class="cls-4" d="m558.9,67.2c-.9-1.07-1.9-2.06-2.98-2.95,1.52-1.51,4.28-1.47,5.76.08-.43.62-1.14.97-1.76,1.38s-1.25.99-1.31,1.74"/>
        <path class="cls-4" d="m567.17,69c-.9-1.07-1.9-2.06-2.98-2.95,1.52-1.51,4.28-1.47,5.76.08-.43.62-1.14.97-1.76,1.38s-1.25.99-1.31,1.74"/>
        <path class="cls-4" d="m575.08,70.72c-.9-1.07-1.9-2.06-2.98-2.95,1.52-1.51,4.28-1.47,5.76.08-.43.62-1.14.97-1.76,1.38s-1.25.99-1.31,1.74"/>
        <path class="cls-4" d="m583.36,72.52c-.9-1.07-1.9-2.06-2.98-2.95,1.52-1.51,4.28-1.47,5.76.08-.43.62-1.14.97-1.76,1.38s-1.25.99-1.31,1.74"/>
        <path class="cls-4" d="m591.27,74.25c-.9-1.07-1.9-2.06-2.98-2.95,1.52-1.51,4.28-1.47,5.76.08-.43.62-1.14.97-1.76,1.38s-1.25.99-1.31,1.74"/>
        <path class="cls-4" d="m550.68,73.52c-.9-1.07-1.9-2.06-2.98-2.95,1.52-1.51,4.28-1.47,5.76.08-.43.62-1.14.97-1.76,1.38s-1.25.99-1.31,1.74"/>
        <path class="cls-4" d="m558.59,75.24c-.9-1.07-1.9-2.06-2.98-2.95,1.52-1.51,4.28-1.47,5.76.08-.43.62-1.14.97-1.76,1.38s-1.25.99-1.31,1.74"/>
        <path class="cls-4" d="m566.87,77.04c-.9-1.07-1.9-2.06-2.98-2.95,1.52-1.51,4.28-1.47,5.76.08-.43.62-1.14.97-1.76,1.38s-1.25.99-1.31,1.74"/>
        <path class="cls-4" d="m574.78,78.76c-.9-1.07-1.9-2.06-2.98-2.95,1.52-1.51,4.28-1.47,5.76.08-.43.62-1.14.97-1.76,1.38s-1.25.99-1.31,1.74"/>
        <path class="cls-4" d="m583.05,80.56c-.9-1.07-1.9-2.06-2.98-2.95,1.52-1.51,4.28-1.47,5.76.08-.43.62-1.14.97-1.76,1.38s-1.25.99-1.31,1.74"/>
        <path class="cls-4" d="m590.97,82.28c-.9-1.07-1.9-2.06-2.98-2.95,1.52-1.51,4.28-1.47,5.76.08-.43.62-1.14.97-1.76,1.38s-1.25.99-1.31,1.74"/>
        <path class="cls-4" d="m599.24,84.08c-.9-1.07-1.9-2.06-2.98-2.95,1.52-1.51,4.28-1.47,5.76.08-.43.62-1.14.97-1.76,1.38s-1.25.99-1.31,1.74"/>
        <path class="cls-4" d="m599.49,76.03c-.9-1.07-1.9-2.06-2.98-2.95,1.52-1.51,4.28-1.47,5.76.08-.43.62-1.14.97-1.76,1.38s-1.25.99-1.31,1.74"/>
        <path class="cls-4" d="m607.16,85.8c-.9-1.07-1.9-2.06-2.98-2.95,1.52-1.51,4.28-1.47,5.76.08-.43.62-1.14.97-1.76,1.38s-1.25.99-1.31,1.74"/>
        <path class="cls-4" d="m526.04,68.15c-.9-1.07-1.9-2.06-2.98-2.95,1.52-1.51,4.28-1.47,5.76.08-.43.62-1.14.97-1.76,1.38s-1.25.99-1.31,1.74"/>
        <path class="cls-4" d="m534.31,69.95c-.9-1.07-1.9-2.06-2.98-2.95,1.52-1.51,4.28-1.47,5.76.08-.43.62-1.14.97-1.76,1.38s-1.25.99-1.31,1.74"/>
        <path class="cls-4" d="m542.23,71.68c-.9-1.07-1.9-2.06-2.98-2.95,1.52-1.51,4.28-1.47,5.76.08-.43.62-1.14.97-1.76,1.38s-1.25.99-1.31,1.74"/>
        <path class="cls-4" d="m524.38,76.65c-.9-1.07-1.9-2.06-2.98-2.95,1.52-1.51,4.28-1.47,5.76.08-.43.62-1.14.97-1.76,1.38s-1.25.99-1.31,1.74"/>
        <path class="cls-4" d="m532.29,78.37c-.9-1.07-1.9-2.06-2.98-2.95,1.52-1.51,4.28-1.47,5.76.08-.43.62-1.14.97-1.76,1.38s-1.25.99-1.31,1.74"/>
        <path class="cls-4" d="m540.57,80.17c-.9-1.07-1.9-2.06-2.98-2.95,1.52-1.51,4.28-1.47,5.76.08-.43.62-1.14.97-1.76,1.38s-1.25.99-1.31,1.74"/>
        <path class="cls-4" d="m548.48,81.89c-.9-1.07-1.9-2.06-2.98-2.95,1.52-1.51,4.28-1.47,5.76.08-.43.62-1.14.97-1.76,1.38s-1.25.99-1.31,1.74"/>
        <path class="cls-4" d="m556.75,83.69c-.9-1.07-1.9-2.06-2.98-2.95,1.52-1.51,4.28-1.47,5.76.08-.43.62-1.14.97-1.76,1.38s-1.25.99-1.31,1.74"/>
        <path class="cls-4" d="m564.67,85.41c-.9-1.07-1.9-2.06-2.98-2.95,1.52-1.51,4.28-1.47,5.76.08-.43.62-1.14.97-1.76,1.38s-1.25.99-1.31,1.74"/>
        <path class="cls-4" d="m572.94,87.21c-.9-1.07-1.9-2.06-2.98-2.95,1.52-1.51,4.28-1.47,5.76.08-.43.62-1.14.97-1.76,1.38s-1.25.99-1.31,1.74"/>
        <path class="cls-4" d="m580.86,88.93c-.9-1.07-1.9-2.06-2.98-2.95,1.52-1.51,4.28-1.47,5.76.08-.43.62-1.14.97-1.76,1.38s-1.25.99-1.31,1.74"/>
        <path class="cls-4" d="m608.12,77.91c-.9-1.07-1.9-2.06-2.98-2.95,1.52-1.51,4.28-1.47,5.76.08-.43.62-1.14.97-1.76,1.38s-1.25.99-1.31,1.74"/>
        <path class="cls-4" d="m589.07,90.72c-.9-1.07-1.9-2.06-2.98-2.95,1.52-1.51,4.28-1.47,5.76.08-.43.62-1.14.97-1.76,1.38s-1.25.99-1.31,1.74"/>
        <path class="cls-4" d="m597.34,92.52c-.9-1.07-1.9-2.06-2.98-2.95,1.52-1.51,4.28-1.47,5.76.08-.43.62-1.14.97-1.76,1.38s-1.25.99-1.31,1.74"/>
        <path class="cls-4" d="m605.26,94.24c-.9-1.07-1.9-2.06-2.98-2.95,1.52-1.51,4.28-1.47,5.76.08-.43.62-1.14.97-1.76,1.38s-1.25.99-1.31,1.74"/>
        <path class="cls-4" d="m538.08,86.88c.91-.73,2.9-.44,4.53-.1,15.34,3.17,30.64,6.52,45.91,10.02-.84.92-3.08.77-4.94.53-8.06-1.07-16.12-2.43-24.12-4.07-7.21-1.48-14.34-4.22-21.37-6.38Z"/>
        <path class="cls-5" d="m576.7,9.61c.97,2.03,3.3,3.31,5.54,3.04,1.39-.17,2.72-.87,4.11-.73.93.09,1.78.55,2.65.89,4.39,1.74,9.48.64,13.91,2.27,1.09.4,2.13.96,3.26,1.24s2.42.24,3.34-.48"/>
        <path class="cls-5" d="m574.61,17.51c1.87,2.41,5.34,3.42,8.21,2.4.86-.31,1.7-.78,2.61-.73.46.02.9.18,1.33.33,2.11.75,4.21,1.51,6.32,2.26,3.91,1.4,7.81,2.79,11.72,4.19"/>
        <path class="cls-5" d="m573.56,24.81l1.42.18c5.13.64,10.26,1.29,15.34,2.29,1.29.25,2.57.53,3.84.83,1.48.35,2.94.73,4.41,1.1"/>
        <path class="cls-5" d="m570.98,30.71c6.32,2.39,12.92,4.01,19.63,4.81,1.43.17,2.87.31,4.24.74,1.37.43,2.64,1.16,3.71,2.12"/>
        <path class="cls-5" d="m568.07,37.99c2.36,2.26,5.87,2.66,9.12,3.01,7,.76,13.98,1.82,20.89,3.18"/>
      </g>
      <g>
        <path class="cls-2" d="m101.84,328.62c.62-.36,1.26-.72,1.97-.84,2.97-.53,4.9,2.91,6.22,5.62,5.37,11.03,16.5,19.05,28.67,20.66-5.06,9.38-13.54,16.58-22.92,21.62s-19.71,8.08-30.04,10.69c-2.28.58-4.64,1.14-6.97.77-2.67-.42-5-2.02-7.06-3.78-7.12-6.05-13.81-15.94-14.33-25.46,18.01-6.47,28.08-19.86,44.46-29.28Z"/>
        <path class="cls-3" d="m33.01,346.2c8.92-1.68,18.52-1.24,26.53,3.02,7.83,4.16,13.39,11.49,20.1,17.29,6.07,5.25,13.25,9.41,17.9,15.95,5.39,7.58,6.6,17.67,4.35,26.69s-7.72,17.02-14.47,23.42c-3.15,2.99-7.29,5.83-11.51,4.8-2.58-.63-4.59-2.59-6.46-4.47-20.92-21.04-41.85-42.08-62.77-63.12-2.42-2.44-4.99-5.16-5.34-8.58-.85-8.25,25.52-13.84,31.69-15Z"/>
        <path class="cls-3" d="m68.42,359.68c9.56,9.68,19.11,19.35,28.67,29.03,2.46,2.49,5.28,5.25,7.59,6.32.13-2.72-3.1-7.8-6.98-12.34-3.88-4.54-8.39-8.79-12.71-13.12-6.8-6.83-18.01-19.26-25.5-23.87-8.8-5.43,5.06,10.07,8.92,13.98Z"/>
        <path class="cls-4" d="m48.88,357.8c-.18-1.39-.48-2.76-.91-4.09,2.09-.45,4.4,1.08,4.8,3.18-.7.29-1.48.2-2.23.21s-1.59.16-2.04.75"/>
        <path class="cls-4" d="m54.6,363.53c-.18-1.39-.48-2.76-.91-4.09,2.09-.45,4.4,1.08,4.8,3.18-.7.29-1.48.2-2.23.21s-1.59.16-2.04.75"/>
        <path class="cls-4" d="m60.59,369.52c-.18-1.39-.48-2.76-.91-4.09,2.09-.45,4.4,1.08,4.8,3.18-.7.29-1.48.2-2.23.21s-1.59.16-2.04.75"/>
        <path class="cls-4" d="m66.31,375.25c-.18-1.39-.48-2.76-.91-4.09,2.09-.45,4.4,1.08,4.8,3.18-.7.29-1.48.2-2.23.21s-1.59.16-2.04.75"/>
        <path class="cls-4" d="m72.3,381.24c-.18-1.39-.48-2.76-.91-4.09,2.09-.45,4.4,1.08,4.8,3.18-.7.29-1.48.2-2.23.21s-1.59.16-2.04.75"/>
        <path class="cls-4" d="m78.02,386.97c-.18-1.39-.48-2.76-.91-4.09,2.09-.45,4.4,1.08,4.8,3.18-.7.29-1.48.2-2.23.21s-1.59.16-2.04.75"/>
        <path class="cls-4" d="m84.01,392.96c-.18-1.39-.48-2.76-.91-4.09,2.09-.45,4.4,1.08,4.8,3.18-.7.29-1.48.2-2.23.21s-1.59.16-2.04.75"/>
        <path class="cls-4" d="m89.73,398.69c-.18-1.39-.48-2.76-.91-4.09,2.09-.45,4.4,1.08,4.8,3.18-.7.29-1.48.2-2.23.21s-1.59.16-2.04.75"/>
        <path class="cls-4" d="m36.55,356.67c-.18-1.39-.48-2.76-.91-4.09,2.09-.45,4.4,1.08,4.8,3.18-.7.29-1.48.2-2.23.21s-1.59.16-2.04.75"/>
        <path class="cls-4" d="m42.28,362.4c-.18-1.39-.48-2.76-.91-4.09,2.09-.45,4.4,1.08,4.8,3.18-.7.29-1.48.2-2.23.21s-1.59.16-2.04.75"/>
        <path class="cls-4" d="m48.27,368.39c-.18-1.39-.48-2.76-.91-4.09,2.09-.45,4.4,1.08,4.8,3.18-.7.29-1.48.2-2.23.21s-1.59.16-2.04.75"/>
        <path class="cls-4" d="m53.99,374.12c-.18-1.39-.48-2.76-.91-4.09,2.09-.45,4.4,1.08,4.8,3.18-.7.29-1.48.2-2.23.21s-1.59.16-2.04.75"/>
        <path class="cls-4" d="m59.98,380.11c-.18-1.39-.48-2.76-.91-4.09,2.09-.45,4.4,1.08,4.8,3.18-.7.29-1.48.2-2.23.21s-1.59.16-2.04.75"/>
        <path class="cls-4" d="m65.7,385.84c-.18-1.39-.48-2.76-.91-4.09,2.09-.45,4.4,1.08,4.8,3.18-.7.29-1.48.2-2.23.21s-1.59.16-2.04.75"/>
        <path class="cls-4" d="m71.69,391.82c-.18-1.39-.48-2.76-.91-4.09,2.09-.45,4.4,1.08,4.8,3.18-.7.29-1.48.2-2.23.21s-1.59.16-2.04.75"/>
        <path class="cls-4" d="m77.41,397.55c-.18-1.39-.48-2.76-.91-4.09,2.09-.45,4.4,1.08,4.8,3.18-.7.29-1.48.2-2.23.21s-1.59.16-2.04.75"/>
        <path class="cls-4" d="m43.67,374.98c-.18-1.39-.48-2.76-.91-4.09,2.09-.45,4.4,1.08,4.8,3.18-.7.29-1.48.2-2.23.21s-1.59.16-2.04.75"/>
        <path class="cls-4" d="m49.39,380.71c-.18-1.39-.48-2.76-.91-4.09,2.09-.45,4.4,1.08,4.8,3.18-.7.29-1.48.2-2.23.21s-1.59.16-2.04.75"/>
        <path class="cls-4" d="m55.38,386.7c-.18-1.39-.48-2.76-.91-4.09,2.09-.45,4.4,1.08,4.8,3.18-.7.29-1.48.2-2.23.21s-1.59.16-2.04.75"/>
        <path class="cls-4" d="m61.1,392.43c-.18-1.39-.48-2.76-.91-4.09,2.09-.45,4.4,1.08,4.8,3.18-.7.29-1.48.2-2.23.21s-1.59.16-2.04.75"/>
        <path class="cls-4" d="m67.09,398.42c-.18-1.39-.48-2.76-.91-4.09,2.09-.45,4.4,1.08,4.8,3.18-.7.29-1.48.2-2.23.21s-1.59.16-2.04.75"/>
        <path class="cls-4" d="m72.81,404.15c-.18-1.39-.48-2.76-.91-4.09,2.09-.45,4.4,1.08,4.8,3.18-.7.29-1.48.2-2.23.21s-1.59.16-2.04.75"/>
        <path class="cls-4" d="m78.8,410.14c-.18-1.39-.48-2.76-.91-4.09,2.09-.45,4.4,1.08,4.8,3.18-.7.29-1.48.2-2.23.21s-1.59.16-2.04.75"/>
        <path class="cls-4" d="m83.36,403.5c-.18-1.39-.48-2.76-.91-4.09,2.09-.45,4.4,1.08,4.8,3.18-.7.29-1.48.2-2.23.21s-1.59.16-2.04.75"/>
        <path class="cls-4" d="m84.52,415.86c-.18-1.39-.48-2.76-.91-4.09,2.09-.45,4.4,1.08,4.8,3.18-.7.29-1.48.2-2.23.21s-1.59.16-2.04.75"/>
        <path class="cls-4" d="m25.84,357.15c-.18-1.39-.48-2.76-.91-4.09,2.09-.45,4.4,1.08,4.8,3.18-.7.29-1.48.2-2.23.21s-1.59.16-2.04.75"/>
        <path class="cls-4" d="m31.82,363.14c-.18-1.39-.48-2.76-.91-4.09,2.09-.45,4.4,1.08,4.8,3.18-.7.29-1.48.2-2.23.21s-1.59.16-2.04.75"/>
        <path class="cls-4" d="m37.55,368.86c-.18-1.39-.48-2.76-.91-4.09,2.09-.45,4.4,1.08,4.8,3.18-.7.29-1.48.2-2.23.21s-1.59.16-2.04.75"/>
        <path class="cls-4" d="m19.85,363.39c-.18-1.39-.48-2.76-.91-4.09,2.09-.45,4.4,1.08,4.8,3.18-.7.29-1.48.2-2.23.21s-1.59.16-2.04.75"/>
        <path class="cls-4" d="m25.58,369.12c-.18-1.39-.48-2.76-.91-4.09,2.09-.45,4.4,1.08,4.8,3.18-.7.29-1.48.2-2.23.21s-1.59.16-2.04.75"/>
        <path class="cls-4" d="m31.56,375.11c-.18-1.39-.48-2.76-.91-4.09,2.09-.45,4.4,1.08,4.8,3.18-.7.29-1.48.2-2.23.21s-1.59.16-2.04.75"/>
        <path class="cls-4" d="m37.29,380.84c-.18-1.39-.48-2.76-.91-4.09,2.09-.45,4.4,1.08,4.8,3.18-.7.29-1.48.2-2.23.21s-1.59.16-2.04.75"/>
        <path class="cls-4" d="m43.27,386.83c-.18-1.39-.48-2.76-.91-4.09,2.09-.45,4.4,1.08,4.8,3.18-.7.29-1.48.2-2.23.21s-1.59.16-2.04.75"/>
        <path class="cls-4" d="m49,392.56c-.18-1.39-.48-2.76-.91-4.09,2.09-.45,4.4,1.08,4.8,3.18-.7.29-1.48.2-2.23.21s-1.59.16-2.04.75"/>
        <path class="cls-4" d="m54.98,398.55c-.18-1.39-.48-2.76-.91-4.09,2.09-.45,4.4,1.08,4.8,3.18-.7.29-1.48.2-2.23.21s-1.59.16-2.04.75"/>
        <path class="cls-4" d="m60.71,404.27c-.18-1.39-.48-2.76-.91-4.09,2.09-.45,4.4,1.08,4.8,3.18-.7.29-1.48.2-2.23.21s-1.59.16-2.04.75"/>
        <path class="cls-4" d="m89.6,409.75c-.18-1.39-.48-2.76-.91-4.09,2.09-.45,4.4,1.08,4.8,3.18-.7.29-1.48.2-2.23.21s-1.59.16-2.04.75"/>
        <path class="cls-4" d="m66.65,410.22c-.18-1.39-.48-2.76-.91-4.09,2.09-.45,4.4,1.08,4.8,3.18-.7.29-1.48.2-2.23.21s-1.59.16-2.04.75"/>
        <path class="cls-4" d="m72.64,416.21c-.18-1.39-.48-2.76-.91-4.09,2.09-.45,4.4,1.08,4.8,3.18-.7.29-1.48.2-2.23.21s-1.59.16-2.04.75"/>
        <path class="cls-4" d="m78.36,421.94c-.18-1.39-.48-2.76-.91-4.09,2.09-.45,4.4,1.08,4.8,3.18-.7.29-1.48.2-2.23.21s-1.59.16-2.04.75"/>
        <path class="cls-4" d="m25.84,379.41c1.16-.12,2.67,1.2,3.87,2.37,11.18,10.96,22.25,22.05,33.19,33.26-1.21.32-3.01-1.01-4.44-2.23-6.2-5.26-12.24-10.76-18.09-16.47-5.26-5.14-9.78-11.31-14.52-16.93Z"/>
        <path class="cls-5" d="m100.11,335.3c-.28,2.23.99,4.57,3.01,5.56,1.26.61,2.75.74,3.85,1.61.73.58,1.2,1.42,1.74,2.18,2.75,3.84,7.63,5.67,10.47,9.43.7.93,1.27,1.96,2.07,2.81s1.91,1.51,3.07,1.4"/>
        <path class="cls-5" d="m94.08,340.82c.27,3.03,2.64,5.77,5.61,6.46.89.21,1.85.26,2.59.79.37.27.66.64.94,1,1.36,1.77,2.73,3.55,4.09,5.32,2.53,3.29,5.06,6.58,7.59,9.87"/>
        <path class="cls-5" d="m89.25,346.39l1.1.92c3.97,3.32,7.94,6.63,11.66,10.22.94.91,1.87,1.84,2.78,2.78,1.05,1.09,2.08,2.2,3.11,3.31"/>
        <path class="cls-5" d="m83.89,349.96c4.02,5.43,8.7,10.36,13.91,14.67,1.11.92,2.25,1.81,3.17,2.92.92,1.1,1.59,2.41,1.97,3.79"/>
        <path class="cls-5" d="m77.51,354.51c.76,3.17,3.5,5.41,6.04,7.47,5.48,4.43,10.77,9.09,15.85,13.97"/>
      </g>
      <g>
        <path class="cls-2" d="m275.02,245.66c-.11-.71-.2-1.44-.06-2.14.6-2.96,4.5-3.5,7.5-3.74,12.23-.97,23.77-8.39,29.71-19.13,6.88,8.14,10.49,18.66,11.74,29.24s.31,21.3-1.04,31.87c-.3,2.33-.64,4.74-1.83,6.77-1.37,2.33-3.71,3.92-6.1,5.19-8.23,4.41-19.89,7.02-28.93,4.02.56-19.13-8.22-33.39-11-52.09Z"/>
        <path class="cls-3" d="m266.21,316.15c1.69-8.91,5.62-17.69,12.51-23.59,6.74-5.76,15.59-8.26,23.44-12.38,7.1-3.73,13.61-8.9,21.39-10.83,9.03-2.24,18.86.31,26.44,5.71,7.57,5.4,13.02,13.41,16.5,22.04,1.63,4.03,2.76,8.92.26,12.47-1.53,2.17-4.09,3.32-6.53,4.38-27.23,11.78-54.47,23.56-81.7,35.34-3.16,1.37-6.63,2.76-9.94,1.83-7.99-2.23-3.55-28.82-2.38-34.98Z"/>
        <path class="cls-3" d="m291.71,288.12c12.5-5.36,25-10.71,37.5-16.07,3.22-1.38,6.82-2.99,8.66-4.76-2.49-1.12-8.39.03-14.04,1.98s-11.25,4.6-16.86,7.03c-8.84,3.84-24.51,9.72-31.54,15-8.27,6.21,11.23-1.03,16.28-3.19Z"/>
        <path class="cls-4" d="m282.82,305.63c-1.36-.34-2.74-.56-4.14-.65.35-2.11,2.61-3.7,4.72-3.3.01.75-.35,1.45-.62,2.15s-.43,1.53-.05,2.18"/>
        <path class="cls-4" d="m290.24,302.39c-1.36-.34-2.74-.56-4.14-.65.35-2.11,2.61-3.7,4.72-3.3.01.75-.35,1.45-.62,2.15s-.43,1.53-.05,2.18"/>
        <path class="cls-4" d="m298.01,299.01c-1.36-.34-2.74-.56-4.14-.65.35-2.11,2.61-3.7,4.72-3.3.01.75-.35,1.45-.62,2.15s-.43,1.53-.05,2.18"/>
        <path class="cls-4" d="m305.43,295.78c-1.36-.34-2.74-.56-4.14-.65.35-2.11,2.61-3.7,4.72-3.3.01.75-.35,1.45-.62,2.15s-.43,1.53-.05,2.18"/>
        <path class="cls-4" d="m313.2,292.4c-1.36-.34-2.74-.56-4.14-.65.35-2.11,2.61-3.7,4.72-3.3.01.75-.35,1.45-.62,2.15s-.43,1.53-.05,2.18"/>
        <path class="cls-4" d="m320.62,289.16c-1.36-.34-2.74-.56-4.14-.65.35-2.11,2.61-3.7,4.72-3.3.01.75-.35,1.45-.62,2.15s-.43,1.53-.05,2.18"/>
        <path class="cls-4" d="m328.38,285.78c-1.36-.34-2.74-.56-4.14-.65.35-2.11,2.61-3.7,4.72-3.3.01.75-.35,1.45-.62,2.15s-.43,1.53-.05,2.18"/>
        <path class="cls-4" d="m335.81,282.55c-1.36-.34-2.74-.56-4.14-.65.35-2.11,2.61-3.7,4.72-3.3.01.75-.35,1.45-.62,2.15s-.43,1.53-.05,2.18"/>
        <path class="cls-4" d="m277.26,316.68c-1.36-.34-2.74-.56-4.14-.65.35-2.11,2.61-3.7,4.72-3.3.01.75-.35,1.45-.62,2.15s-.43,1.53-.05,2.18"/>
        <path class="cls-4" d="m284.68,313.45c-1.36-.34-2.74-.56-4.14-.65.35-2.11,2.61-3.7,4.72-3.3.01.75-.35,1.45-.62,2.15s-.43,1.53-.05,2.18"/>
        <path class="cls-4" d="m292.45,310.07c-1.36-.34-2.74-.56-4.14-.65.35-2.11,2.61-3.7,4.72-3.3.01.75-.35,1.45-.62,2.15s-.43,1.53-.05,2.18"/>
        <path class="cls-4" d="m299.87,306.83c-1.36-.34-2.74-.56-4.14-.65.35-2.11,2.61-3.7,4.72-3.3.01.75-.35,1.45-.62,2.15s-.43,1.53-.05,2.18"/>
        <path class="cls-4" d="m307.64,303.45c-1.36-.34-2.74-.56-4.14-.65.35-2.11,2.61-3.7,4.72-3.3.01.75-.35,1.45-.62,2.15s-.43,1.53-.05,2.18"/>
        <path class="cls-4" d="m315.06,300.22c-1.36-.34-2.74-.56-4.14-.65.35-2.11,2.61-3.7,4.72-3.3.01.75-.35,1.45-.62,2.15s-.43,1.53-.05,2.18"/>
        <path class="cls-4" d="m322.82,296.84c-1.36-.34-2.74-.56-4.14-.65.35-2.11,2.61-3.7,4.72-3.3.01.75-.35,1.45-.62,2.15s-.43,1.53-.05,2.18"/>
        <path class="cls-4" d="m330.25,293.6c-1.36-.34-2.74-.56-4.14-.65.35-2.11,2.61-3.7,4.72-3.3.01.75-.35,1.45-.62,2.15s-.43,1.53-.05,2.18"/>
        <path class="cls-4" d="m296.9,316.76c-1.36-.34-2.74-.56-4.14-.65.35-2.11,2.61-3.7,4.72-3.3.01.75-.35,1.45-.62,2.15s-.43,1.53-.05,2.18"/>
        <path class="cls-4" d="m304.33,313.52c-1.36-.34-2.74-.56-4.14-.65.35-2.11,2.61-3.7,4.72-3.3.01.75-.35,1.45-.62,2.15s-.43,1.53-.05,2.18"/>
        <path class="cls-4" d="m312.09,310.14c-1.36-.34-2.74-.56-4.14-.65.35-2.11,2.61-3.7,4.72-3.3.01.75-.35,1.45-.62,2.15s-.43,1.53-.05,2.18"/>
        <path class="cls-4" d="m319.52,306.91c-1.36-.34-2.74-.56-4.14-.65.35-2.11,2.61-3.7,4.72-3.3.01.75-.35,1.45-.62,2.15s-.43,1.53-.05,2.18"/>
        <path class="cls-4" d="m327.28,303.53c-1.36-.34-2.74-.56-4.14-.65.35-2.11,2.61-3.7,4.72-3.3.01.75-.35,1.45-.62,2.15s-.43,1.53-.05,2.18"/>
        <path class="cls-4" d="m334.7,300.3c-1.36-.34-2.74-.56-4.14-.65.35-2.11,2.61-3.7,4.72-3.3.01.75-.35,1.45-.62,2.15s-.43,1.53-.05,2.18"/>
        <path class="cls-4" d="m342.47,296.91c-1.36-.34-2.74-.56-4.14-.65.35-2.11,2.61-3.7,4.72-3.3.01.75-.35,1.45-.62,2.15s-.43,1.53-.05,2.18"/>
        <path class="cls-4" d="m337.96,290.25c-1.36-.34-2.74-.56-4.14-.65.35-2.11,2.61-3.7,4.72-3.3.01.75-.35,1.45-.62,2.15s-.43,1.53-.05,2.18"/>
        <path class="cls-4" d="m349.89,293.68c-1.36-.34-2.74-.56-4.14-.65.35-2.11,2.61-3.7,4.72-3.3.01.75-.35,1.45-.62,2.15s-.43,1.53-.05,2.18"/>
        <path class="cls-4" d="m273.78,326.83c-1.36-.34-2.74-.56-4.14-.65.35-2.11,2.61-3.7,4.72-3.3.01.75-.35,1.45-.62,2.15s-.43,1.53-.05,2.18"/>
        <path class="cls-4" d="m281.55,323.45c-1.36-.34-2.74-.56-4.14-.65.35-2.11,2.61-3.7,4.72-3.3.01.75-.35,1.45-.62,2.15s-.43,1.53-.05,2.18"/>
        <path class="cls-4" d="m288.97,320.21c-1.36-.34-2.74-.56-4.14-.65.35-2.11,2.61-3.7,4.72-3.3.01.75-.35,1.45-.62,2.15s-.43,1.53-.05,2.18"/>
        <path class="cls-4" d="m277.41,334.69c-1.36-.34-2.74-.56-4.14-.65.35-2.11,2.61-3.7,4.72-3.3.01.75-.35,1.45-.62,2.15s-.43,1.53-.05,2.18"/>
        <path class="cls-4" d="m284.83,331.45c-1.36-.34-2.74-.56-4.14-.65.35-2.11,2.61-3.7,4.72-3.3.01.75-.35,1.45-.62,2.15s-.43,1.53-.05,2.18"/>
        <path class="cls-4" d="m292.59,328.07c-1.36-.34-2.74-.56-4.14-.65.35-2.11,2.61-3.7,4.72-3.3.01.75-.35,1.45-.62,2.15s-.43,1.53-.05,2.18"/>
        <path class="cls-4" d="m300.02,324.84c-1.36-.34-2.74-.56-4.14-.65.35-2.11,2.61-3.7,4.72-3.3.01.75-.35,1.45-.62,2.15s-.43,1.53-.05,2.18"/>
        <path class="cls-4" d="m307.78,321.46c-1.36-.34-2.74-.56-4.14-.65.35-2.11,2.61-3.7,4.72-3.3.01.75-.35,1.45-.62,2.15s-.43,1.53-.05,2.18"/>
        <path class="cls-4" d="m315.21,318.22c-1.36-.34-2.74-.56-4.14-.65.35-2.11,2.61-3.7,4.72-3.3.01.75-.35,1.45-.62,2.15s-.43,1.53-.05,2.18"/>
        <path class="cls-4" d="m322.97,314.84c-1.36-.34-2.74-.56-4.14-.65.35-2.11,2.61-3.7,4.72-3.3.01.75-.35,1.45-.62,2.15s-.43,1.53-.05,2.18"/>
        <path class="cls-4" d="m330.4,311.61c-1.36-.34-2.74-.56-4.14-.65.35-2.11,2.61-3.7,4.72-3.3.01.75-.35,1.45-.62,2.15s-.43,1.53-.05,2.18"/>
        <path class="cls-4" d="m346.05,286.72c-1.36-.34-2.74-.56-4.14-.65.35-2.11,2.61-3.7,4.72-3.3.01.75-.35,1.45-.62,2.15s-.43,1.53-.05,2.18"/>
        <path class="cls-4" d="m338.1,308.25c-1.36-.34-2.74-.56-4.14-.65.35-2.11,2.61-3.7,4.72-3.3.01.75-.35,1.45-.62,2.15s-.43,1.53-.05,2.18"/>
        <path class="cls-4" d="m345.87,304.87c-1.36-.34-2.74-.56-4.14-.65.35-2.11,2.61-3.7,4.72-3.3.01.75-.35,1.45-.62,2.15s-.43,1.53-.05,2.18"/>
        <path class="cls-4" d="m353.29,301.64c-1.36-.34-2.74-.56-4.14-.65.35-2.11,2.61-3.7,4.72-3.3.01.75-.35,1.45-.62,2.15s-.43,1.53-.05,2.18"/>
        <path class="cls-4" d="m294.5,334.97c.31-1.12,2.09-2.05,3.62-2.73,14.3-6.4,28.66-12.64,43.09-18.73-.14,1.24-2.04,2.43-3.7,3.32-7.16,3.85-14.49,7.46-21.95,10.81-6.71,3.02-14.1,4.97-21.06,7.33Z"/>
        <path class="cls-5" d="m280.61,249.71c1.97,1.08,4.62.75,6.27-.77,1.03-.95,1.7-2.29,2.9-2.99.81-.47,1.76-.6,2.67-.82,4.57-1.15,8.07-5.03,12.61-6.3,1.12-.31,2.29-.46,3.37-.9s2.1-1.22,2.42-2.34"/>
        <path class="cls-5" d="m283.54,257.34c2.92.86,6.33-.35,8.06-2.86.52-.75.92-1.63,1.68-2.12.39-.25.83-.38,1.28-.51,2.15-.62,4.3-1.24,6.45-1.86,3.99-1.15,7.97-2.31,11.96-3.46"/>
        <path class="cls-5" d="m286.96,263.87l1.25-.69c4.54-2.48,9.08-4.96,13.78-7.12,1.19-.55,2.39-1.07,3.6-1.57,1.4-.58,2.81-1.13,4.22-1.69"/>
        <path class="cls-5" d="m288.32,270.16c6.52-1.76,12.83-4.31,18.74-7.58,1.26-.7,2.51-1.43,3.87-1.88,1.36-.45,2.82-.6,4.25-.45"/>
        <path class="cls-5" d="m290.22,277.77c3.23.45,6.32-1.28,9.16-2.89,6.13-3.48,12.4-6.7,18.8-9.65"/>
      </g>
      <g>
        <path class="cls-2" d="m1,109.86c-.26-.47-.51-.95-.6-1.47-.35-2.21,2.23-3.6,4.26-4.54,8.26-3.83,14.37-11.98,15.74-20.99,6.89,3.88,12.12,10.28,15.73,17.32,3.61,7.04,5.72,14.74,7.51,22.45.4,1.7.78,3.46.47,5.18-.35,1.98-1.57,3.69-2.9,5.19-4.59,5.2-12.03,10.03-19.1,10.28-4.55-13.46-14.34-21.12-21.11-33.42Z"/>
        <path class="cls-3" d="m13.08,161.19c-1.12-6.64-.66-13.76,2.62-19.65,3.2-5.75,8.72-9.78,13.11-14.67,3.98-4.43,7.17-9.71,12.09-13.06,5.7-3.89,13.21-4.65,19.88-2.85,6.67,1.8,12.53,5.97,17.18,11.07,2.17,2.38,4.23,5.5,3.4,8.61-.5,1.91-1.99,3.37-3.41,4.73-15.91,15.23-31.82,30.47-47.73,45.7-1.84,1.77-3.9,3.63-6.44,3.84-6.14.51-9.91-19.14-10.69-23.73Z"/>
        <path class="cls-3" d="m23.58,135.1c7.32-6.96,14.63-13.91,21.95-20.87,1.88-1.79,3.97-3.84,4.8-5.55-2.02-.14-5.83,2.19-9.26,5.01-3.43,2.82-6.64,6.11-9.92,9.25-5.16,4.95-14.55,13.1-18.08,18.59-4.15,6.46,7.55-3.62,10.5-6.43Z"/>
        <path class="cls-4" d="m21.92,149.58c-1.03.11-2.05.32-3.05.62-.3-1.56.86-3.25,2.43-3.52.2.52.13,1.1.12,1.66s.09,1.18.53,1.53"/>
        <path class="cls-4" d="m26.25,145.41c-1.03.11-2.05.32-3.05.62-.3-1.56.86-3.25,2.43-3.52.2.52.13,1.1.12,1.66s.09,1.18.53,1.53"/>
        <path class="cls-4" d="m30.78,141.06c-1.03.11-2.05.32-3.05.62-.3-1.56.86-3.25,2.43-3.52.2.52.13,1.1.12,1.66s.09,1.18.53,1.53"/>
        <path class="cls-4" d="m35.12,136.89c-1.03.11-2.05.32-3.05.62-.3-1.56.86-3.25,2.43-3.52.2.52.13,1.1.12,1.66s.09,1.18.53,1.53"/>
        <path class="cls-4" d="m39.65,132.53c-1.03.11-2.05.32-3.05.62-.3-1.56.86-3.25,2.43-3.52.2.52.13,1.1.12,1.66s.09,1.18.53,1.53"/>
        <path class="cls-4" d="m43.98,128.36c-1.03.11-2.05.32-3.05.62-.3-1.56.86-3.25,2.43-3.52.2.52.13,1.1.12,1.66s.09,1.18.53,1.53"/>
        <path class="cls-4" d="m48.51,124c-1.03.11-2.05.32-3.05.62-.3-1.56.86-3.25,2.43-3.52.2.52.13,1.1.12,1.66s.09,1.18.53,1.53"/>
        <path class="cls-4" d="m52.84,119.83c-1.03.11-2.05.32-3.05.62-.3-1.56.86-3.25,2.43-3.52.2.52.13,1.1.12,1.66s.09,1.18.53,1.53"/>
        <path class="cls-4" d="m20.91,158.71c-1.03.11-2.05.32-3.05.62-.3-1.56.86-3.25,2.43-3.52.2.52.13,1.1.12,1.66s.09,1.18.53,1.53"/>
        <path class="cls-4" d="m25.24,154.54c-1.03.11-2.05.32-3.05.62-.3-1.56.86-3.25,2.43-3.52.2.52.13,1.1.12,1.66s.09,1.18.53,1.53"/>
        <path class="cls-4" d="m29.77,150.19c-1.03.11-2.05.32-3.05.62-.3-1.56.86-3.25,2.43-3.52.2.52.13,1.1.12,1.66s.09,1.18.53,1.53"/>
        <path class="cls-4" d="m34.1,146.02c-1.03.11-2.05.32-3.05.62-.3-1.56.86-3.25,2.43-3.52.2.52.13,1.1.12,1.66s.09,1.18.53,1.53"/>
        <path class="cls-4" d="m38.63,141.66c-1.03.11-2.05.32-3.05.62-.3-1.56.86-3.25,2.43-3.52.2.52.13,1.1.12,1.66s.09,1.18.53,1.53"/>
        <path class="cls-4" d="m42.96,137.49c-1.03.11-2.05.32-3.05.62-.3-1.56.86-3.25,2.43-3.52.2.52.13,1.1.12,1.66s.09,1.18.53,1.53"/>
        <path class="cls-4" d="m47.49,133.13c-1.03.11-2.05.32-3.05.62-.3-1.56.86-3.25,2.43-3.52.2.52.13,1.1.12,1.66s.09,1.18.53,1.53"/>
        <path class="cls-4" d="m51.83,128.96c-1.03.11-2.05.32-3.05.62-.3-1.56.86-3.25,2.43-3.52.2.52.13,1.1.12,1.66s.09,1.18.53,1.53"/>
        <path class="cls-4" d="m34.6,153.69c-1.03.11-2.05.32-3.05.62-.3-1.56.86-3.25,2.43-3.52.2.52.13,1.1.12,1.66s.09,1.18.53,1.53"/>
        <path class="cls-4" d="m38.93,149.52c-1.03.11-2.05.32-3.05.62-.3-1.56.86-3.25,2.43-3.52.2.52.13,1.1.12,1.66s.09,1.18.53,1.53"/>
        <path class="cls-4" d="m43.46,145.17c-1.03.11-2.05.32-3.05.62-.3-1.56.86-3.25,2.43-3.52.2.52.13,1.1.12,1.66s.09,1.18.53,1.53"/>
        <path class="cls-4" d="m47.79,141c-1.03.11-2.05.32-3.05.62-.3-1.56.86-3.25,2.43-3.52.2.52.13,1.1.12,1.66s.09,1.18.53,1.53"/>
        <path class="cls-4" d="m52.32,136.64c-1.03.11-2.05.32-3.05.62-.3-1.56.86-3.25,2.43-3.52.2.52.13,1.1.12,1.66s.09,1.18.53,1.53"/>
        <path class="cls-4" d="m56.66,132.47c-1.03.11-2.05.32-3.05.62-.3-1.56.86-3.25,2.43-3.52.2.52.13,1.1.12,1.66s.09,1.18.53,1.53"/>
        <path class="cls-4" d="m61.19,128.11c-1.03.11-2.05.32-3.05.62-.3-1.56.86-3.25,2.43-3.52.2.52.13,1.1.12,1.66s.09,1.18.53,1.53"/>
        <path class="cls-4" d="m56.32,124.63c-1.03.11-2.05.32-3.05.62-.3-1.56.86-3.25,2.43-3.52.2.52.13,1.1.12,1.66s.09,1.18.53,1.53"/>
        <path class="cls-4" d="m65.52,123.94c-1.03.11-2.05.32-3.05.62-.3-1.56.86-3.25,2.43-3.52.2.52.13,1.1.12,1.66s.09,1.18.53,1.53"/>
        <path class="cls-4" d="m21.11,166.67c-1.03.11-2.05.32-3.05.62-.3-1.56.86-3.25,2.43-3.52.2.52.13,1.1.12,1.66s.09,1.18.53,1.53"/>
        <path class="cls-4" d="m25.64,162.32c-1.03.11-2.05.32-3.05.62-.3-1.56.86-3.25,2.43-3.52.2.52.13,1.1.12,1.66s.09,1.18.53,1.53"/>
        <path class="cls-4" d="m29.97,158.15c-1.03.11-2.05.32-3.05.62-.3-1.56.86-3.25,2.43-3.52.2.52.13,1.1.12,1.66s.09,1.18.53,1.53"/>
        <path class="cls-4" d="m25.66,171.21c-1.03.11-2.05.32-3.05.62-.3-1.56.86-3.25,2.43-3.52.2.52.13,1.1.12,1.66s.09,1.18.53,1.53"/>
        <path class="cls-4" d="m29.99,167.04c-1.03.11-2.05.32-3.05.62-.3-1.56.86-3.25,2.43-3.52.2.52.13,1.1.12,1.66s.09,1.18.53,1.53"/>
        <path class="cls-4" d="m34.52,162.68c-1.03.11-2.05.32-3.05.62-.3-1.56.86-3.25,2.43-3.52.2.52.13,1.1.12,1.66s.09,1.18.53,1.53"/>
        <path class="cls-4" d="m38.86,158.51c-1.03.11-2.05.32-3.05.62-.3-1.56.86-3.25,2.43-3.52.2.52.13,1.1.12,1.66s.09,1.18.53,1.53"/>
        <path class="cls-4" d="m43.38,154.15c-1.03.11-2.05.32-3.05.62-.3-1.56.86-3.25,2.43-3.52.2.52.13,1.1.12,1.66s.09,1.18.53,1.53"/>
        <path class="cls-4" d="m47.72,149.98c-1.03.11-2.05.32-3.05.62-.3-1.56.86-3.25,2.43-3.52.2.52.13,1.1.12,1.66s.09,1.18.53,1.53"/>
        <path class="cls-4" d="m52.25,145.62c-1.03.11-2.05.32-3.05.62-.3-1.56.86-3.25,2.43-3.52.2.52.13,1.1.12,1.66s.09,1.18.53,1.53"/>
        <path class="cls-4" d="m56.58,141.46c-1.03.11-2.05.32-3.05.62-.3-1.56.86-3.25,2.43-3.52.2.52.13,1.1.12,1.66s.09,1.18.53,1.53"/>
        <path class="cls-4" d="m61.05,120.09c-1.03.11-2.05.32-3.05.62-.3-1.56.86-3.25,2.43-3.52.2.52.13,1.1.12,1.66s.09,1.18.53,1.53"/>
        <path class="cls-4" d="m61.08,137.13c-1.03.11-2.05.32-3.05.62-.3-1.56.86-3.25,2.43-3.52.2.52.13,1.1.12,1.66s.09,1.18.53,1.53"/>
        <path class="cls-4" d="m65.61,132.77c-1.03.11-2.05.32-3.05.62-.3-1.56.86-3.25,2.43-3.52.2.52.13,1.1.12,1.66s.09,1.18.53,1.53"/>
        <path class="cls-4" d="m69.94,128.6c-1.03.11-2.05.32-3.05.62-.3-1.56.86-3.25,2.43-3.52.2.52.13,1.1.12,1.66s.09,1.18.53,1.53"/>
        <path class="cls-4" d="m37.63,166.99c-.07-.86.93-1.97,1.81-2.84,8.3-8.15,16.68-16.21,25.15-24.17.22.9-.79,2.22-1.72,3.27-3.99,4.53-8.16,8.94-12.48,13.19-3.89,3.83-8.53,7.1-12.77,10.54Z"/>
        <path class="cls-5" d="m5.94,111.24c1.65.24,3.41-.67,4.17-2.16.47-.92.59-2.03,1.25-2.83.44-.54,1.07-.87,1.64-1.26,2.89-1.99,4.32-5.58,7.15-7.64.7-.51,1.47-.92,2.11-1.5s1.15-1.39,1.08-2.26"/>
        <path class="cls-5" d="m9.95,115.79c2.26-.16,4.32-1.88,4.87-4.07.17-.66.22-1.37.62-1.91.2-.27.48-.48.76-.68,1.33-.99,2.67-1.97,4-2.96,2.48-1.83,4.95-3.66,7.43-5.5"/>
        <path class="cls-5" d="m14.02,119.45l.7-.8c2.52-2.9,5.04-5.8,7.75-8.51.69-.69,1.39-1.36,2.1-2.03.82-.77,1.66-1.52,2.5-2.26"/>
        <path class="cls-5" d="m16.59,123.48c4.08-2.91,7.81-6.31,11.08-10.12.7-.81,1.38-1.64,2.21-2.31.83-.66,1.81-1.15,2.84-1.41"/>
        <path class="cls-5" d="m19.88,128.29c2.37-.52,4.07-2.52,5.63-4.38,3.36-4.01,6.9-7.87,10.59-11.57"/>
      </g>
      <g>
        <path class="cls-2" d="m363.09,27.23c.03-.53.06-1.08.27-1.57.87-2.07,3.78-1.89,6.01-1.62,9.04,1.08,18.53-2.63,24.42-9.57,3.82,6.93,4.9,15.12,4.27,23-.63,7.89-2.89,15.55-5.42,23.04-.56,1.66-1.16,3.35-2.32,4.66-1.34,1.5-3.28,2.31-5.2,2.89-6.64,2-15.5,2.2-21.65-1.31,3.21-13.84-1.09-25.51-.38-39.52Z"/>
        <path class="cls-3" d="m346.37,77.24c2.54-6.24,6.68-12.05,12.56-15.34,5.75-3.21,12.56-3.73,18.87-5.58,5.71-1.67,11.2-4.48,17.15-4.75,6.9-.31,13.68,2.99,18.4,8.03,4.72,5.04,7.52,11.67,8.79,18.45.59,3.17.7,6.9-1.64,9.12-1.43,1.36-3.46,1.82-5.39,2.23-21.55,4.59-43.09,9.18-64.64,13.77-2.5.53-5.23,1.04-7.5-.12-5.49-2.79,1.63-21.49,3.39-25.81Z"/>
        <path class="cls-3" d="m369.02,60.57c9.88-2.07,19.76-4.14,29.65-6.21,2.54-.53,5.4-1.18,7-2.2-1.65-1.18-6.11-1.2-10.51-.61-4.4.59-8.86,1.7-13.3,2.65-7,1.5-19.26,3.49-25.15,6.3-6.93,3.31,8.32.89,12.31.06Z"/>
        <path class="cls-4" d="m359.99,72.01c-.94-.45-1.92-.81-2.92-1.08.56-1.49,2.44-2.31,3.92-1.71-.1.55-.47,1-.77,1.48s-.54,1.05-.35,1.58"/>
        <path class="cls-4" d="m365.87,70.74c-.94-.45-1.92-.81-2.92-1.08.56-1.49,2.44-2.31,3.92-1.71-.1.55-.47,1-.77,1.48s-.54,1.05-.35,1.58"/>
        <path class="cls-4" d="m372.01,69.42c-.94-.45-1.92-.81-2.92-1.08.56-1.49,2.44-2.31,3.92-1.71-.1.55-.47,1-.77,1.48s-.54,1.05-.35,1.58"/>
        <path class="cls-4" d="m377.89,68.15c-.94-.45-1.92-.81-2.92-1.08.56-1.49,2.44-2.31,3.92-1.71-.1.55-.47,1-.77,1.48s-.54,1.05-.35,1.58"/>
        <path class="cls-4" d="m384.03,66.83c-.94-.45-1.92-.81-2.92-1.08.56-1.49,2.44-2.31,3.92-1.71-.1.55-.47,1-.77,1.48s-.54,1.05-.35,1.58"/>
        <path class="cls-4" d="m389.91,65.56c-.94-.45-1.92-.81-2.92-1.08.56-1.49,2.44-2.31,3.92-1.71-.1.55-.47,1-.77,1.48s-.54,1.05-.35,1.58"/>
        <path class="cls-4" d="m396.06,64.23c-.94-.45-1.92-.81-2.92-1.08.56-1.49,2.44-2.31,3.92-1.71-.1.55-.47,1-.77,1.48s-.54,1.05-.35,1.58"/>
        <path class="cls-4" d="m401.93,62.97c-.94-.45-1.92-.81-2.92-1.08.56-1.49,2.44-2.31,3.92-1.71-.1.55-.47,1-.77,1.48s-.54,1.05-.35,1.58"/>
        <path class="cls-4" d="m354.33,79.24c-.94-.45-1.92-.81-2.92-1.08.56-1.49,2.44-2.31,3.92-1.71-.1.55-.47,1-.77,1.48s-.54,1.05-.35,1.58"/>
        <path class="cls-4" d="m360.2,77.98c-.94-.45-1.92-.81-2.92-1.08.56-1.49,2.44-2.31,3.92-1.71-.1.55-.47,1-.77,1.48s-.54,1.05-.35,1.58"/>
        <path class="cls-4" d="m366.35,76.65c-.94-.45-1.92-.81-2.92-1.08.56-1.49,2.44-2.31,3.92-1.71-.1.55-.47,1-.77,1.48s-.54,1.05-.35,1.58"/>
        <path class="cls-4" d="m372.23,75.38c-.94-.45-1.92-.81-2.92-1.08.56-1.49,2.44-2.31,3.92-1.71-.1.55-.47,1-.77,1.48s-.54,1.05-.35,1.58"/>
        <path class="cls-4" d="m378.37,74.06c-.94-.45-1.92-.81-2.92-1.08.56-1.49,2.44-2.31,3.92-1.71-.1.55-.47,1-.77,1.48s-.54,1.05-.35,1.58"/>
        <path class="cls-4" d="m384.25,72.79c-.94-.45-1.92-.81-2.92-1.08.56-1.49,2.44-2.31,3.92-1.71-.1.55-.47,1-.77,1.48s-.54,1.05-.35,1.58"/>
        <path class="cls-4" d="m390.39,71.47c-.94-.45-1.92-.81-2.92-1.08.56-1.49,2.44-2.31,3.92-1.71-.1.55-.47,1-.77,1.48s-.54,1.05-.35,1.58"/>
        <path class="cls-4" d="m396.27,70.2c-.94-.45-1.92-.81-2.92-1.08.56-1.49,2.44-2.31,3.92-1.71-.1.55-.47,1-.77,1.48s-.54,1.05-.35,1.58"/>
        <path class="cls-4" d="m368.61,82.17c-.94-.45-1.92-.81-2.92-1.08.56-1.49,2.44-2.31,3.92-1.71-.1.55-.47,1-.77,1.48s-.54,1.05-.35,1.58"/>
        <path class="cls-4" d="m374.49,80.91c-.94-.45-1.92-.81-2.92-1.08.56-1.49,2.44-2.31,3.92-1.71-.1.55-.47,1-.77,1.48s-.54,1.05-.35,1.58"/>
        <path class="cls-4" d="m380.63,79.58c-.94-.45-1.92-.81-2.92-1.08.56-1.49,2.44-2.31,3.92-1.71-.1.55-.47,1-.77,1.48s-.54,1.05-.35,1.58"/>
        <path class="cls-4" d="m386.51,78.31c-.94-.45-1.92-.81-2.92-1.08.56-1.49,2.44-2.31,3.92-1.71-.1.55-.47,1-.77,1.48s-.54,1.05-.35,1.58"/>
        <path class="cls-4" d="m392.66,76.99c-.94-.45-1.92-.81-2.92-1.08.56-1.49,2.44-2.31,3.92-1.71-.1.55-.47,1-.77,1.48s-.54,1.05-.35,1.58"/>
        <path class="cls-4" d="m398.53,75.72c-.94-.45-1.92-.81-2.92-1.08.56-1.49,2.44-2.31,3.92-1.71-.1.55-.47,1-.77,1.48s-.54,1.05-.35,1.58"/>
        <path class="cls-4" d="m404.68,74.4c-.94-.45-1.92-.81-2.92-1.08.56-1.49,2.44-2.31,3.92-1.71-.1.55-.47,1-.77,1.48s-.54,1.05-.35,1.58"/>
        <path class="cls-4" d="m402.37,68.88c-.94-.45-1.92-.81-2.92-1.08.56-1.49,2.44-2.31,3.92-1.71-.1.55-.47,1-.77,1.48s-.54,1.05-.35,1.58"/>
        <path class="cls-4" d="m410.56,73.13c-.94-.45-1.92-.81-2.92-1.08.56-1.49,2.44-2.31,3.92-1.71-.1.55-.47,1-.77,1.48s-.54,1.05-.35,1.58"/>
        <path class="cls-4" d="m350.31,86.12c-.94-.45-1.92-.81-2.92-1.08.56-1.49,2.44-2.31,3.92-1.71-.1.55-.47,1-.77,1.48s-.54,1.05-.35,1.58"/>
        <path class="cls-4" d="m356.46,84.79c-.94-.45-1.92-.81-2.92-1.08.56-1.49,2.44-2.31,3.92-1.71-.1.55-.47,1-.77,1.48s-.54,1.05-.35,1.58"/>
        <path class="cls-4" d="m362.33,83.53c-.94-.45-1.92-.81-2.92-1.08.56-1.49,2.44-2.31,3.92-1.71-.1.55-.47,1-.77,1.48s-.54,1.05-.35,1.58"/>
        <path class="cls-4" d="m351.8,92.37c-.94-.45-1.92-.81-2.92-1.08.56-1.49,2.44-2.31,3.92-1.71-.1.55-.47,1-.77,1.48s-.54,1.05-.35,1.58"/>
        <path class="cls-4" d="m357.68,91.1c-.94-.45-1.92-.81-2.92-1.08.56-1.49,2.44-2.31,3.92-1.71-.1.55-.47,1-.77,1.48s-.54,1.05-.35,1.58"/>
        <path class="cls-4" d="m363.82,89.78c-.94-.45-1.92-.81-2.92-1.08.56-1.49,2.44-2.31,3.92-1.71-.1.55-.47,1-.77,1.48s-.54,1.05-.35,1.58"/>
        <path class="cls-4" d="m369.7,88.51c-.94-.45-1.92-.81-2.92-1.08.56-1.49,2.44-2.31,3.92-1.71-.1.55-.47,1-.77,1.48s-.54,1.05-.35,1.58"/>
        <path class="cls-4" d="m375.84,87.19c-.94-.45-1.92-.81-2.92-1.08.56-1.49,2.44-2.31,3.92-1.71-.1.55-.47,1-.77,1.48s-.54,1.05-.35,1.58"/>
        <path class="cls-4" d="m381.72,85.92c-.94-.45-1.92-.81-2.92-1.08.56-1.49,2.44-2.31,3.92-1.71-.1.55-.47,1-.77,1.48s-.54,1.05-.35,1.58"/>
        <path class="cls-4" d="m387.86,84.59c-.94-.45-1.92-.81-2.92-1.08.56-1.49,2.44-2.31,3.92-1.71-.1.55-.47,1-.77,1.48s-.54,1.05-.35,1.58"/>
        <path class="cls-4" d="m393.74,83.33c-.94-.45-1.92-.81-2.92-1.08.56-1.49,2.44-2.31,3.92-1.71-.1.55-.47,1-.77,1.48s-.54,1.05-.35,1.58"/>
        <path class="cls-4" d="m408.78,67.5c-.94-.45-1.92-.81-2.92-1.08.56-1.49,2.44-2.31,3.92-1.71-.1.55-.47,1-.77,1.48s-.54,1.05-.35,1.58"/>
        <path class="cls-4" d="m399.84,82.01c-.94-.45-1.92-.81-2.92-1.08.56-1.49,2.44-2.31,3.92-1.71-.1.55-.47,1-.77,1.48s-.54,1.05-.35,1.58"/>
        <path class="cls-4" d="m405.99,80.69c-.94-.45-1.92-.81-2.92-1.08.56-1.49,2.44-2.31,3.92-1.71-.1.55-.47,1-.77,1.48s-.54,1.05-.35,1.58"/>
        <path class="cls-4" d="m411.87,79.42c-.94-.45-1.92-.81-2.92-1.08.56-1.49,2.44-2.31,3.92-1.71-.1.55-.47,1-.77,1.48s-.54,1.05-.35,1.58"/>
        <path class="cls-4" d="m364.2,95.07c.39-.77,1.82-1.19,3.03-1.46,11.34-2.57,22.71-5.01,34.11-7.33-.29.88-1.84,1.47-3.18,1.88-5.77,1.75-11.64,3.31-17.55,4.66-5.33,1.21-10.99,1.55-16.4,2.25Z"/>
        <path class="cls-5" d="m366.57,30.99c1.28,1.07,3.25,1.22,4.68.36.89-.54,1.57-1.42,2.55-1.75.66-.22,1.37-.18,2.06-.21,3.5-.17,6.61-2.48,10.1-2.74.86-.06,1.73,0,2.58-.16s1.71-.58,2.11-1.35"/>
        <path class="cls-5" d="m367.58,36.97c2,1.05,4.66.67,6.29-.9.49-.47.91-1.05,1.54-1.3.32-.13.66-.15,1-.18,1.65-.14,3.31-.28,4.96-.41,3.07-.26,6.14-.51,9.21-.77"/>
        <path class="cls-5" d="m369.11,42.23l1.01-.32c3.66-1.14,7.33-2.28,11.07-3.16.95-.22,1.9-.43,2.85-.62,1.1-.22,2.21-.41,3.32-.61"/>
        <path class="cls-5" d="m369.18,47.01c5-.33,9.97-1.26,14.75-2.78,1.02-.32,2.04-.67,3.1-.8,1.06-.13,2.14-.02,3.16.3"/>
        <path class="cls-5" d="m369.45,52.82c2.29.8,4.79,0,7.09-.77,4.97-1.64,10.01-3.06,15.09-4.27"/>
      </g>
      <g>
        <path class="cls-2" d="m560.21,203.52c-.12-.52-.23-1.05-.17-1.58.27-2.22,3.13-2.84,5.34-3.19,9-1.41,17.11-7.56,20.91-15.84,5.56,5.63,8.82,13.22,10.35,20.98,1.53,7.76,1.44,15.75,1.04,23.65-.09,1.74-.2,3.54-.97,5.11-.88,1.8-2.53,3.11-4.22,4.19-5.84,3.73-14.32,6.33-21.19,4.62-.67-14.19-7.98-24.25-11.1-37.94Z"/>
        <path class="cls-3" d="m557.7,256.2c.75-6.69,3.15-13.41,7.92-18.17,4.66-4.65,11.07-7,16.65-10.5,5.04-3.16,9.57-7.36,15.22-9.23,6.56-2.17,13.98-.84,19.89,2.73,5.91,3.57,10.4,9.19,13.47,15.37,1.43,2.89,2.55,6.45.9,9.22-1.01,1.69-2.84,2.69-4.58,3.61-19.49,10.27-38.98,20.53-58.47,30.8-2.26,1.19-4.75,2.42-7.25,1.92-6.04-1.19-4.26-21.13-3.75-25.76Z"/>
        <path class="cls-3" d="m574.97,234c8.95-4.67,17.9-9.35,26.85-14.02,2.3-1.2,4.88-2.6,6.14-4.01-1.9-.69-6.21.5-10.28,2.27s-8.07,4.04-12.08,6.16c-6.33,3.34-17.59,8.59-22.5,12.9-5.77,5.07,8.25-1.4,11.87-3.29Z"/>
        <path class="cls-4" d="m569.39,247.47c-1.02-.18-2.06-.26-3.1-.24.14-1.58,1.72-2.89,3.3-2.71.05.56-.18,1.09-.34,1.63s-.23,1.16.09,1.61"/>
        <path class="cls-4" d="m574.7,244.65c-1.02-.18-2.06-.26-3.1-.24.14-1.58,1.72-2.89,3.3-2.71.05.56-.18,1.09-.34,1.63s-.23,1.16.09,1.61"/>
        <path class="cls-4" d="m580.26,241.71c-1.02-.18-2.06-.26-3.1-.24.14-1.58,1.72-2.89,3.3-2.71.05.56-.18,1.09-.34,1.63s-.23,1.16.09,1.61"/>
        <path class="cls-4" d="m585.57,238.89c-1.02-.18-2.06-.26-3.1-.24.14-1.58,1.72-2.89,3.3-2.71.05.56-.18,1.09-.34,1.63s-.23,1.16.09,1.61"/>
        <path class="cls-4" d="m591.12,235.95c-1.02-.18-2.06-.26-3.1-.24.14-1.58,1.72-2.89,3.3-2.71.05.56-.18,1.09-.34,1.63s-.23,1.16.09,1.61"/>
        <path class="cls-4" d="m596.43,233.13c-1.02-.18-2.06-.26-3.1-.24.14-1.58,1.72-2.89,3.3-2.71.05.56-.18,1.09-.34,1.63s-.23,1.16.09,1.61"/>
        <path class="cls-4" d="m601.99,230.19c-1.02-.18-2.06-.26-3.1-.24.14-1.58,1.72-2.89,3.3-2.71.05.56-.18,1.09-.34,1.63s-.23,1.16.09,1.61"/>
        <path class="cls-4" d="m607.3,227.37c-1.02-.18-2.06-.26-3.1-.24.14-1.58,1.72-2.89,3.3-2.71.05.56-.18,1.09-.34,1.63s-.23,1.16.09,1.61"/>
        <path class="cls-4" d="m565.9,255.97c-1.02-.18-2.06-.26-3.1-.24.14-1.58,1.72-2.89,3.3-2.71.05.56-.18,1.09-.34,1.63s-.23,1.16.09,1.61"/>
        <path class="cls-4" d="m571.21,253.15c-1.02-.18-2.06-.26-3.1-.24.14-1.58,1.72-2.89,3.3-2.71.05.56-.18,1.09-.34,1.63s-.23,1.16.09,1.61"/>
        <path class="cls-4" d="m576.77,250.21c-1.02-.18-2.06-.26-3.1-.24.14-1.58,1.72-2.89,3.3-2.71.05.56-.18,1.09-.34,1.63s-.23,1.16.09,1.61"/>
        <path class="cls-4" d="m582.08,247.39c-1.02-.18-2.06-.26-3.1-.24.14-1.58,1.72-2.89,3.3-2.71.05.56-.18,1.09-.34,1.63s-.23,1.16.09,1.61"/>
        <path class="cls-4" d="m587.63,244.45c-1.02-.18-2.06-.26-3.1-.24.14-1.58,1.72-2.89,3.3-2.71.05.56-.18,1.09-.34,1.63s-.23,1.16.09,1.61"/>
        <path class="cls-4" d="m592.95,241.63c-1.02-.18-2.06-.26-3.1-.24.14-1.58,1.72-2.89,3.3-2.71.05.56-.18,1.09-.34,1.63s-.23,1.16.09,1.61"/>
        <path class="cls-4" d="m598.5,238.69c-1.02-.18-2.06-.26-3.1-.24.14-1.58,1.72-2.89,3.3-2.71.05.56-.18,1.09-.34,1.63s-.23,1.16.09,1.61"/>
        <path class="cls-4" d="m603.81,235.87c-1.02-.18-2.06-.26-3.1-.24.14-1.58,1.72-2.89,3.3-2.71.05.56-.18,1.09-.34,1.63s-.23,1.16.09,1.61"/>
        <path class="cls-4" d="m580.45,254.91c-1.02-.18-2.06-.26-3.1-.24.14-1.58,1.72-2.89,3.3-2.71.05.56-.18,1.09-.34,1.63s-.23,1.16.09,1.61"/>
        <path class="cls-4" d="m585.76,252.09c-1.02-.18-2.06-.26-3.1-.24.14-1.58,1.72-2.89,3.3-2.71.05.56-.18,1.09-.34,1.63s-.23,1.16.09,1.61"/>
        <path class="cls-4" d="m591.31,249.15c-1.02-.18-2.06-.26-3.1-.24.14-1.58,1.72-2.89,3.3-2.71.05.56-.18,1.09-.34,1.63s-.23,1.16.09,1.61"/>
        <path class="cls-4" d="m596.63,246.33c-1.02-.18-2.06-.26-3.1-.24.14-1.58,1.72-2.89,3.3-2.71.05.56-.18,1.09-.34,1.63s-.23,1.16.09,1.61"/>
        <path class="cls-4" d="m602.18,243.39c-1.02-.18-2.06-.26-3.1-.24.14-1.58,1.72-2.89,3.3-2.71.05.56-.18,1.09-.34,1.63s-.23,1.16.09,1.61"/>
        <path class="cls-4" d="m607.49,240.57c-1.02-.18-2.06-.26-3.1-.24.14-1.58,1.72-2.89,3.3-2.71.05.56-.18,1.09-.34,1.63s-.23,1.16.09,1.61"/>
        <path class="cls-4" d="m613.05,237.63c-1.02-.18-2.06-.26-3.1-.24.14-1.58,1.72-2.89,3.3-2.71.05.56-.18,1.09-.34,1.63s-.23,1.16.09,1.61"/>
        <path class="cls-4" d="m609.33,232.95c-1.02-.18-2.06-.26-3.1-.24.14-1.58,1.72-2.89,3.3-2.71.05.56-.18,1.09-.34,1.63s-.23,1.16.09,1.61"/>
        <path class="cls-4" d="m618.36,234.82c-1.02-.18-2.06-.26-3.1-.24.14-1.58,1.72-2.89,3.3-2.71.05.56-.18,1.09-.34,1.63s-.23,1.16.09,1.61"/>
        <path class="cls-4" d="m563.9,263.67c-1.02-.18-2.06-.26-3.1-.24.14-1.58,1.72-2.89,3.3-2.71.05.56-.18,1.09-.34,1.63s-.23,1.16.09,1.61"/>
        <path class="cls-4" d="m569.46,260.73c-1.02-.18-2.06-.26-3.1-.24.14-1.58,1.72-2.89,3.3-2.71.05.56-.18,1.09-.34,1.63s-.23,1.16.09,1.61"/>
        <path class="cls-4" d="m574.77,257.92c-1.02-.18-2.06-.26-3.1-.24.14-1.58,1.72-2.89,3.3-2.71.05.56-.18,1.09-.34,1.63s-.23,1.16.09,1.61"/>
        <path class="cls-4" d="m567.03,269.28c-1.02-.18-2.06-.26-3.1-.24.14-1.58,1.72-2.89,3.3-2.71.05.56-.18,1.09-.34,1.63s-.23,1.16.09,1.61"/>
        <path class="cls-4" d="m572.34,266.47c-1.02-.18-2.06-.26-3.1-.24.14-1.58,1.72-2.89,3.3-2.71.05.56-.18,1.09-.34,1.63s-.23,1.16.09,1.61"/>
        <path class="cls-4" d="m577.9,263.53c-1.02-.18-2.06-.26-3.1-.24.14-1.58,1.72-2.89,3.3-2.71.05.56-.18,1.09-.34,1.63s-.23,1.16.09,1.61"/>
        <path class="cls-4" d="m583.21,260.71c-1.02-.18-2.06-.26-3.1-.24.14-1.58,1.72-2.89,3.3-2.71.05.56-.18,1.09-.34,1.63s-.23,1.16.09,1.61"/>
        <path class="cls-4" d="m588.77,257.77c-1.02-.18-2.06-.26-3.1-.24.14-1.58,1.72-2.89,3.3-2.71.05.56-.18,1.09-.34,1.63s-.23,1.16.09,1.61"/>
        <path class="cls-4" d="m594.08,254.95c-1.02-.18-2.06-.26-3.1-.24.14-1.58,1.72-2.89,3.3-2.71.05.56-.18,1.09-.34,1.63s-.23,1.16.09,1.61"/>
        <path class="cls-4" d="m599.63,252.01c-1.02-.18-2.06-.26-3.1-.24.14-1.58,1.72-2.89,3.3-2.71.05.56-.18,1.09-.34,1.63s-.23,1.16.09,1.61"/>
        <path class="cls-4" d="m604.95,249.19c-1.02-.18-2.06-.26-3.1-.24.14-1.58,1.72-2.89,3.3-2.71.05.56-.18,1.09-.34,1.63s-.23,1.16.09,1.61"/>
        <path class="cls-4" d="m615.12,229.88c-1.02-.18-2.06-.26-3.1-.24.14-1.58,1.72-2.89,3.3-2.71.05.56-.18,1.09-.34,1.63s-.23,1.16.09,1.61"/>
        <path class="cls-4" d="m610.46,246.27c-1.02-.18-2.06-.26-3.1-.24.14-1.58,1.72-2.89,3.3-2.71.05.56-.18,1.09-.34,1.63s-.23,1.16.09,1.61"/>
        <path class="cls-4" d="m616.01,243.33c-1.02-.18-2.06-.26-3.1-.24.14-1.58,1.72-2.89,3.3-2.71.05.56-.18,1.09-.34,1.63s-.23,1.16.09,1.61"/>
        <path class="cls-4" d="m621.33,240.51c-1.02-.18-2.06-.26-3.1-.24.14-1.58,1.72-2.89,3.3-2.71.05.56-.18,1.09-.34,1.63s-.23,1.16.09,1.61"/>
        <path class="cls-4" d="m579.7,268.52c.17-.85,1.43-1.64,2.52-2.23,10.22-5.55,20.5-10.99,30.84-16.31-.04.93-1.37,1.91-2.55,2.67-5.08,3.26-10.3,6.35-15.63,9.25-4.8,2.61-10.16,4.48-15.18,6.62Z"/>
        <path class="cls-5" d="m564.58,206.2c1.52.69,3.46.29,4.6-.93.71-.76,1.13-1.79,1.98-2.38.57-.39,1.27-.54,1.93-.76,3.32-1.11,5.69-4.18,8.98-5.38.81-.3,1.67-.47,2.44-.86s1.49-1.02,1.66-1.87"/>
        <path class="cls-5" d="m567.18,211.69c2.21.47,4.67-.62,5.8-2.58.34-.58.59-1.26,1.13-1.67.27-.21.6-.33.92-.45,1.56-.58,3.11-1.16,4.67-1.75,2.89-1.08,5.77-2.16,8.66-3.24"/>
        <path class="cls-5" d="m570.08,216.33l.89-.58c3.22-2.09,6.44-4.19,9.79-6.05.85-.47,1.71-.93,2.58-1.37,1-.51,2.02-1,3.03-1.49"/>
        <path class="cls-5" d="m571.45,220.91c4.73-1.67,9.25-3.92,13.44-6.68.89-.59,1.78-1.2,2.76-1.61.98-.41,2.05-.61,3.12-.57"/>
        <path class="cls-5" d="m573.28,226.43c2.42.15,4.61-1.31,6.61-2.66,4.34-2.92,8.8-5.66,13.37-8.21"/>
      </g>
      <g>
        <path class="cls-2" d="m187.1,160.98c.32-.43.65-.86,1.09-1.15,1.87-1.23,4.2.54,5.9,1.99,6.91,5.93,16.86,8.12,25.62,5.63-.68,7.88-4.33,15.29-9.24,21.49-4.91,6.2-11.05,11.31-17.32,16.14-1.38,1.07-2.83,2.14-4.52,2.58-1.94.5-4.01.1-5.93-.49-6.63-2.03-14.11-6.79-17.27-13.12,10.37-9.72,13.28-21.81,21.66-33.06Z"/>
        <path class="cls-3" d="m145.39,193.25c5.58-3.77,12.25-6.3,18.97-5.76,6.56.53,12.51,3.88,18.79,5.85,5.68,1.79,11.81,2.51,16.9,5.59,5.91,3.58,9.71,10.09,10.83,16.91,1.12,6.81-.24,13.87-2.96,20.22-1.27,2.96-3.25,6.12-6.43,6.67-1.94.33-3.89-.41-5.72-1.14-20.46-8.17-40.92-16.33-61.38-24.5-2.37-.95-4.92-2.04-6.17-4.27-3.01-5.37,13.31-16.95,17.17-19.56Z"/>
        <path class="cls-3" d="m173.49,191.99c9.36,3.78,18.73,7.55,28.09,11.33,2.41.97,5.14,2.02,7.04,2.07-.71-1.89-4.41-4.4-8.39-6.35s-8.31-3.52-12.53-5.19c-6.65-2.65-17.95-7.81-24.41-8.75-7.6-1.1,6.42,5.37,10.2,6.9Z"/>
        <path class="cls-4" d="m159.62,196.48c-.53-.89-1.14-1.74-1.83-2.52,1.29-.92,3.32-.56,4.21.75-.39.4-.95.57-1.46.8s-1.03.57-1.17,1.11"/>
        <path class="cls-4" d="m165.21,198.7c-.53-.89-1.14-1.74-1.83-2.52,1.29-.92,3.32-.56,4.21.75-.39.4-.95.57-1.46.8s-1.03.57-1.17,1.11"/>
        <path class="cls-4" d="m171.06,201.01c-.53-.89-1.14-1.74-1.83-2.52,1.29-.92,3.32-.56,4.21.75-.39.4-.95.57-1.46.8s-1.03.57-1.17,1.11"/>
        <path class="cls-4" d="m176.65,203.23c-.53-.89-1.14-1.74-1.83-2.52,1.29-.92,3.32-.56,4.21.75-.39.4-.95.57-1.46.8s-1.03.57-1.17,1.11"/>
        <path class="cls-4" d="m182.49,205.54c-.53-.89-1.14-1.74-1.83-2.52,1.29-.92,3.32-.56,4.21.75-.39.4-.95.57-1.46.8s-1.03.57-1.17,1.11"/>
        <path class="cls-4" d="m188.08,207.76c-.53-.89-1.14-1.74-1.83-2.52,1.29-.92,3.32-.56,4.21.75-.39.4-.95.57-1.46.8s-1.03.57-1.17,1.11"/>
        <path class="cls-4" d="m193.92,210.08c-.53-.89-1.14-1.74-1.83-2.52,1.29-.92,3.32-.56,4.21.75-.39.4-.95.57-1.46.8s-1.03.57-1.17,1.11"/>
        <path class="cls-4" d="m199.51,212.29c-.53-.89-1.14-1.74-1.83-2.52,1.29-.92,3.32-.56,4.21.75-.39.4-.95.57-1.46.8s-1.03.57-1.17,1.11"/>
        <path class="cls-4" d="m150.89,199.34c-.53-.89-1.14-1.74-1.83-2.52,1.29-.92,3.32-.56,4.21.75-.39.4-.95.57-1.46.8s-1.03.57-1.17,1.11"/>
        <path class="cls-4" d="m156.48,201.56c-.53-.89-1.14-1.74-1.83-2.52,1.29-.92,3.32-.56,4.21.75-.39.4-.95.57-1.46.8s-1.03.57-1.17,1.11"/>
        <path class="cls-4" d="m162.33,203.87c-.53-.89-1.14-1.74-1.83-2.52,1.29-.92,3.32-.56,4.21.75-.39.4-.95.57-1.46.8s-1.03.57-1.17,1.11"/>
        <path class="cls-4" d="m167.92,206.09c-.53-.89-1.14-1.74-1.83-2.52,1.29-.92,3.32-.56,4.21.75-.39.4-.95.57-1.46.8s-1.03.57-1.17,1.11"/>
        <path class="cls-4" d="m173.76,208.4c-.53-.89-1.14-1.74-1.83-2.52,1.29-.92,3.32-.56,4.21.75-.39.4-.95.57-1.46.8s-1.03.57-1.17,1.11"/>
        <path class="cls-4" d="m179.35,210.62c-.53-.89-1.14-1.74-1.83-2.52,1.29-.92,3.32-.56,4.21.75-.39.4-.95.57-1.46.8s-1.03.57-1.17,1.11"/>
        <path class="cls-4" d="m185.19,212.94c-.53-.89-1.14-1.74-1.83-2.52,1.29-.92,3.32-.56,4.21.75-.39.4-.95.57-1.46.8s-1.03.57-1.17,1.11"/>
        <path class="cls-4" d="m190.78,215.15c-.53-.89-1.14-1.74-1.83-2.52,1.29-.92,3.32-.56,4.21.75-.39.4-.95.57-1.46.8s-1.03.57-1.17,1.11"/>
        <path class="cls-4" d="m161.14,209.72c-.53-.89-1.14-1.74-1.83-2.52,1.29-.92,3.32-.56,4.21.75-.39.4-.95.57-1.46.8s-1.03.57-1.17,1.11"/>
        <path class="cls-4" d="m166.73,211.94c-.53-.89-1.14-1.74-1.83-2.52,1.29-.92,3.32-.56,4.21.75-.39.4-.95.57-1.46.8s-1.03.57-1.17,1.11"/>
        <path class="cls-4" d="m172.57,214.25c-.53-.89-1.14-1.74-1.83-2.52,1.29-.92,3.32-.56,4.21.75-.39.4-.95.57-1.46.8s-1.03.57-1.17,1.11"/>
        <path class="cls-4" d="m178.16,216.47c-.53-.89-1.14-1.74-1.83-2.52,1.29-.92,3.32-.56,4.21.75-.39.4-.95.57-1.46.8s-1.03.57-1.17,1.11"/>
        <path class="cls-4" d="m184,218.78c-.53-.89-1.14-1.74-1.83-2.52,1.29-.92,3.32-.56,4.21.75-.39.4-.95.57-1.46.8s-1.03.57-1.17,1.11"/>
        <path class="cls-4" d="m189.59,221c-.53-.89-1.14-1.74-1.83-2.52,1.29-.92,3.32-.56,4.21.75-.39.4-.95.57-1.46.8s-1.03.57-1.17,1.11"/>
        <path class="cls-4" d="m195.44,223.32c-.53-.89-1.14-1.74-1.83-2.52,1.29-.92,3.32-.56,4.21.75-.39.4-.95.57-1.46.8s-1.03.57-1.17,1.11"/>
        <path class="cls-4" d="m196.59,217.45c-.53-.89-1.14-1.74-1.83-2.52,1.29-.92,3.32-.56,4.21.75-.39.4-.95.57-1.46.8s-1.03.57-1.17,1.11"/>
        <path class="cls-4" d="m201.03,225.53c-.53-.89-1.14-1.74-1.83-2.52,1.29-.92,3.32-.56,4.21.75-.39.4-.95.57-1.46.8s-1.03.57-1.17,1.11"/>
        <path class="cls-4" d="m143.73,202.82c-.53-.89-1.14-1.74-1.83-2.52,1.29-.92,3.32-.56,4.21.75-.39.4-.95.57-1.46.8s-1.03.57-1.17,1.11"/>
        <path class="cls-4" d="m149.58,205.14c-.53-.89-1.14-1.74-1.83-2.52,1.29-.92,3.32-.56,4.21.75-.39.4-.95.57-1.46.8s-1.03.57-1.17,1.11"/>
        <path class="cls-4" d="m155.17,207.36c-.53-.89-1.14-1.74-1.83-2.52,1.29-.92,3.32-.56,4.21.75-.39.4-.95.57-1.46.8s-1.03.57-1.17,1.11"/>
        <path class="cls-4" d="m141.49,208.84c-.53-.89-1.14-1.74-1.83-2.52,1.29-.92,3.32-.56,4.21.75-.39.4-.95.57-1.46.8s-1.03.57-1.17,1.11"/>
        <path class="cls-4" d="m147.08,211.06c-.53-.89-1.14-1.74-1.83-2.52,1.29-.92,3.32-.56,4.21.75-.39.4-.95.57-1.46.8s-1.03.57-1.17,1.11"/>
        <path class="cls-4" d="m152.93,213.38c-.53-.89-1.14-1.74-1.83-2.52,1.29-.92,3.32-.56,4.21.75-.39.4-.95.57-1.46.8s-1.03.57-1.17,1.11"/>
        <path class="cls-4" d="m158.52,215.59c-.53-.89-1.14-1.74-1.83-2.52,1.29-.92,3.32-.56,4.21.75-.39.4-.95.57-1.46.8s-1.03.57-1.17,1.11"/>
        <path class="cls-4" d="m164.36,217.91c-.53-.89-1.14-1.74-1.83-2.52,1.29-.92,3.32-.56,4.21.75-.39.4-.95.57-1.46.8s-1.03.57-1.17,1.11"/>
        <path class="cls-4" d="m169.95,220.12c-.53-.89-1.14-1.74-1.83-2.52,1.29-.92,3.32-.56,4.21.75-.39.4-.95.57-1.46.8s-1.03.57-1.17,1.11"/>
        <path class="cls-4" d="m175.79,222.44c-.53-.89-1.14-1.74-1.83-2.52,1.29-.92,3.32-.56,4.21.75-.39.4-.95.57-1.46.8s-1.03.57-1.17,1.11"/>
        <path class="cls-4" d="m181.38,224.65c-.53-.89-1.14-1.74-1.83-2.52,1.29-.92,3.32-.56,4.21.75-.39.4-.95.57-1.46.8s-1.03.57-1.17,1.11"/>
        <path class="cls-4" d="m202.68,219.87c-.53-.89-1.14-1.74-1.83-2.52,1.29-.92,3.32-.56,4.21.75-.39.4-.95.57-1.46.8s-1.03.57-1.17,1.11"/>
        <path class="cls-4" d="m187.18,226.95c-.53-.89-1.14-1.74-1.83-2.52,1.29-.92,3.32-.56,4.21.75-.39.4-.95.57-1.46.8s-1.03.57-1.17,1.11"/>
        <path class="cls-4" d="m193.03,229.27c-.53-.89-1.14-1.74-1.83-2.52,1.29-.92,3.32-.56,4.21.75-.39.4-.95.57-1.46.8s-1.03.57-1.17,1.11"/>
        <path class="cls-4" d="m198.62,231.49c-.53-.89-1.14-1.74-1.83-2.52,1.29-.92,3.32-.56,4.21.75-.39.4-.95.57-1.46.8s-1.03.57-1.17,1.11"/>
        <path class="cls-4" d="m150.3,217.99c.76-.42,2.18.03,3.33.47,10.85,4.17,21.66,8.47,32.42,12.88-.73.57-2.35.2-3.69-.21-5.77-1.75-11.51-3.72-17.18-5.89-5.1-1.95-10-4.82-14.89-7.25Z"/>
        <path class="cls-5" d="m187.9,166.05c.47,1.6,2.02,2.82,3.69,2.9,1.04.05,2.09-.31,3.1-.04.67.18,1.24.62,1.83.97,3,1.8,6.87,1.61,9.92,3.34.75.43,1.44.96,2.24,1.3s1.74.47,2.5.05"/>
        <path class="cls-5" d="m185.42,171.58c1.08,1.99,3.5,3.15,5.73,2.75.66-.12,1.34-.37,2-.22.33.07.64.24.94.41,1.45.81,2.9,1.61,4.36,2.42,2.69,1.49,5.39,2.99,8.08,4.48"/>
        <path class="cls-5" d="m183.77,176.8l1.02.3c3.68,1.09,7.36,2.18,10.96,3.53.91.34,1.82.7,2.72,1.07,1.04.43,2.07.89,3.1,1.34"/>
        <path class="cls-5" d="m181.17,180.81c4.34,2.51,8.98,4.5,13.8,5.89,1.03.3,2.07.57,3.02,1.06.95.48,1.79,1.17,2.46,2"/>
        <path class="cls-5" d="m178.16,185.79c1.46,1.94,3.98,2.66,6.32,3.31,5.04,1.4,10.02,3.02,14.92,4.85"/>
      </g>
      <g>
        <path class="cls-2" d="m251.41,402.42c.36-.39.74-.79,1.21-1.03,1.99-1.03,4.12.97,5.65,2.6,6.26,6.62,15.92,9.83,24.89,8.27-1.5,7.77-5.91,14.75-11.44,20.41-5.53,5.65-12.17,10.1-18.91,14.24-1.49.91-3.04,1.84-4.76,2.09-1.99.29-3.99-.32-5.84-1.11-6.38-2.71-13.32-8.23-15.8-14.86,11.32-8.58,15.48-20.3,25-30.61Z"/>
        <path class="cls-3" d="m206.56,430.15c5.94-3.17,12.84-4.99,19.47-3.75,6.47,1.21,12.04,5.17,18.07,7.79,5.46,2.37,11.48,3.73,16.22,7.33,5.5,4.18,8.6,11.05,9.01,17.95.41,6.89-1.69,13.77-5.06,19.8-1.57,2.82-3.87,5.75-7.09,5.96-1.97.13-3.83-.82-5.57-1.73-19.49-10.26-38.99-20.52-58.48-30.78-2.26-1.19-4.68-2.55-5.69-4.89-2.43-5.66,15.01-15.47,19.12-17.66Z"/>
        <path class="cls-3" d="m234.63,431.84c8.92,4.73,17.83,9.47,26.75,14.2,2.29,1.22,4.9,2.55,6.78,2.79-.51-1.96-3.93-4.83-7.68-7.19s-7.9-4.37-11.91-6.47c-6.33-3.33-17.04-9.65-23.36-11.25-7.44-1.89,5.82,6.01,9.42,7.92Z"/>
        <path class="cls-4" d="m220.37,434.85c-.43-.94-.95-1.85-1.55-2.7,1.38-.78,3.36-.21,4.11,1.19-.43.36-1,.47-1.53.64s-1.09.46-1.28.99"/>
        <path class="cls-4" d="m225.7,437.64c-.43-.94-.95-1.85-1.55-2.7,1.38-.78,3.36-.21,4.11,1.19-.43.36-1,.47-1.53.64s-1.09.46-1.28.99"/>
        <path class="cls-4" d="m231.27,440.56c-.43-.94-.95-1.85-1.55-2.7,1.38-.78,3.36-.21,4.11,1.19-.43.36-1,.47-1.53.64s-1.09.46-1.28.99"/>
        <path class="cls-4" d="m236.6,443.34c-.43-.94-.95-1.85-1.55-2.7,1.38-.78,3.36-.21,4.11,1.19-.43.36-1,.47-1.53.64s-1.09.46-1.28.99"/>
        <path class="cls-4" d="m242.17,446.26c-.43-.94-.95-1.85-1.55-2.7,1.38-.78,3.36-.21,4.11,1.19-.43.36-1,.47-1.53.64s-1.09.46-1.28.99"/>
        <path class="cls-4" d="m247.49,449.04c-.43-.94-.95-1.85-1.55-2.7,1.38-.78,3.36-.21,4.11,1.19-.43.36-1,.47-1.53.64s-1.09.46-1.28.99"/>
        <path class="cls-4" d="m253.06,451.96c-.43-.94-.95-1.85-1.55-2.7,1.38-.78,3.36-.21,4.11,1.19-.43.36-1,.47-1.53.64s-1.09.46-1.28.99"/>
        <path class="cls-4" d="m258.39,454.75c-.43-.94-.95-1.85-1.55-2.7,1.38-.78,3.36-.21,4.11,1.19-.43.36-1,.47-1.53.64s-1.09.46-1.28.99"/>
        <path class="cls-4" d="m211.39,436.79c-.43-.94-.95-1.85-1.55-2.7,1.38-.78,3.36-.21,4.11,1.19-.43.36-1,.47-1.53.64s-1.09.46-1.28.99"/>
        <path class="cls-4" d="m216.72,439.57c-.43-.94-.95-1.85-1.55-2.7,1.38-.78,3.36-.21,4.11,1.19-.43.36-1,.47-1.53.64s-1.09.46-1.28.99"/>
        <path class="cls-4" d="m222.29,442.49c-.43-.94-.95-1.85-1.55-2.7,1.38-.78,3.36-.21,4.11,1.19-.43.36-1,.47-1.53.64s-1.09.46-1.28.99"/>
        <path class="cls-4" d="m227.62,445.28c-.43-.94-.95-1.85-1.55-2.7,1.38-.78,3.36-.21,4.11,1.19-.43.36-1,.47-1.53.64s-1.09.46-1.28.99"/>
        <path class="cls-4" d="m233.19,448.19c-.43-.94-.95-1.85-1.55-2.7,1.38-.78,3.36-.21,4.11,1.19-.43.36-1,.47-1.53.64s-1.09.46-1.28.99"/>
        <path class="cls-4" d="m238.51,450.98c-.43-.94-.95-1.85-1.55-2.7,1.38-.78,3.36-.21,4.11,1.19-.43.36-1,.47-1.53.64s-1.09.46-1.28.99"/>
        <path class="cls-4" d="m244.08,453.89c-.43-.94-.95-1.85-1.55-2.7,1.38-.78,3.36-.21,4.11,1.19-.43.36-1,.47-1.53.64s-1.09.46-1.28.99"/>
        <path class="cls-4" d="m249.41,456.68c-.43-.94-.95-1.85-1.55-2.7,1.38-.78,3.36-.21,4.11,1.19-.43.36-1,.47-1.53.64s-1.09.46-1.28.99"/>
        <path class="cls-4" d="m220.49,448.18c-.43-.94-.95-1.85-1.55-2.7,1.38-.78,3.36-.21,4.11,1.19-.43.36-1,.47-1.53.64s-1.09.46-1.28.99"/>
        <path class="cls-4" d="m225.82,450.97c-.43-.94-.95-1.85-1.55-2.7,1.38-.78,3.36-.21,4.11,1.19-.43.36-1,.47-1.53.64s-1.09.46-1.28.99"/>
        <path class="cls-4" d="m231.39,453.88c-.43-.94-.95-1.85-1.55-2.7,1.38-.78,3.36-.21,4.11,1.19-.43.36-1,.47-1.53.64s-1.09.46-1.28.99"/>
        <path class="cls-4" d="m236.72,456.67c-.43-.94-.95-1.85-1.55-2.7,1.38-.78,3.36-.21,4.11,1.19-.43.36-1,.47-1.53.64s-1.09.46-1.28.99"/>
        <path class="cls-4" d="m242.29,459.58c-.43-.94-.95-1.85-1.55-2.7,1.38-.78,3.36-.21,4.11,1.19-.43.36-1,.47-1.53.64s-1.09.46-1.28.99"/>
        <path class="cls-4" d="m247.61,462.37c-.43-.94-.95-1.85-1.55-2.7,1.38-.78,3.36-.21,4.11,1.19-.43.36-1,.47-1.53.64s-1.09.46-1.28.99"/>
        <path class="cls-4" d="m253.18,465.29c-.43-.94-.95-1.85-1.55-2.7,1.38-.78,3.36-.21,4.11,1.19-.43.36-1,.47-1.53.64s-1.09.46-1.28.99"/>
        <path class="cls-4" d="m254.94,459.57c-.43-.94-.95-1.85-1.55-2.7,1.38-.78,3.36-.21,4.11,1.19-.43.36-1,.47-1.53.64s-1.09.46-1.28.99"/>
        <path class="cls-4" d="m258.51,468.07c-.43-.94-.95-1.85-1.55-2.7,1.38-.78,3.36-.21,4.11,1.19-.43.36-1,.47-1.53.64s-1.09.46-1.28.99"/>
        <path class="cls-4" d="m203.91,439.5c-.43-.94-.95-1.85-1.55-2.7,1.38-.78,3.36-.21,4.11,1.19-.43.36-1,.47-1.53.64s-1.09.46-1.28.99"/>
        <path class="cls-4" d="m209.48,442.42c-.43-.94-.95-1.85-1.55-2.7,1.38-.78,3.36-.21,4.11,1.19-.43.36-1,.47-1.53.64s-1.09.46-1.28.99"/>
        <path class="cls-4" d="m214.8,445.2c-.43-.94-.95-1.85-1.55-2.7,1.38-.78,3.36-.21,4.11,1.19-.43.36-1,.47-1.53.64s-1.09.46-1.28.99"/>
        <path class="cls-4" d="m201.05,445.26c-.43-.94-.95-1.85-1.55-2.7,1.38-.78,3.36-.21,4.11,1.19-.43.36-1,.47-1.53.64s-1.09.46-1.28.99"/>
        <path class="cls-4" d="m206.38,448.04c-.43-.94-.95-1.85-1.55-2.7,1.38-.78,3.36-.21,4.11,1.19-.43.36-1,.47-1.53.64s-1.09.46-1.28.99"/>
        <path class="cls-4" d="m211.95,450.96c-.43-.94-.95-1.85-1.55-2.7,1.38-.78,3.36-.21,4.11,1.19-.43.36-1,.47-1.53.64s-1.09.46-1.28.99"/>
        <path class="cls-4" d="m217.27,453.75c-.43-.94-.95-1.85-1.55-2.7,1.38-.78,3.36-.21,4.11,1.19-.43.36-1,.47-1.53.64s-1.09.46-1.28.99"/>
        <path class="cls-4" d="m222.84,456.66c-.43-.94-.95-1.85-1.55-2.7,1.38-.78,3.36-.21,4.11,1.19-.43.36-1,.47-1.53.64s-1.09.46-1.28.99"/>
        <path class="cls-4" d="m228.17,459.45c-.43-.94-.95-1.85-1.55-2.7,1.38-.78,3.36-.21,4.11,1.19-.43.36-1,.47-1.53.64s-1.09.46-1.28.99"/>
        <path class="cls-4" d="m233.74,462.36c-.43-.94-.95-1.85-1.55-2.7,1.38-.78,3.36-.21,4.11,1.19-.43.36-1,.47-1.53.64s-1.09.46-1.28.99"/>
        <path class="cls-4" d="m239.07,465.15c-.43-.94-.95-1.85-1.55-2.7,1.38-.78,3.36-.21,4.11,1.19-.43.36-1,.47-1.53.64s-1.09.46-1.28.99"/>
        <path class="cls-4" d="m260.75,462.61c-.43-.94-.95-1.85-1.55-2.7,1.38-.78,3.36-.21,4.11,1.19-.43.36-1,.47-1.53.64s-1.09.46-1.28.99"/>
        <path class="cls-4" d="m244.6,468.04c-.43-.94-.95-1.85-1.55-2.7,1.38-.78,3.36-.21,4.11,1.19-.43.36-1,.47-1.53.64s-1.09.46-1.28.99"/>
        <path class="cls-4" d="m250.17,470.96c-.43-.94-.95-1.85-1.55-2.7,1.38-.78,3.36-.21,4.11,1.19-.43.36-1,.47-1.53.64s-1.09.46-1.28.99"/>
        <path class="cls-4" d="m255.49,473.74c-.43-.94-.95-1.85-1.55-2.7,1.38-.78,3.36-.21,4.11,1.19-.43.36-1,.47-1.53.64s-1.09.46-1.28.99"/>
        <path class="cls-4" d="m208.85,455.27c.8-.34,2.16.26,3.26.82,10.36,5.29,20.66,10.69,30.9,16.2-.78.49-2.36-.05-3.64-.59-5.56-2.35-11.06-4.9-16.47-7.65-4.87-2.48-9.44-5.84-14.05-8.77Z"/>
        <path class="cls-5" d="m251.67,407.54c.3,1.64,1.72,3.02,3.37,3.27,1.03.15,2.11-.09,3.08.28.65.25,1.16.74,1.72,1.16,2.8,2.11,6.66,2.32,9.51,4.36.7.5,1.33,1.11,2.09,1.53s1.69.65,2.48.31"/>
        <path class="cls-5" d="m248.63,412.79c.86,2.09,3.15,3.5,5.41,3.33.67-.05,1.37-.22,2.01-.01.32.11.61.31.89.5,1.36.95,2.72,1.91,4.08,2.86,2.52,1.77,5.05,3.54,7.57,5.3"/>
        <path class="cls-5" d="m246.44,417.81l.98.41c3.55,1.47,7.1,2.94,10.53,4.65.87.43,1.73.89,2.59,1.35.99.54,1.96,1.1,2.94,1.66"/>
        <path class="cls-5" d="m243.44,421.52c4.05,2.95,8.46,5.41,13.11,7.3.99.4,2,.78,2.89,1.36.89.58,1.66,1.35,2.24,2.25"/>
        <path class="cls-5" d="m239.92,426.16c1.25,2.08,3.68,3.06,5.94,3.95,4.87,1.92,9.65,4.05,14.33,6.38"/>
      </g>
      <g>
        <path class="cls-2" d="m156.25,18.5c.22-.3.46-.6.77-.81,1.31-.86,2.93.38,4.12,1.4,4.83,4.15,11.78,5.69,17.91,3.96-.48,5.51-3.05,10.68-6.49,15.02s-7.74,7.9-12.13,11.26c-.97.74-1.98,1.5-3.16,1.8-1.36.35-2.8.06-4.14-.35-4.63-1.42-9.86-4.76-12.06-9.19,7.26-6.78,9.31-15.23,15.18-23.09Z"/>
        <path class="cls-3" d="m127.05,41.01c3.9-2.63,8.57-4.39,13.27-4.01,4.59.38,8.74,2.73,13.13,4.11,3.97,1.26,8.25,1.76,11.81,3.93,4.13,2.51,6.78,7.07,7.55,11.83.78,4.77-.18,9.7-2.09,14.14-.89,2.07-2.28,4.28-4.5,4.65-1.36.23-2.72-.29-4-.81-14.3-5.73-28.59-11.47-42.89-17.2-1.66-.66-3.44-1.43-4.31-2.99-2.1-3.76,9.32-11.84,12.02-13.66Z"/>
        <path class="cls-3" d="m146.7,40.17c6.54,2.65,13.08,5.3,19.63,7.95,1.68.68,3.59,1.42,4.92,1.45-.5-1.33-3.08-3.08-5.86-4.45s-5.81-2.47-8.75-3.64c-4.64-1.86-12.54-5.48-17.06-6.14-5.31-.78,4.48,3.76,7.12,4.83Z"/>
        <path class="cls-4" d="m137,43.29c-.37-.63-.8-1.22-1.27-1.76.9-.64,2.32-.39,2.94.53-.27.28-.66.4-1.02.56s-.72.4-.82.78"/>
        <path class="cls-4" d="m140.9,44.84c-.37-.63-.8-1.22-1.27-1.76.9-.64,2.32-.39,2.94.53-.27.28-.66.4-1.02.56s-.72.4-.82.78"/>
        <path class="cls-4" d="m144.99,46.47c-.37-.63-.8-1.22-1.27-1.76.9-.64,2.32-.39,2.94.53-.27.28-.66.4-1.02.56s-.72.4-.82.78"/>
        <path class="cls-4" d="m148.89,48.02c-.37-.63-.8-1.22-1.27-1.76.9-.64,2.32-.39,2.94.53-.27.28-.66.4-1.02.56s-.72.4-.82.78"/>
        <path class="cls-4" d="m152.98,49.65c-.37-.63-.8-1.22-1.27-1.76.9-.64,2.32-.39,2.94.53-.27.28-.66.4-1.02.56s-.72.4-.82.78"/>
        <path class="cls-4" d="m156.88,51.2c-.37-.63-.8-1.22-1.27-1.76.9-.64,2.32-.39,2.94.53-.27.28-.66.4-1.02.56s-.72.4-.82.78"/>
        <path class="cls-4" d="m160.97,52.83c-.37-.63-.8-1.22-1.27-1.76.9-.64,2.32-.39,2.94.53-.27.28-.66.4-1.02.56s-.72.4-.82.78"/>
        <path class="cls-4" d="m164.87,54.39c-.37-.63-.8-1.22-1.27-1.76.9-.64,2.32-.39,2.94.53-.27.28-.66.4-1.02.56s-.72.4-.82.78"/>
        <path class="cls-4" d="m130.89,45.28c-.37-.63-.8-1.22-1.27-1.76.9-.64,2.32-.39,2.94.53-.27.28-.66.4-1.02.56s-.72.4-.82.78"/>
        <path class="cls-4" d="m134.8,46.83c-.37-.63-.8-1.22-1.27-1.76.9-.64,2.32-.39,2.94.53-.27.28-.66.4-1.02.56s-.72.4-.82.78"/>
        <path class="cls-4" d="m138.88,48.46c-.37-.63-.8-1.22-1.27-1.76.9-.64,2.32-.39,2.94.53-.27.28-.66.4-1.02.56s-.72.4-.82.78"/>
        <path class="cls-4" d="m142.79,50.01c-.37-.63-.8-1.22-1.27-1.76.9-.64,2.32-.39,2.94.53-.27.28-.66.4-1.02.56s-.72.4-.82.78"/>
        <path class="cls-4" d="m146.87,51.64c-.37-.63-.8-1.22-1.27-1.76.9-.64,2.32-.39,2.94.53-.27.28-.66.4-1.02.56s-.72.4-.82.78"/>
        <path class="cls-4" d="m150.78,53.2c-.37-.63-.8-1.22-1.27-1.76.9-.64,2.32-.39,2.94.53-.27.28-.66.4-1.02.56s-.72.4-.82.78"/>
        <path class="cls-4" d="m154.86,54.82c-.37-.63-.8-1.22-1.27-1.76.9-.64,2.32-.39,2.94.53-.27.28-.66.4-1.02.56s-.72.4-.82.78"/>
        <path class="cls-4" d="m158.76,56.38c-.37-.63-.8-1.22-1.27-1.76.9-.64,2.32-.39,2.94.53-.27.28-.66.4-1.02.56s-.72.4-.82.78"/>
        <path class="cls-4" d="m138.04,52.55c-.37-.63-.8-1.22-1.27-1.76.9-.64,2.32-.39,2.94.53-.27.28-.66.4-1.02.56s-.72.4-.82.78"/>
        <path class="cls-4" d="m141.95,54.1c-.37-.63-.8-1.22-1.27-1.76.9-.64,2.32-.39,2.94.53-.27.28-.66.4-1.02.56s-.72.4-.82.78"/>
        <path class="cls-4" d="m146.03,55.73c-.37-.63-.8-1.22-1.27-1.76.9-.64,2.32-.39,2.94.53-.27.28-.66.4-1.02.56s-.72.4-.82.78"/>
        <path class="cls-4" d="m149.94,57.28c-.37-.63-.8-1.22-1.27-1.76.9-.64,2.32-.39,2.94.53-.27.28-.66.4-1.02.56s-.72.4-.82.78"/>
        <path class="cls-4" d="m154.02,58.91c-.37-.63-.8-1.22-1.27-1.76.9-.64,2.32-.39,2.94.53-.27.28-.66.4-1.02.56s-.72.4-.82.78"/>
        <path class="cls-4" d="m157.93,60.46c-.37-.63-.8-1.22-1.27-1.76.9-.64,2.32-.39,2.94.53-.27.28-.66.4-1.02.56s-.72.4-.82.78"/>
        <path class="cls-4" d="m162.01,62.09c-.37-.63-.8-1.22-1.27-1.76.9-.64,2.32-.39,2.94.53-.27.28-.66.4-1.02.56s-.72.4-.82.78"/>
        <path class="cls-4" d="m162.82,57.99c-.37-.63-.8-1.22-1.27-1.76.9-.64,2.32-.39,2.94.53-.27.28-.66.4-1.02.56s-.72.4-.82.78"/>
        <path class="cls-4" d="m165.91,63.65c-.37-.63-.8-1.22-1.27-1.76.9-.64,2.32-.39,2.94.53-.27.28-.66.4-1.02.56s-.72.4-.82.78"/>
        <path class="cls-4" d="m125.88,47.7c-.37-.63-.8-1.22-1.27-1.76.9-.64,2.32-.39,2.94.53-.27.28-.66.4-1.02.56s-.72.4-.82.78"/>
        <path class="cls-4" d="m129.96,49.33c-.37-.63-.8-1.22-1.27-1.76.9-.64,2.32-.39,2.94.53-.27.28-.66.4-1.02.56s-.72.4-.82.78"/>
        <path class="cls-4" d="m133.87,50.89c-.37-.63-.8-1.22-1.27-1.76.9-.64,2.32-.39,2.94.53-.27.28-.66.4-1.02.56s-.72.4-.82.78"/>
        <path class="cls-4" d="m124.31,51.91c-.37-.63-.8-1.22-1.27-1.76.9-.64,2.32-.39,2.94.53-.27.28-.66.4-1.02.56s-.72.4-.82.78"/>
        <path class="cls-4" d="m128.21,53.47c-.37-.63-.8-1.22-1.27-1.76.9-.64,2.32-.39,2.94.53-.27.28-.66.4-1.02.56s-.72.4-.82.78"/>
        <path class="cls-4" d="m132.3,55.09c-.37-.63-.8-1.22-1.27-1.76.9-.64,2.32-.39,2.94.53-.27.28-.66.4-1.02.56s-.72.4-.82.78"/>
        <path class="cls-4" d="m136.2,56.65c-.37-.63-.8-1.22-1.27-1.76.9-.64,2.32-.39,2.94.53-.27.28-.66.4-1.02.56s-.72.4-.82.78"/>
        <path class="cls-4" d="m140.29,58.27c-.37-.63-.8-1.22-1.27-1.76.9-.64,2.32-.39,2.94.53-.27.28-.66.4-1.02.56s-.72.4-.82.78"/>
        <path class="cls-4" d="m144.19,59.83c-.37-.63-.8-1.22-1.27-1.76.9-.64,2.32-.39,2.94.53-.27.28-.66.4-1.02.56s-.72.4-.82.78"/>
        <path class="cls-4" d="m148.28,61.46c-.37-.63-.8-1.22-1.27-1.76.9-.64,2.32-.39,2.94.53-.27.28-.66.4-1.02.56s-.72.4-.82.78"/>
        <path class="cls-4" d="m152.18,63.01c-.37-.63-.8-1.22-1.27-1.76.9-.64,2.32-.39,2.94.53-.27.28-.66.4-1.02.56s-.72.4-.82.78"/>
        <path class="cls-4" d="m167.08,59.69c-.37-.63-.8-1.22-1.27-1.76.9-.64,2.32-.39,2.94.53-.27.28-.66.4-1.02.56s-.72.4-.82.78"/>
        <path class="cls-4" d="m156.24,64.62c-.37-.63-.8-1.22-1.27-1.76.9-.64,2.32-.39,2.94.53-.27.28-.66.4-1.02.56s-.72.4-.82.78"/>
        <path class="cls-4" d="m160.32,66.25c-.37-.63-.8-1.22-1.27-1.76.9-.64,2.32-.39,2.94.53-.27.28-.66.4-1.02.56s-.72.4-.82.78"/>
        <path class="cls-4" d="m164.22,67.81c-.37-.63-.8-1.22-1.27-1.76.9-.64,2.32-.39,2.94.53-.27.28-.66.4-1.02.56s-.72.4-.82.78"/>
        <path class="cls-4" d="m130.45,58.32c.53-.29,1.52.02,2.33.33,7.58,2.93,15.14,5.94,22.65,9.04-.51.4-1.64.13-2.58-.15-4.03-1.23-8.05-2.61-12.01-4.14-3.56-1.37-6.99-3.38-10.4-5.09Z"/>
        <path class="cls-5" d="m156.8,22.04c.32,1.12,1.41,1.98,2.58,2.03.72.03,1.46-.21,2.16-.02.47.13.86.43,1.28.68,2.1,1.26,4.8,1.14,6.93,2.35.53.3,1.01.67,1.56.91s1.22.33,1.75.04"/>
        <path class="cls-5" d="m155.06,25.91c.75,1.39,2.44,2.21,4,1.93.46-.08.94-.25,1.4-.15.23.05.45.17.65.28,1.01.56,2.03,1.13,3.04,1.69,1.88,1.05,3.76,2.1,5.64,3.14"/>
        <path class="cls-5" d="m153.9,29.55l.71.21c2.57.77,5.15,1.53,7.66,2.48.64.24,1.27.49,1.9.75.73.3,1.45.62,2.16.94"/>
        <path class="cls-5" d="m152.08,32.35c3.03,1.76,6.28,3.15,9.64,4.14.72.21,1.44.4,2.11.74.66.34,1.25.82,1.72,1.4"/>
        <path class="cls-5" d="m149.97,35.84c1.02,1.36,2.78,1.86,4.41,2.32,3.52.99,7,2.12,10.43,3.4"/>
      </g>
      <g>
        <path class="cls-2" d="m437.65,222.1c-.28.24-.58.49-.93.62-1.47.55-2.78-1.02-3.71-2.27-3.79-5.12-10.24-8.15-16.59-7.81,1.69-5.27,5.33-9.75,9.64-13.22,4.31-3.47,9.29-6,14.31-8.31,1.11-.51,2.26-1.02,3.48-1.06,1.4-.04,2.75.56,3.96,1.25,4.21,2.41,8.56,6.82,9.73,11.63-8.57,5.02-12.43,12.81-19.9,19.18Z"/>
        <path class="cls-3" d="m471.09,206.57c-4.39,1.71-9.33,2.4-13.82.99-4.39-1.38-7.93-4.59-11.9-6.91-3.59-2.1-7.66-3.54-10.65-6.43-3.47-3.36-5.05-8.39-4.76-13.21.29-4.82,2.32-9.42,5.15-13.33,1.33-1.82,3.17-3.67,5.42-3.55,1.38.07,2.59.88,3.72,1.67,12.68,8.74,25.36,17.48,38.04,26.23,1.47,1.01,3.04,2.16,3.54,3.87,1.22,4.13-11.7,9.49-14.74,10.67Z"/>
        <path class="cls-3" d="m451.74,203.07c-5.8-4.03-11.59-8.05-17.39-12.08-1.49-1.04-3.19-2.18-4.48-2.5.19,1.4,2.32,3.68,4.74,5.63s5.12,3.69,7.73,5.48c4.12,2.83,11.03,8.11,15.28,9.75,5.01,1.93-3.54-4.66-5.88-6.28Z"/>
        <path class="cls-4" d="m461.89,202.16c.22.69.51,1.36.85,2-1.02.43-2.35-.13-2.75-1.17.33-.21.74-.24,1.12-.32s.79-.23.97-.58"/>
        <path class="cls-4" d="m458.43,199.79c.22.69.51,1.36.85,2-1.02.43-2.35-.13-2.75-1.17.33-.21.74-.24,1.12-.32s.79-.23.97-.58"/>
        <path class="cls-4" d="m454.8,197.3c.22.69.51,1.36.85,2-1.02.43-2.35-.13-2.75-1.17.33-.21.74-.24,1.12-.32s.79-.23.97-.58"/>
        <path class="cls-4" d="m451.34,194.92c.22.69.51,1.36.85,2-1.02.43-2.35-.13-2.75-1.17.33-.21.74-.24,1.12-.32s.79-.23.97-.58"/>
        <path class="cls-4" d="m447.71,192.44c.22.69.51,1.36.85,2-1.02.43-2.35-.13-2.75-1.17.33-.21.74-.24,1.12-.32s.79-.23.97-.58"/>
        <path class="cls-4" d="m444.24,190.06c.22.69.51,1.36.85,2-1.02.43-2.35-.13-2.75-1.17.33-.21.74-.24,1.12-.32s.79-.23.97-.58"/>
        <path class="cls-4" d="m440.62,187.57c.22.69.51,1.36.85,2-1.02.43-2.35-.13-2.75-1.17.33-.21.74-.24,1.12-.32s.79-.23.97-.58"/>
        <path class="cls-4" d="m437.15,185.2c.22.69.51,1.36.85,2-1.02.43-2.35-.13-2.75-1.17.33-.21.74-.24,1.12-.32s.79-.23.97-.58"/>
        <path class="cls-4" d="m468.29,201.57c.22.69.51,1.36.85,2-1.02.43-2.35-.13-2.75-1.17.33-.21.74-.24,1.12-.32s.79-.23.97-.58"/>
        <path class="cls-4" d="m464.82,199.19c.22.69.51,1.36.85,2-1.02.43-2.35-.13-2.75-1.17.33-.21.74-.24,1.12-.32s.79-.23.97-.58"/>
        <path class="cls-4" d="m461.2,196.7c.22.69.51,1.36.85,2-1.02.43-2.35-.13-2.75-1.17.33-.21.74-.24,1.12-.32s.79-.23.97-.58"/>
        <path class="cls-4" d="m457.73,194.33c.22.69.51,1.36.85,2-1.02.43-2.35-.13-2.75-1.17.33-.21.74-.24,1.12-.32s.79-.23.97-.58"/>
        <path class="cls-4" d="m454.11,191.84c.22.69.51,1.36.85,2-1.02.43-2.35-.13-2.75-1.17.33-.21.74-.24,1.12-.32s.79-.23.97-.58"/>
        <path class="cls-4" d="m450.64,189.46c.22.69.51,1.36.85,2-1.02.43-2.35-.13-2.75-1.17.33-.21.74-.24,1.12-.32s.79-.23.97-.58"/>
        <path class="cls-4" d="m447.01,186.98c.22.69.51,1.36.85,2-1.02.43-2.35-.13-2.75-1.17.33-.21.74-.24,1.12-.32s.79-.23.97-.58"/>
        <path class="cls-4" d="m443.55,184.6c.22.69.51,1.36.85,2-1.02.43-2.35-.13-2.75-1.17.33-.21.74-.24,1.12-.32s.79-.23.97-.58"/>
        <path class="cls-4" d="m462.92,192.9c.22.69.51,1.36.85,2-1.02.43-2.35-.13-2.75-1.17.33-.21.74-.24,1.12-.32s.79-.23.97-.58"/>
        <path class="cls-4" d="m459.45,190.52c.22.69.51,1.36.85,2-1.02.43-2.35-.13-2.75-1.17.33-.21.74-.24,1.12-.32s.79-.23.97-.58"/>
        <path class="cls-4" d="m455.83,188.04c.22.69.51,1.36.85,2-1.02.43-2.35-.13-2.75-1.17.33-.21.74-.24,1.12-.32s.79-.23.97-.58"/>
        <path class="cls-4" d="m452.36,185.66c.22.69.51,1.36.85,2-1.02.43-2.35-.13-2.75-1.17.33-.21.74-.24,1.12-.32s.79-.23.97-.58"/>
        <path class="cls-4" d="m448.73,183.17c.22.69.51,1.36.85,2-1.02.43-2.35-.13-2.75-1.17.33-.21.74-.24,1.12-.32s.79-.23.97-.58"/>
        <path class="cls-4" d="m445.27,180.8c.22.69.51,1.36.85,2-1.02.43-2.35-.13-2.75-1.17.33-.21.74-.24,1.12-.32s.79-.23.97-.58"/>
        <path class="cls-4" d="m441.64,178.31c.22.69.51,1.36.85,2-1.02.43-2.35-.13-2.75-1.17.33-.21.74-.24,1.12-.32s.79-.23.97-.58"/>
        <path class="cls-4" d="m439.95,182.13c.22.69.51,1.36.85,2-1.02.43-2.35-.13-2.75-1.17.33-.21.74-.24,1.12-.32s.79-.23.97-.58"/>
        <path class="cls-4" d="m438.18,175.93c.22.69.51,1.36.85,2-1.02.43-2.35-.13-2.75-1.17.33-.21.74-.24,1.12-.32s.79-.23.97-.58"/>
        <path class="cls-4" d="m473.71,200.3c.22.69.51,1.36.85,2-1.02.43-2.35-.13-2.75-1.17.33-.21.74-.24,1.12-.32s.79-.23.97-.58"/>
        <path class="cls-4" d="m470.09,197.82c.22.69.51,1.36.85,2-1.02.43-2.35-.13-2.75-1.17.33-.21.74-.24,1.12-.32s.79-.23.97-.58"/>
        <path class="cls-4" d="m466.62,195.44c.22.69.51,1.36.85,2-1.02.43-2.35-.13-2.75-1.17.33-.21.74-.24,1.12-.32s.79-.23.97-.58"/>
        <path class="cls-4" d="m476.17,196.55c.22.69.51,1.36.85,2-1.02.43-2.35-.13-2.75-1.17.33-.21.74-.24,1.12-.32s.79-.23.97-.58"/>
        <path class="cls-4" d="m472.71,194.17c.22.69.51,1.36.85,2-1.02.43-2.35-.13-2.75-1.17.33-.21.74-.24,1.12-.32s.79-.23.97-.58"/>
        <path class="cls-4" d="m469.08,191.68c.22.69.51,1.36.85,2-1.02.43-2.35-.13-2.75-1.17.33-.21.74-.24,1.12-.32s.79-.23.97-.58"/>
        <path class="cls-4" d="m465.61,189.31c.22.69.51,1.36.85,2-1.02.43-2.35-.13-2.75-1.17.33-.21.74-.24,1.12-.32s.79-.23.97-.58"/>
        <path class="cls-4" d="m461.99,186.82c.22.69.51,1.36.85,2-1.02.43-2.35-.13-2.75-1.17.33-.21.74-.24,1.12-.32s.79-.23.97-.58"/>
        <path class="cls-4" d="m458.52,184.44c.22.69.51,1.36.85,2-1.02.43-2.35-.13-2.75-1.17.33-.21.74-.24,1.12-.32s.79-.23.97-.58"/>
        <path class="cls-4" d="m454.9,181.96c.22.69.51,1.36.85,2-1.02.43-2.35-.13-2.75-1.17.33-.21.74-.24,1.12-.32s.79-.23.97-.58"/>
        <path class="cls-4" d="m451.43,179.58c.22.69.51,1.36.85,2-1.02.43-2.35-.13-2.75-1.17.33-.21.74-.24,1.12-.32s.79-.23.97-.58"/>
        <path class="cls-4" d="m436.17,179.54c.22.69.51,1.36.85,2-1.02.43-2.35-.13-2.75-1.17.33-.21.74-.24,1.12-.32s.79-.23.97-.58"/>
        <path class="cls-4" d="m447.83,177.11c.22.69.51,1.36.85,2-1.02.43-2.35-.13-2.75-1.17.33-.21.74-.24,1.12-.32s.79-.23.97-.58"/>
        <path class="cls-4" d="m444.21,174.63c.22.69.51,1.36.85,2-1.02.43-2.35-.13-2.75-1.17.33-.21.74-.24,1.12-.32s.79-.23.97-.58"/>
        <path class="cls-4" d="m440.74,172.25c.22.69.51,1.36.85,2-1.02.43-2.35-.13-2.75-1.17.33-.21.74-.24,1.12-.32s.79-.23.97-.58"/>
        <path class="cls-4" d="m471.59,188.95c-.58.17-1.48-.36-2.2-.84-6.75-4.53-13.45-9.13-20.1-13.81.59-.28,1.63.23,2.48.71,3.66,2.09,7.27,4.32,10.8,6.68,3.18,2.12,6.07,4.84,9.02,7.25Z"/>
        <path class="cls-5" d="m437.89,218.52c-.07-1.16-.94-2.24-2.07-2.55-.7-.19-1.48-.12-2.12-.45-.43-.23-.75-.61-1.1-.95-1.77-1.7-4.43-2.17-6.24-3.81-.45-.41-.83-.88-1.32-1.24s-1.12-.59-1.7-.42"/>
        <path class="cls-5" d="m440.45,215.13c-.43-1.52-1.9-2.69-3.48-2.76-.47-.02-.97.04-1.4-.16-.22-.1-.4-.26-.57-.42-.86-.77-1.73-1.55-2.59-2.32-1.6-1.44-3.21-2.87-4.81-4.31"/>
        <path class="cls-5" d="m442.38,211.83l-.65-.36c-2.34-1.31-4.68-2.63-6.92-4.1-.57-.37-1.13-.76-1.68-1.15-.64-.46-1.27-.92-1.9-1.39"/>
        <path class="cls-5" d="m444.77,209.5c-2.57-2.39-5.43-4.46-8.49-6.16-.65-.36-1.32-.71-1.89-1.19-.57-.48-1.04-1.08-1.37-1.75"/>
        <path class="cls-5" d="m447.6,206.57c-.69-1.55-2.3-2.43-3.79-3.23-3.22-1.74-6.36-3.61-9.42-5.62"/>
      </g>
      <g>
        <path class="cls-2" d="m433.28,414.61c.24.28.48.58.61.93.55,1.47-1.03,2.77-2.29,3.7-5.13,3.77-8.19,10.21-7.87,16.57-5.26-1.7-9.73-5.36-13.18-9.69-3.45-4.32-5.96-9.31-8.26-14.34-.51-1.11-1.01-2.26-1.04-3.49-.03-1.4.57-2.74,1.27-3.96,2.43-4.2,6.85-8.54,11.66-9.69,4.99,8.59,12.76,12.48,19.1,19.97Z"/>
        <path class="cls-3" d="m417.88,381.11c1.69,4.4,2.36,9.34.94,13.83-1.4,4.39-4.62,7.91-6.95,11.88-2.11,3.59-3.57,7.65-6.47,10.63-3.37,3.46-8.41,5.02-13.22,4.71-4.82-.31-9.41-2.35-13.31-5.2-1.82-1.33-3.66-3.18-3.53-5.43.08-1.38.89-2.58,1.68-3.72,8.79-12.65,17.58-25.3,26.36-37.95,1.02-1.47,2.17-3.03,3.88-3.53,4.13-1.2,9.45,11.74,10.62,14.78Z"/>
        <path class="cls-3" d="m414.3,400.45c-4.05,5.78-8.1,11.57-12.14,17.35-1.04,1.49-2.19,3.18-2.52,4.47,1.4-.19,3.69-2.31,5.65-4.72s3.71-5.11,5.51-7.71c2.85-4.11,8.15-11,9.81-15.25,1.95-5-4.67,3.52-6.31,5.86Z"/>
        <path class="cls-4" d="m413.43,390.29c.69-.22,1.36-.5,2-.85.43,1.03-.14,2.35-1.18,2.75-.21-.33-.24-.74-.31-1.12s-.23-.79-.57-.97"/>
        <path class="cls-4" d="m411.04,393.75c.69-.22,1.36-.5,2-.85.43,1.03-.14,2.35-1.18,2.75-.21-.33-.24-.74-.31-1.12s-.23-.79-.57-.97"/>
        <path class="cls-4" d="m408.55,397.37c.69-.22,1.36-.5,2-.85.43,1.03-.14,2.35-1.18,2.75-.21-.33-.24-.74-.31-1.12s-.23-.79-.57-.97"/>
        <path class="cls-4" d="m406.15,400.83c.69-.22,1.36-.5,2-.85.43,1.03-.14,2.35-1.18,2.75-.21-.33-.24-.74-.31-1.12s-.23-.79-.57-.97"/>
        <path class="cls-4" d="m403.66,404.44c.69-.22,1.36-.5,2-.85.43,1.03-.14,2.35-1.18,2.75-.21-.33-.24-.74-.31-1.12s-.23-.79-.57-.97"/>
        <path class="cls-4" d="m401.27,407.9c.69-.22,1.36-.5,2-.85.43,1.03-.14,2.35-1.18,2.75-.21-.33-.24-.74-.31-1.12s-.23-.79-.57-.97"/>
        <path class="cls-4" d="m398.77,411.52c.69-.22,1.36-.5,2-.85.43,1.03-.14,2.35-1.18,2.75-.21-.33-.24-.74-.31-1.12s-.23-.79-.57-.97"/>
        <path class="cls-4" d="m396.38,414.97c.69-.22,1.36-.5,2-.85.43,1.03-.14,2.35-1.18,2.75-.21-.33-.24-.74-.31-1.12s-.23-.79-.57-.97"/>
        <path class="cls-4" d="m412.86,383.9c.69-.22,1.36-.5,2-.85.43,1.03-.14,2.35-1.18,2.75-.21-.33-.24-.74-.31-1.12s-.23-.79-.57-.97"/>
        <path class="cls-4" d="m410.47,387.36c.69-.22,1.36-.5,2-.85.43,1.03-.14,2.35-1.18,2.75-.21-.33-.24-.74-.31-1.12s-.23-.79-.57-.97"/>
        <path class="cls-4" d="m407.97,390.97c.69-.22,1.36-.5,2-.85.43,1.03-.14,2.35-1.18,2.75-.21-.33-.24-.74-.31-1.12s-.23-.79-.57-.97"/>
        <path class="cls-4" d="m405.58,394.43c.69-.22,1.36-.5,2-.85.43,1.03-.14,2.35-1.18,2.75-.21-.33-.24-.74-.31-1.12s-.23-.79-.57-.97"/>
        <path class="cls-4" d="m403.08,398.05c.69-.22,1.36-.5,2-.85.43,1.03-.14,2.35-1.18,2.75-.21-.33-.24-.74-.31-1.12s-.23-.79-.57-.97"/>
        <path class="cls-4" d="m400.69,401.5c.69-.22,1.36-.5,2-.85.43,1.03-.14,2.35-1.18,2.75-.21-.33-.24-.74-.31-1.12s-.23-.79-.57-.97"/>
        <path class="cls-4" d="m398.19,405.12c.69-.22,1.36-.5,2-.85.43,1.03-.14,2.35-1.18,2.75-.21-.33-.24-.74-.31-1.12s-.23-.79-.57-.97"/>
        <path class="cls-4" d="m395.8,408.58c.69-.22,1.36-.5,2-.85.43,1.03-.14,2.35-1.18,2.75-.21-.33-.24-.74-.31-1.12s-.23-.79-.57-.97"/>
        <path class="cls-4" d="m404.18,389.24c.69-.22,1.36-.5,2-.85.43,1.03-.14,2.35-1.18,2.75-.21-.33-.24-.74-.31-1.12s-.23-.79-.57-.97"/>
        <path class="cls-4" d="m401.79,392.7c.69-.22,1.36-.5,2-.85.43,1.03-.14,2.35-1.18,2.75-.21-.33-.24-.74-.31-1.12s-.23-.79-.57-.97"/>
        <path class="cls-4" d="m399.29,396.31c.69-.22,1.36-.5,2-.85.43,1.03-.14,2.35-1.18,2.75-.21-.33-.24-.74-.31-1.12s-.23-.79-.57-.97"/>
        <path class="cls-4" d="m396.9,399.77c.69-.22,1.36-.5,2-.85.43,1.03-.14,2.35-1.18,2.75-.21-.33-.24-.74-.31-1.12s-.23-.79-.57-.97"/>
        <path class="cls-4" d="m394.4,403.39c.69-.22,1.36-.5,2-.85.43,1.03-.14,2.35-1.18,2.75-.21-.33-.24-.74-.31-1.12s-.23-.79-.57-.97"/>
        <path class="cls-4" d="m392.01,406.84c.69-.22,1.36-.5,2-.85.43,1.03-.14,2.35-1.18,2.75-.21-.33-.24-.74-.31-1.12s-.23-.79-.57-.97"/>
        <path class="cls-4" d="m389.51,410.46c.69-.22,1.36-.5,2-.85.43,1.03-.14,2.35-1.18,2.75-.21-.33-.24-.74-.31-1.12s-.23-.79-.57-.97"/>
        <path class="cls-4" d="m393.32,412.17c.69-.22,1.36-.5,2-.85.43,1.03-.14,2.35-1.18,2.75-.21-.33-.24-.74-.31-1.12s-.23-.79-.57-.97"/>
        <path class="cls-4" d="m387.12,413.92c.69-.22,1.36-.5,2-.85.43,1.03-.14,2.35-1.18,2.75-.21-.33-.24-.74-.31-1.12s-.23-.79-.57-.97"/>
        <path class="cls-4" d="m411.62,378.47c.69-.22,1.36-.5,2-.85.43,1.03-.14,2.35-1.18,2.75-.21-.33-.24-.74-.31-1.12s-.23-.79-.57-.97"/>
        <path class="cls-4" d="m409.12,382.09c.69-.22,1.36-.5,2-.85.43,1.03-.14,2.35-1.18,2.75-.21-.33-.24-.74-.31-1.12s-.23-.79-.57-.97"/>
        <path class="cls-4" d="m406.73,385.54c.69-.22,1.36-.5,2-.85.43,1.03-.14,2.35-1.18,2.75-.21-.33-.24-.74-.31-1.12s-.23-.79-.57-.97"/>
        <path class="cls-4" d="m407.87,376c.69-.22,1.36-.5,2-.85.43,1.03-.14,2.35-1.18,2.75-.21-.33-.24-.74-.31-1.12s-.23-.79-.57-.97"/>
        <path class="cls-4" d="m405.48,379.45c.69-.22,1.36-.5,2-.85.43,1.03-.14,2.35-1.18,2.75-.21-.33-.24-.74-.31-1.12s-.23-.79-.57-.97"/>
        <path class="cls-4" d="m402.98,383.07c.69-.22,1.36-.5,2-.85.43,1.03-.14,2.35-1.18,2.75-.21-.33-.24-.74-.31-1.12s-.23-.79-.57-.97"/>
        <path class="cls-4" d="m400.59,386.53c.69-.22,1.36-.5,2-.85.43,1.03-.14,2.35-1.18,2.75-.21-.33-.24-.74-.31-1.12s-.23-.79-.57-.97"/>
        <path class="cls-4" d="m398.09,390.14c.69-.22,1.36-.5,2-.85.43,1.03-.14,2.35-1.18,2.75-.21-.33-.24-.74-.31-1.12s-.23-.79-.57-.97"/>
        <path class="cls-4" d="m395.7,393.6c.69-.22,1.36-.5,2-.85.43,1.03-.14,2.35-1.18,2.75-.21-.33-.24-.74-.31-1.12s-.23-.79-.57-.97"/>
        <path class="cls-4" d="m393.2,397.22c.69-.22,1.36-.5,2-.85.43,1.03-.14,2.35-1.18,2.75-.21-.33-.24-.74-.31-1.12s-.23-.79-.57-.97"/>
        <path class="cls-4" d="m390.81,400.68c.69-.22,1.36-.5,2-.85.43,1.03-.14,2.35-1.18,2.75-.21-.33-.24-.74-.31-1.12s-.23-.79-.57-.97"/>
        <path class="cls-4" d="m390.72,415.94c.69-.22,1.36-.5,2-.85.43,1.03-.14,2.35-1.18,2.75-.21-.33-.24-.74-.31-1.12s-.23-.79-.57-.97"/>
        <path class="cls-4" d="m388.33,404.27c.69-.22,1.36-.5,2-.85.43,1.03-.14,2.35-1.18,2.75-.21-.33-.24-.74-.31-1.12s-.23-.79-.57-.97"/>
        <path class="cls-4" d="m385.83,407.88c.69-.22,1.36-.5,2-.85.43,1.03-.14,2.35-1.18,2.75-.21-.33-.24-.74-.31-1.12s-.23-.79-.57-.97"/>
        <path class="cls-4" d="m383.44,411.34c.69-.22,1.36-.5,2-.85.43,1.03-.14,2.35-1.18,2.75-.21-.33-.24-.74-.31-1.12s-.23-.79-.57-.97"/>
        <path class="cls-4" d="m400.25,380.55c.17.58-.36,1.48-.85,2.19-4.55,6.73-9.18,13.42-13.88,20.05-.28-.59.24-1.63.72-2.48,2.1-3.66,4.35-7.26,6.72-10.77,2.13-3.17,4.86-6.05,7.29-9Z"/>
        <path class="cls-5" d="m429.71,414.35c-1.17.07-2.24.93-2.56,2.06-.19.7-.12,1.47-.46,2.11-.23.43-.61.74-.95,1.09-1.7,1.76-2.18,4.42-3.84,6.23-.41.45-.88.83-1.24,1.32s-.59,1.11-.43,1.7"/>
        <path class="cls-5" d="m426.33,411.79c-1.52.42-2.7,1.89-2.77,3.47-.02.47.04.97-.16,1.4-.1.22-.26.4-.42.57-.78.86-1.56,1.72-2.33,2.59-1.44,1.6-2.89,3.2-4.33,4.8"/>
        <path class="cls-5" d="m423.03,409.84l-.37.65c-1.32,2.34-2.65,4.67-4.13,6.91-.38.57-.76,1.13-1.16,1.68-.46.64-.93,1.27-1.4,1.9"/>
        <path class="cls-5" d="m420.71,407.44c-2.4,2.56-4.48,5.41-6.19,8.47-.36.65-.72,1.32-1.19,1.89-.48.57-1.08,1.04-1.75,1.36"/>
        <path class="cls-5" d="m417.79,404.6c-1.55.69-2.44,2.29-3.25,3.78-1.75,3.21-3.64,6.35-5.65,9.4"/>
      </g>
      <g>
        <path class="cls-2" d="m498.21,391.23c-.09-.71-.18-1.44-.03-2.14.64-2.95,4.55-3.43,7.56-3.62,12.24-.78,23.89-8.02,30.01-18.66,6.75,8.24,10.19,18.82,11.29,29.42,1.09,10.6-.02,21.3-1.54,31.85-.33,2.33-.71,4.73-1.94,6.74-1.41,2.31-3.77,3.86-6.18,5.1-8.3,4.28-19.99,6.71-28.99,3.57.86-19.12-7.69-33.52-10.18-52.26Z"/>
        <path class="cls-3" d="m488.31,461.56c1.83-8.89,5.89-17.6,12.88-23.39,6.83-5.66,15.72-8.02,23.63-12.02,7.16-3.62,13.74-8.68,21.56-10.49,9.06-2.1,18.85.61,26.34,6.13,7.49,5.52,12.81,13.61,16.16,22.29,1.56,4.05,2.62,8.96.07,12.48-1.56,2.15-4.14,3.26-6.59,4.28-27.41,11.35-54.83,22.71-82.24,34.06-3.18,1.32-6.67,2.65-9.97,1.68-7.95-2.35-3.1-28.87-1.83-35.01Z"/>
        <path class="cls-3" d="m514.24,433.93c12.58-5.16,25.17-10.32,37.75-15.48,3.24-1.33,6.86-2.88,8.73-4.62-2.47-1.16-8.39-.1-14.07,1.76-5.68,1.86-11.32,4.42-16.96,6.77-8.9,3.7-24.66,9.34-31.77,14.51-8.37,6.08,11.24-.85,16.32-2.94Z"/>
        <path class="cls-4" d="m505.08,451.3c-1.35-.36-2.74-.6-4.13-.71.38-2.1,2.67-3.66,4.77-3.23,0,.75-.38,1.44-.66,2.14s-.46,1.53-.08,2.18"/>
        <path class="cls-4" d="m512.55,448.19c-1.35-.36-2.74-.6-4.13-.71.38-2.1,2.67-3.66,4.77-3.23,0,.75-.38,1.44-.66,2.14s-.46,1.53-.08,2.18"/>
        <path class="cls-4" d="m520.37,444.93c-1.35-.36-2.74-.6-4.13-.71.38-2.1,2.67-3.66,4.77-3.23,0,.75-.38,1.44-.66,2.14s-.46,1.53-.08,2.18"/>
        <path class="cls-4" d="m527.84,441.81c-1.35-.36-2.74-.6-4.13-.71.38-2.1,2.67-3.66,4.77-3.23,0,.75-.38,1.44-.66,2.14s-.46,1.53-.08,2.18"/>
        <path class="cls-4" d="m535.66,438.55c-1.35-.36-2.74-.6-4.13-.71.38-2.1,2.67-3.66,4.77-3.23,0,.75-.38,1.44-.66,2.14s-.46,1.53-.08,2.18"/>
        <path class="cls-4" d="m543.13,435.43c-1.35-.36-2.74-.6-4.13-.71.38-2.1,2.67-3.66,4.77-3.23,0,.75-.38,1.44-.66,2.14s-.46,1.53-.08,2.18"/>
        <path class="cls-4" d="m550.95,432.17c-1.35-.36-2.74-.6-4.13-.71.38-2.1,2.67-3.66,4.77-3.23,0,.75-.38,1.44-.66,2.14s-.46,1.53-.08,2.18"/>
        <path class="cls-4" d="m558.42,429.05c-1.35-.36-2.74-.6-4.13-.71.38-2.1,2.67-3.66,4.77-3.23,0,.75-.38,1.44-.66,2.14s-.46,1.53-.08,2.18"/>
        <path class="cls-4" d="m499.34,462.27c-1.35-.36-2.74-.6-4.13-.71.38-2.1,2.67-3.66,4.77-3.23,0,.75-.38,1.44-.66,2.14s-.46,1.53-.08,2.18"/>
        <path class="cls-4" d="m506.82,459.15c-1.35-.36-2.74-.6-4.13-.71.38-2.1,2.67-3.66,4.77-3.23,0,.75-.38,1.44-.66,2.14s-.46,1.53-.08,2.18"/>
        <path class="cls-4" d="m514.63,455.89c-1.35-.36-2.74-.6-4.13-.71.38-2.1,2.67-3.66,4.77-3.23,0,.75-.38,1.44-.66,2.14s-.46,1.53-.08,2.18"/>
        <path class="cls-4" d="m522.11,452.77c-1.35-.36-2.74-.6-4.13-.71.38-2.1,2.67-3.66,4.77-3.23,0,.75-.38,1.44-.66,2.14s-.46,1.53-.08,2.18"/>
        <path class="cls-4" d="m529.92,449.52c-1.35-.36-2.74-.6-4.13-.71.38-2.1,2.67-3.66,4.77-3.23,0,.75-.38,1.44-.66,2.14s-.46,1.53-.08,2.18"/>
        <path class="cls-4" d="m537.4,446.4c-1.35-.36-2.74-.6-4.13-.71.38-2.1,2.67-3.66,4.77-3.23,0,.75-.38,1.44-.66,2.14s-.46,1.53-.08,2.18"/>
        <path class="cls-4" d="m545.21,443.14c-1.35-.36-2.74-.6-4.13-.71.38-2.1,2.67-3.66,4.77-3.23,0,.75-.38,1.44-.66,2.14s-.46,1.53-.08,2.18"/>
        <path class="cls-4" d="m552.69,440.02c-1.35-.36-2.74-.6-4.13-.71.38-2.1,2.67-3.66,4.77-3.23,0,.75-.38,1.44-.66,2.14s-.46,1.53-.08,2.18"/>
        <path class="cls-4" d="m518.98,462.65c-1.35-.36-2.74-.6-4.13-.71.38-2.1,2.67-3.66,4.77-3.23,0,.75-.38,1.44-.66,2.14s-.46,1.53-.08,2.18"/>
        <path class="cls-4" d="m526.46,459.54c-1.35-.36-2.74-.6-4.13-.71.38-2.1,2.67-3.66,4.77-3.23,0,.75-.38,1.44-.66,2.14s-.46,1.53-.08,2.18"/>
        <path class="cls-4" d="m534.27,456.28c-1.35-.36-2.74-.6-4.13-.71.38-2.1,2.67-3.66,4.77-3.23,0,.75-.38,1.44-.66,2.14s-.46,1.53-.08,2.18"/>
        <path class="cls-4" d="m541.75,453.16c-1.35-.36-2.74-.6-4.13-.71.38-2.1,2.67-3.66,4.77-3.23,0,.75-.38,1.44-.66,2.14s-.46,1.53-.08,2.18"/>
        <path class="cls-4" d="m549.56,449.9c-1.35-.36-2.74-.6-4.13-.71.38-2.1,2.67-3.66,4.77-3.23,0,.75-.38,1.44-.66,2.14s-.46,1.53-.08,2.18"/>
        <path class="cls-4" d="m557.04,446.78c-1.35-.36-2.74-.6-4.13-.71.38-2.1,2.67-3.66,4.77-3.23,0,.75-.38,1.44-.66,2.14s-.46,1.53-.08,2.18"/>
        <path class="cls-4" d="m564.85,443.52c-1.35-.36-2.74-.6-4.13-.71.38-2.1,2.67-3.66,4.77-3.23,0,.75-.38,1.44-.66,2.14s-.46,1.53-.08,2.18"/>
        <path class="cls-4" d="m560.45,436.78c-1.35-.36-2.74-.6-4.13-.71.38-2.1,2.67-3.66,4.77-3.23,0,.75-.38,1.44-.66,2.14s-.46,1.53-.08,2.18"/>
        <path class="cls-4" d="m572.33,440.41c-1.35-.36-2.74-.6-4.13-.71.38-2.1,2.67-3.66,4.77-3.23,0,.75-.38,1.44-.66,2.14s-.46,1.53-.08,2.18"/>
        <path class="cls-4" d="m495.71,472.36c-1.35-.36-2.74-.6-4.13-.71.38-2.1,2.67-3.66,4.77-3.23,0,.75-.38,1.44-.66,2.14s-.46,1.53-.08,2.18"/>
        <path class="cls-4" d="m503.52,469.1c-1.35-.36-2.74-.6-4.13-.71.38-2.1,2.67-3.66,4.77-3.23,0,.75-.38,1.44-.66,2.14s-.46,1.53-.08,2.18"/>
        <path class="cls-4" d="m511,465.98c-1.35-.36-2.74-.6-4.13-.71.38-2.1,2.67-3.66,4.77-3.23,0,.75-.38,1.44-.66,2.14s-.46,1.53-.08,2.18"/>
        <path class="cls-4" d="m499.21,480.27c-1.35-.36-2.74-.6-4.13-.71.38-2.1,2.67-3.66,4.77-3.23,0,.75-.38,1.44-.66,2.14s-.46,1.53-.08,2.18"/>
        <path class="cls-4" d="m506.69,477.16c-1.35-.36-2.74-.6-4.13-.71.38-2.1,2.67-3.66,4.77-3.23,0,.75-.38,1.44-.66,2.14s-.46,1.53-.08,2.18"/>
        <path class="cls-4" d="m514.5,473.9c-1.35-.36-2.74-.6-4.13-.71.38-2.1,2.67-3.66,4.77-3.23,0,.75-.38,1.44-.66,2.14s-.46,1.53-.08,2.18"/>
        <path class="cls-4" d="m521.97,470.78c-1.35-.36-2.74-.6-4.13-.71.38-2.1,2.67-3.66,4.77-3.23,0,.75-.38,1.44-.66,2.14s-.46,1.53-.08,2.18"/>
        <path class="cls-4" d="m529.79,467.52c-1.35-.36-2.74-.6-4.13-.71.38-2.1,2.67-3.66,4.77-3.23,0,.75-.38,1.44-.66,2.14s-.46,1.53-.08,2.18"/>
        <path class="cls-4" d="m537.26,464.4c-1.35-.36-2.74-.6-4.13-.71.38-2.1,2.67-3.66,4.77-3.23,0,.75-.38,1.44-.66,2.14s-.46,1.53-.08,2.18"/>
        <path class="cls-4" d="m545.08,461.14c-1.35-.36-2.74-.6-4.13-.71.38-2.1,2.67-3.66,4.77-3.23,0,.75-.38,1.44-.66,2.14s-.46,1.53-.08,2.18"/>
        <path class="cls-4" d="m552.55,458.03c-1.35-.36-2.74-.6-4.13-.71.38-2.1,2.67-3.66,4.77-3.23,0,.75-.38,1.44-.66,2.14s-.46,1.53-.08,2.18"/>
        <path class="cls-4" d="m568.6,433.38c-1.35-.36-2.74-.6-4.13-.71.38-2.1,2.67-3.66,4.77-3.23,0,.75-.38,1.44-.66,2.14s-.46,1.53-.08,2.18"/>
        <path class="cls-4" d="m560.31,454.79c-1.35-.36-2.74-.6-4.13-.71.38-2.1,2.67-3.66,4.77-3.23,0,.75-.38,1.44-.66,2.14s-.46,1.53-.08,2.18"/>
        <path class="cls-4" d="m568.13,451.53c-1.35-.36-2.74-.6-4.13-.71.38-2.1,2.67-3.66,4.77-3.23,0,.75-.38,1.44-.66,2.14s-.46,1.53-.08,2.18"/>
        <path class="cls-4" d="m575.6,448.41c-1.35-.36-2.74-.6-4.13-.71.38-2.1,2.67-3.66,4.77-3.23,0,.75-.38,1.44-.66,2.14s-.46,1.53-.08,2.18"/>
        <path class="cls-4" d="m516.3,480.82c.33-1.12,2.13-2.02,3.66-2.68,14.39-6.18,28.86-12.2,43.38-18.05-.16,1.24-2.08,2.4-3.75,3.26-7.22,3.74-14.6,7.23-22.11,10.47-6.76,2.91-14.18,4.75-21.18,7Z"/>
        <path class="cls-5" d="m503.74,395.36c1.96,1.11,4.61.82,6.28-.67,1.04-.93,1.73-2.26,2.95-2.95.81-.46,1.77-.57,2.68-.78,4.59-1.08,8.14-4.9,12.71-6.1,1.13-.3,2.3-.43,3.38-.84s2.12-1.19,2.46-2.3"/>
        <path class="cls-5" d="m506.55,403.04c2.91.9,6.34-.25,8.1-2.73.53-.74.95-1.61,1.72-2.09.39-.24.84-.37,1.28-.49,2.16-.59,4.32-1.18,6.47-1.76,4-1.09,8.01-2.18,12.01-3.27"/>
        <path class="cls-5" d="m509.87,409.62l1.27-.67c4.57-2.41,9.15-4.82,13.89-6.9,1.2-.53,2.41-1.03,3.63-1.52,1.41-.56,2.83-1.09,4.25-1.62"/>
        <path class="cls-5" d="m511.13,415.93c6.55-1.66,12.89-4.11,18.85-7.29,1.27-.68,2.53-1.39,3.9-1.82,1.37-.43,2.83-.56,4.25-.38"/>
        <path class="cls-5" d="m512.91,423.57c3.23.5,6.34-1.18,9.2-2.75,6.18-3.39,12.5-6.51,18.95-9.35"/>
      </g>
    </g>
  </g>
</svg>