<?xml version="1.0" encoding="UTF-8"?>
<svg id="Layer_2" data-name="Layer 2" xmlns="http://www.w3.org/2000/svg" xmlns:xlink="http://www.w3.org/1999/xlink" viewBox="0 0 601.33 451">
  <defs>
    <style>
      .cls-1, .cls-2, .cls-3, .cls-4, .cls-5, .cls-6, .cls-7 {
        stroke-linecap: round;
        stroke-linejoin: round;
      }

      .cls-1, .cls-2, .cls-4, .cls-5, .cls-6, .cls-7 {
        stroke: #2a3c24;
      }

      .cls-1, .cls-8, .cls-5 {
        fill: none;
      }

      .cls-2, .cls-4, .cls-9 {
        fill: #c59b6d;
      }

      .cls-2, .cls-5, .cls-7 {
        stroke-width: .5px;
      }

      .cls-10 {
        fill: #dbecd9;
      }

      .cls-3 {
        fill: #f9dc5c;
        stroke: #f9dc5c;
      }

      .cls-11 {
        fill: #fcf4d4;
      }

      .cls-12 {
        clip-path: url(#clippath);
      }

      .cls-6, .cls-7 {
        fill: #2a3c24;
      }
    </style>
    <clipPath id="clippath">
      <rect class="cls-8" width="601.33" height="451"/>
    </clipPath>
  </defs>
  <g id="eventcovers">
    <g class="cls-12">
      <rect class="cls-10" width="601.33" height="451"/>
    </g>
  </g>
  <g id="signeringer">
    <g>
      <g>
        <path class="cls-7" d="m190.24,139.65c9.9-9.63,20.89-18.07,31.85-26.49,19.51-14.98,39.76-30.32,63.61-36.29,6.7-1.68,14.55-2.33,19.82,2.15,1.95,1.66,3.33,3.87,4.68,6.04,29.54,47.49,59.11,95.03,85.23,144.49,8.28,15.68,16.36,32.08,17.59,49.76.14,2.08.09,4.42-1.39,5.88-.79.78-1.83,1.35-2.93,1.55-32.67,6.1-60.48,15.08-75.74,25.16-2.12,1.4-41.53,29.44-42.02,31.93,0,0-4.98,2.15-10.02,4.71-15.22,7.73-26.54,6.81-50.85,20.3-14.9,8.27-24.02,20.49-30.51,27.34-8.52,9.01-15.49,16.45-24.99,24.42-11.48-15.31-24.47-24.31-36.25-39.39-36.53-46.77-72.01-100.41-106.59-146.53-2.98-3.98-3.65-9.68-2.24-14.45,1.66-5.6,7.34-9.1,12.98-10.63,5.64-1.54,12.83-6.61,18.44-8.24,7.12-2.07,27.02-10.64,27.02-10.64,14.44-3.05,42.3-13.06,52.14-17.93,19.55-9.67,35.25-18.65,50.16-33.15Z"/>
        <path class="cls-11" d="m169.69,170.51c28.11,45.82,66.78,88.36,95,134.13,6.24,10.13,11.96,21,13.16,32.84,34.53-30.91,82.92-58.29,129.2-56.01-11.27-35.63-30.28-68.22-49.15-100.47-19.73-33.74-39.46-67.49-59.19-101.23-54.23,18.84-87.18,54.63-129.02,90.75-16.28,14.05-36.9,15.3-57.26,20.41-26.25,6.59-52.72,15.29-73.83,32.87,40.42,66.07,89.31,128.12,140.8,185.98,18.64-36.13,59.53-60.57,98.46-72.3"/>
        <path class="cls-5" d="m192.27,184.37c18.22-12.48,43-18.19,53.24-37.76,2.59-4.94,4.01-10.47,7.06-15.14,7.07-10.85,20.92-14.63,33.54-17.57"/>
        <path class="cls-5" d="m224.75,215.86c13-4.32,28.63.51,40.05-7.06,8.31-5.51,11.64-15.88,17.54-23.92,7.53-10.27,19.89-16.85,32.62-17.35"/>
        <path class="cls-5" d="m261.13,250.86c18.23-3.25,35.52-11.65,49.36-23.96,5.36-4.77,11.2-10.5,18.36-10"/>
        <path class="cls-5" d="m68.25,234.82c18.66-10.81,44.6-1.89,62.35-14.14,4.55-3.14,8.16-7.46,12.59-10.76,4.43-3.3,10.26-5.56,15.47-3.72"/>
        <path class="cls-5" d="m91.47,271.36c25.06,3.72,51.51-2.9,71.85-18,5.25-3.9,10.18-8.37,16.15-11.06"/>
        <path class="cls-5" d="m127.16,315.08c15.65.37,31.37-4.72,43.83-14.19,7.95-6.04,15.13-14.06,24.91-16.08"/>
        <path class="cls-5" d="m156.07,352.76c20.88,2.64,39.77-11.51,56.05-24.85,6.41-5.26,12.83-10.51,19.24-15.77"/>
        <path class="cls-1" d="m281.58,291.65c4.01-1.11,7.11-4.95,7.35-9.11.07-1.22-.14-2.56-1.04-3.4s-2.62-.78-3.12.34c.26,1.67.55,3.4,1.53,4.79s2.84,2.3,4.39,1.63c2.15-.92,2.28-3.95,1.58-6.18s-1.9-4.55-1.2-6.78c-.71,1.78-1.08,3.69-1.09,5.61,0,1.3.17,2.65.9,3.72s2.11,1.78,3.35,1.38,1.92-2.13,1.07-3.1c.55,1.7,1.87,3.14,3.53,3.81,1.02-2.51,2.04-5.02,3.06-7.53,1.48,3.2,5.87,4.07,9.2,2.91s5.91-3.77,8.57-6.09,5.78-4.51,9.31-4.53l-2.23.08"/>
      </g>
      <g>
        <path class="cls-9" d="m441.26,177.42c3.28-15.65-8.55-30.66-23.52-36.28-14.81-5.56-32.94,7.66-36.44,23.26-1.79,7.98-4.51,14.26-6.21,21.3-3.91,16.18-24.39,31.27-30.75,31.94-8.72-34.67,14.89-87.12,45.96-120.99,15.29-16.66,39.4-2.37,59.13,8.68,19.73,11.05,39.14,21.8,57.67,34.77,18.52,12.97,40.16,23.56,62.73,22.22,4.9,19.51,3.22,40.83-5.43,58.99-15.63,3.95-31.26,7.9-46.9,11.85-14.41,3.64-29.19,7.31-43.96,5.69-13.77-1.51-26.58-7.52-39.72-11.92-13.14-4.4-27.74-7.16-40.67-2.18-7.31,2.81-13.67,7.96-21.25,9.93s-17.55-1.03-19.05-8.72c-1.17-6,3.29-11.56,7.78-15.72,26.11-24.2,64.38-34.54,99.13-26.79"/>
        <path class="cls-2" d="m415.09,139.67c-17.24-3.3-35.85,10.1-38.18,27.5-.81,6-6.11,13.62-6.58,19.65-1.29,16.91-4.23,31.85.86,48.03,1.87,5.94,3.95,11.49,10.12,12.35s12.5-16.35,13.32-23.04c3.08,3.72,4.71,20.13,14.89,20.12,12.75-4.35.84-18.71,2.31-21.85,2.08,5.79,10.66,22.31,17,20.15,10.27-3.48,9.49-22.64,11.46-28.78,3.08-9.62,20.48-25.14,18.93-35.24-2.66-17.19-25.7-35.37-44.12-38.89Z"/>
        <g>
          <path class="cls-8" d="m380.59,164.57c-.84,3.76-1.89,7.14-2.95,10.4,6.13-10.45,12.41-20.82,18.81-31.12-7.69,4.43-13.95,12.22-15.86,20.73Z"/>
          <path class="cls-8" d="m459.22,47.71c-.75.65-1.41,1.24-1.91,1.77-3.74,3.95-7.34,8.03-10.79,12.22-6.77,8.25-12.94,16.94-18.44,26.01-.3.5-.6,1-.9,1.5,1.17.44,2.34.89,3.5,1.36,8.67-13.15,17.41-26.25,26.15-39.34.78-1.17,1.58-2.35,2.39-3.52Z"/>
          <path class="cls-8" d="m411.56,159.09c-6.85,10.47-13.73,20.95-20.75,31.33,21.33-9.2,45.53-11.86,68.23-6.8l-18.49-6.03c2.9-13.82-5.99-27.13-18.41-33.93-.25.17-.51.31-.79.42-3.25,5.01-6.52,10.01-9.79,15.01Z"/>
          <path class="cls-8" d="m359.37,234.11s-.09-.04-.14-.06c-.02.02-.04.05-.06.07.07,0,.13,0,.2-.01Z"/>
          <path class="cls-6" d="m475.52,35.02c1.2.65,2.76,1.56,4.12,1.66.59.04,1.46-.42,2.09-.18.17-1.2.29-2.38.3-3.52.06-4.59-4.91-2.23-9.03.56.9.03,1.94,1.18,2.52,1.49Z"/>
          <path class="cls-6" d="m459.22,47.71c-.81,1.17-1.61,2.35-2.39,3.52-8.74,13.08-17.48,26.18-26.15,39.34,6.58,2.66,12.86,5.77,18.28,8.71.02-.03.03-.06.05-.09,5.89-10.34,15.67-19.53,20.73-30.31,2.45-5.22,6.45-15.42,8.64-20.76,1.17-2.86,2.29-6.17,2.97-9.46-.28.11-.59.15-.89.14-.56-.02-1.09-.21-1.62-.41-.85-.33-7.41-2.37-7.05-4.02-1.37.99-2.57,1.95-3.33,2.6-.2.17-.38.35-.57.52-.02.27-.05.57-.13.92-.62,2.93-5.37,6.55-8.55,9.29Z"/>
          <path class="cls-6" d="m353.5,232.21c1.67,1.15,3.66,1.94,5.67,1.91.02-.02.04-.05.06-.07-3.55-1.48-6.35-4.13-7.09-7.91-1.17-6,3.29-11.56,7.78-15.72,9.05-8.39,19.57-15.11,30.9-19.99,7.02-10.38,13.9-20.87,20.75-31.33,3.27-5,6.54-10,9.79-15.01-3.35,1.38-8.11-1.39-11.03-3.28-.34-.22-.73-.48-1.15-.76-4.36.12-8.74,1.51-12.73,3.81-6.4,10.3-12.68,20.67-18.81,31.12-1.18,3.66-2.37,7.18-3.27,10.91-2.62,10.83-9.62,20.68-17.92,26.82-2.7,5.05-5.36,10.13-7.96,15.23.23.06.48.16.75.34,1.56,1.04,2.67,2.85,4.26,3.94Z"/>
          <path class="cls-6" d="m334.82,256.79c-.12-.16-.17-.31-.19-.47-1.84,3.96-3.65,7.93-5.42,11.93,3.04-3.07,5.99-6.21,8.91-9.38-.97-.57-2.7-1.26-3.3-2.07Z"/>
          <path class="cls-6" d="m349.46,233.55c-.94-.84-1.91-1.74-2.33-2.93,0,0,0,0,0-.01-3.95,7.79-7.79,15.63-11.49,23.55.17.48.63.87,1.13,1.1.63.29,1.33.4,1.97.68.49.21.95.56,1.16,1.01,5.89-6.49,11.56-13.18,17.05-20.02-1.38.29-2.84-.08-4.09-.76-1.26-.68-2.34-1.65-3.4-2.61Z"/>
          <path class="cls-6" d="m428.08,87.71c5.5-9.06,11.68-17.76,18.44-26.01,3.44-4.19,7.04-8.27,10.79-12.22.5-.53,1.16-1.12,1.91-1.77,2.56-3.67,5.34-7.24,8.67-10.21.41-6.49-14.5,7.96-16.55,9.97-7.06,6.9-13.27,14.6-18.48,22.88-3.54,5.63-6.61,11.53-9.16,17.63,1.16.39,2.32.8,3.47,1.23.3-.5.6-1,.9-1.5Z"/>
          <path class="cls-6" d="m467.77,38.42c.07-.35.11-.64.13-.92-3.33,2.97-6.11,6.53-8.67,10.21,3.18-2.74,7.93-6.36,8.55-9.29Z"/>
          <path class="cls-3" d="m421.35,144.08c.27-.11.54-.25.79-.42-.13-.07-.26-.14-.38-.21-.13.21-.27.42-.4.62Z"/>
          <path class="cls-3" d="m417.03,141.31c-2.55-.96-5.2-1.35-7.85-1.27.42.28.81.54,1.15.76,2.92,1.9,7.68,4.66,11.03,3.28.13-.21.27-.42.4-.62-1.53-.81-3.11-1.54-4.72-2.14Z"/>
          <path class="cls-3" d="m335.56,253.78c.01.94-1.02,1.74-.93,2.55.34-.72.66-1.45,1-2.17-.04-.12-.07-.25-.07-.38Z"/>
          <path class="cls-3" d="m338.26,258.94c.58-.53,1.17-1.06,1.75-1.58-.01-.15-.06-.29-.12-.42-.59.65-1.18,1.28-1.77,1.93.04.03.1.05.14.08Z"/>
          <path class="cls-3" d="m338.74,255.93c-.63-.27-1.34-.39-1.97-.68-.5-.23-.96-.62-1.13-1.1-.34.72-.67,1.45-1,2.17.02.16.07.31.19.47.61.81,2.34,1.5,3.3,2.07.59-.64,1.19-1.28,1.77-1.93-.21-.45-.67-.79-1.16-1.01Z"/>
          <path class="cls-3" d="m472.55,33.63c-.47.24-.7.49-.75.76.39-.28.8-.57,1.21-.85-.16,0-.31.02-.46.09Z"/>
          <path class="cls-3" d="m481.99,38.26c.65-.69.66-1.34-.2-1.74-.02,0-.04-.01-.06-.02-.1.72-.23,1.44-.38,2.16.24-.09.46-.22.64-.4Z"/>
          <path class="cls-3" d="m478.85,38.4c.52.2,1.06.39,1.62.41.3.01.61-.04.89-.14.15-.73.27-1.45.38-2.16-.63-.24-1.51.23-2.09.18-1.36-.1-2.92-1.01-4.12-1.66-.58-.31-1.62-1.45-2.52-1.49-.41.28-.82.56-1.21.85-.36,1.65,6.2,3.69,7.05,4.02Z"/>
          <path class="cls-3" d="m359.17,234.12c-.74.93-1.47,1.87-2.22,2.8.02,0,.04,0,.06,0,1.33-.29,2.53-1.3,2.85-2.61-.16-.06-.33-.12-.49-.19-.07,0-.13.01-.2.01Z"/>
          <path class="cls-3" d="m347.13,230.61c.45-.89.91-1.79,1.37-2.68-1.29-.32-1.91,1.13-1.37,2.68Z"/>
          <path class="cls-3" d="m353.5,232.21c-1.59-1.09-2.7-2.91-4.26-3.94-.27-.18-.52-.29-.75-.34-.46.89-.91,1.79-1.37,2.68,0,0,0,0,0,.01.42,1.19,1.39,2.08,2.33,2.93,1.07.96,2.14,1.93,3.4,2.61,1.24.67,2.7,1.05,4.09.76.74-.93,1.48-1.86,2.22-2.8-2.01.02-4-.76-5.67-1.91Z"/>
          <path class="cls-2" d="m343.15,195.72c-.02,7.68,2.19,13.95,2.21,21.85,4.36-.88,7-1.84,11.1-4.87,6.8-12.71,13.89-25.28,21.19-37.72,1.05-3.26,2.1-6.64,2.95-10.4,1.91-8.51,8.17-16.29,15.86-20.73,2.05-3.31,4.12-6.61,6.2-9.91-.19-.39-.32-.78-.37-1.16-.37-3.36,6.18-8.77,6.1-9.42.09.23.26.5.47.79,7.18-11.25,14.47-22.44,21.82-33.59-.28-.11.29.11,0,0"/>
          <path class="cls-2" d="m427.17,89.2c-.24-.09.24.09,0,0-2.36,3.92-4.72,7.87-7.88,11.23,1.22-4.23,2.71-8.38,4.41-12.46-.15-.05,1.29.44,0,0"/>
          <path class="cls-2" d="m446.46,103.62c-6.61,11.6-11.13,18.63-18.31,29.88.63,3.43-2.16,7.32-5.85,10.06-.05.04-.11.07-.17.1,12.42,6.79,13.85,24.26,10.95,38.08l19.27,1.4c-23.34-3.65-40.21-1.91-61.54,7.29-8.13,6.07-55.41,25.41-31.59,43.63.05.02.09.04.14.06.18,0,.36,0,.54-.03-.01.07-.04.14-.06.22,3.53,1.3,7.7,1.5,11.33.56,7.58-1.97,13.94-7.12,21.25-9.93,12.93-4.98,27.53-2.21,40.67,2.18s25.94,10.4,39.72,11.92c4.4.48,9.35.36,14.52-.15"/>
          <path class="cls-6" d="m408.86,124.15c1.31,1.77,4.75,4.47,9.36,6.14,3.29,1.19,6.61,2.04,9.91,3.05-.03-.17-.01-.08,0,0s.03.17,0,0c.01.05.01.1.02.16,7.18-11.26,14.19-22.62,20.8-34.23-5.41-2.94-11.69-6.05-18.28-8.71-7.35,11.15-14.64,22.34-21.82,33.59Z"/>
          <path class="cls-6" d="m374.37,185.88c.9-3.73,2.09-7.24,3.27-10.91-7.3,12.45-14.39,25.01-21.19,37.72,8.3-6.14,15.3-15.99,17.92-26.82Z"/>
          <path class="cls-6" d="m396.45,143.85c3.99-2.3,8.37-3.69,12.73-3.81-2.27-1.53-5.44-3.9-6.52-6.1-2.08,3.3-4.15,6.6-6.2,9.91Z"/>
          <path class="cls-6" d="m427.17,89.2c-1.15-.43-2.31-.84-3.47-1.23-1.71,4.07-3.19,8.23-4.41,12.46,3.16-3.36,5.52-7.3,7.88-11.23Z"/>
          <path class="cls-3" d="m408.38,123.36c.08.65-6.46,6.06-6.1,9.42.04.38.17.77.37,1.16,2.06-3.27,4.13-6.53,6.21-9.79-.22-.29-.38-.56-.47-.79Z"/>
          <path class="cls-3" d="m422.14,143.66c.06-.04.11-.06.17-.1,3.68-2.73,6.47-6.63,5.85-10.06-2.12,3.33-4.25,6.65-6.4,9.96.13.07.26.14.38.21Z"/>
          <path class="cls-4" d="m428.13,133.34c.03.17.01.08,0,0h0Z"/>
          <path class="cls-4" d="m428.13,133.34c-.01-.08-.03-.17,0,0h0Z"/>
          <path class="cls-3" d="m418.22,130.29c-4.6-1.67-8.05-4.37-9.36-6.14-2.08,3.26-4.15,6.52-6.21,9.79,1.08,2.2,4.25,4.56,6.52,6.1,2.65-.07,5.3.32,7.85,1.27,1.62.61,3.19,1.33,4.72,2.14,2.15-3.31,4.28-6.63,6.4-9.96,0-.05-.01-.1-.02-.16-3.3-1.02-6.62-1.86-9.91-3.05Z"/>
          <path class="cls-4" d="m359.37,234.11c.16.07.32.12.49.19.02-.07.04-.14.06-.22-.18.02-.36.02-.54.03Z"/>
        </g>
        <path class="cls-2" d="m343.17,195.02c4.6-2.52,9.01-1.58,12.58,2.4,3.57,3.99,4.24,10.5,1.55,15.15-2.28,3.95-6.82,6.26-11.2,5.94-1.31-.09-2.35-1.12-2.45-2.43l-1.37-17.65c.03-3.34.85-2.45.89-3.41"/>
        <path class="cls-2" d="m374.2,209.65c4.37,5.24,4.42,13.95-.67,18.5-4.86,4.33-13.32,3.47-17.35-1.64s0-10.53,5.04-14.66c4.48-3.67,8.49-6.61,13.07-3.07"/>
        <path class="cls-2" d="m410.48,167.36c6.96-2.53,15.74,2.34,19.19,10.64"/>
        <path class="cls-2" d="m350.21,168.84c8.5-.73,12.32-1.06,11.47-.99"/>
        <path class="cls-2" d="m349.27,175.82c9.43-1.62,14.22-2.45,14.47-2.49"/>
        <path class="cls-2" d="m401.81,192.01c-1.93,5.33-.49,11.73,3.55,15.72"/>
        <path class="cls-2" d="m407.44,191.17c3.39,1.58,4.35,6.74,1.77,9.44"/>
        <path class="cls-2" d="m414.66,190.96c2.45,5.36,2.09,11.91-.93,16.96"/>
        <path class="cls-2" d="m383.65,118.72c-3.13-.2-5.24-3.29-4-5.85"/>
      </g>
    </g>
  </g>
</svg>