<?xml version="1.0" encoding="UTF-8"?>
<svg id="Layer_2" data-name="Layer 2" xmlns="http://www.w3.org/2000/svg" viewBox="0 0 601.33 451">
  <defs>
    <style>
      .cls-1 {
        fill: #fbf3d3;
        stroke-linecap: round;
        stroke-linejoin: round;
        stroke-width: .75px;
      }

      .cls-1, .cls-2 {
        stroke: #2a3c24;
      }

      .cls-3 {
        fill: #a690a4;
      }

      .cls-4 {
        fill: #f9dc5c;
        stroke: #f9dc5c;
      }

      .cls-4, .cls-2, .cls-5 {
        stroke-miterlimit: 10;
      }

      .cls-2 {
        fill: #2a3c24;
      }

      .cls-5 {
        fill: none;
        stroke: #000;
        stroke-width: .5px;
      }
    </style>
  </defs>
  <g id="stående_skrivemaskine" data-name="stående skrivemaskine">
    <rect class="cls-3" width="601.33" height="451"/>
    <g>
      <path class="cls-1" d="m390.64,142.95c.52-1.93,1.08-3.9,2.23-5.55,4.82-6.9,15.4-3.94,23.36-1.2,32.36,11.15,70.14,5.01,97.31-15.82,8.54,28.48,6.03,59.42-2.54,87.89-8.57,28.47-22.93,54.83-38.16,80.36-3.36,5.64-6.91,11.4-12.22,15.27-6.1,4.44-13.86,5.88-21.39,6.49-25.98,2.11-58.69-4.18-78.5-21.94,22.75-48.31,16.19-94.58,29.91-145.5Z"/>
      <path class="cls-2" d="m289.6,313.43c14.26-20.91,34.08-38.99,58.29-46.4,23.65-7.23,49.08-3.77,73.75-5.56,22.32-1.62,44.71-7.6,66.78-3.87,25.59,4.32,47.9,21.82,61.26,44.07,13.36,22.25,18.37,48.81,17.67,74.75-.33,12.11-2.88,25.9-13.23,32.2-6.33,3.85-14.16,3.95-21.57,3.93-82.79-.2-165.57-.41-248.36-.61-9.59-.02-20.02-.33-27.46-6.38-17.96-14.6,23.03-77.66,32.89-92.12Z"/>
      <path class="cls-2" d="m386.04,270.14c37.94.23,75.88.46,113.83.68,9.76.06,20.77-.05,27.45-2.52-5.11-5.63-21.5-9.26-38.12-10.57-16.62-1.31-33.91-.77-50.95-.8-26.89-.04-73.54-2.44-97.4,3.23-28.07,6.67,29.86,9.88,45.19,9.97Z"/>
      <path class="cls-4" d="m343.79,305.02c-3.09-2.39-6.39-4.49-9.87-6.27,3.24-5.01,10.81-6.55,15.74-3.2-.8,1.94-2.52,3.31-3.99,4.81-1.47,1.5-2.82,3.44-2.55,5.52"/>
      <path class="cls-4" d="m366.39,305.02c-3.09-2.39-6.39-4.49-9.87-6.27,3.24-5.01,10.81-6.55,15.74-3.2-.8,1.94-2.52,3.31-3.99,4.81-1.47,1.5-2.82,3.44-2.55,5.52"/>
      <path class="cls-4" d="m390.01,305.02c-3.09-2.39-6.39-4.49-9.87-6.27,3.24-5.01,10.81-6.55,15.74-3.2-.8,1.94-2.52,3.31-3.99,4.81s-2.82,3.44-2.55,5.52"/>
      <path class="cls-4" d="m412.61,305.02c-3.09-2.39-6.39-4.49-9.87-6.27,3.24-5.01,10.81-6.55,15.74-3.2-.8,1.94-2.52,3.31-3.99,4.81-1.47,1.5-2.82,3.44-2.55,5.52"/>
      <path class="cls-4" d="m436.23,305.02c-3.09-2.39-6.39-4.49-9.87-6.27,3.24-5.01,10.81-6.55,15.74-3.2-.8,1.94-2.52,3.31-3.99,4.81s-2.82,3.44-2.55,5.52"/>
      <path class="cls-4" d="m458.83,305.02c-3.09-2.39-6.39-4.49-9.87-6.27,3.24-5.01,10.81-6.55,15.74-3.2-.8,1.94-2.52,3.31-3.99,4.81-1.47,1.5-2.82,3.44-2.55,5.52"/>
      <path class="cls-4" d="m482.45,305.02c-3.09-2.39-6.39-4.49-9.87-6.27,3.24-5.01,10.81-6.55,15.74-3.2-.8,1.94-2.52,3.31-3.99,4.81s-2.82,3.44-2.55,5.52"/>
      <path class="cls-4" d="m505.05,305.02c-3.09-2.39-6.39-4.49-9.87-6.27,3.24-5.01,10.81-6.55,15.74-3.2-.8,1.94-2.52,3.31-3.99,4.81s-2.82,3.44-2.55,5.52"/>
      <path class="cls-4" d="m317.25,327.11c-3.09-2.39-6.39-4.49-9.87-6.27,3.24-5.01,10.81-6.55,15.74-3.2-.8,1.94-2.52,3.31-3.99,4.81-1.47,1.5-2.82,3.44-2.55,5.52"/>
      <path class="cls-4" d="m339.85,327.11c-3.09-2.39-6.39-4.49-9.87-6.27,3.24-5.01,10.81-6.55,15.74-3.2-.8,1.94-2.52,3.31-3.99,4.81-1.47,1.5-2.82,3.44-2.55,5.52"/>
      <path class="cls-4" d="m363.47,327.11c-3.09-2.39-6.39-4.49-9.87-6.27,3.24-5.01,10.81-6.55,15.74-3.2-.8,1.94-2.52,3.31-3.99,4.81s-2.82,3.44-2.55,5.52"/>
      <path class="cls-4" d="m386.07,327.11c-3.09-2.39-6.39-4.49-9.87-6.27,3.24-5.01,10.81-6.55,15.74-3.2-.8,1.94-2.52,3.31-3.99,4.81-1.47,1.5-2.82,3.44-2.55,5.52"/>
      <path class="cls-4" d="m409.7,327.11c-3.09-2.39-6.39-4.49-9.87-6.27,3.24-5.01,10.81-6.55,15.74-3.2-.8,1.94-2.52,3.31-3.99,4.81-1.47,1.5-2.82,3.44-2.55,5.52"/>
      <path class="cls-4" d="m432.29,327.11c-3.09-2.39-6.39-4.49-9.87-6.27,3.24-5.01,10.81-6.55,15.74-3.2-.8,1.94-2.52,3.31-3.99,4.81s-2.82,3.44-2.55,5.52"/>
      <path class="cls-4" d="m455.92,327.11c-3.09-2.39-6.39-4.49-9.87-6.27,3.24-5.01,10.81-6.55,15.74-3.2-.8,1.94-2.52,3.31-3.99,4.81-1.47,1.5-2.82,3.44-2.55,5.52"/>
      <path class="cls-4" d="m478.51,327.11c-3.09-2.39-6.39-4.49-9.87-6.27,3.24-5.01,10.81-6.55,15.74-3.2-.8,1.94-2.52,3.31-3.99,4.81s-2.82,3.44-2.55,5.52"/>
      <path class="cls-4" d="m367.42,349.19c-3.09-2.39-6.39-4.49-9.87-6.27,3.24-5.01,10.81-6.55,15.74-3.2-.8,1.94-2.52,3.31-3.99,4.81-1.47,1.5-2.82,3.44-2.55,5.52"/>
      <path class="cls-4" d="m390.01,349.19c-3.09-2.39-6.39-4.49-9.87-6.27,3.24-5.01,10.81-6.55,15.74-3.2-.8,1.94-2.52,3.31-3.99,4.81s-2.82,3.44-2.55,5.52"/>
      <path class="cls-4" d="m413.64,349.19c-3.09-2.39-6.39-4.49-9.87-6.27,3.24-5.01,10.81-6.55,15.74-3.2-.8,1.94-2.52,3.31-3.99,4.81s-2.82,3.44-2.55,5.52"/>
      <path class="cls-4" d="m436.23,349.19c-3.09-2.39-6.39-4.49-9.87-6.27,3.24-5.01,10.81-6.55,15.74-3.2-.8,1.94-2.52,3.31-3.99,4.81s-2.82,3.44-2.55,5.52"/>
      <path class="cls-4" d="m459.86,349.19c-3.09-2.39-6.39-4.49-9.87-6.27,3.24-5.01,10.81-6.55,15.74-3.2-.8,1.94-2.52,3.31-3.99,4.81s-2.82,3.44-2.55,5.52"/>
      <path class="cls-4" d="m482.45,349.19c-3.09-2.39-6.39-4.49-9.87-6.27,3.24-5.01,10.81-6.55,15.74-3.2-.8,1.94-2.52,3.31-3.99,4.81s-2.82,3.44-2.55,5.52"/>
      <path class="cls-4" d="m506.08,349.19c-3.09-2.39-6.39-4.49-9.87-6.27,3.24-5.01,10.81-6.55,15.74-3.2-.8,1.94-2.52,3.31-3.99,4.81-1.47,1.5-2.82,3.44-2.55,5.52"/>
      <path class="cls-4" d="m501.97,327.11c-3.09-2.39-6.39-4.49-9.87-6.27,3.24-5.01,10.81-6.55,15.74-3.2-.8,1.94-2.52,3.31-3.99,4.81s-2.82,3.44-2.55,5.52"/>
      <path class="cls-4" d="m528.67,349.19c-3.09-2.39-6.39-4.49-9.87-6.27,3.24-5.01,10.81-6.55,15.74-3.2-.8,1.94-2.52,3.31-3.99,4.81-1.47,1.5-2.82,3.44-2.55,5.52"/>
      <path class="cls-4" d="m297.06,349.19c-3.09-2.39-6.39-4.49-9.87-6.27,3.24-5.01,10.81-6.55,15.74-3.2-.8,1.94-2.52,3.31-3.99,4.81-1.47,1.5-2.82,3.44-2.55,5.52"/>
      <path class="cls-4" d="m320.68,349.19c-3.09-2.39-6.39-4.49-9.87-6.27,3.24-5.01,10.81-6.55,15.74-3.2-.8,1.94-2.52,3.31-3.99,4.81s-2.82,3.44-2.55,5.52"/>
      <path class="cls-4" d="m343.28,349.19c-3.09-2.39-6.39-4.49-9.87-6.27,3.24-5.01,10.81-6.55,15.74-3.2-.8,1.94-2.52,3.31-3.99,4.81-1.47,1.5-2.82,3.44-2.55,5.52"/>
      <path class="cls-4" d="m297.57,373.33c-3.09-2.39-6.39-4.49-9.87-6.27,3.24-5.01,10.81-6.55,15.74-3.2-.8,1.94-2.52,3.31-3.99,4.81s-2.82,3.44-2.55,5.52"/>
      <path class="cls-4" d="m320.17,373.33c-3.09-2.39-6.39-4.49-9.87-6.27,3.24-5.01,10.81-6.55,15.74-3.2-.8,1.94-2.52,3.31-3.99,4.81-1.47,1.5-2.82,3.44-2.55,5.52"/>
      <path class="cls-4" d="m343.79,373.33c-3.09-2.39-6.39-4.49-9.87-6.27,3.24-5.01,10.81-6.55,15.74-3.2-.8,1.94-2.52,3.31-3.99,4.81s-2.82,3.44-2.55,5.52"/>
      <path class="cls-4" d="m366.39,373.33c-3.09-2.39-6.39-4.49-9.87-6.27,3.24-5.01,10.81-6.55,15.74-3.2-.8,1.94-2.52,3.31-3.99,4.81s-2.82,3.44-2.55,5.52"/>
      <path class="cls-4" d="m390.01,373.33c-3.09-2.39-6.39-4.49-9.87-6.27,3.24-5.01,10.81-6.55,15.74-3.2-.8,1.94-2.52,3.31-3.99,4.81s-2.82,3.44-2.55,5.52"/>
      <path class="cls-4" d="m412.61,373.33c-3.09-2.39-6.39-4.49-9.87-6.27,3.24-5.01,10.81-6.55,15.74-3.2-.8,1.94-2.52,3.31-3.99,4.81-1.47,1.5-2.82,3.44-2.55,5.52"/>
      <path class="cls-4" d="m436.23,373.33c-3.09-2.39-6.39-4.49-9.87-6.27,3.24-5.01,10.81-6.55,15.74-3.2-.8,1.94-2.52,3.31-3.99,4.81-1.47,1.5-2.82,3.44-2.55,5.52"/>
      <path class="cls-4" d="m458.83,373.33c-3.09-2.39-6.39-4.49-9.87-6.27,3.24-5.01,10.81-6.55,15.74-3.2-.8,1.94-2.52,3.31-3.99,4.81s-2.82,3.44-2.55,5.52"/>
      <path class="cls-4" d="m526.61,327.11c-3.09-2.39-6.39-4.49-9.87-6.27,3.24-5.01,10.81-6.55,15.74-3.2-.8,1.94-2.52,3.31-3.99,4.81s-2.82,3.44-2.55,5.52"/>
      <path class="cls-4" d="m482.28,373.33c-3.09-2.39-6.39-4.49-9.87-6.27,3.24-5.01,10.81-6.55,15.74-3.2-.8,1.94-2.52,3.31-3.99,4.81s-2.82,3.44-2.55,5.52"/>
      <path class="cls-4" d="m505.91,373.33c-3.09-2.39-6.39-4.49-9.87-6.27,3.24-5.01,10.81-6.55,15.74-3.2-.8,1.94-2.52,3.31-3.99,4.81-1.47,1.5-2.82,3.44-2.55,5.52"/>
      <path class="cls-4" d="m528.5,373.33c-3.09-2.39-6.39-4.49-9.87-6.27,3.24-5.01,10.81-6.55,15.74-3.2-.8,1.94-2.52,3.31-3.99,4.81s-2.82,3.44-2.55,5.52"/>
      <path class="cls-4" d="m340.99,393.09c2.05-2.52,7.64-2.91,12.3-2.96,43.7-.44,87.41-.41,131.1.1-1.75,3.01-7.93,3.94-13.17,4.37-22.6,1.87-45.38,2.94-68.18,3.21-20.53.24-41.61-3-62.05-4.72Z"/>
      <path class="cls-5" d="m400.44,159.54c3.85,4.95,10.97,7.07,16.9,5.02,3.68-1.27,6.89-3.97,10.76-4.42,2.59-.3,5.17.44,7.74.86,12.99,2.14,26.23-3.87,39.27-2.07,3.22.44,6.37,1.36,9.62,1.46s6.74-.79,8.81-3.29"/>
      <path class="cls-5" d="m399.43,182.32c6.52,5.45,16.59,6.16,23.81,1.66,2.16-1.34,4.17-3.13,6.67-3.55,1.26-.21,2.56-.04,3.83.12,6.19.8,12.38,1.61,18.56,2.41,11.48,1.49,22.96,2.98,34.44,4.48"/>
      <path class="cls-5" d="m400.9,202.83c1.32-.12,2.65-.24,3.97-.36,14.37-1.29,28.75-2.58,43.17-2.85,3.66-.07,7.32-.07,10.97-.01,4.23.07,8.45.23,12.68.39"/>
      <path class="cls-5" d="m397.37,220.44c18.64,2.77,37.61,3.27,56.37,1.48,3.99-.38,8.01-.86,12.01-.49,3.98.37,7.89,1.6,11.36,3.59"/>
      <path class="cls-5" d="m393.75,242.02c7.77,4.75,17.59,3.77,26.65,2.8,19.55-2.08,39.18-3.33,58.84-3.73"/>
    </g>
  </g>
</svg>