<?xml version="1.0" encoding="UTF-8"?>
<svg id="Layer_2" data-name="Layer 2" xmlns="http://www.w3.org/2000/svg" viewBox="0 0 53.31 61.51">
  <defs>
    <style>
      .cls-1, .cls-2 {
        stroke: #000;
        stroke-miterlimit: 10;
      }

      .cls-2 {
        fill: none;
        stroke-width: 4px;
      }
    </style>
  </defs>
  <g id="Layer_8" data-name="Layer 8">
    <path class="cls-2" d="m1.58,57.59c4.6-5.92,9.91-11.54,16.66-14.78s15.21-3.74,21.51.31c6.04,3.88,9.04,10.98,11.69,17.65"/>
    <path class="cls-1" d="m43.93,10.12c2.64,2.57,2.95,7.16.68,10.06s-6.81,3.7-9.93,1.75c.59-3.58-.16-7.23-.18-10.85s.94-7.62,3.93-9.67,8.2-.49,8.37,3.13"/>
    <path class="cls-1" d="m18.93,10.12c2.64,2.57,2.95,7.16.68,10.06-2.27,2.9-6.81,3.7-9.93,1.75.59-3.58-.16-7.23-.18-10.85s.94-7.62,3.93-9.67,8.2-.49,8.37,3.13"/>
  </g>
</svg>