<?xml version="1.0" encoding="UTF-8"?>
<svg id="Layer_2" data-name="Layer 2" xmlns="http://www.w3.org/2000/svg" viewBox="0 0 2250.47 1241.14">
  <defs>
    <style>
      .cls-1 {
        fill: #f9dc5c;
      }

      .cls-2 {
        fill: #8c6239;
      }

      .cls-3 {
        fill: #13abb8;
      }

      .cls-4 {
        fill: #2a3c24;
      }

      .cls-5 {
        stroke: #000;
      }

      .cls-5, .cls-6, .cls-7, .cls-8, .cls-9, .cls-10 {
        fill: none;
      }

      .cls-5, .cls-6, .cls-7, .cls-8, .cls-10 {
        stroke-miterlimit: 10;
      }

      .cls-6 {
        stroke: #c69c6d;
      }

      .cls-7 {
        stroke: #158689;
      }

      .cls-11 {
        fill: #c2eabd;
      }

      .cls-12 {
        fill: #a690a4;
      }

      .cls-13 {
        fill: #c69c6d;
      }

      .cls-14 {
        fill: #e6e6e6;
      }

      .cls-15 {
        fill: #fcf4d4;
      }

      .cls-8 {
        stroke: #f7931e;
      }

      .cls-16 {
        fill: #b3b3b3;
      }

      .cls-17 {
        fill: #ff7bac;
        opacity: .31;
      }

      .cls-10 {
        stroke: #2a3c24;
      }
    </style>
  </defs>
  <g id="Layer_1-2" data-name="Layer 1">
    <g>
      <path class="cls-4" d="m1514.99,1110.69c-1.47-2.39-3.55,5.09-3.75,5.83-.82,3.07-1.8,5.66-1.79,8.92,0,1.54,0,3.07,0,4.61,0,1.88.64,3.4.61,5.23-.02,1.64,0,3.28,0,4.92,0,.8-.1,1.68-.01,2.47.1.87.52,1.3.65,2.11.23,1.45.3,2.49.73,3.89.41,1.35,1.5,2.69,2.32,3.82,1.61,2.22,3.42,4.42,5.06,6.63.79,1.07,2.16,2.1,3.11,3.07.98,1.02,2.51,2.04,3.82,2.53,3.03,1.13,5.5,2.83,8.17,4.52s5.33,3.56,8.12,5.24c2.5,1.51,5.1,2.87,7.4,4.75.91.74,1.71,1.32,2.6,1.98.46.34.73.93,1.2,1.26.65.47,1.62.74,2.34,1.21,2.51,1.65,4.56,3.83,7.22,5.24,5.64,2.98,11.43,6.33,17.35,8.88,2.88,1.24,5.42,3.01,8.14,4.32,1.37.66,2.82,1.07,4.18,1.84,1.23.7,2.76,1.19,3.92,1.99.98.67,1.73,1.42,2.78,2.01,1.65.92,3.45,1.95,5.09,2.78,2.67,1.35,5.26,2.55,7.82,3.98,3.16,1.77,6.5,3.16,9.54,5.07,1.42.89,3.07,1.41,4.5,2.3,1.42.89,2.78,2,4.19,2.92,2.36,1.54,4.69,3.56,7.16,4.77,2.82,1.37,5.49,3.15,8.32,4.63,2.58,1.35,5.68,3.21,8.5,4.08s5.86,2.02,8.86,2.55c1.56.27,3.52-.2,4.95-.63,1.08-.32,2.49-.77,3.51-1.38,2.4-1.45,4.6-2.8,6.9-4.49,1.97-1.45,4.25-2.3,6.01-4.13,1.73-1.8,3.97-3.03,5.81-4.6,2.57-2.19,4.79-4.63,7.56-6.62,2.69-1.93,5.82-3.06,8.28-5.35,4.6-4.25,9.91-7.29,15.03-10.95,1.06-.76,2.01-1.69,3.07-2.46,1.12-.81,2.22-1.77,3.31-2.61,2.37-1.82,4.44-4.21,6.71-6.15,4.53-3.88,9.47-7.37,14.19-11.06,4.31-3.37,8.8-6.21,13.41-9,4.75-2.87,9.66-5.89,14.51-8.51,2.97-1.6,5.46-3.45,8.16-5.39,1-.72,1.92-1.3,2.9-2.02.44-.32,1.07-.58,1.54-.91.71-.49,1.43-1.13,2.16-1.55,2.13-1.22,4.13-2.73,6.12-4.29,2.09-1.63,4.47-3.2,5.96-5.45.47-.71,1.52-2.46,1.34-3.33-.13-.64-.71-.91-1.12-1.37-.55-.62-.74-1.22-1.22-1.86-.68-.92-1.56-2.09-2.31-2.93-.91-1.02-2.25-1.57-3.24-2.59-1.81-1.85-4.52-2.34-6.61-3.85-2.09-1.5-3.76-3.41-4.76-5.69-.37-.84-1.37-2.51-1.04-3.48.18-.52.86-.88,1.19-1.33.75-1.04.81-1.23,1.86-1.94,1.08-.74,1.92-1.48,3.04-2.15,1.3-.78,2.91-1.39,4.02-2.3s1.34-2.24.31-3.09-2.59-1.15-3.7-1.83c-.43-.26-.79-.69-1.21-.94-.66-.39-1.47-.5-2.18-.88-.82-.45-1.7-1.06-2.48-1.57-.6-.39-1.46-.66-1.99-1.05-1.99-1.47-4.01-2.71-6.03-4.17-2.67-1.93-5.25-3-8.28-4.3-1.2-.51-2.04-.98-3.29-1.29s-2.37-1.14-3.58-1.63c-3.06-1.26-6.26-2.03-9.34-3.3-2.17-.9-4.74-2.14-6.68-3.44-2.41-1.62-4.58-3.65-7.07-5.24-5.24-3.33-10.38-6.5-15.5-10-2.41-1.64-5.07-2.96-7.55-4.43-.99-.59-1.85-1.47-2.87-2.02-1.18-.63-2.46-1.32-3.69-1.85-2.83-1.21-5.48-2.36-8.33-3.13-3.07-.84-5.72-1.41-8.78-2.55-1.21-.45-2.41-.78-3.69-1.22-1.07-.36-2.12-1.28-3.19-1.73-2.74-1.14-6.21-1.92-8.98-2.98-3.09-1.18-5.53-1.92-8.86-1.92-1.73,0-3.34.11-4.95.6-1.08.32-2.49.77-3.51,1.38-5.57,3.38-11.65,6.18-17.84,8.62-6.33,2.49-12.58,5.09-18.87,7.85-1.03.45-2.1.48-3.12.89-.92.37-1.6,1.08-2.44,1.58-1.67.97-3.51,1.72-5.23,2.6-3.87,1.96-7.69,4.01-11.54,6-1.88.97-3.66,2.08-5.53,3.07-2,1.05-4,2.04-5.96,3.09s-4.13,1.5-6.16,2.12c-2.18.66-4.1,2.06-6.3,2.65-4.28,1.14-8.26,2.91-12.48,4.3-3.71,1.22-7.88,2.35-11.34,4.13-1.79.92-3.7,1.33-5.54,2.16-1.7.76-3.47,1.35-5.22,1.97-1.58.56-3.1,1.58-4.61,2.32-.88.43-1.62,1.05-2.46,1.48s-1.87.63-2.78,1.13c-2.93,1.58-6,3.3-8.73,5.21-1.3.91-2.47,1.89-3.86,2.63-1.29.69-2.5,2.31-4-1.23Z"/>
      <path class="cls-15" d="m1795.96,1108.23c-1.23.25-1.58,1.93-2,2.92-.3.7-.4,1.19-.6,2-.11.46-.42.71-.51,1.23s.16,1.06.06,1.56c-.15.71-.53,1.09-.67,1.8-.18.95.37,1.08.51,1.69.17.79.08,1.51.12,2.32.05,1.1.51,1.99.63,3.07.18,1.56.85,3.08,1.23,4.61.34,1.39.51,3.3,1.37,4.47.76,1.04,1.87,1.36,2.78,2.14.89.76,1.9,1.75,2.54,2.68,1.62,2.36-1.2,4.24-2.85,5.92-.91.93-1.93,1.55-2.99,2.24-1.41.91-2.58,2.06-3.94,3.17-2.19,1.81-3.98,4.04-6.43,5.49-2.76,1.62-4.94,3.73-7.69,5.41-1.3.79-2.69,1.19-3.95,1.97-1.4.87-2.74,1.94-4.08,2.94-2.45,1.84-4.75,3.39-7.21,5.23-1.27.95-2.5,2.01-3.81,2.9-1.64,1.12-3.58,1.71-5.26,2.77-2.92,1.83-5.88,3.86-8.75,5.86-1.11.77-2.12,1.55-3.35,2.26-1.64.95-3.16,2.14-4.78,3.12-3.21,1.95-6.62,3.35-9.84,5.36-1.34.84-2.65,1.69-4,2.53-.82.51-1.6,1.29-2.46,1.72-1,.5-1.8.76-2.77,1.44-2.76,1.93-5.38,3.54-7.98,5.67-2.89,2.36-5.76,5.1-8.93,7.16-2.98,1.94-5.95,3.8-8.9,5.77-5.19,3.47-10.11,8.96-16.25,10.51-1.25.32-2.68,1.1-4.08.27-1.34-.79-1.57-2-1.96-3.27-.39-1.28-1.4-2.7-1.66-4.13-.29-1.61-.4-3-.8-4.61s-1.11-3.15-1.09-4.92c.02-1.89-.59-3.42-.62-5.23-.03-1.53,0-3.08,0-4.61,0-.82.01-1.64,0-2.46-.02-1.17.41-1.46.64-2.43.17-.74-.04-1.59.11-2.35.07-.38.41-1.19.54-1.67.42-1.55.87-2.78,1.62-4.14,1.73-3.18,3.41-5.55,6.01-8.17s5.45-4.37,8.3-6.3c2.69-1.82,5.08-3.79,7.99-5.22,2.93-1.43,5.47-3.37,8.28-4.83,2.93-1.53,5.9-3.22,8.62-5.16,3.06-2.18,6.3-4.05,9.53-5.98,1.31-.78,2.36-1.65,3.69-2.32,1.47-.75,2.89-1.33,4.3-2.31,2.91-2.01,5.86-3.87,8.86-5.69,2.87-1.74,6.04-3.18,8.83-5.07,2.38-1.62,4.47-3.46,6.88-4.92,2.85-1.73,5.91-3.16,8.95-4.7,2.4-1.21,4.69-2.98,7.03-4.52.59-.39,1.3-.69,1.86-1.08.45-.31.89-.79,1.35-1.09,1.12-.73,2.82-.91,4.03-1.52,2.35-1.18,4.83-2.5,7.28-3.46,1.45-.57,2.7-1.28,3.97-2.23,1.15-.86,2.47-1.33,3.66-2.15,2.09-1.44,4.1-3.3,8.61-3.69Z"/>
      <path class="cls-1" d="m1530.36,1071.34c-.43,1.74,2.62,4.9,3.38,6.46,1.17,2.38,2.7,4.22,4.15,6.44,1.55,2.38,3.05,4.54,4.78,6.78,1.91,2.46,3.95,4.69,5.9,7.05,1.72,2.09,3.59,4.1,4.98,6.46.78,1.33,1.63,2.35,2.63,3.45,1.04,1.14,1.6,2.64,2.61,3.81,1.8,2.07,3.63,4.27,5.4,6.54,1.87,2.4,4.09,4.23,6,6.54,1.45,1.75,2.91,3.53,4.4,5.24,1.78,2.04,3.01,4.24,4.63,6.41,3.04,4.05,6.75,7.42,9.83,11.37,3.16,4.05,6.53,8.24,10,12.15,2.91,3.28,6.61,5.62,9.53,8.89,3.34,3.74,6.09,8.11,10.55,10.63,2.43,1.37,4.22,1.84,7.13,1.84,1.3,0,2.53,0,3.69.31s2.69.55,4,.25c4.46-1,7.94-4.07,11.99-6.1,3.93-1.97,7.75-4.18,11.68-6.15,2.02-1.02,3.88-1.96,6.01-2.6,2.53-.75,5.38-2.01,7.82-3.24,2.28-1.15,4.82-2.54,7.21-3.25,2.53-.74,5.27-1.26,7.55-2.6,3.57-2.09,7.53-3.87,11.34-5.53,2.42-1.06,4.95-1.36,7.18-2.38,2.09-.96,4.34-1.72,6.4-2.52,4.25-1.65,8.74-2.68,13.15-4.4.51-.2.67-.46,1.26-.56.71-.12,1.34.07,2.04-.11,1.03-.27,2.05-.99,3.19-1.11,1.21-.13,1.98-.32,3.09-.6.49-.12,1.16-.49,1.59-.56.69-.12,1.41.1,2.1-.02.78-.13,1.36-.58,2.15-.67.6-.07,1.28.17,1.87.05,1.1-.23,2.26-.67,3.36-.95,1.05-.26,2.03-.54,3.06-.94.47-.18.93-.23,1.4-.45.55-.25,1.1-.62,1.66-.78,4.67-1.36,9.34-1.52,13.79-3.75,1.9-.95,3.13-2.15,3.98-4.07-1.86-1.61-3.56-3.47-5.29-5.22-2.09-2.13-4.86-3.66-6.94-5.86-.95-1-1.7-2.18-2.74-3.21-.41-.41-.85-.8-1.23-1.23-.71-.8-.57-.93-.91-1.86-.21-.57-.53-1.09-.78-1.68-.36-.82-.34-1.28-.52-2.25-.13-.72-.53-.95-.57-1.89-.04-.92,0-1.85,0-2.77,0-3.16-.62-6.67,2.29-8.78,1.1-.8,2.42-1.11,3.63-1.6s2.14-1.31,3.28-1.92c1.51-.81,3.35-.93,4.65-1.84.41-.29.89-.86,1.22-1.24.71-.8.56-.95.91-1.86.27-.7.71-.97.68-1.81-.04-.99-.78-1.51-1.27-2.23-.86-1.27-1.67-2.61-2.61-3.82-1.95-2.49-4.51-4.45-6.46-7-1.7-2.23-3.4-4.32-5.22-6.48-3.63-4.29-6.4-8.87-10.45-12.93-4.33-4.33-7.99-9.22-12.3-13.53-2-2-3.77-4.05-5.96-5.82-2.48-2.01-5.06-3.92-7.53-5.86-1.39-1.08-2.52-1.85-3.69-3.2-1.27-1.47-2.49-2.96-3.87-4.33-1.13-1.12-1.85-2.4-2.92-3.53-.94-1-1.95-1.95-2.92-2.92-2.37-2.38-5.2-4.14-7.4-6.72-.86-1.01-1.86-2.1-2.89-2.96-.52-.44-1.52-1.36-2.15-1.57-.8-.27-1.99.27-2.49-.63-1.21.46-2.49.59-3.75,1.2-.68.33-1.45.84-2.23,1.02s-1.59.59-2.2.7c-.87.15-1.72-.05-2.58.19-.29.08-.29.41-.72.51-.41.09-.89-.16-1.3-.07-.59.14-1.21.47-1.81.65-.83.24-1.58.53-2.44.63-3.6.43-7.06,1.21-10.77,1.21-1.69,0-3.57-.24-5.24-.01-1.39.19-2.97.78-4.29,1.24-.51.18-1.29.53-1.81.65-.41.09-.89-.16-1.3-.07-.48.11-.52.5-.94.6-.71.16-1.45.2-2.1.36-.75.19-1.71.44-2.46.62-.54.13-1.31.48-1.85.61-.71.17-1.54.29-2.32.45-1.53.3-3.35,1.44-5.06,1.74-.79.14-1.67-.2-2.46-.06-.9.16-1.51.62-2.46.66-1.76.08-3.02.63-4.92.6-1.13-.02-1.36.4-2.21.56-.91.17-1.8-.05-2.71.19s-1.53.35-2.47.46-1.46.53-2.43.65c-3.04.37-6.13,1.21-9.1,1.96-.19.05-.42.44-.72.51-.51.12-1.08-.15-1.59-.06-.68.13-1.14.47-1.8.66-1.87.53-3.85.63-5.86.6-1.45-.02-2.74.46-4.17.75-.64.13-1.09.5-1.98.48-1.17-.03-1.44.33-2.43.63-3.33,1.02-6.69,1.08-10.12,1.89-.58.14-1.41.49-2.07.69-.72.22-1.12.36-2,.46-.78.1-1.09.49-1.8.66-.93.22-2.14-.1-3.11-.05-1.52.08-3.51.56-4.92.94-.77.2-1.25.28-2.15.3-1.15.03-1.97.48-3.07.64-.93.13-1.55.34-2.46.55-.52.12-1.07-.1-1.57.02-.28.06-.56.48-.72.51-1.67.37-3.21.35-4.82.72-.55.12-1.27.44-1.8.63-.84.3-1.7.38-2.51.61-1.42.42-2.03,1.51-3.18,2.34-.69.49-1.2.56-1.86,1.21s-1.07,1.22-1.54,2.01c-.84,1.42-1.55,2.73-2.15,4.27-.64,1.61-1.27,3.05-1.71,4.61-.24.85-.38,1.62-.61,2.46-.1.37.05.81-.03,1.2-.1.45-.48.73-.59,1.26-.2.96-.2,1.82-.45,2.79-.27,1.03.14,2.11-.11,3.11-.1.42-.43.44-.51.72-.17.61-.05,1.12-.12,1.72-.12.98-.52,1.44-.65,2.43-.51,3.95.01,8.33,3.09,11.7Z"/>
      <path class="cls-15" d="m1762.14,1089.17l.03-.37c-1.15.78-.58,2.57-.64,3.76-.05.94-.43,1.16-.57,1.89-.15.77-.06,1.61-.05,2.41,0,1.54,0,3.07,0,4.61,0,.82.01,1.64,0,2.46-.01.88.34,1.35.48,1.98.16.78-.03,1.55.11,2.32.16.91.62,1.5.66,2.46.07,1.6.63,2.63.6,4.31-.05,2.89,1.2,5.68,1.86,8.28.89,3.49-4.75,3.21-6.8,4-2.5.96-5.35,2.14-7.97,2.78-1.29.32-2.9.86-4.3.94-1.77.1-3.24.18-4.92.58-2.98.72-6.06,1.24-8.91,2.48-1.51.65-3.07,1.28-4.61,1.84-1.42.52-2.85,1.38-4.3,1.71-2.86.66-5.82,1.38-8.58,2.6-1.4.62-2.97.79-4.37,1.21s-2.83,1.33-4.27,1.86c-3.11,1.14-6.21,2.34-9.22,3.84-1.52.76-3.05,1.54-4.56,2.31-1.11.57-2.23.99-3.43,1.53-1.41.63-2.89,1.28-4.31,2-1.59.81-3.25,1.66-4.92,2.15-3.04.9-6.15,1.74-8.91,3.22-2.4,1.29-4.73,2.84-7.21,3.85-2.86,1.16-5.64,2.14-8.24,3.77s-5.48,2.32-8.24,3.62c-2.56,1.21-5.32,2.32-7.96,3.36-1.17.46-2.17.99-3.24,1.54-1.55.79-2.67.75-4.46.77-6.54.07-6.46-9.02-6.46-13.83,0-3.18-.31-6.52.48-9.53.39-1.5-.06-3.09.11-4.61s.66-3.41,1.18-4.92c.94-2.75,2.07-5.22,3.61-7.72,1.67-2.71,3.95-4.23,6.16-6.28,2.07-1.92,4.94-3,7.51-4.29,2.87-1.44,5.54-3.24,8.47-4.3,5.01-1.82,10.29-2.79,15.37-5.55,2.49-1.36,5.17-2.5,7.82-3.83,2.98-1.49,5.73-2.27,8.78-2.9.49-.1,1.36-.46,1.98-.61s1.46-.36,2.1-.54.82-.48,1.58-.57c.89-.11,1.67-.08,2.47-.29.73-.19,1.38-.14,2.18-.28.64-.11.88-.53,1.48-.67,1.53-.37,3.28.33,4.81-.11,5.87-1.66,11.71-4.53,17.66-6.69,2.85-1.04,5.46-2.3,8.3-3.01,2.66-.66,4.98-1.68,7.69-2.78,2.89-1.18,6.13-1.85,8.9-2.73,1.58-.5,3.06-.52,4.63-.94.8-.22,1.32-.3,2.15-.31,1.04,0,1.38-.37,2.21-.56.65-.15,1.42-.07,2.1-.05,1.01.02,1.53-.23,2.46-.48,1.51-.39,3.35-.14,5.53,2.32Z"/>
      <path class="cls-12" d="m1700.05,978.51c-.08.15-.08.27.01.36-.46-.53-4.76,1.41-5.86,1.49-2.29.15-4.24,1.19-6.43,2-1.22.45-2.17.79-3.34,1.13-.65.19-.82.48-1.58.57-.8.1-1.38.08-2.17.29-2.56.69-5.61.31-8.3.31-1.39,0-2.97-.21-4.3.14-.69.18-1.08.46-1.84.49-.88.04-1.27.26-1.98.46-2.46.71-5.43-.2-7.86.44-1.17.31-2.36.33-3.69.31-1.55-.02-2.76.63-4.3.61-.6,0-1.27-.08-1.86-.01-.7.08-1.01.44-1.58.58s-1.19.04-1.79.05c-1.03.01-1.52.36-2.46.57-1.26.27-2.61-.16-3.86.19-.49.14-.7.43-1.35.49-.98.1-1.54.23-2.47.46-1.23.3-2.15.63-3.38.75-1.39.14-2.21.64-3.69.61-1.34-.03-2.2.32-3.38.61-.56.14-1.09.45-1.59.56-.69.16-1.41-.1-2.1.02-.77.13-1.37.58-2.15.67-.6.07-1.24-.12-1.84-.05-1.52.17-2.69.64-4.3.64-2.77,0-5.53,0-8.3,0-1.33,0-2.9-.22-4.17.14-.48.13-.71.42-1.35.49-.79.09-1.67,0-2.47-.01-1.52,0-2.56.45-4,.64-.59.08-1.25-.05-1.85-.03-.86.03-1.2.41-1.89.57-2.49.56-5.05.77-7.63,1.42-1.32.33-2.63.92-4,1.12-.59.09-1.25-.05-1.85-.03-.94.04-1.19.44-1.89.57-2.67.48-5.11.77-7.6,1.9-2.32,1.04-4.73,1.23-7.04,1.9-.59.17-.86.5-1.58.57-.61.06-1.12,0-1.72.12-1.02.22-2.08.9-3.2,1.09-1.28.23-2.31.81-3.45,1.17-1.27.39-2.31.45-3.63.73-2.36.48-4.59.99-5.69,3.18-1.2,2.4-1.38,4.44-1.38,7.22s.38,5.65.02,8.3c-.19,1.44-.65,2.46-.64,4,0,1.43,0,2.87,0,4.3,0,1.4.02,2.66-.31,4-.35,1.41-.1,2.83-.36,4.25-.19,1.03-1,2.26-1.21,3.43s-.15,3.06.17,4.16c.58,2,2.93,4.53,4.49,5.93,1.9,1.7,3.82,3.58,5.67,5.43,1.83,1.83,3.97,3.14,5.95,4.78,3.77,3.12,7.2,6.7,11.25,9.37,1.76,1.16,3.64,2.35,5.45,3.5,2.41,1.53,4.43,3.67,6.88,5.13,4.08,2.43,8.18,5.34,11.94,8.27,2.18,1.7,4.9,3.31,7.26,4.76,1.97,1.22,3.59,2.87,5.5,4.15s4.13,2.34,6.17,3.23c1.18.52,2.34.7,3.56,1.06.98.29,2.15.87,3.18,1.13.67.16,1.49-.13,2.18-.05.79.09,1.37.53,2.15.67,1.06.19,3.31.23,4.34,0,.91-.21,1.91-1.07,2.71-1.57,1.33-.82,2.85-1.05,4.27-1.61,2.22-.88,4.65-1.33,7.14-1.77.56-.1.91-.36,1.35-.48.66-.18,1.31-.04,1.96-.19.45-.1.73-.48,1.26-.59.85-.17,1.63-.06,2.48-.28,2.63-.68,4.94-1.42,7.55-2.3.53-.18,1.09-.28,1.69-.45.45-.13.86-.49,1.27-.58,1.31-.3,2.4-.21,3.61-.67s2.58-.48,3.88-.75c.39-.08,1.17-.41,1.67-.54.71-.19,1.45-.48,2.16-.71,1.24-.4,2.52-.46,3.69-.77.65-.17,1.13-.21,1.86-.29s.95-.39,1.57-.57c5.28-1.5,10.86-1.59,16.24-3,1.21-.32,2.54-.16,3.69-.45,1.22-.31,2.68-.62,3.94-.98.46-.13.73-.45,1.26-.58.66-.16,1.35.08,2.04-.11.44-.12.78-.38,1.35-.48.86-.15,1.63-.3,2.47-.61,2.41-.91,4.8-1.55,7.12-2.38,2.63-.94,5.08-1.46,7.63-1.89s4.7-1.27,7.01-1.94c.94-.27,2.05-.75,2.96-1.04,1.24-.39,2.27-.58,3.56-.88,2.58-.62,4.98-1.73,7.68-2.27,1.25-.25,2.21-.37,3.38-.67,1.09-.27,2.19-.83,3.21-1.09,1.22-.31,2.91-.72,4.17-.77,1.55-.06,2.48-.68,3.83-1.08,1.23-.36,2.58-.46,3.81-.81.46-.13.73-.45,1.26-.58.79-.19,1.68.15,2.48-.03,1.35-.31,2.67-.69,4-1.04,1.41-.37,2.89.1,4.3-.27,2.52-.66,5.23-1.23,7.71-2.25,2.21-.91,4.11-1.81,6.43-2.4,2.59-.66,4.77.5,6.22-2.21.53-1,.76-1.89,1.14-2.86.23-.59.52-.85.66-1.5.14-.68-.08-1.34.11-2.04.17-.58.45-.91.48-1.67.03-.61,0-1.24,0-1.85,0-1.63-.46-2.78-.64-4.3-.16-1.33.23-2.68-.11-4-.38-1.46-.64-2.85-1.11-4.32-.72-2.25-1.1-4.44-1.98-6.73-.9-2.34-1.4-4.21-3.23-6.16-1.67-1.78-3.32-3.46-5.2-5.04-4.36-3.67-9.12-6.75-13.43-10.5-2.17-1.89-4.49-2.59-7.14-3.6-1.08-.41-2.26-.7-3.43-1.15-.71-.28-1.49-.39-2.17-.61-.5-.17-.97-.53-1.48-.65-.64-.15-1.28-.08-1.88-.27-.44-.14-1.06-.41-1.53-.6-1.21-.5-2.58-1.25-3.75-1.5-1.26-.27-2-.22-3.18-.82-.92-.47-1.84-1.07-2.77-1.54-4.48-2.26-9.34-4.08-13.35-7.22-1.81-1.42-3.89-2.54-5.69-3.86-.36-.27-.87-.3-1.26-.58s-.67-.76-1.04-1.08c-.97-.86-2.07-1.64-3.07-2.46-1.91-1.56-3.81-3.3-5.81-4.62-.92-.61-1.85-1.23-2.67-2-.74-.69-1.43-2.01-3.84.15Z"/>
      <path class="cls-15" d="m1549.42,1018.47c.43,1.18,2.69,3.3,3.81,4.15,1.86,1.43,3.95,2.63,5.89,4.01,3.42,2.44,7.14,4.22,10.57,6.59,1.12.77,2.29,1.37,3.4,2.15.95.67,1.92,1.44,2.92,2.02,1.81,1.04,3.2,2.44,4.9,3.69.68.5,1.62.88,2.32,1.37.75.52,1.63.93,2.47,1.38,1.68.9,3.52,1.71,5.07,2.75,1.53,1.03,3.23,2.23,4.59,3.4,1.34,1.15,2.38,2.69,3.83,3.69,3.35,2.3,6.77,4.57,9.97,7.07,1.51,1.18,3.17,2.34,4.78,3.38,1.66,1.08,3.24,2.48,4.82,3.69,2.49,1.91,6.52,6.08,6.9,9.06.32,2.5.02,5.16-1.83,6.93-1.62,1.55-3.3,2.74-4.35,4.75-.33.63-.36,1.8-.6,2.47-.34.96-.49,1.9-.75,2.94-.15.62-.6,1.49-.91,2.11-.93,1.83-2.08,1.71-3.87,1.71-2.17,0-3.57-.83-5.54-1.68-2.16-.93-4.19-1.89-6.16-3.09-3.27-1.98-6.09-4.74-9.34-6.76-1.89-1.17-3.66-2.54-5.54-3.69-2-1.22-4.01-2.54-5.89-3.99-3.38-2.61-6.99-5-10.4-7.38-1.62-1.13-3.42-1.98-5.09-2.92-1.75-.99-3.27-2.09-4.9-3.22-1.64-1.14-3.3-2.24-4.95-3.38-1.76-1.22-3.25-2.99-4.93-4.34-1.66-1.32-3.59-2.18-5.04-3.66-1.3-1.32-2.61-2.97-4.14-4-2.34-1.57-3.1-3.88-3.09-6.61,0-.61-.01-1.23,0-1.84.01-.42.02-.84.03-1.26-.04-.34-.22-.58-.52-.73-.04-1.01.51-1.72.49-2.93-.03-2.44-.33-5.29.6-7.39.55-1.24.5-2.16.77-3.53.17-.89.89-1.93,1.12-2.88.12-.49-.14-1.06-.06-1.56.12-.75.52-1.61.8-2.32.52-1.31,1.07-1.61,2.56-1.31.87.17,2.1.87,2.95,1.04.57.11,1.18-.01,1.74.1.65.14.94.72,1.69.77.04.17.08.33-1.11-.73Z"/>
      <path class="cls-4" d="m1720,1198.42c.13-.67,1.3-.98,1.81-1.25.78-.42,1.42-1.08,2.2-1.5.87-.47,1.48-1.25,2.25-1.86.97-.76,1.86-1.55,2.75-2.4.38-.37.83-.63,1.21-1,.45-.44.9-.64,1.4-.99,1.02-.71,1.9-1.57,2.8-2.42.72-.67,1.63-1.18,2.4-1.79.37-.29.63-.74,1-1.02.45-.35.94-.65,1.4-.99.41-.3.78-.66,1.2-.96.14-.1.27-.09.41-.23.18-.18.2-.44.38-.62s.44-.2.62-.38c.14-.14.24-.31.38-.45.41-.41.87-.72,1.31-1.07s.87-.73,1.31-1.09.97-.61,1.4-1c.83-.73,1.53-1.55,2.39-2.21,1.55-1.19,3.22-2.29,4.81-3.44.75-.55,1.51-1.14,2.2-1.76.4-.35.81-.62,1.2-1,.44-.43.97-.58,1.41-1,.74-.71,1.57-1.45,2.4-2.05.97-.7,1.83-1.51,2.85-2.11.29-.18.49-.21.76-.45.2-.17.38-.29.6-.45.16-.11.25-.24.4-.36.24-.2.46-.28.71-.45.16-.11.53-.29.66-.4.21-.17.23-.33.42-.51.16-.15.63-.32.83-.45.29-.18.52-.4.79-.6.37-.28.84-.39,1.21-.64.41-.27.75-.65,1.18-.91.47-.28.96-.52,1.41-.84.38-.28.64-.62,1.04-.85.93-.55,1.74-1.24,2.67-1.83.85-.54,1.64-1.19,2.5-1.73.38-.24.67-.5,1-.81.37-.35.82-.53,1.21-.85.34-.27.6-.51.99-.75.41-.26.76-.58,1.16-.85.58-.41,1.13-.86,1.69-1.3.23-.18.51-.34.76-.5.35-.22.63-.51,1-.7,2.4-1.26,4.42-3.06,6.58-4.71,1.11-.85,2.26-1.5,3.44-2.2,1.15-.68,2.21-1.54,3.62-1.36,1.23.16,2.13,1.19,2.75,2.21.77,1.27-.51,2.8-1.4,3.75-.93.99-2.08,1.8-3.17,2.61-.66.49-1.31.95-2,1.4-.61.4-1.16.92-1.79,1.3-.68.42-1.4.69-2.01,1.16-.37.28-.82.39-1.2.63s-.76.55-1.16.81c-.69.46-1.32.92-2.04,1.3s-1.41.86-2.06,1.4c-1.14.94-2.35,1.83-3.55,2.65-.63.44-1.36.8-2.01,1.2-.68.43-1.33.95-2.01,1.4-.28.19-.53.42-.8.6-.31.21-.67.39-1,.6-.59.37-1.11.76-1.65,1.16-.25.18-.63.32-.91.49s-.55.34-.84.5c-.63.35-1.16.84-1.72,1.26-1.1.83-2.36,1.37-3.49,2.15-1.22.85-2.3,1.94-3.6,2.71-1.22.72-2.48,1.46-3.64,2.29-1.32.94-2.47,2.06-3.76,3.01-.38.28-.81.53-1.2.8-.32.22-.62.51-.96.71-.69.41-1.38.98-2.06,1.5-1.2.9-2.44,1.67-3.6,2.61-.59.48-1.3.83-1.9,1.32-.31.25-.55.51-.89.73-.2.13-.4.23-.6.35-.25.15-.36.35-.59.51-.3.21-.69.34-1.01.55-.2.13-.4.22-.61.34s-.27.29-.44.41c-.65.47-1.31.98-1.96,1.4-.31.2-.51.5-.79.71-.33.24-.68.45-1.01.7-.59.43-1.16.89-1.79,1.3-1.26.82-2.43,1.83-3.57,2.81-1.05.91-2.17,1.73-3.23,2.59-.63.51-1.32.93-1.97,1.4-.27.2-.55.49-.85.71-.4.29-.77.56-1.2.85-.34.23-.56.49-.89.7-.36.23-.76.42-1.1.69-.82.64-1.66,1.28-2.4,2.01.08-.3-.92-.09-1.1-.3-.22-.27-.47-.39-.75-.64-.31-.29-.45-.46-.61-.85s.38-1.15.05-1.41Z"/>
      <path class="cls-9" d="m1777.08,1107.7c-.25,0-.49,0-.74,0,.19-.05.31.01.34.2"/>
      <path class="cls-4" d="m1792.1,1106.89c.52-.07.65.2,1.05.36.32.13.44.04.7.28.15.14.22.3.41.42.12.08.29.11.41.18.17.12.52.43.61.6.7,1.3-1.57,2.15-2.36,2.61-1.08.64-2.03,1.39-3.16,2.01s-2.36,1.2-3.45,1.95c-1.09.75-2.36,1.25-3.62,1.8s-2.62,1.32-3.95,1.85c-.65.26-1.37.5-2.05.75-.39.15-.81.25-1.2.4-.33.13-.75.29-1.05.36-1.42.34-2.82,1.06-4.17,1.65s-2.76,1.07-4.04,1.75c-.68.36-1.3.74-1.95,1.11-.39.22-.82.38-1.22.55-.26.11-.69.51-.97.37.12-.55.86-.91,1.3-1.19.71-.46,1.39-1.03,2.04-1.58.54-.46,1.12-.78,1.67-1.21.86-.67,1.79-1.26,2.73-1.84s1.88-1.37,2.84-2c.39-.26.8-.51,1.17-.81.81-.66,1.71-1.03,2.6-1.59,1.02-.63,1.94-1.5,3.04-1.97.88-.37,1.73-.91,2.61-1.34,1.44-.71,2.77-1.62,4.16-2.31.36-.18.7-.39,1.05-.6.41-.24.79-.37,1.21-.6s.77-.36,1.19-.55c.27-.12.56-.11.82-.19.17-.05.21-.18.38-.22.28-.06.41-.03.66-.14.19-.08.35-.17.54-.25.46-.2.93-.41.01-.6Z"/>
      <path class="cls-10" d="m1792.7,1119.11l-.05.17c-.08.02-.13-.01-.15-.08-.35.39-.69.64-1.1.91-.34.22-.59.56-.9.81s-.68.39-1,.59c-.95.6-1.9,1.05-2.91,1.52-.54.25-1,.7-1.52.99-.27.15-.55.21-.83.33-.46.2-.62.38-1,.72-.55.49-1.37.7-2.01,1.05-.68.36-1.3.73-1.94,1.15-1.64,1.08-3.48,1.86-5.21,2.77-1.91,1-3.69,2.27-5.57,3.34-.89.5-1.64,1.16-2.5,1.71-.92.58-1.79,1.26-2.55,2.05"/>
      <path class="cls-10" d="m1755.45,1141.54c-.15.67-1.32,1.09-1.8,1.45-.54.4-.99.84-1.59,1.16-.82.43-1.58,1.01-2.41,1.4"/>
      <path class="cls-10" d="m1734.42,1154.96c-.56.19-1,.79-1.51,1.1-.49.3-.97.64-1.45.95-.96.62-1.85,1.31-2.85,1.91-.27.16-.52.25-.76.45-.26.21-.47.4-.8.56-.77.36-1.54.67-2.25,1.14-1.96,1.32-3.96,2.54-6.01,3.71"/>
      <path class="cls-10" d="m1704.58,1173.39c-.12.37-.66.59-.96.85-.24.21-.48.46-.72.67-.3.28-.59.58-.93.83-.35.26-.53.58-.89.85-.75.55-1.57,1.02-2.31,1.59-.36.28-.62.61-1,.86-.42.28-.78.64-1.19.91-.21.14-.48.17-.69.34-.23.18-.38.37-.63.51-.49.28-.85.7-1.33.96-.88.47-1.72,1.09-2.55,1.65-.26.18-.54.22-.81.38s-.52.4-.81.57c-.45.26-.89.56-1.35.8-.57.3-.98.6-1.45,1.05-.38.37-.82.61-1.2,1"/>
      <path class="cls-10" d="m1785.69,1137.94c-.54.18-1.1.68-1.58.99-1.1.73-2.28,1.19-3.44,1.81-.82.43-1.54.99-2.39,1.4-.91.44-1.78,1.03-2.65,1.55-2.11,1.27-4.19,2.64-6.36,3.82-1.06.58-2.1,1.07-3.11,1.75-1.08.73-2.16,1.48-3.3,2.1"/>
      <path class="cls-10" d="m1751.84,1159.37c-.52.05-.81.54-1.2.81-.2.14-.41.2-.6.31s-.41.35-.61.48c-.44.29-.76.7-1.19,1.01-.54.38-1.14.71-1.7,1.09-2.08,1.4-4.22,2.73-6.32,4.11-2.96,1.95-5.66,4.26-8.61,6.21"/>
      <path class="cls-10" d="m1721.8,1181c-.6.19-1.23.85-1.75,1.2-.66.44-1.25.99-1.9,1.41-.34.22-.66.34-1,.59-.29.21-.61.4-.91.61-.86.57-1.73,1.07-2.61,1.6-.81.49-1.68.88-2.44,1.45-.83.61-1.7,1.27-2.61,1.76-1.91,1.04-3.58,2.39-5.36,3.61-1.57,1.08-3.11,2.15-4.7,3.19-.3.2-.61.38-.9.59-.22.19-.44.38-.66.58-.2.15-.41.24-.66.28-.43.24-.77.57-1.19.81-.33.19-.68.33-1.01.55-1.66,1.08-3.27,2.19-4.96,3.19-.44.26-.75.65-1.19.91-.47.28-.84.58-1.27.91-.3.24-.62.54-.94.75-.26.17-.57.22-.8.44"/>
      <path class="cls-10" d="m1752.04,1166.98c4.05-2.54,8.03-5.2,12.17-7.61,1.18-.68,2.3-1.48,3.45-2.22.57-.37,1.07-.83,1.65-1.19.66-.41,1.29-.75,1.92-1.2,1.81-1.31,3.65-2.57,5.53-3.78.76-.49,1.4-1.06,2.1-1.6.91-.7,2.03-1.21,3.01-1.82,1.91-1.18,3.7-2.53,5.53-3.82.94-.66,1.97-1.22,2.94-1.84.35-.22.63-.5.95-.76.45-.38.96-.62,1.41-1,.74-.62,1.55-1.21,2.35-1.76.93-.64,1.97-1.14,2.85-1.84"/>
      <path class="cls-10" d="m1537.66,1039.87c-.39-.5-.72-.8-1.21-1.22-.41-.35-.93-.37-1.24-.84-.06.52.75.95,1.1,1.18.75.5,1.45,1.11,2.16,1.68,1.63,1.32,3.14,2.73,4.83,3.98.58.43,1.21.68,1.77,1.13.55.45,1.15.82,1.7,1.28.89.75,1.74,1.54,2.58,2.34,1.53,1.44,3.27,2.43,4.96,3.66,1.55,1.13,2.82,2.58,4.31,3.77.78.62,1.35,1.32,2.22,1.83.34.19.7.35,1.01.59.48.38.84.58,1.35.88.61.36,1.1.93,1.68,1.35.65.47,1.18,1.07,1.87,1.49s1.5.71,2.17,1.21c.31.23.56.52.87.76.4.31.93.45,1.29.8"/>
      <path class="cls-10" d="m1551.14,1044.45c1.72,1.28,3.52,2.45,5.19,3.83,1.01.83,1.86,1.83,2.89,2.64,1.23.96,2.61,1.66,3.79,2.7,2.22,1.97,4.65,3.75,6.99,5.56.96.75,2.02,1.32,3,2.05s2.07,1.37,3.02,2.16c1.66,1.39,3.62,2.4,5.34,3.72.44.34.91.47,1.35.79.29.21.49.55.79.76.72.51,1.62.9,2.37,1.35,1.41.83,2.75,1.75,4.04,2.76.7.55,1.22,1.31,1.95,1.83.49.35,1.45.84,1.62,1.41"/>
      <path class="cls-10" d="m1548.17,1029.09c1.12.88,2.25,1.7,3.39,2.55.88.65,1.74,1.47,2.68,2.01.46.27.86.46,1.27.82s.92,1.15,1.56,1.09"/>
      <path class="cls-10" d="m1572.98,1047.96c.17.53.6.75,1.01,1.08.51.41.91.92,1.4,1.35.97.84,2.09,1.74,3.19,2.37,1.16.66,2.3,1.59,3.31,2.49s2.02,1.84,3.15,2.7,2.22,1.56,3.3,2.37c.85.64,1.78,1.33,2.69,1.89.78.47,1.63.93,2.37,1.47.13.1.16.31.32.42.2.15.47.2.69.32.55.32.99.67,1.42,1.09,2.52,2.46,5.66,4.15,8.62,5.98,1.27.79,2.52,2.09,3.57,3.11,1.13,1.1,2.5,1.87,3.77,2.76,1.27.88,2.53,1.88,3.79,2.91,1.42,1.16,2.94,2.49,4.57,3.29"/>
      <path class="cls-10" d="m1758.45,1096.21c-.35.18-.71.32-1.08.4-.29.07-.7.34-.97.38-.5.08-.73.09-1.18.29-.42.19-.92.34-1.36.47-1.89.59-3.77,1.17-5.66,1.75-2.2.68-4.45,1.27-6.64,1.95-1.4.43-2.77.74-4.21,1.02-1.98.38-3.95.9-5.87,1.55"/>
      <path class="cls-10" d="m1703.72,1111.58c-.23.28-.74.33-1.06.46-.49.19-.9.49-1.37.7-.73.32-1.41.61-2.15.92-1.52.65-3.08,1.14-4.59,1.77-.75.31-1.53.45-2.29.73-.9.34-1.73.8-2.62,1.15-1.8.71-3.7,1.1-5.49,1.82s-3.69,1-5.5,1.61c-1.89.64-3.75,1.39-5.65,1.95-2.12.62-4.2,1.52-6.27,2.3-2.08.78-4.08,1.58-6.2,2.29-2.53.85-4.94,2.08-7.49,2.83-.68.2-1.21.6-1.87.82-.79.26-1.38.66-2.13.98-.71.3-1.31.57-1.98.97-.82.48-1.68,1-2.63,1.08"/>
      <path class="cls-10" d="m1630.13,1154.44c2.68-.2,5.07-1.12,7.54-2.15,1.27-.53,2.55-1.05,3.79-1.65,1.83-.88,3.74-1.33,5.59-2.12,2.96-1.26,5.81-2.53,8.92-3.36,1.63-.44,3.15-1.26,4.8-1.63,1.33-.3,2.56-.51,3.86-.96"/>
      <path class="cls-10" d="m1687.55,1134.5c4.63-1.54,8.98-3.72,13.61-5.26,2.41-.8,4.95-1.46,7.28-2.45,1.34-.57,2.59-1.05,4-1.46,1.15-.33,2.32-.74,3.42-1.2.93-.39,1.74-.98,2.67-1.37,1.12-.47,2.34-.81,3.5-1.2,2.56-.87,5.19-1.77,7.84-2.35,2.36-.52,4.63-1.61,6.93-2.36,2.69-.88,5.2-2.25,7.9-3.1"/>
      <path class="cls-10" d="m1755.48,1109.96c.96-.35,2-.65,2.91-1.14,1-.54,1.59-.96,2.76-1.02"/>
      <path class="cls-10" d="m1706.42,1136.38c3.18-1.15,6.56-1.68,9.71-2.97"/>
      <path class="cls-10" d="m1744.7,1123.98c1.56-.07,3.51-.95,4.97-1.48.83-.3,1.76-.56,2.53-1,.66-.39,1.17-.77,1.92-1.02,1.41-.47,2.73-1.08,4.11-1.62,1.75-.69,3.6-.81,5.34-1.61"/>
      <path class="cls-6" d="m1632.88,1071.82c1.57,0,3.18.09,4.73-.03,2.33-.18,4.57-.8,6.85-1.25,1.1-.21,2.21-.3,3.3-.58,1.31-.33,2.56-.84,3.89-1.07,5.01-.85,10.06-1.09,15.04-2.18,2.38-.52,4.72-.74,7-1.64,2.69-1.06,5.41-1.18,8.17-1.86,4.71-1.15,9.32-2.74,14-3.96,1.35-.35,2.61-.69,3.91-1.17,1.15-.42,2.21-.96,3.43-1.18,1.34-.25,2.6-.42,3.9-.83,1.1-.35,2.23-.47,3.34-.74,1.56-.39,3.16-.83,4.8-1.11s3.14-.93,4.74-1.14c.68-.09,1.36-.19,2.03-.35,2.1-.51,4.18-1.24,6.36-1.68,1.98-.4,4.08-.38,5.99-.87.4-.1.77.02,1.14-.06.3-.07.29-.28.55-.35,1.22-.34,2.52-.58,3.77-.79,2.03-.34,4.15-1.03,6.15-1.11,1.29-.05,2.69-.79,3.94-1.1,1.15-.28,2.21-.54,3.36-.82.56-.14,1.17-.39,1.69-.53s1.09-.12,1.65-.22c.44-.08,1.01-.43,1.53-.53.73-.14,1.57-.31,2.26-.56.12-.04.57-.28.63-.29.35-.07.73.01,1.06-.06s.37-.33.71-.41c.37-.09.79.12,1.16.04.51-.12,1.08-.54,1.56-.69.61-.18,1.23-.22,1.8-.45.66-.26,1.04-.32,1.78-.47.08-.02.28-.27.44-.31.45-.11.97.03,1.43-.06.56-.11,1.3-.58,1.95-.69.25-.04.53.1.77.04.47-.11.52-.56,1.1-.4"/>
      <path class="cls-6" d="m1706.28,932.88h.37"/>
      <path class="cls-6" d="m1732.12,1050.85c1.02.21,1.24,2.05,1.5,2.82.17.52.21.95.36,1.49.18.63.4.95.38,1.67-.02.69.25.9.39,1.48.13.54-.02,1.33-.02,1.89s-.15,1.35-.02,1.89c.07.29.43.43.43.73s-.34.34-.38.59c-.19,1.19.16,2.5-.06,3.68-.04.24-.3.31-.36.57-.08.34.07.8.03,1.15-.06.54-.25.97-.38,1.49-.13.52-.32.95-.38,1.49-.03.29.09.67.02.96-.06.25-.25.44-.31.63-.37,1.17-.62,2.2-1.21,3.29"/>
      <path class="cls-6" d="m1736.61,1050.47c1.04-.02,1.33,1.74,1.53,2.4.32,1.03.97,2.16,1.37,3.23.42,1.12.45,2.19.76,3.36.28,1.09.08,2.43.08,3.56v3.56c0,1.1.24,2.51.01,3.57-.19.89-.56,1.81-.85,2.71-.12.38-.6.77-.69,1.19-.13.61-.07.94-.35,1.52"/>
      <path class="cls-6" d="m1766.57,1043.73l.3.07c.05.44.32.81.49,1.19.2.44.24.68.36,1.17.29,1.11.98,2.23,1.1,3.37s.37,2.07.36,3.18c0,1.12,0,2.25,0,3.37,0,1.06,0,2.12,0,3.18,0,.51.14,1.22.02,1.7-.11.44-.34.59-.4,1.1-.13,1.16-.1,2.27-.35,3.4-.19.87-.73,1.63-.95,2.57.01-.13-.05-.25-.2-.35"/>
      <path class="cls-6" d="m1772.19,1041.11c.36,2.34,1.4,4.54,1.5,6.93.03.71.31,1.19.39,1.87.06.54-.01,1.14-.01,1.69,0,.54-.08,1.15-.01,1.69.08.68.38,1.16.39,1.87.03,1.21-.4,2.18-.38,3.37.01.72-.13,1.04-.29,1.68-.13.54-.37,1-.48,1.48-.06.25.1.54.04.79-.07.3-.28.31-.36.58-.14.47-.29.81-.42,1.26-.32,1.05-.68,2.27-.8,3.33l-.31.06"/>
      <path class="cls-2" d="m1679.14,1066.79c-.65.31-1.6.77-2.25.92-.85.2-1.74.15-2.6.39-1.92.53-3.84,1.51-5.66,1.98-1.86.48-3.79.73-5.63,1.22-.9.24-1.78.52-2.69.74-.51.12-1.13,0-1.65.1-.67.12-.83.35-1.37.49-3.41.91-6.98,1.86-9.4,4.01-.87.77-1.84,1.51-2.43,2.38-.28.42-.83,1.13-.93,1.57-.08.35.04.65.04,1,.01.65-.36,1.08-.46,1.7-.1.65.15,1.43.19,2.07.02.37-.07.93.07,1.27.07.17.46.37.49.45.42,1.21.73,3.1,2.71,3.36.93.12,1.9-.1,2.87-.04,1.25.08,2.35.22,3.61.05,1.54-.21,3.22-.83,4.74-1.21,1.48-.37,2.9-.66,4.43-.8,1.8-.15,4.05-.04,5.72-.72.98-.4,1.26-.52,2.3-.8.42-.11.59-.33,1.17-.43.45-.08.89-.03,1.33-.13.37-.08.39-.36.8-.47.48-.12,1.05-.07,1.54-.19.11-.03.39-.33.61-.39.69-.18,1.56.05,2.25-.13.47-.13.53-.38.98-.53.27-.09,1.23-.15,1.39-.19.67-.15,1.88-.31,2.52-.51.38-.12.43-.35.79-.45,1.62-.44,3.36-1.42,5.02-1.69,1.13-.19,2.13-.54,3.26-.67,1.06-.13,2.13-.08,3.15-.33.27-.07.77-.32,1.15-.42,1.21-.29,2.21-.4,3.34-1,.76-.4,1.39-.67,2.17-.99,1.6-.66,2.72-1.54,3.92-2.6,1.43-1.25,1.36-2.3,1.95-3.69-.79-.29-.34-.84-.53-1.35-.16-.42-.53-.9-.74-1.34s-.41-.72-.58-1.24c-.22-.67-.62-.96-1.11-1.48-.6-.65-.87-1.77-1.65-2.29-.8-.53-2.57-.63-3.64-.54-.72.06-1.49.04-2.2.16s-.93.4-1.56.57c-1.32.35-3.28.23-4.67.34-.76.06-1.77-.02-2.49.17-.64.17-.83.45-1.56.57-1.54.25-2.89.11-4.21.66-.5-.64-1.9.11-2.55.31-.41.12-.63.36-1.09.48-.55.15-1.36.08-.87-.36Z"/>
      <path class="cls-8" d="m1683.81,1070.7c-1.16.02-2.21.27-3.23.7-.55.24-.9.26-1.46.41s-1.01.46-1.53.71c-.48.23-.92.47-1.45.61-.33.09-.63.12-.95.18-.26.05-.63.25-.82.29-.59.12-1.19.01-1.79.17-.73.19-1.26.3-2.06.29-1.32-.01-2.21.38-3.56.37-.61,0-1.21-.04-1.79.08-.46.09-1.21.49-1.66.58-2.15.43-4.32,1.13-6.27,1.97-1.04.45-2.29.52-3.4,1.11-.4.21-.72.51-1.11.75-.5.31-.95.46-1.4.84-.63.54-1.36,1.21-1.87,1.85-.85,1.07-.47,2.58-.11,3.66.8,2.42,4.79,2.17,6.87,1.82s3.88-1.33,5.87-1.73c2.5-.5,4.99-.89,7.51-1.3,1.98-.32,4.08-.44,6.01-1.02,1.42-.43,2.81-.83,4.24-1.2,2.03-.52,3.77-1.73,5.85-2.11,1.2-.22,2.43-.3,3.63-.51,1.32-.23,2.55-.72,3.87-.97,2.15-.41,4.89-.54,6.68-1.93.89-.69,2.2-2.1,1.94-3.43-.17-.85-1.06-2.21-1.62-2.87-.98-1.16-2.23-.83-3.65-.84-.23,0-.54-.04-.76,0-.52.07-.64.29-1.1.4-.57.14-1.47-.34-1.89.19-.35-.55-.54.04-.83.08-.47.07-.94.01-1.42.07-.87.11-1.45.39-2.43.38-.88,0-1.89-.13-2.73.08-.73.19-1.46,1.06-2.26,1.11-.02.1-.05.2.68-.82Z"/>
      <path class="cls-8" d="m1655.35,958.35l.07-.3.3-.07"/>
      <path class="cls-8" d="m1545.62,1119.75c.94.1,1.85,1.21,2.62,1.69,1.02.63,1.94,1.48,3,2.07,2.07,1.16,4.42,2.26,6.38,3.93.71.61,1.53.96,2.24,1.48.8.58,1.41,1.32,2.24,1.88,1.71,1.16,3.22,2.48,4.68,3.94,1.32,1.32,2.74,2.48,4.12,3.75,1.69,1.56,3.56,3.11,5.44,4.4,1.34.92,2.49,2.4,3.64,3.56,1.3,1.3,2.71,2.55,4.11,3.74,1.55,1.31,3.28,2.61,5.05,3.55.95.51,2.07,1.31,2.82,2.07.64.65,2.15,3.2,3.09,2.9"/>
      <path class="cls-8" d="m1638.87,1181.55c.78.17,1.98,1.67,2.64,2.16.97.73,1.94,1.66,2.97,2.14s2.09.97,3.08,1.59c.75.47,2.33.99,2.54,1.97.56-1.54,4.72-3.87,6-4.82,2.34-1.73,4.84-3.15,6.82-5.3,1.74-1.88,3.85-3.27,5.83-4.87,1.69-1.37,3.39-2.79,4.94-4.31.93-.91,2.14-1.63,3.18-2.43,2.07-1.59,4.3-3.11,6.45-4.59.97-.67,1.75-1.58,2.71-2.25,1.04-.71,1.99-1.41,3.01-2.15"/>
      <path class="cls-8" d="m1546,1120.13c.99-.13,1.56-1.05,2.24-1.68,1.64-1.52,3.58-2.46,5.54-3.61,1.02-.6,2.06-1.25,3.07-1.82.77-.43,2.75-1.38,3.02-2.26"/>
      <path class="cls-8" d="m1762.83,1113.01c-.37.3-.49.67-.31,1.08.6-.08,1.3-1.19,1.76-1.62,1.19-1.09,2.46-2.05,3.6-3.21.58-.59,4.65-3.04,3.73-3.73-.38-.28-1.23.13-1.69-.08-.4-.18-.92-.94-1.29-1.24-.76-.63-1.43-1.3-2.15-1.97-.66-.61-1.24-1.24-1.87-1.87-.96-.96-1.53-1.2-2.9-1.22"/>
      <g>
        <path class="cls-4" d="m1535.11,942.7c.03-.09-.06-.27-.1-.34-.04-.1-.07-.21-.12-.32-.11-.23-.17-.5-.27-.71-.19-.46-.37-.95-.49-1.47-.07-.3-.1-.59-.18-.88-.03-.13-.02-.26-.02-.39,0-.19-.06-.23-.1-.39-.03-.14.03-.31,0-.45-.02-.16-.1-.28-.1-.44-.01-.31-.09-.56-.1-.88,0-.15.02-.26.05-.39.03-.11.04-.25.07-.37.06-.23.19-.35.35-.54.07-.09.12-.19.18-.26.02-.02.22-.15.26-.18.08-.06.16-.06.25-.14.12-.12.22-.23.35-.35.75-.67,1.51-1.31,2.3-1.91.23-.18.46-.49.66-.71.19-.21.33-.45.51-.66.13-.15.29-.27.42-.41.18-.2.3-.45.47-.66.62-.81,1.09-1.69,1.71-2.5.29-.38.66-.71.93-1.1.18-.26.56-.9.9-.86.19.02.58.22.74.32.23.14.47.25.71.37.21.1.46.19.66.32.1.06.23.11.32.17.09.07.15.18.24.25.38.28.93.45,1.35.61.46.17.92.4,1.36.59.49.21,1.02.37,1.45.71.39.31.94.43,1.39.66.17.09.34.18.51.27.24.12.51.16.76.27.21.09.38.21.58.32.12.06.27.13.39.17s.27.05.39.1c.46.17.88.46,1.32.69.48.25.99.31,1.48.44.19.05.38.17.56.27.1.06.23.18.33.22.08.03.16-.02.24,0,.07.02.09.07.15.09.51.19,1.04.3,1.56.4.16.03.28.1.44.1.13,0,.21.05.32.07.3.08.6.16.9.23.2.05.41.15.62.21.03,0,.07.07.11.08.07.02.17-.01.24,0,.11.02.27.11.4.14.48.11,1.03.24,1.47.44.21.09.43.09.64.2.25.13.48.18.74.28.24.1.46.17.71.23.22.05.45.21.69.3.45.17.85.38,1.29.56.26.11.53.24.79.29.28.06.58.14.86.22.54.15.92.71,1.4,1.03.45.3.92.5,1.37.81.21.14.37.29.58.42.24.14.5.19.72.34.19.13.37.3.56.42.18.11.39.21.58.29.5.22.98.41,1.45.71.44.27.89.59,1.39.74.13.04.27.04.39.07.1.03.27.03.37.07.21.08.37.31.59.4.47.19.93.47,1.39.69.21.1.48.17.48.46,0,.11-.13.23-.16.32-.04.14-.06.24-.12.37-.11.25-.16.45-.32.66s-.23.49-.37.71c-.15.25-.38.46-.57.69-.17.21-.27.45-.44.66-.28.36-.65.66-.93,1.02-.3.4-.63.83-.88,1.26-.26.44-.5.89-.73,1.35-.1.2-.28.37-.37.57-.12.27-.19.57-.32.82-.51,1.01-.93,2.06-1.25,3.14-.07.24-.23.48-.29.73-.07.28-.14.54-.21.83-.14.58-.29,1.09-.46,1.66-.16.53-.29.98-.49,1.49-.22.57-.35,1.1-.64,1.65-.27.5-.92.59-1.44.59-.24,0-.56.06-.79,0-.08-.02-.08-.08-.15-.09-.06-.01-.13.01-.19,0-.17-.05-.23-.1-.44-.1-.28,0-.52-.09-.78-.1-.17,0-.28,0-.44-.05s-.32-.02-.48-.06c-.1-.02-.24-.08-.35-.11-.13-.04-.28-.14-.39-.2-.24-.13-.49-.25-.73-.38s-.48-.2-.74-.3c-.11-.05-.23-.13-.34-.18-.16-.08-.32-.14-.49-.2-.23-.07-.45-.21-.66-.26-.25-.06-.49-.12-.71-.22-.2-.09-.43-.12-.64-.2-.24-.08-.48-.16-.73-.24-.52-.17-.99-.53-1.52-.69-.48-.14-.89-.37-1.33-.62-.18-.1-.42-.18-.62-.21-.18-.02-.19,0-.35-.09-.11-.07-.24-.17-.35-.25-.2-.15-.42-.35-.68-.42-.11-.03-.25-.09-.35-.11-.06-.01-.13.01-.19,0-.08-.02-.13-.07-.2-.09-.44-.13-.88-.37-1.26-.65s-.82-.47-1.22-.73-.82-.39-1.2-.66c-.11-.08-.19-.08-.3-.19-.06-.06-.13-.14-.2-.2-.16-.13-.36-.24-.54-.35-.19-.11-.39-.19-.59-.29-.23-.11-.47-.24-.71-.35-.22-.1-.38-.24-.59-.41-.13-.1-.25-.22-.37-.33-.1-.09-.19-.12-.29-.19-.37-.27-.78-.52-1.19-.74-.47-.25-.91-.56-1.35-.83-.47-.3-.93-.63-1.4-.93-.43-.29-.9-.48-1.37-.68-.26-.12-.53-.24-.78-.32s-.56-.18-.79-.32c-.26-.16-.41-.35-.69-.47-.2-.08-.39-.2-.58-.29-.4-.2-.74-.49-1.1-.76-.19-.14-.47-.26-.69-.39-.23-.14-.51-.26-.76-.39-.43-.22-.82-.43-1.25-.64-.19-.09-.31-.22-.47-.37-.17-.17-.33-.27-.52-.42-.16-.12-.27-.33-.43-.44-.08-.06-.17-.07-.25-.14s-.15-.17-.24-.23c-.03.02-.05.04-.17-.33Z"/>
        <path class="cls-3" d="m1597.67,982.51c.17,1.02-.53,1.79-.64,2.77-.09.84-.1,1.41-.28,2.15-.17.7-.49,1.35-.77,2-.34.78-.45,1.62-.75,2.33-1.05,2.49-3.87,4.07-6.3,4.77-2.86.82-5.84,1.88-8.62,3.06-1.15.49-2.26.98-3.38,1.53-.48.24-1.22.9-1.74,1.02-.39.09-.83-.07-1.19.04-.46.13-.85.49-1.26.58-.76.17-1.39.13-2.1.35-.76.24-1.67.63-2.46.93-1.53.57-2.89,1.14-4.3,1.84-2.59,1.3-5.29,1.66-7.68,3.38-1.2.86-2.33,1.77-3.55,2.61-1.13.78-2.28,1.37-3.52,2-2.83,1.45-6.07,2.28-8.86,4.3-2.06,1.49-4.06,4.13-5.13,6.3-.65,1.32-1.35,2.5-2,3.84-.41.83-.88,1.88-1.09,2.77-.19.8-.53,1.53-.69,2.21-.2.86-.55,1.83-.71,2.71-.14.82.11,1.62-.11,2.46-.25.95-.49,1.42-.48,2.46.01.98.14,2.12.01,3.09-.12.9-.47,1.27-.65,2.11-.16.74.06,1.72.03,2.48-.05,1.09-.47,1.75-.65,2.77-.16.92.03,2.13.03,3.07.01,1.75-.4,3.24-.6,4.93-.11.9-.42,1.29-.65,2.12-.1.36.03.82-.03,1.2s-.5.51-.6.94c-.11.47.07,1.04-.02,1.52-.06.35-.45.36-.51.72-.07.38.07.84-.03,1.2s-.42.77-.5,1.04c-.22.74-.43,1.58-.61,2.32-.11.44-.05.82-.14,1.24-.11.55-.38.93-.48,1.35-.19.78-.43,1.55-.61,2.32-.15.62-.52,1.5-.61,1.98-.36,1.79-.42,3.34-.8,5.09s-1.17,3.35-1.18,5.22c0,.88-.34,1.34-.48,1.98-.2.96-.15,1.94-.14,2.94,0,.38.06.88.01,1.24-.09.7-.38.84-.49,1.35-.22.96.12,2.03-.11,2.97-.21.87-.55,1.09-.65,2.12-.09.95-.25,1.63-.61,2.46-.6,1.36-1.23,2.83-1.92,4.23-.69,1.39-1.11,2.72-1.77,4.07-.59,1.22-.62,1.2.63,1.86.95.5,1.38.4,2.44.57,1.71.27,3.79,1.36,5.39,2.03.62.26,1.27.95,1.95,1.11.97.22,2.12-.24,3.1-.06.9.16,1.53.71,2.23,1.18.69.47,1.42,1.34,2.26,1.7.7-.69.31-1.4.42-2.26.11-.88.31-1.05.65-1.81.51-1.15.71-2.48,1.23-3.69,1.01-2.35,1.43-5.1,1.88-7.65.1-.56.49-.86.58-1.57.12-.95.09-1.21.45-2.01.23-.51.69-1.15.8-1.66l-.07-1.3c.04-.33.21-.57.51-.72.15-.57.53-1.41.61-1.85.14-.73.07-1.46.28-2.18.13-.43.82-1.08.95-1.51.21-.71.14-1.38.14-2.13,0,1.58-.02,3.15,0,4.73.02,1.48-.63,2.22-.61,3.69.04,3.07,0,6.15,0,9.22v9.22c0,2.75-.44,6.04.51,8.44-.89.59-.76,1.69.06,2.05,1.12.51,1.63-.5,2.47-.69.41-.09.89.16,1.3.07s.62-.63.96-.62c.87.03,1.62.52,2.69.57,1.97.09,3.23,1.26,5.22,1.24,2.08-.02,4.41-.28,6.47-.01,1.67.21,3.01.9,4.92.64.34-.05,2.09-.37,2.34-.73.62-.93-.41-2.08-.52-2.95-.22-1.73-.63-3.05-.6-4.93.02-1.3-.39-1.85-.64-3.07-.21-1.03-.02-2.11-.28-3.07-.46-1.74-.31-3.72-.79-5.53-.27-1.04.02-2.04-.12-3.09-.13-.94-.52-1.49-.64-2.43-.13-1.01.1-1.96-.12-2.95-.04-.16-.44-.44-.51-.72-.13-.52.03-1.33.03-1.88,0-.92-.01-1.84,0-2.77.01-1.28-.39-1.7-.65-2.74-.24-.99.16-2.08-.11-3.11s-.49-1.66-.48-2.77c0-.84.23-1.99.03-2.8-.13-.56-.54-.61-.68-1.17s.03-1.32.03-1.88c0-.92.01-1.84,0-2.77,0-.97.32-1.57.48-2.29.46-2.17-.67-4-.25-6.01.37-1.78-.07-3.84.35-5.56.11-.47.52-.53.6-.94.09-.48-.09-1.04.02-1.52.13-.61.74-1.49,1.09-1.98.82-1.11,2.22-2.46,3.24-3.38.62-.56,1.34-.79,2.01-1.2.76-.46,1.32-1.02,2.29-1.26,1.03-.25,2.11.13,3.1-.11.76-.18,1.46-.56,2.29-.78.64-.17,1.12-.49,1.98-.48.58,0,1.28.09,1.86.01s.89-.36,1.35-.49c.93-.27,1.96-.16,2.94-.14s1.44-.42,2.21-.56c1.97-.37,4.37-.08,6.4-.05.97.01,1.44-.42,2.21-.56.85-.16,1.82-.07,2.71-.05,1.3.02,1.38-.39,2.43-.64.99-.24,2.16-.03,3.11-.28.72-.18,1.53-.29,2.32-.44.57-.11,1.54-.82,2.12-.96.96-.23,1.97-.62,2.94-.78.41-.07.86.16,1.26.07.53-.12.65-.56,1.17-.68.6-.14,1.3.2,1.91.06.3-.07.53-.47.72-.51,1-.25,2.01-.22,2.97-.75,1.24-.68,2.48-1.56,3.51-2.61.5-.51.99-1.08,1.54-1.54.57-.48,1.2-.68,1.71-1.11.45-.39.96-1.42,1.37-1.95.64-.83,1.19-1.75,1.69-2.63.95-1.66,1.53-3.75,1.85-5.52.2-1.15.57-2.21.62-3.4.05-1.11-.1-2.18.13-3.24.03-.14.45-.46.51-.72.15-.62-.02-1.54-.03-2.18-.02-1.35.43-2.14.65-3.38.2-1.11-.03-2.56-.03-3.69,0-.93.25-2.21.03-3.11-.11-.47-.52-.53-.59-.94-.12-.68.13-1.46-.02-2.13-.19-.81-.56-1.54-.78-2.43-.27-1.09-.68-2.24-.96-3.21-.28-.97.13-2.01-.11-2.97-.13-.56-.54-.61-.68-1.17s.03-1.32.03-1.88c0-1.13,0-2.25,0-3.38,0-2.33-.68-3.94-.59-6.24-1.45,1.66-4.04,3.22-6.16,3.49-1.25.16-3.07.17-4.33,0-.85-.11-1.05-.48-1.8-.66s-1.71.15-2.51.05c-.85-.11-1.05-.48-1.8-.66-.79-.19-1.73.25-2.52.06-1.01-.24-2.06-.87-3.02-1.28-1.16-.5-2.66-.66-3.84-1.06-1.71-.58-2.97-.77-6.01-2Z"/>
        <path class="cls-16" d="m1629.99,997.05c-.29.17-.54.18-.85.37-.26.16-.59.4-.86.49-.29.09-.64.08-.93.21-.47.2-.91.49-1.39.69-.49.2-1,.3-1.5.42-.11.02-.23-.04-.35-.03-.46.04-.92.34-1.35.48-.66.22-1.14.51-1.83.5-.32-.01-.73.06-1.04,0-.32-.06-.64-.27-.95-.35-.55-.12-1.08-.22-1.62-.32-.32-.07-.55-.2-.84-.29-.25-.08-.54-.06-.78-.19-.23-.11-.54-.27-.76-.41-.11-.07-.15-.25-.23-.3-.08-.06-.21-.03-.28-.09-.53-.36-1.02-.68-1.57-.96-.25-.12-.53-.16-.77-.22-.25-.08-.51-.23-.76-.35-.85-.37-1.92-.46-2.88-.53-.23-.01-.49.03-.73.01-.35-.01-.62-.18-.96-.19-.29-.02-.67.08-.96.01-.25-.07-.35-.17-.65-.2-.59-.07-1.11,0-1.71,0-.57,0-.93-.13-1.43-.19-.15-.02-.34.04-.48.01-.12-.03-.23-.13-.32-.16-.25-.08-.48.01-.72-.03-.21-.03-.37-.18-.57-.21-.16-.02-.31.03-.46-.01-.13-.02-.15-.15-.3-.18-.12-.03-.27.04-.39.02-.26-.07-.36-.18-.66-.2-.32-.03-.55-.16-.86-.2-.32-.06-.45-.07-.75-.19-.25-.09-.5-.13-.76-.22-.25-.1-.53-.23-.77-.29-.29-.08-.57-.01-.86-.07-.53-.1-1.12-.31-1.43-.74-.3-.42-.37-.82-.37-1.33-.01-.97.88-1.82,1.1-2.72.08-.3.18-.59.25-.91.06-.3-.03-.6.03-.91.01-.08.13-.11.16-.22.02-.12-.06-.28-.02-.4.08-.32.21-.35.2-.75.26-.06.51-.31.75-.39.35-.11.65.15.96.21.11.02.22.01.32,0,.02-.37.03-.75.11-1.13.12-.56.45-.86.48-1.67.03-.61-.01-1.24,0-1.86,0-1.45-.07-2.46-.61-3.69-.04-.1-.09-.19-.12-.29-.34-.89-.32-1.71-.55-2.73-.21-1-1.04-2.44-1.49-3.43-.86-1.97-1.3-3.96-2.15-5.84-1-2.19-1.23-4.19-1.23-6.76,0-1.19-.31-2.88-.03-4.03.04-.2.15-.35.26-.48.17-.21.35-.39.42-.69.19-.78-.26-1.73-.07-2.52.12-.5.57-.67.68-1.17.13-.6-.06-1.23.1-1.87.36-1.43.73-2.88,1.07-4.3.61-2.55,1.39-4.89,2.33-7.39.93-2.48,2.35-4.92,3.24-7.35.42-1.14.5-1.95,1.36-2.94.75-.86,1.71-1.9,1.81-3.11.17-.04.34-.08,1.73-1.35-.57.29-1.64.87-2.54,1.14-.36.11-.68.17-.93.13.39-.61,1.24-.69,1.79-1.11.62-.46.96-1.16,1.64-1.57,1.72-1.02,3.95-.96,5.87-1.36,1.73-.37,3.68-.77,5.06.46,1.43,1.25,2.12,2.59,3.07,4.17.77,1.26,1.51,2.47,2.29,3.69.2.29.65.4.82.72.26.42-.04.75.11,1.13.34.83.84,1.62,1.24,2.44.73,1.45,1.12,2.92,1.84,4.3.41.78.46,1.27.67,2.15.15.56.49.96.59,1.54.1.59-.2,1.29-.07,1.88.23,1,.66,1.25.65,2.43-.01.73-.08,1.55-.07,2.33.01.27.02.51.06.76.12.98.51,1.45.64,2.43.15,1.08-.01,2.31-.01,3.4,0,.92-.01,1.84,0,2.76,0,.55.16,1.36.03,1.88-.07.27-.48.58-.51.73-.44,2.06-.13,4.48-.13,6.62,0,1.95.02,3.9,0,5.85-.01,1.03.18,1.67.44,2.56.03.35.12.7.19,1.04h0c.07.72.02,1.44,0,2.16v.03c.01.06.02.12.02.2-.01.3-.03.61.04.91.06.21.27.5.31.73.04.18-.03.38.01.56.03.13.12.22.16.32.09.28.17.6.23.91.15.6.39,1.2.38,1.81-.01.41.12.5.2.84s.07.64.18.97c.09.25.12.5.19.76.08.27.19.48.29.75.07.2.22.5.27.69.03.18-.03.38,0,.56.03.11.15.25.16.32.07.29-.03.63.03.92.07.28.2.4.2.75,0,.41.15.66.2,1.05.03.27-.09.59-.02.86.07.26.18.36.2.66.03.3.15.4.2.66.04.18-.07.4-.02.58.03.11.15.16.16.22.08.3.02.59.04.92.03.56.27,1.16.42,1.71.26.83,1.06,1.95-.03,2.57Z"/>
        <path class="cls-13" d="m1593.37,875.53c-1.2-.58-1.92-.66-3.09.28-.81.66-1.78,1.73-2.37,2.55-.68.94-.88,2.25-1.32,3.29-.48,1.13-.72,2.36-1.38,3.57-.49.89-.91,1.95-1.51,2.77-.57.78-1.48,1.46-2.17,2.14-1.3,1.3-3.51,2.85-4.01,4.59-.43,1.5-.03,2.76.34,4.16.31,1.17.31,3.1.15,4.32-.18,1.4-.84,2-.49,3.54.3.15.47.38.51.72l-.07,1.3c.1.45.48.75.67,1.18.74,1.69,1.17,4.5,2.89,5.72.81.58,1.74,1.22,2.61,1.69.96.52,3.25.13,3.87,1.11,1.58-.6,2.1-.12,3.83.13,1.46.21,2.54-.04,3.83.49.44-.87,1.98-.19,2.65.09.29.12,1,.43,1.23.62.68.57.28.28.75,1.09.52.91.97,1.55,1.09,2.6.13,1.19-.01,2.51-.01,3.7-.47-.06.57-.52.66-.14,1.91,1.01,5.07-2.94,6.4-4.16,1.37-1.25,4.85-4.24,6.85-3.64-.49-.4-.26-.73-.39-1.28-.12-.5-.36-.96-.48-1.36-.43-1.51.35-2.19.49-3.54.24-2.27,1.45-4.15,2.29-6.3.37-.94,1.01-2.2,1.24-3.07.16-.61.06-1.1.12-1.72.08-.81.49-1.09.66-1.8.22-.93.09-2.69-.17-3.58-.14-.49-.42-.71-.49-1.35-.09-.81.06-1.54-.12-2.34-.1-.44-.43-.74-.49-1.35s0-1.12-.12-1.72c-.06-.26-.36-1.02-.46-1.35-.23-.76-.51-1.5-.94-2.19-1.15-1.83-2.1-3.68-3.38-5.46-1.32-1.83-3.28-3.53-4.94-4.98s-3.16-2.84-5.19-3.39c-.3-.08-.67.12-.97.05-.34-.08-.48-.44-.72-.51-.64-.19-1.72-.54-2.34-.63-1.32-.18-1.8.88-3.03,1.14-.74.16-1.21-.11-1.9.25-.39.21-.81.7-1.21.94s-1.41.44-1.71.72c-.64.62,2.95.45,2.32,1.12Z"/>
        <path class="cls-16" d="m1629.04,974.74c-.07-.34-.16-.69-.19-1.04.01.07.02.13.04.2.07.27.11.55.15.84Z"/>
        <path class="cls-14" d="m1609.35,947.47c.06.47-.1.66-.48.57-.24-.72-.05-1.38-.19-2.11-.15-.8-.54-1.29-.58-2.15-.03-.68.07-1.06-.12-1.71-.15-.51-.61-.67-.52-1.38.05-.38.53-1.45.66-1.83s.38-1.04.48-1.36c.36-1.15.47-1.9,1.21-2.95.88-1.25,2.87-3.55,4.44-3.72,2.23-.24,4.17,3.44,5.24,4.99.33.48.66.66.94,1.19.17.32.29,1.03.45,1.4.39.87,1.06,1.82,1.32,2.68.35,1.17.68,2.03.67,3.32,0,.36.18,1.58.05,1.89-.43.97-.73.32-1.6.55-2.01.54-3.83,1.41-5.82,2.18-.67.26-1.18.11-1.88.27-.52.12-.64.55-1.16.68-.96.23-3.78-.83-3.11,1.2"/>
        <path class="cls-14" d="m1534.35,935.17c-.02,1.2.26,1.67.56,2.77.2.75.54,1.42.71,2.11.18.76-.34,1.65.09,2.37.4.66,1.49.94,2.1,1.28,2.6,1.46,5.44,2.6,7.97,4.36,2.76,1.92,5.46,3.94,8.4,5.4s6.18,2.22,9.1,3.67c1.37.68,2.69,1.53,4.12,2.17.63.28,1.16.37,1.86.6.49.16,1.47,1.28,1.99,1.17.74-.16.69-1.3.9-1.93s.93-1.17,1.11-1.67c.33-.92.34-.83-.65-1.57-.76-.56-1.59-1.12-2.37-1.61-2.57-1.57-5.02-3.2-7.35-4.99-2.67-2.04-6.1-3.02-9.01-4.78-3-1.81-6.4-2.68-9.67-3.98-1.7-.68-3.11-1.32-4.8-1.83-.27-.08-.68-.4-1.04-.5-.53-.15-1.04-.09-1.56-.28-.64-.23-1.7-.62-1.76-1.41,2.27-.32,2.94-3.08,4.06-4.61.67-.92,1.44-1.51,2.02-2.54.32-.56,1.13-2.6,1.56-2.82.74-.37,2.31.95,2.97,1.3.94.5,1.89.99,2.84,1.46,2.13,1.07,4.19,2.16,6.46,3.09,1.14.47,2.1.68,3.24,1.04.91.29,2.02.76,2.96,1.04,2.21.64,4.28,1.73,6.38,2.54.94.36,1.95.42,2.95.73,1.03.32,2.18,1.25,3.24,1.71.86.37,1.49.95,2.25,1.4.42.25.93.59,1.39.76s1.29.16,1.73.42c1.67.99.07,1.73-.8,2.33-1.07.74-2.09,1.89-2.63,3.08-1.06,2.32-2.2,4.11-2.7,6.66l-.51.1"/>
        <path class="cls-13" d="m1520.21,1113.46l.03-.37c-.73.49-.47.87-.65,1.6-.16.66-.5,1.18-.65,1.81s-.13,1.31-.27,1.88c-.18.72-.24,1.55-.44,2.32-.58,2.22-2.01,4.51-3.42,6.42-1.48,2.01-2.28,4.47-4.27,6.16-2.03,1.73-4.4,2.9-6.68,4.14-1.36.74-2.7,1.44-3.96,2.31-1.05.73-1.77,1.87-2.8,2.61-2.35,1.68-4.14,3.3-2.87,6.3.93,2.18,3.21,3.6,5.22,4.61.3.15,1.38.81,1.66.83.78.04,1.81-.83,2.51-1.15,1.19-.56,2.42-1.05,3.66-1.52,3.19-1.19,6.23-2.02,9.09-3.67,3.1-1.79,6.51-2.88,9.88-3.66.04-.88.64-1.44.73-2.34s.07-1.64.29-2.47c.21-.79.33-1.54.31-2.46-.02-1.03.42-1.43.56-2.21.09-.48-.09-1.05.02-1.52.1-.43.51-.55.6-.94.19-.84,0-1.72.19-2.58.06-.29.43-.62.5-1.03.07-.41-.12-.86-.05-1.28s.44-.75.5-1.03c.1-.46,0-.99.12-1.42.22-.78.56-1.28.65-2.12.04-.41-.14-.88-.05-1.28.12-.49.49-.52.59-.94.49-1.99-.72-2.73-2.25-3.48-2.66-1.3-5.06-2.26-8.76-3.54Z"/>
        <path class="cls-13" d="m1546.03,1124.53c-.69,1.43-.64,2.64-.62,4.3.01.91-.34,1.32-.48,1.98-.12.58,0,1.13-.1,1.71-.24,1.43-.82,3.03-1.26,4.3-.12.33-.51,1.28-.56,1.59-.12.68.14,1.47-.02,2.13-.18.75-.56.94-.66,1.8.03.43.04.85.05,1.28-.04.34-.21.57-.51.72-.32,1.21-.66,1.97-1.21,3.09-.98,2.01-2.98,2.97-4.61,4.61-2.18,2.19-4.44,2.47-7.09,3.36-2.04.69-3.96,2.17-5.52,3.7-.95.93-1.63,1.44-1.39,2.94.2,1.26-.06,1.05,1.23,1.23.78.11,1.67-.03,2.47-.01,1.46.02,2.22-.64,3.69-.61,1.24.03,3.35-.85,4.13-.11.85-1.34,6.59-.51,8.16-.51,2.94,0,5.15-.29,7.86-1.38,2.04-.82,5.09-1.6,6.28-3.54,1.21-1.98.62-5.34.62-7.68,0-1.32-.09-2.68-.01-4,.08-1.5.66-2.73.63-4.3-.03-1.56.63-2.73.61-4.3-.02-1.43,0-2.87,0-4.3s0-2.87,0-4.3c.01-1.91.3-2.5-1.85-2.46-.56.01-1.31.09-1.86.01-.64-.09-1.32-.69-1.83-.69s-.71.59-1.2.71c-.71.17-1.75-.04-4.95-1.26Z"/>
        <path class="cls-11" d="m1530.28,1138.6c0-.97-.02-1.96,0-2.94,0-.46-.11-.83-.25-1.23-.15-.4-.21-.83-.42-1.24-.3-.56-1.08-1.24-1.59-1.64-1.24-.96-3.32-.55-4.86-.55-1.72,0-3.33-.3-4.79-.98-.66-.31-1.19-.85-1.84-1.17-.21-.11-.47-.22-.74-.34-.15.26-.29.22-.44.18.02-.12.06-.21.11-.28-.37.22-.51.6-.93.91-.44.32-.94.38-1.41.75-.51.41-1.01.76-1.51,1.08h-.01c-.5.35-1.01.68-1.54,1.07-1.9,1.4-4.16,2.84-6.23,3.92-1.15.6-2.18,1.33-3.29,2.07-1.26.86-2.47.94-3.7,1.7-2.11,1.3-3.38,3.16-3.7,5.51-.2,1.41.29,2.72.68,3.95.28.85,1.11,2.54,1.77,3.16.22.21.47.38.73.51,2.01,1.04,4.86-.17,6.66-.83.73-.27,1.41-.53,2.17-.65.64-.11,1.14-.32,1.67-.47,1.54-.42,3.25-.37,4.81-.72,2.38-.51,4.55-2.47,6.73-3.72,2.67-1.52,5.71-2.8,8.36-4.29,1.53-.86,2.19-1.69,3.18-3.1.1-.15.23-.29.39-.42-.01-.09-.01-.17-.01-.25Zm-35.29,10.41c-.03-.11-.07-.22-.08-.34.06.16.08.27.08.34Z"/>
        <path class="cls-11" d="m1494.91,1148.67c.06.16.08.27.08.34-.03-.11-.07-.22-.08-.34Z"/>
        <path class="cls-11" d="m1531.15,1137.93c-.17.32-.54.61-.86.92-.01-.09-.01-.17-.01-.25,0-.97-.02-1.96,0-2.94,0-.46-.11-.83-.25-1.23-.15-.4-.21-.83-.42-1.24-.3-.56-1.08-1.24-1.59-1.64-1.24-.96-3.32-.55-4.86-.55-1.72,0-3.33-.3-4.79-.98-.66-.31-1.19-.85-1.84-1.17-.21-.11-.47-.22-.74-.34-.15.26-.29.22-.44.18.02-.12.06-.21.11-.28h.01c.09-.15.23-.19.41-.18h.02c.53.04,1.27.58,1.69.76,1.06.48,1.96.47,3.22.47,1.15,0,2.08-.04,3.07-.31.93-.25,1.93-.25,2.94-.45.75-.15,1.77-1.03,2.57-1.13,1.62-.21,1.29.97,1.25,2.19-.02,1.31.38,1.64.65,2.74.23.95-.55,2.38.31,3.1-.7.65-.06,1.57-.47,2.34Z"/>
        <path class="cls-11" d="m1555.24,1155.27c.01.91-.27,2.03-.73,2.96-.21.22-.42.44-.66.63-.82.66-1.72,1.11-2.66,1.41-.18.06-.41.31-.6.38-.23.08-.46.08-.68.17-.55.22-1,.48-1.57.65-1.92.55-3.56,1.88-5.45,2.4-1.19.34-2.43.45-3.54,1.01-.87.45-1.76.85-2.64,1.29-.5.26-.98.5-1.45.78-.1.01-.2.01-.3.01-1.39-.03-2.43.54-3.61,1.13-.18.08-.36.17-.54.25-1.02.47-2.4.87-3.51,1.11-3.58.76-5.55-1.38-6.63-4.32-.61-1.65-1.49-3.03-1.11-4.93.27-1.38,1.35-2.54,2.63-2.94,1.36-.42,2.45-.82,3.78-1.44.53-.25,1.05-.64,1.61-.85.76-.29,1.34-.16,2.16-.35,1.46-.35,2.63-1.8,3.82-2.58.51-.35,1.06-.53,1.57-.89.44-.32.72-1.02,1.19-1.27.19-.11.4-.18.63-.25.56-.16,1.19-.22,1.71-.49.48-.25,1.29-.44,1.71-.75,1.07-.79,2.06-2.57,3.21-2.94-.25,1.81.23,2.62,1.59,3.02.5.15,1.63.49,2.11.55,1.06.12.75-.25,1.59-.44,2.14-.47,3.52-1.57,4.96-3.28h.02c.22.06.36.12.54.16.37.54.15,1.13.23,1.86.12.98.51,1.44.65,2.43.23,1.78-.04,3.75-.02,5.55Z"/>
        <path class="cls-11" d="m1554.52,1158.23c-.23.5-.53.95-.86,1.29-.87.89-3.04,1.31-4.09,1.74-2.35,1-4.48,2.34-6.84,3.31-1.3.53-2.56.72-3.91,1.3-1.16.5-2.21,1.04-3.54,1.07.47-.28.95-.53,1.45-.78.88-.44,1.77-.84,2.64-1.29,1.12-.56,2.36-.67,3.54-1.01,1.89-.53,3.52-1.86,5.45-2.4.57-.17,1.02-.42,1.57-.65.22-.09.45-.09.68-.17.19-.07.42-.32.6-.38.94-.3,1.84-.75,2.66-1.41.23-.19.45-.4.66-.63Z"/>
        <path class="cls-11" d="m1553.85,1145.28h-.02c.07-.08.12-.15.19-.22.17.12.29.25.37.38-.18-.03-.31-.1-.54-.16Z"/>
        <path class="cls-5" d="m1588.45,892.13c-1.45.3-1.46,1.87-1.09,3.03.9-.17.55-1.56-.39-1.19-.7.28-.42,1.82-.24,2.4,1-.12,1.88-2.3.51-2.47-1.45-.18-1.33,2.36-1.12,3.08.92-.1,1.39-1.6,1.65-2.28-.64-.33-1.05-.19-1.16.5"/>
        <path class="cls-5" d="m1588.7,887.35c.76,0,1.23.11,1.84.58.51.4.92.99,1.39,1.47.42.42.68.78.96,1.29.14.26.38.44.51.68.17.31.14.67.32,1"/>
        <path d="m1586.61,874.3l-.15.53c-.24.04-.4-.05-.48-.28.16.72-.49.81-.57,1.36-.09.71.46.77.62,1.43.29,1.18-.05,2.15.43,3.26.83,1.9,1.93,3.67,3.38,5.23,1.68,1.81,3.59,3.32,5.21,5.2,1.7,1.96,3.67,4.24,5.09,6.39,2.82,4.28,3.44,8.73,4.92,13.47.76,2.43,1.34,4.41,2.53,6.69.5.96,1,1.51,1.63,2.37.7.94.72,2.34,1.43,3.33-1.27-1.08-1.54-2.62-1.89-4.09-.38-1.64-1.18-3.23-1.26-4.92-.07-1.54-.54-2.83-.61-4.3-.09-1.59.21-3.24-.12-4.78-.3-.15-.47-.39-.51-.72,0-.43.02-.85.05-1.28-.11-.86-.48-1.04-.66-1.8-.11-.47.02-1.39.03-1.87.02-.91-.34-1.32-.48-1.98-.3-1.46-.29-2.48-1.2-3.72-.76-1.03-1.8-1.32-2.7-2.03.79.92,1.83,1.17,2.69,2.05s1.74,1.74,2.61,2.61c1.93,1.93,3.79,4.34,5.07,6.75,1.51,2.83,2.64,5.66,3.54,8.62.44,1.44.74,2.43.9,4,.06.61.17,1.17.19,1.67.02.89-.17,1.98-.17,2.94,0,3,.87,6.19,2.75,8.62,1.61,2.09,3.44,3.9,4.78,6.11s2.52,4.45,3.53,6.75c.64,1.45.69,3.01,1.21,4.35.28.72.55.99.65,1.81.11.99-.01,2.09-.01,3.09,0,.82.01,1.64,0,2.46-.02,1.22.44,1.93.64,3.07.3,1.7-.04,3.79-.03,5.53,0,1,.07,1.98-.14,2.94-.13.63-.49,1.1-.48,1.98.02,1.34.62,5.09-.48,5.96-.55-1.1-.25-4.04,0-5.21.04-.2.44-.42.51-.72.11-.44-.05-1.1-.04-1.57.02-1.08.47-1.73.65-2.77.3-1.69,0-3.81-.03-5.53-.02-1.91.62-3.55.61-5.53,0-1.78.63-2.87.61-4.61-.02-1.72.34-3.82-.05-5.48-.2-.86-.58-1.14-.56-2.21.01-.86.14-1.88-.05-2.71-.19-.81-.57-1.2-.56-2.21s-.17-2.07.14-3.02c.57.13,1.41,2.32,1.71,3,.7,1.61.95,3.29,1.36,4.95.21.83.26,1.67.45,2.49.12.52.55.64.68,1.17.35,1.43-.03,3.47-.03,4.95s.3,3.41.03,4.92c-.12.68-.56,1.16-.68,1.84-.14.84.12,1.61-.11,2.46-.43,1.64-.71,3.25-1.24,4.92-.51,1.57-.46,2.93-.46,4.61,0,1.54.02,3.07,0,4.61-.01,1.04.23,1.51.48,2.46.22.85-.04,1.62.11,2.46.48,2.82,1.74,5.41,2.51,7.96.76,2.53,1.26,5.14,2.44,7.41.61,1.17.79,2.32,1.38,3.54.4.83,1.88,2.71,1.71,3.64-.11-3.27.21-6.16,1.2-9.01.54-1.54,1.18-2.7,2.32-3.86.44-.45.74-.92,1.35-1.11.39-.12.87.1,1.28.05.74-.09.81-.37,1.35-.5,1.58-.38,2.82-.77,3.43-2.58.42-1.24.38-3.93.07-5.19-.6-2.45-3-4.91-4.25-7.12-1.43-2.55-2.26-5.05-3.23-7.86-.23-.68-.35-1.18-.45-2-.11-.87-.46-1.03-.66-1.8-.25-.96.3-1.65.51-2.49.26-1.06.34-2.03.75-3.07,1.29-3.32,1.22-6.56,1.23-10.14,0-1.78-.58-3.21-.62-4.92-.04-1.74,0-3.49,0-5.23,0-1.63-.1-3.29-.01-4.92.06-1.02.54-1.77.65-2.77.1-.87,0-1.88-.02-2.76-.02-1.6.6-2.63.61-4.31s-.56-3.38-1.23-4.89c-.59-1.33-1.06-2.61-1.69-3.87-.57-1.14-1.27-2.36-1.7-3.53-.49-1.32-.87-2.58-1.22-4-.42-1.71-1.16-3.16-1.48-4.92-.15-.82.07-1.65-.11-2.46-.21-.98-.55-1.41-.57-2.46-.04-1.88-.28-2.57-1.07-4.15-.63-1.26-.89-2.61-1.85-3.7s-1.77-2.31-2.76-3.37c-1.78-1.9-3.64-3.56-5.69-5.07-2.27-1.67-3.84-4.18-6.13-5.91-2.82-2.13-5.28-4.59-8.93-4.54-1.82.03-4.1-.4-5.86-.03-1.61.35-3.04,1.22-4.57,1.88-.64.28-1.39.34-2.09.68s-1.31.8-1.97,1.15c-1.11.59-1.62.34-2.74.58-.67.14-1.36.81-1.97,1.11-1.55.78-2.3.85-3.07,2.46-.3.62-.95,1.28-1.11,1.97-.2.89.03,2.19-1.2.03Z"/>
        <path class="cls-17" d="m1588.46,902.53c-.66.31-1.45.33-2.02.83-.31.27-1.18,1.69-.77,1.98.02.07,0,.11-.06.12.15.16.12.53.23.75.08.17.21.4.32.55s.28.29.41.41c.28.24.46.22.79.32.26.08.32.18.63.19.15,0,.33-.05.47-.01.13.03.16.15.28.18.48.12.9-.16,1.22-.49.64-.66,1.13-1.5.78-2.43-.13-.36-.4-.98-.68-1.25-.07-.07-.25-.06-.33-.12s-.12-.19-.22-.24c-.23-.13-.62-.03-.88-.04"/>
        <path class="cls-16" d="m1597.26,981.44c0,.12.01.27.01.4-.06.11-.12.22-.15.34.01-.16.13-.92.13-.74Z"/>
        <path class="cls-16" d="m1629.06,957.95c.12-.51-.03-1.33-.03-1.88-.01-.92,0-1.84,0-2.76,0-1.08.16-2.31.01-3.4-.12-.97-.51-1.44-.64-2.43-.03-.25-.04-.49-.06-.76.39.82.6,1.91.82,2.78.39,1.67.77,3.3.77,5.05,0,.45-.09,1.02.01,1.45.04.17.15.26.18.47.02.2,0,.44-.01.64-.01.48-.18.88-.18,1.39,0,.45.01.92,0,1.38-.01.48-.19.87-.19,1.38.01.45-.13.69-.18,1.1-.07.47.09.97-.04,1.43-.04.17-.13.27-.15.49,0,.22.02.4-.03.6-.02.09-.12.19-.15.31-.03.11.01.25-.01.37-.04.21-.11.45-.17.65-.1.42-.3.85-.38,1.29-.07.4-.18,2.42.17,2.62-.28.29.15.82.03,1.24-.09.39-.26.58-.15,1.05.02.12.12.22.15.4.02.25-.02.5-.01.74,0,.06.01.1.02.16-.26-.89-.45-1.53-.44-2.56.02-1.95,0-3.9,0-5.85,0-2.14-.3-4.56.13-6.62.03-.15.45-.46.51-.73Z"/>
        <path class="cls-13" d="m1556.48,953c-.03,1.68.83,3.08,1.67,4.47.74,1.22,1.63,2.52,2.46,3.69,1.19,1.68,3.25,1.33,4.95,1.81,1.45.41,3.09,1.88,4.44,2.63s2.81,1.35,4.3,1.98c1.8.76,3.08,2.32,4.63,3.48,1.2.9,2.17,2.03,3.33,2.97,1.61,1.3,3.34,2.23,4.8,3.7,1.13,1.15,2.47,2.15,3.84,2.92,1.44.81,2.87,1.69,4.27,2.46.78.42,1.94.72,2.8.93.74.18,1.69.66,2.29.78.96.19,1.99-.09,2.94.11,1.09.23,2.27.89,3.21,1.13.2.05,1.09.11,1.11.12.25.11.75.61.98.6.58-.02,1.69-.42,2.33-.64.68-.23,1.38-.98,2.07-1.35.6-.32,1.94-.75,2.46-1.2.59-.51.86-1.19,1.2-1.84.36-.69,1.11-1.39,1.35-2.07.58-1.67.97-3.29,1.42-5.03.05-.19.44-.41.51-.72.14-.61-.21-1.3-.06-1.91.06-.27.48-.57.51-.72.1-.46,0-.99.12-1.42.2-.71.39-1.45.63-2.13.39-1.1.38-1.89.58-3.08.35-2.09,1.28-3.35,1.26-5.53-.01-2.05,0-4.1,0-6.15,0-1.9.32-4.07-.47-5.68-.53-1.09-.32-1.03-1.68-1.09-1.04-.04-2.41.28-3.42.04-.47-.11-.53-.52-.94-.6-.48-.08-1.05.09-1.52-.02-.08-.02-.71-.53-.73-.53-.74-.02-.64.23-1.22.36-2.51.55-2.33,1.29-2.32,3.82,0,.9.25,2.22.03,3.11-.26,1.05-.67,1.12-.64,2.43,0,.35.06.88.01,1.24-.08.57-.41.95-.49,1.35-.21.97-.04,1.95-.28,2.94-.22.9-.86,1.61-1.11,2.43-.28.95-.42,1.98-.75,2.97-.41,1.24-.9,3.32-1.85,4.28-.68.69-1.27,1-2.3.8-.68-.13-1.16-.56-1.84-.68-.41-.07-.86.16-1.26.07-.48-.11-.52-.52-.94-.6-.5-.09-.99.02-1.5-.04-1.06-.12-1.7-.59-2.75-.94-2.97-.97-5.94-3-8.3-4.92-2.86-2.33-5.72-4.67-8.14-7.52-1.15-1.35-2.09-2.72-3.38-4.01-.92-.92-3.85-3.87-5.05-1.97-.82,1.29,1.8,3.75,2.32,4.7.28.51.4,2.46.17,3-.39.89-2.14.7-3.13.59-1.78-.2-3.38-1.41-5.04-1.72-.56-.11-1.21.02-1.74-.1s-.64-.55-1.16-.68c-.99-.25-2.99-.24-4.95-3.04Z"/>
        <path class="cls-7" d="m1541.13,1093.8c0-.71.19-1.19.19-1.9,0-.82,0-1.65,0-2.47v-5.47c0-.51,0-1.02,0-1.53,0-.52-.14-.93-.2-1.43-.11-.95,0-1.99,0-2.95,0-.89-.13-1.89.04-2.76.09-.45.15-.81.15-1.28,0-.58-.09-1.24.02-1.81.19-1.03.17-2.03.17-3.09,0-.47,0-.95,0-1.42,0-.69.16-1.32.19-2.01.06-1.18.33-2.35.38-3.52.02-.52.16-1,.19-1.51.04-.65.12-1.36.23-2.01.08-.47.1-.95.19-1.42.1-.52.08-1.03.16-1.55.15-1,.32-1.95.36-2.97.01-.41.16-.74.2-1.13.05-.47.06-.89.14-1.34.18-.96.18-1.95.38-2.9.09-.42-.01-.83.08-1.24.09-.36.12-.67.19-1.04.16-.86.31-1.77.52-2.61.38-1.48.66-2.92,1.15-4.38.14-.42.19-.84.38-1.25.16-.36.29-.68.43-1.05.25-.7.53-1.43.86-2.09s.62-1.36.99-2c.43-.72.9-1.33,1.38-2s1.13-1.14,1.67-1.71c.73-.77,1.64-1.25,2.38-2,.15-.15.3-.34.47-.48.25-.21.52-.25.78-.42.33-.22.6-.5.94-.72.74-.46,1.49-.81,2.28-1.19s1.54-.67,2.29-1.05c.33-.17.65-.24.99-.37.5-.18.94-.48,1.44-.68,1.87-.74,3.5-1.89,5.19-2.95,1.49-.94,3.12-1.92,4.75-2.56.34-.13.61-.41.95-.58.42-.2.84-.4,1.24-.64.82-.5,1.75-.69,2.57-1.22.74-.47,1.53-.72,2.29-1.09.63-.31,1.25-.72,1.9-1,.68-.3,1.41-.63,2.09-1,.28-.15.54-.31.8-.47.35-.21.87-.82,1.29-.82"/>
        <path class="cls-11" d="m1534.96,1166.95c.1,0,.2,0,.3-.01-.3.18-.59.37-.87.58-.11.08-.54.28-.67.31-.16.03-.36-.07-.51-.03-.11.03-.23.2-.29.21-.49.1-1.04.08-1.57.07,1.19-.59,2.22-1.16,3.61-1.13Z"/>
        <path class="cls-11" d="m1553.82,1145.28c-1.44,1.71-2.83,2.81-4.96,3.28-.84.19-.53.56-1.59.44-.48-.06-1.61-.4-2.11-.55-1.35-.4-1.83-1.21-1.59-3.02-1.15.37-2.14,2.15-3.21,2.94-.42.31-1.23.5-1.71.75-.53.27-1.15.34-1.71.49.13-.18.29-.35.45-.5.68-.68,1.21-1.55,1.98-2.11.32-.22.61-.35.91-.59.26-.21.45-.48.7-.65.27-.18.66-.32.98-.4.49-.11.74.09,1.23.16-.08-.07-.26-.28-.64-.77.54-.09,1.32.36,1.83.49.68.18,1.24.25,1.97.25,1.2,0,2.59.19,3.75-.06.27-.06.44-.19.79-.19.29.01.58,0,.86,0,.65,0,1.43-.11,2.07.06Z"/>
        <path class="cls-11" d="m1556.24,1156.71c-.37.44-.86.77-1.3,1.14-.15.12-.28.26-.42.38.46-.93.74-2.06.73-2.96-.02-1.8.26-3.77.02-5.55-.13-.98-.53-1.44-.65-2.43-.09-.73.13-1.32-.23-1.86.09.02.19.03.32.03.19.01.68-.1.87-.01.42.18.23,1.27.23,1.73-.01.38.1.49.19.79.09.31,0,.6.04.93.07.53.31,1.04.44,1.52.31,1.13.39,2.3.67,3.39.28,1.03-.23,2.08-.92,2.88Z"/>
        <path class="cls-11" d="m1494.91,1148.67c.06.16.08.27.08.34-.03-.11-.07-.22-.08-.34Z"/>
        <path class="cls-11" d="m1513.13,1130.06c-.51.41-1.01.76-1.51,1.08.15-.16.29-.32.42-.46.3-.29.38-.56.6-.86.38-.53.82-1.25,1.48-1.49.39-.13.88-.08,1.34.07-.37.22-.51.6-.93.91-.44.32-.94.38-1.41.75Z"/>
        <path class="cls-11" d="m1515.35,1128.68c.02-.12.06-.21.11-.28h.01c.1.03.21.07.31.1-.15.26-.29.22-.44.18Z"/>
        <path class="cls-11" d="m1530.1,1141.12c-.25.35-.58.64-.81.97-.21.32-.44.67-.68,1-.47.61-1.03,1.13-1.71,1.46-1.36.66-2.59,1.53-4,2.09-.4.16-.82.32-1.17.6-.38.3-.59.39-1.04.61-.72.35-1.44.68-2.2.98-.81.32-1.51.78-2.27,1.24-.7.41-1.42.57-2.14.97-.79.44-1.61.46-2.4.86-.58.29-1.23.75-1.83.86-.3.06-.65-.02-.94.04-.22.06-.25.21-.47.27-.45.1-.78-.03-1.24.17-.76.34-1.4.79-2.15,1.11-.4.17-.8.3-1.23.49-.45.2-.82.06-1.3.18-.39.09-.49.27-.97.26-.51-.02-.75.18-1.22.25-.51.08-.77-.2-1.23-.26-.51-.06-.84.01-1.3-.18-.74-.31-.93-.77-1.22-1.48-.08-.19-.17-.38-.26-.59,2.01,1.04,4.86-.17,6.66-.83.73-.27,1.41-.53,2.17-.65.64-.11,1.14-.32,1.67-.47,1.54-.42,3.25-.37,4.81-.72,2.38-.51,4.55-2.47,6.73-3.72,2.67-1.52,5.71-2.8,8.36-4.29,1.53-.86,2.19-1.69,3.18-3.1.1-.15.23-.29.39-.42.02.73.16,1.76-.19,2.28Z"/>
        <path d="m1598.18,888.92c0,.43.17.76.18,1.18s.17.77.19,1.18c.03.79.28,1.71.56,2.46.31.82.83,1.56,1.16,2.38.22.54.54,1,.78,1.53.24.52.42,1.04.68,1.55,1.83,3.55,3.49,7.15,5.19,10.75.37.8.7,1.58,1.1,2.37.35.71.8,1.35,1.14,2.05.35.74.57,1.51,1.1,2.19.47.6,1.05,1.15,1.54,1.72.63.72,1.19,1.5,1.78,2.24s1.22,1.44,1.74,2.18c.5.72.81,1.61,1.27,2.36s.97,1.53,1.46,2.29c.22.35.37.74.59,1.09.3.48.46.98.73,1.47.45.82.91,1.67,1.29,2.54.34.79.66,1.63.86,2.46s.54,1.57.73,2.37c.1.41.27.78.36,1.18s.28.83.41,1.24c.23.7.45,1.49.64,2.23.09.36-.01.73.08,1.09.12.45.14.8.14,1.28,0,.86.18,1.61.18,2.46s-.19,1.54-.18,2.37c0,.8-.27,1.59-.37,2.37-.05.39.07.8-.03,1.18-.12.45-.14.79-.14,1.28,0,.8-.18,1.39-.18,2.19,0,.38.06.82-.02,1.18-.09.43-.17.73-.17,1.18s-.07.75-.17,1.18c-.09.39-.02.87-.02,1.28,0,.79,0,1.58,0,2.37,0,.46.11.75.19,1.18.07.38-.06.8-.02,1.18.03.23.16.4.2.63s0,.51,0,.75c0,.46.17.82.19,1.27.02.37.12.57.18.91.07.39.3.73.37,1.09.04.18-.02.37.03.56.06.25.14.37.14.64,0,.46.08.75.19,1.18.19.79.51,1.51.82,2.28.27.67.51,1.39.73,2.09s.54,1.34.82,2c.32.73.67,1.4.96,2.16.26.67.52,1.37.82,2.05.6,1.38,1.49,2.61,2.33,3.82.38.54.69,1.2,1.09,1.74.31.42.61,1.19,1.18,1.38.36.12.82-.2.89-.56.07-.32-.21-.74-.3-1.09-.19-.77.1-1.56.28-2.23.06-.21,0-.39.03-.6s.13-.35.17-.55c.04-.18-.01-.36.03-.53.04-.15.19-.32.26-.47.27-.62.68-1.16.98-1.76.18-.36.11-.61.2-.99.03-.14.21-.21.21-.36,0-.14-.18-.3-.21-.45-.04-.21.02-.42-.03-.64-.04-.17-.13-.36-.19-.54-.16-.54-.3-1.09-.45-1.64-.67-2.41-1.5-4.8-2.01-7.25-.06-.29-.01-.55-.03-.84-.02-.26-.13-.48-.17-.74-.06-.32-.02-.67-.01-1,0-.42-.1-.73-.17-1.13-.19-1.12.18-2.33-.11-3.44-.16-.62,0-1.25-.13-1.87-.14-.65-.14-1.24-.14-1.92,0-.47.07-.99,0-1.45-.03-.25-.17-.47-.2-.72-.04-.32,0-.68,0-1,0-.27.05-.57,0-.83-.04-.3-.18-.54-.2-.86-.03-.55.1-1.15.02-1.69-.04-.3-.19-.54-.2-.86-.01-.28.04-.55,0-.82-.11-.66-.17-1.23-.16-1.91,0-.57-.16-1.08-.18-1.64-.02-.63-.27-1.26-.35-1.89-.18-1.34-.2-2.66-.2-4.03v-3.51c0-1.18-.16-2.28-.18-3.45,0-.68-.19-1.29-.18-1.99.01-.68-.17-1.3-.18-1.98,0-.63-.15-1.37-.28-1.99-.16-.78-.22-1.59-.36-2.39-.6-3.21-1.88-6.2-2.83-9.3-.25-.82-.68-1.63-1.1-2.38-.39-.71-.66-1.44-1.09-2.14-.38-.62-.77-1.21-1.09-1.86-.21-.42-.4-.88-.65-1.28s-.6-.67-.81-1.08c-.4-.78-.98-1.4-1.36-2.19-.39-.79-.79-1.57-1.18-2.36-.43-.86-.92-1.7-1.36-2.56-.42-.8-.94-1.65-1.48-2.39s-.88-1.47-1.39-2.17c-.53-.71-1.06-1.42-1.52-2.18-.73-1.22-1.84-2.28-2.82-3.3-.84-.88-1.65-1.71-2.37-2.69-.59-.81-1.41-1.25-2.18-1.85-.44-.34-.77-.83-1.19-1.2-.34-.31-.71-.5-1.09-.74-.79-.49-1.38-1.22-2.17-1.72-.6-.38-1.47-.67-2.2-.52-.83.16-1.77.29-2.23,1.08-.13.22-.36.46-.42.71-.05.2.04.43,0,.63-.04.19-.21.22-.18.48.02.15.17.2.21.35.05.2-.04.44-.02.65.05.4.23.82.42,1.18.3.59.57,1.23.91,1.78.3.51.98,1.22-.04-.68Z"/>
        <path d="m1587.27,877.07c-.47.61-.95-.38-1.1-.72-.26-.62-.14-1.2.14-1.83.46-1.04,1.18-2,2.09-2.69.49-.38,1.03-.76,1.6-1.01.61-.26,1.15-.4,1.78-.54.13-.03.22-.13.4-.15.2-.02.35.02.55-.04.3-.08.62-.09.91-.18s.6-.28.91-.37c.35-.11.67-.22,1-.32.13-.04.33-.07.47-.1l.19.06c.1.04.18,0,.21-.1.29-.03.57-.05.87-.05.7,0,1.39-.09,2,.22.19.1.53.25.69.36.18.14.43.27.59.41.38.33.87,1.23.69,1.74-.22.62-.76,1.02-1.24,1.45-.51.46-1.1.86-1.69,1.23-.26.17-.6.2-.88.36-.25.14-.45.33-.72.46-.71.36-1.45.59-2.19.82-.36.11-.73.28-1.09.37-.17.04-.29.03-.46.04-.21.02-.34.11-.49.14-.34.07-.72-.04-1.06.08-.36.12-.59.42-1,.49-.44.08-.63-.09-.99-.18s-.63.1-.97-.12c-.21-.14-.34-.41-.54-.56-.32-.24-.67-.15-1.02-.25-.01-.05-.02-.1.33.94Z"/>
        <path d="m1631.19,929.19c-.61,0-.93.09-1.28.64-.38.59-.63,1.32-.9,1.96-.38.9-.59,1.86-.77,2.82-.29,1.46-.52,2.97-.51,4.46.02,1.93,0,3.86,0,5.8,0,1.02,0,2.03,0,3.05,0,1.07.16,2.12.18,3.18.02.87.23,1.7.33,2.56.09.79.08,1.58.17,2.37.19,1.63.29,3.24.64,4.84.23,1.07.51,2.05.94,3.05.29.68.45,1.58,1.17,1.96.1.05.02.14.18.18.22.06.89-.59.85-.55.65-.63,1.34-1.55,1.72-2.38.65-1.39.81-2.91,1.07-4.41.34-1.98.36-3.99.64-5.98.13-.91.31-1.82.33-2.74.01-.42-.03-.84-.02-1.26.02-.69.23-1.35.16-2.05-.38-3.98-.52-7.98-1.43-11.91-.36-1.56-.81-3.06-1.47-4.51-.34-.75-.57-1.54-1.12-2.17-.32-.37-.87-.95-1.43-.75-.51.19-.53,1.21.56,1.84Z"/>
        <path d="m1624.83,972.69c-.02-.13-.09-.4-.2-.44-.07.3-.14.51-.14.83,0,.35.08.72.17,1.06.21.85.32,1.73.61,2.57.68,1.95,1.32,3.94,1.94,5.92.52,1.67.94,3.35,1.34,5.04.17.69.39,1.38.54,2.07.07.34.13.68.21,1.03.03.14.06.27.1.4.04.15,0,.3.02.45.06.34.21.66.23,1,.01.19-.03.38.02.57s.09.28.09.5c0,.14-.02.31,0,.45.02.18.11.32.12.5s.07.85-.09.89c-.16-.49.06-1.22.2-1.68.06-.21.18-.44.26-.67.1-.31.15-.56.22-.87.13-.62.35-1.2.42-1.82.03-.27.12-.49.11-.78s.12-.5.11-.78c0-.32-.08-.56-.12-.87-.03-.27.04-.55,0-.81-.02-.15-.09-.19-.12-.33-.03-.12.03-.27,0-.4-.04-.28-.14-.58-.23-.84-.17-.48-.26-1.04-.42-1.57-.08-.26-.16-.53-.25-.78-.05-.15-.08-.3-.14-.45-.06-.16-.18-.28-.2-.45-.02-.16.06-.84-.02-.98-.11-.19-.21-.39-.31-.59-.19-.38-.41-.8-.63-1.17-.55-.92-.86-1.97-1.47-2.86-.5-.72-.93-1.51-1.34-2.26-.22-.4-.38-.8-.56-1.21-.07-.17-.22-.38-.26-.55-.02-.09.01-.19,0-.28-.02-.13-.18.34-.21.16Z"/>
        <path class="cls-10" d="m1513.55,1128.3l.12-.04c-.19-.35-.18-.81-.33-1.2s-.31-.73-.56-1.07c-.73-1.02-1.23-2.37-2.32-3.04-.83-.51-1.72-.85-2.66-1.03-.74-.14-2.13.34-2.42,1.08-.26.67.38,1.14.82,1.54.39.36.8.72,1.19,1.09.21.2.39.29.62.45.31.22.52.56.82.79.94.72,1.99,1.33,3.03,1.89.83.45,1.58.59,2.06-.47.17-.39.23-.84.39-1.23.19-.44.46-.84.72-1.23.57-.83,1.26-1.48,2.21-1.9.79-.35,1.77-.21,2.47.26.62.42,1.48,1.55.83,2.27-.52.58-1.56.97-2.27,1.28-.84.36-1.74.59-2.62.82-1.68.43-3.23,1.41-4.97,1.39-.53,0-.93.18-1.44.21s-.81-.05-1.23.2c-.92.56.18.96.67,1.39.64.55,1.31,1.01,2.05,1.44.65.38,1.27.71,1.56,1.43-.19.16-.17.53-.42.64-.29.12-.52-.19-.77-.32-.64-.35-1.23-.7-1.86-1.04-.35-.19-1.13-.67-1.39-.2s.28,1.37.38,1.79c.16.65-.04,1.39-.83,1.25-.49-.09-1.16-.93-1.55-.43-.21.27.07.69-.1.92-.14.19-.65.16-.9.09-.27-.07-.53-.31-.84-.37-.35-.07-.77-.02-1.13-.02"/>
        <path class="cls-10" d="m1543.72,1144.71c-.13-.94-1.05-2.15-1.63-2.87-.95-1.19-2.37-2.48-3.81-2.98-1.08-.38-2,.07-1.95,1.24.05,1.11.75,1.6,1.53,2.27.91.77,1.71,1.31,2.88,1.52.45.08.97.18,1.33.46.41.32.61,1.03,1.04.58.22-.23.47-.72.61-1.02.24-.49.49-.96.76-1.45.41-.75,1.24-2.32,2.32-2.02.93.26,1.11,1.44,1.03,2.23-.12,1.07-1.18,1.44-2.07,1.84-.46.2-.79.2-1.32.21s-.85-.15-1.33-.21c-.26-.03-.53-.01-.78-.05-.13-.02-.01-.12-.24-.12-.09,0-.22.13-.32.15-.56.1-1.12-.13-1.63.22-.97.67-.25,1.73.19,2.57.16.31,2.06,2.88.62,2.55-.73-.17-1.85-1.72-2.42-.61-.39.77.37,2.34-.76,2.47-.88.1-2.1-1.07-2.83-.17s.17,2.29-.78,3.12c-.89.78-2.36-.35-3.26-.72-.64-.26-1.03.07-1.55.44-.44.31-.77.58-1.23.82"/>
      </g>
    </g>
    <path class="cls-11" d="m1544.71,938.61c-5.85-12.57-21.55-19.82-32.9-20.47-3.95-.23-7.27-1.76-11.29-1.43-4.61.38-8.31-1.63-12.99-1.34-6.03.37-15.33.55-19.7-5.44-2.37-3.24-2.43-8.63-2.74-12.57-.38-4.85-2.19-7.64-2.41-12.95-.19-4.68-1.4-6.88-2.35-10.89-1-4.23-.4-9.73-.66-14.14-.51-8.43,3.94-14.08,6.64-21.5,1.19-3.27,2.78-6.66,3.38-10.26.85-5.07-1.63-8.21-3.26-12.36-3.02-7.72-6.95-15.21-8.61-23.29-1.4-6.85-2.27-19.76,1.58-25.02,2.67-3.65,5.38-6.95,8.4-10.29,2.6-2.87,4.75-3.94,7.72-6.07,6.78-4.87,13.21-8.78,21.01-11.43,8.35-2.84,16.3-6.58,23.57-12.36,3.08-2.45,6.01-5.49,9.04-8.04,2.93-2.47,6.46-3.63,9.14-6.5,5.73-6.14,10.27-13.74,15.75-20.24,3.56-4.22,6.44-8.43,10.48-11.83,3.29-2.77,7.29-3.75,11-5.6,3.99-1.99,7.48-4.8,12.31-5.78,6.72-1.36,14.02-1.96,20.51.06,7.54,2.35,16.31,4.96,23.23,8.82,3.54,1.97,7.28,2.49,10.89,4.26,3.51,1.72,7.16,4.38,10.81,6.27,7.91,4.1,16.12,7.83,23.95,11.87,6.1,3.15,13.83,8.6,20.93,7.11,3.72-.78,7.59-5.17,10.47-7.71,5.3-4.67,9.62-10.23,14.11-15.89,5.33-6.71,10.7-11.91,18.2-15.15,8.07-3.49,15.95-8.2,24.08-11.37,21.13-8.25,43.94-3.57,65.73-1.42,11.74,1.16,22.05,3.39,33.15,7.67,7.9,3.05,15.58,6.77,23.74,9.81,8.2,3.05,16.06,7.73,24.58,8.92,3.79.53,7.76,1.35,11.58,1.31,6.53-.07,11.88,1.42,18.56,1.06,15.63-.85,30.13-.81,44.52-9.35,12.14-7.2,21.02-22.18,26.1-36.6,5.9-16.74,12.16-33.34,19.66-49.23,3.77-7.99,6.72-16.14,8.66-24.96,1.42-6.47,2.62-12.93,5.28-18.92,4.08-9.18,10.64-16.68,16.05-24.82,6.4-9.62,13.54-19.1,20.58-28.15,5.16-6.64,10.28-13.2,15.25-20.01,2.33-3.19,4.54-6.71,7.09-9.62,3.01-3.44,5.36-7.35,8.36-10.79,5.31-6.09,10.98-11.74,16.55-17.51,5.26-5.45,10.34-10.93,15.65-16.21,4.81-4.79,9.05-10.81,13.29-16.2,5.16-6.56,11.65-12.54,15.95-19.94,3.5-6.04,7.71-11.15,11.22-17.26,1.96-3.42,4.47-6.01,6.59-9.27,2.35-3.61,3.77-7.87,6.32-11.33,2.36-3.2,3.81-5.78,5.61-9.47,1.66-3.39,4.19-5.83,6.11-9.04,3.62-6.06,7.02-12.45,9.3-19.21,1.23-3.65,3.56-6.51,4.98-10.02,1.29-3.17,2.27-6.66,3.36-9.94,2.03-6.11,3.78-12.33,5.5-18.59,6.17-22.55,8.78-46.19,12.96-68.99,2.05-11.18,1.44-22.25,1.44-33.64,0-2.88.95-5.26,1.13-8.04.14-2.24-.3-4.7-.41-6.95-.14-2.68-.4-5.4-.45-8.07-.06-3.18.96-5.91,1.08-9.05.22-5.96-.62-11.2.16-17.1.65-4.87-.36-10.02-.48-14.94-.14-5.62,1.04-10.56.64-16.4-.42-6.04-2.07-11.56-2.36-17.76-.72-15.27-7.39-37.34-20.21-45.33-7.4-4.61-15.58-3.27-23.87-2.84l-12.88.66c-3.76.19-8.38,1.25-12.05.48-.82-.17-.92-1.1-1.74-1.26-1.18-.24-2.27.29-3.46.13-2.12-.29-3.62-1.47-5.81-1.46-2.51.01-4.13-.71-6.51-1.11-3.58-.6-7.22-.05-10.9-.69s-7.36-.14-11.05.04c-5.52.26-10.87-.22-16.03-2.71-3.78-1.82-7.21-4.45-11.12-5.93-2.43-.92-4.95-1.45-7.5-1.7-11.96-1.18-24.25.97-36.18,1.58-9.88.51-19.76,1.02-29.64,1.52-4.98.26-10.05.9-15.03.85-2.52-.03-4.48-1.11-6.92-1.56-3.09-.57-6.56.16-9.7.33-11.53.61-23.07,1.19-34.6,1.78-6.01.31-12.03.55-18.03.92-5.88.37-11.04-1.5-16.86-1.13-5.16.32-10.34.67-15.51.81-5.23.14-10.24-1.11-15.52-1.19-3.93-.06-7.18-1.59-11.27-1.46-2.05.07-3.26-.26-5.21-.76-2.47-.64-4.58-.13-6.98-.57-1.77-.33-2.58-1.61-4.25-1.98s-3.54.73-5.23.48c-4.4-.65-8.73-2.41-13.09-3.29-7.17-1.44-15.92.7-23.2,1.02-4.2.18-7.16,1.92-11.06,2.66-4.09.77-8.72.37-12.89.59-7.52.39-15.8-.31-23.2,1.12-3.95.76-6.84,2.48-11.06,2.66-4.82.21-9.64.5-14.46.74-4.36.22-8.72.47-13.08.67-5.36.24-9.72,2.45-14.89,2.83-2.64.19-5.44-.26-8,.54-1.95.6-3.31,1.81-5.35,2.19-5.39,1.02-11.99.9-17.47.87-5.44-.03-10.4-1.56-16-1.24-6.23.36-12.46.64-18.69.96-6.88.35-12.87-.55-19.6-1.11-3.83-.32-7.66,1.13-11.5.52-4.2-.66-8.06-.96-12.32-1.4-6.85-.72-13.95-2.14-20.79-3.27-8.06-1.33-16.3-1.35-24.26-2.73-8.09-1.41-16.13-1.62-24.17-2.78-8.75-1.26-17.33-.18-26.02-1.8-3.45-.64-6.89-.12-10.33.14-4.3.32-7.89-.8-12.11-1.27-8.15-.91-17.78-.12-25.68,2.16-7.73,2.23-16.04,1.83-24.03,2.24-4.53.23-9.11.25-13.62.63-5.21.43-10.09,2.36-15.31,2.88-8.46.84-17.14,2.81-25.42,4.89-4.38,1.1-8.81.47-13.21,1.3-4.84.91-9.16,2.43-14.14,2.62-8.71.33-17.41.86-26.11,1.3-9.31.47-18.39-1.05-27.6-.64-8.84.39-17.16.28-25.98-.88-9.27-1.22-18.53-1.33-27.84-2.16-18.9-1.69-38.09-2.61-56.94-5.08-17.73-2.32-35.87-7.64-53.75-7.61-9.32.01-18.43-2.38-27.75-2.6s-18.54-.7-27.67-2.1c-8.27-1.27-17.21.44-25.53.86-9.7.5-19.74.21-29.38,1.41-18.32,2.27-36.58,7.37-54.55,12.03-17.78,4.61-35.46,9.15-53.14,14.31-17.22,5.03-34.97,7.9-52.34,12.22-3.96.98-7.83,2.34-11.88,2.71-3.46.31-6.94-.1-10.37.63s-6.46,2.16-10.06,2.41c-4.58.32-9.35-.21-13.81,1.11-13.56,4.01-28.67,3.04-42.73,3.76s-26.68,3.39-40.4,4.09c-12.92.66-27.84-.92-40.37,2.52-13.33,3.66-27.81.41-41.08,4.13-6.69,1.87-12.8,2.22-19.75,2.58-2.84.15-5.74.08-8.57.37-3.91.4-7.37,2.32-11.27,2.75-6.52.71-12.01-.71-18.32-1.25-6.56-.56-12.88,1.73-19.38.09-5.86-1.48-11.9-.59-17.83-1.66s-11.5-.12-17.29-1.13c-2.77-.48-5.42.25-8.15-.2-2.47-.4-4.43-1.55-6.97-1.54-5.93.02-11.23-1.49-17.29-1.08-5.4.36-10.27-1.64-15.58-1.21-4.99.41-10.7-.95-15.61-2.22-4.29-1.1-9.53-2.01-13.94-2.41-2.47-.23-5.03.75-7.51.57-3.03-.22-5.64-2.16-8.69-1.53-2.7.56-3.08,1.88-6.12,1.28-2.51-.5-4.34-.79-6.84-.72-5.05.14-10.12.84-15.17.82s-9.11-1.62-14.23-1.33-10.05.52-15.08.78c-4.42.23-8.85.44-13.27.68-2.43.13-5.44.91-7.81.51-2.16-.36-3.83-1.7-6.04-1.88-4.46-.38-8.12.01-12.58-.84-2.29-.44-4.13-.15-6.4-.1-3.06.07-5.58-1.02-8.56-1.43-3.75-.51-7.7-1.59-11.39-1.64-2.56-.04-5.08.77-7.63.27-2.27-.44-3.93-1.34-6.25-1.52-8.62-.68-17.01-4.49-25.7-4.72-3.85-.11-7.82-.96-11.66-1.58-2.18-.35-3.77-1.59-6.11-1.59s-3.8-.05-6.06-.64c-4.03-1.05-8.1-1.27-12.17-2.2-4.04-.93-8.14-1.7-12.19-2.58-3.81-.83-7.47-1.63-11.33-2.5-9.31-2.11-19.06-1.44-28.13-4.04-2.09-.6-4.11-1.13-6.28-.9-3.45.37-6.31,2.53-9.43,3.97-10.69,4.94-23.58.14-34.87.93-3.42.24-4.8.1-7.74-1.2-5.8-2.58-11.65-5.54-17.6-7.6-9.13-3.15-18.7-4.49-27.94-7.72-8.34-2.91-19.68-1.81-28.17-.18-10.74,2.06-19.46,8.29-28.61,14.26-13.89,9.06-26.02,20.65-34.81,35.97-.92,1.61-1.49,3.54-2.57,5.1-.8,1.15-2.05,1.99-2.74,3.23-3.64,6.51-6.04,17-7.46,24.49-.52,2.76-.73,5.59-1.18,8.36-.54,3.33-1.23,6.62-2.17,9.83-1.38,4.69-3.4,9.04-5.16,13.54-2.43,6.2-3.86,12.57-5.28,19.16-1.8,8.37-.16,16.53.28,25.03.19,3.79.41,7.57.58,11.36.18,4.02,1.09,6.99,1.86,10.69.81,3.91,0,8.1.67,12.02.78,4.56,1.94,8.19,2.17,12.92.52,10.48,2.46,20.24,2.98,30.77.26,5.16,1.84,9.8,2.27,14.9.48,5.67.59,10.27,1.9,15.82.77,3.28.41,6.43.74,9.73s1.74,6.29,2.05,9.66c1.81,19.46,5.95,36.9,6.44,56.56.36,14.49,2.06,28.81,2.1,43.3.12,39.78,31.22,61.14,48.14,94.38,5.45,10.71,5.59,22.23,7.99,34.02,4.98,24.48,21.25,32.56,40.14,46.06,7.89,5.64,15.72,11.73,24.43,16.06s19.74,3.6,27.54,8.04c6.98,3.97,12.15,12.96,19.15,17.71,9.38,6.36,20.02,10.77,30.93,13.71,20.48,5.51,36.83,11.98,52.04,27.84,16.41,17.12,29.26,33.96,50.88,45.72,26.72,14.53,59.63,8.09,89.11,7.73,19.79-.24,38.74,4.14,58.61,4.14,25.26,0,47.79,0,71.18,10.07,7.02,3.02,14.24,7.2,20.27,11.94,4.3,3.38,9.43,5.38,13.5,9.12,1.54,1.41,2.64,3.15,4.38,4.3,2.02,1.34,4.08,1.52,6.06,3.27,5.25,4.66,9.38,10.09,15.02,13.91s11.08,7.01,17.62,8.5c5.76,1.31,11.78-.44,17.1-2.19,3.27-1.08,6.6-2.22,9.87-3.35s6.8-.68,10.08-.88c6.46-.39,12.78,1.1,18.71,4.28,13.53,7.26,26.31,16.48,38.72,25.36,12.66,9.07,24.55,17.94,38.76,23.6,7.71,3.07,16.5,4.29,24.38,6.03,6.41,1.42,12.8,3.65,18.94,6.4,7.92,3.55,15.88,6.12,23.63,10.22,5.35,2.83,10.48,6.44,16.12,8.08,7.36,2.13,13.65,3.72,21.38,3.38,5.37-.24,10.87-2.01,15.88-3.72,12.16-4.14,24.55-7.81,36.01,1.41,1.75,1.4,2.84,3.2,4.44,4.69,1.39,1.3,3.09,1.9,4.53,2.98,3.1,2.33,5.91,5.06,8.99,7.36,5.81,4.34,11.98,8.3,18.16,12.09,7.55,4.64,15.23,8.92,23.3,12.18,7.31,2.95,13.82,2.72,21.31,3.75,8.47,1.16,16.93,3.05,25.3,4.49s16.43.88,24.6,1.98c5.27.71,9.15-1.11,14.16-2.08,4.09-.79,8.73-.36,12.89-.58,8.72-.45,17.3-.48,25.69-2.59,4.98-1.25,9.89-1.67,14.91-3.16,4.37-1.3,8.94-2.82,13.44-3.64,2.39-.43,4.73-.11,7.14-.64s4.51-1.44,7.12-1.67c3.59-.31,7.18.07,10.68-.87,9.83-2.64,19.88-4.9,29.75-7.32,4.26-1.04,8.49-1.67,12.77-2.69,3.46-.83,7.03-1.87,10.61-2.16,16.28-1.35,32.62-2.35,48.48,1.2,9,2.02,16.69,6.32,23.67,13.06,5.41,5.23,11.71,9.34,17.28,14.38,7.8,7.05,17.72,9.71,25.37,17.14,6.89,6.7,13.98,13.02,21.42,18.93,9.78,7.77,19.71,13.11,31.47,15.47,11.84,2.38,23.61,3.88,35.55,2.76,15.1-1.42,28.92-8.29,43-13.88,6.09-2.41,11.71-4.2,17.49-7.14,3.26-1.66,7.32-4.05,10.8-4.94,1.91-.49,4.08.24,6.02-.13,2.19-.41,3.77-1.89,5.9-2.5,1.63-.46,3.54.18,5.2-.12,1.95-.35,2.73-1.59,4.31-2.11,3.07-1.02,7.78-1.06,11.05-.79,3.53.29,5.61,1.82,9.52,1.57,4-.25,8.02-.41,12.02-.61,3.65-.19,7.62-.94,11.18-.12,2.76.64,7.91,2.59,9.99,4.57-.37.19-.74.37-6.27.82Z"/>
  </g>
</svg>