<?xml version="1.0" encoding="UTF-8"?>
<svg id="Layer_2" data-name="Layer 2" xmlns="http://www.w3.org/2000/svg" viewBox="0 0 96.22 320.46">
  <defs>
    <style>
      .cls-1 {
        fill: none;
        stroke: #2a3c24;
        stroke-linecap: round;
        stroke-linejoin: round;
      }

      .cls-2 {
        fill: #fbf3d3;
      }
    </style>
  </defs>
  <g id="balloner">
    <path class="cls-2" d="m5.12,80.87C-4.05,59.26-1.02,32.1,15.19,15.1,31.39-1.89,60.81-5.55,78.99,9.31c17.32,14.17,20.71,40.27,14.06,61.64-5.13,16.48-23.72,55.27-41.91,53.39-18.81-1.94-39.34-27.7-46.03-43.47Z"/>
    <path class="cls-1" d="m51.33,124.46c8.81,3.47,12.39,14.54,10.89,23.89s-6.72,17.59-10.89,26.08c-4.17,8.49-7.41,18.27-4.61,27.31,3.02,9.75,12.16,16.08,18.48,24.1,10.22,12.95,12.95,30.56,10.97,46.93-1.98,16.37-8.19,31.89-14.35,47.19"/>
  </g>
</svg>