<?xml version="1.0" encoding="UTF-8"?>
<svg id="Layer_2" data-name="Layer 2" xmlns="http://www.w3.org/2000/svg" viewBox="0 0 316.7 279.75">
  <defs>
    <style>
      .cls-1 {
        fill: #fcf4d4;
      }

      .cls-2 {
        fill: none;
      }

      .cls-2, .cls-3 {
        stroke: #2a3c24;
        stroke-linecap: round;
        stroke-linejoin: round;
        stroke-width: .5px;
      }

      .cls-3 {
        fill: #2a3c24;
      }
    </style>
  </defs>
  <g id="flyvende_bøger" data-name="flyvende bøger">
    <g>
      <path class="cls-3" d="m140.25,46.75c8.87-7.37,18.57-13.67,28.24-19.95,17.22-11.18,35.07-22.62,55.31-26.02,5.69-.96,12.26-.99,16.35,3.09,1.51,1.51,2.52,3.44,3.5,5.33,21.46,41.45,42.95,82.95,61.43,125.82,5.86,13.59,11.5,27.76,11.37,42.56-.02,1.74-.21,3.69-1.54,4.8-.71.6-1.61,1-2.54,1.1-27.59,2.93-51.31,8.58-64.67,15.96-1.86,1.03-36.49,21.77-37.06,23.81,0,0-4.28,1.46-8.64,3.26-13.17,5.44-22.53,3.92-43.64,13.56-12.94,5.9-21.33,15.47-27.18,20.75-7.68,6.94-13.97,12.67-22.39,18.68-8.55-13.49-18.77-21.83-27.58-35.16C53.88,203.03,27.87,156.07,2.13,115.43c-2.22-3.51-2.4-8.3-.91-12.17,1.75-4.55,6.7-7.09,11.49-7.99s11.11-4.66,15.88-5.65c6.06-1.26,23.18-7.08,23.18-7.08,12.21-1.59,36.05-8.09,44.56-11.5,16.91-6.77,30.56-13.2,43.91-24.29Z"/>
      <path class="cls-1" d="m121.13,71.08c20.38,39.97,49.76,77.9,70.24,117.84,4.53,8.84,8.57,18.26,8.8,28.19,30.76-23.45,72.82-43.06,111.18-38.13-7.04-30.38-20.72-58.75-34.3-86.83-14.2-29.37-28.41-58.74-42.61-88.11-46.36,12.11-76.12,39.73-113.31,67.04-14.47,10.63-31.7,10.31-48.98,13.22-22.27,3.76-44.87,9.26-63.59,22.5,29.3,57.63,65.9,112.47,104.94,163.99,17.89-28.84,53.51-46.49,86.67-53.69"/>
      <path class="cls-2" d="m139.01,84.1c15.98-9.19,36.98-12.31,46.78-27.92,2.48-3.94,4.03-8.45,6.87-12.14,6.6-8.57,18.37-10.8,29.06-12.42"/>
      <path class="cls-2" d="m163.97,112.43c11.1-2.74,23.79,2.31,33.79-3.25,7.27-4.04,10.73-12.45,16.16-18.76,6.94-8.05,17.66-12.71,28.28-12.29"/>
      <path class="cls-2" d="m191.94,143.94c15.39-1.51,30.32-7.36,42.64-16.7,4.77-3.62,10.01-8.01,15.93-7.12"/>
      <path class="cls-2" d="m215.08,172.55c18.96-10.57,40.22-16.98,61.86-18.66"/>
      <path class="cls-2" d="m32.5,117.93c16.24-7.77,37.24,1.36,52.81-7.67,3.99-2.31,7.28-5.67,11.18-8.13,3.9-2.46,8.9-3.96,13.11-2.08"/>
      <path class="cls-2" d="m49.42,149.86c20.61,4.74,43.05.97,60.97-10.26,4.62-2.9,9.02-6.3,14.16-8.14"/>
      <path class="cls-2" d="m76.25,188.58c12.99,1.33,26.41-1.87,37.4-8.93,7.01-4.5,13.51-10.7,21.79-11.75"/>
      <path class="cls-2" d="m97.83,221.83c17.2,3.57,33.85-6.97,48.27-17,5.68-3.95,11.36-7.91,17.04-11.86"/>
    </g>
  </g>
</svg>