<?xml version="1.0" encoding="UTF-8"?>
<svg id="Layer_2" data-name="Layer 2" xmlns="http://www.w3.org/2000/svg" viewBox="0 0 732.56 732.24">
  <defs>
    <style>
      .cls-1 {
        fill: #f9dc5c;
      }

      .cls-2, .cls-3, .cls-4 {
        stroke-width: .25px;
      }

      .cls-2, .cls-4, .cls-5 {
        stroke-miterlimit: 10;
      }

      .cls-2, .cls-6, .cls-5 {
        fill: none;
      }

      .cls-2, .cls-5 {
        stroke: #2a3c24;
      }

      .cls-7 {
        fill: #2a3c24;
      }

      .cls-8 {
        fill: #cda174;
      }

      .cls-9 {
        fill: #e8d3b6;
      }

      .cls-10 {
        fill: #a8c9a3;
      }

      .cls-11 {
        fill: #c2eabd;
      }

      .cls-12 {
        fill: #a690a4;
      }

      .cls-3, .cls-13 {
        stroke-linecap: round;
        stroke-linejoin: round;
      }

      .cls-3, .cls-4 {
        fill: #fff;
        stroke: #2c3d24;
      }

      .cls-14 {
        fill: #fcf4d4;
      }

      .cls-15 {
        fill: #ecdac6;
      }

      .cls-13 {
        fill: #c59b6d;
        stroke: #8b6239;
        stroke-width: .5px;
      }

      .cls-16 {
        fill: #5e4f3c;
      }

      .cls-17 {
        fill: #e3b4be;
      }

      .cls-18 {
        fill: #b5a0b4;
      }

      .cls-19 {
        fill: #ddcf94;
      }

      .cls-20 {
        fill: #1e1d1c;
      }

      .cls-21 {
        fill: #754c24;
      }

      .cls-22 {
        fill: #c18192;
      }

      .cls-23 {
        fill: #eacf5e;
      }

      .cls-24 {
        fill: #e9be93;
      }

      .cls-25 {
        fill: #e5c439;
      }

      .cls-26 {
        fill: #292d28;
      }
    </style>
  </defs>
  <g id="Layer_1-2" data-name="Layer 1">
    <g>
      <path class="cls-11" d="m260.15,299.95c-4.85-7.01-4.45-20.09-7.94-28.77-4.05-10.05-9.79-19.09-12.86-29.51-4.94-16.75-8.68-37.27,0-53.59,8.72-16.39,30.79-23.14,46.83-29.45,14.59-5.74,24.57-17.55,46.81-35.06,4.67-3.68,14.16-11.21,27.86-19.94,9.42-6.01,14.13-9.01,17-10,17-5.88,30.62,6.36,62,20,30.23,13.14,28.77,6.63,54.94,19.05,14.82,7.03,16.06,2.23,52.31,31.08,13.74,10.94,26.64,16.91,42.77,23.83,13.4,5.75,25.9,12.83,39.38,18.54,20.85,8.83,41.17,23.74,52.81,48.74,2.03,4.35,5.27,12.32,6.79,22.77,1.21,8.34,1.57,19.93-10,57-6.95,22.26-10.42,33.39-17.85,48.06-10.84,21.42-16.26,32.12-27.9,39.26-18.39,11.27-39.58,7.26-53.24,4.68-21.08-3.99-25.77-10.56-57-25-19.32-8.93-15.24-5.36-72-27-27.18-10.36-42.05-16.03-63-25-26.35-11.28-39.53-16.92-54.67-24.26-16.14-7.82-30.89-9.84-48.91-20.2-6.86-3.95-18.07-5.57-24.13-5.22Z"/>
      <path class="cls-7" d="m260.93,300.73c-1,.02-1.11-1.52-1.63-.03,1.83,4.67,1.55,10.05,3.38,14.68,2.5-1.94,10.26-4.38,10.74-8.04.89-6.75-9.59-8.6-14.04-8.16-3.27,7.42,1.42,19.01,2.29,26.96,2.02-8.93,9.5-11.7,13.25-19.19"/>
      <path class="cls-7" d="m580.27,426.6c2.64,7.13,1.29,16.5,3.24,23.95,5.17.29,7.82,1.05,10.74-2.98,1.35-1.87,2.68-10.93,2.37-13.21-1.08-7.88-12.89-10.06-19.46-5.44"/>
      <path class="cls-7" d="m643.98,435.92c-.7-4.67-3.74-10.99-3.49-15.54.41-7.28,3.53-4.24,10.32-5.36,1,6.71.58,20.71-2.91,26.24-1.35.29-1.23-.38-2.37-.68"/>
    </g>
    <path class="cls-7" d="m293.56,195.84c.03,23.67,5.47,56.79,29.14,68.28s48.72,2.61,58.76-21.98c3.56-8.73,5.77-29.98,15.25-33.75,6.13,6.05,6.53,24.97,8.7,33.34,2.89,11.17,6.57,20.75,17.55,24.8,5.4,1.99,10.62,5.63,13.6-1.11,2.16-4.89-.54-14.73-1.51-19.45-3.08-15.06-6.23-30.2-9.33-45.45s-8.46-64.15-31.15-58.88c-7.1,1.65-8.9,4.84-13.79,9.36-5.92,5.48-5.86,4.29-8.91-2.37-4.69-10.22-16.19-20.63-25.66-8.93-7.85,9.7-11.46,22.92-19.23,33.17-7.76,10.23-17.28,13.18-27.97,17.15-2.4.89-4.73,2.31-5.44,5.83Z"/>
    <path class="cls-7" d="m360.38,248.67c5.52,8.71,2.93,41.4,19.81,36.61,12.43-3.52,1.61-37.47,1.17-47.49"/>
    <path class="cls-12" d="m332.41,77.74c-23.27,13-43.2,36.52-45.78,64.1-1.11,11.87.14,29.67,5.55,39.84,5.82,10.94,17.18-7.17,23.72-13.23,11.03-10.22,19.01-13.65,33.56-13.76,11.63-.08,27.7,3.34,38.89.35,14.55-3.89,17.02-14.13,16.32-28.36-.59-11.92-1.36-25.31-8.35-35.16-4.27-6.01-17.26-21.25-24.26-19.99-5.3.96-8.05,7.53-13.61,8.92-5.35,1.34-13.34-1.56-18.58-2.79-3.56-.84-4.72-3.55-7.46.07Z"/>
    <path class="cls-18" d="m336.3,78.51c-.53-.91.64-1.3-.76-1.65-19.81,14.91-43.12,20.88-51.92,47.49-3.74,11.31-5.76,24.63-6.37,36.54-.47,9.17-2.56,26.47,1.36,34.36,5.04,10.13,21.38,2.78,28.01-2.73,7.81-6.5,12.65-14.87,18.22-22.93s14.5-16.25,10.08-25.98c-6.12-13.46-12.07,4.83-22.7,4.06-21.99-1.6,17.02-55.87,13.01-63.59-1.02.77-1.73.32-2.91.66"/>
    <path class="cls-18" d="m396.12,143c-4.77,1.13-9.91-16.52-7.02-19.91,5.07-5.94,17.38,10.61,22.44,2.25-5.6-5.89-6.48-12.4-11.06-18.5-4.05-5.38-10.18-7.59-13.51-13.76-2.79-5.18-4.89-14.91,3.39-16.06,6.21-.86,11.47,6.44,15.65,10.23,11.77,10.67,19.43,21.57,25.63,36.32,2.98,7.09,16.68,33.47,6.07,37.26-11.28,4.02-30.3-16.82-41.6-17.83Z"/>
    <path class="cls-9" d="m333.19,143c8.68-13.75,16.96-39.06,33.51-17.89-4.4,6.11-29.84,36.16-33.51,17.89Z"/>
    <path class="cls-9" d="m386.8,122.8c-7.19-.05-13.86-.92-20.52-3.11-6.04-1.98-10.36-7.61-13.28,1.17-3.8,11.41,15.5,21.6,24.87,20.59,11.11-1.2,2.64-9.2,8.93-18.64Z"/>
    <path class="cls-15" d="m337.07,74.63c9.59,5.04,30.15,8.22,38.92-3.11-3.6-3.28-8.52-6.97-9.22-12.43s3.09-10.65,3.35-15.9c.52-10.33-2.88-21.44-11.88-27.03-9.71-6.03-18.4-11.42-27.19-2.12-8.25,8.72-12.38,18.6-11.03,30.28.74,6.39,1.44,10.5,5.19,15.69,3.35,4.64,11.86,7.66,11.86,14.61Z"/>
    <path class="cls-17" d="m357.27,46.66c-4.83-1.11-10.15,5.15-4.49,7.61,4.68,2.04,8.99-5.47,2.93-7.61"/>
    <path class="cls-17" d="m332.41,48.21c-.14-.77.08-1.43-.12-2.21-5.82-.01-13.81,5.34-5,8.5,7.65,2.75,13.16-7.85,4.34-9.4"/>
    <path class="cls-5" d="m332.41,32.67c.06-1.01.06-2-.14-2.97-5.84-2.25-9.94-3.33-14.24,2.2-3.6,4.63-3.96,9.69,1.16,13.81,4.16,3.35,9.98,3.24,13.21-1.38,3.64-5.22.61-10.52-1.59-15.26.92,2.94,1.74,5.86,2.54,8.95,2.68-.76,6.22-1.15,8.99.02-.76-12.94,17.9-18.12,20.36-3.8,1.05,6.14-2.86,11.97-8.54,11.67-6.94-.36-7.83-6.2-10.1-10.9"/>
    <path class="cls-8" d="m347.17,4.7c-1.1,2.51-3.51,7.73-7.16,9.95-3.92,2.38-7.81,1.13-11.68,4.62-7.93,7.18-10.96,17.92-7.01,27.39,3.84,9.2,8.74,17.71,7.23,28.39-.63,4.45-4.67,8.46-5.4,13.18-.79,5.09,1.54,9.96.54,15.15-1.24,6.41-3.94,8.28-9.32,11.46-2.02,1.2-11.07,7.98-13.06,7.24-4.46-1.66-1.78-24.75-1.53-29.58,1.07-20.79,5.51-39.78,9.31-60.22,1.8-9.67,9.43-22.63,17.84-28.53,7.02-4.92,24.56-5.39,20.24.95Z"/>
    <path class="cls-8" d="m347.17,11.69c16.96-1.39,19.23,38.07,22.54,48.17,1.48,4.51,2.68,9.8,4.85,13.99,4.11,7.92,3.71,2.72,9.73,4.84,7.25,2.55,12.47,12.41,18.65,17.11,8.14,6.19,19.04,10.29,28.2,12.73-1-16.87-19.52-31.09-30.81-40.89-14.75-12.8-18.11-36.46-31.25-51.28-5.18-5.84-12.43-13.37-20.14-15.42-3.76,2.46-2.61,6.5-1.77,10.76Z"/>
    <path class="cls-17" d="m347.95,58.31c-4.23,3.07-9.32-3.04-12.53,2.35,3.91,3.61,15.77,2.87,17.07-2.93-.28-.28-.55-.57-.82-.86-1.71.65-3.97,1.66-5.28,2.99"/>
    <path class="cls-7" d="m355.27,37.61c-.01-.78,0-1.56.02-2.35.03-.98-1.25-1.48-1.92-.8-.76.79-1.3,1.72-1.38,2.83-.07.99.34,1.97.8,2.82.33.61,1.3.77,1.77.23.8-.92,1.29-2.08,1.28-3.31s-.47-2.35-1.31-3.2c-.25-.25-.59-.36-.95-.31-.31.04-.69.22-.82.54-.4.95-.66,1.89-.77,2.92-.11.96-.03,1.93.14,2.88.1.58.85.96,1.38.79,1.26-.41,2.39-1.36,2.65-2.71s-.26-2.72-1.23-3.72c-.58-.6-1.68-.32-1.88.5-.13.53-.29,1.07-.31,1.62s.14,1.12.3,1.65c.14.46.58.85,1.08.83s.96-.33,1.08-.83c.14-.55.27-1.11.28-1.68,0-.62-.13-1.25-.28-1.84-.11-.43-.51-.75-.94-.81s-.93.14-1.12.54c-.34.69-.53,1.37-.61,2.13-.06.59-.04,1.19-.05,1.79s.53,1.15,1.12,1.12,1.11-.49,1.12-1.12c.01-.55,0-1.1.03-1.64,0-.06.01-.12.02-.18.01-.14-.05.25,0,.05.02-.12.04-.24.07-.36.03-.14.08-.27.13-.41.02-.06.08-.25,0,0,.03-.08.07-.16.11-.24l-2.06-.27c.07.28.14.56.18.84.03.19-.01.02,0-.07,0,.05.01.1.02.15,0,.11.01.21.01.32,0,.09,0,.19-.02.28-.01.19.04-.24.01-.1,0,.05-.02.1-.03.15-.05.25-.11.5-.17.75h2.17c-.08-.25-.16-.51-.21-.77,0-.04,0-.08-.02-.12.09.25.02.22.02.1,0-.09,0-.17,0-.26,0-.04,0-.09,0-.13,0-.15-.02.12-.02.14.03-.09.04-.19.06-.29.06-.25.12-.5.18-.75l-1.88.5c.09.09.17.19.25.28.07.08-.16-.22-.02-.02.03.04.06.09.09.13.06.1.12.2.17.3.02.05.04.1.07.14-.15-.25-.06-.15-.03-.04s.06.2.09.31c.01.05.02.09.03.14.04.21-.02-.29-.01-.07,0,.1.01.2,0,.3,0,.05,0,.09,0,.14-.01.21.06-.29,0-.08-.02.09-.04.18-.07.26-.02.05-.04.1-.05.15.07-.28.08-.17.02-.07-.04.08-.09.16-.14.24-.06.1-.16.14.04-.05-.04.04-.07.09-.11.13-.07.07-.14.13-.21.2-.16.15.22-.15.04-.03-.04.03-.08.06-.13.08-.1.06-.2.11-.31.17-.21.11.25-.09.02,0-.07.02-.13.05-.2.07l1.38.79c-.02-.11-.03-.21-.05-.32-.01-.08,0-.06,0,.07,0-.06-.01-.12-.02-.18-.02-.18-.03-.36-.04-.55-.02-.4,0-.81.03-1.21,0-.07.02-.39,0-.1,0-.09.03-.18.04-.26.03-.19.07-.38.12-.56s.1-.37.16-.55c.03-.08.06-.17.09-.25.02-.05.16-.41.05-.14l-1.77.23c.07.07.14.16.21.23.09.1-.16-.23-.03-.04.03.04.05.07.08.11.06.09.11.17.16.26.02.04.04.08.06.12.08.16,0,.04-.02-.05.03.2.13.39.17.58,0,.04.01.09.02.13-.03-.08-.03-.25-.01-.06,0,.1.01.2.01.31,0,.09,0,.18,0,.27,0,.03-.03.26,0,.06.03-.18,0-.02,0,.02-.04.21-.09.41-.16.61-.01.03-.07.13-.06.16,0-.04.1-.22.03-.07-.05.09-.1.19-.15.28s-.11.18-.17.27c-.08.12,0-.01.05-.05-.05.05-.09.12-.14.17l1.77.23c-.08-.16-.27-.4-.29-.58.06.15.07.17.03.06-.01-.03-.03-.07-.04-.1-.03-.08-.06-.16-.08-.24-.05-.17-.07-.37-.12-.53l.02.17s0-.09-.01-.13c0-.09,0-.17,0-.26,0-.04,0-.09,0-.13.01-.12,0-.09-.02.11.02-.05.03-.14.04-.19.02-.09.05-.17.08-.25.04-.11.03-.08-.04.08.02-.04.04-.08.06-.13.08-.16.17-.3.27-.44.07-.1.06-.08-.03.04.03-.04.07-.09.11-.13.08-.09.16-.17.24-.26l-1.92-.8c-.03.78-.04,1.56-.02,2.35,0,.59.51,1.15,1.12,1.12s1.13-.49,1.12-1.12h0Z"/>
    <path class="cls-7" d="m328.18,38.03c-.01-.78,0-1.56.02-2.35.03-.98-1.25-1.48-1.92-.8-.76.79-1.3,1.72-1.38,2.83-.07.99.34,1.97.8,2.82.33.61,1.3.77,1.77.23.8-.92,1.29-2.08,1.28-3.31s-.47-2.35-1.31-3.2c-.25-.25-.59-.36-.95-.31-.31.04-.69.22-.82.54-.4.95-.66,1.89-.77,2.92-.11.96-.03,1.93.14,2.88.1.58.85.96,1.38.79,1.26-.41,2.39-1.36,2.65-2.71s-.26-2.72-1.23-3.72c-.58-.6-1.68-.32-1.88.5-.13.53-.29,1.07-.31,1.62s.14,1.12.3,1.65c.14.46.58.85,1.08.83s.96-.33,1.08-.83c.14-.55.27-1.11.28-1.68,0-.62-.13-1.25-.28-1.84-.11-.43-.51-.75-.94-.81s-.93.14-1.12.54c-.34.69-.53,1.37-.61,2.13-.06.59-.04,1.19-.05,1.79s.53,1.15,1.12,1.12,1.11-.49,1.12-1.12c.01-.55,0-1.1.03-1.64,0-.06.01-.12.02-.18.01-.14-.05.25,0,.05.02-.12.04-.24.07-.36.03-.14.08-.27.13-.41.02-.06.08-.25,0,0,.03-.08.07-.16.11-.24l-2.06-.27c.07.28.14.56.18.84.03.19-.01.02,0-.07,0,.05.01.1.02.15,0,.11.01.21.01.32,0,.09,0,.19-.02.28-.01.19.04-.24.01-.1,0,.05-.02.1-.03.15-.05.25-.11.5-.17.75h2.17c-.08-.25-.16-.51-.21-.77,0-.04,0-.08-.02-.12.09.25.02.22.02.1,0-.09,0-.17,0-.26,0-.04,0-.09,0-.13,0-.15-.02.12-.02.14.03-.09.04-.19.06-.29.06-.25.12-.5.18-.75l-1.88.5c.09.09.17.19.25.28.07.08-.16-.22-.02-.02.03.04.06.09.09.13.06.1.12.2.17.3.02.05.04.1.07.14-.15-.25-.06-.15-.03-.04s.06.2.09.31c.01.05.02.09.03.14.04.21-.02-.29-.01-.07,0,.1.01.2,0,.3,0,.05,0,.09,0,.14-.01.21.06-.29,0-.08-.02.09-.04.18-.07.26-.02.05-.04.1-.05.15.07-.28.08-.17.02-.07-.04.08-.09.16-.14.24-.06.1-.16.14.04-.05-.04.04-.07.09-.11.13-.07.07-.14.13-.21.2-.16.15.22-.15.04-.03-.04.03-.08.06-.13.08-.1.06-.2.11-.31.17-.21.11.25-.09.02,0-.07.02-.13.05-.2.07l1.38.79c-.02-.11-.03-.21-.05-.32-.01-.08,0-.06,0,.07,0-.06-.01-.12-.02-.18-.02-.18-.03-.36-.04-.55-.02-.4,0-.81.03-1.21,0-.07.02-.39,0-.1,0-.09.03-.18.04-.26.03-.19.07-.38.12-.56s.1-.37.16-.55c.03-.08.06-.17.09-.25.02-.05.16-.41.05-.14l-1.77.23c.07.07.14.16.21.23.09.1-.16-.23-.03-.04.03.04.05.07.08.11.06.09.11.17.16.26.02.04.04.08.06.12.08.16,0,.04-.02-.05.03.2.13.39.17.58,0,.04.01.09.02.13-.03-.08-.03-.25-.01-.06,0,.1.01.2.01.31,0,.09,0,.18,0,.27,0,.03-.03.26,0,.06.03-.18,0-.02,0,.02-.04.21-.09.41-.16.61-.01.03-.07.13-.06.16,0-.04.1-.22.03-.07-.05.09-.1.19-.15.28s-.11.18-.17.27c-.08.12,0-.01.05-.05-.05.05-.09.12-.14.17l1.77.23c-.08-.16-.27-.4-.29-.58.06.15.07.17.03.06-.01-.03-.03-.07-.04-.1-.03-.08-.06-.16-.08-.24-.05-.17-.07-.37-.12-.53l.02.17s0-.09-.01-.13c0-.09,0-.17,0-.26,0-.04,0-.09,0-.13.01-.12,0-.09-.02.11.02-.05.03-.14.04-.19.02-.09.05-.17.08-.25.04-.11.03-.08-.04.08.02-.04.04-.08.06-.13.08-.16.17-.3.27-.44.07-.1.06-.08-.03.04.03-.04.07-.09.11-.13.08-.09.16-.17.24-.26l-1.92-.8c-.03.78-.04,1.56-.02,2.35,0,.59.51,1.15,1.12,1.12s1.13-.49,1.12-1.12h0Z"/>
    <path class="cls-1" d="m574.05,200.5c-.27-1.01-.12-1.9-.81-2.87,2.13,16.23,11.56,32.95,28.96,18.62,4.55-3.75,7.83-12.99,14-12.05,3.78.57,13.7,9.7,17.19,12.33,13.38,10.06,27.12,24.27,33.12,39.88s16.85,50.23-8.15,53.66c-15.31,2.1-32-3.89-47.75-3.89-20.01,0-39.45-1.03-59.09-2.94-15.69-1.52-38.17-2.44-50.02-14.61-11.56-11.87-5.61-28.34.86-41.5s16.12-22.65,29-30.11c10.31-5.97,27.34-17.73,39.2-14.11,3.06.93,6.23,3.05,3.5-2.4Z"/>
    <path class="cls-12" d="m666.07,314.71c-4,13.87-20.61,18.13-33.41,20.2-15.69,2.54-28.89,5.07-37.09,20.98-7.23,14.02-5.57,33.09-8.57,48.19s-8.14,30.5-18.82,42.39c-19.45,21.67-49.55,42.59-78.86,34.51-15.27-4.21-28.5-6.18-44.66-5.44-24.61,1.12-47.72-5.28-67.66-20.03-10.81-8-20.39-17.11-30.3-25.83-6.25-5.5-13.59-8.83-18.78-15.48-11.31-14.5-8.02-36.33-5.44-53.48s10.7-31.41,16.31-46.79c5.61-15.36,15.52-29.96,28.54-40.03,10.97-8.49,25.52-14.54,38.84-15.91,7.41-.76,13.87-2.41,20.98-3.13s13.82,0,21-1.44c6.14-1.23,11.56-4.4,17.46-6.7,6.91-2.69,13.02-1.76,20.58-2.72,13.13-1.67,24.2-10.77,38.46-11.48s29.07,4.53,43.55,6,24.57,6.05,37.43,13.85c5.31,3.22,10.74,4.34,15.37,8.7,5.6,5.27,7.67,11.18,13.95,15.71,8.42,6.07,22.99,15.35,27.42,24.52,2.88,5.95-.2,13.21,3.69,13.4Z"/>
    <path class="cls-25" d="m571.72,203.61c-13.66,2.69-28.23,4.28-40.4,12.24-12.08,7.9-23.44,19.21-31.44,31.26-6.11,9.2-12.08,30.46,3.05,34.22,9.81,2.44,28.63-.67,34.8-9.16,3.34-4.6,3.57-12.91-.78-17.48-5.38-5.65-11.63.45-18.72-2.28,1.78-13.06,15.56-15.82,24.72-22,6.42-4.33,26.43-18.63,28.78-26.81Z"/>
    <path class="cls-25" d="m616.79,238.57c-5.35-9.88-1.73-22.23,10.49-20.99,10.15,1.03,17.69,8.94,24.17,16.68,14.8,17.68,15.12,37,17.38,58.71.96,9.26.21,23.01-9.33,27.76s-19.89.77-28.73-3.88c-9.65-5.08-15.5-12.33-21.21-21.39-4.78-7.58-15.24-13.44-17.61-21.95-3.47-12.45,7.63-20.35,19.01-14.75,8.04,3.96,19.08,20.18,28.28,19.27-4.47-12.26-25.62-26.36-22.46-39.47Z"/>
    <path class="cls-9" d="m539.09,264.99c10.44-4.61,16.74-8.78,20.59-19.42,2.02-5.58,4.07-7.05-2.89-9.93-2.71-1.12-3.92,1.59-6.62-.37-1.63-1.19-2.44-5.31-3.27-6.91-7.91,6.01-1.93,24.13-10.92,25.76.16,3.87,1.42,7.38,3.11,10.88Z"/>
    <path class="cls-9" d="m600.47,257.22c-10.52-4.28-5.04-19.39-13.68-24s-12.94,10.17-17.08,15.47c4.61,3.41,17.89,17.55,30.77,8.53Z"/>
    <path class="cls-24" d="m573.27,136.79c-15.05.38-13.14,29.17-11.7,38.07,1.23,7.61,3.29,13.44,8.4,18.84,3.14,3.32,3.95,2.65,5.7,7.12,1.24,3.17.69,7.28,2.44,10.38,3.57,6.33,11.82,8.81,18.11,6,7.4-3.3,9.04-7.88,7.96-14.98-2.24-14.66,3.06-30.2-.22-46.01-1.98-9.54-25.74-35.99-30.69-19.42Z"/>
    <path class="cls-6" d="m731.78,9.36c.55-.48.72.42.78,1.55"/>
    <path class="cls-16" d="m574.12,134.47c-.52-.03-1.09.05-1.74.27-5.37,1.85-6.86,10.77-8.47,15.33-4.51,12.76-.21,23.78,3.36,35.93,3,10.22,1.32,17.76-10.31,19.92-4.88.91-8.01-.43-12.28,2.53-3.19,2.21-4.45,5.92-7.92,7.66-8.11-5.27,3.23-26.58,5.53-33.87,3.97-12.54,5.44-24.62,11.39-36.93,10.27-21.26,37.03-31.42,57.1-17.27,10.3,7.26,14.16,14.23,19.04,25.23,3.38,7.62,10.5,14.52,13.32,22.68s-1.1,14.1-.77,22.33c.38,9.36,4.53,14.04-4.63,19.11-5.04,2.79-12.23,5.22-17.13,1.94-5.84-3.9-13.93-19.37-15.31-26.01-2.21-10.66-2.11-21.64-4.14-32.33-1.7-8.96-6.79-11.73-13.37-17.48-2.46-2.15-5.59-3.23-8.19-5.17-2.03-1.52-3.24-3.74-5.48-3.88Z"/>
    <path class="cls-17" d="m595.03,168.56c-3.91-4.43-8.95,4.51-3.81,7.86,6.31,4.1,8.92-7.07,3.12-8.55"/>
    <path class="cls-17" d="m571.2,167.86c-1.91-4.48-10.03,3.98-3.97,6.6,5.47,2.37,8.36-5.66,3.97-8.33"/>
    <path class="cls-7" d="m569.87,160.28c-.01-.78,0-1.56.02-2.35.03-.98-1.25-1.48-1.92-.8-.76.79-1.3,1.72-1.38,2.83-.07.99.34,1.97.8,2.82.33.61,1.3.77,1.77.23.8-.92,1.29-2.08,1.28-3.31s-.47-2.35-1.31-3.2c-.25-.25-.59-.36-.95-.31-.31.04-.69.22-.82.54-.4.95-.66,1.89-.77,2.92-.11.96-.03,1.93.14,2.88.1.58.85.96,1.38.79,1.26-.41,2.39-1.36,2.65-2.71s-.26-2.72-1.23-3.72c-.58-.6-1.68-.32-1.88.5-.13.53-.29,1.07-.31,1.62s.14,1.12.3,1.65c.14.46.58.85,1.08.83s.96-.33,1.08-.83c.14-.55.27-1.11.28-1.68,0-.62-.13-1.25-.28-1.84-.11-.43-.51-.75-.94-.81s-.93.14-1.12.54c-.34.69-.53,1.37-.61,2.13-.06.59-.04,1.19-.05,1.79s.53,1.15,1.12,1.12,1.11-.49,1.12-1.12c.01-.55,0-1.1.03-1.64,0-.06.01-.12.02-.18.01-.14-.05.25,0,.05.02-.12.04-.24.07-.36.03-.14.08-.27.13-.41.02-.06.08-.25,0,0,.03-.08.07-.16.11-.24l-2.06-.27c.07.28.14.56.18.84.03.19-.01.02,0-.07,0,.05.01.1.02.15,0,.11.01.21.01.32,0,.09,0,.19-.02.28-.01.19.04-.24.01-.1,0,.05-.02.1-.03.15-.05.25-.11.5-.17.75h2.17c-.08-.25-.16-.51-.21-.77,0-.04,0-.08-.02-.12.09.25.02.22.02.1,0-.09,0-.17,0-.26,0-.04,0-.09,0-.13,0-.15-.02.12-.02.14.03-.09.04-.19.06-.29.06-.25.12-.5.18-.75l-1.88.5c.09.09.17.19.25.28.07.08-.16-.22-.02-.02.03.04.06.09.09.13.06.1.12.2.17.3.02.05.04.1.07.14-.15-.25-.06-.15-.03-.04s.06.2.09.31c.01.05.02.09.03.14.04.21-.02-.29-.01-.07,0,.1.01.2,0,.3,0,.05,0,.09,0,.14-.01.21.06-.29,0-.08-.02.09-.04.18-.07.26-.02.05-.04.1-.05.15.07-.28.08-.17.02-.07-.04.08-.09.16-.14.24-.06.1-.16.14.04-.05-.04.04-.07.09-.11.13-.07.07-.14.13-.21.2-.16.15.22-.15.04-.03-.04.03-.08.06-.13.08-.1.06-.2.11-.31.17-.21.11.25-.09.02,0-.07.02-.13.05-.2.07l1.38.79c-.02-.11-.03-.21-.05-.32-.01-.08,0-.06,0,.07,0-.06-.01-.12-.02-.18-.02-.18-.03-.36-.04-.55-.02-.4,0-.81.03-1.21,0-.07.02-.39,0-.1,0-.09.03-.18.04-.26.03-.19.07-.38.12-.56s.1-.37.16-.55c.03-.08.06-.17.09-.25.02-.05.16-.41.05-.14l-1.77.23c.07.07.14.16.21.23.09.1-.16-.23-.03-.04.03.04.05.07.08.11.06.09.11.17.16.26.02.04.04.08.06.12.08.16,0,.04-.02-.05.03.2.13.39.17.58,0,.04.01.09.02.13-.03-.08-.03-.25-.01-.06,0,.1.01.2.01.31,0,.09,0,.18,0,.27,0,.03-.03.26,0,.06.03-.18,0-.02,0,.02-.04.21-.09.41-.16.61-.01.03-.07.13-.06.16,0-.04.1-.22.03-.07-.05.09-.1.19-.15.28s-.11.18-.17.27c-.08.12,0-.01.05-.05-.05.05-.09.12-.14.17l1.77.23c-.08-.16-.27-.4-.29-.58.06.15.07.17.03.06-.01-.03-.03-.07-.04-.1-.03-.08-.06-.16-.08-.24-.05-.17-.07-.37-.12-.53l.02.17s0-.09-.01-.13c0-.09,0-.17,0-.26,0-.04,0-.09,0-.13.01-.12,0-.09-.02.11.02-.05.03-.14.04-.19.02-.09.05-.17.08-.25.04-.11.03-.08-.04.08.02-.04.04-.08.06-.13.08-.16.17-.3.27-.44.07-.1.06-.08-.03.04.03-.04.07-.09.11-.13.08-.09.16-.17.24-.26l-1.92-.8c-.03.78-.04,1.56-.02,2.35,0,.59.51,1.15,1.12,1.12s1.13-.49,1.12-1.12h0Z"/>
    <path class="cls-7" d="m587.26,160.54c-.01-.78,0-1.56.02-2.35.03-.98-1.25-1.48-1.92-.8-.76.79-1.3,1.72-1.38,2.83-.07.99.34,1.97.8,2.82.33.61,1.3.77,1.77.23.8-.92,1.29-2.08,1.28-3.31s-.47-2.35-1.31-3.2c-.25-.25-.59-.36-.95-.31-.31.04-.69.22-.82.54-.4.95-.66,1.89-.77,2.92-.11.96-.03,1.93.14,2.88.1.58.85.96,1.38.79,1.26-.41,2.39-1.36,2.65-2.71s-.26-2.72-1.23-3.72c-.58-.6-1.68-.32-1.88.5-.13.53-.29,1.07-.31,1.62s.14,1.12.3,1.65c.14.46.58.85,1.08.83s.96-.33,1.08-.83c.14-.55.27-1.11.28-1.68,0-.62-.13-1.25-.28-1.84-.11-.43-.51-.75-.94-.81s-.93.14-1.12.54c-.34.69-.53,1.37-.61,2.13-.06.59-.04,1.19-.05,1.79s.53,1.15,1.12,1.12,1.11-.49,1.12-1.12c.01-.55,0-1.1.03-1.64,0-.06.01-.12.02-.18.01-.14-.05.25,0,.05.02-.12.04-.24.07-.36.03-.14.08-.27.13-.41.02-.06.08-.25,0,0,.03-.08.07-.16.11-.24l-2.06-.27c.07.28.14.56.18.84.03.19-.01.02,0-.07,0,.05.01.1.02.15,0,.11.01.21.01.32,0,.09,0,.19-.02.28-.01.19.04-.24.01-.1,0,.05-.02.1-.03.15-.05.25-.11.5-.17.75h2.17c-.08-.25-.16-.51-.21-.77,0-.04,0-.08-.02-.12.09.25.02.22.02.1,0-.09,0-.17,0-.26,0-.04,0-.09,0-.13,0-.15-.02.12-.02.14.03-.09.04-.19.06-.29.06-.25.12-.5.18-.75l-1.88.5c.09.09.17.19.25.28.07.08-.16-.22-.02-.02.03.04.06.09.09.13.06.1.12.2.17.3.02.05.04.1.07.14-.15-.25-.06-.15-.03-.04s.06.2.09.31c.01.05.02.09.03.14.04.21-.02-.29-.01-.07,0,.1.01.2,0,.3,0,.05,0,.09,0,.14-.01.21.06-.29,0-.08-.02.09-.04.18-.07.26-.02.05-.04.1-.05.15.07-.28.08-.17.02-.07-.04.08-.09.16-.14.24-.06.1-.16.14.04-.05-.04.04-.07.09-.11.13-.07.07-.14.13-.21.2-.16.15.22-.15.04-.03-.04.03-.08.06-.13.08-.1.06-.2.11-.31.17-.21.11.25-.09.02,0-.07.02-.13.05-.2.07l1.38.79c-.02-.11-.03-.21-.05-.32-.01-.08,0-.06,0,.07,0-.06-.01-.12-.02-.18-.02-.18-.03-.36-.04-.55-.02-.4,0-.81.03-1.21,0-.07.02-.39,0-.1,0-.09.03-.18.04-.26.03-.19.07-.38.12-.56s.1-.37.16-.55c.03-.08.06-.17.09-.25.02-.05.16-.41.05-.14l-1.77.23c.07.07.14.16.21.23.09.1-.16-.23-.03-.04.03.04.05.07.08.11.06.09.11.17.16.26.02.04.04.08.06.12.08.16,0,.04-.02-.05.03.2.13.39.17.58,0,.04.01.09.02.13-.03-.08-.03-.25-.01-.06,0,.1.01.2.01.31,0,.09,0,.18,0,.27,0,.03-.03.26,0,.06.03-.18,0-.02,0,.02-.04.21-.09.41-.16.61-.01.03-.07.13-.06.16,0-.04.1-.22.03-.07-.05.09-.1.19-.15.28s-.11.18-.17.27c-.08.12,0-.01.05-.05-.05.05-.09.12-.14.17l1.77.23c-.08-.16-.27-.4-.29-.58.06.15.07.17.03.06-.01-.03-.03-.07-.04-.1-.03-.08-.06-.16-.08-.24-.05-.17-.07-.37-.12-.53l.02.17s0-.09-.01-.13c0-.09,0-.17,0-.26,0-.04,0-.09,0-.13.01-.12,0-.09-.02.11.02-.05.03-.14.04-.19.02-.09.05-.17.08-.25.04-.11.03-.08-.04.08.02-.04.04-.08.06-.13.08-.16.17-.3.27-.44.07-.1.06-.08-.03.04.03-.04.07-.09.11-.13.08-.09.16-.17.24-.26l-1.92-.8c-.03.78-.04,1.56-.02,2.35,0,.59.51,1.15,1.12,1.12s1.13-.49,1.12-1.12h0Z"/>
    <path class="cls-22" d="m579.49,181.68c-1.42,0-4.97-.78-4.46,1.53,2.59.86,9.4,2.3,8.58-2.54-1.13-.36-3.87-.23-4.98-.03"/>
    <path class="cls-7" d="m1.42,299.95c2.01-8.52,7.17-20.07,7.77-30.68.76-13.34.12-26.46,1.52-39.6,2.75-25.84,9.7-50.14,31.09-67.22,17.23-13.75,45.13-25.29,66.84-26.44,24.55-1.3,41.73,11.79,53.05,32.65,11.03,20.34,18.11,42.25,32.98,60.61,9.64,11.9,18.55,21.03,30.01,31.46,8.23,7.49,18.29,18.47,22.07,29.13,9.18,25.81-5.53,48.63-22.94,66.82-21.89,22.87-56.89,38.75-88.77,38.85-14.9.05-33.27-4.06-47.54-7.77-12.88-3.35-26.28-10.16-37.08-17.87-19.68-14.05-39.35-30.69-45.86-55.21-1.4-5.26-3.18-11.37-3.13-14.72Z"/>
    <path class="cls-12" d="m77.56,230.02c-10.77,11.67-8.39,29.74-6.97,44.29,1.44,14.77,3.74,30.54,8.34,44.46,4.32,13.06,9.21,24.54,17.67,35.57,7.84,10.22,11.28,22.97,21.34,31.47,5.81,4.91,12.79,8.39,18.71,13.21,3.27,2.66,8.65,6.13,10.47,9.7s.42,8.45,1.96,12.15c1.82-5,7.75-6.38,11.44-9.96s6.04-8.68,10.28-12.28c15.4-13.09,38.32-10.22,54.76-23.76,17.03-14.01,20.69-43.85-.34-55.51-18.51-10.26-41.46-12.98-57.5-27.16-9.5-8.4-14.6-17.84-21.56-28.16-5.7-8.44-12.26-15.27-17.11-24.11-2.34-4.27-4.51-10.39-8.93-12.82-6.17-3.39-8.16,1.15-13.77,2.93s-11.66.42-17.09-.99c-4.69-1.21-13.89-7.15-11.67.97Z"/>
    <path class="cls-11" d="m72.9,230.02c10.85,3.07,10.17,17.94,13.21,26.46,3.37,9.43,7.21,16.47,13.4,24.61s9.93,15.48,15.54,23.31c3.07,4.29,7.15,6.28,4.68,11.28-1.73,3.51-9.27,8.48-12.08,12.08s-5.57,7.3-8.13,11.19c-2.02,3.08-4.68,9.94-7.4,12.08-8.8,6.94-16.84-3.91-21.46-10.39-10.87-15.21-25.03-34.75-24.96-53.91.05-12.93,2.96-23.84,7.98-35.74,2.52-5.98,11.96-28.56,19.21-20.98Z"/>
    <path class="cls-10" d="m67.46,231.58c-9.88,11.42-18.55,27.85-25.25,41.6-5.98,12.26-21.71,39.11-12.04,52.41,10.18,14.02,38.98,1.78,50.54-2.95,7.96-3.26,15.42-.44,23.87-5.01,6.03-3.26,19.21-11.81,13.31-20.33-2.97-4.28-19.76,1.52-25.92,1.85-9.18.49-19.52.98-27.49,2.24.57-13.63,5.77-25.69,10.37-38.34,2.09-5.74,4.98-13.71,4.12-19.82-.52-3.69-5.88-16.44-11.5-11.65Z"/>
    <path class="cls-11" d="m121.07,228.47c-7.72,4.71,47.43,68.14,60.56,71.52,4.32,1.11,17.1-4.46,19.87-8.18,5.16-6.91-2.52-10.12-7.19-15.33-10.31-11.51-19.59-23.08-31.1-33.45-6.67-6.01-11.34-7.86-19.63-10.69-5.45-1.85-17.18-7.68-22.51-3.88Z"/>
    <path class="cls-10" d="m144.38,250.22c-3.49-4.51-9.36-8.64-9.36-14.72-.01-11.78,10.01-3.96,15.75-.25,13.61,8.78,26.29,18.55,40.99,25.27,9.02,4.12,25.97,12,30.33,21.95,6.74,15.36-23.96,12.25-32.25,10.1-4.95-1.28-16.8-7.27-11.91-14.41s14.6,4.87,20.96-1.53c-4.01-3.34-10.58-.37-15.65-2.09-4.63-1.57-8.41-5.73-12.46-8.37-8.47-5.51-17.04-12.31-26.39-15.93Z"/>
    <path class="cls-26" d="m153.71,387.75c4.42,7.46-8.32,24.65-12.26,32.63-5.09,10.33-13.21,24.97-14.67,35.95-1.6,12.03-.49,31.28,7.98,40.99,4.05,4.64,21,13.32,21.47,1.36.2-5.18-3.91-9.53-5.41-14.23-2.06-6.45-1.65-13.57-1.32-20.28.62-12.5,7.23-20.42,15.4-29.81,8.32-9.56,17.46-17.81,22.91-29.16,3.05-6.35,5.99-12.85,7.77-19.5,1.56-5.85.28-14.64,6.3-18.24,5.54,5.15-3.58,25.93-4.66,32.71-1.76,11.06-.7,23.43-2.94,34.36-2.88,14.12-16.07,56.76,3.71,62.76,8.65,2.62,23.83,1.98,31.08-3.88,4.5-3.64,8.78-9.14,3.11-12.45-4.57-2.66-11.44,1.52-16.49-2.14-6.93-5.03-3.25-22.12-3.71-31.25-.68-13.52,1.13-25.42,3.93-38.85,2.52-12.1,5.66-24.73,9.09-36.52,3.24-11.15,9.29-24.63,5.51-36.39-11.24-2.79-22.52,8.73-31.36,15.11-10.19,7.35-18.74,16.54-28.81,23.6-6.05,4.24-11.65,6.75-16.64,13.21Z"/>
    <path class="cls-15" d="m74.45,232.35c12.92-17.34-8.75-24.92-15.35-39.02-7.64-16.34,1.25-36.06,18.46-41.99,20.41-7.04,31.08.56,35.13,20.41,3.43,16.79-7.35,32.19,2.16,48.17,12.97,21.83-24.46,19.27-40.4,12.43Z"/>
    <path class="cls-19" d="m89.99,153.88c-4.13-1.24-6.21,10.8-8.33,14.2-4.48,7.17-7.81,6.82-5.63,14.36.39,1.36,2.82,2.25,3.15,4.08.4,2.2-1.65,3.12-1.59,4.64s-2.18,2.75-1.46,5.28c.37,1.32,4.01,2.11,4.54,3.45,2.62,6.66-1.71,12.48-8.39,14.47-1.74-1.48-2.22-2.02-4.74-3.17.51-1.11.3-1.73.58-2.82-6.72,1.39-3.25-2.55-5.28-5.55-2.43-3.6-6.9-4.55-8.92-7.06-4.6-5.72-1-10.6-8.12-15.63,4.01-5.52,4.3-12.11,3.88-18.34,6.7-3.21,8.93-7.88,14.67-11.22,4.09-2.39,13.73-8.09,16.7-8.38.07,0,2.93,2.27,3.88,2.37,1.84.18,3.12-.81,4.64-.78,4.6.08,5.61-.69,9.76,1.86,3.23,1.98,4.36,4.43,8.14,5.94,4.07,1.63,5.52.29,8.94,3.54,5.67,5.39,10.77,16.48-1.42,16.5-1.05-9.26-9.28-5.14-12.7-13.71-5.65-.15-10.49,1.93-12.3-4.02Z"/>
    <path class="cls-19" d="m60.47,147.66c-.27.97-.45,1.9-.84,2.86,5.01-10.19-7.49-18.06-8.53-11.67,1.97-6.43-22.46-5.64-16.2,7.26-2.53,2.45-7.14,10.91-.18,8.38.14.12-.82-1.56-.88-1.27-4.05.57-9.92,5.4-5.53,9.23-9.31,2.95,1.21,12.05,7.79,9.44-3.71,4.55,4.22,5.56,7.53,3.28-.13,1.37.64,1.99.64,3.44,2.35.35,4.82-.1,6.86-1.42"/>
    <path class="cls-17" d="m93.49,181.55c-4.83-1.11-10.15,5.15-4.49,7.61,4.68,2.04,8.99-5.47,2.93-7.61"/>
    <path class="cls-7" d="m91.85,173.33c-.01-.78,0-1.56.02-2.35.03-.98-1.25-1.48-1.92-.8-.76.79-1.3,1.72-1.38,2.83-.07.99.34,1.97.8,2.82.33.61,1.3.77,1.77.23.8-.92,1.29-2.08,1.28-3.31s-.47-2.35-1.31-3.2c-.25-.25-.59-.36-.95-.31-.31.04-.69.22-.82.54-.4.95-.66,1.89-.77,2.92-.11.96-.03,1.93.14,2.88.1.58.85.96,1.38.79,1.26-.41,2.39-1.36,2.65-2.71s-.26-2.72-1.23-3.72c-.58-.6-1.68-.32-1.88.5-.13.53-.29,1.07-.31,1.62s.14,1.12.3,1.65c.14.46.58.85,1.08.83s.96-.33,1.08-.83c.14-.55.27-1.11.28-1.68,0-.62-.13-1.25-.28-1.84-.11-.43-.51-.75-.94-.81s-.93.14-1.12.54c-.34.69-.53,1.37-.61,2.13-.06.59-.04,1.19-.05,1.79s.53,1.15,1.12,1.12,1.11-.49,1.12-1.12c.01-.55,0-1.1.03-1.64,0-.06.01-.12.02-.18.01-.14-.05.25,0,.05.02-.12.04-.24.07-.36.03-.14.08-.27.13-.41.02-.06.08-.25,0,0,.03-.08.07-.16.11-.24l-2.06-.27c.07.28.14.56.18.84.03.19-.01.02,0-.07,0,.05.01.1.02.15,0,.11.01.21.01.32,0,.09,0,.19-.02.28-.01.19.04-.24.01-.1,0,.05-.02.1-.03.15-.05.25-.11.5-.17.75h2.17c-.08-.25-.16-.51-.21-.77,0-.04,0-.08-.02-.12.09.25.02.22.02.1,0-.09,0-.17,0-.26,0-.04,0-.09,0-.13,0-.15-.02.12-.02.14.03-.09.04-.19.06-.29.06-.25.12-.5.18-.75l-1.88.5c.09.09.17.19.25.28.07.08-.16-.22-.02-.02.03.04.06.09.09.13.06.1.12.2.17.3.02.05.04.1.07.14-.15-.25-.06-.15-.03-.04s.06.2.09.31c.01.05.02.09.03.14.04.21-.02-.29-.01-.07,0,.1.01.2,0,.3,0,.05,0,.09,0,.14-.01.21.06-.29,0-.08-.02.09-.04.18-.07.26-.02.05-.04.1-.05.15.07-.28.08-.17.02-.07-.04.08-.09.16-.14.24-.06.1-.16.14.04-.05-.04.04-.07.09-.11.13-.07.07-.14.13-.21.2-.16.15.22-.15.04-.03-.04.03-.08.06-.13.08-.1.06-.2.11-.31.17-.21.11.25-.09.02,0-.07.02-.13.05-.2.07l1.38.79c-.02-.11-.03-.21-.05-.32-.01-.08,0-.06,0,.07,0-.06-.01-.12-.02-.18-.02-.18-.03-.36-.04-.55-.02-.4,0-.81.03-1.21,0-.07.02-.39,0-.1,0-.09.03-.18.04-.26.03-.19.07-.38.12-.56s.1-.37.16-.55c.03-.08.06-.17.09-.25.02-.05.16-.41.05-.14l-1.77.23c.07.07.14.16.21.23.09.1-.16-.23-.03-.04.03.04.05.07.08.11.06.09.11.17.16.26.02.04.04.08.06.12.08.16,0,.04-.02-.05.03.2.13.39.17.58,0,.04.01.09.02.13-.03-.08-.03-.25-.01-.06,0,.1.01.2.01.31,0,.09,0,.18,0,.27,0,.03-.03.26,0,.06.03-.18,0-.02,0,.02-.04.21-.09.41-.16.61-.01.03-.07.13-.06.16,0-.04.1-.22.03-.07-.05.09-.1.19-.15.28s-.11.18-.17.27c-.08.12,0-.01.05-.05-.05.05-.09.12-.14.17l1.77.23c-.08-.16-.27-.4-.29-.58.06.15.07.17.03.06-.01-.03-.03-.07-.04-.1-.03-.08-.06-.16-.08-.24-.05-.17-.07-.37-.12-.53l.02.17s0-.09-.01-.13c0-.09,0-.17,0-.26,0-.04,0-.09,0-.13.01-.12,0-.09-.02.11.02-.05.03-.14.04-.19.02-.09.05-.17.08-.25.04-.11.03-.08-.04.08.02-.04.04-.08.06-.13.08-.16.17-.3.27-.44.07-.1.06-.08-.03.04.03-.04.07-.09.11-.13.08-.09.16-.17.24-.26l-1.92-.8c-.03.78-.04,1.56-.02,2.35,0,.59.51,1.15,1.12,1.12s1.13-.49,1.12-1.12h0Z"/>
    <path class="cls-7" d="m113.85,171.33c-.01-.78,0-1.56.02-2.35.03-.98-1.25-1.48-1.92-.8-.76.79-1.3,1.72-1.38,2.83-.07.99.34,1.97.8,2.82.33.61,1.3.77,1.77.23.8-.92,1.29-2.08,1.28-3.31s-.47-2.35-1.31-3.2c-.25-.25-.59-.36-.95-.31-.31.04-.69.22-.82.54-.4.95-.66,1.89-.77,2.92-.11.96-.03,1.93.14,2.88.1.58.85.96,1.38.79,1.26-.41,2.39-1.36,2.65-2.71s-.26-2.72-1.23-3.72c-.58-.6-1.68-.32-1.88.5-.13.53-.29,1.07-.31,1.62s.14,1.12.3,1.65c.14.46.58.85,1.08.83s.96-.33,1.08-.83c.14-.55.27-1.11.28-1.68,0-.62-.13-1.25-.28-1.84-.11-.43-.51-.75-.94-.81s-.93.14-1.12.54c-.34.69-.53,1.37-.61,2.13-.06.59-.04,1.19-.05,1.79s.53,1.15,1.12,1.12,1.11-.49,1.12-1.12c.01-.55,0-1.1.03-1.64,0-.06.01-.12.02-.18.01-.14-.05.25,0,.05.02-.12.04-.24.07-.36.03-.14.08-.27.13-.41.02-.06.08-.25,0,0,.03-.08.07-.16.11-.24l-2.06-.27c.07.28.14.56.18.84.03.19-.01.02,0-.07,0,.05.01.1.02.15,0,.11.01.21.01.32,0,.09,0,.19-.02.28-.01.19.04-.24.01-.1,0,.05-.02.1-.03.15-.05.25-.11.5-.17.75h2.17c-.08-.25-.16-.51-.21-.77,0-.04,0-.08-.02-.12.09.25.02.22.02.1,0-.09,0-.17,0-.26,0-.04,0-.09,0-.13,0-.15-.02.12-.02.14.03-.09.04-.19.06-.29.06-.25.12-.5.18-.75l-1.88.5c.09.09.17.19.25.28.07.08-.16-.22-.02-.02.03.04.06.09.09.13.06.1.12.2.17.3.02.05.04.1.07.14-.15-.25-.06-.15-.03-.04s.06.2.09.31c.01.05.02.09.03.14.04.21-.02-.29-.01-.07,0,.1.01.2,0,.3,0,.05,0,.09,0,.14-.01.21.06-.29,0-.08-.02.09-.04.18-.07.26-.02.05-.04.1-.05.15.07-.28.08-.17.02-.07-.04.08-.09.16-.14.24-.06.1-.16.14.04-.05-.04.04-.07.09-.11.13-.07.07-.14.13-.21.2-.16.15.22-.15.04-.03-.04.03-.08.06-.13.08-.1.06-.2.11-.31.17-.21.11.25-.09.02,0-.07.02-.13.05-.2.07l1.38.79c-.02-.11-.03-.21-.05-.32-.01-.08,0-.06,0,.07,0-.06-.01-.12-.02-.18-.02-.18-.03-.36-.04-.55-.02-.4,0-.81.03-1.21,0-.07.02-.39,0-.1,0-.09.03-.18.04-.26.03-.19.07-.38.12-.56s.1-.37.16-.55c.03-.08.06-.17.09-.25.02-.05.16-.41.05-.14l-1.77.23c.07.07.14.16.21.23.09.1-.16-.23-.03-.04.03.04.05.07.08.11.06.09.11.17.16.26.02.04.04.08.06.12.08.16,0,.04-.02-.05.03.2.13.39.17.58,0,.04.01.09.02.13-.03-.08-.03-.25-.01-.06,0,.1.01.2.01.31,0,.09,0,.18,0,.27,0,.03-.03.26,0,.06.03-.18,0-.02,0,.02-.04.21-.09.41-.16.61-.01.03-.07.13-.06.16,0-.04.1-.22.03-.07-.05.09-.1.19-.15.28s-.11.18-.17.27c-.08.12,0-.01.05-.05-.05.05-.09.12-.14.17l1.77.23c-.08-.16-.27-.4-.29-.58.06.15.07.17.03.06-.01-.03-.03-.07-.04-.1-.03-.08-.06-.16-.08-.24-.05-.17-.07-.37-.12-.53l.02.17s0-.09-.01-.13c0-.09,0-.17,0-.26,0-.04,0-.09,0-.13.01-.12,0-.09-.02.11.02-.05.03-.14.04-.19.02-.09.05-.17.08-.25.04-.11.03-.08-.04.08.02-.04.04-.08.06-.13.08-.16.17-.3.27-.44.07-.1.06-.08-.03.04.03-.04.07-.09.11-.13.08-.09.16-.17.24-.26l-1.92-.8c-.03.78-.04,1.56-.02,2.35,0,.59.51,1.15,1.12,1.12s1.13-.49,1.12-1.12h0Z"/>
    <path class="cls-5" d="m20.07,346.57c-5.64,8.03-8.29,22.24-11.87,32.05-3.27,8.97-9.07,18.48-7.4,27.7,15.5-11.75,21.11-40.26,35.59-51.2"/>
    <path class="cls-5" d="m103.2,391.63c-1.03.09-1.61.46-2.33.35-7.09,18.87-5.67,43.1-13.08,61.75,12.17-18.42,21.21-41.27,30.17-62.1"/>
    <path class="cls-14" d="m114.86,484.87c8.64,3.08,16.82,10.36,25.66,14.16,13.61,5.85,27.15,12.16,39.99,19.63,22.78,13.25,46.74,25.05,69.17,38.86,31.31,19.28,61.28,41.28,92.05,60.78,8.21,5.2,18.29,13.64,27.97,9.55,10.33-4.36,17.11-18.88,24.82-26.61,18.2-18.24,36.27-36.08,54.43-54.22,8.78-8.77,16.13-18.39,25.08-27,7.31-7.03,17.96-14.87,22.9-23.7,10.18-18.19-51.02-37.02-62.92-44.27-16.75-10.21-32.55-22.42-49.38-32.63-15.52-9.41-31.91-17.42-47.38-26.85-12.98-7.91-26.89-13.49-40.59-20.37-8.06-4.05-22.63-16.32-31.86-14-8.38,2.1-21.07,19.89-27.21,26.44-11.51,12.27-23.36,23.02-36.33,33.77-22.39,18.57-44.82,36.45-66.98,54.76-4.87,4.02-10.09,8.54-13.4,13.92-1.43.7-.73-.64-6.05-2.23Z"/>
    <path id="Path_472" data-name="Path 472" class="cls-12" d="m236.15,486.33c-1.42,4.15-1.08,8.53-1.13,11.54-.05,3.06.12,6.19,1.62,9.09,2.57,4.97,8.92,8.84,16.17,11.05,7.26,2.21,15.38,2.89,23.37,2.98,8.17.09,16.48-.45,24.04-2.47,2.64-.7,11.77-3.78,17.68-10.57,9.3-10.68,2.88-22.06,1.62-24.29-1.72-3.05-9.59-15.53-29.95-19.12-16.89-2.98-30.65,2.24-33.27,3.28-12.4,4.92-18.23,12.85-20.17,18.51h.01Z"/>
    <path id="Path_473" data-name="Path 473" class="cls-13" d="m257,471.92c-1.64,1.08-2.33,2.64-2.36,4.16s.53,3.01,1.09,4.48c.17.62.53,1.21,1.06,1.73.48.36,1.06.67,1.7.91,2.26.93,4.61,1.76,7.05,2.47,1.12.38,2.35.61,3.61.67,1.77-.04,3.45-.53,4.68-1.37,1.21-.83,2.24-1.78,3.04-2.8.52-.52.9-1.1,1.14-1.7.33-1.07-.24-2.16-.82-3.19-1.52-2.7-3.5-5.94-8.16-6.61-3.69-.54-9.15-.63-12.04,1.26h0Z"/>
    <path id="Path_474" data-name="Path 474" class="cls-13" d="m245.86,485.46c-.64,1.62.03,3.36,1.29,4.81s3.05,2.66,4.83,3.86c.68.53,1.52.95,2.47,1.25.77.17,1.57.25,2.38.24,2.93.06,5.86-.02,8.77-.23,1.39-.05,2.74-.28,3.99-.69,1.68-.62,2.76-1.79,3.28-3.01.44-1.23.61-2.5.52-3.77.05-.68-.08-1.37-.37-2.03-.59-1.14-2.06-1.96-3.48-2.73-3.73-2-8.34-4.35-13.33-3.29-3.96.84-9.21,2.74-10.34,5.58Z"/>
    <path id="Path_475" data-name="Path 475" class="cls-21" d="m250.22,483.86c-1,.5-1.39,1.37-.96,2.15.06.12.17.23.32.31.15.06.32.09.5.09.72.09,1.47.07,2.18-.07.72-.15,1.21-.59,1.21-1.08,0-.07-.04-.14-.09-.2-.12-.08-.26-.14-.42-.17-.47-.2-.88-.46-1.21-.75-.4-.26-1.04-.45-1.51-.24"/>
    <path id="Path_476" data-name="Path 476" class="cls-21" d="m256.39,481.11c-.87.44-1.21,1.19-.83,1.87.05.11.15.2.28.27.13.05.28.08.43.08.63.08,1.28.06,1.9-.05.63-.13,1.05-.51,1.06-.94,0-.06-.03-.12-.08-.17-.1-.07-.23-.12-.37-.15-.44-.14-.71-.43-1.06-.66s-.91-.39-1.31-.21"/>
    <path id="Path_477" data-name="Path 477" class="cls-21" d="m254.28,488.96c-.67-.25-1.51-.19-2.08.15-.09.05-.16.12-.19.2-.01.07,0,.14.04.21.09.29.29.56.57.8.3.23.79.31,1.22.2.06-.02.11-.05.14-.08.04-.06.06-.13.05-.2.07-.22.19-.43.36-.63.17-.2.11-.46-.15-.62"/>
    <path id="Path_478" data-name="Path 478" class="cls-21" d="m265.37,488.88c-.66.33-.91.9-.63,1.41.04.08.11.15.22.2.1.04.21.06.32.06.48.06.97.04,1.43-.04.47-.1.79-.38.8-.71,0-.04-.02-.09-.06-.13-.08-.05-.18-.09-.28-.11-.31-.13-.58-.3-.8-.5-.23-.2-.64-.26-.99-.16"/>
    <path id="Path_479" data-name="Path 479" class="cls-21" d="m259.38,485.62c-1,.5-1.39,1.37-.96,2.15.06.12.17.23.32.31.15.06.32.09.5.09.72.09,1.47.07,2.18-.07.72-.15,1.21-.59,1.21-1.08,0-.07-.04-.14-.09-.2-.12-.08-.26-.14-.42-.17-.47-.2-.88-.46-1.21-.75-.4-.26-1.04-.45-1.51-.24"/>
    <path id="Path_480" data-name="Path 480" class="cls-21" d="m265.57,484.42c-.66.33-.91.9-.63,1.41.04.08.11.15.22.2.1.04.21.06.32.06.48.06.97.04,1.43-.04.47-.1.79-.38.8-.71,0-.04-.02-.09-.06-.13-.08-.05-.18-.09-.28-.11-.31-.13-.58-.3-.8-.5-.23-.2-.64-.26-.99-.16"/>
    <path id="Path_481" data-name="Path 481" class="cls-21" d="m258.29,490.63c-.87.44-1.21,1.19-.83,1.87.05.11.15.2.28.27.13.05.28.08.43.08.63.08,1.28.06,1.9-.05.63-.13,1.05-.51,1.06-.94,0-.06-.03-.12-.08-.17-.1-.07-.23-.12-.37-.15-.44-.14-.71-.43-1.06-.66s-.91-.39-1.31-.21"/>
    <path id="Path_482" data-name="Path 482" class="cls-21" d="m261.61,472.45c-1.25.1-2.25.72-2.49,1.53-.05.13-.03.26.04.38.09.1.21.18.36.25.55.32,1.21.55,1.93.67.74.11,1.5-.1,1.89-.53.05-.06.07-.13.07-.2-.04-.11-.12-.21-.23-.29-.24-.33-.4-.69-.47-1.05-.14-.36-.55-.73-1.11-.71"/>
    <path id="Path_483" data-name="Path 483" class="cls-21" d="m269.05,472.13c-1.09.09-1.96.63-2.16,1.33-.04.11-.02.22.04.33.08.09.19.16.32.21.48.28,1.06.48,1.68.58.64.1,1.3-.09,1.64-.46.04-.05.06-.11.06-.17-.04-.09-.11-.18-.21-.25-.21-.29-.35-.6-.41-.91-.12-.31-.47-.64-.97-.62"/>
    <path id="Path_484" data-name="Path 484" class="cls-21" d="m261.17,478.2c-.38-.44-1.16-.67-1.91-.56-.12.01-.23.05-.32.1-.06.06-.11.12-.12.19-.15.28-.19.58-.12.88.08.3.45.53.91.57.07,0,.13,0,.19-.02.09-.04.15-.09.19-.16.23-.17.5-.31.8-.43.27-.14.5-.38.35-.58"/>
    <path id="Path_485" data-name="Path 485" class="cls-21" d="m270.81,481.81c-.82.07-1.48.47-1.63,1.01-.03.08-.01.17.03.25.06.06.14.12.23.16.36.21.8.36,1.26.44.49.07.99-.07,1.24-.35.03-.04.05-.09.04-.13-.03-.07-.08-.14-.16-.19-.16-.22-.26-.45-.31-.69-.1-.24-.36-.48-.73-.46"/>
    <path id="Path_486" data-name="Path 486" class="cls-21" d="m268.16,477.02c-1.25.1-2.25.72-2.49,1.53-.05.13-.03.26.04.38.09.1.21.18.36.25.55.32,1.21.55,1.93.67.74.11,1.5-.1,1.89-.53.05-.06.07-.13.07-.2-.04-.11-.12-.21-.23-.29-.24-.33-.4-.69-.47-1.05-.14-.36-.55-.73-1.11-.71"/>
    <path id="Path_487" data-name="Path 487" class="cls-21" d="m274.41,478.04c-.82.07-1.48.47-1.63,1.01-.03.08-.01.17.03.25.06.06.14.12.23.16.36.21.8.36,1.26.44.49.07.99-.07,1.24-.35.03-.04.05-.09.04-.13-.03-.07-.08-.14-.16-.19-.16-.22-.26-.45-.31-.69-.1-.24-.36-.48-.73-.46"/>
    <path id="Path_488" data-name="Path 488" class="cls-21" d="m263.35,480.98c-1.09.09-1.96.63-2.16,1.33-.04.11-.02.22.04.33.08.09.19.16.32.21.48.28,1.06.48,1.68.58.64.1,1.3-.09,1.64-.46.04-.05.06-.11.06-.17-.04-.09-.11-.18-.21-.25-.21-.29-.35-.6-.41-.91-.12-.31-.47-.64-.97-.62"/>
    <path id="Path_489" data-name="Path 489" class="cls-13" d="m240.94,498.88c-.09,1.52,1.03,2.98,2.58,4.11s3.5,1.97,5.44,2.81c.76.38,1.64.65,2.57.79.73.05,1.47.02,2.18-.09,2.62-.32,5.2-.77,7.73-1.33,1.22-.22,2.35-.6,3.34-1.12,1.26-.82,1.99-1.93,2.01-3.1.02-1.15-.2-2.3-.67-3.41-.16-.61-.47-1.21-.92-1.76-.87-.93-2.41-1.48-3.9-1.97-3.91-1.3-8.71-2.8-12.83-1.21-3.27,1.26-7.37,3.62-7.53,6.29h0Z"/>
    <path id="Path_490" data-name="Path 490" class="cls-21" d="m244.88,497.2c-.82.63-.91,1.54-.23,2.23.1.11.25.2.42.26.17.03.34.04.52.02.74-.01,1.46-.14,2.11-.37.66-.25.99-.74.83-1.23-.03-.07-.08-.13-.16-.17-.14-.06-.31-.1-.47-.11-.52-.13-1.01-.32-1.43-.56-.47-.2-1.16-.29-1.55-.03"/>
    <path id="Path_491" data-name="Path 491" class="cls-21" d="m250,493.65c-.71.55-.79,1.34-.21,1.94.09.1.21.17.37.22.15.03.3.04.45.02.64-.01,1.27-.12,1.83-.32.57-.22.86-.65.72-1.07-.02-.06-.07-.11-.13-.15-.12-.05-.27-.09-.42-.09-.45-.11-.87-.28-1.24-.49-.39-.21-.94-.22-1.35-.02"/>
    <path id="Path_492" data-name="Path 492" class="cls-21" d="m250.51,501.61c-.74-.15-1.54.03-1.99.44-.07.06-.12.14-.12.22.01.07.05.14.11.2.19.27.47.51.82.69.37.18.88.19,1.26.02.05-.03.09-.06.12-.1.02-.07.01-.14-.02-.2,0-.23.04-.45.15-.67.06-.22-.03-.5-.35-.58"/>
    <path id="Path_493" data-name="Path 493" class="cls-21" d="m261.31,499.97c-.53.42-.6,1.01-.16,1.47.06.07.16.13.27.17.11.02.23.03.34.02.48,0,.96-.09,1.38-.25.43-.16.65-.49.55-.81-.01-.04-.05-.08-.1-.11-.09-.04-.2-.06-.31-.07-.34-.09-.66-.21-.94-.37-.29-.16-.71-.16-1.01-.02"/>
    <path id="Path_494" data-name="Path 494" class="cls-21" d="m254.4,497.63c-.82.63-.91,1.54-.23,2.23.1.11.25.2.42.26.17.03.34.04.52.02.74-.01,1.46-.14,2.11-.37.66-.25.99-.74.83-1.23-.03-.07-.08-.13-.16-.17-.14-.06-.31-.1-.47-.11-.52-.13-1.01-.32-1.43-.56-.47-.2-1.16-.29-1.55-.03"/>
    <path id="Path_495" data-name="Path 495" class="cls-21" d="m260.06,495.59c-.53.42-.6,1.01-.16,1.47.06.07.16.13.27.17.11.02.23.03.34.02.48,0,.96-.09,1.38-.25.43-.16.65-.49.55-.81-.01-.04-.05-.08-.1-.11-.09-.04-.2-.06-.31-.07-.34-.09-.66-.21-.94-.37-.29-.16-.71-.16-1.01-.02"/>
    <path id="Path_496" data-name="Path 496" class="cls-21" d="m254.97,502.68c-.71.55-.79,1.34-.21,1.94.09.1.21.17.37.22.15.03.3.04.45.02.64-.01,1.27-.12,1.83-.32.57-.22.86-.65.72-1.07-.02-.06-.07-.11-.13-.15-.12-.05-.27-.09-.42-.09-.45-.11-.87-.28-1.24-.49-.39-.21-.94-.22-1.35-.02"/>
    <path id="Path_497" data-name="Path 497" class="cls-13" d="m256.64,505.01c-1.05,1.16-1.11,2.61-.64,3.92s1.46,2.51,2.43,3.7c.35.51.85.96,1.49,1.33.53.24,1.13.42,1.76.54,2.25.48,4.54.85,6.87,1.11,1.09.17,2.22.18,3.33.05,1.51-.29,2.79-.95,3.56-1.85.76-.89,1.33-1.85,1.68-2.85.27-.52.41-1.07.41-1.63-.07-.97-.92-1.82-1.76-2.62-2.2-2.1-4.98-4.6-9.21-4.51-3.35.07-8.07.77-9.92,2.81h.01Z"/>
    <path id="Path_498" data-name="Path 498" class="cls-21" d="m260.78,504.8c-1.04.26-1.7.94-1.62,1.68,0,.11.06.23.17.32.11.07.24.13.39.16.58.2,1.23.3,1.88.29.67,0,1.25-.3,1.44-.73.02-.06.02-.12,0-.18-.07-.09-.17-.16-.3-.21-.32-.25-.57-.53-.75-.84-.24-.28-.72-.55-1.19-.45"/>
    <path id="Path_499" data-name="Path 499" class="cls-21" d="m267.05,503.46c-.9.23-1.48.82-1.41,1.46,0,.1.05.19.14.27.1.06.21.11.34.14.51.17,1.07.26,1.64.26.58-.01,1.08-.26,1.25-.63.02-.05.02-.11,0-.16-.04-.08-.17-.13-.26-.19-.28-.22-.5-.46-.65-.73-.21-.25-.62-.48-1.03-.39"/>
    <path id="Path_500" data-name="Path 500" class="cls-21" d="m262.32,509.8c-.48-.33-1.22-.41-1.83-.2-.1.03-.18.08-.23.14-.04.06-.05.12-.04.19-.03.26.04.53.19.77.17.25.56.39.97.37.06,0,.11-.02.15-.04.06-.05.1-.1.12-.16.14-.18.32-.34.54-.48.18-.16.31-.4.11-.55"/>
    <path id="Path_501" data-name="Path 501" class="cls-21" d="m271.79,511.52c-.68.17-1.11.62-1.06,1.1,0,.08.04.15.11.21.07.05.16.08.26.1.38.13.8.19,1.23.2.44,0,.82-.2.95-.48.01-.04.01-.08,0-.12-.03-.06-.12-.1-.2-.14-.21-.16-.38-.35-.49-.55-.16-.19-.47-.36-.78-.29"/>
    <path id="Path_502" data-name="Path 502" class="cls-21" d="m267.92,507.79c-1.04.26-1.7.94-1.62,1.68,0,.11.06.23.17.32.11.07.24.13.39.16.58.2,1.23.3,1.88.29.67,0,1.25-.3,1.44-.73.02-.06.02-.12,0-.18-.07-.09-.17-.16-.3-.21-.32-.25-.57-.53-.75-.84-.24-.28-.72-.55-1.19-.45"/>
    <path id="Path_503" data-name="Path 503" class="cls-21" d="m273.63,507.76c-.68.17-1.11.62-1.06,1.1,0,.08.04.15.11.21.07.05.16.08.26.1.38.13.8.19,1.23.2.44,0,.82-.2.95-.48.01-.04.01-.08,0-.12-.03-.06-.12-.1-.2-.14-.21-.16-.38-.35-.49-.55-.16-.19-.47-.36-.78-.29"/>
    <path id="Path_504" data-name="Path 504" class="cls-21" d="m265.11,511.87c-.9.23-1.48.82-1.41,1.46,0,.1.05.19.14.27.1.06.21.11.34.14.51.17,1.07.26,1.64.26.58,0,1.09-.26,1.26-.63.02-.05.02-.11,0-.16-.04-.08-.17-.13-.26-.19-.28-.22-.5-.46-.65-.73-.21-.25-.62-.48-1.03-.39"/>
    <path id="Path_505" data-name="Path 505" class="cls-13" d="m273.74,507.46c-.58,1.47.03,3.05,1.17,4.38s2.78,2.42,4.39,3.51c.62.48,1.39.87,2.26,1.14.7.15,1.43.23,2.16.22,2.66.05,5.33-.02,7.98-.21,1.26-.05,2.49-.26,3.63-.62,1.5-.62,2.57-1.6,2.98-2.74.4-1.12.55-2.28.47-3.43.04-.62-.07-1.25-.33-1.85-.54-1.03-1.87-1.79-3.16-2.48-3.39-1.82-7.6-3.96-12.13-2.99-3.6.76-8.39,2.5-9.41,5.08h0Z"/>
    <path id="Path_506" data-name="Path 506" class="cls-21" d="m278.13,506.38c-1,.5-1.39,1.37-.96,2.15.06.12.17.23.32.31.15.06.32.09.5.09.72.09,1.47.07,2.18-.07.72-.15,1.21-.59,1.21-1.08,0-.07-.04-.14-.09-.2-.12-.08-.26-.14-.42-.17-.47-.2-.88-.46-1.21-.75-.4-.26-1.04-.45-1.51-.24"/>
    <path id="Path_507" data-name="Path 507" class="cls-21" d="m284.29,503.63c-.87.44-1.21,1.19-.83,1.87.05.11.15.2.28.27.13.05.28.08.43.08.63.08,1.28.06,1.9-.05.63-.13,1.05-.51,1.06-.94,0-.06-.03-.12-.08-.17-.1-.07-.23-.12-.37-.15-.44-.14-.71-.43-1.06-.66s-.91-.39-1.31-.21"/>
    <path id="Path_508" data-name="Path 508" class="cls-21" d="m282.18,511.48c-.67-.25-1.51-.19-2.08.15-.09.05-.16.12-.19.2-.01.07,0,.14.04.21.09.29.29.56.57.8.3.23.79.31,1.22.2.06-.02.11-.05.14-.08.04-.06.06-.13.05-.2.07-.22.19-.43.36-.63.17-.2.11-.46-.15-.62"/>
    <path id="Path_509" data-name="Path 509" class="cls-21" d="m293.28,511.4c-.66.33-.91.9-.63,1.41.04.08.11.15.22.2.1.04.21.06.32.06.48.06.97.04,1.43-.04.47-.1.79-.38.8-.71,0-.04-.02-.09-.06-.13-.08-.05-.18-.09-.28-.11-.31-.13-.58-.3-.8-.5-.23-.2-.64-.26-.99-.16"/>
    <path id="Path_510" data-name="Path 510" class="cls-21" d="m287.29,508.14c-1,.5-1.39,1.37-.96,2.15.06.12.17.23.32.31.15.06.32.09.5.09.72.09,1.47.07,2.18-.07.72-.15,1.21-.59,1.21-1.08,0-.07-.04-.14-.09-.2-.12-.08-.26-.14-.42-.17-.47-.2-.88-.46-1.21-.75-.4-.26-1.04-.45-1.51-.24"/>
    <path id="Path_511" data-name="Path 511" class="cls-21" d="m293.48,506.94c-.66.33-.91.9-.63,1.41.04.08.11.15.22.2.1.04.21.06.32.06.48.06.97.04,1.43-.04.47-.1.79-.38.8-.71,0-.04-.02-.09-.06-.13-.08-.05-.18-.09-.28-.11-.31-.13-.58-.3-.8-.5-.23-.2-.64-.26-.99-.16"/>
    <path id="Path_512" data-name="Path 512" class="cls-21" d="m286.19,513.16c-.87.44-1.21,1.19-.83,1.87.05.11.15.2.28.27.13.05.28.08.43.08.63.08,1.28.06,1.9-.05.63-.13,1.05-.51,1.06-.94,0-.06-.03-.12-.08-.17-.1-.07-.23-.12-.37-.15-.44-.14-.71-.43-1.06-.66s-.91-.39-1.31-.21"/>
    <path id="Path_513" data-name="Path 513" class="cls-13" d="m287.88,499.81c-.58,1.47.03,3.05,1.17,4.38s2.78,2.42,4.39,3.51c.62.48,1.39.87,2.26,1.14.7.15,1.43.23,2.16.22,2.66.05,5.33-.02,7.98-.21,1.26-.05,2.49-.26,3.63-.62,1.5-.62,2.57-1.6,2.98-2.74.4-1.12.55-2.28.47-3.43.04-.62-.07-1.25-.33-1.85-.54-1.03-1.87-1.79-3.16-2.48-3.39-1.82-7.6-3.96-12.13-2.99-3.6.76-8.38,2.5-9.41,5.08h0Z"/>
    <path id="Path_514" data-name="Path 514" class="cls-21" d="m292.27,498.73c-1,.5-1.39,1.37-.96,2.15.06.12.17.23.32.31.15.06.32.09.5.09.72.09,1.47.07,2.18-.07.72-.15,1.21-.59,1.21-1.08,0-.07-.04-.14-.09-.2-.12-.08-.26-.14-.42-.17-.47-.2-.88-.46-1.21-.75-.4-.26-1.04-.45-1.51-.24"/>
    <path id="Path_515" data-name="Path 515" class="cls-21" d="m298.43,495.98c-.87.44-1.21,1.19-.83,1.87.05.11.15.2.28.27.13.05.28.08.43.08.63.08,1.28.06,1.9-.05.63-.13,1.05-.51,1.06-.94,0-.06-.03-.12-.08-.17-.1-.07-.23-.12-.37-.15-.44-.14-.71-.43-1.06-.66s-.91-.39-1.31-.21"/>
    <path id="Path_516" data-name="Path 516" class="cls-21" d="m296.32,503.83c-.67-.25-1.51-.19-2.08.15-.09.05-.16.12-.19.2-.01.07,0,.14.04.21.09.29.29.56.57.8.3.23.79.31,1.22.2.06-.02.11-.05.14-.08.04-.06.06-.13.05-.2.07-.22.19-.43.36-.63.17-.2.11-.46-.15-.62"/>
    <path id="Path_517" data-name="Path 517" class="cls-21" d="m307.42,503.75c-.66.33-.91.9-.63,1.41.04.08.11.15.22.2.1.04.21.06.32.06.48.06.97.04,1.43-.04.47-.1.8-.38.8-.71,0-.04-.02-.09-.06-.13-.08-.05-.18-.09-.28-.11-.31-.13-.58-.3-.8-.5-.23-.2-.64-.26-.99-.16"/>
    <path id="Path_518" data-name="Path 518" class="cls-21" d="m301.43,500.49c-1,.5-1.39,1.37-.96,2.15.06.12.17.23.32.31.15.06.32.09.5.09.72.09,1.47.07,2.18-.07.72-.15,1.21-.59,1.21-1.08,0-.07-.04-.14-.09-.2-.12-.08-.26-.14-.42-.17-.47-.2-.88-.46-1.21-.75-.4-.26-1.04-.45-1.51-.24"/>
    <path id="Path_519" data-name="Path 519" class="cls-21" d="m307.62,499.3c-.66.33-.91.9-.63,1.41.04.08.11.15.22.2.1.04.21.06.32.06.48.06.97.04,1.43-.04.47-.1.79-.38.8-.71,0-.04-.02-.09-.06-.13-.08-.05-.18-.09-.28-.11-.31-.13-.58-.3-.8-.5-.23-.2-.64-.26-.99-.16"/>
    <path id="Path_520" data-name="Path 520" class="cls-21" d="m300.34,505.51c-.87.44-1.21,1.19-.83,1.87.05.11.15.2.28.27.13.05.28.08.43.08.63.08,1.28.06,1.9-.05.63-.13,1.05-.51,1.06-.94,0-.06-.03-.12-.08-.17-.1-.07-.23-.12-.37-.15-.44-.14-.71-.43-1.06-.66s-.91-.39-1.31-.21"/>
    <path id="Path_521" data-name="Path 521" class="cls-13" d="m290.38,486.7c-.58,1.47.03,3.05,1.17,4.38s2.78,2.42,4.39,3.51c.62.48,1.39.87,2.26,1.14.7.15,1.43.23,2.16.22,2.66.05,5.33-.02,7.98-.21,1.26-.05,2.49-.26,3.63-.62,1.5-.62,2.57-1.6,2.98-2.74.4-1.12.55-2.28.47-3.43.04-.62-.07-1.25-.33-1.85-.54-1.03-1.87-1.79-3.16-2.48-3.39-1.82-7.6-3.96-12.13-2.99-3.6.76-8.39,2.5-9.41,5.08Z"/>
    <path id="Path_522" data-name="Path 522" class="cls-21" d="m294.77,485.62c-1,.5-1.39,1.37-.96,2.15.06.12.17.23.32.31.15.06.32.09.5.09.72.09,1.47.07,2.18-.07.72-.15,1.21-.59,1.21-1.08,0-.07-.04-.14-.09-.2-.12-.08-.26-.14-.42-.17-.47-.2-.88-.46-1.21-.75-.4-.26-1.04-.45-1.51-.24"/>
    <path id="Path_523" data-name="Path 523" class="cls-21" d="m300.93,482.87c-.87.44-1.21,1.19-.83,1.87.05.11.15.2.28.27.13.05.28.08.43.08.63.08,1.28.06,1.9-.05.63-.13,1.05-.51,1.06-.94,0-.06-.03-.12-.08-.17-.1-.07-.23-.12-.37-.15-.44-.14-.71-.43-1.06-.66s-.91-.39-1.31-.21"/>
    <path id="Path_524" data-name="Path 524" class="cls-21" d="m298.81,490.72c-.67-.25-1.51-.19-2.08.15-.09.05-.16.12-.19.2-.01.07,0,.14.04.21.09.29.29.56.57.8.3.23.79.31,1.22.2.06-.02.11-.05.14-.08.04-.06.06-.13.05-.2.07-.22.19-.43.36-.63.17-.2.11-.46-.15-.62"/>
    <path id="Path_525" data-name="Path 525" class="cls-21" d="m309.92,490.64c-.66.33-.91.9-.63,1.41.04.08.11.15.22.2.1.04.21.06.32.06.48.06.97.04,1.43-.04.47-.1.79-.38.8-.71,0-.04-.02-.09-.06-.13-.08-.05-.18-.09-.28-.11-.31-.13-.58-.3-.8-.5-.23-.2-.64-.26-.99-.16"/>
    <path id="Path_526" data-name="Path 526" class="cls-21" d="m303.93,487.39c-1,.5-1.39,1.37-.96,2.15.06.12.17.23.32.31.15.06.32.09.5.09.72.09,1.47.07,2.18-.07.72-.15,1.21-.59,1.21-1.08,0-.07-.04-.14-.09-.2-.12-.08-.26-.14-.42-.17-.47-.2-.88-.46-1.21-.75-.4-.26-1.04-.45-1.51-.24"/>
    <path id="Path_527" data-name="Path 527" class="cls-21" d="m310.12,486.19c-.66.33-.91.9-.63,1.41.04.08.11.15.22.2.1.04.21.06.32.06.48.06.97.04,1.43-.04.47-.1.79-.38.8-.71,0-.04-.02-.09-.06-.13-.08-.05-.18-.09-.28-.11-.31-.13-.58-.3-.8-.5-.23-.2-.64-.26-.99-.16"/>
    <path id="Path_528" data-name="Path 528" class="cls-21" d="m302.83,492.4c-.87.44-1.21,1.19-.83,1.87.05.11.15.2.28.27.13.05.28.08.43.08.63.08,1.28.06,1.9-.05.63-.13,1.05-.51,1.06-.94,0-.06-.03-.12-.08-.17-.1-.07-.23-.12-.37-.15-.44-.14-.71-.43-1.06-.66s-.91-.39-1.31-.21"/>
    <path id="Path_529" data-name="Path 529" class="cls-13" d="m282.89,475.23c-.58,1.47.03,3.05,1.17,4.38s2.78,2.42,4.39,3.51c.62.48,1.39.87,2.26,1.14.7.15,1.43.23,2.16.22,2.66.05,5.33-.02,7.98-.21,1.26-.05,2.49-.26,3.63-.62,1.5-.62,2.57-1.6,2.98-2.74.4-1.12.55-2.28.47-3.43.04-.62-.07-1.25-.33-1.85-.54-1.03-1.87-1.79-3.16-2.48-3.39-1.82-7.6-3.96-12.13-2.99-3.6.76-8.39,2.5-9.41,5.08Z"/>
    <path id="Path_530" data-name="Path 530" class="cls-21" d="m287.28,474.15c-1,.5-1.39,1.37-.96,2.15.06.12.17.23.32.31.15.06.32.09.5.09.72.09,1.47.07,2.18-.07.72-.15,1.21-.59,1.21-1.08,0-.07-.04-.14-.09-.2-.12-.08-.26-.14-.42-.17-.47-.2-.88-.46-1.21-.75-.4-.26-1.04-.45-1.51-.24"/>
    <path id="Path_531" data-name="Path 531" class="cls-21" d="m293.44,471.4c-.87.44-1.21,1.19-.83,1.87.05.11.15.2.28.27.13.05.28.08.43.08.63.08,1.28.06,1.9-.05.63-.13,1.05-.51,1.06-.94,0-.06-.03-.12-.08-.17-.1-.07-.23-.12-.37-.15-.44-.14-.71-.43-1.06-.66s-.91-.39-1.31-.21"/>
    <path id="Path_532" data-name="Path 532" class="cls-21" d="m291.33,479.25c-.67-.25-1.51-.19-2.08.15-.09.05-.16.12-.19.2-.01.07,0,.14.04.21.09.29.29.56.57.8.3.23.79.31,1.22.2.06-.02.11-.05.14-.08.04-.06.06-.13.05-.2.07-.22.19-.43.36-.63.17-.2.11-.46-.15-.62"/>
    <path id="Path_533" data-name="Path 533" class="cls-21" d="m302.43,479.17c-.66.33-.91.9-.63,1.41.04.08.11.15.22.2.1.04.21.06.32.06.48.06.97.04,1.43-.04.47-.1.79-.38.8-.71,0-.04-.02-.09-.06-.13-.08-.05-.18-.09-.28-.11-.31-.13-.58-.3-.8-.5-.23-.2-.64-.26-.99-.16"/>
    <path id="Path_534" data-name="Path 534" class="cls-21" d="m296.44,475.91c-1,.5-1.39,1.37-.96,2.15.06.12.17.23.32.31.15.06.32.09.5.09.72.09,1.47.07,2.18-.07.72-.15,1.21-.59,1.21-1.08,0-.07-.04-.14-.09-.2-.12-.08-.26-.14-.42-.17-.47-.2-.88-.46-1.21-.75-.4-.26-1.04-.45-1.51-.24"/>
    <path id="Path_535" data-name="Path 535" class="cls-21" d="m302.63,474.72c-.66.33-.91.9-.63,1.41.04.08.11.15.22.2.1.04.21.06.32.06.48.06.97.04,1.43-.04.47-.1.79-.38.8-.71,0-.04-.02-.09-.06-.13-.08-.05-.18-.09-.28-.11-.31-.13-.58-.3-.8-.5-.23-.2-.64-.26-.99-.16"/>
    <path id="Path_536" data-name="Path 536" class="cls-21" d="m295.34,480.93c-.87.44-1.21,1.19-.83,1.87.05.11.15.2.28.27.13.05.28.08.43.08.63.08,1.28.06,1.9-.05.63-.13,1.05-.51,1.06-.94,0-.06-.03-.12-.08-.17-.1-.07-.23-.12-.37-.15-.44-.14-.71-.43-1.06-.66s-.91-.39-1.31-.21"/>
    <path id="Path_537" data-name="Path 537" class="cls-13" d="m267.92,474.14c-.58,1.47.03,3.05,1.17,4.38s2.78,2.42,4.39,3.51c.62.48,1.39.87,2.26,1.14.7.15,1.43.23,2.16.22,2.66.05,5.33-.02,7.98-.21,1.26-.05,2.49-.26,3.63-.62,1.5-.62,2.57-1.6,2.98-2.74.4-1.12.55-2.28.47-3.43.04-.62-.07-1.25-.33-1.85-.54-1.03-1.87-1.79-3.16-2.48-3.39-1.82-7.6-3.96-12.13-2.99-3.6.76-8.39,2.5-9.41,5.08Z"/>
    <path id="Path_538" data-name="Path 538" class="cls-21" d="m272.31,473.06c-1,.5-1.39,1.37-.96,2.15.06.12.17.23.32.31.15.06.32.09.5.09.72.09,1.47.07,2.18-.07.72-.15,1.21-.59,1.21-1.08,0-.07-.04-.14-.09-.2-.12-.08-.26-.14-.42-.17-.47-.2-.88-.46-1.21-.75-.4-.26-1.04-.45-1.51-.24"/>
    <path id="Path_539" data-name="Path 539" class="cls-21" d="m278.47,470.31c-.87.44-1.21,1.19-.83,1.87.05.11.15.2.28.27.13.05.28.08.43.08.63.08,1.28.06,1.9-.05.63-.13,1.05-.51,1.06-.94,0-.06-.03-.12-.08-.17-.1-.07-.23-.12-.37-.15-.44-.14-.71-.43-1.06-.66s-.91-.39-1.31-.21"/>
    <path id="Path_540" data-name="Path 540" class="cls-21" d="m276.35,478.16c-.67-.25-1.51-.19-2.08.15-.09.05-.16.12-.19.2-.01.07,0,.14.04.21.09.29.29.56.57.8.3.23.79.31,1.22.2.06-.02.11-.05.14-.08.04-.06.06-.13.05-.2.07-.22.19-.43.36-.63.17-.2.11-.46-.15-.62"/>
    <path id="Path_541" data-name="Path 541" class="cls-21" d="m287.46,478.08c-.66.33-.91.9-.63,1.41.04.08.11.15.22.2.1.04.21.06.32.06.48.06.97.04,1.43-.04.47-.1.79-.38.8-.71,0-.04-.02-.09-.06-.13-.08-.05-.18-.09-.28-.11-.31-.13-.58-.3-.8-.5-.23-.2-.64-.26-.99-.16"/>
    <path id="Path_542" data-name="Path 542" class="cls-21" d="m281.47,474.82c-1,.5-1.39,1.37-.96,2.15.06.12.17.23.32.31.15.06.32.09.5.09.72.09,1.47.07,2.18-.07.72-.15,1.21-.59,1.21-1.08,0-.07-.04-.14-.09-.2-.12-.08-.26-.14-.42-.17-.47-.2-.88-.46-1.21-.75-.4-.26-1.04-.45-1.51-.24"/>
    <path id="Path_543" data-name="Path 543" class="cls-21" d="m287.66,473.63c-.66.33-.91.9-.63,1.41.04.08.11.15.22.2.1.04.21.06.32.06.48.06.97.04,1.43-.04.47-.1.79-.38.8-.71,0-.04-.02-.09-.06-.13-.08-.05-.18-.09-.28-.11-.31-.13-.58-.3-.8-.5-.23-.2-.64-.26-.99-.16"/>
    <path id="Path_544" data-name="Path 544" class="cls-21" d="m280.37,479.84c-.87.44-1.21,1.19-.83,1.87.05.11.15.2.28.27.13.05.28.08.43.08.63.08,1.28.06,1.9-.05.63-.13,1.05-.51,1.06-.94,0-.06-.03-.12-.08-.17-.1-.07-.23-.12-.37-.15-.44-.14-.71-.43-1.06-.66s-.91-.39-1.31-.21"/>
    <path id="Path_545" data-name="Path 545" class="cls-13" d="m260.81,505.13c.73,1.44,2.57,2.55,4.63,3.24s4.34,1.03,6.6,1.36c.92.18,1.89.23,2.84.14.71-.12,1.38-.32,1.99-.6,2.27-.91,4.45-1.93,6.51-3.04,1.02-.49,1.87-1.11,2.52-1.82.74-1.06.82-2.27.22-3.37-.6-1.08-1.43-2.1-2.46-3.04-.48-.54-1.1-1.02-1.81-1.43-1.31-.67-3.06-.82-4.72-.94-4.36-.31-9.66-.59-12.65,1.85-2.38,1.93-4.94,5.1-3.65,7.64h0Z"/>
    <path id="Path_546" data-name="Path 546" class="cls-21" d="m263.59,502.65c-.42.78-.02,1.65.99,2.15.15.08.34.13.53.14.18,0,.35-.04.5-.1.68-.18,1.29-.47,1.77-.84.48-.38.53-.93.12-1.34-.06-.06-.15-.1-.24-.13-.17-.02-.34-.02-.5.01-.56,0-1.11-.07-1.64-.2-.54-.08-1.25,0-1.46.34"/>
    <path id="Path_547" data-name="Path 547" class="cls-21" d="m266.46,498.14c-.36.68-.02,1.43.86,1.86.13.07.29.11.46.12.15,0,.3-.04.43-.09.59-.16,1.12-.41,1.54-.73.42-.33.46-.81.1-1.17-.05-.05-.12-.09-.21-.11-.14-.02-.29-.01-.43.01-.49,0-.97-.06-1.43-.17-.48-.1-1,.02-1.27.29"/>
    <path id="Path_548" data-name="Path 548" class="cls-21" d="m271.23,505.47c-.77.03-1.43.39-1.61.88-.03.07-.03.15,0,.23.05.06.12.12.21.16.32.21.72.37,1.15.46.44.09.92-.02,1.19-.27.04-.04.06-.08.05-.12-.02-.07-.06-.13-.12-.19-.13-.21-.21-.43-.22-.66-.07-.22-.29-.46-.64-.46"/>
    <path id="Path_549" data-name="Path 549" class="cls-21" d="m280.45,501.42c-.27.51-.01,1.08.65,1.41.1.05.22.09.35.09.11,0,.23-.03.32-.07.45-.12.85-.31,1.16-.55.32-.25.35-.61.07-.88-.04-.04-.09-.07-.16-.08-.11-.01-.22-.01-.33,0-.37,0-.73-.05-1.08-.13-.36-.08-.75.01-.96.22"/>
    <path id="Path_550" data-name="Path 550" class="cls-21" d="m272.73,500.84c-.42.78-.02,1.65.99,2.15.15.08.34.13.53.14.18,0,.35-.04.5-.1.68-.18,1.29-.47,1.77-.84.48-.38.53-.93.12-1.34-.06-.06-.15-.1-.24-.13-.17-.02-.34-.02-.5.01-.56,0-1.11-.07-1.64-.2-.54-.08-1.25,0-1.46.34"/>
    <path id="Path_551" data-name="Path 551" class="cls-21" d="m276.92,497.62c-.27.51-.01,1.08.65,1.41.1.05.22.09.35.09.11,0,.23-.03.32-.07.45-.12.85-.31,1.16-.55.32-.25.35-.61.07-.88-.04-.04-.09-.07-.16-.08-.11-.01-.22-.01-.33,0-.37,0-.73-.05-1.08-.13-.36-.08-.75.01-.96.22"/>
    <path id="Path_552" data-name="Path 552" class="cls-21" d="m275.99,505.43c-.36.68-.02,1.43.86,1.86.13.07.29.11.46.12.15,0,.3-.04.43-.09.59-.16,1.12-.41,1.54-.73.42-.33.46-.81.1-1.17-.05-.05-.12-.09-.21-.11-.14-.02-.29-.01-.43.01-.49,0-.97-.06-1.43-.17-.48-.1-1,.02-1.27.29"/>
    <path id="Path_553" data-name="Path 553" class="cls-13" d="m251.28,492.16c-.58,1.47.03,3.05,1.17,4.38s2.78,2.42,4.39,3.51c.62.48,1.39.87,2.26,1.14.7.15,1.43.23,2.16.22,2.66.05,5.33-.02,7.98-.21,1.26-.05,2.49-.26,3.63-.62,1.5-.62,2.57-1.6,2.98-2.74.4-1.12.55-2.28.47-3.43.04-.62-.07-1.25-.33-1.85-.54-1.03-1.87-1.79-3.16-2.48-3.39-1.82-7.6-3.96-12.13-2.99-3.6.76-8.39,2.5-9.41,5.08h0Z"/>
    <path id="Path_554" data-name="Path 554" class="cls-21" d="m255.67,491.08c-1,.5-1.39,1.37-.96,2.15.06.12.17.23.32.31.15.06.32.09.5.09.72.09,1.47.07,2.18-.07.72-.15,1.21-.59,1.21-1.08,0-.07-.04-.14-.09-.2-.12-.08-.26-.14-.42-.17-.47-.2-.88-.46-1.21-.75-.4-.26-1.04-.45-1.51-.24"/>
    <path id="Path_555" data-name="Path 555" class="cls-21" d="m261.83,488.34c-.87.44-1.21,1.19-.83,1.87.05.11.15.2.28.27.13.05.28.08.43.08.63.08,1.28.06,1.9-.05.63-.13,1.05-.51,1.06-.94,0-.06-.03-.12-.08-.17-.1-.07-.23-.12-.37-.15-.44-.14-.71-.43-1.06-.66s-.91-.39-1.31-.21"/>
    <path id="Path_556" data-name="Path 556" class="cls-21" d="m259.72,496.19c-.67-.25-1.51-.19-2.08.15-.09.05-.16.12-.19.2-.01.07,0,.14.04.21.09.29.29.56.57.8.3.23.79.31,1.22.2.06-.02.11-.05.14-.08.04-.06.06-.13.05-.2.07-.22.19-.43.36-.63.17-.2.11-.46-.15-.62"/>
    <path id="Path_557" data-name="Path 557" class="cls-21" d="m270.82,496.1c-.66.33-.91.9-.63,1.41.04.08.11.15.22.2.1.04.21.06.32.06.48.06.97.04,1.43-.04.47-.1.79-.38.8-.71,0-.04-.02-.09-.06-.13-.08-.05-.18-.09-.28-.11-.31-.13-.58-.3-.8-.5-.23-.2-.64-.26-.99-.16"/>
    <path id="Path_558" data-name="Path 558" class="cls-21" d="m264.83,492.85c-1,.5-1.39,1.37-.96,2.15.06.12.17.23.32.31.15.06.32.09.5.09.72.09,1.47.07,2.18-.07.72-.15,1.21-.59,1.21-1.08,0-.07-.04-.14-.09-.2-.12-.08-.26-.14-.42-.17-.47-.2-.88-.46-1.21-.75-.4-.26-1.04-.45-1.51-.24"/>
    <path id="Path_559" data-name="Path 559" class="cls-21" d="m271.02,491.65c-.66.33-.91.9-.63,1.41.04.08.11.15.22.2.1.04.21.06.32.06.48.06.97.04,1.43-.04.47-.1.79-.38.8-.71,0-.04-.02-.09-.06-.13-.08-.05-.18-.09-.28-.11-.31-.13-.58-.3-.8-.5-.23-.2-.64-.26-.99-.16"/>
    <path id="Path_560" data-name="Path 560" class="cls-21" d="m263.73,497.86c-.87.44-1.21,1.19-.83,1.87.05.11.15.2.28.27.13.05.28.08.43.08.63.08,1.28.06,1.9-.05.63-.13,1.05-.51,1.06-.94,0-.06-.03-.12-.08-.17-.1-.07-.23-.12-.37-.15-.44-.14-.71-.43-1.06-.66s-.91-.39-1.31-.21"/>
    <path id="Path_561" data-name="Path 561" class="cls-13" d="m257.1,480.69c-.58,1.47.03,3.05,1.17,4.38s2.78,2.42,4.39,3.51c.62.48,1.39.87,2.26,1.14.7.15,1.43.23,2.16.22,2.66.05,5.33-.02,7.98-.21,1.26-.05,2.49-.26,3.63-.62,1.5-.62,2.57-1.6,2.98-2.74.4-1.12.55-2.28.47-3.43.04-.62-.07-1.25-.33-1.85-.54-1.03-1.87-1.79-3.16-2.48-3.39-1.82-7.6-3.96-12.13-2.99-3.6.76-8.39,2.5-9.41,5.08h0Z"/>
    <path id="Path_562" data-name="Path 562" class="cls-21" d="m261.5,479.61c-1,.5-1.39,1.37-.96,2.15.06.12.17.23.32.31.15.06.32.09.5.09.72.09,1.47.07,2.18-.07.72-.15,1.21-.59,1.21-1.08,0-.07-.04-.14-.09-.2-.12-.08-.26-.14-.42-.17-.47-.2-.88-.46-1.21-.75-.4-.26-1.04-.45-1.51-.24"/>
    <path id="Path_563" data-name="Path 563" class="cls-21" d="m267.65,476.86c-.87.44-1.21,1.19-.83,1.87.05.11.15.2.28.27.13.05.28.08.43.08.63.08,1.28.06,1.9-.05.63-.13,1.05-.51,1.06-.94,0-.06-.03-.12-.08-.17-.1-.07-.23-.12-.37-.15-.44-.14-.71-.43-1.06-.66s-.91-.39-1.31-.21"/>
    <path id="Path_564" data-name="Path 564" class="cls-21" d="m265.54,484.72c-.67-.25-1.51-.19-2.08.15-.09.05-.16.12-.19.2-.01.07,0,.14.04.21.09.29.29.56.57.8.3.23.79.31,1.22.2.06-.02.11-.05.14-.08.04-.06.06-.13.05-.2.07-.22.19-.43.36-.63.17-.2.11-.46-.15-.62"/>
    <path id="Path_565" data-name="Path 565" class="cls-21" d="m276.64,484.63c-.66.33-.91.9-.63,1.41.04.08.11.15.22.2.1.04.21.06.32.06.48.06.97.04,1.43-.04.47-.1.79-.38.8-.71,0-.04-.02-.09-.06-.13-.08-.05-.18-.09-.28-.11-.31-.13-.58-.3-.8-.5-.23-.2-.64-.26-.99-.16"/>
    <path id="Path_566" data-name="Path 566" class="cls-21" d="m270.65,481.38c-1,.5-1.39,1.37-.96,2.15.06.12.17.23.32.31.15.06.32.09.5.09.72.09,1.47.07,2.18-.07.72-.15,1.21-.59,1.21-1.08,0-.07-.04-.14-.09-.2-.12-.08-.26-.14-.42-.17-.47-.2-.88-.46-1.21-.75-.4-.26-1.04-.45-1.51-.24"/>
    <path id="Path_567" data-name="Path 567" class="cls-21" d="m276.84,480.18c-.66.33-.91.9-.63,1.41.04.08.11.15.22.2.1.04.21.06.32.06.48.06.97.04,1.43-.04.47-.1.79-.38.8-.71,0-.04-.02-.09-.06-.13-.08-.05-.18-.09-.28-.11-.31-.13-.58-.3-.8-.5-.23-.2-.64-.26-.99-.16"/>
    <path id="Path_568" data-name="Path 568" class="cls-21" d="m269.56,486.39c-.87.44-1.21,1.19-.83,1.87.05.11.15.2.28.27.13.05.28.08.43.08.63.08,1.28.06,1.9-.05.63-.13,1.05-.51,1.06-.94,0-.06-.03-.12-.08-.17-.1-.07-.23-.12-.37-.15-.44-.14-.71-.43-1.06-.66s-.91-.39-1.31-.21"/>
    <path id="Path_569" data-name="Path 569" class="cls-13" d="m276.24,481.79c-.58,1.47.03,3.05,1.17,4.38s2.78,2.42,4.39,3.51c.62.48,1.39.87,2.26,1.14.7.15,1.43.23,2.16.22,2.66.05,5.33-.02,7.98-.21,1.26-.05,2.49-.26,3.63-.62,1.5-.62,2.57-1.6,2.98-2.74.4-1.12.55-2.28.47-3.43.04-.62-.07-1.25-.33-1.85-.54-1.03-1.87-1.79-3.16-2.48-3.39-1.82-7.6-3.96-12.13-2.99-3.6.76-8.39,2.5-9.41,5.08Z"/>
    <path id="Path_570" data-name="Path 570" class="cls-21" d="m280.63,480.7c-1,.5-1.39,1.37-.96,2.15.06.12.17.23.32.31.15.06.32.09.5.09.72.09,1.47.07,2.18-.07.72-.15,1.21-.59,1.21-1.08,0-.07-.04-.14-.09-.2-.12-.08-.26-.14-.42-.17-.47-.2-.88-.46-1.21-.75-.4-.26-1.04-.45-1.51-.24"/>
    <path id="Path_571" data-name="Path 571" class="cls-21" d="m286.78,477.96c-.87.44-1.21,1.19-.83,1.87.05.11.15.2.28.27.13.05.28.08.43.08.63.08,1.28.06,1.9-.05.63-.13,1.05-.51,1.06-.94,0-.06-.03-.12-.08-.17-.1-.07-.23-.12-.37-.15-.44-.14-.71-.43-1.06-.66s-.91-.39-1.31-.21"/>
    <path id="Path_572" data-name="Path 572" class="cls-21" d="m284.67,485.81c-.67-.25-1.51-.19-2.08.15-.09.05-.16.12-.19.2-.01.07,0,.14.04.21.09.29.29.56.57.8.3.23.79.31,1.22.2.06-.02.11-.05.14-.08.04-.06.06-.13.05-.2.07-.22.19-.43.36-.63.17-.2.11-.46-.15-.62"/>
    <path id="Path_573" data-name="Path 573" class="cls-21" d="m295.78,485.72c-.66.33-.91.9-.63,1.41.04.08.11.15.22.2.1.04.21.06.32.06.48.06.97.04,1.43-.04.47-.1.8-.38.8-.71,0-.04-.02-.09-.06-.13-.08-.05-.18-.09-.28-.11-.31-.13-.58-.3-.8-.5-.23-.2-.64-.26-.99-.16"/>
    <path id="Path_574" data-name="Path 574" class="cls-21" d="m289.79,482.47c-1,.5-1.39,1.37-.96,2.15.06.12.17.23.32.31.15.06.32.09.5.09.72.09,1.47.07,2.18-.07.72-.15,1.21-.59,1.21-1.08,0-.07-.04-.14-.09-.2-.12-.08-.26-.14-.42-.17-.47-.2-.88-.46-1.21-.75-.4-.26-1.04-.45-1.51-.24"/>
    <path id="Path_575" data-name="Path 575" class="cls-21" d="m295.98,481.27c-.66.33-.91.9-.63,1.41.04.08.11.15.22.2.1.04.21.06.32.06.48.06.97.04,1.43-.04.47-.1.79-.38.8-.71,0-.04-.02-.09-.06-.13-.08-.05-.18-.09-.28-.11-.31-.13-.58-.3-.8-.5-.23-.2-.64-.26-.99-.16"/>
    <path id="Path_576" data-name="Path 576" class="cls-21" d="m288.69,487.48c-.87.44-1.21,1.19-.83,1.87.05.11.15.2.28.27.13.05.28.08.43.08.63.08,1.28.06,1.9-.05.63-.13,1.05-.51,1.06-.94,0-.06-.03-.12-.08-.17-.1-.07-.23-.12-.37-.15-.44-.14-.71-.43-1.06-.66s-.91-.39-1.31-.21"/>
    <path id="Path_577" data-name="Path 577" class="cls-13" d="m278.73,493.8c-.58,1.47.03,3.05,1.17,4.38s2.78,2.42,4.39,3.51c.62.48,1.39.87,2.26,1.14.7.15,1.43.23,2.16.22,2.66.05,5.33-.02,7.98-.21,1.26-.05,2.49-.26,3.63-.62,1.5-.62,2.57-1.6,2.98-2.74.4-1.12.55-2.28.47-3.43.04-.62-.07-1.25-.33-1.85-.54-1.03-1.87-1.79-3.16-2.48-3.39-1.82-7.6-3.96-12.13-2.99-3.6.76-8.39,2.5-9.41,5.08Z"/>
    <path id="Path_578" data-name="Path 578" class="cls-21" d="m283.12,492.72c-1,.5-1.39,1.37-.96,2.15.06.12.17.23.32.31.15.06.32.09.5.09.72.09,1.47.07,2.18-.07.72-.15,1.21-.59,1.21-1.08,0-.07-.04-.14-.09-.2-.12-.08-.26-.14-.42-.17-.47-.2-.88-.46-1.21-.75-.4-.26-1.04-.45-1.51-.24"/>
    <path id="Path_579" data-name="Path 579" class="cls-21" d="m289.28,489.97c-.87.44-1.21,1.19-.83,1.87.05.11.15.2.28.27.13.05.28.08.43.08.63.08,1.28.06,1.9-.05.63-.13,1.05-.51,1.06-.94,0-.06-.03-.12-.08-.17-.1-.07-.23-.12-.37-.15-.44-.14-.71-.43-1.06-.66s-.91-.39-1.31-.21"/>
    <path id="Path_580" data-name="Path 580" class="cls-21" d="m287.17,497.82c-.67-.25-1.51-.19-2.08.15-.09.05-.16.12-.19.2-.01.07,0,.14.04.21.09.29.29.56.57.8.3.23.79.31,1.22.2.06-.02.11-.05.14-.08.04-.06.06-.13.05-.2.07-.22.19-.43.36-.63.17-.2.11-.46-.15-.62"/>
    <path id="Path_581" data-name="Path 581" class="cls-21" d="m298.27,497.74c-.66.33-.91.9-.63,1.41.04.08.11.15.22.2.1.04.21.06.32.06.48.06.97.04,1.43-.04.47-.1.79-.38.8-.71,0-.04-.02-.09-.06-.13-.08-.05-.18-.09-.28-.11-.31-.13-.58-.3-.8-.5-.23-.2-.64-.26-.99-.16"/>
    <path id="Path_582" data-name="Path 582" class="cls-21" d="m292.28,494.49c-1,.5-1.39,1.37-.96,2.15.06.12.17.23.32.31.15.06.32.09.5.09.72.09,1.47.07,2.18-.07.72-.15,1.21-.59,1.21-1.08,0-.07-.04-.14-.09-.2-.12-.08-.26-.14-.42-.17-.47-.2-.88-.46-1.21-.75-.4-.26-1.04-.45-1.51-.24"/>
    <path id="Path_583" data-name="Path 583" class="cls-21" d="m298.47,493.29c-.66.33-.91.9-.63,1.41.04.08.11.15.22.2.1.04.21.06.32.06.48.06.97.04,1.43-.04.47-.1.79-.38.8-.71,0-.04-.02-.09-.06-.13-.08-.05-.18-.09-.28-.11-.31-.13-.58-.3-.8-.5-.23-.2-.64-.26-.99-.16"/>
    <path id="Path_584" data-name="Path 584" class="cls-21" d="m291.19,499.5c-.87.44-1.21,1.19-.83,1.87.05.11.15.2.28.27.13.05.28.08.43.08.63.08,1.28.06,1.9-.05.63-.13,1.05-.51,1.06-.94,0-.06-.03-.12-.08-.17-.1-.07-.23-.12-.37-.15-.44-.14-.71-.43-1.06-.66s-.91-.39-1.31-.21"/>
    <path id="Path_585" data-name="Path 585" class="cls-13" d="m268.18,485.37c-1.55,1.13-2.1,2.73-2.01,4.24s.78,2.99,1.46,4.44c.22.61.63,1.19,1.21,1.69.51.35,1.11.63,1.77.84,2.33.85,4.75,1.59,7.24,2.22,1.15.34,2.4.52,3.66.54,1.77-.1,3.4-.65,4.56-1.53,1.14-.88,2.09-1.86,2.81-2.91.47-.54.81-1.13,1-1.74.24-1.08-.42-2.15-1.08-3.16-1.75-2.64-3.98-5.81-8.69-6.31-3.74-.4-9.19-.31-11.91,1.68h0Z"/>
    <path id="Path_586" data-name="Path 586" class="cls-21" d="m272.83,485.74c-1.24.14-2.2.8-2.35,1.62-.03.13,0,.25.07.37.1.1.23.18.38.24.58.3,1.26.51,1.99.6.75.09,1.49-.15,1.84-.6.05-.06.06-.13.05-.2-.05-.11-.14-.2-.26-.28-.27-.32-.46-.67-.55-1.03-.17-.35-.61-.71-1.16-.67"/>
    <path id="Path_587" data-name="Path 587" class="cls-21" d="m280.22,485.15c-1.08.12-1.91.7-2.05,1.41-.03.11,0,.22.07.32.08.08.2.15.33.2.5.26,1.09.44,1.72.52.65.07,1.29-.14,1.6-.52.04-.05.05-.12.04-.17-.05-.09-.12-.18-.22-.25-.23-.28-.4-.59-.48-.9-.15-.31-.53-.62-1.01-.58"/>
    <path id="Path_588" data-name="Path 588" class="cls-21" d="m272.87,491.49c-.42-.43-1.22-.63-1.96-.49-.12.02-.22.06-.3.11-.06.06-.1.13-.11.2-.12.29-.14.59-.04.88.1.3.49.52.95.54.06,0,.13,0,.18-.03.08-.04.14-.1.18-.16.21-.18.47-.33.76-.45.26-.15.47-.4.3-.59"/>
    <path id="Path_589" data-name="Path 589" class="cls-21" d="m282.79,494.75c-.81.1-1.44.53-1.55,1.07-.02.08,0,.17.05.25.06.06.15.12.25.15.38.2.83.33,1.31.39.49.06.98-.1,1.21-.39.03-.04.04-.09.03-.13-.03-.07-.09-.14-.17-.19-.18-.21-.3-.44-.37-.68-.12-.23-.4-.47-.77-.44"/>
    <path id="Path_590" data-name="Path 590" class="cls-21" d="m279.74,490.06c-1.24.14-2.2.8-2.35,1.62-.03.13,0,.25.07.37.1.1.23.18.38.24.58.3,1.26.51,1.99.6.75.09,1.49-.15,1.84-.6.05-.06.06-.13.05-.2-.05-.11-.14-.2-.26-.28-.27-.32-.46-.67-.55-1.03-.17-.35-.61-.71-1.16-.67"/>
    <path id="Path_591" data-name="Path 591" class="cls-21" d="m286.08,490.86c-.81.1-1.44.53-1.55,1.07-.02.08,0,.17.05.25.06.06.15.12.25.15.38.2.83.33,1.31.39.49.06.98-.1,1.21-.39.03-.04.04-.09.03-.13-.03-.07-.09-.14-.17-.19-.18-.21-.3-.44-.37-.68-.12-.23-.4-.47-.77-.44"/>
    <path id="Path_592" data-name="Path 592" class="cls-21" d="m275.27,494.18c-1.08.12-1.91.7-2.05,1.41-.03.11,0,.22.07.32.08.08.2.15.33.2.5.26,1.09.44,1.72.52.65.07,1.29-.14,1.6-.52.04-.05.05-.12.04-.17-.05-.09-.12-.18-.22-.25-.23-.28-.4-.59-.48-.9-.15-.31-.53-.62-1.01-.58"/>
    <path class="cls-14" d="m123.4,488.76c2.85,10.73-5.51,23.96-1.57,34.21,2.8,7.27,18.59,11.6,25.66,15.33,20.06,10.57,39.28,21.85,59.44,32.44,19.23,10.1,37.96,20.56,57.84,28.58,18.79,7.58,34.7,21.43,52.49,30.86,9.08,4.81,17.93,10.61,26.99,15.35,6.84,3.58,15.79,13.77,23,14.86,2.84-7.59-.81-21.64-2.82-29.43-2.23-8.64-10.58-11.65-18.84-16.14-16.77-9.12-34.48-18.36-51.28-28.14-39.29-22.87-77.75-46.88-117.31-69.36-10.92-6.21-20.5-13.45-31.08-20.01-8.84-5.47-18.96-9.79-22.53-8.53Z"/>
    <path class="cls-14" d="m361.16,628.61c10.96-7.76,16.9-20.77,28.37-27.97,13.99-8.79,25.05-18.65,37.68-29.57,13.33-11.53,24.6-24.44,36.97-36.84,9.73-9.75,20.17-18.61,29.24-29.13,3.37-3.9,8.09-11.53,12.86-7.81,3.77,2.94,2.77,14.32,3.27,18.64,1.32,11.59,5.25,29.19.11,40.11-5.34,11.35-20.18,22.25-28.67,31.2-16.54,17.43-34.91,31.21-53.39,46.4-12.75,10.48-28.62,25.35-43.91,31.67-16.9,6.98-16.78-21.38-18.57-32.92-.62-3.99-1.08-7.92-3.96-3.79Z"/>
    <path class="cls-7" d="m367.38,654.25c-.19-.64-1.36-1.98-.19-.62,5.78,12.36,3.66,27.71,10.27,39.14,9.46-5.15,10.34-8.65,7.83-19.09-1.64-6.8-2.11-21.83-7.81-25.72-2.87,2.06-5.65,3.08-10.1,6.29Z"/>
    <path class="cls-7" d="m124.18,522.17c-5.9,5.67-.22,24.09-2.19,31.76,5.24-2.12,12.02-3.68,17.61-3.13-2-6.34-1.56-28.38-15.42-28.63Z"/>
    <path id="Path_596" data-name="Path 596" class="cls-1" d="m386.23,513.63c2.65-1.74,5.43-3.35,7.64-5.61,3.02-3.09,4.74-7.18,6.97-10.88,6.54-10.84,17.39-18.23,27.91-25.27.37-.31.82-.48,1.3-.5.48.1.91.35,1.22.72,14.99,14.37,28.62,30.08,40.72,46.95-2.82,6.01-6.8,11.41-11.7,15.89-5.08,4.63-11.15,8.27-15.37,13.71-2.17,2.8-3.81,6.04-6.33,8.54-2.65,2.62-6.08,4.24-9.19,6.29-11.47,7.6-18.05,20.82-28.91,29.28-.48.37-1.02.76-1.63.74-.6-.08-1.16-.36-1.58-.8-12.76-10.41-24.36-22.18-34.58-35.09-2.63-3.31-11.25-11.34-9.1-15.95.82-1.75,3.6-2.65,5.1-3.63,2.82-1.83,4.86-3.99,7.16-6.44,6.2-6.62,12.79-12.94,20.38-17.96h0Z"/>
    <path id="Path_597" data-name="Path 597" class="cls-4" d="m431.38,554.76c5.73.35,4.53-5.92,23.01-19.86,6.8-5.13,14.31-9.82,13.34-14.14-.34-1.5-1.57-2.38-2.17-2.84-7.81-5.88-8.14-13.25-18.27-25.34-7.12-8.5-12.87-15.37-19.69-14.71-2.89.28-6.01,3.47-12.13,9.84-17.68,18.41-22.56,23.72-20.8,27.15.61,1.19,1.78,1.68,2.31,1.93,14.45,6.62,21.76,37.19,34.4,37.96h.01Z"/>
    <path id="Path_598" data-name="Path 598" class="cls-4" d="m359.75,547.78c-.79-1.17-1.39-2.07-1.46-3.38-.38-6.22,11.65-6.96,21.59-18.77,1.94-2.3,4.5-4.58,9.61-9.14,1.67-1.49,3.95-3.48,6.14-2.91,1.57.4,2.41,1.92,2.67,2.36,3.42,5.8,12.38,8.63,23.99,20.02,6.85,6.71,10.27,10.07,10.29,14.5.02,4.19-3.39,7.71-10.21,14.56-20.05,20.13-22.22,22.17-26.03,21.85-3.07-.25-2.47-1.68-15.13-13.95-1.36-1.32-12.76-12.36-21.49-25.13h.02Z"/>
    <path id="Path_599" data-name="Path 599" class="cls-2" d="m455.06,519.37c-1.31,1.45-2.64,2.92-4.25,4.04-1.05.73-2.21,1.29-3.19,2.11-.82.74-1.57,1.55-2.24,2.43-3.22,3.94-6.72,7.65-10.48,11.08-.79.72-1.63,1.5-1.86,2.55"/>
    <path id="Path_600" data-name="Path 600" class="cls-2" d="m446.59,512.58c-.79,4.23-3.84,7.68-7.93,9-.77.24-1.59.4-2.24.88-.95.7-1.35,1.92-1.89,2.97-.98,1.88-2.55,3.39-4.47,4.29-1.8.84-4.26,1.59-4.34,3.58"/>
    <path id="Path_601" data-name="Path 601" class="cls-2" d="m439.17,506.81c-2.38,1.08-5.02,2.44-5.75,4.95-.14.49-.2,1.01-.38,1.49-.88,2.36-3.95,2.77-6.17,3.95-2.75,1.46-4.41,4.38-6.91,6.24"/>
    <path id="Path_602" data-name="Path 602" class="cls-2" d="m430.28,494.47c-2.87,2.73-6.17,4.96-9.77,6.62-1.87.87-3.99,1.73-4.87,3.59-.55,1.16-.52,2.54-1.09,3.69-1.36,2.77-5.34,3-7.44,5.27"/>
    <path id="Path_603" data-name="Path 603" class="cls-2" d="m432.77,501.23c-4.75,2.22-7.11,7.63-11.22,10.88-2.92,2.31-6.67,3.47-9.37,6.05-.6.58-1.18,1.33-1.06,2.15"/>
    <path id="Path_604" data-name="Path 604" class="cls-2" d="m422.08,550.68c-2.53,2.38-5.53,4.21-8.79,5.38-.84.23-1.62.6-2.33,1.11-1.17.97-1.49,2.59-2.12,3.97-1.44,3.19-4.55,5.22-7.44,7.19s-5.87,4.33-6.78,7.7"/>
    <path id="Path_605" data-name="Path 605" class="cls-2" d="m411.66,544.1c-2.75.9-3.53,4.63-6.06,6.03-1.49.82-3.41.74-4.74,1.79-.88.7-1.34,1.77-1.81,2.78-2.84,6.08-6.97,11.47-12.1,15.79"/>
    <path id="Path_606" data-name="Path 606" class="cls-2" d="m403.58,540.51c-2.61,1.64-5.35,3.42-6.72,6.19-.67,1.35-.97,2.88-1.77,4.16-1.67,2.66-5.02,3.63-7.43,5.63-1.81,1.5-3.06,3.57-4.02,5.71"/>
    <path id="Path_607" data-name="Path 607" class="cls-2" d="m397.62,533.28c-3.37,2.79-6.76,5.62-10.61,7.71-1.36.74-2.79,1.4-3.99,2.38-1.86,1.52-3.06,3.7-4.03,5.9-.71,1.59-1.48,3.39-3.1,4.03"/>
    <path id="Path_608" data-name="Path 608" class="cls-2" d="m388.99,527.8c-2.16,1.73-3.62,4.15-5.42,6.25-1.97,2.29-4.34,4.18-6.71,6.06-2.73,2.17-5.46,4.34-8.19,6.51"/>
    <path class="cls-11" d="m284.24,539.26c-12.28,11.43.14,27.01,12.85,31.76,5.44,2.03,14.72,1.82,20.1-1.55,3.81-2.38,3.15-6.46,5.7-8.65,2.87-2.47,5.87-.68,8.95-2.69,7.86-5.13,1.84-15.11-6.31-12,1.32-10.96-26.02-12.3-33.52-10.15-20.56,5.88,6.2,13.63,14.76,14.18,5.46.35,17.38-.52,19.42-6.23"/>
    <path class="cls-1" d="m315.33,424.64c-12.28,11.43.14,27.01,12.85,31.76,5.44,2.03,14.72,1.82,20.1-1.55,3.81-2.38,3.15-6.46,5.7-8.65,2.87-2.47,5.87-.68,8.95-2.69,7.86-5.13,1.84-15.11-6.31-12,1.32-10.96-26.02-12.3-33.52-10.15-20.56,5.88,6.2,13.63,14.76,14.18,5.46.35,17.38-.52,19.42-6.23"/>
    <path class="cls-7" d="m272.23,391.64c12.3,11.43-.14,27.01-12.87,31.76-5.45,2.03-14.75,1.82-20.14-1.55-3.82-2.38-3.16-6.46-5.71-8.65-2.88-2.47-5.88-.68-8.96-2.69-7.88-5.13-1.85-15.11,6.32-12-1.32-10.96,26.07-12.3,33.59-10.15,20.6,5.88-6.21,13.63-14.79,14.18-5.47.35-17.41-.52-19.46-6.23"/>
    <path class="cls-16" d="m325.42,426.6c-3.8-3.43-10.94,8.33,2.72,9.32,8.64.63,17.15.35,25.93-.12-1.09-8.34-20.75-12.94-26.32-10.76"/>
    <path class="cls-16" d="m300.56,540.81c-5.92.41-13.61-3.56-14.84,4.66,5.34,4.81,25.19,10.06,31.89,6,13.37-8.09-14.8-13.27-20.16-12.99"/>
    <path class="cls-16" d="m251.61,393.19c-8.89,1.01-25.68,5.67-8.16,9.3,11.81,2.45,18.72-2.29,29.79-2.43.19-7-18.04-12.53-23.19-8.43"/>
    <path class="cls-7" d="m518.89,505.07c-3.43,4.24-4.6,13.36-6.98,19.04-2.7,6.42-6.23,12.56-8.56,19-5.26,14.53-5.4,29.34-7.79,44.33-4.48,28.11-7.72,62.72,29.16,66.83,17.05,1.9,34.63-2.83,52.17-.72,10.06,1.21,13.45,5.53,17.56-5.31,2.38-6.27,1.69-13.39,3.31-20,7.33-29.87-1.82-52.5-18.66-78.09-8.17-12.42-35.6-61.26-54.78-45.88-3.09,2.48-5.58,7.65-5.44.81Z"/>
    <path class="cls-12" d="m496.69,698.87c-3.95,7.16-8.43,13.89-14.15,15.42-4.13,1.11-13.39-1.56-21.28-4.68-4.93-1.96-9.33-4.1-11.62-5.62,4.57-7.56,12.18-15.84,19.99-23.05,4.65-4.3,9.36-8.21,13.54-11.37,2.36,7.52,4.89,14.83,8.72,21.99,1.41,2.64,3.02,5.08,4.8,7.31Z"/>
    <path class="cls-7" d="m524.33,496.53c-19.77,11.15-32.69,29.76-52.83,40.21-5.49,2.85-8.52,6-11.66.19-2.19-4.05-1.53-11.3-2.94-15.71-.99-3.11-2.7-13.28-7.98-12.31-3.78.69-5.45,10.46-6.16,13.3-2.93,11.87-.29,24.32.79,36.48s2.81,21.97,17.05,20.98c9.5-.66,18.94-7.71,27.19-12.24,9.62-5.28,16.46-12.49,24.67-19.81s18.59-13.56,21-24.84c1.44-6.76-4.62-34.24-9.15-26.24Z"/>
    <path class="cls-12" d="m594.26,657.36c-4.47,19.49-12.81,30.77-22.53,41.95-20.45,23.5-56.62,22.77-75.04-.44-1.78-2.23-3.39-4.67-4.8-7.31-3.83-7.16-6.36-14.47-8.72-21.99-1.35-4.25-2.63-8.58-4.08-12.97-4.74-14.39-8.72-34.94-20.61-45.01-3.38,7.7.39,20.19,2.31,27.9,3.42,13.75,6,27.67,8.84,41.45-7.81,7.21-15.42,15.49-19.99,23.05,2.29,1.52,6.69,3.66,11.62,5.62-6.86,1.34-16.65,1.69-22.3-.33,2.93-8.66,1.28-24.63-.12-34.05-1.71-11.44-1.79-23.6-4.62-34.97-4.6-18.48-13.06-39.09-13.06-58.27,0-27.84,20.04-24.82,40.23-16.51,19.69,8.1,36.76,27.21,49.73,43.53,10.44,13.14,19.01,31.17,33.43,40.25,5.02-3.52,20.23-.12,25.94,1.17,7.96,1.8,15.71,5.28,23.77,6.93Z"/>
    <path class="cls-7" d="m448.96,701.65c-4.77.44-15.3-8.86-23.31-9.32-12.21-.71-15.45,7.89-6.2,16.36,6.42,5.87,44.52,16.92,46.53,7.41,1.98-9.37-12.91-15.2-17.03-14.44Z"/>
    <path class="cls-7" d="m465.27,712.53c-6.02,5.06-36.01-1.39-35.76,8.55.36,14.26,42.65,12.23,50.89,8.22,5.32-2.59,10.86-8.09,6.6-13.51-4.47-5.7-18.83-6.1-21.73-3.26Z"/>
    <path class="cls-24" d="m443.52,519.84c-1.39-5.91-6.51-13.6-12.41-17.29s-14.29-3.52-18.55-8.94c7.52-6.5,12.1-16.18,22.63-11.28,3.83,1.79,8.49,8.57,12.39,9.38,5.69,1.18,8.62-4.21,14.51-.63-3.18,6.16-15.57,15.9-6.91,23.32"/>
    <path class="cls-24" d="m510.34,456.9c-4.27,5.8-7,22.24-6.99,29.91,0,10.74,9.12,16.84,19.42,15.93"/>
    <path class="cls-20" d="m550.12,438.95c.52-4.37-13.63-7.7-12.47,1.51,1-.06,1.87-.16,2.91-.33-1.67,1.88-3.83,3.27,3.96,2-6.05-9.96-21.19,10.85-17.23,19.15-9.09-7.93-14.95,11.34-9.44,18.03-18.89-1.99,6.78,14.96,5.53,18.59-1.63,4.74-9.77,1.62-11.34,7.17-1.06,3.73,3.45,7.67,6.58,8.74-8.54,4.03-7.69,19.87,2.5,21.41-.11,0-1.23.21-2.12.29-1.51,6.53,4.34,13.3,9.94,15.95,12.87,6.09,6.16-2.57,10.48-6.76,9.15-8.9,14.26,13.55,22.04,3.21-2.34,4.21,9.68,9.7,11.07,1.73-1.68,2.2-1.97,4.74-.91,7.32,4.85,1.38,19.04-2.08,21.06.96-1.61,3.06-3.55,5.85-6.89,6.09-.02-4.57,26.65-13.12,13.25-21.54-7.28,7.37,12.37,13.22,13.05,3.01.35-5.19-6.39-7.01-7.73-12.04-1.07-4.03,6.24-28.09-6.91-23.04,2.21-4.97-8.21-10.9-11.39-14.65-6.08-7.16-2.94-7.73-.55-15.53,2.04-6.67.77-11.77-2.98-17.27-2.53-3.71-8.56-11.82-12.27-4.59,4.24-8.26,1.38-14.63-6.87-19.91-3.64-2.33-6.43-2.29-10.26-3.17-2.08-.48-4.02-.58-6.47-1.23-3.14-.84-5.13-3.14-8.77-2.79-5.27.5-11.54,9.63-5.36,9.25-5.2,1.33-14.61,6.89-9.11,13.21-1.6-2.59-7.81-5.25-11.17-3.77-7.04,3.1-2.18,7.78-2.72,12.43-.83,7.09-13.3,18.12,4.53,21.85-.28,5.31,2.24,19.82,9.46,17.74"/>
    <g>
      <path id="Path_463" data-name="Path 463" class="cls-3" d="m194.57,316.32c-15.74,5.97-27.23,10.48-30.33,11.8-2.42,1.03-4.58,2.12-4.58,2.12-2.05,1.03-3.48,1.87-3.65,1.98-2.1,1.21-10.64,3.59-36.07,8.54-1.5-16.12-6.57-28-10.9-35.85-5.82-10.54-12.41-17.61-9.66-21.66,2.43-3.58,9.37-.7,21.98-3.05,2.05-.38,4.77-1,16.87-5.94,24.59-10.05,28.85-13.83,33.46-11.38,4.71,2.51,4.42,8.67,7.4,19.7,3.15,11.58,8.39,22.98,15.49,33.73Z"/>
      <path id="Path_464" data-name="Path 464" class="cls-1" d="m93.97,279.15c7.59-.24,15.06-.97,22.33-2.17,11.9-1.98,13.85-3.75,14.73-5.14.39-.61,1.24-2.22,3.3-2.85,2.37-.72,4.95.27,5.63.49,8.72,2.88,25.85-13.94,34.45-10.14,4.79,2.11,4.45,9.52,8.51,23.7,2.83,9.91,6.82,19.71,11.9,29.25-3.61,2.85-10.33,7.72-18.86,11.31-6.9,2.91-10.35,4.36-13.86,3.61-.88-.19-3.11-.78-4.84.11-1.67.86-1.95,2.61-2.17,3.33-1.14,3.8-8.23,4.93-19.37,5.88-13.26,1.12-19.9,1.71-22.1.28-6.32-4.07-5.45-12.06-8.63-26.47-2.34-10.52-6.04-20.99-11.01-31.2Z"/>
      <path id="Path_465" data-name="Path 465" class="cls-23" d="m150.96,332.97c-3.63-10.55-7.83-21.03-12.58-31.41,0,0-11.83-25.79-7.59-31.28.39-.49.91-.88,1.51-1.17,1.68-.65,3.78-.47,5.63.49,2.77,1.48,3.71,4.71,4.12,6.04,1.96,6.41,5.96,12.56,7.87,18.97,5.2,17.43,15.24,31.73,12.64,32.79-.89.36-2.7-1.05-5.63-.49-.81.1-1.55.38-2.15.81-1.2.93-.94,2.06-2.03,3.57-.48.66-1.08,1.22-1.8,1.68Z"/>
    </g>
    <path class="cls-22" d="m105.69,192.59c-1.42,0-4.97-.78-4.46,1.53,2.59.86,9.4,2.3,8.58-2.54-1.13-.36-3.87-.23-4.98-.03"/>
  </g>
</svg>