<?xml version="1.0" encoding="UTF-8"?>
<svg id="Layer_2" data-name="Layer 2" xmlns="http://www.w3.org/2000/svg" viewBox="0 0 455.74 539.47">
  <defs>
    <style>
      .cls-1 {
        fill: #6d5639;
      }

      .cls-2 {
        fill: #f9dc5c;
      }

      .cls-3 {
        fill: none;
        stroke: #2a3c24;
        stroke-miterlimit: 10;
        stroke-width: .25px;
      }

      .cls-4 {
        fill: #2a3c24;
      }

      .cls-5 {
        fill: #ead3b5;
      }

      .cls-6 {
        fill: #fcf4d4;
      }

      .cls-7 {
        fill: #edd364;
      }
    </style>
  </defs>
  <g id="Layer_1-2" data-name="Layer 1">
    <g>
      <path class="cls-4" d="m293.35,346.89c1.55.29,3.13,2.58,4.44,3.42.99.64,2.37.92,3.44,1.59,1.49.94,2.89,2.01,4.3,3.03,3.01,2.17,5,5.38,8.23,7.28,1.04.61,2.12,1.13,3.13,1.8,2.04,1.35,3.66,3.15,5.83,4.19s4.36,2.58,6.48,3.78,4.41,2.26,6.77,3.19,4.62,1.84,6.64,3.44c.84.67,1.45,1.54,2.29,2.15,1.08.78,2.4,1.3,3.46,2.13,1.58,1.23,3.1,2.86,5.16,3.26,2.5.48,3.61-1.85,4.82-3.6.83-1.21,1.87-2.42,2.9-3.46.94-.95,2.2-1.73,3.06-2.83,2.05-2.61,4.15-5.37,6.43-7.72,1.54-1.59,3.18-3.46,4.55-5.18,1.75-2.2,3.79-4.14,5.28-6.47,1.24-1.93,2.87-3.98,4.46-5.55.87-.87,2.03-1.61,2.91-2.47.98-.96,1.7-2.36,2.58-3.42,1.67-2.03,2.63-4.18,4.01-6.45,1.6-2.64,3.94-4.67,5.73-7.16.81-1.13,1.9-2.47,2.86-3.42.36-.36.92-.45,1.3-.84.65-.67.74-1.55,1.39-2.22,1.62-1.68,3.53-3.34,5.04-5.14,1.59-1.9,3.18-3.81,4.82-5.75s3.42-3.32,5.22-5c1.68-1.58,3.32-3.18,4.87-4.87s3.18-3.71,5.14-5c2.09-1.38,3.88-2.68,5.57-4.49,1.28-1.37,2.55-2.17,3.96-3.19,1.58-1.14,2.59-3.25,3.92-4.67,1.62-1.73,3.02-3.63,4.66-5.36,1.44-1.53,2.91-2.17,4.46-3.47,2.12-1.78,3.41-3.25.95-5.14-1.72-1.32-4.43-2.1-6.34-3.06-2.2-1.11-4.48-1.22-6.77-2.04-4.35-1.57-8.55-3.04-12.5-5.28-4.1-2.33-8.32-4.53-12.24-6.97-1.94-1.2-3.71-2.48-5.71-3.62-2.42-1.37-5.24-2.04-7.88-3.01s-4.7-2.62-6.83-4.44c-1.6-1.37-3.92-2.41-6.1-1.88-.47.11-.72.73-1.13.72-.57-.01-.74-.44-1.15-.53-1.17-.26-1.68-.34-2.71-.87-1.76-.9-2.75-1.91-4.27-3.22-1.89-1.62-3.77-3.26-5.72-4.81-2.58-2.06-4.42-4.74-6.64-6.98-3.92-3.97-7.37-8.46-12.18-11.34-.66-.4-1.29-.38-1.99-.84-.51-.33-.97-.96-1.47-1.33-.67-.49-1.53-1.1-2.27-1.4-2.4-.95-4.64-2.01-7.04-3.04-4.12-1.77-7.61-4.39-11.43-6.99-1.77-1.21-3.52-2.43-5.21-3.56-.92-.61-1.56-1.33-2.67-1.82-1.36-.6-2.48-.32-3.88-.58-.99-.18-1.18-.77-2.41-.49-.84.19-2.14,1.01-3.02,1.45-2.3,1.15-3.46,2.31-5.17,4.12-3.28,3.47-5.78,7.83-8.98,11.5-1.86,2.14-4.1,4.17-5.95,6.42-1.67,2.05-3.55,3.26-5.52,5-1.54,1.36-2.78,3.03-4.2,4.57-1.59,1.71-2.79,3.85-4.4,5.65-1.34,1.51-3.01,2.67-4.34,4.12s-2.71,2.83-4.08,4.28c-1.71,1.82-3.37,3.53-5.23,5.21-1.68,1.51-2.52,3.69-4.42,5-1.46,1-2.71,2.21-4.05,3.32-.5.41-.57.26-1,.79-.19.23-.47.88-.61,1.18-.42.91-.78,1.8-1.33,2.62-2.53,3.8-6.43,7.21-9.9,10.13s-6.44,6.41-9.5,9.75c-1.2,1.3-2.32,2.56-3.72,3.56s-3,2.37-4.12,3.72c-1.37,1.67-2.48,3.69-.71,5.41.81.79,1.69,1.04,2.69,1.6,1.44.81,2.95,1.87,4.28,2.85,4.6,3.4,7.69,7.96,11.87,11.87,3.48,3.26,7.7,4.85,11.35,7.79,1.31,1.06,2.13,2.02,3.27,3.14,1.92,1.87,4.95,2.82,7.04,4.46s4.52,2.89,6.9,4.3c4.05,2.4,7.09,6.2,10.97,8.79,1.76,1.18,4.04.92,5.79,2.11,1.59,1.08,2.51,2.77,1.58,6.29Z"/>
      <path class="cls-6" d="m300.51,334c-.54,2.08,2.64,4.91,3.93,6.06,2.2,1.96,4.09,4.07,6.44,5.84,4.26,3.22,9.24,5.48,13.97,7.98,2.36,1.25,4.51,2.71,6.66,4.29,1.69,1.24,3.67,1.98,5.5,3.03,2.41,1.38,4.71,3.18,7.22,4.49,1.58.83,3.26,3.74,4.84,4.05.64-3.14,2.57-4.68,4.81-6.71,1.38-1.24,2.65-2.65,3.75-4.13s2.59-2.88,3.62-4.3c1.17-1.61,1.9-3.04,3.38-4.5s2.66-3.08,4.3-4.36c.81-.63,1.14-1.41,1.79-2.12s1.35-1.05,1.99-1.73c1.32-1.37,2.46-3.45,3.56-5.05,4.42-6.43,8.46-12.99,13.81-18.47,2.17-2.22,3.74-4.87,5.69-7.31,2.09-2.62,3.64-5.54,6.03-7.92,4.06-4.03,8.48-7.9,11.9-12.58,1.47-2.02,3.04-3.69,4.84-5.49,2.1-2.1,4.29-3.45,6.65-5.19.95-.7,1.8-1.28,2.8-1.95,1.48-1,2.44-2.14,3.76-3.24.88-.73,2.96-1.13,2.7-2.61-.19-1.05-2.36-2.17-3.13-2.6-2.36-1.33-4.91-3.02-7.07-4.83s-4.6-2.99-6.95-4.3c-1.63-.91-3.33-1.15-5.01-1.79-1.85-.7-3.56-1.61-5.4-2.35-2.86-1.16-4.81-2.56-7.15-4.64-2.09-1.86-5.96-3.5-8.6-3.59-1.81-.06-2.9-.75-4.67-.7-1.24.03-4.54.19-5.21,1.3-1.37-.2-1.24-1.97-1.76-2.94-.39-.73-.75-1.06-1.09-1.93-.26-.67-.46-1.34-.72-2.01-1.09-2.78-2.99-4.9-5.02-7.13-2.14-2.35-3.88-4.59-6.23-6.47-2.7-2.16-5.42-4.24-8.11-6.44s-4.94-4.28-7.86-5.73c-1.31-.65-2.63-1.17-3.96-1.81-1.18-.57-2.5-.77-3.74-1.4-5.16-2.6-9.67-6.23-14.85-8.32-.56.82-1.35.49-2.19.75-.52.16-1.29.77-1.79,1.07-1.14.68-2.47,1.4-3.58,2.15-2.97,2.01-6.26,3.08-9.08,5.37-.89.72-1.95,1.17-2.74,1.97-.62.63-1.09,1.53-1.77,2.17-1.52,1.43-2.81,2.99-4.48,4.3-2.96,2.33-5.63,5.12-8.57,7.58-3.12,2.61-5.46,6.19-7.99,9.24-1.99,2.4-4.5,4.55-6,7.18-1.6,2.82-3.91,5.32-6.27,7.7-2.88,2.91-6.61,4.89-8.77,8.42-1.04,1.7-2.55,3.04-3.58,4.72-1.14,1.85-2.27,3.52-3.76,5.13-2.11,2.28-4.57,3.99-6.81,6.09-1.09,1.03-2.01,2.19-3.05,3.25-.94.95-2.26,1.72-3.06,2.83-.9,1.23-1.53,2.62-2.83,3.62-.93.72-4.46,1.32-1.84,2.88.77.46,1.86.03,2.72.29.92.27,2.02.9,2.9,1.29,1.59.7,3.42,1.36,5.01,2.15,3.2,1.59,6.82,2.72,9.96,4.48,3.71,2.08,8.35,3.76,11.8,6.27,2.47,1.79,4.58,4.07,7.15,5.73,1.79,1.16,2.86,2.91,4.42,4.28,1.43,1.25,2.89,2.25,4.25,3.6,2.46,2.46,4.61,4.97,6.81,7.53,1.01,1.18,2.22,2.41,3.3,3.5,1.28,1.28,2.08,2.3,3.14,3.67.97,1.26,1.85,2.41,2.79,3.65.5.66.67,1.24,1.34,1.89.53.51,1.41,1.13,1.52,1.81-.42.1-.84.21-1.25.34-.05.29.06.47.32.56-.41.14-.8.23-1.2.4.02-.14.04-.28-4.24-8.3Z"/>
      <path class="cls-3" d="m324.15,221.52l.16-.63c1.34.6,2.71,1.22,3.97,2.09s2.35,1.92,3.76,2.85c1.64,1.07,2.88,2.89,4.28,4.3,1.73,1.74,3.74,3.43,5.72,4.86,1.64,1.18,2.7,2.45,4.31,3.7,1.96,1.54,2.88,3.66,4.3,5.61s2.55,3.72,3.6,5.77c.23.44.58,1,.86,1.56.36.72.7,1.33,1.31,1.86l-.04-.43"/>
      <path class="cls-3" d="m379.32,256.62c.04-1.44,2.13-.18,2.85.16,1.5.71,2.93,1.56,4.48,2.17,4.12,1.63,8.59,3.86,11.72,6.98,1.67,1.67,3.94,2.86,5.85,4.3,2.01,1.51,3.44,3.49,5.35,5.03,1.7,1.36,3.19,2.94,4.87,4.32.97.79,1.88,1.91,2.96,2.52-.21-.24-.49-.38-.82-.41"/>
      <path class="cls-3" d="m372.87,263.07c1.94.65,4.43,2.05,6.29,3.03,1.46.77,2.86,1.84,4.28,2.7,2.06,1.25,4.56,1.97,6.5,3.28,1.8,1.21,3.25,2.92,5.07,4.18,1.6,1.11,2.93,2.31,4.39,3.58,1.04.91,2.11,1.76,3.2,2.57.89.67,2.07,2.11,3.23,2.15"/>
      <path class="cls-3" d="m361.41,268.09c.18,1.34,5.39,3.45,6.61,4.12,3.73,2.07,8.15,4.03,11.46,6.78,3.66,3.06,8.02,5.23,11.61,8.38,1.24,1.09,2.52,2.03,3.58,3.31.5.61,1.69,1.73,1.85,2.48"/>
      <path class="cls-3" d="m355.68,275.97c-.41,0-.81,0-1.22,0,2.81-.37,4.92,2.24,7.09,3.58,4.47,2.74,9.38,4.67,13.48,8.04,3.69,3.03,7.1,6.39,10.74,9.46,1.41,1.18,2.98,1.98,4.31,3.28.75.73,2.65,1.88,2.85,2.87"/>
      <path class="cls-3" d="m384.33,306.77c-1.65-.48-2.98-3.82-4.26-5.04s-2.52-2.14-3.74-3.35c-1.73-1.71-3.73-3.16-5.61-4.69-2.1-1.71-3.9-3.34-6.29-4.69-1.88-1.07-3.86-1.93-5.73-3.01-1.5-.87-2.93-1.9-4.48-2.7-.82-.43-2.58-1.66-3.46-1.53l-.11.65c-.14-.01-3.87,4.27-4.01,4.26,1.57,1.74,4.31,3.11,6.31,4.32,4.3,2.6,8.01,5.64,12.04,8.61s7.82,5.84,11.41,8.96c1.55,1.35,7.85-4.08,7.94-1.8Z"/>
      <path class="cls-3" d="m340.63,293.16l-.65-.43c1.45,1.98,4.22,3.53,6.33,4.87,4.7,3,9.76,5.79,14.2,9.15,4.02,3.04,8.54,5.73,12.24,9.17,1.44,1.34,4.48,3.34,5.14,5.18"/>
      <path class="cls-3" d="m335.62,298.89c-.34-.03-.61-.16-.82-.41.8.56,1.45,1.23,2.21,1.83,1.6,1.28,3.44,2.01,5.21,3.03,4.69,2.69,8.86,6.01,13.32,9.03,3.28,2.21,6.53,4.69,9.33,7.5,1.09,1.1,1.77,2.27,3.01,3.22.74.57,1.29.83,1.85,1.65l-.43-.06"/>
      <path class="cls-3" d="m333.47,304.62c-.41,0-.81-.01-1.22-.03,2.33,1.02,4.12,2.66,6.17,4.14,2.16,1.56,4.61,2.48,6.89,3.83,2.42,1.44,4.51,3.32,6.8,4.96,3.66,2.62,6.42,6.11,10.02,8.79,2.45,1.82,5.02,3.35,7.16,5.54"/>
      <path class="cls-3" d="m330.6,310.36c-.48-.11-.94-.06-1.38.15.08.61,1.88,1.87,2.48,2.35,2.15,1.72,4.85,3.21,7.16,4.72,6.1,3.99,12.83,7.2,18.24,12.12"/>
      <path class="cls-3" d="m324.15,316.09c-.44-.15-.85-.1-1.21.15,5.74,4.48,12.33,7.94,18.41,12.03,3.63,2.44,7.26,4.75,10.78,7.36,1.76,1.31,6.8,4.46,6.41,6.97"/>
      <path class="cls-3" d="m324.15,323.97c-.79.03-1.66.21-2.25-.41,1.04.95,2.39,1.14,3.62,1.76,3.34,1.7,6.08,4.56,9.42,6.37,5.87,3.2,11.41,7.93,16.44,12.34"/>
      <path class="cls-3" d="m316.27,326.83c-.05,2.03,3.56,3.89,4.96,4.63,4.17,2.21,8.35,4.66,12.09,7.55,3.3,2.54,6.28,5.37,10.05,7.2,1.3.63,2.46,1.4,3.7,2.13,1.34.79,3.1,1.19,4.3,2.13"/>
      <path class="cls-3" d="m312.69,331.85c-.86-.23-2.13.43-2.23,1.4-.17,1.71,3.43,3.8,4.48,4.48,6.92,4.45,13.85,8.89,20.68,13.47"/>
      <path class="cls-3" d="m314.12,217.22c-2.6.3,2.34,4.5,2.96,5.12,3.92,3.98,8.27,7.55,12.25,11.52,4.13,4.11,8.25,8.35,12.05,12.75,1.39,1.61,2.77,3.24,4.14,4.85.69.81.99,2,2.04,2.4-.43-.23-.83-.5-1.2-.82"/>
      <path class="cls-3" d="m310.54,224.39c-.15-.85-1.93-2.15-2.81-2.06.3,1.15,3.22,3.2,4.19,4.16,2.85,2.84,5.36,5.95,8.26,8.73,3.41,3.27,7.02,6.34,10.27,9.77,2.61,2.75,4.47,6.27,7.31,8.78"/>
      <path class="cls-3" d="m307.68,234.42c-.76,0-1.35-.07-2.09.11-.39,1.87,5.25,5.32,6.34,6.29,4.13,3.64,8.33,7.19,12.55,10.73,3.15,2.65,5.74,6.02,9,8.51,2.1,1.6,3.85,3.29,5.72,5.16"/>
      <path class="cls-3" d="m297.65,235.85c-1.63.21-.36,1.89.36,2.5,1.99,1.69,4.64,3.04,6.76,4.61,2.89,2.14,5.91,4.31,8.65,6.64,1.85,1.57,3.48,3.36,5.41,4.84,1.58,1.21,3.14,2.27,4.62,3.62"/>
      <path class="cls-3" d="m296.21,243.01c-3.32-.01-2.09,1.27-.26,2.97,3.87,3.6,8.01,6.89,12.08,10.27,4.68,3.89,9.33,7.77,14,11.67,1.82,1.52,3.82,2.88,5.59,4.46s2.69,3.54,4.41,5.02"/>
      <path class="cls-3" d="m289.77,246.59c-.46-.27-.87-.47-1.34-.65-.4,1.36,1.92,2.3,2.71,2.9,2.45,1.9,4.59,3.9,7.21,5.61,5.16,3.35,9.62,7.47,14.21,11.52,2.9,2.56,5.67,5.99,8.04,9.09,1.02,1.33,1.66,2.19,2.87,3.24.55.48,1.14,1.14,1.31,1.79l-.63.16"/>
      <path class="cls-3" d="m285.47,253.76l-.51.12c1.14,1.29,3.12,2.34,4.56,3.25,2.5,1.57,4.96,3.11,7.37,4.82,5.94,4.23,11.38,8.83,16.51,14.01"/>
      <path class="cls-3" d="m281.17,258.77c.86,2.14,3.79,3.69,5.65,4.95,4.74,3.2,9.05,7.03,13.64,10.42,3.82,2.82,7.94,5.15,11.37,8.47,2.67,2.58,5.39,5.07,8.03,7.68"/>
      <path class="cls-3" d="m278.3,265.22c-.47-.12-.93-.08-1.37.11-.44,1.72,3.97,3.59,5.07,4.3,1.99,1.29,3.76,2.83,5.57,4.35,2.63,2.22,5.49,3.93,8.29,5.91,4.6,3.25,9.09,6.72,13.29,10.49,3.13,2.82,5.44,6.5,8.57,9.23"/>
      <path class="cls-3" d="m269.71,267.37c-.63,0-1.26,0-1.9-.03,1.84,1.44,3.41,3.01,5.41,4.3,5.06,3.25,9.91,6.77,14.69,10.42,4.39,3.35,8.57,6.99,12.99,10.32,3.78,2.85,6.78,6.29,10.36,9.38"/>
      <path class="cls-3" d="m265.41,281.7l-.51.11c2.57,2.57,5.55,4.41,8.52,6.47,5.12,3.55,10.08,7.43,14.94,11.32,3.24,2.59,6.02,5.7,9.28,8.28,2.49,1.97,8.3-.97,10.75,1.05-2.15-3.8-6.03-5.29-9.28-8.01-3.85-3.22-7.6-6.56-11.48-9.74-4.64-3.81-9.67-7.01-14.71-10.23-1.65-1.05-6.69-3.86-6.77-6.33.46-.18.93-.2,1.41-.07"/>
      <path class="cls-3" d="m253.95,281.7c-.44-.15-.85-.11-1.23.11.86,1.58,3.43,2.76,4.84,3.86,3.66,2.86,7.58,5.5,11.07,8.56s7.46,5.7,11.29,8.43c4.11,2.92,7.96,6.13,12,9.13"/>
      <path class="cls-3" d="m334.18,214.36c.54,1.92,5.03,3.91,6.43,4.98,4.02,3.07,7.81,6.47,11.15,10.28,1.17,1.34,2.7,2.8,3.74,4.24,1.11,1.52,1.81,3.01,3.19,4.32,2.78,2.63,5.55,6.01,7.72,9.14"/>
      <path class="cls-2" d="m57.63,519.25c-1.96-2.98-2.62-7.82-3.57-10.44s-2.08-5.23-3.03-7.88c-.54-1.5-1.65-2.74-2.01-4.3-.33-1.45-.61-2.88-1.22-4.3-2.26-5.23-4.62-10.22-5.95-15.76-.74-3.06-1.62-6.33-2.11-9.46-.57-3.66-1.97-6.91-2.14-10.6-.13-2.83-1.44-5.58-1.48-8.44s-.87-5.83-1.59-8.6c-.81-3.12-1.74-6.25-2.69-9.31s-1.08-6.42-2.15-9.47-.97-6.31-2.15-9.31c-.48-1.22-.56-2.34-.87-3.59-.36-1.44-.38-2.81-.72-4.3-.42-1.86-.75-3.68-1.11-5.57-.22-1.14,0-2.27-.22-3.38-.26-1.33-.67-2.15-.65-3.58.01-1.2.09-2.45.03-3.64-.09-1.69-.78-3.04-.74-4.75s-.36-2.59-.74-4.12c-.66-2.68-1.14-5.23-1.95-7.9-1.83-6.01-4.79-11.75-6.82-17.75-2.19-6.47-4.39-12.87-6.07-19.52-.87-3.43-1.67-6.76-2.35-10.17-.37-1.85-.51-3.85-.87-5.75-.39-2.06-.36-4.05-.7-6.11-.62-3.7-1.37-7.41-1.97-11.08-.32-1.95-.77-3.55-.74-5.56.03-2.12-.51-3.85-.75-5.91-.84-6.99.25-14.56,1.45-21.31.54-3.05,1.06-6.45,2.17-9.32,1.02-2.62,1.31-5.38,2.33-8.06,1.32-3.46,2.47-6.71,4.32-9.87,1.15-1.96,2.83-3.79,4.26-5.68.94-1.24,1.49-2.74,2.43-3.92.8-1,1.76-1.74,2.45-2.93,1.18-2.07,2.52-3.21,4.24-4.82,1.35-1.26,2.73-2.45,4.18-3.6.69-.54.91-.91,1.73-1.42.71-.44,1.34-.84,2.04-1.29,2.65-1.71,4.54-4.41,7.13-6.27,2.09-1.5,3.93-3.29,5.88-4.95.92-.79,1.98-1.47,2.79-2.38.75-.84,1.19-1.94,2.03-2.7,3.34-3,6.42-6.26,10.49-8.54,2.78-1.56,5.82-2.57,8.62-4.1,3.95-2.16,7.78-5.23,10.58-8.76,2.14-2.7,3.72-5.78,5.27-8.84,1.27-2.51,3.24-5.46,3.07-8.39-.03.4-.03.81-.02,1.22,3.64-.07,9.5,2.35,12.9,3.41,3.88,1.21,7.66,2.63,11.5,3.93s7.58,2.13,11.6,2.53,7.87,1.16,11.86,1.98c6.37,1.29,12.84,1.64,19.08,3.58,1.68.52,3.07,1.31,4.67,1.97,2.98,1.22,6.32,1.34,9.35,2.11,5.2,1.32,10.56,2.01,15.76,3.6,2.07.63,3.76,1.87,5.69,2.69,2.32.99,3.27,2.01,4.5,4.12s2.62,4.84,2.73,7.34c.12,2.75,1.54,5.35,2.65,7.88.9,2.07,1.93,3.94,2.89,5.91.55,1.14.82,1.25,1.61,2.11,1.11,1.19,1.85,2.83,3.02,4,1.87,1.87,4.38,3.72,6.31,5.35,2.42,2.04,4.94,3.9,7.63,5.72,1.4.94,2.75,1.55,4.23,2.27,2.25,1.09,4.22,2.59,6.44,3.72,1.83.94,3.71,2.11,5.47,3,2.41,1.22,5.06,1.94,7.37,3.35,5.04,3.07,8.91,8.28,11.64,13.27,2.56,4.68,3.05,9.75,3.05,15.06,0,2.89-.16,4.72-1.61,7.14-1.24,2.07-3.24,2.59-4.66,4.46-1.52,2-2.84,4.33-4.64,6.15-2.05,2.07-5.12,3.07-7.16,5.14-2.33,2.36-4.07,5.37-6.15,7.95-1.73,2.16-3.64,4.17-5.31,6.37-1.8,2.37-2.76,5.06-3.45,7.92-.28,1.15-.65,2.37-.71,3.58-.08,1.66-.39,2.73-.74,4.3-.55,2.53.03,5.95.04,8.59,0,2.89.39,5.75.88,8.56.3,1.72.87,3.33,1.29,5.01.35,1.39.33,2.91.86,4.33,1.02,2.78,2.85,5.29,3.96,8.04,2.19,5.45,4.59,10.64,5.93,16.32s3.43,11.43,4.99,17.19c.85,3.15,1.79,6.27,2.87,9.33.44,1.25,1.09,2.35,1.63,3.57.72,1.64.98,3.39,1.78,5.03,2.52,5.21,5.38,10.34,7.34,15.74s4.76,10.6,7.34,15.76,5.06,10.08,7.53,15.04c2.2,4.44,4.4,9.14,5.91,13.61,1.6,4.74,3.28,10.02,4.46,15.04.33,1.42.91,2.9,1.25,4.3.29,1.22.59,2.37.89,3.58.61,2.47,1.14,4.64,1.26,7.16.05.93.36,1.3.57,2.15.2.78,0,1.39.12,2.15.18,1.13.63,2.32.91,3.42.14.54.48.84.58,1.58.06.43-.01,1.03-.02,1.45,0,1.36.26,2.96.03,4.3-.41,2.46-2.27,3.82-3.8,5.54-1.52,1.71-3.16,4-5.51,4.53-.66.15-1.51-.09-2.19-.05-.93.05-1.3.35-2.15.57-1.16.3-2.38.16-3.58.16-2.63,0-5.25,0-7.88,0s-5.29.1-7.88-.56-5.2-.87-7.88-.88c-1.43,0-2.87-.02-4.3,0s-2.25-.47-3.58-.75c-1.11-.23-2.3.12-3.42-.12-.49-.11-.89-.48-1.58-.57s-1.47.01-2.17.02c-2.35,0-5.64-.59-7.92-.04-1.17.28-1.46.78-2.83.75-.62-.01-1.59-.18-2.18-.03s-.76.65-1.36.79c-2.16.52-5.67.1-7.92-.02-1.3-.07-2.28-.68-3.58-.75s-2.85-.1-4.14.18c-.49.11-.89.48-1.58.57s-1.46-.08-2.17-.03c-1.47.1-2.61.71-4.14.75-1.24.04-2.51-.12-3.74-.03-1.73.12-3.21.75-5.01.73-3.44-.04-6.47.78-9.87.72-1.66-.03-2.88.56-4.48.75-1.65.2-3.48-.04-5.15-.04h-9.85c-3.12,0-6.85-.59-9.89-.04-2.82.51-6.51,1.47-9.51.79-1.59-.36-2.6-.77-4.3-.75s-2.75-.17-4.24-.56c-1.64-.43-3.41.23-5.03-.12-1.32-.29-2.17-.72-3.57-.75s-3,.29-4.33.03c-.78-.15-1.32-.63-2.1-.79-.96-.2-1.95.14-2.94-.12-1.58-.42-3.16-.8-4.82-1.11-1.25-.24-2.53.1-3.74-.12-1.56-.29-2.71-.62-4.33-.73-1.52-.11-2.68-.76-4.26-.73-1.7.03-2.71-.48-4.3-.76-1.13-.2-2.43.12-3.58.05-1.3-.07-2.28-.68-3.58-.75-4.17-.23-8.04-1.02-12.25-.63-1.14.11-2.26.28-3.39.44-1.64.23-3.49.62-5.11.13-1.21-.37-2.15-1.24-2.9-2.37Z"/>
      <path class="cls-5" d="m330.9,403.06c.2.77-.12,1.46-.75,1.9.08-1.34.05-2.7.04-4.04-.01-1.6.33-2.2.74-3.55.77-2.55,1.53-5.46,3.03-7.76s2.93-4.58,4.69-6.64c1.56-1.83,3.99-2.71,5.35-4.78,1.25-1.9,2.23-4.43,2.67-6.66.26-1.33.73-2.1.71-3.57-.02-1.39-.19-2.95-.01-4.31s.77-2.05.73-3.57c-.04-1.41.49-1.71.75-2.83.17-.7-.24-1.52-.07-2.22.15-.65.64-.71.79-1.36s-.06-1.34.12-2.03c.08-.32.56-1.15.73-1.58.97-2.41,1.39-4.79,3.23-6.64,1.62-1.63,3.97-2.23,5.91-3.41,1.81-1.09,3.63-2.89,5.01-4.47.6-.68,1.49-1.37,1.99-2.12.82-1.21.88-2.76,1.77-3.96,1.35-1.81,2.85-3.31,4.29-5.02,1.63-1.93,2.75-4.48,4.84-5.92,1.98-1.37,3.68-2.89,5.75-4.12,1.77-1.06,3.95-2.55,5.87-2.88,4.39-.76,3.19,4.33,2.54,7-.39,1.61-1.11,3.49-1.79,5.01-.57,1.29-.89,2.6-1.44,3.74-2.39,4.98-6.92,8.3-7.41,13.92.73-.86,1.89-1.28,2.74-2.08.69-.64,1.38-1.31,2.05-1.95,1.77-1.7,2.97-3.96,4.76-5.64,3.18,1.26,5.75,4.86,7.88,7.58,2.52,3.21,4.97,6.69,6.98,10.23.45.79.82,1.6,1.08,2.5.31,1.05.11,1.87.32,2.9s.62,1.42.76,2.46c.15,1.14-.02,2.45-.02,3.6,0,1.73.44,4.12.04,5.77-.2.83-.67,1.14-.77,2.09-.15,1.43-.19,1.66-.72,2.86-.66,1.49-.35,3.12-1.76,4.33-1.31,1.12-3.15,2.04-4.64,3.04-3.12,2.08-6.28,3.21-9.19,5.75-1.25,1.09-2.72,1.61-3.88,2.62-1.52,1.3-2.89,3.42-3.96,5.09-2.06,3.18-4.49,5.92-6.07,9.29s-4.09,6.83-6.29,10.03c-.81,1.18-5.81,10.7-3.58,10.75-1.23.28-2.07.35-2.17,1.41-.04.47.16,1.02.06,1.49-.13.58-.55.6-.69,1.1-.26.98.03,2.56-1.8,1.7-.9-.42-1.18-1.98-1.65-2.84-2.02-3.66-5.99-7.01-9.5-8.94-1.86-1.02-3.19-2.7-5.02-3.8s-3.68-1.82-5.43-3.03c-1.89-1.29-3.96-1.81-6.03-2.31-2.23-.53-1.69-2.76-3.58-4.14Z"/>
      <path class="cls-7" d="m262.14,263.23c-4.21,2.57-9.18,4.66-13.89,6.1-.01,0-.02,0-.03.01-2.84.87-5.48,1.98-7.88,3.74s-4.69,3.94-7.16,5.73-5.55,5.03-7.2,7.74c-2.13,3.51-4.88,6.48-6.63,10.15-.56,1.17-.93,3.06-1.24,4.34-.34,1.42-.65,2.79-.69,4.28-.1,3.63-.06,7.29-.02,10.92.03,2.41.68,4.57.71,7.01.03,2.16.82,3.82,1.29,5.91,1.02,4.48,1.62,9.12,2.47,13.61s2.6,8.2,3.78,12.35c.69,2.4,2.06,4.42,2.7,6.79.69,2.54,1.72,4.63,2.83,6.99,2.05,4.36,4.6,8.48,6.11,13.07,1.55,4.71,3.93,9.03,6.07,13.46.85,1.77,1.89,3.41,2.71,5.19s1.25,3.55,2.13,5.21c1.01,1.9,2.08,3.76,3.06,5.69,1.05,2.07,1.62,4.28,2.69,6.31,3.59,6.84,5.9,14.34,8.42,21.67.98,2.84,2.21,5.57,3.24,8.38,1.3,3.53,2.26,7.25,3.58,10.8,1.14,3.05,2.32,6.09,3.56,9.12.53,1.3,1.02,2.4,1.43,3.74.22.71.51,1.38.71,2.11.3,1.08.3,2.26.6,3.29.41,1.38,1.03,2.52,1.35,3.91.28,1.23.9,2.38,1.27,3.58.44,1.41,1.11,2.88,1.45,4.3.13.54.06.95.16,1.45.18.86.57,1.3.76,2.09.27,1.18.18,1.77.68,2.87.62,1.36.92,2.93,1.44,4.34,1.01,2.74,1.99,5.47,2.95,8.24,1.64,4.72,3.29,9.66,4.75,14.13.7,2.15,1.28,4.46,2.33,6.29,1.25,2.19,2.93,4.23,4.47,6.25.35.46.71,1.28,1.06,1.67.48.53,1.09.4,1.47.8,1.15,1.22.58,1.52,2.13,2.2,1.47.64,1.56.47,3-.18s2.93-1.02,4.35-1.59c2.1-.84,3.68-2.4,5.14-4.1,2.13-2.48,4.55-4.49,6.99-6.63,2.46-2.15,4.72-4.21,7.02-6.48,1.97-1.95,3.47-4.04,5.03-6.31,1.51-2.19,2.58-4.78,3.74-7.17s2.83-4.25,4.12-6.43,2.86-4.18,3.78-6.41c.44-1.05.48-2.06,1.22-3.08.69-.96,1.9-1.45,2.86-1.83.79.93,2.69,1.56,3.76,2.2,1.21.73,2.37,1.26,3.42,2.15s1.43,1.81,2.13,2.88c1.07,1.64,2.75,3.07,4.14,4.46,2.14,2.16,4.5,3.41,6.63,5.54.99.99,2.13,1.84,3.04,2.86.63.71,2.51,2.52,3.44,2.62.51-1.74-.35-2.63-.61-4.22-.23-1.45-.31-2.87-.66-4.3-.32-1.32-.75-2.16-.73-3.58.02-1.67,0-3.34,0-5.01,0-2.63.02-5.25,0-7.88,0-1.41.24-2.29.56-3.58.41-1.68.47-3.41.83-5.05.23-1.04.88-2.02,1.11-3.19.27-1.35.34-2.51.36-3.94.02-1.5-.35-2.89-.69-4.3-.13-.54-.45-.93-.58-1.43-.26-.99.04-1.89-.12-2.87-.45-2.67-1.36-5.27-2.03-7.88-.37-1.43-.35-2.87-.72-4.3s-.55-2.85-.9-4.3c-.68-2.85-1.23-5.77-1.97-8.6-.3-1.14-.08-2.29-.32-3.42-.1-.5-.49-.87-.58-1.58-.13-1.15-.17-1.77-.52-2.88-.82-2.58-1.81-4.87-3.22-7.13s-2.24-4.65-3.94-6.68c-.78-.92-1.79-1.47-2.7-2.23-1.2-.99-2.03-2.24-3.2-3.33-1.95-1.81-4.16-2.84-6.43-4.1-2.65-1.47-5.1-.38-7.9-.86-1.48-.25-2.82-1.25-4.3-1.51-1.38-.24-2.92.32-4.3.07-2.1-.37-5.86-2.96-6.3.86-.11.92.29.72.41,1.42.16.91.02,1.8.14,2.72.15,1.21.59,2.18.89,3.41.59,2.37,2.42,4.63,3.34,7.02s3.97,5.34,3.72,7.93c-.7-.86-1.99-1.34-2.88-2.04-1.34-1.07-2.15-2.08-3.08-3.44-1.85-2.72-3.04-5.72-4.64-8.6-1.86-3.34-3.7-6.93-5.89-10.05-1.72-2.46-3.31-5.1-4.16-8.03-.54-1.89-1.14-3.73-1.81-5.57-1.02-2.79-1.54-5.71-2.02-8.58-.25-1.5-1.1-2.84-1.4-4.3s.27-2.9-.12-4.33c-.35-1.3-.57-2.11-.56-3.55.02-1.61-.37-2.44-.66-3.94s-.34-3.26-.62-4.85c-.23-1.31.11-2.66-.12-3.94-.53-2.94-1.44-5.71-1.47-8.79-.02-1.67-.6-3.01-.74-4.65-.11-1.21.06-2.5.04-3.72-.02-1.54-.57-2.67-.76-4.14-.14-1.1.19-2.27.06-3.38-.16-1.48-.73-2.61-.75-4.12-.02-1.68-.46-2.73-.75-4.33-.16-.87.02-1.92.03-2.81.02-1.88-.58-3.1-.75-4.89-.47-4.79-1.6-9.35-3.54-13.73-.97-2.19-1.63-4.61-2.53-6.85-.78-1.94-1.69-3.73-2.49-5.72-1.65-4.13-3.76-7.67-6.47-11.1-2.68-3.39-4.88-5.55-8.88-7.39-2.82-1.3-5.44-2.69-8.48-3.42-2.5-.6-5.05-.94-7.6-1.29-1.08-.15-2.74-.11-3.61-.79,1.02-.82,3.45-1.15,4.54-1.29Z"/>
      <path class="cls-1" d="m222.42,8.03c-2.42-1.21-5.23-1.51-7.72-3.04-3.74-2.3-7.86-3.36-12.16-4.3-10.91-2.37-22.05,1.77-31.7,6.62-2.95,1.48-6.44,2.43-9.17,4.26-2.44,1.64-5.03,3.71-7.33,5.57-2.43,1.97-4.76,4.22-6.95,6.46-2.54,2.61-5.68,4.55-8.25,7.15-4.32,4.36-8.55,8.94-11.29,14.51s-6.52,11.23-10.59,15.94c-1.93,2.23-3.09,5.18-4.46,7.76-1.3,2.44-2.93,4.68-4.26,7.11-1.58,2.89-4.06,5.11-5.77,7.88-2.07,3.37-4.24,6.63-6.48,9.88-5.78,8.39-9.19,18.74-11.62,28.66-2.46,10.02-6.16,19.71-9.83,29.36-1.9,5-3.05,10.54-4.14,15.8-.94,4.52-1.87,9.8-4.28,13.79-1.1,1.81-2.19,3.54-3.76,4.99-.64.59-1.6,1.02-2.18,1.58-.86.82-1.11,1.78-2.1,2.55-2.91,2.25-5.81,3.9-9.33,5-6.02,1.87-10.65,6.37-12.81,12.23,1.37.69,4.09-1.69,5.29-2.32.58-.31,1.84-1.04,2.46-1.18,1.25-.27,2.08.2,3.29-.64,1.05-.73,1.53-1.98,2.46-2.91s1.76-1.41,2.88-1.95c2.29-1.12,4.36-2.36,6.46-3.76,1.7-1.14,3.07-2.71,4.64-3.95s3.31-2.31,5.01-3.22c.79-.42,1.46-1.03,2.21-1.44,1.08-.58,1.92-.53,3-.87,1.66-.51,3.98-1.2,5.89-1.29,2.02-.1,3.77-.45,5.75-.68s3.64-1.32,5.71-1.47c3.55-.24,8.8,3.39,11.31,5.91,1.65,1.66,2.44,4.14,4.46,5.43,1.89,1.2,4.18,2,6.45,1.61,4.19-.72,7.74-2.91,11.1-5.47,2.13-1.62,3.91-3.75,6.09-5.33s3.11-3.24,4.82-5.17c1.57-1.78,2.98-3.65,4.48-5.54.86-1.08,2.93-4.78,4.19-4.96.45,1.23-.54,2.03-.97,3.14s-.6,2.35-1.05,3.5c-1.14,2.9-1.85,6.27-2.51,9.32-.74,3.38-1.68,10.5,2.68,11.74.92.26,1.78-.03,2.7.12,1.22.21,1.96.67,3.23.75s1.4.5,2.46.75,2.18.06,3.26.33c2.09.52,4.12-.6,6.09-1.62s4.28-1.26,6.45-.73c1.67.41,3.22,1.34,4.72,1.9,2.54.95,5.14,1.63,7.57,2.89,2.84,1.47,5.25,3.65,7.59,5.97,2.76,2.74,5.1,5.69,6.8,9.14,1.99,4.03,4.56,7.92,6.11,12.18,1.47,4.02,2.5,8.35,4.59,12.13,2.82,5.11,8.07,10.6,13.45,12.94,2.15.94,3.42,1.29,5.2,2.98,3.13,2.97,6.15,7.38,7.75,11.36,1.7,4.24,1.77,8.24.36,12.58-.82,2.53-1.74,4.98-2.52,7.5-.31.99-.69,1.78-.74,2.83-.02.4.16,1.06.06,1.47-.14.59-.79.75-.83,1.36-.03.56.59,2.37.75,2.92.27.89.85,1.8,1.89,1.75,1.97-.09,3.49-3.41,3.82-4.99.93-4.55.18-9.53,1.33-13.97.25-.97-.04-1.91.12-2.87.17-1.02.64-1.82.75-2.87.24-2.15.95-4.34,1.61-6.45.71-2.27,1.38-4.24,2.51-6.45.44-.86,1.24-2.19,1.45-3.03.3-1.21.08-2.24.67-3.42.52-1.06,1.32-2.42,2.32-3.07,1.33-.87,1.64-.39,2.73.23,3.37,1.92,7.21,2.93,10.5,5.05,3.01,1.94,6.7,4.45,9.03,7.14,4.36,5.04,4.13,11.9,7.81,17.32,3.32,4.89,7.85,8.74,11.34,13.46,1.65,2.23,3.42,4.29,5.14,6.45s2.89,4.51,4.28,6.78c-.53-.49-.96-1.4-1.34-1.93-.62-.87-1.05-1.77-1.61-2.7-1.74-2.88-2.56-5.15-3.42-8.42-1.84-6.97-3.85-13.98-5.73-20.95-1.61-5.97-4.07-12.45-7.51-17.56-1.96-2.91-4.22-5.7-6.48-8.26-.78-.88-1.52-1.89-2.48-2.68-.92-.75-2-1.49-2.71-2.47-2.99-4.11-4.37-10.16-4.44-15.04-.02-1.55-.68-2.64-.76-4.14-.07-1.23.01-2.51.02-3.74.01-1.59-.32-2.28-.65-3.75s.04-3.15-.04-4.67c-.14-2.63-1.13-5.13-1.49-7.71-.76-5.51-.39-11.21-2.59-16.47-.62-1.48-1.47-2.83-2.5-4.05-1.72-2.03-3.97-3.61-5.38-5.9-4.8-7.83,2.05-17.2,1.92-25.36-.03-1.69.62-2.62.69-4.3.06-1.44.57-2.89.89-4.29.56-2.43,2.21-4.78,2.75-7.13.3-1.33-.06-1.72.68-2.9.61-.98,1.33-1.48,2.15-2.31s1.66-1.75,2.33-2.69c.58-.82.85-1.97,1.41-2.72.8-1.07,1.5-1.59,1.83-3.03.29-1.26.42-1.74.9-2.85.51-1.2.81-2.63,1.4-3.96s1.32-2.72,2.16-3.96c1.25-1.85,2.95-3.26,4.12-5.16,2.53-4.09,6.13-7.41,8.58-11.5,1.15-1.93,2.37-3.36,3.24-5.52.49-1.2.96-2.69,1.2-3.96.11-.6-.11-1.26.02-1.83.15-.65.64-.71.79-1.36.3-1.22-.05-3.05-.04-4.34.01-1.69-.48-2.72-.75-4.3-.22-1.27-.19-2.32-.52-3.58s-.26-2.66-.52-3.94c-.52-2.56-1.18-4.53-2.65-6.81-.77-1.2-1.93-2.32-2.88-3.38-.35-.38-.75-.4-1.11-.88-.48-.63-.5-1.63-1.02-2.22-.68-.79-1.5-1.35-2.18-2.13-.34-.38-.71-.56-1.08-.89-2.13-1.95-5.14-3.67-6.73-6.1-.54-.82-.61-1.68-.94-2.58-1.08-2.9-3.84-5.51-5.95-7.64-.84-.84-1.62-1.83-2.47-2.67-.47-.46-1.11-.69-1.57-1.2-.6-.67-.79-1.48-1.47-2.12-2.22-2.08-5.09-3.79-7.55-5.59-2.15-1.58-3.99-3.29-6.09-4.86-3.68-2.75-7.22-5.83-11.4-7.89-2.12-1.04-4.57-1.24-6.87-2.14-3.42-1.34-7.07-1.43-10.75-1.43"/>
      <path class="cls-1" d="m107.8,162.06l-.58.14c-.12,1.18-1.03,2.72-1.56,3.81-.34.7-.95,1.3-1.28,1.94-.39.75-.37,1.56-.87,2.3-1.47,2.19-4.1,3.86-6.16,5.41-1.17.88-2.22,1.75-3.31,2.69-.63.54-1.43.89-2.05,1.45-.78.71-1.29,1.65-2.11,2.36-2.15,1.88-4.71,3.38-6.73,5.42-2.33,2.36-4.4,4.61-6.73,6.89-2.91,2.84-5,6.5-7.18,9.89-.87,1.35-1.16,3.11-1.66,4.61-.67,2.04-1.47,4.03-1.98,6.11-1.19,4.88-1.66,9.6-2.2,14.53-.14,1.27-.72,2.24-.78,3.53-.06,1.37-.01,2.47-.34,3.81-.58,2.38-.36,4.89-.36,7.35,0,2.11,1.03,9.4-1.27,10.14-.75-1.41.31-1.5.49-2.52.22-1.19.22-2,.6-3.16.79-2.43,1.11-4.94,2.48-7.16,2.74-4.43,5.88-8.5,8.6-12.9s4.88-9.56,7.52-14.33c2.37-4.26,5.53-7.08,8.79-10.57,1.7-1.82,3.07-3.33,5.37-4.47,1.89-.93,3.74-1.8,5.55-2.69,3.25-1.59,6.15-4.03,8.4-7.05,2.92-3.92,4.36-8.26,5.39-12.83.48-2.12.95-3.87,1.06-6.09.06-1.19.62-2.06.76-3.22s-.32-2.5-.05-3.61.7-1.59.75-2.83c.05-1.32.03-2.32.35-3.59.45-1.75.02-1.84-.3-3.58-.25-1.38.36-2.32-1.04-3.26-2.04-1.38-5.1,1.72-6.55,3.24-1.54,1.62-1.85,3.44-2.84,5.4-.43.86-1.01,1.63-1.39,2.51-.59,1.36-.63,2.9,3.16.35Z"/>
      <path class="cls-1" d="m268.27,76.09c1.46,1.23,1.5,4.74,2.15,6.45s1.07,3.34,1.61,5.02c.36,1.12.4,1.7.52,2.88.09.87.51,1.13.67,1.84.32,1.35.25,3.55.09,4.95-.12,1.02-.63,1.85-.77,2.87-.09.69.06,1.46.03,2.16-.05,1.33-.48,2.27-.7,3.57-.57,3.27-2.35,6.38-2.92,9.68-.14.8.16,1.69.06,2.5-.11.89-.52,1.64-.68,2.51-.3,1.59-.26,4.03.1,5.57.72,3.09.56,6.2.56,9.44v12.22c0,1.79-.05,3.58,0,5.36s.72,3.48.72,5.34c0,2.15.59,3.71,1.08,5.77s1.42,3.25,2.51,5.01c.86,1.39,1.88,2.6,2.85,3.87.69.91,2.22,2.56,3.5,2.5,1.37-4.36-2.36-9.21-3.4-13.24-1.43-5.57-3.05-11.04-4.22-16.62-.69-3.3-.41-7.76.4-10.91.3-1.16-.06-2.27.12-3.42.17-1.09.63-1.93.75-3.03.18-1.59.57-3.27.88-4.86.14-.71.71-1.8.91-2.67.22-.93.38-1.53.36-2.51-.03-1.27.25-1.7.56-2.87.23-.88.04-1.62.13-2.51.12-1.17.7-2.03.76-3.22.04-.85-.12-1.67.04-2.51.18-.9.62-1.54.67-2.51s-.01-1.92-.02-2.87c-.02-3.52,1.61-6.53,2.19-10.03.19-1.12.23-1.59.59-2.57.29-.8.63-1.62.82-2.45.42-1.78.95-3.58,1.35-5.37.32-1.4.35-3.95.1-5.37-.19-1.05-.73-1.76-.77-2.87-.04-.95-.08-1.6-.33-2.51-.48-1.75-1.02-4.36-2.22-5.76-.58-.67-1.32-1.08-1.9-1.72-.65-.72-.98-1.98-1.97-2.19-1.93-.4-4.74,5.75-5.53,7.17-2.4,4.27-1.62,2.94-1.63,7.88Z"/>
    </g>
  </g>
</svg>