<?xml version="1.0" encoding="UTF-8"?>
<svg id="Layer_2" data-name="Layer 2" xmlns="http://www.w3.org/2000/svg" xmlns:xlink="http://www.w3.org/1999/xlink" viewBox="0 0 661.85 510.43">
  <defs>
    <style>
      .cls-1 {
        fill: none;
      }

      .cls-2 {
        clip-path: url(#clippath);
      }

      .cls-3 {
        fill: #fcf4d4;
      }
    </style>
    <clipPath id="clippath">
      <rect class="cls-1" width="661.85" height="510.43"/>
    </clipPath>
  </defs>
  <g id="Layer_2-2" data-name="Layer 2">
    <g class="cls-2">
      <g id="Group_127" data-name="Group 127">
        <path id="Path_2844" data-name="Path 2844" class="cls-3" d="m.04,331.69c.7,11.58,11.72,14.41,19.89,24.54,2.65,3.29,5.21,7.51,5.37,11.81.23,5.9-4.33,7.57-5.32,12.17-1.8,8.4,6.16,15.16,6.04,24.34-.18,13.32-4.39,21.01,11.63,22.38,13.81,1.18,25.18,2.81,33.99,14.71,4.66,6.63,8.8,13.6,12.4,20.86,5.95,11.6,8.39,22.68,23.64,17.64,13.48-4.45,24.35-16.52,39.33-16.32,15.8.22,22.41,16.82,35.67,22.3,16.58,6.84,35.89,13.52,54.12,12.67,12.13-.56,23.28-5.78,35.39-6.05,5.54-.12,10.84-.51,15.89,1.53,4.03,1.63,7.02,5.01,11.15,6.54,8.76,3.25,19.34-1.79,28.83-2.02,10.29-.24,17.84,4.23,27.38,6.72,7.63,1.99,14.16-.23,21.71-.58,9.11-.43,6.85,3.16,13.86,5.02,8.48,2.26,17.6-4.2,23.74-9.31,6.99-5.82,14.06-11.46,20.79-17.54,7.05-6.36,11.74-15.35,19-21.19,8.64-6.94,20.54-8.68,30.11-2.5,5.91,3.81,8.74,12.79,15.2,15.63,1.59.68,3.3,1.02,5.02.99,5.73-.04,11.81-3.44,17.06-6.02,5.79-2.84,9.35-7.11,13.62-11.7,8.28-8.91,18.16-6.64,27.57-12.79,15.23-9.95,22.05-34.31,23.39-51.05.7-8.73-6.1-19.68.62-27.48,4.38-5.08,18.97-9.53,25.73-9.84,8.42-.39,15.35,1.11,23.34-3.4,18.27-10.32,20.59-31.29,14.71-49.24-6.61-20.18-21.25-38.86-24.92-59.62-4.84-27.39,19.06-37.46,31.02-58.08,24-41.41-47.65-64.63-74.7-74.27-9.5-3.39-23.32-9.2-27.65-18.68-4.11-8.99.54-18.98,1.92-28.04,2.34-15.44,4.08-33.97-11.73-43.27-20.44-12.02-40.91-3.47-61.63,4.15-24.1,8.86-42.3,28.7-66.35,37.32-10.58,3.8-17.88,3.85-28.06-1.09-18.17-8.82-34.43-17.54-47.22-33.14C331.28,17.26,314.34.99,296.78.05c-31.49-1.68-42.4,36.39-71.75,37.35-21.85.72-41.06-1.07-62.27-4.7-17.54-2.99-27.36,18.22-31.4,32.99-4.95,18.11,11.37,28.87,14.75,45.85,3.85,19.32-12.24,27.77-28.77,31.54-20.73,4.73-39.33,7.53-57.7,19.16-16.83,10.66-33.47,28.8-21.03,47.89,9.01,13.82,29.9,29.8,28.53,47.79-1.3,17.05-19.63,23.12-32.73,29.79-14.6,7.44-29.54,19.64-33.54,36.21-.66,2.53-.94,5.15-.83,7.77"/>
      </g>
    </g>
  </g>
</svg>