<?xml version="1.0" encoding="UTF-8"?>
<svg id="Layer_2" data-name="Layer 2" xmlns="http://www.w3.org/2000/svg" viewBox="0 0 73.88 50.12">
  <defs>
    <style>
      .cls-1 {
        fill: #2a3c24;
      }
    </style>
  </defs>
  <g id="Layer_14" data-name="Layer 14">
    <g id="Group_142" data-name="Group 142">
      <path id="Path_2956" data-name="Path 2956" class="cls-1" d="m5.06,37.45c3.32-3.72,6.91-5.66,9.05-4.62.51.22.91.63,1.13,1.13.94,2.49-4.5,6.57-6.14,7.35-1.09.53-1.66.32-2.61-.57-1.02-.77-1.56-2.01-1.44-3.28h0Z"/>
      <path id="Path_2957" data-name="Path 2957" class="cls-1" d="m0,43.03c.47-1.61,1.84-2.61,3.24-3.58.8,1.38,1.91,2.56,3.25,3.43-1.33.62-2.19,2.29-3.79,2.41-1.04.08-2.85-1.38-2.7-2.26H0Z"/>
      <path id="Path_2958" data-name="Path 2958" class="cls-1" d="m19.46,46.62c4.43-2.29,7.21-5.28,6.74-7.61-.09-.55-.38-1.04-.81-1.39-2.17-1.53-7.48,2.71-8.65,4.1-.79.93-.72,1.52-.09,2.67.5,1.18,1.56,2.01,2.82,2.21h-.01Z"/>
      <path id="Path_2959" data-name="Path 2959" class="cls-1" d="m12.79,50.12c1.67-.05,2.99-1.13,4.28-2.25-1.14-1.12-2-2.49-2.51-4-.93,1.13-2.76,1.54-3.28,3.06-.34.99.63,3.11,1.52,3.18h0Z"/>
      <path id="Path_2960" data-name="Path 2960" class="cls-1" d="m27.7,20.91c3.32-3.72,6.91-5.66,9.05-4.62.51.22.91.63,1.13,1.13.94,2.49-4.5,6.57-6.14,7.35-1.09.53-1.66.32-2.61-.57-1.02-.77-1.56-2.01-1.44-3.28h0Z"/>
      <path id="Path_2961" data-name="Path 2961" class="cls-1" d="m22.65,26.49c.47-1.61,1.84-2.61,3.24-3.58.8,1.38,1.91,2.56,3.25,3.43-1.33.62-2.19,2.29-3.79,2.41-1.04.08-2.85-1.38-2.7-2.26h0Z"/>
      <path id="Path_2962" data-name="Path 2962" class="cls-1" d="m42.1,30.08c4.43-2.29,7.21-5.28,6.74-7.61-.09-.55-.38-1.04-.81-1.39-2.17-1.53-7.48,2.71-8.65,4.1-.79.93-.72,1.52-.09,2.67.5,1.18,1.56,2.01,2.82,2.21h-.01Z"/>
      <path id="Path_2963" data-name="Path 2963" class="cls-1" d="m35.43,33.58c1.67-.05,2.99-1.13,4.28-2.25-1.14-1.12-2-2.49-2.51-4-.93,1.13-2.76,1.54-3.28,3.06-.34.99.63,3.11,1.52,3.18h0Z"/>
      <path id="Path_2964" data-name="Path 2964" class="cls-1" d="m54.03,2.68C58.28.05,62.27-.79,64.02.81c.42.35.7.86.77,1.41.2,2.65-6.18,5.02-7.97,5.31-1.2.19-1.68-.16-2.34-1.29-.75-1.03-.92-2.37-.45-3.56h0Z"/>
      <path id="Path_2965" data-name="Path 2965" class="cls-1" d="m47.61,6.59c.9-1.41,2.5-1.98,4.12-2.52.37,1.55,1.1,3,2.14,4.21-1.45.22-2.75,1.57-4.32,1.24-1.02-.22-2.34-2.14-1.95-2.93h0Z"/>
      <path id="Path_2966" data-name="Path 2966" class="cls-1" d="m65.24,15.57c4.91-.93,8.41-3.01,8.62-5.38.07-.55-.07-1.1-.39-1.55-1.64-2.09-7.94.47-9.46,1.47-1.02.67-1.13,1.26-.85,2.54.14,1.27.92,2.38,2.08,2.92Z"/>
      <path id="Path_2967" data-name="Path 2967" class="cls-1" d="m57.85,17.02c1.62.43,3.18-.23,4.74-.94-.78-1.4-1.21-2.96-1.26-4.55-1.22.82-3.09.7-4.02,2.01-.61.85-.28,3.16.55,3.48Z"/>
    </g>
  </g>
</svg>