<?xml version="1.0" encoding="UTF-8"?>
<svg id="Layer_2" data-name="Layer 2" xmlns="http://www.w3.org/2000/svg" viewBox="0 0 1161.76 2055.73">
  <defs>
    <style>
      .cls-1 {
        fill: #f9dc5c;
      }

      .cls-2 {
        fill: #8c6239;
      }

      .cls-3 {
        fill: #13abb8;
      }

      .cls-4 {
        fill: #2a3c24;
      }

      .cls-5 {
        stroke: #000;
      }

      .cls-5, .cls-6, .cls-7, .cls-8, .cls-9, .cls-10 {
        fill: none;
      }

      .cls-5, .cls-6, .cls-7, .cls-8, .cls-10 {
        stroke-miterlimit: 10;
      }

      .cls-6 {
        stroke: #c69c6d;
      }

      .cls-7 {
        stroke: #158689;
      }

      .cls-11 {
        fill: #c2eabd;
      }

      .cls-12 {
        fill: #a690a4;
      }

      .cls-13 {
        fill: #c69c6d;
      }

      .cls-14 {
        fill: #e6e6e6;
      }

      .cls-15 {
        fill: #fcf4d4;
      }

      .cls-8 {
        stroke: #f7931e;
      }

      .cls-16 {
        fill: #b3b3b3;
      }

      .cls-17 {
        fill: #ff7bac;
        opacity: .31;
      }

      .cls-10 {
        stroke: #2a3c24;
      }
    </style>
  </defs>
  <g id="Layer_1-2" data-name="Layer 1">
    <g>
      <path class="cls-11" d="m1156.96,339.48c-.08,4.49-.28,9.03-.08,13.49.22,4.95,2.02,9.56,2.37,14.46.39,5.53-.11,11.28-.16,16.83-.06,6.27,1.28,11.79,2.02,17.93,1.13,9.41.78,20.28-.89,29.57-2.15,11.96-1.07,24.48-1.07,36.64,0,9.72.26,19.46.08,29.17-.21,11.18-2.22,22-2.23,33.32-.02,24.38-2.15,48.21-2.15,72.59,0,9.61.55,19.37.11,28.95-.28,6.03-2.22,11.69-2.34,17.75-.11,5.37.08,10.77.08,16.14,0,18.83-2.15,37.07-2.15,55.83,0,29.73,0,59.47,0,89.2v38.95c0,4.79-.52,9.93-.08,14.7.52,5.63,2.27,10.4,2.23,16.2-.07,9.54.68,18.94-1.67,27.94-1.09,4.19-.19,8.59-.43,12.9-.28,5.24-2.23,9.55-2.2,15.04.16,24.04,1.14,47.08-5.98,70.2-3.27,10.61-5.4,21.48-6.09,32.57-.32,5.19-.4,10.78-3.58,15.16-4.16,5.71-10.81,10.63-15.75,15.77-6.33,6.59-11.17,13.07-13.91,21.91-.93,3.02-1.72,6.1-2.38,9.19-.82,3.83-.3,7.7-.62,11.58-.61,7.45-3.14,14.48-7.09,20.81-4.45,7.13-10.41,14.19-16.62,19.89-1.67,1.53-3.26,3.06-4.9,4.62-1.71,1.63-3.67,2.8-5.61,4.24-1.82,1.35-3.54,2.81-5.13,4.36-2.03,1.98-4.59,3.34-6.69,5.32s-4.24,3.53-6.47,5.34c-1.8,1.47-2.65,3.75-4.25,5.43-1.99,2.1-3.42,4.37-5.38,6.45-1.03,1.09-2.32,2.02-3.27,3.17-1.41,1.7-1.9,3.67-3.14,5.43-1.8,2.56-3.68,4.9-5.16,7.73-1.33,2.54-2.24,5.46-3.22,8.15-2.24,6.11-4.4,13.14-4.59,19.61-.15,4.99.85,9.46,1.94,14.18,1.49,6.45,2.38,13.25,2.38,19.91,0,5.79.72,12.08-.24,17.76-1.14,6.74-3.86,13.35-6.61,19.59-2.42,5.47-5.08,10.62-8.14,15.79-3.37,5.71-8.18,10.32-12.95,14.86-2.34,2.22-5.18,3.07-7.54,5.35-2.12,2.05-4.02,4.49-6.42,6.2-2.24,1.6-4.09,3.87-6.39,5.37-2.52,1.64-5.69,2.43-8.39,3.71-4.81,2.28-9.44,4.91-14.23,6.98-5.35,2.31-11.01,4.89-16.89,5.02-5.31.12-9.82,2.41-14.54,4.68-4.04,1.94-8.08,4.46-9.68,8.84-.94,2.57-1.48,4.95-2.12,7.55-.35,1.41-.74,2.26-.84,3.77s-.77,2.11-.98,3.31c-.49,2.71-.48,5-2.21,7.47-1.35,1.92-3.6,4.36-5.66,5.63-7.39,4.54-13.28,10.82-14.84,19.59-.41,2.33.09,5.13.06,7.52s1.12,4.16,1.12,6.45c0,2.61-1.69,4.74-1.18,7.52.21,1.16,1.07,2.06,1.21,3.22.16,1.35-.6,2.04-.92,3.22-.61,2.31-.28,5.12-.24,7.52s-.92,3.64-1.07,5.9c-.27,4.09-1.61,9.35-3.22,12.91-1.55,3.41-2.22,7.13-3.32,10.75-.61,2-2.1,4.11-3.11,5.91-1.33,2.37-2.94,4.6-4.29,6.98-2.59,4.54-6.79,7.96-10.28,11.83-3.36,3.73-6.68,7.1-10.79,10.17-7.56,5.64-14.96,11.84-21.31,18.88-1.91,2.12-4.02,4.19-6.01,6.32-1.76,1.88-2.95,3.88-4.53,6-3.47,4.68-6.93,9.36-10.48,13.97-5.04,6.56-11.82,12.58-11.87,21.36-.02,2.78.87,5.39,1.38,8.1.33,1.79.52,3.59.55,5.41.13,7.68.16,15.81-1.13,23.39-.83,4.9-2.99,8.88-5.15,13.26-5.73,11.67-4.64,27.78,1.14,39.16.93,1.82,1.48,3.07,2.96,4.56.94.96,4.04,3.71,4.48,1.05-1.7-.62-3.54-.01-5.31-.21-1.44-.16-1.88-.87-3.14-1.16-.85-.2-1.78.18-2.66-.03-.57-.14-.71-.66-1.26-.85-1.63-.58-3.32-1.02-4.8-2.01-3.6-2.42-6.98-6.52-9.89-9.67-3.28-3.54-6.52-6.77-9.29-10.6-5.26-7.26-18.2-6.81-25.96-8.79-2.95-.75-6.58-.23-9.63-.23-1.51,0-3.03.07-4.54.02-1.96-.06-3.29-.83-5.13-1.16-1.05-.19-2.24.35-3.28.11-.52-.12-.93-.81-1.26-.89-1.35-.34-2.73-.76-4.06-1.07-2.86-.68-5.34-1.44-8.02-2.52-3.36-1.36-6.06-2.53-9.12-4.43-2.5-1.55-5.14-2.38-7.64-3.74-5.07-2.77-10.21-7.02-14.44-11.04-2-1.9-3.53-3.61-4.85-5.91-.56-.98-1.26-1.99-1.85-2.98-.43-.73-1.12-2.01-1.61-2.69-3.01-4.17-6.88-8.54-11.05-11.52-5.44-3.9-11.67-5.29-17.97-6.75-2.33-.54-4.69-.58-7.05-1.07-1.78-.37-3.53-.24-5.34-.24-4.17.01-8.34,0-12.5,0-9.25,0-18.51,0-27.76,0-10.39,0-20.44-1.83-30.66-3.25-12.22-1.7-23.99-5.2-35.76-8.78-2.91-.89-5.65-2.58-8.53-3.65-3.18-1.19-6.62-2.26-9.74-3.6-5.12-2.2-9.27-6.24-14.18-8.71-2.96-1.48-5.68-2.49-8.57-4.25-2.79-1.7-5.11-2.95-7.58-5.13-2.23-1.96-5.3-3.42-7.81-5.06-2.67-1.75-4.29-3.89-6.68-5.95-8.39-7.24-16.67-14.05-23.99-22.3-6.01-6.77-11.45-15.24-14.44-23.84-1.05-3.03-2.24-5.37-2.83-8.51-.5-2.64-1.38-5.32-2.01-7.95-1.02-4.23-1.1-8.44-1.91-12.63-.81-4.18-1.19-8.36-2.12-12.57-.85-3.8-1.69-7.03-3.49-10.52-3-5.82-9.16-10.27-15.04-13.15-8.15-3.99-16.43-7.79-24.72-11.42s-17.84-8.3-27.13-10.34c-9.58-2.1-18.79-6.12-27.67-10.08-9.5-4.23-17.85-10.04-25.76-16.79-7.5-6.4-16.73-10.16-23.67-17.19-3.34-3.38-6.28-6.55-9.11-10.3-2.65-3.51-4.67-7.59-6.75-11.43-2.18-4.04-3.78-8.36-5.91-12.42-.82-1.57-1.91-2.9-2.68-4.51-.88-1.84-.93-3.58-1.59-5.45-2.59-7.41-8.76-13-14.81-17.38-7.81-5.66-14.95-12.3-22.8-18.03-4.56-3.33-9.61-6.01-14.54-8.66-2.52-1.35-5.14-2.3-7.66-3.73s-4.82-1.68-7.55-2.63c-10.93-3.8-21.19-8.3-31.26-14-10.13-5.73-18.54-13.03-26.45-21.52-4.39-4.71-9.75-8.53-13.99-13.4-3.92-4.5-7.49-8.92-11.08-13.64-7.09-9.32-12.79-18.85-17.89-29.34-1.35-2.78-2.89-5.28-4.07-8.18-.97-2.37-1.42-4.9-2.39-7.27-1.08-2.64-2.38-5.24-3.4-7.9s-1.32-5.66-2.39-8.41c-2.14-5.46-4.09-10.87-6.2-16.3-2.01-5.15-2.53-11.48-3.59-16.87-.99-5.05-2.64-10.36-4.18-15.27s-2-9.78-2.96-14.65c-1.04-5.25-1.83-10.33-2.36-15.58-.23-2.26-1.14-4.15-1.16-6.48s-.38-3.74-.81-5.91.12-4.53-.48-6.74c-.49-1.84-.79-2.74-.82-4.78-.11-6.72-3.93-13.11-4.22-19.91-.16-3.86-1.43-6.48-1.87-10.2-.96-8.09,1.01-15.21-1.97-22.08-1.4-3.22-3.04-6.27-4.58-9.43-1.15-2.36-1.28-2.74-1.57-5.85-.23-2.53-1.24-3.95-1.67-5.85-1.81-7.92-.78-18.16-.5-26.39.17-4.98,2.56-8.88,2.21-13.97s-2.09-8.84-2.17-13.95-2.1-9.83-2.2-15.07c-.14-8.01-2.14-15.54-2.19-23.44s-2.03-14.49-2.11-21.96c-.07-6.72.02-13.44.02-20.16,0-12.32.29-24.69.05-37.01-.11-5.96-2.23-10.59-2.2-16.72.03-5.01,0-10.03,0-15.04,0-10.59,0-21.17,0-31.76v-31.72c0-12.48-1.67-26.24.18-38.55,2.13-14.17,4.11-27.4,4.11-41.91,0-12.72,0-25.43,0-38.15,0-25.45,0-50.91,0-76.36,0-12.61-1.9-26.98,1.07-39.2,3.17-13.02,1.07-28.54,1.07-41.99,0-6.87.12-12.71,1.67-19.29s.48-13.85.48-20.42v-39.79c0-9.93-1.2-20.68-.11-30.54.66-5.95,2.25-10.49,2.26-16.72s.06-11.86,0-17.79c-.06-6.41,2.06-11.93,2.19-18.27s-.05-12.11-.05-18.15v-58.63c0-9.34,1.86-21.01-.18-30.09-.57-2.51-2.13-3.8-1.87-6.45.21-2.15,1.82-4.16,2.13-6.45.7-5.14-.08-11.04-.08-16.23v-27.83c0-4.3-.06-8.6,0-12.9.07-5.45-2.2-9.6-2.13-15.04.12-9.44,1.51-16.68,2.09-25.79.43-6.83,4.31-19.25,9.88-23.75,2.94-2.37,8.15-3.4,11.61-4.72,4.42-1.69,9.41-3.02,14.04-3.83,8.31-1.46,17.17-3.23,25.77-5.31,8.46-2.04,18.01-1.07,26.87-1.07h27.94c4.3,0,8.6-.06,12.9,0,5.94.08,10.6-2.19,16.67-2.13,11,.1,20.98-2.15,31.88-2.16s21.02-2.14,32.32-2.15c6.56,0,11.7-.83,18.06-1.97,6.74-1.21,13.45.42,20.15-1.26,5.4-1.35,10.7-1.11,16.35-1.08,6.9.04,13.06-2.07,19.91-2.2,3.74-.07,7.54.5,11.23-.13,3.38-.58,6.24-1.86,9.73-2.05,6.71-.36,12.26-.19,18.81-1.59,12.01-2.57,26.29-.48,38.63-.48,24.1,0,48.2,0,72.3,0,12.03,0,24.53,1.01,36.52.08C491.42,1.76,497.04.04,503.61,0c7.11-.05,13.48,2.22,20.62,2.16,11.9-.1,22.71,2.26,34.73,2.16,13.01-.11,26.41,2.7,38.74,7.03,11.52,4.05,24.35,7.58,36.43,10.15,7.13,1.52,13.27,1.97,20.52,2.11,6.17.12,11.56,2.25,17.89,2.2s13.13-.17,19.68-.05c7.21.13,13.6,3.31,20.97,2.01,11.6-2.05,23.37-2.54,35.36-2.04,6.36.26,12.04,2.27,18.58,2.23s13.45,0,20.17,0c12,0,24.01,0,36.01,0,7.35,0,14.7-.06,22.05.02,6.78.08,12.52-2.23,19.32-2.16,12.89.12,25.79,0,38.69,0,11.81,0,23.63,0,35.44,0,5.83,0,11.99-.7,17.7.48,6.66,1.38,13.48,1.04,20.02,2.75,5.19,1.35,10.85,2.13,16.12,3.04s9.98-.07,14.96,1.26c9.5,2.54,21.16,5.2,31.1,5.32,5.68.06,10.43,2.26,16.18,2.2,4.66-.04,9.31,0,13.97,0,9.5,0,18.97-.67,27.94,1.67,4.19,1.09,8.59.19,12.9.43,2.64.14,4.03,1.1,6.45,1.72,2.56.65,5,.08,7.52.64,10.25,2.25,14.52,11.46,16.06,20.24.82,4.67,2.25,8.14,2.2,13.1-.06,7.1.04,14.2,0,21.31-.03,6.54,1.89,12.04,2.23,18.29.33,6.08-.02,12.4-.1,18.49-.08,6.64,2.27,12.45,2.19,19.1-.08,6.95.03,13.9-.01,20.85-.06,9.45,2.26,18.35,2.16,27.77-.09,8.74.1,16.52,1.65,25,1.45,7.96-.66,16.21.96,24.16.88,4.33,1.46,8.02,1.67,12.42.26,5.32,1.95,10.28,2.26,15.58.46,7.77-1.23,15.86.37,23.54,2.16,10.37,1.67,20.61,1.67,31.21,0,1.03-.01,2.07-.03,3.1Z"/>
      <g>
        <path class="cls-4" d="m767.83,1900.01c-1.75-2.85-4.23,6.08-4.47,6.96-.98,3.66-2.14,6.76-2.13,10.65,0,1.83,0,3.67,0,5.5,0,2.24.76,4.06.73,6.24-.03,1.96,0,3.91,0,5.87,0,.95-.12,2.01-.02,2.95.12,1.03.63,1.55.78,2.52.27,1.73.36,2.98.87,4.64.49,1.61,1.79,3.21,2.77,4.56,1.92,2.65,4.08,5.28,6.03,7.91.94,1.27,2.58,2.5,3.71,3.67s2.99,2.43,4.56,3.02c3.62,1.35,6.56,3.37,9.75,5.4,3.22,2.05,6.36,4.24,9.7,6.26,2.99,1.81,6.09,3.43,8.84,5.67,1.08.89,2.04,1.58,3.11,2.37.55.4.88,1.11,1.43,1.51.78.56,1.94.88,2.79,1.45,2.99,1.97,5.45,4.57,8.62,6.25,6.73,3.56,13.64,7.56,20.71,10.61,3.44,1.48,6.47,3.6,9.72,5.16,1.63.79,3.37,1.28,4.99,2.2,1.47.83,3.29,1.42,4.68,2.38,1.17.8,2.07,1.69,3.32,2.39,1.97,1.1,4.12,2.33,6.07,3.32,3.18,1.61,6.28,3.04,9.34,4.75,3.77,2.11,7.75,3.78,11.39,6.05,1.7,1.06,3.67,1.68,5.37,2.75s3.31,2.38,5,3.49c2.82,1.84,5.6,4.25,8.55,5.69,3.36,1.64,6.55,3.76,9.93,5.52,3.08,1.61,6.78,3.83,10.14,4.86s6.99,2.42,10.57,3.04c1.87.33,4.2-.24,5.91-.75,1.29-.38,2.97-.91,4.19-1.65,2.86-1.74,5.49-3.34,8.23-5.36,2.35-1.72,5.07-2.75,7.18-4.93,2.07-2.14,4.74-3.62,6.93-5.49,3.06-2.61,5.71-5.53,9.03-7.9,3.21-2.3,6.94-3.66,9.89-6.38,5.49-5.08,11.83-8.7,17.94-13.07,1.27-.91,2.4-2.02,3.67-2.94,1.34-.97,2.64-2.11,3.96-3.12,2.83-2.17,5.3-5.02,8.01-7.34,5.4-4.63,11.3-8.8,16.94-13.21,5.15-4.03,10.5-7.42,16.01-10.75,5.67-3.43,11.53-7.03,17.32-10.15,3.54-1.91,6.52-4.12,9.74-6.44,1.2-.86,2.29-1.55,3.46-2.41.52-.38,1.27-.69,1.84-1.08.84-.58,1.7-1.35,2.58-1.85,2.54-1.46,4.93-3.26,7.3-5.12,2.49-1.95,5.34-3.82,7.11-6.5.56-.85,1.81-2.94,1.6-3.97-.15-.76-.85-1.09-1.34-1.63-.65-.74-.89-1.45-1.45-2.22-.81-1.1-1.86-2.5-2.76-3.5-1.09-1.21-2.68-1.88-3.86-3.09-2.16-2.21-5.4-2.8-7.89-4.59-2.49-1.8-4.49-4.07-5.69-6.79-.44-1-1.64-2.99-1.24-4.15.21-.62,1.03-1.05,1.42-1.59.89-1.24.96-1.47,2.22-2.32,1.29-.88,2.29-1.77,3.63-2.57,1.55-.93,3.48-1.66,4.8-2.74,1.35-1.11,1.59-2.67.38-3.69s-3.09-1.37-4.42-2.19c-.51-.31-.94-.82-1.44-1.12-.79-.46-1.76-.59-2.6-1.05-.98-.54-2.03-1.26-2.96-1.87-.72-.47-1.74-.79-2.38-1.26-2.38-1.76-4.79-3.23-7.2-4.97-3.18-2.3-6.27-3.59-9.88-5.13-1.43-.61-2.43-1.17-3.93-1.54s-2.83-1.36-4.27-1.95c-3.65-1.5-7.47-2.42-11.15-3.94-2.59-1.07-5.65-2.55-7.97-4.11-2.88-1.93-5.47-4.36-8.44-6.25-6.25-3.98-12.39-7.76-18.51-11.94-2.87-1.96-6.06-3.53-9.01-5.29-1.18-.7-2.2-1.75-3.43-2.41-1.41-.76-2.94-1.58-4.4-2.2-3.38-1.44-6.54-2.81-9.94-3.74-3.66-1-6.82-1.69-10.49-3.05-1.44-.53-2.88-.94-4.4-1.45-1.28-.43-2.53-1.53-3.81-2.06-3.27-1.36-7.41-2.29-10.73-3.56-3.69-1.41-6.6-2.29-10.58-2.29-2.07,0-3.98.14-5.91.71-1.29.38-2.97.91-4.19,1.65-6.65,4.04-13.91,7.38-21.3,10.29-7.55,2.98-15.01,6.07-22.52,9.37-1.23.54-2.51.57-3.72,1.06-1.09.45-1.91,1.29-2.91,1.88-1.99,1.16-4.19,2.06-6.24,3.1-4.62,2.34-9.18,4.79-13.78,7.16-2.24,1.15-4.37,2.49-6.61,3.67-2.38,1.26-4.77,2.44-7.12,3.69s-4.93,1.79-7.36,2.53c-2.6.79-4.9,2.46-7.53,3.16-5.1,1.36-9.86,3.48-14.9,5.14-4.43,1.46-9.41,2.81-13.54,4.93-2.13,1.1-4.42,1.59-6.61,2.58-2.03.91-4.14,1.61-6.23,2.36-1.88.67-3.71,1.89-5.5,2.77-1.05.52-1.93,1.25-2.94,1.77-1.05.54-2.23.76-3.32,1.35-3.5,1.89-7.17,3.94-10.42,6.22-1.55,1.09-2.95,2.25-4.61,3.14-1.54.82-2.99,2.75-4.77-1.47Z"/>
        <path class="cls-15" d="m1103.22,1897.07c-1.47.3-1.88,2.31-2.38,3.49-.35.84-.47,1.42-.71,2.38-.13.55-.51.85-.61,1.47s.19,1.27.07,1.86c-.17.85-.63,1.3-.8,2.15-.22,1.13.45,1.29.61,2.02.2.94.1,1.8.15,2.77.06,1.31.61,2.37.75,3.67.21,1.87,1.02,3.68,1.47,5.5.41,1.66.61,3.94,1.63,5.34.9,1.24,2.24,1.62,3.32,2.55,1.06.91,2.27,2.08,3.04,3.2,1.93,2.82-1.43,5.06-3.4,7.07-1.09,1.11-2.31,1.85-3.57,2.67-1.68,1.09-3.08,2.45-4.7,3.79-2.62,2.16-4.75,4.82-7.68,6.55-3.29,1.94-5.89,4.46-9.18,6.46-1.55.94-3.21,1.42-4.71,2.36-1.67,1.04-3.28,2.31-4.87,3.51-2.92,2.2-5.68,4.04-8.6,6.24-1.52,1.14-2.98,2.4-4.55,3.47-1.96,1.34-4.28,2.04-6.28,3.3-3.49,2.19-7.02,4.61-10.45,6.99-1.32.92-2.53,1.85-4,2.7-1.96,1.13-3.78,2.55-5.71,3.73-3.83,2.33-7.9,4-11.74,6.4-1.6,1-3.16,2.02-4.77,3.02-.98.61-1.91,1.54-2.93,2.06-1.19.6-2.15.91-3.3,1.72-3.3,2.3-6.42,4.23-9.52,6.77-3.46,2.82-6.88,6.08-10.66,8.55-3.56,2.32-7.1,4.53-10.62,6.89-6.2,4.14-12.07,10.7-19.4,12.54-1.49.38-3.2,1.31-4.87.32-1.6-.95-1.87-2.38-2.34-3.9-.47-1.53-1.67-3.22-1.98-4.93-.34-1.93-.48-3.58-.96-5.51-.49-1.98-1.33-3.76-1.3-5.87.03-2.26-.7-4.09-.74-6.24-.04-1.83,0-3.67,0-5.5,0-.98.02-1.96,0-2.93-.02-1.4.49-1.74.77-2.9.21-.88-.05-1.9.13-2.81.09-.45.49-1.42.64-1.99.5-1.85,1.04-3.32,1.93-4.94,2.07-3.79,4.07-6.62,7.17-9.75,2.94-2.97,6.51-5.22,9.91-7.52,3.22-2.17,6.06-4.53,9.54-6.23,3.49-1.71,6.53-4.02,9.88-5.77s7.05-3.84,10.29-6.16c3.65-2.6,7.52-4.83,11.37-7.14,1.57-.94,2.82-1.97,4.41-2.77,1.75-.89,3.45-1.59,5.14-2.75,3.48-2.4,6.99-4.62,10.58-6.79,3.43-2.07,7.22-3.79,10.54-6.06,2.84-1.93,5.34-4.13,8.22-5.87,3.41-2.06,7.06-3.78,10.69-5.61,2.87-1.45,5.6-3.55,8.39-5.4.71-.47,1.55-.83,2.22-1.29.54-.37,1.06-.94,1.62-1.3,1.33-.87,3.37-1.09,4.81-1.81,2.8-1.41,5.76-2.98,8.69-4.13,1.73-.68,3.22-1.52,4.74-2.66,1.37-1.03,2.94-1.59,4.37-2.57,2.5-1.72,4.89-3.94,10.28-4.4Z"/>
        <path class="cls-1" d="m786.17,1853.04c-.52,2.08,3.13,5.85,4.04,7.71,1.4,2.85,3.22,5.03,4.95,7.68,1.85,2.84,3.64,5.42,5.71,8.09,2.28,2.94,4.72,5.6,7.04,8.42,2.06,2.5,4.28,4.89,5.95,7.71.93,1.58,1.95,2.81,3.14,4.12s1.91,3.15,3.12,4.54c2.15,2.47,4.34,5.1,6.45,7.81,2.23,2.86,4.88,5.05,7.16,7.8,1.73,2.09,3.48,4.22,5.26,6.26,2.13,2.44,3.59,5.07,5.53,7.65,3.63,4.84,8.06,8.86,11.73,13.58,3.77,4.84,7.79,9.83,11.93,14.51,3.47,3.92,7.9,6.71,11.38,10.61,3.99,4.47,7.28,9.69,12.59,12.68,2.9,1.64,5.04,2.19,8.51,2.19,1.56,0,3.02,0,4.4.37,1.39.37,3.21.65,4.77.3,5.32-1.19,9.48-4.85,14.31-7.28,4.7-2.36,9.26-4.99,13.94-7.34,2.42-1.21,4.63-2.34,7.18-3.1,3.02-.9,6.42-2.4,9.33-3.87,2.72-1.37,5.75-3.04,8.6-3.87,3.02-.89,6.29-1.51,9.01-3.1,4.26-2.49,8.99-4.62,13.54-6.61,2.89-1.26,5.91-1.62,8.57-2.85,2.5-1.15,5.19-2.05,7.64-3,5.08-1.97,10.43-3.2,15.7-5.25.6-.24.8-.55,1.5-.67.84-.14,1.6.08,2.43-.13,1.23-.32,2.45-1.18,3.81-1.32,1.44-.15,2.36-.38,3.69-.71.58-.15,1.39-.58,1.9-.67.82-.15,1.69.12,2.51-.02.93-.16,1.62-.69,2.57-.8.72-.08,1.53.2,2.23.05,1.31-.28,2.7-.8,4.01-1.13,1.26-.31,2.42-.65,3.65-1.12.56-.22,1.11-.28,1.67-.53.66-.3,1.32-.74,1.98-.94,5.58-1.62,11.15-1.81,16.46-4.47,2.27-1.14,3.73-2.57,4.75-4.86-2.22-1.92-4.26-4.14-6.32-6.24-2.5-2.54-5.8-4.37-8.29-7-1.13-1.2-2.03-2.6-3.27-3.83-.49-.48-1.01-.96-1.47-1.47-.85-.96-.68-1.11-1.08-2.22-.25-.68-.63-1.31-.94-2-.43-.98-.41-1.52-.62-2.69-.15-.86-.63-1.13-.68-2.26-.05-1.1,0-2.21,0-3.31,0-3.77-.74-7.97,2.73-10.48,1.32-.95,2.89-1.33,4.33-1.91s2.55-1.56,3.91-2.29c1.8-.97,4-1.11,5.55-2.19.49-.35,1.06-1.02,1.46-1.48.85-.96.66-1.13,1.08-2.22.32-.83.85-1.16.81-2.16-.05-1.18-.94-1.8-1.52-2.66-1.03-1.51-1.99-3.12-3.12-4.56-2.32-2.97-5.38-5.32-7.71-8.36-2.03-2.66-4.06-5.16-6.23-7.73-4.33-5.12-7.63-10.59-12.48-15.43-5.17-5.17-9.54-11-14.68-16.15-2.38-2.38-4.51-4.84-7.12-6.95-2.97-2.4-6.03-4.68-8.99-6.99-1.65-1.29-3.01-2.2-4.41-3.82-1.52-1.75-2.97-3.54-4.62-5.17-1.35-1.34-2.21-2.86-3.48-4.22-1.12-1.2-2.33-2.32-3.49-3.49-2.83-2.84-6.2-4.94-8.83-8.02-1.03-1.21-2.22-2.51-3.44-3.54-.62-.53-1.82-1.62-2.56-1.87-.96-.33-2.38.32-2.97-.75-1.45.54-2.98.7-4.48,1.43-.81.4-1.73,1-2.66,1.21s-1.9.7-2.63.83c-1.04.18-2.05-.06-3.08.23-.34.09-.34.49-.86.61-.48.11-1.06-.19-1.55-.08-.71.16-1.44.57-2.16.77-.99.29-1.89.63-2.92.75-4.3.51-8.43,1.45-12.86,1.45-2.02,0-4.26-.28-6.26-.02-1.65.22-3.55.93-5.12,1.48-.61.21-1.54.63-2.16.77-.48.11-1.07-.19-1.55-.08-.58.13-.62.6-1.12.71-.84.19-1.73.23-2.51.43-.9.22-2.04.52-2.93.74-.64.16-1.56.58-2.2.73-.84.2-1.83.35-2.77.53-1.83.35-4,1.72-6.03,2.08-.94.16-1.99-.24-2.94-.08-1.07.19-1.81.74-2.93.79-2.1.09-3.6.75-5.87.72-1.35-.02-1.62.48-2.63.67-1.09.2-2.14-.06-3.24.23-1.09.28-1.83.42-2.95.55s-1.74.63-2.9.77c-3.62.45-7.32,1.44-10.87,2.34-.22.06-.5.53-.86.61-.61.14-1.29-.18-1.9-.07-.82.15-1.36.56-2.15.78-2.23.64-4.6.75-7,.72-1.73-.02-3.28.55-4.98.89-.77.16-1.3.6-2.36.57-1.39-.04-1.72.39-2.9.75-3.98,1.22-7.99,1.29-12.08,2.25-.69.16-1.69.59-2.47.82-.86.26-1.33.42-2.38.55-.94.12-1.31.59-2.14.79-1.11.27-2.56-.12-3.71-.05-1.82.1-4.19.67-5.87,1.12-.92.24-1.49.33-2.57.36-1.38.03-2.36.58-3.67.76-1.11.16-1.84.41-2.93.65-.62.14-1.27-.12-1.87.02-.33.08-.67.57-.86.61-1.99.44-3.83.42-5.75.86-.66.15-1.51.52-2.14.75-1,.36-2.03.45-2.99.73-1.69.5-2.42,1.81-3.79,2.79-.82.59-1.44.67-2.22,1.45s-1.28,1.46-1.84,2.4c-1,1.69-1.85,3.26-2.57,5.1-.76,1.93-1.51,3.64-2.04,5.5-.29,1.01-.46,1.94-.73,2.94-.12.44.06.96-.04,1.43-.12.54-.57.87-.7,1.5-.23,1.15-.24,2.18-.54,3.33-.32,1.22.16,2.52-.13,3.71-.12.5-.51.52-.61.86-.2.73-.05,1.33-.14,2.06-.15,1.18-.62,1.72-.77,2.9-.61,4.71.02,9.94,3.69,13.96Z"/>
        <path class="cls-15" d="m1062.85,1874.32l.04-.44c-1.38.93-.69,3.07-.77,4.49-.06,1.12-.51,1.39-.68,2.26-.17.92-.07,1.92-.06,2.87,0,1.83,0,3.67,0,5.5,0,.98.02,1.96,0,2.93-.01,1.06.41,1.61.57,2.37.19.93-.03,1.85.13,2.77.19,1.09.74,1.8.79,2.93.08,1.91.75,3.14.72,5.14-.06,3.45,1.44,6.78,2.23,9.88,1.06,4.16-5.67,3.83-8.12,4.78-2.98,1.15-6.38,2.55-9.52,3.32-1.54.38-3.46,1.03-5.14,1.12-2.11.12-3.86.21-5.87.7-3.55.85-7.24,1.48-10.64,2.96-1.8.78-3.66,1.52-5.5,2.2-1.7.62-3.4,1.64-5.14,2.04-3.41.79-6.95,1.64-10.24,3.1-1.67.74-3.55.95-5.21,1.45-1.67.5-3.38,1.59-5.1,2.22-3.71,1.36-7.41,2.79-11.01,4.59-1.82.91-3.64,1.84-5.44,2.76-1.33.68-2.67,1.19-4.09,1.83-1.68.75-3.45,1.52-5.14,2.38-1.9.96-3.88,1.98-5.87,2.57-3.63,1.08-7.34,2.08-10.64,3.85-2.87,1.54-5.65,3.39-8.61,4.59-3.41,1.39-6.73,2.55-9.83,4.5-3.01,1.9-6.55,2.77-9.83,4.32-3.05,1.44-6.35,2.77-9.5,4.02-1.39.55-2.59,1.18-3.87,1.84-1.85.94-3.19.89-5.32.92-7.8.08-7.71-10.76-7.71-16.51,0-3.8-.37-7.78.57-11.38.47-1.79-.08-3.68.14-5.5s.79-4.07,1.41-5.87c1.12-3.29,2.47-6.23,4.31-9.21,2-3.23,4.72-5.05,7.36-7.5,2.47-2.3,5.89-3.58,8.97-5.12,3.43-1.71,6.61-3.87,10.11-5.14,5.98-2.17,12.28-3.33,18.34-6.63,2.97-1.62,6.17-2.99,9.34-4.57,3.55-1.78,6.84-2.71,10.48-3.47.59-.12,1.62-.55,2.37-.73s1.75-.43,2.5-.64.98-.57,1.88-.68c1.07-.13,2-.1,2.95-.35.87-.23,1.65-.17,2.6-.34.77-.13,1.05-.63,1.77-.8,1.82-.44,3.91.39,5.75-.13,7-1.98,13.97-5.4,21.08-7.99,3.4-1.24,6.51-2.75,9.91-3.59,3.18-.79,5.95-2,9.17-3.32,3.45-1.41,7.32-2.21,10.62-3.26,1.89-.6,3.65-.62,5.52-1.12.96-.26,1.57-.36,2.57-.37,1.24,0,1.64-.44,2.63-.67.77-.18,1.7-.08,2.51-.07,1.21.02,1.83-.28,2.94-.57,1.8-.47,4-.16,6.61,2.77Z"/>
        <path class="cls-12" d="m988.73,1742.22c-.1.18-.09.32.02.42-.55-.63-5.69,1.69-7,1.78-2.73.18-5.07,1.42-7.68,2.38-1.46.54-2.59.95-3.99,1.35-.78.23-.98.57-1.89.68-.96.11-1.65.09-2.59.35-3.06.82-6.69.37-9.91.37-1.65,0-3.54-.25-5.14.16-.83.22-1.29.55-2.2.59-1.05.05-1.52.31-2.37.55-2.94.84-6.48-.24-9.38.53-1.4.37-2.82.39-4.4.37-1.85-.02-3.29.76-5.14.73-.71-.01-1.51-.1-2.22-.01-.83.1-1.2.53-1.88.69s-1.42.05-2.14.05c-1.23.02-1.81.43-2.93.68-1.51.33-3.12-.2-4.61.23-.58.17-.83.51-1.61.59-1.17.12-1.84.28-2.95.55-1.47.36-2.56.75-4.04.89-1.65.16-2.64.77-4.4.73-1.6-.03-2.62.38-4.04.73-.67.17-1.3.54-1.9.67-.82.19-1.68-.12-2.51.02-.92.16-1.63.69-2.57.8-.72.08-1.48-.14-2.2-.05-1.81.21-3.21.77-5.14.76-3.3,0-6.61,0-9.91,0-1.59,0-3.46-.26-4.97.16-.57.16-.85.5-1.61.59-.95.11-2-.01-2.95-.02-1.81-.01-3.06.53-4.77.76-.71.09-1.49-.06-2.21-.03-1.02.04-1.44.5-2.26.68-2.98.67-6.03.92-9.11,1.69-1.58.39-3.14,1.1-4.77,1.33-.71.1-1.49-.06-2.21-.03-1.12.04-1.42.53-2.26.68-3.19.57-6.09.92-9.07,2.26-2.77,1.25-5.65,1.47-8.41,2.27-.71.21-1.02.59-1.89.68-.73.08-1.34,0-2.06.14-1.22.26-2.48,1.07-3.82,1.3-1.53.27-2.75.97-4.12,1.4-1.51.47-2.75.54-4.33.87-2.81.58-5.48,1.18-6.79,3.79-1.44,2.87-1.65,5.3-1.65,8.62s.45,6.75.03,9.91c-.23,1.71-.77,2.94-.76,4.77.01,1.71,0,3.42,0,5.14s.02,3.18-.37,4.77c-.41,1.68-.12,3.38-.43,5.07-.22,1.23-1.19,2.69-1.44,4.1-.25,1.39-.18,3.65.2,4.97.7,2.39,3.5,5.41,5.36,7.08,2.27,2.03,4.56,4.27,6.77,6.48,2.19,2.18,4.73,3.75,7.1,5.71,4.49,3.73,8.59,8,13.43,11.19,2.1,1.39,4.35,2.81,6.5,4.17,2.88,1.82,5.29,4.38,8.21,6.12,4.86,2.9,9.76,6.37,14.26,9.87,2.6,2.03,5.85,3.95,8.66,5.69,2.35,1.45,4.29,3.43,6.57,4.95s4.94,2.8,7.37,3.85c1.41.62,2.8.83,4.25,1.26,1.17.35,2.56,1.04,3.79,1.35.8.2,1.78-.16,2.61-.07.95.11,1.64.63,2.57.8,1.27.22,3.96.28,5.18,0,1.09-.25,2.28-1.28,3.24-1.87,1.58-.98,3.4-1.25,5.1-1.92,2.65-1.05,5.55-1.59,8.52-2.11.67-.12,1.09-.43,1.61-.57.79-.21,1.56-.05,2.34-.22.54-.12.87-.57,1.5-.7,1.01-.21,1.94-.07,2.96-.34,3.15-.82,5.9-1.7,9.01-2.75.64-.21,1.3-.33,2.02-.53.54-.15,1.03-.58,1.51-.69,1.57-.35,2.87-.25,4.31-.8s3.08-.58,4.63-.9c.47-.1,1.4-.49,1.99-.64.85-.22,1.73-.57,2.58-.84,1.48-.48,3-.55,4.4-.92.78-.21,1.35-.26,2.22-.35s1.13-.47,1.88-.68c6.3-1.79,12.96-1.9,19.39-3.58,1.45-.38,3.04-.19,4.4-.53,1.45-.37,3.2-.74,4.71-1.17.55-.16.87-.54,1.5-.69.79-.19,1.62.09,2.43-.13.53-.15.94-.45,1.61-.57,1.03-.18,1.95-.35,2.95-.73,2.87-1.09,5.73-1.85,8.5-2.85,3.14-1.13,6.07-1.74,9.11-2.25,2.97-.49,5.61-1.52,8.37-2.31,1.13-.32,2.44-.9,3.53-1.24,1.48-.46,2.71-.69,4.25-1.06,3.08-.74,5.95-2.06,9.17-2.71,1.49-.3,2.64-.45,4.04-.8,1.3-.33,2.61-.99,3.83-1.3,1.46-.37,3.47-.85,4.97-.92,1.85-.08,2.96-.81,4.57-1.28,1.47-.43,3.08-.55,4.54-.97.55-.16.87-.54,1.5-.69.94-.22,2,.18,2.96-.04,1.61-.37,3.18-.83,4.77-1.24,1.68-.44,3.45.11,5.14-.33,3.01-.79,6.24-1.47,9.2-2.68,2.64-1.08,4.91-2.16,7.68-2.86,3.09-.78,5.7.6,7.43-2.64.64-1.19.91-2.25,1.36-3.41.27-.7.62-1.02.78-1.79.17-.82-.1-1.6.13-2.43.2-.7.54-1.09.58-1.99.03-.73,0-1.48,0-2.21,0-1.95-.55-3.31-.76-5.14-.19-1.59.27-3.2-.14-4.77-.45-1.74-.77-3.4-1.33-5.15-.85-2.68-1.31-5.31-2.36-8.04-1.07-2.8-1.67-5.03-3.86-7.36-2-2.13-3.97-4.13-6.2-6.01-5.21-4.38-10.88-8.06-16.03-12.53-2.59-2.25-5.36-3.09-8.52-4.29-1.29-.49-2.7-.83-4.1-1.38-.84-.33-1.77-.46-2.6-.73-.6-.2-1.16-.64-1.77-.77-.77-.17-1.52-.1-2.24-.32-.53-.16-1.27-.49-1.83-.72-1.45-.59-3.08-1.49-4.47-1.79-1.51-.33-2.39-.26-3.79-.98-1.1-.56-2.2-1.28-3.3-1.84-5.35-2.69-11.15-4.87-15.93-8.62-2.17-1.7-4.65-3.03-6.8-4.61-.43-.32-1.04-.36-1.51-.7s-.8-.9-1.24-1.29c-1.15-1.02-2.47-1.96-3.67-2.94-2.28-1.86-4.55-3.94-6.93-5.51-1.1-.73-2.21-1.47-3.19-2.38-.88-.83-1.71-2.4-4.59.18Z"/>
        <path class="cls-15" d="m808.93,1789.92c.51,1.41,3.21,3.93,4.55,4.96,2.23,1.7,4.72,3.14,7.03,4.79,4.08,2.91,8.52,5.04,12.62,7.87,1.33.92,2.74,1.64,4.05,2.57,1.13.8,2.29,1.72,3.48,2.41,2.17,1.24,3.82,2.91,5.85,4.4.81.59,1.93,1.05,2.77,1.63.89.62,1.95,1.11,2.95,1.65,2.01,1.08,4.2,2.04,6.06,3.29s3.86,2.67,5.48,4.05c1.6,1.37,2.84,3.21,4.57,4.4,4,2.75,8.08,5.45,11.9,8.44,1.8,1.41,3.79,2.79,5.71,4.03,1.99,1.29,3.86,2.96,5.75,4.4,2.97,2.28,7.79,7.26,8.23,10.81.38,2.98.02,6.16-2.18,8.27-1.94,1.86-3.94,3.28-5.19,5.67-.4.75-.43,2.15-.72,2.95-.4,1.15-.59,2.27-.89,3.51-.18.74-.71,1.78-1.09,2.52-1.11,2.19-2.48,2.04-4.62,2.04-2.58,0-4.26-.99-6.61-2-2.58-1.11-5.01-2.26-7.36-3.69-3.9-2.37-7.27-5.66-11.15-8.08-2.25-1.4-4.36-3.04-6.61-4.4-2.38-1.45-4.79-3.03-7.03-4.77-4.03-3.12-8.34-5.97-12.42-8.81-1.94-1.35-4.08-2.36-6.07-3.49-2.09-1.18-3.9-2.49-5.85-3.85-1.96-1.37-3.94-2.68-5.91-4.04-2.1-1.45-3.88-3.57-5.89-5.18s-4.29-2.61-6.01-4.37c-1.55-1.57-3.11-3.55-4.94-4.77-2.79-1.87-3.7-4.63-3.69-7.89,0-.73-.01-1.47,0-2.2.01-.5.03-1.01.04-1.51-.05-.41-.26-.7-.63-.88-.05-1.2.61-2.06.59-3.49-.04-2.91-.39-6.31.72-8.83.65-1.48.6-2.58.92-4.22.21-1.06,1.07-2.3,1.33-3.44.14-.59-.16-1.27-.07-1.86.15-.89.62-1.92.95-2.77.62-1.57,1.27-1.92,3.06-1.57,1.04.21,2.51,1.04,3.53,1.24.68.14,1.41-.02,2.08.12.78.16,1.12.86,2.02.92.05.2.09.39-1.33-.88Z"/>
        <path class="cls-4" d="m1012.54,2004.73c.16-.8,1.55-1.17,2.16-1.49.94-.5,1.69-1.29,2.62-1.79,1.04-.56,1.76-1.5,2.68-2.22,1.16-.91,2.22-1.85,3.29-2.87.46-.44.99-.75,1.45-1.2.54-.53,1.07-.77,1.67-1.18,1.21-.84,2.27-1.88,3.35-2.89.86-.81,1.95-1.4,2.87-2.13.44-.35.75-.88,1.2-1.22.54-.41,1.12-.77,1.67-1.18.49-.36.93-.79,1.43-1.15.17-.12.32-.11.49-.28.22-.22.24-.52.45-.74s.52-.24.74-.46c.17-.16.29-.37.45-.54.49-.49,1.04-.87,1.57-1.28s1.04-.87,1.57-1.3c.53-.43,1.15-.73,1.67-1.19.99-.87,1.83-1.85,2.86-2.64,1.85-1.43,3.85-2.74,5.74-4.1.9-.65,1.8-1.37,2.63-2.1.48-.42.97-.74,1.43-1.2.52-.51,1.16-.69,1.68-1.19.89-.85,1.88-1.73,2.87-2.45,1.16-.84,2.19-1.8,3.4-2.52.35-.21.58-.25.91-.53.24-.21.46-.35.71-.53.19-.14.3-.28.47-.42.29-.24.55-.34.85-.54.19-.13.63-.35.78-.47.25-.21.27-.39.5-.61.19-.18.75-.38.99-.54.35-.22.62-.48.94-.72.44-.33,1-.47,1.45-.76.49-.33.89-.77,1.41-1.08.56-.34,1.15-.62,1.69-1.01.45-.33.77-.74,1.24-1.02,1.11-.66,2.08-1.48,3.19-2.19,1.01-.65,1.95-1.42,2.99-2.06.46-.28.81-.59,1.2-.96.44-.42.98-.64,1.45-1.01.4-.33.72-.61,1.18-.9.49-.31.91-.69,1.38-1.02.69-.48,1.34-1.03,2.01-1.55.27-.21.61-.41.9-.6.41-.27.76-.61,1.2-.84,2.86-1.5,5.28-3.65,7.85-5.62,1.32-1.01,2.7-1.79,4.1-2.63,1.37-.82,2.64-1.84,4.32-1.62,1.47.19,2.54,1.43,3.28,2.64.92,1.52-.61,3.34-1.67,4.48-1.11,1.18-2.48,2.15-3.78,3.11-.79.59-1.56,1.13-2.38,1.67-.73.47-1.39,1.09-2.13,1.55-.81.5-1.67.83-2.4,1.38-.44.33-.98.46-1.43.76s-.91.66-1.38.97c-.83.55-1.58,1.1-2.44,1.55s-1.68,1.03-2.46,1.67c-1.36,1.12-2.81,2.19-4.23,3.17-.76.52-1.63.95-2.4,1.43-.81.51-1.59,1.13-2.4,1.67-.34.23-.64.5-.95.72-.37.25-.8.47-1.19.72-.71.44-1.32.91-1.97,1.38-.3.22-.75.38-1.09.59s-.66.4-1.01.59c-.76.42-1.39,1-2.05,1.5-1.32.99-2.82,1.63-4.17,2.57-1.46,1.01-2.75,2.31-4.3,3.23-1.46.86-2.96,1.74-4.35,2.74-1.57,1.12-2.94,2.46-4.49,3.6-.45.33-.96.63-1.43.95-.39.26-.74.61-1.14.85-.82.48-1.64,1.18-2.46,1.79-1.43,1.08-2.91,1.99-4.3,3.11-.71.57-1.55.99-2.27,1.57-.37.3-.65.61-1.07.87-.24.15-.48.27-.72.41-.3.18-.43.42-.7.61-.36.26-.83.41-1.21.65-.24.15-.48.27-.72.41s-.33.35-.52.49c-.77.56-1.56,1.17-2.35,1.67-.37.24-.6.6-.94.84-.39.28-.81.54-1.21.83-.7.51-1.39,1.06-2.14,1.55-1.51.98-2.91,2.18-4.26,3.35-1.25,1.08-2.59,2.06-3.86,3.1-.75.61-1.58,1.11-2.35,1.67-.33.24-.66.58-1.01.84-.48.35-.92.67-1.43,1.02-.4.27-.66.58-1.07.84-.43.27-.91.51-1.32.82-.98.76-1.98,1.53-2.87,2.4.1-.36-1.1-.1-1.31-.36-.27-.32-.56-.46-.89-.77-.37-.35-.53-.54-.72-1.02-.19-.47.46-1.37.06-1.68Z"/>
        <path class="cls-9" d="m1080.68,1896.43c-.29,0-.59,0-.88,0,.22-.05.37.02.4.24"/>
        <path class="cls-4" d="m1098.61,1895.47c.62-.08.77.24,1.25.43.39.16.53.04.84.34.17.17.27.35.48.5.14.09.35.13.48.22.2.14.62.51.72.71.83,1.55-1.88,2.57-2.81,3.12-1.29.76-2.43,1.66-3.78,2.4s-2.82,1.43-4.12,2.33c-1.3.9-2.82,1.5-4.32,2.15-1.57.69-3.12,1.58-4.72,2.21-.78.31-1.63.59-2.44.9-.47.18-.96.3-1.43.48-.4.15-.9.34-1.25.43-1.7.41-3.37,1.26-4.98,1.96s-3.29,1.28-4.82,2.09c-.81.43-1.55.89-2.33,1.32-.47.26-.97.45-1.46.66-.31.13-.82.61-1.15.44.14-.65,1.03-1.08,1.55-1.42.85-.55,1.66-1.22,2.43-1.89.64-.55,1.34-.93,2-1.44,1.03-.8,2.14-1.51,3.26-2.2s2.25-1.63,3.39-2.39c.47-.31.96-.6,1.39-.96.96-.79,2.04-1.23,3.1-1.89,1.21-.76,2.31-1.79,3.63-2.35,1.04-.44,2.06-1.09,3.11-1.6,1.72-.85,3.31-1.93,4.96-2.75.43-.21.83-.47,1.25-.72.48-.29.95-.44,1.45-.72s.92-.43,1.42-.66c.32-.15.67-.14.98-.23.2-.06.25-.21.45-.26.33-.08.49-.04.79-.17.23-.1.42-.2.65-.3.54-.24,1.11-.49.01-.72Z"/>
        <path class="cls-10" d="m1099.33,1910.06l-.06.21c-.09.02-.15-.01-.18-.1-.42.47-.82.77-1.31,1.09-.4.26-.71.67-1.08.97-.35.29-.81.46-1.2.71-1.13.72-2.27,1.25-3.47,1.81-.65.3-1.19.84-1.81,1.18-.32.18-.66.25-.99.4-.55.24-.75.46-1.19.86-.66.59-1.63.84-2.4,1.25s-1.55.87-2.31,1.38c-1.95,1.28-4.16,2.22-6.22,3.31-2.27,1.2-4.41,2.71-6.65,3.98-1.06.6-1.96,1.39-2.99,2.04-1.1.7-2.13,1.51-3.04,2.44"/>
        <path class="cls-10" d="m1054.86,1936.83c-.18.8-1.57,1.3-2.15,1.73-.64.48-1.18,1-1.9,1.38-.98.52-1.88,1.2-2.88,1.67"/>
        <path class="cls-10" d="m1029.76,1952.85c-.67.23-1.2.94-1.8,1.32s-1.15.76-1.73,1.13c-1.15.74-2.21,1.57-3.4,2.28-.32.19-.62.3-.9.53-.31.25-.56.47-.96.66-.91.43-1.84.8-2.68,1.37-2.34,1.58-4.73,3.03-7.17,4.43"/>
        <path class="cls-10" d="m994.13,1974.85c-.14.44-.79.7-1.14,1.02-.28.25-.58.54-.86.81-.36.33-.7.69-1.11,1s-.63.7-1.07,1.01c-.9.65-1.87,1.22-2.75,1.9-.43.33-.74.72-1.2,1.03-.5.33-.93.76-1.42,1.08-.26.17-.57.21-.83.4-.27.21-.46.44-.76.6-.59.33-1.01.83-1.59,1.14-1.05.56-2.05,1.3-3.04,1.97-.31.21-.65.26-.97.46s-.62.48-.96.68c-.54.31-1.06.67-1.61.96-.68.36-1.17.72-1.73,1.25-.46.44-.98.72-1.44,1.19"/>
        <path class="cls-10" d="m1090.96,1932.53c-.64.22-1.32.81-1.89,1.18-1.31.87-2.72,1.42-4.1,2.16-.98.52-1.84,1.18-2.85,1.67-1.09.53-2.13,1.23-3.17,1.85-2.52,1.52-5,3.15-7.59,4.55-1.27.69-2.51,1.28-3.71,2.09-1.29.87-2.57,1.77-3.94,2.51"/>
        <path class="cls-10" d="m1050.56,1958.11c-.62.06-.97.64-1.43.97-.24.17-.5.24-.72.37s-.48.42-.72.58c-.52.35-.9.84-1.42,1.2-.65.45-1.36.84-2.03,1.3-2.48,1.68-5.04,3.26-7.54,4.91-3.53,2.33-6.75,5.09-10.28,7.41"/>
        <path class="cls-10" d="m1014.69,1983.93c-.71.22-1.46,1.02-2.09,1.43-.78.52-1.49,1.19-2.26,1.69-.41.26-.79.41-1.19.7-.35.26-.73.48-1.09.72-1.02.68-2.07,1.27-3.11,1.91-.97.59-2,1.05-2.91,1.73-.99.73-2.03,1.52-3.11,2.11-2.28,1.24-4.28,2.85-6.4,4.31-1.87,1.29-3.72,2.56-5.61,3.81-.35.23-.73.45-1.07.7-.26.23-.52.46-.78.69-.23.18-.49.29-.78.33-.51.28-.91.68-1.42.97-.4.23-.82.4-1.21.65-1.98,1.29-3.9,2.61-5.92,3.81-.52.31-.89.77-1.42,1.09-.56.33-1,.69-1.51,1.09-.36.28-.74.65-1.12.9-.31.2-.68.26-.96.53"/>
        <path class="cls-10" d="m1050.79,1967.2c4.83-3.04,9.59-6.21,14.53-9.08,1.4-.82,2.75-1.77,4.12-2.65.68-.44,1.28-.99,1.97-1.43.78-.49,1.54-.89,2.29-1.43,2.16-1.56,4.36-3.07,6.6-4.51.9-.58,1.67-1.26,2.51-1.91,1.09-.84,2.42-1.44,3.6-2.17,2.28-1.4,4.42-3.02,6.6-4.56,1.12-.79,2.35-1.46,3.51-2.2.42-.27.75-.59,1.13-.91.53-.45,1.15-.74,1.68-1.19.89-.74,1.85-1.45,2.81-2.1,1.11-.76,2.35-1.36,3.4-2.2"/>
        <path class="cls-10" d="m794.88,1815.47c-.47-.6-.87-.96-1.44-1.45-.49-.42-1.1-.44-1.47-1-.07.62.89,1.13,1.31,1.41.9.6,1.73,1.32,2.58,2.01,1.95,1.58,3.75,3.26,5.77,4.76.69.51,1.44.81,2.11,1.35s1.38.98,2.03,1.53c1.06.9,2.07,1.84,3.08,2.79,1.82,1.72,3.9,2.9,5.92,4.37,1.85,1.35,3.36,3.08,5.15,4.51.93.74,1.61,1.58,2.66,2.18.4.23.84.42,1.21.71.58.45,1,.69,1.61,1.05.73.43,1.32,1.11,2,1.61.78.56,1.4,1.28,2.24,1.78s1.79.84,2.59,1.44c.37.28.67.62,1.04.9.48.36,1.11.54,1.54.96"/>
        <path class="cls-10" d="m810.97,1820.94c2.05,1.53,4.2,2.93,6.19,4.58,1.2.99,2.22,2.18,3.45,3.15,1.47,1.15,3.12,1.98,4.52,3.22,2.66,2.36,5.55,4.47,8.34,6.63,1.15.89,2.41,1.58,3.58,2.45s2.48,1.63,3.6,2.57c1.98,1.66,4.32,2.87,6.37,4.44.53.4,1.08.56,1.62.94.35.25.58.65.94.91.86.61,1.93,1.08,2.83,1.61,1.68.99,3.28,2.08,4.83,3.29.84.65,1.46,1.56,2.32,2.18.58.42,1.73,1,1.93,1.68"/>
        <path class="cls-10" d="m807.43,1802.6c1.34,1.05,2.68,2.03,4.05,3.05,1.05.78,2.08,1.75,3.19,2.4.55.32,1.03.55,1.52.98s1.1,1.37,1.86,1.3"/>
        <path class="cls-10" d="m837.04,1825.12c.21.63.72.89,1.21,1.29.61.49,1.08,1.1,1.67,1.61,1.16,1,2.5,2.08,3.81,2.82,1.39.79,2.74,1.89,3.95,2.97s2.41,2.2,3.76,3.22c1.32.99,2.65,1.86,3.94,2.82,1.02.76,2.13,1.59,3.22,2.25.93.57,1.94,1.11,2.83,1.75.16.12.19.37.38.5.24.17.56.23.82.38.65.38,1.18.8,1.7,1.31,3.01,2.94,6.75,4.95,10.29,7.14,1.51.94,3,2.5,4.26,3.72,1.35,1.31,2.99,2.24,4.51,3.29,1.52,1.05,3.02,2.25,4.52,3.47,1.69,1.38,3.51,2.97,5.45,3.93"/>
        <path class="cls-10" d="m1058.44,1882.73c-.42.21-.85.38-1.29.48-.34.08-.83.4-1.15.46-.6.1-.87.1-1.4.35-.5.23-1.1.4-1.63.56-2.26.7-4.5,1.39-6.76,2.09-2.63.82-5.31,1.51-7.92,2.32-1.67.52-3.3.88-5.02,1.22-2.36.46-4.71,1.07-7.01,1.85"/>
        <path class="cls-10" d="m993.12,1901.07c-.28.33-.88.4-1.27.55-.58.22-1.07.59-1.63.84-.87.39-1.69.73-2.57,1.1-1.82.77-3.67,1.37-5.48,2.11-.89.37-1.83.53-2.73.87-1.07.4-2.07.95-3.13,1.37-2.15.85-4.42,1.31-6.56,2.18-2.12.86-4.41,1.19-6.57,1.92s-4.47,1.66-6.75,2.33c-2.54.74-5.01,1.82-7.49,2.75-2.49.93-4.87,1.89-7.4,2.73-3.03,1.01-5.9,2.48-8.94,3.38-.82.24-1.44.71-2.23.97-.94.31-1.64.79-2.54,1.17-.85.36-1.57.68-2.37,1.15-.98.58-2.01,1.19-3.15,1.29"/>
        <path class="cls-10" d="m905.26,1952.24c3.2-.24,6.06-1.33,9-2.57,1.51-.63,3.05-1.26,4.52-1.97,2.18-1.05,4.46-1.59,6.68-2.53,3.54-1.5,6.93-3.02,10.65-4.01,1.95-.52,3.76-1.5,5.73-1.94,1.59-.35,3.05-.61,4.61-1.14"/>
        <path class="cls-10" d="m973.81,1928.42c5.52-1.84,10.72-4.45,16.25-6.28,2.87-.95,5.91-1.74,8.69-2.92,1.6-.68,3.09-1.25,4.77-1.74,1.37-.4,2.77-.89,4.09-1.44,1.11-.46,2.08-1.17,3.19-1.63,1.34-.56,2.8-.97,4.18-1.44,3.06-1.04,6.2-2.12,9.36-2.81,2.82-.62,5.53-1.92,8.27-2.82,3.21-1.05,6.21-2.69,9.43-3.7"/>
        <path class="cls-10" d="m1054.9,1899.14c1.15-.42,2.39-.77,3.47-1.36,1.19-.64,1.9-1.14,3.29-1.22"/>
        <path class="cls-10" d="m996.33,1930.67c3.8-1.37,7.83-2.01,11.59-3.54"/>
        <path class="cls-10" d="m1042.03,1915.87c1.86-.09,4.19-1.13,5.93-1.77.99-.36,2.1-.66,3.02-1.2.79-.46,1.4-.92,2.3-1.22,1.68-.56,3.26-1.28,4.91-1.93,2.09-.82,4.3-.97,6.37-1.92"/>
        <path class="cls-6" d="m908.55,1853.6c1.87,0,3.79.11,5.65-.03,2.78-.21,5.45-.96,8.17-1.49,1.31-.26,2.64-.36,3.94-.69,1.56-.4,3.05-1.01,4.65-1.28,5.98-1.01,12.01-1.3,17.95-2.6,2.84-.62,5.63-.89,8.36-1.96,3.21-1.26,6.46-1.41,9.75-2.22,5.62-1.38,11.12-3.27,16.71-4.73,1.61-.42,3.11-.83,4.67-1.4,1.37-.51,2.64-1.14,4.09-1.41,1.6-.3,3.1-.5,4.66-.99,1.31-.42,2.66-.56,3.99-.89,1.86-.46,3.78-.99,5.73-1.33s3.74-1.12,5.66-1.36c.81-.1,1.63-.23,2.42-.42,2.51-.61,4.99-1.48,7.6-2,2.37-.48,4.87-.45,7.16-1.04.47-.12.92.03,1.36-.07.36-.08.35-.33.65-.42,1.46-.4,3-.7,4.5-.95,2.42-.41,4.95-1.23,7.34-1.33,1.54-.06,3.22-.94,4.7-1.31,1.37-.34,2.64-.64,4.01-.98.67-.17,1.39-.47,2.02-.63s1.3-.14,1.97-.26c.53-.09,1.2-.52,1.83-.63.87-.16,1.87-.37,2.7-.67.14-.05.68-.33.75-.35.41-.09.87.02,1.27-.07s.44-.4.85-.49c.44-.1.95.15,1.39.05.61-.14,1.29-.65,1.86-.82.73-.22,1.47-.27,2.15-.53.78-.31,1.24-.38,2.12-.56.09-.02.34-.33.52-.37.54-.13,1.16.03,1.71-.08.66-.13,1.55-.69,2.33-.82.3-.05.63.12.92.05.56-.13.62-.67,1.32-.47"/>
        <path class="cls-6" d="m996.17,1687.75h.45"/>
        <path class="cls-6" d="m1027.01,1828.57c1.21.25,1.48,2.44,1.79,3.37.21.62.25,1.14.43,1.78.21.75.48,1.13.46,2-.02.82.3,1.08.47,1.77.16.65-.02,1.59-.02,2.26s-.18,1.61-.02,2.26c.08.35.52.51.52.87s-.41.41-.46.71c-.23,1.42.19,2.98-.08,4.39-.05.28-.36.38-.43.69-.1.41.08.95.03,1.37-.07.64-.3,1.15-.46,1.78s-.39,1.13-.46,1.78c-.04.35.11.8.03,1.14-.07.3-.29.52-.37.75-.44,1.4-.74,2.63-1.44,3.92"/>
        <path class="cls-6" d="m1032.38,1828.12c1.24-.03,1.59,2.07,1.83,2.86.38,1.23,1.15,2.58,1.63,3.85.51,1.34.54,2.62.91,4.01.34,1.3.1,2.9.1,4.25v4.25c0,1.31.29,2.99.02,4.26-.23,1.06-.67,2.16-1.01,3.24-.15.46-.71.92-.82,1.42-.16.73-.09,1.12-.42,1.81"/>
        <path class="cls-6" d="m1068.14,1820.08l.36.09c.06.52.38.96.59,1.42.24.52.28.82.44,1.39.35,1.33,1.17,2.66,1.32,4.03.14,1.3.44,2.47.43,3.8s0,2.68,0,4.02c0,1.27,0,2.53,0,3.8,0,.6.16,1.46.02,2.03-.13.53-.41.71-.48,1.31-.16,1.39-.12,2.71-.41,4.06-.23,1.03-.87,1.95-1.13,3.07.01-.16-.07-.3-.24-.41"/>
        <path class="cls-6" d="m1074.85,1816.95c.43,2.79,1.67,5.42,1.79,8.27.04.84.37,1.42.46,2.24.08.64-.02,1.36-.02,2.01,0,.65-.09,1.37-.02,2.01.1.82.45,1.38.47,2.24.03,1.44-.48,2.61-.45,4.02.02.85-.16,1.24-.35,2.01-.16.64-.44,1.19-.57,1.77-.07.3.12.65.05.94-.08.36-.34.38-.43.69-.16.57-.34.97-.5,1.5-.38,1.26-.81,2.71-.96,3.97l-.37.07"/>
        <path class="cls-2" d="m963.77,1847.61c-.78.37-1.91.92-2.69,1.09-1.02.23-2.08.18-3.1.46-2.29.63-4.59,1.8-6.76,2.36-2.22.58-4.52.87-6.72,1.46-1.08.29-2.13.62-3.21.88-.61.15-1.35,0-1.97.12-.8.14-.99.42-1.64.59-4.07,1.08-8.33,2.22-11.22,4.78-1.04.92-2.19,1.81-2.89,2.84-.34.5-.99,1.35-1.11,1.87-.1.42.04.78.05,1.2.02.78-.44,1.28-.55,2.03s.17,1.7.23,2.47c.03.44-.08,1.1.08,1.51.08.2.55.44.59.54.5,1.44.87,3.7,3.23,4.01,1.12.15,2.26-.12,3.42-.04,1.49.1,2.8.27,4.31.06,1.83-.25,3.84-1,5.66-1.45,1.76-.44,3.46-.79,5.28-.95,2.15-.18,4.83-.05,6.83-.85,1.17-.47,1.5-.62,2.75-.96.5-.14.71-.39,1.4-.51.53-.09,1.06-.04,1.59-.15.44-.09.46-.43.96-.56.57-.15,1.25-.09,1.84-.23.13-.03.47-.4.73-.47.82-.22,1.86.06,2.68-.16.56-.15.63-.45,1.17-.63.32-.1,1.46-.18,1.65-.22.8-.18,2.24-.37,3-.61.46-.14.52-.42.94-.54,1.94-.53,4.01-1.69,6-2.02,1.35-.22,2.55-.64,3.89-.8,1.27-.15,2.54-.09,3.76-.39.33-.08.92-.39,1.37-.5,1.44-.34,2.64-.48,3.99-1.19.9-.48,1.66-.8,2.59-1.19,1.91-.78,3.24-1.84,4.68-3.1,1.71-1.49,1.63-2.74,2.33-4.4-.94-.35-.4-1-.63-1.61-.19-.5-.63-1.07-.88-1.6-.25-.54-.49-.85-.69-1.48-.26-.8-.74-1.14-1.32-1.77-.72-.78-1.03-2.11-1.98-2.73s-3.07-.75-4.34-.64c-.85.08-1.78.05-2.62.19s-1.11.48-1.87.68c-1.58.42-3.91.28-5.58.41-.9.07-2.11-.02-2.97.21-.76.2-.99.54-1.87.68-1.84.3-3.45.13-5.02.79-.6-.76-2.26.13-3.04.37-.48.15-.76.42-1.31.57-.65.18-1.62.1-1.04-.44Z"/>
        <path class="cls-8" d="m969.34,1852.26c-1.39.03-2.64.32-3.85.84-.66.28-1.08.31-1.75.49s-1.2.55-1.83.85c-.57.27-1.1.56-1.73.73-.39.1-.75.14-1.13.22-.32.06-.76.3-.98.35-.71.15-1.42.01-2.14.2-.88.23-1.5.36-2.46.35-1.57-.01-2.63.46-4.25.45-.73,0-1.44-.04-2.14.1-.55.11-1.44.59-1.99.7-2.56.51-5.16,1.35-7.49,2.35-1.24.53-2.73.62-4.06,1.33-.47.26-.86.61-1.32.89-.59.37-1.13.55-1.67,1.01-.75.64-1.62,1.44-2.24,2.21-1.01,1.28-.56,3.08-.13,4.37.96,2.89,5.72,2.58,8.2,2.18,2.4-.39,4.63-1.59,7.01-2.07,2.99-.6,5.96-1.06,8.96-1.55,2.37-.39,4.87-.52,7.17-1.22,1.69-.51,3.35-.99,5.07-1.43,2.43-.62,4.5-2.06,6.99-2.52,1.44-.27,2.9-.36,4.34-.61,1.57-.28,3.05-.85,4.61-1.15,2.57-.49,5.84-.64,7.98-2.3,1.07-.83,2.63-2.51,2.32-4.09-.2-1.02-1.27-2.64-1.93-3.43-1.16-1.39-2.66-.99-4.36-1.01-.28,0-.64-.05-.9-.01-.62.08-.76.35-1.31.48-.68.17-1.76-.4-2.26.23-.42-.66-.65.04-1,.1-.56.09-1.13.02-1.7.09-1.03.13-1.73.46-2.9.46-1.05,0-2.25-.16-3.25.1-.88.23-1.75,1.26-2.69,1.33-.03.12-.06.24.81-.98Z"/>
        <path class="cls-8" d="m935.37,1718.15l.09-.36.36-.09"/>
        <path class="cls-8" d="m804.39,1910.82c1.12.11,2.21,1.45,3.13,2.01,1.22.75,2.32,1.77,3.58,2.47,2.48,1.38,5.28,2.7,7.62,4.69.85.72,1.83,1.15,2.68,1.77.95.69,1.68,1.57,2.67,2.24,2.04,1.38,3.85,2.96,5.59,4.7,1.58,1.58,3.28,2.96,4.91,4.47,2.01,1.86,4.25,3.71,6.5,5.25,1.6,1.1,2.97,2.86,4.35,4.24,1.56,1.56,3.23,3.05,4.91,4.47,1.85,1.57,3.92,3.12,6.03,4.24,1.14.6,2.47,1.56,3.36,2.47.76.77,2.57,3.82,3.69,3.46"/>
        <path class="cls-8" d="m915.7,1984.59c.93.2,2.36,1.99,3.15,2.58,1.16.87,2.32,1.98,3.55,2.56s2.5,1.16,3.68,1.9c.9.56,2.78,1.19,3.03,2.35.67-1.84,5.64-4.62,7.17-5.75,2.79-2.07,5.77-3.76,8.14-6.32,2.08-2.25,4.6-3.9,6.96-5.81,2.02-1.63,4.05-3.33,5.9-5.14,1.11-1.09,2.55-1.95,3.8-2.9,2.47-1.89,5.13-3.71,7.7-5.48,1.16-.8,2.09-1.89,3.24-2.68,1.24-.85,2.38-1.68,3.59-2.57"/>
        <path class="cls-8" d="m804.83,1911.27c1.19-.15,1.86-1.25,2.67-2.01,1.96-1.82,4.27-2.93,6.61-4.31,1.22-.72,2.46-1.49,3.66-2.17.92-.52,3.28-1.64,3.6-2.69"/>
        <path class="cls-8" d="m1063.67,1902.78c-.44.36-.58.8-.37,1.3.71-.09,1.55-1.42,2.11-1.93,1.42-1.31,2.93-2.45,4.3-3.83.69-.7,5.55-3.63,4.46-4.45-.45-.34-1.47.16-2.02-.09-.47-.22-1.1-1.12-1.54-1.49-.9-.75-1.7-1.55-2.57-2.35-.78-.72-1.48-1.48-2.23-2.24-1.14-1.14-1.82-1.43-3.47-1.45"/>
        <g>
          <path class="cls-4" d="m791.84,1699.47c.03-.11-.08-.32-.12-.41-.05-.12-.08-.25-.15-.38-.13-.27-.21-.59-.32-.85-.23-.54-.44-1.14-.58-1.75-.09-.35-.12-.7-.21-1.05-.04-.15-.03-.31-.03-.47,0-.22-.08-.27-.12-.46-.04-.16.03-.37.01-.53-.03-.19-.12-.33-.12-.53-.02-.37-.11-.67-.11-1.05,0-.18.02-.31.06-.47.04-.14.05-.29.08-.44.07-.27.22-.41.41-.64.09-.1.14-.23.21-.31.03-.03.26-.18.31-.22.1-.07.2-.07.29-.17.14-.14.26-.28.41-.41.89-.8,1.8-1.56,2.75-2.28.28-.21.55-.58.79-.85.23-.25.4-.54.61-.79.15-.18.34-.32.5-.49.21-.24.36-.54.56-.79.74-.96,1.3-2.01,2.04-2.98.35-.45.79-.85,1.11-1.31.22-.31.66-1.07,1.08-1.03.23.03.69.26.88.39.27.17.56.3.84.44.25.12.55.23.79.38.11.07.28.13.38.2.11.08.18.22.29.3.46.33,1.11.54,1.61.72.54.2,1.09.47,1.63.7.59.26,1.22.44,1.74.85.47.37,1.12.51,1.66.79.21.1.41.22.61.32.29.15.6.19.91.32.25.11.46.25.7.38.14.08.32.16.47.21s.32.06.47.11c.55.2,1.06.55,1.57.82.57.3,1.19.36,1.76.52.23.06.45.21.67.32.12.07.27.22.39.26.1.03.19-.02.29,0,.08.02.11.08.18.11.61.22,1.25.36,1.86.48.19.04.33.11.53.12.16,0,.26.06.38.09.35.09.72.19,1.07.27.24.06.49.18.74.25.04,0,.08.08.14.1.09.02.2-.01.29,0,.13.02.32.13.48.17.57.13,1.23.29,1.75.53.25.11.51.1.76.23.3.15.57.21.88.34.28.12.55.2.85.27.26.06.54.25.82.35.54.2,1.02.45,1.54.67.31.13.63.29.94.35.34.07.7.16,1.03.26.64.18,1.1.85,1.67,1.23.53.36,1.1.6,1.64.96.25.17.44.35.69.5.28.16.6.23.86.41.23.15.44.36.67.5.21.13.47.25.69.35.59.26,1.17.49,1.73.85.52.33,1.06.7,1.66.88.15.05.33.05.47.08.12.03.32.03.44.08.25.1.44.37.7.47.56.23,1.11.56,1.66.82.26.12.57.2.57.55,0,.13-.15.28-.19.38-.05.16-.07.28-.14.44-.13.29-.2.54-.38.79s-.27.58-.44.85c-.18.29-.45.55-.68.82-.2.25-.33.54-.52.79-.33.43-.78.78-1.11,1.21-.36.47-.75.99-1.05,1.5s-.6,1.06-.87,1.61c-.12.24-.33.44-.44.68-.15.32-.22.68-.38.98-.61,1.2-1.11,2.46-1.49,3.75-.08.28-.27.57-.34.87-.08.33-.16.64-.25.99-.17.69-.34,1.31-.55,1.99-.2.63-.35,1.18-.58,1.78-.26.68-.41,1.32-.76,1.96-.32.6-1.1.7-1.72.7-.28,0-.67.07-.94,0-.09-.02-.1-.1-.18-.11-.07-.02-.16.01-.23,0-.21-.06-.28-.12-.52-.12-.34,0-.61-.1-.93-.12-.2,0-.33,0-.53-.06s-.38-.03-.57-.07c-.12-.03-.28-.09-.42-.13-.15-.04-.33-.16-.47-.24-.29-.16-.58-.3-.87-.45s-.57-.24-.88-.36c-.14-.06-.27-.15-.4-.22-.19-.1-.39-.17-.59-.24-.27-.09-.54-.25-.79-.31-.29-.07-.58-.14-.85-.26-.24-.11-.51-.15-.76-.23-.29-.1-.57-.19-.88-.29-.62-.2-1.18-.63-1.81-.82-.57-.17-1.06-.45-1.59-.75-.21-.12-.51-.22-.74-.25-.22-.03-.23,0-.41-.11-.13-.08-.29-.2-.41-.29-.24-.18-.51-.42-.81-.5-.13-.04-.3-.1-.42-.13-.07-.02-.16.01-.23,0-.09-.03-.16-.08-.24-.11-.52-.15-1.06-.44-1.51-.77s-.98-.57-1.46-.88-.98-.46-1.43-.79c-.13-.1-.23-.1-.35-.23-.08-.08-.15-.16-.23-.23-.19-.16-.43-.29-.64-.41-.23-.14-.47-.23-.71-.35-.28-.13-.56-.28-.85-.41-.27-.12-.46-.29-.7-.49-.15-.12-.3-.26-.45-.39-.12-.11-.23-.14-.35-.23-.44-.32-.93-.62-1.43-.88-.56-.3-1.09-.67-1.61-.99-.57-.35-1.11-.75-1.67-1.11-.52-.34-1.07-.57-1.63-.81-.32-.14-.63-.29-.93-.38s-.66-.21-.94-.38c-.31-.19-.49-.42-.83-.56-.24-.1-.46-.24-.69-.35-.47-.24-.88-.59-1.31-.91-.23-.17-.57-.31-.82-.47-.28-.17-.6-.31-.91-.46-.52-.26-.98-.51-1.49-.76-.22-.11-.37-.26-.56-.44-.2-.2-.4-.33-.62-.5-.19-.15-.32-.39-.52-.53-.1-.07-.2-.09-.3-.17s-.18-.21-.29-.28c-.03.02-.06.05-.21-.4Z"/>
          <path class="cls-3" d="m866.52,1747c.21,1.21-.63,2.14-.76,3.3-.11,1.01-.12,1.68-.34,2.57-.21.83-.58,1.61-.92,2.38-.41.94-.54,1.93-.9,2.78-1.26,2.97-4.63,4.86-7.52,5.69-3.41.98-6.97,2.24-10.29,3.65-1.38.58-2.7,1.16-4.04,1.83-.58.29-1.46,1.08-2.08,1.22-.46.11-.99-.08-1.43.04-.55.15-1.02.58-1.51.69-.91.2-1.66.15-2.51.42-.9.28-1.99.76-2.94,1.11-1.82.68-3.44,1.35-5.14,2.2-3.1,1.55-6.31,1.98-9.17,4.04-1.43,1.03-2.79,2.12-4.24,3.12-1.35.93-2.72,1.63-4.2,2.39-3.38,1.73-7.25,2.73-10.58,5.14-2.46,1.78-4.84,4.93-6.12,7.52-.77,1.57-1.61,2.98-2.39,4.58-.48,1-1.04,2.24-1.3,3.31-.22.95-.64,1.83-.83,2.63-.24,1.03-.66,2.19-.84,3.24-.17.98.13,1.94-.13,2.94-.3,1.13-.58,1.69-.57,2.94.02,1.17.17,2.53.01,3.69-.14,1.07-.56,1.52-.78,2.52-.19.88.07,2.05.03,2.96-.06,1.3-.56,2.09-.78,3.3-.19,1.1.03,2.55.04,3.67.01,2.09-.47,3.86-.71,5.89-.13,1.07-.5,1.54-.77,2.53-.12.43.04.98-.04,1.43s-.59.61-.71,1.12c-.13.56.08,1.24-.02,1.81-.07.42-.54.43-.61.86-.08.45.08,1-.04,1.43s-.5.92-.59,1.24c-.26.88-.51,1.88-.73,2.77-.13.52-.06.98-.16,1.48-.13.66-.45,1.11-.57,1.61-.23.93-.51,1.85-.73,2.77-.18.74-.62,1.79-.73,2.37-.43,2.14-.5,3.99-.96,6.08s-1.39,3.99-1.41,6.23c0,1.05-.41,1.6-.57,2.37-.24,1.14-.17,2.31-.16,3.51,0,.46.07,1.05.02,1.48-.11.84-.45,1-.59,1.61-.26,1.15.15,2.42-.13,3.54-.25,1.04-.65,1.31-.77,2.53-.11,1.13-.3,1.95-.73,2.94-.72,1.63-1.47,3.38-2.29,5.05-.82,1.66-1.32,3.24-2.11,4.86-.71,1.45-.74,1.43.76,2.22,1.13.59,1.65.48,2.91.68,2.04.33,4.53,1.62,6.44,2.43.74.31,1.52,1.14,2.33,1.32,1.16.26,2.53-.29,3.7-.07,1.07.19,1.83.85,2.66,1.41s1.69,1.59,2.7,2.03c.83-.83.37-1.67.5-2.69s.37-1.25.77-2.16c.61-1.38.85-2.96,1.47-4.4,1.21-2.8,1.7-6.08,2.24-9.13.12-.67.59-1.03.69-1.88.14-1.13.11-1.44.53-2.4.27-.61.82-1.37.95-1.98l-.08-1.55c.05-.4.25-.68.61-.85.17-.68.63-1.69.73-2.2.17-.88.08-1.74.33-2.61.15-.52.98-1.28,1.14-1.8.25-.85.17-1.65.17-2.55,0,1.88-.03,3.77,0,5.65.02,1.76-.75,2.65-.73,4.41.05,3.67,0,7.34,0,11.01v11.01c0,3.28-.53,7.22.61,10.07-1.06.7-.9,2.01.07,2.45,1.33.6,1.95-.59,2.95-.82.48-.11,1.06.19,1.55.08s.73-.75,1.15-.74c1.04.04,1.94.62,3.21.68,2.35.1,3.85,1.51,6.24,1.49,2.49-.02,5.26-.33,7.72-.02,1.99.25,3.6,1.07,5.87.77.41-.05,2.5-.44,2.79-.88.74-1.11-.49-2.48-.62-3.52-.26-2.07-.75-3.64-.72-5.89.03-1.55-.47-2.21-.77-3.67-.25-1.22-.02-2.51-.33-3.67-.55-2.07-.37-4.44-.94-6.61-.32-1.24.02-2.43-.15-3.69-.15-1.12-.62-1.78-.77-2.9-.16-1.2.12-2.34-.15-3.52-.04-.19-.53-.53-.61-.86-.15-.62.03-1.59.04-2.24,0-1.1-.01-2.2,0-3.3.02-1.53-.47-2.03-.77-3.27-.29-1.19.19-2.48-.13-3.71s-.58-1.98-.57-3.3c0-1,.27-2.37.04-3.34-.16-.66-.65-.73-.81-1.39s.03-1.58.04-2.24c0-1.1.01-2.2,0-3.3-.01-1.16.39-1.87.57-2.73.55-2.59-.79-4.78-.29-7.18.45-2.13-.08-4.59.42-6.64.14-.56.62-.63.71-1.12.1-.58-.1-1.25.02-1.81.16-.72.88-1.78,1.31-2.36.98-1.33,2.66-2.94,3.87-4.04.74-.67,1.6-.94,2.4-1.43.91-.55,1.58-1.22,2.73-1.51,1.22-.3,2.51.15,3.7-.13.91-.21,1.75-.67,2.74-.93.77-.2,1.33-.59,2.36-.57.69.01,1.53.1,2.22.01s1.07-.43,1.61-.59c1.11-.32,2.34-.19,3.5-.17s1.72-.5,2.63-.67c2.35-.44,5.22-.1,7.64-.07,1.16.02,1.72-.5,2.63-.67,1.02-.19,2.18-.08,3.24-.07,1.56.03,1.64-.46,2.9-.77,1.19-.29,2.57-.04,3.71-.33.86-.22,1.82-.35,2.77-.53.69-.13,1.84-.98,2.53-1.14,1.15-.27,2.35-.74,3.5-.94.48-.08,1.03.19,1.51.08.63-.14.77-.67,1.39-.81.72-.17,1.56.24,2.28.08.36-.08.64-.56.86-.61,1.19-.3,2.4-.27,3.54-.9,1.47-.82,2.96-1.86,4.19-3.11.6-.61,1.19-1.29,1.83-1.84.68-.58,1.43-.81,2.04-1.33.53-.46,1.14-1.69,1.63-2.32.76-.98,1.42-2.09,2.02-3.14,1.13-1.98,1.83-4.48,2.2-6.59.24-1.37.68-2.63.74-4.05.06-1.32-.12-2.6.16-3.87.04-.16.53-.55.61-.86.18-.74-.03-1.83-.04-2.61-.02-1.61.51-2.56.77-4.04.23-1.33-.04-3.06-.04-4.4,0-1.11.3-2.63.04-3.71-.14-.56-.62-.63-.71-1.13-.15-.81.16-1.75-.02-2.54-.22-.97-.67-1.83-.93-2.9-.32-1.31-.81-2.67-1.14-3.83s.15-2.4-.13-3.54c-.16-.66-.65-.73-.81-1.39s.03-1.58.04-2.24c0-1.35,0-2.69,0-4.04,0-2.78-.81-4.7-.7-7.45-1.73,1.98-4.82,3.84-7.36,4.16-1.49.19-3.66.2-5.17,0-1.02-.13-1.25-.57-2.15-.79s-2.05.18-2.99.05c-1.02-.13-1.25-.57-2.15-.79-.94-.23-2.07.3-3.01.08-1.21-.28-2.46-1.03-3.61-1.53-1.39-.6-3.18-.79-4.59-1.27-2.04-.69-3.54-.92-7.18-2.38Z"/>
          <path class="cls-16" d="m905.1,1764.35c-.35.2-.64.21-1.01.44-.31.19-.71.48-1.03.59-.35.11-.76.09-1.11.25-.56.24-1.08.59-1.66.83-.59.24-1.19.36-1.79.51-.13.03-.28-.05-.41-.04-.55.05-1.09.4-1.61.57-.79.27-1.36.61-2.19.6-.39-.01-.87.07-1.24,0-.39-.07-.76-.32-1.13-.41-.65-.15-1.29-.27-1.94-.39-.39-.08-.65-.24-1-.35-.29-.09-.64-.07-.93-.23-.28-.13-.64-.32-.91-.49-.13-.08-.17-.29-.28-.36-.09-.07-.25-.04-.33-.11-.63-.43-1.21-.81-1.87-1.15-.29-.15-.63-.19-.92-.27-.29-.09-.61-.28-.91-.41-1.01-.44-2.3-.55-3.44-.63-.28-.01-.59.04-.87.01-.41-.01-.73-.21-1.15-.23-.35-.03-.8.09-1.15.01-.29-.08-.41-.2-.77-.24-.71-.08-1.32,0-2.04,0-.68,0-1.11-.16-1.71-.23-.17-.03-.4.05-.57.01-.15-.04-.28-.16-.39-.19-.29-.09-.57.01-.85-.04-.25-.04-.44-.21-.68-.25-.19-.03-.37.04-.55-.01-.16-.03-.17-.17-.36-.21-.15-.04-.32.05-.47.03-.31-.08-.43-.21-.79-.24-.39-.04-.65-.19-1.03-.24-.39-.07-.53-.08-.89-.23-.29-.11-.6-.16-.91-.27-.29-.12-.63-.28-.92-.35-.35-.09-.68-.01-1.03-.08-.63-.12-1.33-.37-1.71-.88-.36-.51-.44-.97-.44-1.59-.01-1.16,1.05-2.18,1.31-3.24.09-.36.21-.71.29-1.08.07-.36-.04-.72.04-1.08.01-.09.16-.13.19-.27.03-.15-.07-.33-.03-.48.09-.39.25-.41.24-.89.31-.07.61-.37.89-.47.41-.13.77.17,1.15.25.13.03.27.01.39,0,.03-.44.04-.89.13-1.35.15-.67.53-1.03.57-1.99.04-.73-.01-1.48,0-2.22,0-1.74-.08-2.94-.73-4.4-.05-.12-.11-.23-.15-.35-.4-1.07-.39-2.04-.65-3.26-.25-1.19-1.24-2.91-1.78-4.1-1.03-2.35-1.55-4.72-2.56-6.97-1.19-2.62-1.47-5.01-1.47-8.07,0-1.41-.37-3.44-.04-4.8.05-.24.17-.41.31-.57.2-.25.41-.47.51-.83.23-.93-.31-2.07-.08-3,.15-.6.68-.8.81-1.4.16-.72-.07-1.47.12-2.23.43-1.71.87-3.44,1.28-5.14.73-3.04,1.65-5.83,2.78-8.82,1.11-2.96,2.8-5.87,3.87-8.77.51-1.36.6-2.32,1.63-3.51.89-1.03,2.04-2.27,2.16-3.71.2-.05.4-.09,2.07-1.61-.68.35-1.96,1.04-3.03,1.36-.43.13-.81.2-1.11.16.47-.73,1.48-.83,2.14-1.32.73-.55,1.15-1.39,1.96-1.87,2.06-1.21,4.71-1.15,7.01-1.63,2.07-.44,4.39-.92,6.05.55,1.71,1.49,2.54,3.1,3.67,4.98.92,1.51,1.8,2.95,2.74,4.4.24.35.77.48.97.85.31.51-.05.89.13,1.35.4.99,1,1.94,1.48,2.91.87,1.74,1.33,3.48,2.2,5.14.49.93.55,1.52.8,2.56.17.67.59,1.15.71,1.84.12.71-.24,1.53-.08,2.24.28,1.19.79,1.49.77,2.9-.01.87-.09,1.86-.08,2.78.01.32.03.61.07.91.15,1.17.61,1.74.76,2.9.17,1.29-.01,2.76-.01,4.06,0,1.09-.01,2.2,0,3.3,0,.65.19,1.63.04,2.24-.08.32-.57.69-.61.87-.52,2.46-.16,5.35-.16,7.9,0,2.32.03,4.66,0,6.98-.01,1.23.21,1.99.52,3.06.04.41.15.84.23,1.24h0c.08.85.03,1.72,0,2.58v.04c.01.07.03.15.03.24-.01.36-.04.73.05,1.08.07.25.32.6.37.87.05.21-.04.45.01.67.04.16.15.27.19.39.11.33.2.72.28,1.08.17.72.47,1.43.45,2.16-.01.49.15.6.24,1s.08.76.21,1.16c.11.29.15.6.23.91.09.32.23.57.35.89.08.24.27.6.32.83.04.21-.04.45,0,.67.04.13.17.29.19.39.08.35-.04.75.04,1.09.08.33.24.48.24.89,0,.49.17.79.24,1.25.04.32-.11.71-.03,1.03.08.31.21.43.24.79.04.36.17.48.24.79.05.21-.08.48-.03.69.04.13.17.19.19.27.09.36.03.71.05,1.09.04.67.32,1.39.51,2.04.31.99,1.27,2.32-.04,3.07Z"/>
          <path class="cls-13" d="m861.38,1619.3c-1.43-.69-2.29-.79-3.69.34-.97.79-2.12,2.06-2.83,3.05-.81,1.13-1.04,2.69-1.57,3.93-.58,1.35-.86,2.82-1.65,4.26-.58,1.06-1.08,2.33-1.8,3.3-.68.93-1.77,1.74-2.58,2.55-1.55,1.55-4.19,3.4-4.79,5.48-.51,1.79-.03,3.3.4,4.97.37,1.4.37,3.7.18,5.15-.22,1.67-1.01,2.38-.59,4.22.36.17.56.46.61.86l-.08,1.55c.12.54.57.9.8,1.41.88,2.02,1.4,5.37,3.45,6.83.97.69,2.08,1.45,3.12,2.02,1.14.62,3.88.16,4.62,1.32,1.89-.72,2.5-.14,4.57.15,1.75.25,3.03-.05,4.57.58.52-1.03,2.37-.22,3.16.1.34.14,1.2.51,1.46.74.81.68.34.33.9,1.3.62,1.08,1.16,1.85,1.3,3.1.16,1.42-.02,2.99-.02,4.42-.56-.08.68-.62.79-.17,2.28,1.21,6.05-3.51,7.65-4.97s5.78-5.06,8.18-4.35c-.58-.48-.31-.88-.46-1.53-.14-.59-.43-1.15-.57-1.63-.51-1.8.42-2.61.59-4.22.28-2.71,1.73-4.96,2.73-7.52.44-1.12,1.2-2.62,1.48-3.67.2-.73.07-1.32.15-2.06.1-.97.59-1.3.79-2.14.27-1.11.1-3.21-.2-4.28-.16-.58-.5-.84-.59-1.61-.11-.97.07-1.84-.15-2.79-.12-.53-.51-.88-.59-1.61s.01-1.34-.14-2.06c-.07-.31-.43-1.22-.55-1.61-.28-.9-.61-1.79-1.12-2.61-1.37-2.19-2.51-4.4-4.04-6.51-1.57-2.18-3.91-4.22-5.9-5.94-1.93-1.68-3.77-3.39-6.19-4.05-.36-.1-.8.14-1.16.06-.4-.09-.57-.53-.86-.61-.77-.23-2.05-.65-2.79-.75-1.57-.21-2.15,1.05-3.61,1.36-.88.19-1.45-.13-2.27.3-.47.25-.97.84-1.44,1.13s-1.68.52-2.04.86c-.76.74,3.52.53,2.77,1.34Z"/>
          <path class="cls-16" d="m903.96,1737.72c-.08-.4-.19-.83-.23-1.24.01.08.03.16.05.24.08.32.13.65.17,1Z"/>
          <path class="cls-14" d="m880.47,1705.16c.07.56-.11.78-.57.68-.29-.86-.06-1.65-.23-2.51-.18-.95-.65-1.54-.69-2.56-.04-.81.08-1.27-.14-2.04-.18-.61-.73-.81-.63-1.65.05-.45.63-1.73.79-2.18s.45-1.24.57-1.63c.42-1.37.56-2.27,1.45-3.53,1.05-1.49,3.43-4.24,5.3-4.44,2.67-.29,4.98,4.11,6.26,5.95.4.57.79.79,1.12,1.42.2.38.34,1.23.54,1.67.47,1.04,1.27,2.17,1.58,3.19.42,1.4.81,2.43.8,3.97,0,.43.22,1.88.05,2.25-.51,1.16-.88.38-1.91.66-2.4.64-4.58,1.69-6.94,2.6-.8.31-1.41.13-2.25.32-.62.14-.76.66-1.39.81-1.14.28-4.51-1-3.71,1.43"/>
          <path class="cls-14" d="m790.93,1690.49c-.03,1.44.31,1.99.66,3.31.24.89.65,1.69.84,2.52.21.9-.41,1.97.11,2.82.48.79,1.78,1.12,2.51,1.53,3.1,1.74,6.49,3.11,9.51,5.21,3.3,2.3,6.51,4.7,10.03,6.44,3.49,1.73,7.37,2.65,10.87,4.38,1.64.81,3.21,1.82,4.92,2.59.75.34,1.39.44,2.22.72.58.2,1.75,1.53,2.38,1.39.88-.19.82-1.56,1.08-2.3s1.11-1.39,1.32-1.99c.4-1.1.4-1-.77-1.87-.91-.67-1.89-1.34-2.83-1.92-3.07-1.88-5.99-3.82-8.78-5.95-3.19-2.43-7.29-3.61-10.76-5.71-3.58-2.16-7.64-3.2-11.54-4.75-2.03-.81-3.72-1.57-5.73-2.18-.32-.1-.81-.47-1.24-.59-.63-.18-1.24-.11-1.86-.34-.76-.28-2.03-.74-2.1-1.68,2.71-.38,3.5-3.68,4.84-5.5.81-1.1,1.72-1.8,2.41-3.03.38-.67,1.35-3.11,1.86-3.36.89-.44,2.76,1.13,3.54,1.55,1.12.59,2.26,1.18,3.39,1.74,2.55,1.27,5,2.58,7.71,3.69,1.36.56,2.51.82,3.87,1.24,1.09.34,2.41.91,3.53,1.24,2.64.76,5.11,2.07,7.62,3.03,1.12.43,2.32.5,3.53.88s2.6,1.49,3.87,2.04c1.03.44,1.78,1.13,2.69,1.67.51.3,1.11.7,1.66.91s1.53.19,2.06.5c1.99,1.18.08,2.06-.95,2.78-1.28.88-2.49,2.26-3.14,3.68-1.27,2.77-2.63,4.91-3.22,7.95l-.61.12"/>
          <path class="cls-13" d="m774.05,1903.31l.04-.44c-.87.58-.56,1.03-.77,1.91-.19.79-.6,1.41-.77,2.16s-.16,1.56-.33,2.24c-.21.86-.29,1.85-.53,2.77-.69,2.65-2.39,5.39-4.08,7.67-1.77,2.4-2.73,5.34-5.1,7.36-2.43,2.06-5.25,3.46-7.97,4.95-1.62.89-3.22,1.72-4.72,2.76-1.26.87-2.11,2.23-3.35,3.12-2.81,2.01-4.95,3.93-3.42,7.52,1.11,2.6,3.84,4.3,6.23,5.51.36.18,1.64.97,1.98.99.94.05,2.16-.99,2.99-1.38,1.42-.67,2.88-1.26,4.37-1.81,3.81-1.42,7.44-2.41,10.85-4.38,3.69-2.14,7.77-3.44,11.8-4.37.05-1.06.76-1.72.88-2.79.12-1.11.09-1.95.35-2.95.25-.94.39-1.83.37-2.93-.02-1.23.5-1.71.67-2.63.1-.58-.11-1.25.02-1.81.12-.52.6-.65.71-1.12.23-1.01,0-2.06.23-3.08.08-.34.51-.74.6-1.24s-.15-1.03-.06-1.53.53-.9.6-1.24c.12-.55,0-1.19.14-1.69.26-.93.67-1.52.77-2.53.05-.48-.17-1.05-.06-1.53.14-.58.58-.62.71-1.12.59-2.37-.86-3.26-2.69-4.16-3.17-1.55-6.04-2.7-10.46-4.22Z"/>
          <path class="cls-13" d="m804.87,1916.53c-.82,1.7-.76,3.15-.74,5.13.01,1.09-.4,1.57-.57,2.37-.14.69,0,1.35-.12,2.04-.28,1.7-.98,3.62-1.51,5.13-.14.39-.6,1.52-.67,1.9-.14.81.16,1.75-.02,2.54-.21.9-.67,1.12-.79,2.14.03.51.05,1.02.06,1.53-.05.4-.25.69-.61.86-.38,1.45-.79,2.35-1.45,3.69-1.17,2.4-3.56,3.55-5.5,5.51-2.6,2.62-5.3,2.94-8.46,4.01-2.43.82-4.73,2.59-6.59,4.42-1.13,1.12-1.95,1.72-1.66,3.5.24,1.51-.07,1.25,1.47,1.47.94.13,2-.03,2.95-.02,1.75.03,2.65-.77,4.41-.73,1.48.03,4-1.01,4.93-.13,1.01-1.6,7.87-.61,9.74-.61,3.51,0,6.14-.35,9.38-1.65,2.44-.98,6.08-1.9,7.5-4.22,1.45-2.36.74-6.38.74-9.17,0-1.58-.1-3.19-.02-4.77.1-1.79.79-3.26.75-5.14-.03-1.87.75-3.26.73-5.14-.02-1.71,0-3.43,0-5.14s-.01-3.42,0-5.14c.01-2.28.36-2.99-2.2-2.93-.66.01-1.56.1-2.22.01-.76-.1-1.57-.83-2.18-.83s-.84.71-1.43.85c-.85.21-2.09-.05-5.91-1.51Z"/>
          <path class="cls-11" d="m786.07,1933.32c0-1.16-.03-2.34,0-3.51,0-.55-.13-.99-.29-1.47-.17-.48-.25-.99-.51-1.48-.36-.67-1.29-1.48-1.9-1.96-1.48-1.15-3.96-.65-5.81-.65-2.06,0-3.98-.36-5.71-1.17-.79-.37-1.41-1.01-2.2-1.4-.25-.13-.56-.27-.88-.4-.17.31-.35.27-.52.21.03-.15.07-.25.13-.33-.44.27-.61.72-1.11,1.08-.52.39-1.12.45-1.68.89-.61.49-1.2.91-1.8,1.29h-.01c-.6.41-1.2.81-1.84,1.28-2.27,1.67-4.96,3.39-7.43,4.68-1.37.72-2.6,1.59-3.92,2.47-1.51,1.03-2.95,1.12-4.42,2.03-2.52,1.55-4.03,3.78-4.42,6.58-.24,1.68.35,3.24.81,4.71.33,1.01,1.32,3.03,2.11,3.78.27.25.56.45.87.61,2.4,1.24,5.81-.2,7.95-.99.87-.32,1.68-.63,2.59-.77.76-.13,1.36-.39,1.99-.56,1.84-.51,3.88-.44,5.74-.85,2.84-.61,5.43-2.95,8.03-4.44,3.19-1.82,6.82-3.34,9.98-5.13,1.83-1.03,2.62-2.02,3.79-3.7.12-.17.28-.35.47-.51-.01-.11-.01-.2-.01-.29Zm-42.12,12.43c-.04-.13-.08-.27-.09-.4.07.19.09.32.09.4Z"/>
          <path class="cls-11" d="m743.86,1945.34c.07.19.09.32.09.4-.04-.13-.08-.27-.09-.4Z"/>
          <path class="cls-11" d="m787.11,1932.52c-.2.39-.64.73-1.03,1.09-.01-.11-.01-.2-.01-.29,0-1.16-.03-2.34,0-3.51,0-.55-.13-.99-.29-1.47-.17-.48-.25-.99-.51-1.48-.36-.67-1.29-1.48-1.9-1.96-1.48-1.15-3.96-.65-5.81-.65-2.06,0-3.98-.36-5.71-1.17-.79-.37-1.41-1.01-2.2-1.4-.25-.13-.56-.27-.88-.4-.17.31-.35.27-.52.21.03-.15.07-.25.13-.33h.01c.11-.17.28-.23.49-.21h.03c.63.05,1.52.69,2.02.91,1.27.57,2.34.56,3.84.56,1.37,0,2.48-.05,3.67-.37,1.11-.29,2.31-.29,3.51-.53.89-.17,2.11-1.23,3.07-1.35,1.94-.25,1.53,1.16,1.49,2.62-.03,1.56.45,1.96.77,3.27.28,1.13-.65,2.84.37,3.7-.84.77-.07,1.87-.56,2.79Z"/>
          <path class="cls-11" d="m815.87,1953.22c.01,1.08-.32,2.43-.87,3.54-.25.27-.51.52-.79.75-.97.79-2.06,1.32-3.18,1.68-.21.07-.49.37-.72.45-.28.09-.55.09-.81.2-.65.27-1.19.57-1.87.77-2.3.65-4.24,2.24-6.5,2.87-1.41.4-2.9.53-4.23,1.2-1.04.53-2.1,1.01-3.15,1.53-.6.31-1.17.6-1.74.93-.12.01-.24.01-.36.01-1.65-.04-2.9.64-4.31,1.35-.21.09-.43.2-.64.29-1.21.56-2.87,1.04-4.19,1.32-4.27.91-6.62-1.64-7.91-5.15-.73-1.98-1.78-3.62-1.32-5.89.32-1.64,1.61-3.03,3.14-3.51,1.63-.51,2.92-.97,4.51-1.72.63-.29,1.25-.76,1.92-1.01.91-.35,1.6-.19,2.58-.41,1.75-.41,3.14-2.15,4.56-3.08.61-.41,1.27-.63,1.87-1.07.52-.39.85-1.21,1.41-1.52.23-.13.48-.21.75-.29.67-.19,1.41-.27,2.04-.59.57-.29,1.53-.52,2.04-.89,1.28-.95,2.46-3.07,3.83-3.51-.29,2.16.28,3.12,1.9,3.6.6.17,1.95.59,2.52.65,1.27.15.89-.29,1.9-.52,2.55-.56,4.2-1.87,5.93-3.91h.03c.27.07.43.15.64.19.44.64.17,1.35.28,2.22.15,1.17.61,1.72.77,2.9.28,2.12-.05,4.47-.03,6.62Z"/>
          <path class="cls-11" d="m815.01,1956.76c-.28.6-.63,1.13-1.03,1.53-1.04,1.07-3.63,1.56-4.88,2.08-2.8,1.19-5.35,2.79-8.17,3.95-1.55.63-3.06.85-4.67,1.55-1.39.6-2.64,1.24-4.23,1.28.56-.33,1.13-.63,1.74-.93,1.05-.52,2.11-1,3.15-1.53,1.33-.67,2.82-.8,4.23-1.2,2.26-.63,4.2-2.22,6.5-2.87.68-.2,1.21-.51,1.87-.77.27-.11.53-.11.81-.2.23-.08.51-.39.72-.45,1.12-.36,2.2-.89,3.18-1.68.28-.23.53-.48.79-.75Z"/>
          <path class="cls-11" d="m814.21,1941.3h-.03c.08-.09.15-.17.23-.27.2.15.35.29.44.45-.21-.04-.37-.12-.64-.19Z"/>
          <path class="cls-5" d="m855.51,1639.11c-1.73.36-1.74,2.24-1.31,3.61,1.07-.2.66-1.86-.47-1.42-.84.33-.5,2.17-.28,2.87,1.2-.15,2.24-2.75.6-2.95-1.73-.21-1.59,2.82-1.34,3.68,1.09-.12,1.65-1.91,1.97-2.73-.76-.4-1.26-.22-1.38.6"/>
          <path class="cls-5" d="m855.81,1633.4c.91.01,1.47.14,2.2.69.61.47,1.1,1.19,1.66,1.75.5.5.82.93,1.14,1.53.17.31.45.52.61.81.2.37.16.81.38,1.2"/>
          <path d="m853.31,1617.83l-.18.63c-.29.05-.48-.06-.57-.33.2.86-.59.96-.68,1.62-.11.85.55.92.74,1.7.34,1.4-.06,2.56.52,3.89.99,2.27,2.3,4.38,4.03,6.24,2.01,2.16,4.28,3.96,6.22,6.2,2.02,2.34,4.38,5.07,6.07,7.63,3.37,5.11,4.1,10.42,5.87,16.08.91,2.9,1.6,5.27,3.03,7.98.6,1.14,1.19,1.81,1.95,2.82.84,1.12.86,2.79,1.7,3.98-1.52-1.29-1.84-3.13-2.25-4.88-.46-1.96-1.41-3.85-1.51-5.87-.09-1.84-.64-3.38-.73-5.14-.1-1.9.25-3.87-.15-5.71-.36-.17-.56-.46-.61-.86,0-.51.03-1.02.06-1.53-.13-1.03-.57-1.24-.79-2.14-.13-.56.02-1.66.04-2.24.02-1.09-.41-1.58-.57-2.37-.36-1.74-.34-2.96-1.43-4.44-.91-1.23-2.15-1.58-3.23-2.42.95,1.1,2.18,1.4,3.21,2.44,1.03,1.05,2.08,2.08,3.12,3.12,2.31,2.3,4.53,5.19,6.06,8.06,1.8,3.38,3.15,6.76,4.23,10.29.53,1.72.88,2.9,1.07,4.78.07.73.21,1.4.22,1.99.03,1.06-.2,2.36-.2,3.51,0,3.58,1.04,7.39,3.28,10.29,1.92,2.49,4.1,4.66,5.71,7.3,1.57,2.59,3,5.31,4.22,8.06.77,1.73.82,3.59,1.45,5.2.34.86.66,1.18.77,2.16.14,1.19-.02,2.49-.02,3.69,0,.98.02,1.96,0,2.94-.02,1.45.53,2.31.77,3.67.36,2.03-.04,4.53-.04,6.61,0,1.19.08,2.36-.16,3.51-.16.76-.58,1.31-.57,2.37.02,1.59.74,6.08-.57,7.11-.66-1.32-.3-4.82,0-6.22.05-.24.52-.5.61-.86.13-.53-.06-1.31-.05-1.87.02-1.29.56-2.07.78-3.3.36-2.01,0-4.55-.04-6.61-.03-2.28.74-4.24.73-6.61-.01-2.13.75-3.42.73-5.51-.02-2.06.4-4.56-.06-6.54-.24-1.02-.69-1.36-.67-2.63.02-1.03.17-2.24-.07-3.24s-.68-1.44-.67-2.63-.2-2.47.16-3.61c.68.16,1.68,2.77,2.04,3.58.84,1.92,1.14,3.93,1.63,5.91.24.99.31,2,.53,2.97.14.62.66.76.81,1.39.41,1.7-.04,4.14-.04,5.91s.36,4.07.04,5.87c-.14.82-.67,1.38-.81,2.2-.17,1,.14,1.92-.13,2.94-.51,1.96-.84,3.88-1.48,5.87-.6,1.87-.55,3.5-.55,5.5,0,1.83.03,3.67,0,5.5-.02,1.24.27,1.8.57,2.94.27,1.02-.04,1.93.13,2.94.57,3.37,2.08,6.46,2.99,9.5.91,3.02,1.5,6.13,2.91,8.84.73,1.39.94,2.77,1.65,4.22.48.99,2.25,3.24,2.04,4.34-.13-3.9.25-7.36,1.43-10.75.64-1.84,1.41-3.22,2.77-4.6.53-.54.88-1.1,1.61-1.32.47-.14,1.04.11,1.52.05.88-.11.96-.44,1.61-.59,1.88-.45,3.36-.92,4.09-3.08.5-1.48.45-4.69.08-6.19-.72-2.93-3.59-5.87-5.07-8.5-1.71-3.04-2.7-6.03-3.85-9.38-.28-.82-.41-1.41-.53-2.38-.13-1.04-.55-1.23-.79-2.14-.29-1.15.36-1.97.61-2.97.31-1.27.41-2.42.89-3.67,1.54-3.97,1.46-7.83,1.47-12.11,0-2.13-.7-3.83-.74-5.87-.04-2.08,0-4.16,0-6.24,0-1.94-.12-3.93-.02-5.87.07-1.22.64-2.11.78-3.3.12-1.04-.01-2.24-.02-3.3-.03-1.91.71-3.14.73-5.14.02-2.09-.66-4.04-1.47-5.83-.71-1.59-1.27-3.12-2.02-4.62-.68-1.36-1.51-2.82-2.03-4.21-.58-1.57-1.04-3.08-1.46-4.78-.5-2.04-1.39-3.78-1.77-5.87-.18-.98.08-1.97-.13-2.94-.25-1.17-.66-1.69-.68-2.94-.04-2.25-.33-3.06-1.28-4.95-.75-1.5-1.06-3.11-2.2-4.42s-2.11-2.75-3.3-4.02c-2.12-2.26-4.34-4.25-6.79-6.06-2.71-1.99-4.58-4.99-7.32-7.05-3.37-2.54-6.3-5.48-10.66-5.42-2.17.03-4.89-.48-7-.03-1.93.41-3.63,1.46-5.46,2.25-.77.33-1.66.41-2.5.81s-1.56.95-2.36,1.38c-1.32.7-1.93.41-3.28.69-.81.17-1.62.96-2.35,1.33-1.85.93-2.75,1.01-3.67,2.94-.35.74-1.14,1.53-1.32,2.35-.24,1.06.04,2.62-1.43.04Z"/>
          <path class="cls-17" d="m855.52,1651.53c-.78.38-1.73.39-2.41.99-.37.32-1.41,2.01-.92,2.36.03.08,0,.13-.07.15.18.19.15.63.28.89.1.2.25.48.38.65s.33.35.49.49c.33.29.55.26.95.38.32.09.39.22.75.23.17,0,.39-.05.56-.01.15.04.2.18.34.21.57.14,1.08-.19,1.46-.58.77-.78,1.35-1.79.93-2.9-.16-.43-.48-1.17-.82-1.49-.08-.08-.29-.07-.4-.14s-.15-.23-.26-.29c-.28-.15-.75-.04-1.05-.04"/>
          <path class="cls-16" d="m866.03,1745.72c0,.15.01.32.01.48-.07.13-.15.27-.17.4.01-.19.16-1.09.16-.88Z"/>
          <path class="cls-16" d="m903.99,1717.67c.15-.61-.04-1.59-.04-2.24-.01-1.09,0-2.2,0-3.3,0-1.29.19-2.76.01-4.06-.15-1.16-.61-1.72-.76-2.9-.04-.29-.05-.59-.07-.91.47.97.72,2.28.97,3.32.47,1.99.92,3.94.92,6.03,0,.53-.11,1.21.01,1.74.05.2.17.31.21.56.03.24,0,.52-.01.76-.01.57-.21,1.05-.21,1.66,0,.53.01,1.09,0,1.64-.01.57-.23,1.04-.23,1.64.01.53-.16.83-.21,1.31-.08.56.11,1.16-.05,1.71-.05.2-.16.32-.17.59,0,.27.03.48-.04.72-.03.11-.15.23-.17.37-.04.13.01.29-.01.44-.05.25-.13.53-.2.77-.12.51-.36,1.01-.45,1.53-.08.48-.21,2.88.2,3.12-.33.35.17.97.04,1.48-.11.47-.31.69-.17,1.25.03.15.15.27.17.48.03.29-.03.6-.01.88,0,.07.01.12.03.19-.31-1.07-.53-1.83-.52-3.06.03-2.32,0-4.66,0-6.98,0-2.55-.36-5.45.16-7.9.04-.17.53-.55.61-.87Z"/>
          <path class="cls-13" d="m817.35,1711.77c-.04,2,.99,3.67,2,5.34.88,1.46,1.95,3,2.94,4.4,1.42,2,3.88,1.59,5.91,2.17,1.74.49,3.69,2.24,5.3,3.14s3.35,1.61,5.14,2.37c2.15.91,3.68,2.77,5.52,4.16,1.43,1.08,2.59,2.43,3.98,3.55,1.92,1.56,3.99,2.66,5.73,4.42,1.35,1.37,2.95,2.57,4.59,3.49,1.72.97,3.42,2.02,5.1,2.94.93.51,2.32.86,3.34,1.11.88.21,2.02.78,2.73.93,1.14.23,2.38-.11,3.51.13,1.3.27,2.71,1.07,3.83,1.35.24.06,1.31.13,1.33.14.29.13.9.73,1.17.72.69-.03,2.02-.5,2.78-.76.81-.28,1.65-1.17,2.48-1.61.72-.38,2.31-.9,2.93-1.43.71-.61,1.02-1.42,1.43-2.2.44-.83,1.33-1.66,1.61-2.48.69-2,1.15-3.92,1.69-6.01.06-.23.53-.49.61-.86.16-.72-.25-1.56-.08-2.28.08-.32.57-.68.61-.86.12-.55,0-1.18.14-1.69.24-.84.47-1.73.75-2.55.46-1.32.46-2.25.69-3.67.42-2.49,1.53-3.99,1.51-6.6-.02-2.45,0-4.89,0-7.34,0-2.26.39-4.86-.56-6.78-.63-1.3-.38-1.23-2.01-1.3-1.24-.05-2.88.34-4.08.04-.56-.14-.63-.62-1.12-.71-.57-.1-1.26.11-1.81-.02-.09-.02-.85-.63-.87-.63-.88-.03-.76.28-1.45.43-2.99.65-2.78,1.54-2.77,4.56,0,1.08.29,2.65.04,3.71-.3,1.26-.8,1.34-.77,2.9,0,.42.07,1.05.01,1.48-.09.69-.48,1.13-.59,1.61-.25,1.16-.04,2.33-.33,3.5-.26,1.08-1.03,1.92-1.32,2.9-.34,1.13-.5,2.36-.89,3.54-.5,1.48-1.08,3.97-2.21,5.11-.81.82-1.52,1.19-2.75.96-.81-.16-1.38-.67-2.2-.81-.48-.08-1.03.19-1.51.08-.57-.13-.62-.62-1.13-.71-.6-.11-1.19.03-1.79-.04-1.26-.15-2.03-.71-3.28-1.12-3.54-1.16-7.09-3.58-9.91-5.87-3.42-2.78-6.83-5.57-9.72-8.97-1.38-1.62-2.5-3.24-4.04-4.78-1.1-1.1-4.59-4.62-6.03-2.35-.98,1.54,2.15,4.48,2.77,5.61.33.61.48,2.94.2,3.58-.47,1.07-2.56.83-3.74.7-2.12-.24-4.03-1.68-6.02-2.06-.66-.13-1.44.02-2.08-.12s-.76-.66-1.39-.81c-1.18-.29-3.57-.28-5.91-3.63Z"/>
          <path class="cls-7" d="m799.02,1879.85c.01-.84.23-1.42.23-2.27,0-.98,0-1.97,0-2.95v-6.53c0-.61,0-1.22,0-1.82s-.17-1.11-.24-1.7c-.13-1.13.01-2.38.01-3.52,0-1.07-.16-2.25.05-3.3.11-.54.18-.97.18-1.53,0-.7-.1-1.48.02-2.16.22-1.23.21-2.42.21-3.69,0-.57,0-1.13,0-1.7,0-.83.19-1.58.23-2.4.07-1.4.39-2.8.45-4.2.03-.62.19-1.19.23-1.81.05-.78.14-1.62.28-2.4.1-.56.12-1.13.23-1.7.12-.62.1-1.22.2-1.85.18-1.19.39-2.33.43-3.55.02-.48.19-.88.24-1.35.05-.56.07-1.06.17-1.6.22-1.14.22-2.33.45-3.46.1-.5-.01-.99.1-1.48.1-.44.15-.8.23-1.24.19-1.03.37-2.11.62-3.12.46-1.77.79-3.48,1.37-5.23.17-.5.23-1,.45-1.49.19-.43.35-.82.51-1.25.3-.83.63-1.71,1.03-2.5s.74-1.63,1.19-2.39c.51-.86,1.07-1.59,1.65-2.39s1.35-1.37,1.99-2.05c.87-.92,1.95-1.49,2.85-2.38.18-.18.36-.41.56-.57.3-.25.63-.3.93-.5.4-.26.72-.6,1.12-.86.89-.55,1.78-.96,2.72-1.42s1.83-.79,2.73-1.25c.39-.2.77-.29,1.19-.44.6-.22,1.12-.57,1.72-.81,2.23-.89,4.18-2.25,6.2-3.53,1.78-1.12,3.73-2.29,5.67-3.06.4-.16.73-.49,1.13-.69.5-.24,1.01-.48,1.48-.76.98-.6,2.09-.83,3.07-1.45.88-.56,1.83-.85,2.74-1.3.75-.37,1.5-.86,2.27-1.2.82-.35,1.68-.75,2.49-1.19.33-.18.64-.37.95-.56.42-.25,1.04-.98,1.54-.98"/>
          <path class="cls-11" d="m791.66,1967.17c.12,0,.24,0,.36-.01-.36.21-.71.44-1.04.69-.13.09-.64.33-.8.37-.19.04-.43-.08-.61-.04-.13.04-.28.24-.35.25-.59.12-1.24.09-1.87.08,1.41-.71,2.66-1.39,4.31-1.35Z"/>
          <path class="cls-11" d="m814.18,1941.3c-1.72,2.04-3.38,3.35-5.93,3.91-1,.23-.63.67-1.9.52-.57-.07-1.92-.48-2.52-.65-1.61-.48-2.19-1.44-1.9-3.6-1.37.44-2.55,2.56-3.83,3.51-.51.37-1.47.6-2.04.89-.63.32-1.37.4-2.04.59.16-.21.35-.41.53-.6.81-.81,1.44-1.86,2.36-2.52.39-.27.73-.41,1.08-.71.31-.25.53-.57.84-.77.32-.21.79-.39,1.17-.48.59-.13.88.11,1.47.19-.09-.08-.31-.33-.76-.92.64-.11,1.57.43,2.19.59.81.21,1.48.29,2.35.29,1.43,0,3.1.23,4.47-.07.32-.07.52-.23.95-.23.35.01.69,0,1.03,0,.77,0,1.71-.13,2.47.07Z"/>
          <path class="cls-11" d="m817.06,1954.94c-.44.52-1.03.92-1.55,1.36-.17.15-.33.31-.51.45.55-1.11.88-2.46.87-3.54-.03-2.15.31-4.5.03-6.62-.16-1.17-.63-1.72-.77-2.9-.11-.87.16-1.57-.28-2.22.11.03.23.04.39.04.23.01.81-.12,1.04-.01.51.21.28,1.52.28,2.07-.01.45.12.59.23.95.11.37,0,.72.05,1.11.08.63.37,1.24.52,1.82.37,1.35.47,2.75.8,4.04.33,1.23-.28,2.48-1.09,3.44Z"/>
          <path class="cls-11" d="m743.86,1945.34c.07.19.09.32.09.4-.04-.13-.08-.27-.09-.4Z"/>
          <path class="cls-11" d="m765.6,1923.12c-.61.49-1.2.91-1.8,1.29.17-.19.35-.39.51-.55.36-.35.45-.67.72-1.03.45-.63.97-1.49,1.76-1.78.47-.16,1.05-.09,1.6.08-.44.27-.61.72-1.11,1.08-.52.39-1.12.45-1.68.89Z"/>
          <path class="cls-11" d="m768.25,1921.48c.03-.15.07-.25.13-.33h.01c.12.04.25.08.37.12-.17.31-.35.27-.52.21Z"/>
          <path class="cls-11" d="m785.86,1936.34c-.29.41-.69.76-.96,1.16-.25.39-.52.8-.81,1.19-.56.73-1.23,1.35-2.04,1.75-1.63.79-3.1,1.83-4.78,2.5-.48.19-.97.39-1.4.72-.45.36-.71.47-1.24.73-.85.41-1.72.81-2.63,1.17-.96.39-1.8.93-2.71,1.48-.84.49-1.69.68-2.55,1.16-.95.52-1.92.55-2.87,1.03-.69.35-1.47.89-2.19,1.03-.36.07-.77-.03-1.12.05-.27.07-.29.25-.56.32-.53.12-.93-.04-1.48.2-.91.4-1.67.95-2.56,1.32-.48.2-.96.36-1.47.59-.53.24-.97.07-1.55.21-.47.11-.59.32-1.16.31-.61-.03-.89.21-1.45.29-.61.09-.92-.24-1.47-.31-.61-.07-1,.01-1.55-.21-.88-.37-1.11-.92-1.45-1.76-.09-.23-.2-.45-.31-.71,2.4,1.24,5.81-.2,7.95-.99.87-.32,1.68-.63,2.59-.77.76-.13,1.36-.39,1.99-.56,1.84-.51,3.88-.44,5.74-.85,2.84-.61,5.43-2.95,8.03-4.44,3.19-1.82,6.82-3.34,9.98-5.13,1.83-1.03,2.62-2.02,3.79-3.7.12-.17.28-.35.47-.51.03.87.19,2.1-.23,2.72Z"/>
          <path d="m867.13,1635.28c-.01.52.21.91.22,1.41s.2.92.22,1.41c.04.94.34,2.05.67,2.94.36.98.99,1.87,1.39,2.85.26.65.64,1.2.93,1.83s.5,1.24.81,1.85c2.19,4.23,4.17,8.54,6.2,12.83.45.95.84,1.89,1.31,2.83.42.84.96,1.62,1.36,2.45.42.88.68,1.81,1.31,2.61.56.72,1.25,1.37,1.84,2.06.75.86,1.42,1.79,2.12,2.67s1.45,1.72,2.07,2.6.96,1.92,1.52,2.82,1.16,1.82,1.74,2.74c.26.42.44.88.7,1.31.36.58.55,1.17.87,1.75.54.97,1.08,1.99,1.53,3.03.41.94.79,1.95,1.03,2.94.23.95.65,1.88.87,2.83.11.48.32.93.43,1.41s.33.99.49,1.47c.28.83.54,1.77.77,2.66.11.43-.02.87.1,1.31.14.53.17.95.17,1.52,0,1.03.22,1.92.22,2.94s-.23,1.84-.22,2.83-.32,1.89-.44,2.83c-.06.47.08.95-.04,1.41-.14.53-.17.95-.17,1.52,0,.95-.22,1.66-.22,2.61,0,.45.08.98-.02,1.41-.11.51-.2.87-.2,1.41s-.09.9-.2,1.41c-.1.47-.02,1.04-.02,1.52,0,.94,0,1.89,0,2.83,0,.55.14.89.23,1.41.08.45-.07.96-.02,1.41.03.28.19.48.24.75s0,.61-.01.89c0,.56.2.98.22,1.51.02.44.14.68.21,1.08.08.47.35.87.45,1.3.05.22-.02.44.04.66.08.3.17.44.17.76.01.55.1.89.22,1.41.23.94.6,1.8.98,2.72.33.8.61,1.66.87,2.5.25.81.64,1.6.98,2.38.38.88.8,1.68,1.14,2.57.31.79.63,1.64.97,2.44.71,1.65,1.77,3.11,2.78,4.56.45.65.83,1.43,1.3,2.07.37.51.73,1.42,1.4,1.64.43.14.97-.24,1.07-.67.08-.39-.25-.88-.35-1.3-.23-.91.12-1.86.34-2.66.07-.25,0-.47.04-.71s.16-.42.21-.65c.04-.21-.02-.43.04-.63.05-.18.23-.38.31-.56.32-.74.81-1.39,1.17-2.1.22-.43.13-.73.23-1.18.04-.17.25-.25.25-.42,0-.16-.21-.35-.25-.54-.05-.26.03-.51-.04-.77-.05-.21-.16-.43-.22-.65-.19-.64-.36-1.3-.54-1.96-.8-2.87-1.79-5.73-2.4-8.65-.07-.35-.02-.66-.04-1.01-.02-.31-.15-.58-.21-.89-.07-.38-.02-.8-.02-1.19,0-.51-.12-.87-.2-1.35-.22-1.34.22-2.78-.13-4.1-.2-.74,0-1.49-.16-2.24-.16-.78-.17-1.48-.17-2.29,0-.56.09-1.18.01-1.73-.04-.3-.2-.56-.24-.86-.05-.38.01-.81.01-1.2,0-.32.06-.68.01-.99-.05-.36-.22-.65-.24-1.03-.03-.66.11-1.37.02-2.02-.05-.36-.22-.65-.24-1.02-.01-.33.05-.65-.01-.98-.14-.79-.21-1.46-.2-2.28,0-.68-.19-1.29-.21-1.96-.03-.75-.32-1.5-.42-2.26-.21-1.6-.24-3.18-.24-4.82v-4.19c0-1.41-.2-2.72-.21-4.12,0-.81-.23-1.55-.22-2.37s-.2-1.55-.21-2.37c-.01-.75-.18-1.63-.33-2.37-.19-.93-.26-1.9-.44-2.85-.71-3.83-2.24-7.4-3.37-11.1-.3-.97-.81-1.94-1.31-2.84-.47-.85-.79-1.72-1.3-2.55-.45-.75-.91-1.44-1.31-2.22-.25-.51-.47-1.06-.78-1.53s-.72-.8-.97-1.29c-.48-.94-1.16-1.67-1.63-2.62s-.94-1.88-1.41-2.82c-.51-1.03-1.1-2.03-1.63-3.05-.5-.96-1.13-1.97-1.77-2.85s-1.05-1.76-1.66-2.59c-.63-.85-1.27-1.7-1.81-2.6-.87-1.45-2.2-2.72-3.36-3.94-1.01-1.05-1.97-2.04-2.83-3.21-.71-.97-1.69-1.49-2.61-2.21-.52-.41-.92-.99-1.42-1.43-.41-.37-.84-.6-1.3-.89-.94-.58-1.65-1.46-2.59-2.05-.72-.45-1.75-.8-2.63-.63-.99.19-2.11.34-2.66,1.29-.16.27-.43.55-.5.85-.05.24.05.51,0,.75-.05.23-.25.26-.22.57.02.18.2.24.25.42.06.24-.05.53-.02.77.06.48.28.98.5,1.41.36.71.69,1.46,1.08,2.12.36.6,1.17,1.45-.05-.82Z"/>
          <path d="m854.1,1621.13c-.56.72-1.14-.45-1.31-.86-.31-.75-.17-1.43.16-2.18.54-1.24,1.41-2.38,2.49-3.21.59-.45,1.23-.91,1.91-1.2.73-.31,1.37-.48,2.13-.64.15-.03.26-.15.48-.17.24-.03.42.02.66-.04.36-.09.74-.11,1.09-.21s.71-.33,1.09-.45c.42-.13.79-.26,1.19-.38.16-.05.39-.09.56-.11l.22.07c.12.05.21,0,.25-.11.34-.04.68-.05,1.04-.05.83,0,1.66-.11,2.39.27.22.11.63.29.82.44.22.16.52.32.71.49.46.4,1.04,1.46.82,2.08-.27.75-.91,1.22-1.48,1.74-.61.55-1.32,1.03-2.01,1.47-.32.2-.71.24-1.05.42-.3.16-.54.39-.86.55-.85.42-1.73.7-2.61.98-.43.14-.87.33-1.31.44-.2.05-.35.03-.55.05-.25.02-.41.13-.59.17-.41.09-.86-.05-1.26.09-.43.15-.71.5-1.19.59-.53.1-.75-.11-1.18-.21s-.75.12-1.16-.15c-.25-.17-.4-.48-.64-.66-.38-.28-.79-.18-1.22-.3-.01-.06-.02-.12.4,1.12Z"/>
          <path d="m906.53,1683.35c-.72.01-1.12.11-1.53.76-.45.71-.75,1.58-1.08,2.34-.46,1.07-.7,2.22-.92,3.37-.34,1.74-.62,3.55-.6,5.33.02,2.31,0,4.61,0,6.92,0,1.21,0,2.43,0,3.64-.01,1.27.19,2.53.22,3.8.02,1.04.28,2.03.4,3.05.11.94.1,1.88.21,2.82.23,1.94.35,3.86.76,5.78.27,1.28.61,2.44,1.12,3.64.34.81.54,1.89,1.39,2.34.12.06.03.17.21.21.27.07,1.06-.7,1.01-.66.78-.76,1.59-1.85,2.05-2.84.77-1.66.97-3.47,1.28-5.26.41-2.36.42-4.76.76-7.14.15-1.08.37-2.17.39-3.27.01-.5-.04-1-.02-1.51.03-.83.27-1.61.19-2.45-.46-4.76-.62-9.53-1.7-14.21-.43-1.87-.96-3.65-1.75-5.38-.41-.9-.68-1.83-1.34-2.59-.38-.44-1.04-1.14-1.71-.89-.6.22-.64,1.44.66,2.19Z"/>
          <path d="m898.94,1735.28c-.03-.15-.11-.48-.23-.52-.08.36-.16.61-.17.99,0,.42.1.86.2,1.27.26,1.01.38,2.06.73,3.06.82,2.33,1.58,4.7,2.31,7.07.62,2,1.12,4,1.6,6.02.2.83.46,1.64.64,2.47.09.41.16.81.25,1.23.04.17.07.32.12.48.05.18,0,.36.02.53.07.4.25.79.28,1.2.02.23-.03.45.03.68s.11.34.1.6c0,.17-.03.36,0,.53.03.21.13.38.14.6s.08,1.01-.11,1.06c-.19-.59.07-1.45.23-2,.08-.25.22-.52.3-.8.11-.37.18-.67.26-1.04.16-.73.42-1.43.5-2.17.04-.33.14-.59.13-.94s.14-.6.13-.94c0-.39-.1-.67-.14-1.04-.03-.32.05-.65,0-.97-.02-.18-.1-.23-.14-.39-.04-.15.03-.32.01-.47-.05-.33-.16-.69-.28-1.01-.21-.57-.3-1.25-.5-1.87-.1-.31-.19-.63-.3-.94-.07-.17-.1-.36-.16-.53-.07-.19-.22-.33-.24-.53-.02-.19.07-1-.03-1.17-.14-.23-.25-.47-.37-.71-.22-.45-.48-.96-.75-1.4-.66-1.1-1.02-2.35-1.76-3.41-.6-.86-1.11-1.8-1.6-2.7-.26-.48-.46-.95-.67-1.44-.09-.2-.27-.46-.31-.66-.02-.1.01-.23,0-.33-.03-.15-.22.4-.26.19Z"/>
          <path class="cls-10" d="m766.11,1921.02l.14-.04c-.22-.42-.22-.97-.39-1.43s-.37-.87-.67-1.28c-.87-1.22-1.47-2.83-2.77-3.63-.99-.61-2.05-1.02-3.18-1.22-.88-.16-2.54.4-2.89,1.29-.31.8.45,1.36.98,1.84.47.43.95.86,1.42,1.3.25.23.47.35.73.54.38.27.62.66.98.94,1.12.86,2.38,1.58,3.62,2.26.99.54,1.89.71,2.46-.56.21-.46.27-1,.47-1.47.22-.52.55-1.01.86-1.47.68-1,1.5-1.77,2.63-2.27.94-.42,2.11-.25,2.95.31.74.5,1.76,1.85.99,2.71-.62.69-1.87,1.16-2.71,1.53-1,.43-2.08.71-3.13.97-2,.51-3.85,1.68-5.93,1.65-.64,0-1.11.21-1.71.25-.58.04-.97-.06-1.47.24-1.1.66.21,1.15.8,1.65.77.66,1.57,1.21,2.44,1.72.78.45,1.52.84,1.86,1.7-.22.2-.21.63-.5.76-.34.15-.62-.22-.92-.39-.77-.42-1.47-.83-2.22-1.24-.42-.23-1.34-.81-1.66-.24s.33,1.63.45,2.14c.19.77-.05,1.67-.99,1.49-.58-.11-1.39-1.11-1.85-.51-.25.32.09.82-.12,1.1-.17.23-.78.19-1.07.11-.32-.08-.64-.37-1-.45-.41-.09-.92-.02-1.35-.02"/>
          <path class="cls-10" d="m802.12,1940.62c-.15-1.12-1.26-2.57-1.95-3.43-1.14-1.42-2.83-2.96-4.55-3.56-1.29-.45-2.39.08-2.33,1.48.06,1.32.89,1.91,1.83,2.72,1.08.93,2.04,1.57,3.44,1.81.53.09,1.16.21,1.59.55.49.38.73,1.23,1.24.69.26-.28.56-.86.73-1.22.28-.58.59-1.14.91-1.73.49-.89,1.48-2.76,2.77-2.41,1.11.31,1.33,1.72,1.22,2.66-.14,1.28-1.41,1.72-2.47,2.2-.54.24-.95.24-1.58.25s-1.02-.18-1.59-.25c-.31-.04-.63-.01-.93-.05-.16-.02-.02-.14-.29-.14-.11,0-.26.16-.38.18-.67.12-1.34-.15-1.94.27-1.16.8-.29,2.07.22,3.06.19.37,2.45,3.44.74,3.05-.87-.2-2.21-2.05-2.89-.72-.47.92.44,2.79-.9,2.95-1.05.12-2.51-1.28-3.38-.2-.84,1.05.2,2.73-.93,3.72-1.07.93-2.82-.42-3.89-.86-.76-.31-1.23.08-1.85.52-.52.37-.92.69-1.47.98"/>
        </g>
      </g>
    </g>
  </g>
</svg>