<?xml version="1.0" encoding="UTF-8"?>
<svg id="Layer_2" data-name="Layer 2" xmlns="http://www.w3.org/2000/svg" viewBox="0 0 409.1 208.18">
  <defs>
    <style>
      .cls-1 {
        fill: #2a3c24;
      }

      .cls-2 {
        fill: #13abb8;
        opacity: .54;
      }
    </style>
  </defs>
  <g id="Layer_1-2" data-name="Layer 1">
    <g>
      <g>
        <path class="cls-1" d="m84.99,42.25c.59-.01,1.12.27,1.67.4.71.17,1.24.34,1.89.74.6.37,1.24.9,1.77,1.36.57.5,1.16.99,1.63,1.61.36.47.85.87,1.19,1.37.29.45.59.9.93,1.34.38.5.82.99,1.14,1.53s.63,1.01.64,1.67c0-1.33.25-2.58,1.04-3.69.38-.54.68-1.07,1.08-1.62.56-.76,1.28-1.38,1.99-1.98,1.13-.97,2.24-1.82,3.6-2.47.27-.13.49-.21.78-.25.36-.05.58.11.84.16.44.08.4-.04.74-.21.36-.18.89-.16.42-.59-.44-.4-1.24-.54-1.79-.54-.79,0-1.42.01-2.17.25-.64.2-1.38.39-1.99.69-.53.26-1.04.63-1.57.89s-1.05.66-1.43,1.09c-.53.6-1.27,1.19-1.68,1.88-.34.56-.5.68-.98.11-.45-.54-.95-1.06-1.39-1.59-.57-.69-1-1.3-1.83-1.69-.34-.16-.62-.2-.98-.29-.23-.06-.34-.15-.59-.16-.19,0-.4.05-.59.01-.45-.08-.71-.21-1.19-.21-.39,0-.79,0-1.18,0-.66,0-1.2-.3-1.98.2Z"/>
        <path class="cls-1" d="m277.78,14.99c.4-.13.92.68,1.14.99.34.47.75.9,1.08,1.38.76,1.11,1.3,2.41,2.13,3.46.38.49.62,1.01.99,1.49.33.42.59.69.83,1.18.41.83.73,1.6.74,2.51-.05-.34.14-.4.18-.65.05-.27,0-.55.06-.83.04-.19.19-.5.25-.74.09-.34.2-.7.3-1.04.41-1.38,1.13-2.61,1.93-3.8.85-1.27,2.08-2.11,3.12-3.26.79-.88,1.5-1.86,2.39-2.68-.26-.03-.74.26-.96.36-.38.16-.76.3-1.14.49-.91.46-1.68,1.04-2.51,1.58-.64.42-1.13.9-1.59,1.57-.53.79-.71,1.75-1.23,2.52-.17.25-.37.7-.75.56-.11-.04-.23-.26-.29-.35-.17-.26-.29-.37-.5-.6-.54-.58-1.09-1.2-1.77-1.64-.73-.47-1.67-.88-2.47-1.28-.43-.21-.82-.39-1.24-.64-.32-.19-.88-.6-1.25-.63-.01-.05-.03-.11.55.04Z"/>
        <path class="cls-1" d="m280.15.96v-.13c-.1.63.52.92.98,1.17.94.52,1.81,1.17,2.59,1.93.73.72,1.44,1.49,2.12,2.22.41.44,1.05.88,1.23,1.46.24-.18.22-.56.3-.82.12-.43.33-.7.55-1.09.18-.33.29-.69.53-.99.31-.39.7-.69,1-1.09.52-.7,1.09-1.39,1.62-2.08.21-.27.5-.54.74-.79.19-.19.86-.44.77-.76-.22.07-.46.28-.68.35-.34.1-.72.13-1.07.26-.74.27-1.46.64-2.17.99s-1.39.74-1.98,1.33c-.39.39-.96,1-1.03,1.56-.42-.05-.33-.7-.65-.96-.33-.27-.79-.45-1.18-.62-.55-.23-1.16-.56-1.73-.72-.66-.19-1.24-.43-1.93-1.23Z"/>
        <path class="cls-2" d="m371.21,172.61c1.23,1.72,3.43,2.3,5.43,2.63,1.7.28,3.21.75,4.75,1.52,2.23,1.11,4.13,2.91,5.77,4.76,1.42,1.6,3.31,2.94,5.28,3.75.86.35,1.7.67,2.58.98.83.29,1.56.79,2.36,1.15,1.72.78,3.36,1.56,4.94,2.61.88.58,1.56,1.34,2.41,1.95.93.67,1.9,1.03,3.02,1.22.37.06,1.38.07,1.34.7-.02.3-.39.5-.63.63-.83.46-1.59,1.13-2.48,1.51-1.91.83-3.77,1.69-5.69,2.53-.72.31-1.46.49-2.22.72-.6.18-1.26.42-1.88.42-1.1-.01-2.07.21-3.16.2-1.01-.01-2.18.5-3.16.83-.66.23-1.3.42-1.98.6-.65.17-1.41.34-2.08.35-1.07.01-2.08.4-3.16.39s-2.23.11-3.26-.15-2.22.08-3.16.31c-.59.14-1.19.29-1.78.43s-1.07.41-1.57.65-1.23.45-1.79.55c-.27.05-.72.03-.99,0-.26-.03-.35-.16-.58-.21-.12-.03-.28.02-.41.02-.28-.01-.33-.09-.59-.16s-.52.01-.79-.03c-.37-.06-.6-.21-.99-.21-.34,0-.57.02-.89.1-.87.22-1.78.19-2.67.4-.64.15-1.23.39-1.8.73-.42.26-.82.55-1.29.71-1.27.45-2.74.31-4.04.62-.18.04-.19.18-.37.22s-.38,0-.56.03c-.13.03-.24.14-.43.16-.71.08-1.46-.05-2.18,0-1.05.06-2.07.48-3.12.57-.4.04-.78.08-1.17.18-.62.16-1.24.14-1.84.28-.36.08-.61.16-.99.16-1.3-.01-2.82-.21-4.1.04-1.42.28-2.94.15-4.4.15s-3.05.18-4.5.01c-.35-.04-.67-.2-1.03-.22-.42-.03-.79.09-1.19.17-.78.16-1.67.04-2.47.04h-9.38c-.72,0-1.45,0-2.18,0s-1.42.2-2.17.2c-.66,0-1.38-.07-2.03.04-.71.13-1.44.08-2.13.25-.58.14-1.17.09-1.78.1-.64,0-1.18-.2-1.82-.2s-1.32,0-1.98,0c-.7,0-1.32-.21-2.03-.2s-1.34-.21-2.05-.2c-.8,0-1.59,0-2.39,0h-5.31c-.93,0-1.86,0-2.79,0-1.09,0-2.14.21-3.21.2-.49,0-.99-.04-1.48-.01s-.98.23-1.48.23-1.01-.24-1.53-.24c-.6,0-1.17.21-1.78.22-1.01.02-1.96-.19-2.96-.21-1.12-.02-2.24,0-3.36,0-2.17,0-4.28-.2-6.44-.2s-4.28-.2-6.45-.2-4.34-.2-6.54-.2-4.44.11-6.65.01c-.53-.03-1.04-.19-1.57-.22s-1.05.01-1.57.01c-1.22,0-2.45.07-3.66-.1-2.41-.34-4.81.4-7.22.06-.62-.09-1.16-.21-1.79-.11-.54.08-1.01.17-1.56.16-1.39-.01-2.77,0-4.16,0-2.37,0-4.84-.18-7.2.02-2.54.22-5.06.17-7.61.18-1.26,0-2.5-.21-3.76-.2-1.36.01-2.69-.18-4.04-.2-5.62-.09-11.21.22-16.81.2-1.38,0-2.75,0-4.13,0-.66,0-1.33.02-2,0-.81-.01-1.6-.19-2.4-.22-1.33-.04-2.67.01-3.99.01-1.45,0-2.84-.06-4.27-.18-1.3-.11-2.63.09-3.93-.03-.63-.06-1.23-.18-1.87-.19-.74,0-1.48.05-2.22-.04-1.23-.15-2.51-.32-3.75-.36-1.4-.05-2.79-.17-4.19-.18-1.23-.01-2.43-.2-3.67-.2-1.32,0-2.63,0-3.95,0h-7.41c-1.12,0-2.24.03-3.36,0-.55,0-1.06-.13-1.6-.19-.66-.07-1.35-.02-2.01-.02-1.03,0-2.14.12-3.16-.04-1.17-.19-2.3-.12-3.48-.15-1.01-.02-1.98-.21-3.01-.2-1.11,0-2.19-.22-3.29-.2-.95.02-1.91-.15-2.86-.19-1.06-.05-2.14-.27-3.19-.39-.46-.05-.92.02-1.38-.03s-.92-.18-1.4-.19c-1.08-.02-2.1.05-3.16-.15-.9-.17-1.9-.05-2.81-.04-1.05.01-2.08-.2-3.14-.2-1.98,0-3.97.02-5.96,0-.91-.01-1.78.21-2.71.2-1.04-.01-2.03.21-3.07.2-1.81-.01-3.61.05-5.38.35-.42.07-.81,0-1.23.03s-.78.2-1.19.22c-.86.05-1.7.17-2.57.18-.76.01-1.49.21-2.27.2-.36,0-.73-.02-1.09,0-.42.01-.77.17-1.18.22-.95.1-2.07.08-3.01-.08-.58-.1-1.16-.36-1.73-.52-1.37-.39-2.73-.6-4.16-.59-2.22.02-4.41-.23-6.61.02-1.97.23-3.86.95-5.82,1.23-2.4.34-4.6-.48-6.67-1.64-2.57-1.45-5.43-1.7-8.34-1.59-2.26.09-4.43.96-6.68,1.01-1.39.03-2.79-.02-4.19-.01-1.49.01-2.81-.18-4.27-.49-2.78-.58-4.53-3.21-6.73-4.83-2.11-1.55-4.76-1.27-7.18-.96-2.11.27-4.48.57-6.56-.04-.65-.19-3.45-1.09-2.48-2.13.39-.42.93-.49,1.43-.74s.94-.48,1.38-.81c.56-.42,1.14-.73,1.66-1.18.48-.42.95-.84,1.5-1.19.35-.22.75-.29,1.1-.51.28-.18.48-.43.78-.6.33-.19.7-.31,1-.54s.55-.48.88-.67c.56-.34,1.1-.53,1.69-.71.23-.07.33-.17.58-.21.32-.05.62-.06.95-.14,1.26-.32,2.6-.63,3.81-1.18.73-.34,1.54-.51,2.32-.79s1.38-.62,2.06-.99c1.41-.76,2.94-1.29,4.32-2.07.24-.13.47-.28.65-.49.29-.34.4-.77.58-1.17.92-2.14,3.25-3.39,4.51-5.34.7-1.09,2.05-3.76,3.73-2.54.4.29.53.38.98.1.35-.22.67-.49.93-.83.76-.99,1.39-1.93,2.02-3.02.46-.78,1.13-1.76,1.88-2.27.69-.47,1.54-.77,2.27-1.23.48-.29,1.02-.53,1.49-.84.38-.25.69-.58,1.08-.84,1.14-.78,2.32-1.52,3.51-2.23,1.29-.76,2.59-1.35,3.98-1.9,1.51-.59,3.13-1.42,4.78-1.45.92-.02,1.81-.22,2.75-.21.71.01,1.35.21,2.08.2.68-.01,1.42.17,2.07.4s1.32.28,1.98.44c1.06.26,2.11.48,3.16.74.97.23,1.97.53,3.01.41,1.22-.14,2.34-.67,3.46-1.15.73-.31,1.49-.6,2.23-.88s1.36-.61,2.08-.84c1.29-.41,2.9-.74,4.25-.39.53.14,1.04.14,1.57.27.48.12.94.24,1.38.47.75.38,1.45.77,2.32.75.62-.01,1.21-.06,1.81.15.53.18,1.01.49,1.51.72,1.05.47,2.05.65,3.17.25,1.62-.57,2.89-1.84,4.24-2.86.52-.39,1.08-.74,1.67-1.03.66-.33,1.37-.74,2.07-.95.26-.08.52-.02.79-.08.38-.1.57-.16.99-.15.7,0,1.29.2,1.98.2.55,0,1.25.12,1.78-.04.62-.18,1.26-.69,1.7-1.14.88-.9,1.64-1.86,2.49-2.76.95-1,2-1.81,3.12-2.58.4-.28.89-.48,1.18-.89.36-.49.23-1.22.02-1.78-.14-.38-.22-.68-.22-1.09s-.11-.55-.2-.88c-.07-.26-.19-.8-.15-1.05.03-.18.28-.64.4-.79.39-.49.7-1,1.29-1.28.66-.31,1.26-.15,1.87.21,1.15.68,2.46,1.54,3.9,1.18.65-.16,1.07-.72,1.58-1.13.6-.49,1.02-1.08,1.73-1.36.14.21.99.35,1.24.37.32.02.76.08.95-.24s0-.93-.06-1.24c-.07-.33-.15-.8-.29-1.09-.13-.27-.31-.46-.45-.74-.16-.33-.38-.53-.59-.83-.4-.57-.7-1.12-1.25-1.58-1.43-1.21-3.01-2.1-4.18-3.61-.5-.65-1.01-1.27-1.38-1.97-.17-.32-.4-.52-.6-.79-.11-.15-.47-.71-.45-.87.54.58,1.18,1.01,1.79,1.5.69.56,1.22,1.33,1.98,1.79.71.43,1.45.81,2.18,1.18.4.2.83.37,1.28.5s.87-.01,1.29.09c.81.19,1.16.74,1.57,1.39.38.61.82,1.18,1.23,1.77s.85,1.1,1.49,1.44c.72.38,1.45.86,1.98,1.54.91,1.16,1.21,2.63,2.26,3.69.54.54,1.05.69,1.77.7s1.33-.43,1.98-.6c.33-.09.86-.12,1.15.05s.49.56.68.8c.31.38.99.97,1.48,1.18.73.31,1.48.34,2.18.59.63.22,1.11.73,1.57,1.21.15.16.49.6.71.66.43.12.74-.36.9-.66.38-.74.08-1.46-.12-2.2-.19-.68-.66-1.72,0-2.27.26-.22.64-.36.99-.4.21-.02.48,0,.69,0,.26.01.45.16.69.19,1.25.14.42-1.22.31-1.69-.08-.36-.02-.8-.02-1.17,0-.57-.11-.96.49-1.19.82-.32,1.69.4,2.37.82.73.46,1.41.88,2.17,1.26,1.6.81,3.15,1.72,4.94,1.97.92.13,1.7.56,2.57.9s1.68.67,2.37,1.38c.46.47,1.12,1.18,1.77,1.29.94.16,1.7-.4,2.58-.58.41-.09.89.09,1.29,0,.16-.04.21-.18.37-.22.22-.05.48.06.71.02.77-.14.91-1.13,1.27-1.7.26-.41.46-.82,1-.63.18.06.3.2.44.31.18.14.24.16.44.25.6.26,1.67.33,2.37.18.84-.18,1.46-.57,2.37-.58.78,0,1.33.21,2,.57.41.22,1.52,1.74,2.08,1.09.18-.21.08-.63.07-.87-.05-1.02.46-1.88.77-2.83.14-.44.33-.91.44-1.37.06-.25.13-.51.19-.74s.12-.45.04-.71c-.03-.08-.11-.13-.13-.25-.02-.15.13-.26.13-.38,0-.15-.1-.14-.13-.28-.02-.12,0-.32,0-.45,0-.24.03-.48-.03-.71s-.22-.53-.3-.77c-.14-.44-.22-.87-.39-1.28-.09-.22-.14-.38-.2-.62,0-.02-.11-.31-.12-.33-.05-.13.05-.24-.12-.34.11-.66,1.22.17,1.46.34.51.34,1.07.85,1.45,1.34.44.56.96,1.03,1.4,1.58.47.59,1.04,1.08,1.45,1.75.68,1.11,1.43,2.17,2.18,3.22.4.56.67,1.19,1.04,1.78.18.29.34.57.51.86.35.57.73.97,1.2,1.43.5.49.84,1.16,1.24,1.73.19.27.35.44.49.74s.31.62.49.89c.63.94,1.41,2.2,2.65,2.41.3.05.62-.03.84-.23.64-.58,0-1.42-.28-2.01-.07-.14-.23-.36-.16-.53.08-.21.23-.11.43-.17.21-.06.21-.15.48-.08.19.05.41.14.59.22,1.29.56,2.54,1.19,3.93,1.6.19.06.32.06.52.07.21,0,.32.09.52.14.34.08.71-.09,1.04-.13.75-.1,1.23-.53,1.63-1.12.29-.42.52-.87.83-1.28.17-.24.55-.82.87-.87.64-.09,1.48,1.27,1.78,1.7.7,1.02,1.05,2.31,1.94,3.19.37.36.81.64,1.28.87.3.15.62.27.93.41.34.15.63.11.99.17,1.66.28,3.24.55,4.94.55.4,0,.88.07,1.27-.02.15-.03.24-.15.4-.19.2-.04.49,0,.7,0,.45,0,.85-.13,1.28-.19.39-.06.8-.21,1.13-.35.61-.25,1.09-.83,1.38-1.43.36-.72.88-1.29,1.28-1.98.66-1.11,1.51-2.2,2.37-3.21.42-.49,1.11-1.03,1.72-1.14.48-.09.47.26.81.39.38.14.69-.28.97-.48.59-.42,1.11-.93,1.67-1.38.7-.57,1.49-1.05,1.97-1.81.17-.26.43-.44.66-.64.27-.24.49-.54.77-.77.77-.66,1.57-1.27,2.48-1.67.98-.43,1.92-.92,2.75-1.54.38-.28.78-.48,1.14-.79.2-.17.37-.31.53-.53.11-.14.2-.39.34-.5.04.33-.24.8-.34,1.13-.13.42-.23.84-.33,1.26-.17.7-.46,1.55-.89,2.15-.52.75-1.09,1.41-1.73,2.05-.54.54-1,1.25-1.16,2.01-.13.61-.13,1.21-.34,1.81-.32.89-.56,1.76-.79,2.67-.09.34-.11.7-.1,1.09,0,.26-.06.39.19.51.18.08.55-.03.71-.11.29-.14.44-.41.68-.6.34-.28.66-.51,1-.79.16-.14.5-.49.71-.48.29,0,.38.47.66.68.65.52,1.35.59,2.18.5.57-.06,1.65-.46,2.02-.96.24.03.21.23.34.37.09.1.33.34.52.37.41.07,1.1-.3,1.47-.53,1.02-.64,1.94-1.45,2.84-2.23.46-.4,1-.77,1.44-1.2.35-.33.59-.76.88-1.14.19-.25,1.84-1.95,1.99-1.73.05.07-.07.36-.09.44-.05.27-.07.55-.11.83-.05.37-.11.75-.2,1.11-.42,1.61-1.39,3.06-2.39,4.35-.08.1-.15.2-.22.3-.46.64-1.4,1.5-1.15,2.37.2.68.94,1.15,1.54,1.41.95.41,1.76.38,2.77.37s2.01.04,3.03.15c.89.09,1.58.15,2.36.7.2.14.4.44.61.52.55.22,1.2-.13,1.69-.29.25-.08.41-.06.69-.09s.51-.18.79-.21c1.34-.17,2.73-.2,4.08-.19,1.85,0,3.69-.21,5.52-.44,1.03-.13,2-.53,2.93-.9.51-.2,1.08-.21,1.59-.43.47-.2.92-.43,1.39-.6.58-.22,1.18-.65,1.76-.94.78-.39,1.54-.9,2.35-1.24.22-.09.44-.15.67-.16.49-.02.97.15,1.46.19,1.54.12,3.01-.18,4.41-.81.58-.26,1.05-.68,1.62-.94.63-.29,1.28-.57,1.94-.83,1.01-.4,1.84-.96,2.96-.99.83-.02,1.49.31,2.13.84.29.24.54.54.82.79.56.48,1.16.77,1.81,1.1,2.04,1.01,4.3.83,6.54.83,1.28,0,2.48-.2,3.76-.2,1.02,0,2.31-.2,3.31-.01,2,.38,3.46,2.07,4.83,3.47,1.06,1.09,2.27,2.07,3.65,2.73,1,.48,2.08.67,3.16.88,1.56.3,2.98.16,4.54.05,1.81-.13,3.54-.78,5.34-.99,1.32-.15,2.58-.39,3.9-.45,1.23-.05,2.46.14,3.66.45,1.01.26,2.11.65,2.87,1.39.6.59,1.02,1.4,1.43,2.11.53.91.89,2.05,1.62,2.82.5.53,1.06.66,1.73.79.42.08.7.23,1.18.2s.87-.21,1.38-.2c.39,0,.79,0,1.18,0,1.13-.02,1.74.82,2.2,1.73s1.17,1.57,1.54,2.46c1.04,2.55.82,5.54,2.48,7.85Z"/>
        <path class="cls-1" d="m74.82,25.04v-.13c-.1.63.52.92.98,1.17.94.52,1.81,1.17,2.59,1.93s1.44,1.49,2.12,2.22c.41.44,1.05.88,1.23,1.46.24-.18.22-.56.3-.82.12-.43.33-.7.55-1.09.18-.33.29-.69.53-.99.31-.39.7-.69,1-1.09.52-.7,1.09-1.39,1.62-2.08.21-.27.5-.54.74-.79.19-.19.86-.44.77-.76-.22.07-.46.28-.68.35-.34.1-.72.13-1.07.26-.74.27-1.46.64-2.17.99s-1.39.74-1.98,1.33c-.39.39-.96,1-1.03,1.56-.42-.05-.33-.7-.65-.96-.33-.27-.79-.45-1.18-.62-.55-.23-1.16-.56-1.73-.72-.66-.19-1.24-.43-1.93-1.23Z"/>
        <path class="cls-1" d="m26.01,12.72v-.08c-.05.38.28.56.52.72.5.32.97.72,1.38,1.18s.76.92,1.13,1.36c.22.27.56.54.66.9.13-.11.12-.34.16-.5.06-.26.18-.43.29-.67.1-.2.16-.43.28-.61.17-.24.37-.42.53-.67.28-.43.58-.85.87-1.28.11-.17.27-.33.39-.49.1-.12.46-.27.41-.47-.12.05-.24.17-.36.22-.18.06-.38.08-.57.16-.4.17-.78.39-1.16.61s-.74.46-1.05.82c-.21.24-.51.61-.55.96-.22-.03-.18-.43-.34-.59-.17-.17-.42-.28-.63-.38-.29-.14-.62-.34-.92-.44-.35-.12-.66-.26-1.03-.75Z"/>
      </g>
      <path class="cls-2" d="m253.49,130.59c.27-.81,1.18-1.48,1.79-2.04.66-.61,1.37-1.21,1.99-1.89.35-.39.75-.73,1.12-1.11.23-.24.39-.47.56-.75.14-.23.32-.37.49-.58.26-.34.49-.68.77-1.01.2-.24.51-.34.7-.56.23.17.13.33.07.53-.06.22-.07.42-.07.67,0,.52-.05,1.03-.18,1.52-.21.83-1.08,1.61-1.74,2.14-.44.35-.85.73-1.34,1.01-.41.23-.8.33-1.25.46-.19.05-.49.19-.69.28s-.35.1-.55.18c-.25.09-1.01.59-1.66,1.16Z"/>
      <path class="cls-2" d="m119.41,123.33c-.36-.39-.55-.98-.88-1.39-.15-.19-.36-.34-.53-.54s-.34-.4-.52-.59c-.73-.79-1.31-1.63-2.15-2.3-.44-.35-.93-.79-1.48-.95-.22-.06-.47-.07-.67-.16-.24-.11-.34-.08-.6-.14-.1-.02-.13-.13-.23-.14-.12-.02-.25.02-.37,0s-.13-.12-.23-.14c-.12-.03-.24.02-.36,0-.29-.05-.5-.23-.82-.16-.23.05-.31.19-.49.34.16.41.4.82.68,1.19s.62.47.98.72c.41.28.83.52,1.28.76s.93.41,1.37.67c.41.24.83.51,1.24.77.21.13.35.26.53.41.2.16.48.21.68.37.33.26.65.4,1.03.59.28.14.74.66,1.52.7Z"/>
      <path class="cls-2" d="m114.82,137.56c.12-.47-.61-.65-.89-.74-.56-.17-1.08-.42-1.63-.56-.43-.11-1.12-.08-1.49.11-.28.15-.85.63-.56,1.01.06.08.42.16.53.21.2.1.39.2.59.3.47.23,1.01.44,1.52.59.22.07.39.18.59.26.21.09.45.08.67.14.26.07,1.17.49,1.23.04-.2-.13-.09-.29-.11-.48s-.14-.29-.23-.45c-.14-.23-.34-.52-.13-.78l-.09-.11"/>
      <path class="cls-2" d="m186.08,126.3c-.41-.09-.8-.88-1.11-1.19-.33-.32-.63-.64-.96-.96-.19-.19-.4-.34-.62-.48-.12-.08-.25-.16-.38-.22-.11-.05-.22-.06-.33-.1-.28-.11-.4-.17-.74-.16-.38.02-.56.2-.41.6.17.49.76.76,1.13,1.07s.71.57,1.06.88c.45.39.81.85,1.23,1.27.21.21.69.88.97.91.12-.39.03-.87-.08-1.2-.14-.4-.28-1.05-.63-1.3"/>
      <path class="cls-2" d="m238.23,140.52c0-.35-.02-.6.15-.89.15-.25.32-.49.48-.74.3-.47.73-1.27,1.39-1.2-.18.14-.07.46-.11.66-.03.17-.19.4-.25.56-.15.46-.3,1.07-.59,1.46-.34.45-1.11.95-.94,0,.04-.22.15-.55.26-.75.14-.25.4-.39.34-.73"/>
    </g>
  </g>
</svg>