<?xml version="1.0" encoding="UTF-8"?>
<svg id="Layer_2" data-name="Layer 2" xmlns="http://www.w3.org/2000/svg" viewBox="0 0 227.67 297.06">
  <defs>
    <style>
      .cls-1 {
        fill: #2a3c24;
      }

      .cls-2 {
        stroke: #f9dc5c;
      }

      .cls-2, .cls-3, .cls-4 {
        fill: none;
      }

      .cls-2, .cls-4 {
        stroke-miterlimit: 10;
      }

      .cls-5 {
        fill: #a690a4;
      }

      .cls-6 {
        fill: #fcf4d4;
      }

      .cls-3 {
        stroke-linecap: round;
        stroke-linejoin: round;
        stroke-width: .5px;
      }

      .cls-3, .cls-4 {
        stroke: #2a3c24;
      }
    </style>
  </defs>
  <g id="Layer_1-2" data-name="Layer 1">
    <g>
      <path class="cls-5" d="m110.83,7.02c.28-2.08-2.53-2.22-3.77-2.63-1.68-.55-3.5-.51-5.28-.81-1.39-.23-2.96-.76-4.35-1.24-1.12-.39-1.87-.36-3.01-.3-1.24.06-2.29-.33-3.57-.26-1.05.05-1.87-.4-2.85-.23.03,0-.49.51-.64.56-.55.19-1.23-.04-1.79.1-1.9.5-4.01,1.75-5.66,2.74-3.18,1.91-5.98,4.5-8.78,7.03s-4.68,5.31-6.79,8.3-3.86,6.45-5.33,9.8c-.41.95-.55,2.05-.89,3.04-.4,1.19-.83,2.48-1.15,3.68-.6,2.21-.49,4.39-.84,6.59-.38,2.36-.72,4.79-1.01,7.2-.26,2.18.13,4.4-.08,6.63-.45,4.69-.08,10.77,1.41,15.25.37,1.12.11,2.27.41,3.36.21.78.7,1.35.85,2.17.08.42-.06.91.06,1.32.18.63.65,1.05.81,1.69.1.37-.05.81.04,1.18.14.55.55.89.7,1.41.2.69.13,1.34.37,2.04,1.46,4.18,3,8.38,4.45,12.6s3.08,8.06,4.19,12.16c1.22,4.5,3.73,8.62,5.23,13.02s2.95,8.44,4.69,12.55,3.56,8.35,5.29,12.52c1.59,3.82,3.71,7.37,5.38,11.04.8,1.78,1.38,3.62,2.22,5.43.79,1.69,1.66,3.78,2.3,5.69,1.42,4.22,2.66,8.43,4.12,12.63,1.4,4,2.81,8.01,4.18,12.03.27.78.95,1.72,1.14,2.39.05.19.21,1,.23,1.03.05.1.55,1.19.58,1.26.59,1.99,1.12,3.95,1.8,5.91s1.19,3.81,1.82,5.7c.13.4.5.39.65.85.12.38-.08.87.05,1.24.17.52.58.53.75,1.05.19.58.05,1.17.26,1.78.62,1.76,1.28,3.63,1.98,5.27.56,1.3,1.3,4.04,2.88,4.36,2,.4,3.92-1.02,5.84-1.16,2.2-.16,3.76-1.29,5.77-1.7,1.77-.36,1.93-2.17,2.02-3.74.07-1.17-.6-1.85-.9-2.89-.33-1.15.28-2.17.34-3.28.2-3.87-.77-8.15-1.13-12.02-.38-4.1-.76-8.21-1.14-12.31-.09-.97-.25-1.96-.28-2.93-.04-1.07.38-1.92.34-2.99-.09-2.28-.98-4.12-1.19-6.39-.37-4.01-.74-8.01-1.11-12.02-.18-1.95-.35-3.91-.54-5.86-.2-2.06.27-3.54.07-5.62-.4-4.15-.76-8.3-1.15-12.44-.19-2.11-.42-4.21-.58-6.32-.1-1.24-.52-1.71-.88-2.84-.4-1.27-.29-3.26-.4-4.59s-.66-2.17-.94-3.45-.03-2.58-.29-3.81-.76-2.08-.92-3.29c-.2-1.48.03-2.51.18-3.89.21-1.94-.42-3.96-.2-5.9s-.08-4.11-.27-6.18l-1.14-12.31-.54-5.86c-.19-2.04-.79-4.42-.63-6.45.09-1.11.47-1.8.34-2.99-.1-.98-.18-1.96-.27-2.93-.19-2.08-.26-4.18-.86-6.13s-.77-3.89-.54-5.86-.47-4.19-.14-6.2.04-3.97.37-5.95c.17-1.01-.25-1.95-.17-2.94.11-1.36.43-2.16.29-3.57-.19-1.95-.36-3.91-.54-5.86-.08-.85-.43-2.13-.3-2.96.07-.46.45-.55.48-.95.06-.65-.06-1.34-.13-2-.12-1.12.26-1.39.4-2.37.12-.85-.21-2.11-.3-2.96-.12-1.12.26-1.39.4-2.37s-.24-2.29-.33-3.25-.19-1.95-.27-2.93c-.04-.45.04-1.08-.11-1.5s-.54-.46-.65-.85c-.12-.45,0-1.01-.15-1.45-.15-.46-.51-.45-.65-.85-.22-.64-1.01-1.86-.24-1.99Z"/>
      <path class="cls-6" d="m111.13,6.01l.22,2.35c.04.44.02.93.11,1.36.11.56.37.95.42,1.53s0,1.42.17,1.98c.13.46.34.78.4,1.27.13,1.08.19,2.16.29,3.24.18,1.91.35,3.82.53,5.73.06.63.04.93-.06,1.52-.08.45.07.88.07,1.33s-.17.85-.15,1.31c.02.59.03,1.04-.05,1.59-.06.47.05.93.07,1.41s-.13.78-.17,1.22c-.03.41.12.89.14,1.3.02.47-.17.85-.15,1.33.01.38.14.79.12,1.17-.02.43-.18.76-.17,1.2s.15.88.13,1.31-.17.64-.18,1.06.02.78-.02,1.18c-.05.48.06.98.02,1.46-.04.44-.2.73-.17,1.19.03.56-.1.93-.14,1.46-.03.37.11.8.12,1.17.02.46-.13.76-.17,1.2-.07.85.34,1.75.27,2.6-.04.44-.19.74-.17,1.2.02.39.08.78.11,1.17.08.93-.11,1.72-.02,2.63.17,1.74.32,3.47.48,5.21l.94,10.16.22,2.34c.04.44.08.88.12,1.32.07.71-.05,1.17-.11,1.84-.07.73.16,1.61.23,2.35.09,1,.18,2,.28,3,.04.48.17,1.01.15,1.5-.02.56-.18.96-.13,1.52.07.83.15,1.65.23,2.48.04.43.17.95.14,1.37-.04.59-.19.95-.13,1.58.1,1.02.19,2.05.28,3.07l.48,5.2.24,2.61c.04.39.1.78.11,1.17,0,.22.02.32-.02.53-.08.48-.11.45,0,.92.39,1.48.52,3.24.58,4.81.02.48-.17.85-.15,1.33.01.39.08.79.11,1.17.09.88-.12,1.62-.03,2.5.08.82.14,1.65.23,2.48.09.87-.11,1.61-.03,2.5.07.78.14,1.56.22,2.35.04.43.09.86.12,1.3.05.58.27,1,.42,1.55.42,1.56-.05,3.41.5,4.94.28.77.34,1.47.42,2.31.05.52.06,1.06.14,1.58.07.47.32.81.39,1.28.11.73,0,1.6.26,2.28.15.4.27.57.31,1.08s.27.81.39,1.28c.2.74-.01,1.61.19,2.35.14.5.35.73.39,1.28.03.41,0,.91.11,1.3.12.43.33.68.39,1.15.06.49.15.72.31,1.15.32.88.07,1.9.3,2.8.11.45.33.73.39,1.21.06.41.07.82.11,1.23.11,1.14.46,2.11.56,3.25.19,2.17.37,4.35.6,6.52.06.54-.05.95-.1,1.48-.05.49.07,1.03.12,1.53.05.53.12,1.07.15,1.61.03.61-.15,1.14-.11,1.75.06.95.21,1.9.28,2.85.04.56-.15,1.05-.13,1.6.02.61.12,1.23.18,1.83.1.99-.1,1.9,0,2.89.09.86.16,1.73.24,2.59.04.4.16.85.13,1.24-.05.54-.21.83-.15,1.39.04.41.11.83.12,1.24.02.59-.18,1.05-.12,1.65.04.35.06.7.09,1.04.06.55-.11.81-.15,1.33-.07.85.18,1.89.27,2.74.1.93-.09,1.81,0,2.76s.42,1.72.51,2.69c.16,1.74.32,3.49.48,5.23l.22,2.35c.04.39.07.78.11,1.17.06.59-.05.9-.11,1.46-.16,1.55.29,3.4.43,4.95l.44,4.82c.04.43.09.87.12,1.3.04.48.22.71.35,1.15.22.75.18,1.69.25,2.47l.23,2.48c.04.47.41,1.9.05,2.24.41.26.55.55,1.08.4.16-.04.34-.23.52-.3.12-.05.29.02.41-.02.14-.05.19-.21.28-.25.51-.2,1.06-.38,1.61-.47.26-.04.43-.13.64-.19.45-.14.28.02.68.05.5.03,1.05-.19,1.55-.13.27.03.4.19.65.23.32.04.6-.04.94.03.86.17,1.69.59,2.48.92.42.18,1,.28,1.41.49.26.14.85.76,1.17.66.37-.12.37-.81.42-1.12.07-.48.25-.95.34-1.4.1-.55.11-1.12.19-1.67s.23-1.12.33-1.63c.19-.97.45-1.89.67-2.93.49-2.31,1.1-4.73,2.05-6.89.43-.96.95-1.86,1.32-2.82.42-1.08.81-2.23,1.28-3.28.25-.55.36-1.15.58-1.69.12-.29.34-.52.44-.83.04-.13.03-.28.08-.41.09-.26.23-.34.33-.55.47-1.07.88-2.38,1.25-3.53.75-2.35,1.51-4.76,2.4-7.04.42-1.1.78-2.18,1.21-3.28.27-.69.33-1.34.53-2.03.17-.6.55-1.16.71-1.76s.49-1.13.65-1.77.27-1.26.51-1.88c.46-1.18.53-2.53.87-3.76.64-2.36,1.53-4.74,1.88-7.14.16-1.06.2-2.09.28-3.18.04-.52.18-1.12.26-1.6.04-.23.07-.4.07-.66,0-.37.12-.52.16-.83.04-.26-.06-.5-.06-.76,0-.3.14-.52.18-.8.04-.31-.05-.61-.07-.91-.02-.36.12-.59.16-.93.03-.26-.03-.52-.05-.78-.03-.39.06-.56.12-.93.05-.28,0-.5-.02-.79-.02-.36.12-.59.16-.93.04-.31-.05-.6,0-.92s.15-.48.14-.8c-.03-.65.11-1.2.08-1.85-.03-.55.15-1.02.12-1.59-.02-.37.12-.58.16-.93.04-.31-.12-.63-.08-.93.03-.22.21-.3.24-.52.04-.29-.11-.61-.07-.9.03-.2.17-.33.2-.56.03-.31-.09-.6-.04-.93.06-.34.15-.57.12-.93-.02-.27-.09-.52-.05-.78.04-.29.16-.51.18-.8.01-.35-.13-.69-.08-1.04.04-.29.17-.51.18-.8,0-.26-.1-.52-.09-.78.01-.35.18-.64.2-1,.02-.41-.05-.73.01-1.13.21-1.29.18-2.66.28-3.96.05-.58.23-1.16.31-1.74.09-.61.06-1.24.14-1.85.07-.53.24-1.1.38-1.61.21-.73.17-1.42.4-2.15.42-1.32.55-2.75,1.07-4.03.48-1.19.81-2.44,1.18-3.66.16-.52.21-1.08.36-1.61.19-.65.55-1.25.72-1.91.16-.6.44-1.16.6-1.76.07-.26.12-.54.18-.81.1-.43.35-.88.43-1.29.1-.54.07-1.11.15-1.65.1-.71.31-1.42.35-2.14.01-.26-.14-.53-.1-.79.03-.22.21-.3.24-.52.04-.3-.1-.64-.08-.95.03-.41.13-.77.13-1.18,0-.35.12-.58.16-.93.04-.31-.07-.61-.04-.92s.15-.61.16-.94c.01-.35-.13-.69-.08-1.04.15-1.22.45-2.47.43-3.73-.02-1.33.11-2.62.14-3.95,0-.34.18-.6.2-.94.02-.27-.07-.5-.03-.79.05-.3.15-.48.14-.8-.02-.36-.1-.68-.04-1.05.09-.53.03-1.05.12-1.59.1-.61.26-1.25.31-1.87.02-.25-.08-.53-.09-.78-.02-.35.13-.6.16-.93.06-.57-.17-1.13-.08-1.7s.21-1.15.28-1.73c.03-.26-.03-.52-.05-.78-.03-.4.11-.68.15-1.06.05-.52.14-1.1.14-1.61,0-.43.03-.75.09-1.16s-.08-.8-.03-1.2c.15-1.14.41-2.3.46-3.45.01-.3-.11-.61-.1-.92,0-.27.12-.38.16-.59.05-.26.02-.47,0-.73-.04-.43.04-.66.11-1.06.09-.53.03-1.05.12-1.59.06-.33-.04-.59-.04-.92s.17-.6.2-.94c.02-.26-.12-.52-.1-.78.03-.33.18-.6.2-.94.03-.59.12-1.12.09-1.72-.02-.38.12-.58.16-.93.03-.26-.06-.51-.03-.76.02-.19.17-.33.2-.56.04-.34-.13-.71-.12-1.05.05-1.16.33-2.31.46-3.46s-.03-2.4.16-3.56c.17-1.04-.16-2.34-.25-3.39-.06-.64-.28-1.07-.42-1.67-.13-.55-.23-1.15-.4-1.69-.14-.43-.5-.92-.7-1.37-.27-.61-.45-1.19-.65-1.79-.07-.2-.24-.33-.3-.51-.08-.25-.04-.51-.11-.76-.17-.54-.44-1.06-.62-1.54-.42-1.09-.8-2.19-1.25-3.28-.97-2.36-2.46-4.43-3.64-6.63s-2.48-4.46-3.88-6.61c-.67-1.02-1.3-1.95-1.99-2.95-.6-.86-1.39-1.66-2.04-2.5-.71-.92-1.48-1.84-2.19-2.79-.78-1.06-1.63-2.1-2.58-2.98s-1.86-1.72-2.87-2.56-2.19-1.41-3.23-2.21c-.86-.66-1.8-1.24-2.78-1.7-1.2-.57-2.17-1.27-3.43-1.59-1.11-.28-2.14-.74-3.24-.9-1.15-.17-2.33-.28-3.46-.47-.57-.09-1.13.12-1.7.11-.3,0-.52-.14-.8-.18-.34-.04-.7.05-1.04.08-.57.04-1.02-.16-1.59-.12-.3.02-.61.08-.91.09-.36.01-.59-.12-.93-.16-1.05-.13-2.33.19-3.39.29-1.24.11-2.34.39-3.48.79-1.99.69-4.12,1.17-5.74,2.76-.37.36-.56.91-.85,1.34-.32.45-.64.87-.86,1.38-.19.45-.45.93-.6,1.36-.19.57-.18.82,1.14-1.94Z"/>
      <path class="cls-1" d="m149.63,7.45l-.03-.16c.34.25.58.56.95.79.33.21.64.34.96.57.38.26.46.56.73.86.31.35.66.64.96,1.02.55.72.93,1.51,1.45,2.22.59.8,1.17,1.61,1.68,2.49.39.67.6,1.41,1.09,1.98.68.8,1.33,1.79,1.77,2.74.75,1.62,2.24,3.01,3.23,4.49.26.39.55.77.78,1.18.28.5.28.99.65,1.46.67.85,1.05,1.84,1.58,2.8.44.81.85,1.62,1.27,2.45.2.39.45.82.64,1.26.18.41.38.9.57,1.31.41.87.52,1.68.83,2.56.17.5.49,1,.62,1.52.15.59.21,1.24.4,1.82.08.23.26.24.33.47.08.25-.04.56.05.81.13.4.33.49.37,1s.1,1.04.15,1.56c.05.64.28.97.41,1.53.45,1.98.38,4.24.57,6.26.09,1,.22,1.93.06,2.89-.09.53.12,1.04.03,1.57-.11.65-.1,1.16-.03,1.84.06.62-.08,1-.13,1.59-.04.45.1.98.15,1.43.04.47.15.97.07,1.44-.05.32-.15.46-.14.8.02.37.1.68.04,1.05-.09.57-.03,1.01-.05,1.59-.02.51-.21.77-.15,1.32.12,1.1-.29,2.1-.24,3.18.08,1.96-.73,3.83-.77,5.85-.02,1.03-.19,2.1-.3,3.12-.03.31-.25.78-.3,1.14-.05.29-.02.5.01.79.05.44-.04.65-.11,1.06-.05.3.03.5.02.79,0,.26-.14.41-.16.59-.06.52-.04,1.01-.12,1.53-.15.92-.12,1.78-.34,2.66-.48,1.93-.19,4.12-.75,6.11-.3,1.07-.46,2.16-.69,3.22s-.5,2.16-.57,3.21-.21,1.95-.23,2.92c0,.25-.14.41-.16.59-.03.25.04.48.02.73-.04.53-.26,1.09-.33,1.61s-.16,1.07-.17,1.59c-.01.57-.24,1.05-.32,1.61-.15,1.07-.41,2.12-.56,3.21-.14.96-.49,2.02-.52,2.93-.03,1.1-.27,2.12-.43,3.2-.3,2.03-.61,3.96-.8,5.99-.09,1.01-.05,2.07-.26,3.06-.09.44-.28.86-.35,1.33-.04.28,0,.51-.04.79-.05.36-.05.72-.09,1.07-.01.11-.18.27-.19.33-.02.24.06.51.02.74s-.21.28-.24.52.05.5.02.74c-.01.13-.13.41-.15.59-.03.28-.09.53-.13.81-.09.56-.03,1.06-.17,1.59-.12.44-.14.84-.21,1.28-.05.34-.25.86-.3,1.2-.17,1.14-.3,2.27-.47,3.4-.07.45-.07.88-.14,1.33-.08.52-.16,1.07-.17,1.59-.02,1.1-.24,2.4-.46,3.47-.05.23-.21.29-.24.52-.02.17.09.36.08.53-.02.29-.2.51-.22.81-.02.28.07.5.03.79-.08.54-.19,1.08-.33,1.61s-.01,1.03-.09,1.59c-.03.24-.21.28-.24.52-.03.21.08.44.05.67-.02.24-.18.42-.19.67-.02.28.07.5.03.79-.18,1.14-.3,2.3-.47,3.46-.13.91-.34,1.74-.48,2.67-.17,1.16-.51,2.32-.68,3.48-.29,2.01-.72,3.83-1.16,5.89-.12.55-.42,1.08-.52,1.63-.09.46-.03.89-.19,1.35-.32.93-.52,1.95-.85,2.96-.63,1.92-1.01,3.96-1.54,5.93-.49,1.82-1.27,3.71-2.14,5.39-.42.82-.77,1.62-1.09,2.46-.13.35-.2.81-.35,1.16-.21.48-.62.89-.86,1.38-.46.93-.85,1.89-1.31,2.81-.39.77-.83,1.41-1.25,2.15-.47.84-.59,1.86-.92,2.74-.31.82-.69,1.58-.97,2.44-.65,1.97-1.09,4.02-1.67,5.99s-.97,3.94-1.62,5.89c-.57,1.71-.42,3.45-.89,5.27-.12.48-.37.88.33.76.32-.05.95-.48,1.33-.59.87-.26,1.84-.71,2.81-.78,1.13-.09,2.2-.07,3.21.49.74.41,1.67,1.04,2.19,1.7s1.1,1.2,1.56,1.9.27,1.64.99,2.17c.19-.29.45-.53.65-.81.27-.38.37-.72.51-1.15.35-1,.58-2.03,1.04-2.96.38-.77.86-1.65,1.4-2.33.62-.78.98-1.72,1.61-2.51s.96-1.59,1.42-2.44c.49-.92,1.33-1.8,1.94-2.68s1.31-1.51,1.95-2.26,1.17-1.62,1.72-2.41c1.2-1.72,2.39-3.45,3.56-5.19.55-.83,1.18-1.64,1.78-2.42.64-.84.96-1.79,1.49-2.71.47-.82,1.15-1.55,1.62-2.4.64-1.16,1.24-2.32,1.98-3.41.55-.81,1.19-1.77,1.53-2.7s.94-1.83,1.45-2.76c.26-.47.42-1.04.68-1.48s.62-.82.84-1.29c.43-.9.9-1.67,1.26-2.61.85-2.21,2.17-4.12,3.24-6.21s1.91-4.41,2.8-6.7,1.92-4.41,3.01-6.51c.52-1,.73-2.08,1.23-3.07.13-.26.21-.55.29-.82.09-.31.21-.52.33-.82.21-.53.33-1.18.46-1.75.25-1.18.48-2.36.87-3.5.19-.55.14-1.05.37-1.61.25-.61.26-1.14.42-1.75.34-1.25.63-2.53.98-3.77.32-1.13.77-2.24,1.07-3.38.33-1.27.68-2.53,1.1-3.78.34-1.03.53-2.15.95-3.13.92-2.14,1.29-4.52,2.34-6.63s1.91-4.39,2.51-6.67c.13-.49.31-1.03.48-1.49.2-.53.33-1.08.51-1.64.33-.98.68-2.05.9-3.09.5-2.36,1.18-4.7,1.64-7.06.09-.44.27-.93.33-1.4.08-.59.35-1.32.55-1.89.16-.48.3-.97.4-1.41.11-.48.34-1,.43-1.45.22-1.1.34-2.2.5-3.31s.24-2.31.42-3.46c.04-.28-.06-.54-.03-.8.03-.22.21-.3.24-.52.04-.24-.08-.55-.09-.79-.02-.36.12-.59.16-.93.03-.27-.06-.52-.03-.79.03-.29.17-.51.18-.8,0-.26-.12-.54-.09-.79.04-.3.17-.48.21-.79.03-.26-.12-.54-.09-.8.03-.23.17-.36.2-.56.07-.52-.08-1.15-.13-1.67l-.3-3.26c-.21-2.3-.42-4.6-.64-6.91-.05-.52-.09-1.04-.14-1.56-.07-.67.12-1.21.1-1.85-.04-1.08-.21-2.18-.31-3.26-.2-2.22.12-4.45-.35-6.68-.1-.49-.34-.73-.39-1.27s-.11-1.13-.16-1.69c-.1-1.13-.18-2.26-.31-3.39-.07-.56-.34-.98-.41-1.54-.03-.26-.03-.53-.07-.78-.05-.34-.17-.44-.27-.69-.17-.45-.15-1.01-.2-1.5-.05-.64-.3-1.07-.43-1.67-.05-.25-.03-.53-.06-.78-.04-.4-.17-.55-.29-.89-.1-.27-.05-.51-.12-.78-.08-.32-.29-.56-.37-.89-.24-1.03-.71-2.14-1.13-3.12-.05-.12-.23-.35-.31-.49-.11-.19-.15-.38-.24-.58-.23-.47-.51-.93-.73-1.44-.41-.94-.95-2.01-1.49-2.95-1-1.73-1.54-3.86-2.72-5.66-1.05-1.59-2.26-3.36-3.62-4.65-1.61-1.53-3.08-3.27-4.8-4.68-.79-.65-1.63-1.22-2.41-1.88-1-.85-1.97-1.64-2.99-2.48s-2.16-1.69-3.06-2.67-2.02-1.79-3.08-2.68c-1.74-1.46-4.02-2.27-6.19-2.97-1.91-.61-3.65-1.67-5.59-2.24s-3.91-1.44-5.94-1.67c-1.04-.12-2.11-.09-3.19-.25-.92-.13-1.82-.47-2.8-.55s-1.89.26-2.73.5c-.25.07-.52.02-.77.09-.23.06-.31.23-.51.3-.49.17-1.15.13-1.12.39Z"/>
      <path class="cls-5" d="m198.24,32.93l-.02-.16c-.03.38.37.55.58.8.24.29.45.74.59,1.1.38.93.74,1.88,1.17,2.78.22.45.42.79.58,1.26.14.43.3.84.45,1.27.29.87.75,1.68,1.16,2.53.35.72.74,1.48,1,2.27.28.84.67,1.58,1,2.33.17.4.33.8.5,1.21s.43.8.54,1.16c.15.46.28.91.48,1.38.22.5.24.97.39,1.48.03.09.2.15.24.29.07.22.04.57.06.8.04.42.05.84.17,1.24.02.06.21.18.24.29.07.22.04.57.06.8.04.52.06,1.05.14,1.56.07.47.32.81.39,1.28.06.43.07.87.11,1.3l.26,2.87.25,2.74c.08.9.34,1.97.24,2.87-.06.54-.16.89-.11,1.46.04.43.08.87.12,1.3l.26,2.87.5,5.47c.04.43.11.87.13,1.3.02.52-.16.93-.14,1.46.02.43.15.88.1,1.3-.06.58-.16.97-.09,1.59.06.57-.1.92-.14,1.46-.01.17.1.36.08.53-.03.24-.21.28-.24.52-.02.18.1.37.08.55-.03.23-.19.29-.24.52-.11.51-.09,1.08-.16,1.61-.26,1.74-.59,3.28-.85,5.01-.02.16-.13.38-.15.59-.02.19.02.33,0,.53-.05.35-.27.84-.3,1.14-.09.92-.22,1.78-.36,2.73s-.43,1.87-.56,2.81c-.12.86-.59,1.57-.71,2.43-.44,3.27-1.23,6.37-2.12,9.66-.25.94-.6,1.74-.81,2.7s-.59,1.82-.94,2.71c-.26.68-.42,1.46-.65,2.15-.28.83-.51,1.61-.62,2.44-.1.74-.52,1.53-.72,2.23-.24.84-.58,1.65-.83,2.44-.57,1.8-.97,3.48-1.48,5.28-.44,1.54-1.36,3-1.82,4.49s-.9,3.05-1.49,4.53c-.15.39-.28.87-.41,1.26-.12.36-.29.74-.39,1.09-.24.86-.58,1.73-.91,2.56-.28.7-.53,1.31-.75,1.97-.28.87-.54,1.79-.87,2.66-.65,1.69-1.35,3.47-1.95,5.15-.3.86-.66,1.59-.9,2.45-.28,1-.58,1.99-.97,2.98-.32.81-.5,1.6-.84,2.38s-.73,1.66-.95,2.51c-.42,1.64-1.19,2.95-1.95,4.44-.44.86-.79,1.72-1.27,2.56-.51.87-.92,1.81-1.32,2.75-.65,1.51-1.37,3.08-2.15,4.46-.44.78-.91,1.67-1.08,2.54-.18.94-.83,1.69-1.22,2.54-.72,1.56-1.59,3.17-2.38,4.76-.72,1.45-1.74,2.79-2.44,4.29s-1.67,3.13-2.74,4.39c-.45.53-.75,1.17-1.09,1.74-.51.85-1.04,1.77-1.61,2.62-1.09,1.64-2.15,3.28-3.22,4.92-.99,1.5-1.88,3.03-2.95,4.48-.4.54-.58,1.08-1.02,1.59-.51.6-.88,1.35-1.26,2.03-.77,1.37-1.63,2.75-2.38,4.08s-1.43,2.71-2.27,3.89c-.4.57-.86.97-.78,1.65.02.19.44.66.49.87.11.39.02.87.42,1.11.75-1.12,1.51-2.14,2.4-3.2,1.07-1.29,1.98-2.66,2.93-4.03s1.77-2.75,2.63-4.12c.3-.48.79-.87,1.13-1.34.46-.64.77-1.37,1.19-2.03.16-.25.41-.47.59-.7.25-.32.35-.64.56-.99.38-.6.87-1.12,1.23-1.73s.57-1.32.99-1.93c.57-.83,1.27-1.74,1.95-2.49,1.13-1.25,2.48-2.56,3.31-4.04.72-1.29,1.61-2.45,2.56-3.59.47-.56.76-1.12,1.16-1.68.16-.22.36-.42.53-.63.12-.15.26-.34.36-.5.11-.17.16-.4.26-.56.31-.48.78-1.01,1.18-1.41.62-.63,1.1-1.32,1.67-2,1.83-2.2,2.82-4.85,4.67-7.07.95-1.14,1.51-2.51,2.35-3.7.92-1.3,1.69-2.66,2.6-3.96,1.76-2.51,3.52-5.01,5.43-7.41.46-.57.81-1.24,1.26-1.82.52-.68.79-1.37,1.26-2.11.75-1.2,1.88-2.24,2.58-3.44,1.6-2.71,3.34-5.23,4.77-8.01.33-.65.74-1.33,1.13-1.95.16-.25.44-.43.6-.68.24-.38.37-.81.64-1.18,1.01-1.42,1.73-3.17,2.36-4.77.27-.68.72-1.3,1.01-1.98.32-.75.67-1.52,1.04-2.21.14-.26.26-.48.39-.75.17-.37.37-.8.56-1.18.41-.83.99-1.61,1.35-2.47.64-1.54,1.52-2.98,2.22-4.48.32-.68.54-1.41.85-2.11.37-.86.68-1.75.94-2.66.18-.63.59-1.24.78-1.86.26-.87.57-1.68.93-2.5.57-1.32,1.09-2.78,1.71-4.09.68-1.44,1.13-2.9,1.63-4.43s1.09-2.93,1.46-4.46.94-3.08,1.17-4.65c.04-.26.29-.68.32-.93.06-.44.08-.83.2-1.27.24-.83.32-1.59.5-2.41s.29-1.61.37-2.39c.1-.96.04-1.96.2-2.92.07-.44-.05-.86-.07-1.31-.02-.47.17-.86.15-1.33-.01-.39-.14-.79-.12-1.17.03-.52.2-.92.14-1.46s0-.83.08-1.32c.07-.45-.11-.87-.08-1.31.04-.52.21-.78.15-1.33-.06-.61-.04-1,.06-1.58.13-.79-.13-1.68-.17-2.48-.02-.45.13-.76.17-1.2.04-.48-.1-1.07-.16-1.56-.06-.55.11-.6.18-1.06.05-.37-.1-.94-.13-1.32-.04-.42-.14-.89-.13-1.31.02-.46.18-.71.16-1.19-.03-.82-.16-1.66-.23-2.48-.04-.44-.13-.87-.06-1.31.09-.57.21-.99,0-1.58-.3-.84-.36-1.67-.44-2.59s-.38-1.77-.51-2.72c-.06-.43-.24-.52-.36-.87-.14-.41-.02-.89-.17-1.31s-.38-.84-.53-1.27c-.09-.27-.03-.54-.12-.79-.07-.21-.26-.25-.33-.47-.13-.38-.04-.86-.16-1.25-.02-.06-.21-.17-.25-.28-.07-.23-.04-.5-.11-.73-.03-.09-.2-.15-.25-.29-.08-.25-.03-.52-.12-.79-.12-.35-.34-.86-.59-1.14.04-.12-.43-1.15-.51-1.38-.19-.55-.53-1.12-.81-1.63-.56-1.02-1.31-2-2.04-2.91s-1.39-1.9-2.17-2.77-1.65-1.81-2.42-2.7-1.59-2.01-2.49-2.8c-.47-.41-.96-.91-1.37-1.37-.44-.49-.96-.95-1.38-1.45-1.96-2.33-4.56-4.45-7.4-5.63-1.34-.56-2.53-1.55-3.83-2.21-.36-.18-1.77-1.17-2.08-.89-.37.34.48,1.74,1.4,1.41Z"/>
      <path class="cls-6" d="m226.79,105.99c-.48,1.19-.82,2.56-1.23,3.81-.19.59-.51,1.14-.66,1.76s-.36,1.16-.52,1.76c-.6,2.22-1.56,4.32-2.3,6.52-.39,1.16-.78,2.34-1.24,3.53s-.98,2.37-1.51,3.57c-.44,1-.99,2-1.43,3-.54,1.19-1,2.35-1.51,3.58-.23.54-.58,1.02-.81,1.55-.21.47-.34.99-.55,1.46-.51,1.16-1.35,2.12-1.94,3.23-1.06,1.97-2.16,3.97-3.15,6.02s-2.11,4.31-3.33,6.36c-.52.88-1.22,1.66-1.74,2.55-.31.52-.54,1.06-.77,1.62-.21.51-.54.9-.79,1.4-.54,1.1-.9,2.27-1.5,3.31-.27.46-.36,1.01-.62,1.43-.33.55-.71.99-.98,1.59-.51,1.14-1.33,2.04-1.95,3.09s-1.11,2.03-1.72,3.02-1.34,1.86-1.95,2.81c-.69,1.08-1.5,2.14-2.34,3.11-1.36,1.57-2.45,3.23-3.62,4.92-.9,1.3-1.7,2.64-2.61,3.94-.67.96-1.44,1.86-2.1,2.82-.55.79-1.17,1.49-1.61,2.31-.56,1.04-1.28,2.01-1.91,2.99-.77,1.2-1.35,2.52-2.29,3.63-.98,1.17-1.98,2.36-2.76,3.67-1.34,2.24-2.79,4.76-4.49,6.71-1.84,2.11-3.39,4.49-5.05,6.79-1.47,2.06-3.02,4.09-4.42,6.19-.67,1-1.12,2.11-1.8,3.12-.59.87-1.13,1.82-1.66,2.71-.46.78-1.19,1.47-1.63,2.25-.3.53-.54.54-1.04.82-.47.27-.21.16-.47.57-.13.22-.44.34-.44.62,0,.15.29.44.38.59.14.23.17.45.28.67.26.49.58.78.97,1.18,1.43-.78,2.57-2.69,3.64-3.98,1.53-1.84,3.4-3.43,5.26-4.89.92-.72,1.73-1.54,2.62-2.28.48-.39.87-.89,1.32-1.31.42-.39.84-.71,1.21-1.16.56-.7,1.34-1.24,1.99-1.83.96-.87,1.86-1.84,2.7-2.82.36-.42.76-.81,1.13-1.21.47-.5.88-1.07,1.37-1.54,1.09-1.05,2.28-1.88,3.28-3.04,1.71-1.97,3.44-3.97,5.1-5.99.73-.89,1.45-1.73,2.19-2.63.34-.41.68-.79,1-1.21.37-.47.63-1.01.99-1.48s.74-.79,1.06-1.27c.34-.51.73-.98,1.1-1.47.84-1.13,1.75-2.13,2.57-3.26.34-.47.64-1.02.98-1.51.36-.52.75-.98,1.07-1.58.3-.56.71-.95,1.04-1.47.4-.62.74-1.28,1.15-1.9.68-1.02,1.51-1.98,2.26-2.96s1.32-1.88,1.92-2.93,1.26-2.05,1.82-3.11.91-2.25,1.46-3.37c1.1-2.23,2.48-4.31,3.26-6.73.74-2.28,1.83-4.49,2.59-6.81.36-1.11.88-2.18,1.34-3.27.53-1.27.96-2.58,1.49-3.82s.97-2.6,1.31-3.94c.32-1.25.59-2.58.97-3.76.33-1.04.67-2.05,1.06-3.07s.62-1.99.97-3.06c1.42-4.31,3.32-8.43,4.74-12.77.18-.55.48-1.18.5-1.76.03-.69.3-1.32.35-2,.08-1.16.2-2.27.4-3.45.05-.32-.08-.62-.04-.93.04-.26.19-.4.23-.65.04-.3-.15-.63-.11-.93s.18-.48.21-.79-.09-.6-.04-.93c.07-.43.15-.6.11-1.06-.02-.26-.06-.47,0-.73.02-.09.17-.19.19-.33.03-.21-.09-.45-.09-.66,0-.34.17-.6.2-.94.02-.29-.08-.62-.1-.91-.03-.61.16-1.05,1.03-3.11Z"/>
      <path class="cls-1" d="m70.27,13.19l-.09-.23c-.31.1-.02.27-.2.46s-.46.27-.65.44c-.25.23-.47.54-.7.79-.55.58-.97,1.3-1.52,1.91-1.27,1.39-2.04,3.09-3.12,4.62s-2.04,3.28-3.1,4.89-1.59,3.52-2.27,5.28c-.74,1.89-1.47,3.89-2.03,5.84-.25.88-.5,1.67-.73,2.56-.14.52-.34.82-.34,1.35s-.1,1.07-.17,1.59c-.14.97-.26,1.96-.4,2.93-.06.42-.18.91-.21,1.33-.04.53.19,1.04.1,1.57-.08.48-.13.81-.08,1.32s.14,1.02.08,1.51c-.01.09-.17.19-.19.33-.03.22.06.57.09.79.07.59-.14,1.02-.12,1.59.04.93.23,1.83.13,2.75-.11.98.25,2.04.09,3.01-.15.89-.05,1.7.04,2.62.04.43.21,1.02.14,1.44-.08.53-.2.84-.14,1.45.04.4-.02.94.11,1.32.15.44.33.45.37,1,.03.43.08.87.12,1.3.06.65.22,1.08.39,1.67.13.45,0,1,.14,1.45.14.4.33.49.37,1,.03.43.09.87.12,1.3.04.55.27.78.39,1.27.12.52.01,1.06.2,1.56.17.46.28.77.32,1.28.01.15,0,.37.04.53.06.24.21.38.26.55.15.47.16,1,.2,1.5.08.96.55,1.9.8,2.82s.29,1.88.56,2.78c.04.13.2.38.26.55s.04.32.11.52c.17.47.33.92.47,1.4.12.42.39.75.51,1.12.05.17-.02.37.02.54.09.33.3.69.44,1.01.18.42.37.84.52,1.27.13.37.32.67.43,1,.08.26.02.52.12.79.08.22.2.4.27.63.16.55.23,1.14.4,1.69.03.12.22.21.24.27.1.33.04.69.14,1.01.13.42.31.84.45,1.26.33.97.69,1.95,1.03,2.93.31.9.7,1.78,1,2.67.32.94.73,1.86,1.05,2.79.57,1.66,1.28,3.3,1.97,4.87.78,1.78,1.28,3.54,2.13,5.26s1.22,3.59,2.07,5.33c.34.69.72,1.34.98,2,.19.48.37.92.62,1.4s.53,1.11.71,1.64c.29.85.66,1.68.96,2.54.15.45.19.84.38,1.28.2.47.53.97.69,1.4.66,1.73,1.29,3.57,2.02,5.24.77,1.76,1.3,3.55,2.13,5.26.45.93.67,1.89,1.04,2.81.14.34.44.61.57.99.07.2.05.44.14.62.11.23.37.38.5.63.38.73.59,1.5.85,2.24.31.89.94,1.87,1.26,2.83.58,1.73,1.45,3.38,2.37,5.04.4.73.81,1.5,1.12,2.26.17.41.33.8.5,1.21.16.37.41.68.63,1.04.52.84.88,1.92,1.23,2.8.31.8.81,1.71,1.22,2.51s.69,1.67,1.16,2.52c.23.41.35.87.57,1.28.18.32.49.63.62.97.73,1.85,1.45,3.73,2.09,5.6.29.84.52,1.71.81,2.55.35,1.01.59,2.06.96,3.07.3.83.32,1.74.62,2.57.17.47.32.92.47,1.4.16.55.41,1.1.56,1.66.12.43,0,.87.16,1.3s.23.85.38,1.28c.11.3.24.43.28.76.02.17-.02.36.03.52.08.29.28.47.36.76.07.25-.04.55.05.8.08.23.26.24.33.47.08.26.02.52.12.79.15.41.25.8.38,1.22.08.29.39.73.51,1.06.1.28.05.51.12.78.07.29.29.47.36.76.48,1.85,1.11,3.6,1.86,5.35.69,1.62.98,3.51,1.71,5.09.35.77.63,1.58,1.01,2.27.45.82.63,1.9,1.05,2.81.14.3.29.68.36,1.01.06.25.04.48.12.73.03.09.2.15.25.28.07.22.04.5.11.73.02.05.21.18.25.28.07.22.04.5.11.73.05.16.22.48.29.69.3.84.53,1.54.78,2.37.05.16.21.32.26.55.04.15.03.38.04.53.04.49.18,1.04.1,1.53-.96.19-1.63.67-2.37,1.28s-1.7,1.14-2.51,1.64-1.75.93-2.34,1.66c-.22.28-.62.93-1.01.91-.29-.02-.8-.59-.99-.82-.61-.76-1.02-1.82-1.52-2.65-.45-.76-.85-1.56-1.36-2.27-1.25-1.77-2.97-3.08-4.3-4.83-2.67-3.5-5.25-7.18-8.13-10.62-.76-.91-1.36-1.94-2.16-2.81-.87-.95-1.65-2.04-2.43-3.07s-1.51-2.03-2.21-3.08c-.67-.99-1.55-1.86-2.27-2.81-1.31-1.72-2.58-3.54-3.87-5.29-1.36-1.84-2.9-3.58-4.37-5.38-2.85-3.49-5-7.27-7.7-10.86-.77-1.02-1.7-1.93-2.5-2.93-.74-.91-1.4-1.82-2.02-2.76-.54-.82-1.13-1.51-1.72-2.27-.78-1-1.53-2.07-2.21-3.1-.29-.44-.54-.91-.87-1.36-.23-.32-.31-.53-.49-.87-.15-.28-.51-.46-.68-.73-.6-.92-1.26-1.82-1.95-2.71-1.48-1.92-2.41-4.08-3.72-6.07s-2.43-4.16-3.73-6.25-2.63-3.98-3.79-6.09-2.38-4.27-3.48-6.45-2.31-4.22-3.6-6.3-2.3-4.21-3.32-6.4c-.53-1.15-1.17-2.22-1.66-3.39s-.93-2.3-1.53-3.42c-1.1-2.06-2.05-4.23-2.79-6.44-.18-.54-.45-1.12-.64-1.65-.22-.6-.44-1.19-.66-1.78s-.29-1.24-.49-1.87-.51-1.19-.64-1.83-.29-1.29-.43-1.94c-.07-.33-.28-.57-.37-.89s0-.7-.1-1.04c-.36-1.28-.76-2.52-.86-3.86-.06-.73-.38-1.26-.45-2-.05-.63-.05-1.33-.24-1.93-.4-1.28-.45-2.61-.57-3.97l-.35-3.78c-.11-1.23-.39-2.55-.36-3.78.02-.68.16-1.2.1-1.92-.03-.3-.11-.66-.1-.97.01-.37.17-.69.18-1.07.01-.26-.07-.53-.08-.78-.02-.33.11-.47.14-.71.05-.35,0-.66-.04-1.02-.03-.41.05-.66.11-1.05.1-.6.16-1.39.15-1.99,0-.64.11-1.21.08-1.84-.06-1.17.22-2.44.4-3.58.09-.58.06-1.15.16-1.72.11-.62.24-1.25.33-1.87.18-1.24.43-2.52.76-3.75s.82-2.42,1.15-3.65c.16-.58.22-1.17.42-1.75.23-.64.56-1.26.75-1.91.64-2.14,1.73-4.24,2.69-6.29,1.05-2.23,2.5-4.27,3.54-6.5.44-.95,1.03-1.76,1.54-2.64.62-1.07,1.25-2.17,2.01-3.14,2.35-3.02,5.18-6.98,8.74-8.53.47-.2.88-.44,1.32-.68.4-.22.84-.38,1.25-.64.77-.48,1.56-1.1,2.36-1.41,1.03-.4,2.11-.77,3.1-1.16.39-.15.84-.41,1.22-.55.24-.09.5-.03.73-.11.3-.1.4-.28.73-.35.53-.12.89-.32,1.41-.39.3-.04.63-.01.92-.08s.4-.22.65-.31c.52-.17,1.17.01,1.68-.16.25-.08.34-.26.6-.34.3-.09.61-.02.92-.13.55-.2,1.09-.42,1.65-.6.61-.19,1.33-.07,1.96-.2.54-.11.79-.35,1.4-.4.69-.05,1.16-.3,1.8-.44,1.08-.23,2.29-.2,3.39-.3.53-.05,1.14-.02,1.63-.21.37-.14.93-.56,1.38-.18-.01-.05-.02-.1.94-1.03Z"/>
      <path class="cls-6" d="m23.32,45.64c.07.94-.16,1.73-.34,2.6-.16.75-.54,1.69-.83,2.43s-.41,1.41-.58,2.22-.58,1.72-.7,2.49c-.27,1.8-.86,3.71-1.13,5.57s-.51,3.38-.7,5.19c-.05.5-.12.97-.2,1.46-.03.19.01.35,0,.53-.02.21-.13.44-.15.59-.07.5.18,1.04.1,1.54-.03.2-.2.24-.22.42-.03.3.1.59.07.89-.04.52-.22.78-.15,1.33.06.52-.11.84-.15,1.33-.08.96.25,2.03.29,3,.02.48-.14.73-.16,1.19-.02.43.18.88.14,1.31-.04.49-.21.8-.15,1.33.05.5.17,1.07.15,1.57-.02.42-.16.63-.18,1.06s.08.89.13,1.31c.06.55-.11.93-.14,1.46s.11,1.06.15,1.56c.08.91.16,1.83.25,2.74.06.55-.11.81-.15,1.33-.04.48.12,1.08.16,1.56.08.92.41,1.65.5,2.58.04.48.07.96.13,1.43.08.61.37,1.05.42,1.67.03.4-.02.95.11,1.32.14.4.32.5.37,1,.05.54.26.77.39,1.28.07.24.02.54.05.78.04.31.18.48.28.76.31.88.47,1.81.83,2.68.4.97.64,1.88,1.05,2.87.36.85.57,1.68.82,2.55.08.29.39.73.51,1.06.18.52.31,1.01.53,1.53.73,1.76,1.71,3.51,2.32,5.25.49,1.4,1.68,2.91,2.44,4.29.46.83.83,1.63,1.4,2.39s1.13,1.5,1.59,2.34c.87,1.59,1.82,3.09,2.61,4.75.46.97.93,1.84,1.5,2.75s1.01,1.88,1.56,2.76c1,1.61,1.94,3.32,2.96,4.97s2.25,3.21,3.21,4.96c.89,1.63,1.82,3.2,2.88,4.73.55.79,1.02,1.61,1.47,2.5.19.37.38.62.62.98.27.41.49.87.76,1.25,1.19,1.64,2.41,3.2,3.49,4.94.94,1.52,1.86,3.05,2.78,4.54.39.64.9,1.27,1.29,1.9.54.89,1.05,1.82,1.63,2.69.95,1.42,2.06,2.89,3.27,4.17s2.2,2.76,3.08,4.24c.41.69,1.08,1.37,1.57,2.02.54.71,1.1,1.39,1.64,2.1,2.44,3.24,5.06,6.47,7.21,9.85,1.87,2.93,4.35,5.44,6.54,8.12,2.31,2.82,4.47,5.79,6.71,8.65s4.18,5.83,5.8,8.87c.78,1.46,2.01,2.67,3,3.99s1.91,2.75,2.87,4.08c.39.54,1.17,1.05,1.39,1.67.26.75-.25,2-.86,2.49-.5.4-1.15.64-1.62,1.06-.37.33-.29.44-.79.55-.55.12-.85.09-1.27-.22-1.31-.96-1.99-2.39-2.96-3.61-1.07-1.33-2.18-2.62-3.25-3.96-1.16-1.44-2.64-2.67-3.86-4.05-1.15-1.31-2.1-2.96-3.28-4.22-.64-.69-1.1-1.54-1.83-2.13-.38-.31-.76-.57-1.08-.96-.41-.49-.92-.76-1.37-1.2-.49-.48-1.1-.84-1.56-1.35-.66-.73-1.22-1.56-1.93-2.27-1.17-1.2-2.26-2.55-3.49-3.61-.33-.28-.55-.69-.87-.98-.37-.34-.68-.55-1-.94-.61-.76-1.42-1.47-2.11-2.18s-1.44-1.24-2.14-1.9c-.82-.76-1.69-1.43-2.63-2.06-1.61-1.07-3.28-2.43-4.62-3.84-1.07-1.12-2.18-2.33-3.39-3.31-.48-.39-.84-.87-1.3-1.31-.69-.68-1.31-1.43-1.97-2.12-1.41-1.46-2.73-2.92-4.16-4.37-.61-.62-1.19-1.26-1.76-1.94-.28-.35-.48-.65-.77-.97-.35-.38-.76-.76-1.13-1.14-1.57-1.58-3.15-3.16-4.54-4.91-.66-.84-1.17-1.77-1.87-2.59s-1.39-1.67-2.14-2.5c-.67-.75-1.36-1.44-1.97-2.24-.67-.88-1.23-1.83-1.89-2.72-1.11-1.5-2.35-2.91-3.5-4.41s-2.39-3.1-3.58-4.66c-1.29-1.69-2.57-3.36-3.7-5.18-2.23-3.59-4.53-7.12-6.77-10.68-.49-.79-1.03-1.65-1.42-2.5-.22-.48-.42-.8-.71-1.24-.36-.56-.51-1.19-.88-1.77-1.1-1.72-1.96-3.65-2.74-5.53s-1.9-3.7-2.74-5.59-1.6-3.87-2.38-5.76-1.16-3.95-1.86-5.88c-.17-.46-.1-.95-.21-1.42-.13-.52-.27-1.17-.45-1.68-.17-.47-.28-.75-.32-1.29-.05-.63-.26-.95-.42-1.54-.22-.79-.16-1.78-.23-2.61-.04-.52-.16-.83-.32-1.28-.18-.48-.15-1.04-.2-1.56-.09-.96-.18-1.91-.26-2.87-.08-.9-.35-1.96-.28-2.87.04-.52.21-.78.15-1.33-.05-.43-.08-.87-.12-1.3-.1-1,.07-2.07.22-3.04.14-.93.16-1.86.29-2.79.06-.46.28-.9.35-1.35.04-.25,0-.42,0-.66,0-.31.1-.49.14-.73.3-1.88.59-3.83,1.14-5.7.28-.96.71-1.92,1.02-2.87.12-.36.29-.68.36-1.07.12-.6.39-1.03.51-1.62.36-1.79,1-3.56,1.59-5.24s1.41-3.51,2.39-5.12c.46-.75.75-1.57,1.29-2.29.6-.79,1.2-1.57,1.68-2.44.82-1.5,1.48-3.07,2.41-4.51.44-.67.89-1.35,1.34-2.01.67-.97,1.5-1.62,2.33-2.39,1.26-1.17,2.51-2.41,3.82-3.51.55-.46,1.06-1,1.56-1.52.41-.43,1.43-1.5,2.14-1.27.83.28-.9,3.94-1.29,3.29Z"/>
      <path class="cls-5" d="m10.07,129.92c-.04-.2.02-.28.18-.26.21.43.32.82.57,1.24s.53.96.75,1.4c.55,1.07,1.03,2.21,1.64,3.24.57.96,1.02,1.96,1.65,2.86s1.22,1.82,1.83,2.74c1.18,1.78,2.35,3.62,3.45,5.46.62,1.03,1.49,1.9,2.06,2.96.46.86,1.01,1.63,1.47,2.48,1.08,1.96,2.73,3.56,4.17,5.28.83,1,1.47,2.16,2.32,3.13.74.84,1.5,1.79,2.09,2.7.56.85,1.22,1.51,1.86,2.29.75.92,1.33,1.87,2.1,2.81,1.58,1.94,3.1,3.92,4.5,6,1.13,1.68,2.78,2.97,4.09,4.51.58.68,1.19,1.26,1.81,1.86.75.72,1.24,1.67,1.99,2.39.81.77,1.64,1.51,2.45,2.28s1.52,1.58,2.25,2.41c.39.45.84.91,1.27,1.32.26.25.47.48.68.75.06.08.04.23.1.32.09.11.33.14.44.27.88,1,1.64,2.11,2.57,3.06.69.71,1.45,1.36,2.11,2.1.25.29.43.62.73.91.45.45.74,1.01,1.18,1.47.77.79,1.62,1.48,2.37,2.3.66.73,1.3,1.46,1.94,2.2.77.88,1.33,1.89,2.04,2.83.63.84,1.39,1.64,2.06,2.43,1.34,1.59,3.04,2.8,4.29,4.47.56.75,1.24,1.45,1.83,2.13s1.32,1.14,1.89,1.78c.29.33.44.62.8.92s.72.6,1.04.95c.63.69,1.39,1.23,2.02,1.92,1.37,1.5,2.99,2.77,4.37,4.25.67.72,1.2,1.5,1.97,2.13.68.56,1.17,1.22,1.63,1.95.21.34.46.61.68.92.13.18.25.42.39.54.16.13.4.05.57.26-.45-.15-.71-.38-1.08-.65-.33-.24-.64-.33-.97-.57-.9-.65-1.81-1.3-2.68-1.99-.68-.54-1.5-.91-2.24-1.37-.84-.53-1.58-1.17-2.45-1.68-1.44-.85-2.91-1.64-4.13-2.83s-2.42-2.5-3.76-3.61c-1.46-1.22-3.17-2.17-4.52-3.51-1.34-1.32-2.91-2.52-4.42-3.68-.87-.67-1.83-1.25-2.68-1.93-1.1-.87-2.18-1.88-3.26-2.79-1.34-1.11-2.66-2.45-4.13-3.42-1.02-.68-1.97-1.5-2.86-2.3-.74-.67-1.36-1.42-2.09-2.1-.36-.34-.74-.69-1.08-1.07-.47-.52-1.04-.89-1.53-1.38-.83-.85-1.79-1.56-2.64-2.39s-1.7-1.52-2.46-2.39c-.93-1.06-1.95-2.17-2.98-3.14-1.71-1.62-3.43-3.21-4.93-5.07s-3.01-3.49-4.44-5.37c-.76-1-1.62-1.93-2.37-2.93-.7-.93-1.63-1.68-2.28-2.68-1.36-2.07-2.68-4.1-3.99-6.21-.57-.91-1.13-1.82-1.7-2.73-.31-.5-.62-.99-.93-1.49-.4-.66-.57-1.37-.98-2.02-.38-.61-.84-1.09-1.14-1.73-.27-.58-.51-1.18-.76-1.77-.49-1.19-1.11-2.35-1.52-3.54-.2-.6-.34-1.19-.54-1.79-.08-.23-.24-.52-.34-.76-.17-.39-.18-.63-.28-1.03-.29-1.12-.95-2.15-1.11-3.31-.05-.33-.05-.6-.14-.92-.14-.1-.23-.24-.26-.41-.02-.25-.03-.5-.04-.75-.09-.28-.28-.46-.36-.74-.09-.32-.04-.66-.14-.98-.04-.13-.2-.37-.26-.55-.1-.34-.28-.68-.37-1.02-.07-.25.02-.53-.05-.78-.1-.38-.32-.61-.38-1.02-.08-.57.03-1.3-.15-1.84-.08-.23-.25-.24-.33-.47-.1-.29-.06-.74-.08-1.06-.11-1.18-.78-2.38-.55-3.58.07-.02.14-.04.16-.59Z"/>
      <path class="cls-3" d="m99.49,236c.13.59.62,1.03.99,1.48.42.51.6,1.11,1.01,1.63.69.89,1.44,1.84,2.03,2.83.57.93,1.37,1.59,2.06,2.36.75.84,1.43,1.86,2.27,2.62,1.01.91,1.92,1.92,2.72,3.04.62.86,1.6,1.53,2.35,2.28.71.7,1.51,1.31,2.23,2.01.98.94,2.11,1.7,3.02,2.68.5.54.93,1.22,1.41,1.79.37.43.72.79,1.03,1.24.36.52.79.98,1.19,1.47.37.44.9,1.43,1.46,1.55"/>
      <path class="cls-3" d="m136.58,262.01c-.18-.61.41-1.1.71-1.57s.53-.99.85-1.46c.44-.66.94-1.3,1.35-1.98.28-.47.44-.98.71-1.47,1.2-2.2,3.18-3.76,4.82-5.53.34-.37.47-.79.74-1.2.33-.49.73-.92,1.06-1.41.55-.83,1.18-1.59,1.82-2.34.75-.87,1.15-2.01,1.89-2.89.6-.72,1.12-1.67,1.62-2.51.32-.54.53-1.13.9-1.64.35-.48.64-.85.92-1.37s.61-.97.89-1.45c.32-.55.56-1.19.92-1.76"/>
      <path class="cls-3" d="m141.24,224.26l-.21.06c-.15.55.14,1.22.13,1.79,0,.39-.16.45-.21.79-.05.31.08.74.11,1.05.07.68-.13,1.2-.1,1.85.03.74-.01,1.38-.12,2.11-.38,2.57-1.24,5.1-1.83,7.66s-1.14,4.8-1.85,7.27c-.34,1.17-.49,2.22-.88,3.38-.35,1.02-.48,2.17-.75,3.2-.35,1.34-.49,2.67-.75,3.96-.11.53-.44,1.15-.58,1.68-.19.68.02,1.36-.11,2.08l-.21.06"/>
      <path class="cls-3" d="m127.83,224.18c-.22.58-.17.93-.12,1.59s.37.99.42,1.67c.05.62.34,1.08.42,1.67.09.64.11,1.31.17,1.96.23,2.48.44,4.95.68,7.43.07.67-.12,1.21-.1,1.85s.13,1.31.19,1.95c.12,1.26.23,2.52.35,3.78s.22,2.43.34,3.65c.07.67-.12,1.21-.1,1.85s.12,1.31.19,1.95c.14,1.36-.29,2.62-.16,3.96.14,1.43.26,2.87.4,4.3"/>
      <path class="cls-3" d="m112.34,227.19c.14.56.62,1.13.91,1.63s.57.98.83,1.49c.72,1.42,1.3,2.85,2.1,4.25,1.36,2.37,2.42,4.85,3.53,7.32.52,1.16,1.11,2.26,1.66,3.39s.89,2.16,1.36,3.3c.81,1.93,1.77,4.09,2.44,6.02.08.23.24.53.34.82.1.3.22.58.31.89.2.64.51,1.27.73,1.9s.39,1.21.62,1.78c.13.3.23.62.35.9.11.25.34.53.39.82l.21.03"/>
      <path class="cls-3" d="m101.85,233.15c-.06-.17-.05-.34,0-.51.3-.02.81.99,1.04,1.26.47.53.81,1.09,1.21,1.67.91,1.33,1.86,2.68,2.87,3.93s1.84,2.64,2.74,3.96c.77,1.12,1.53,2.03,2.26,3.21,1.19,1.91,2.37,3.85,4.04,5.34,1.51,1.35,3.17,2.44,4.32,4.12,1.35,1.98,2.65,3.94,3.9,5.96"/>
      <path class="cls-3" d="m120.53,224.86c.11,1.24.31,2.36.81,3.47.29.64.4,1.29.67,1.91.31.71.52,1.44.82,2.15.51,1.22.95,2.46,1.37,3.7.38,1.13.82,2.28,1.12,3.43.17.65.4,1.3.62,1.92.11.31.11.58.14.91.04.38.17.55.29.89.2.54.07,1.14.24,1.69.11.34.28.53.33.89s.02.65.14.98c.08.2.21.29.26.55.06.29.05.62.08.92.06.68.3,1.16.44,1.8.12.54.1,1.15.15,1.69.02.26.05.52.07.78.04.36.29.74.31,1.04.02.26-.14.47-.15.78s.06.62.09.92c.06.65.12,1.3.18,1.95.13,1.39.26,2.78.38,4.17"/>
      <path class="cls-6" d="m121.79,278.36l-.17.02c1.01-.09,1.64-.65,2.51-.96.5-.18,1-.18,1.49-.46.35-.2.63-.45.96-.68.41-.28.93-.72,1.37-.86.27-.09.58-.04.86-.13.17-.05.3-.21.55-.26.53-.11.84-.08,1.29-.38.42-.28.82-.34,1.27-.51.8-.29,2.01.25,2.93.38,1.04.15,2.07.36,3.05.54.4.08.9.26,1.3.32.45.07.86.1,1.28.2s2.2.63,2.42.41c-.09.62.36.67.57,1.15.18.4.35.86.44,1.27.11.5.27.81.38,1.28.13.56.15,1.01.34,1.55.17.48.1,1.01.25,1.49.05.17.21.31.26.55s.05.54.07.79c.04.51.15.82.32,1.28.2.56.17,1.23.23,1.82.05.52.09,1.04.14,1.56.02.15.06.37.05.53-.01.25-.13.42-.16.59-.05.43.23,1.13.1,1.53-.17.53-.88.23-1.26.04-.75-.37-1.48-.89-2.26-1.11-.47-.13-.89-.27-1.35-.4s-.94-.2-1.36-.33c-.82-.25-1.55-.72-2.44-.84-.48-.07-.96-.15-1.46-.12-.21.01-.44.08-.66.07-.37-.01-.46-.16-.79-.21-.94-.14-1.45.69-2.14,1.14-.78.51-1.86,1.02-2.7,1.37-1.48.62-2.85,1.65-4.16,2.61-.34.25-.66.49-1,.75-.49.37-.62.61-.8-.12-.23-.99-.19-2.12-.28-3.13-.11-1.21-.3-2.44-.34-3.65-.02-.56.18-1.01.12-1.59s-.11-1.22-.17-1.82-.02-1.27-.23-1.82c-.07-.19-.22-.28-.27-.5-.09-.4.17-.68.2-1.07.07-.9-.74-2.54.12-3.18-.05,0-.1.02-.87.88Z"/>
      <path class="cls-3" d="m152.48,232.16c-.04.3-.3.5-.47.74-.08-.43.66-1.97.15-2-.35,2.06-1.2,4.17-2.16,6.06-.47.92-1.05,1.8-1.56,2.67-.6,1.03-1.13,2.11-1.61,3.24-.17.41-.41.77-.61,1.17-.1.2-.13.46-.23.65-.12.21-.31.39-.41.61-.24.54-.37,1.06-.67,1.59-.28.5-.66,1-.85,1.55s-.37.96-.71,1.44c-.42.58-.61,1.18-.95,1.8-.53.97-1.28,1.71-1.93,2.59-.82,1.12-1.48,2.28-1.84,3.6-.17.62-.5,1.25-.63,1.89-.1.5-.07,1.72-.66,1.9"/>
      <path class="cls-2" d="m134.24,287.98l-.21-.03c-.07-.4-.38-.55-.41-.96s.17-.65.18-1.06c.02-.81-.17-1.67-.24-2.48-.07-.86-.39-1.57-.49-2.45-.06-.53.1-.82.15-1.33.05-.42-.16-.84-.08-1.26l.21-.06"/>
      <path class="cls-3" d="m122.64,276.17c-.11.02-.2.07-.27.15.08.14.08.36-.16.4-.14-.49.24-1.34.32-1.85.09-.62.15-1.2.08-1.85-.06-.6.08-1.01.13-1.59.03-.33-.1-.7-.12-1.04-.01-.31.09-.5.14-.8s0-.48-.02-.79c-.02-.37.13-.59.16-.93.05-.54.1-.94.15-1.45.06-.6.06-1.25.15-1.86.08-.51.39-1.06.37-1.56l.21-.07"/>
      <path class="cls-3" d="m133.01,271.8c.1.26.06.46-.16.52-.36-.76-.06-1.78-.28-2.58-.11-.42-.33-.7-.38-1.15s-.08-.87-.12-1.3l-.23-2.48c-.07-.79-.35-1.83-.18-2.59.16-.05.23.02.22.22"/>
      <path class="cls-3" d="m137.55,261.13c.05.69.44,1,.65,1.65s.42,1.28.73,1.9.43,1.18.76,1.77.47,1.17.68,1.78c.19.58.49,1.14.68,1.72.08.22.24.54.34.82.08.23.18.56.27.78.17.43.48.8.65,1.23.26.64.23,1.4.49,2.03l.22.02"/>
      <path class="cls-4" d="m132.71,274.19c-.47-.32-.35-1.04-.4-1.54-.03-.34.11-1.38-.14-1.56"/>
      <path class="cls-3" d="m124.68,264.16c-.34.04-.78-.33-.56-.7.04-.06.76-.29.88-.35.32-.15.65-.26.97-.42.28-.14.49-.18.79-.3.62-.23,1.25-.41,1.9-.65.35-.13.72-.03,1.05-.14.39-.13.34-.4.85-.33s1.02.43,1.52.5c.59.08,1.29.27,1.9.48s1.13.03,1.78.16c.25.05.52.3.75.4.35.14.47.18.9.22l.06.21"/>
      <path class="cls-6" d="m144.61,292.09c-.6.06-.74.19-1.23.51-.37.24-.74.49-1.09.72-.76.49-1.58.92-2.31,1.41-.65.43-1.32.79-2,1.15-.41.22-.83.38-1.23.63-.2.13-.72.53-.93.55-.26.03-.63-.32-.91-.34-.4-.03-.88.09-1.28.13-.42.04-.85.07-1.27.12s-.62-.04-.99-.11-.69-.06-1.06-.14c-.32-.06-.7-.11-1.05-.21-.64-.18-1.25-.5-1.91-.47-.45.03-.7,0-1.1-.19-.38-.18-.73-.24-1.13-.37-.28-.09-.62-.24-.87-.38-.22-.13-.38-.45-.64-.47-.04.2-.01.36.01.57-.3.03-.27-.57-.57-.53.16-.25.66-.46.91-.64.27-.2.57-.38.83-.57s.56-.39.84-.56c.13-.08.25-.14.37-.23.27-.18.45-.21.73-.31.74-.29,1.42-.92,2.08-1.33.32-.2.66-.28.95-.48s.56-.39.88-.57c.72-.42,1.28-.91,2.06-1.17.44-.15.87-.4,1.33-.48s.75.15,1.21.24c.82.16,1.47.67,2.26.97s1.64.4,2.42.62c.45.13.93.06,1.41.21.44.14.82.32,1.22.57.78.48,1.31.68,2.09,1.14Z"/>
      <path class="cls-2" d="m124.31,294.35l-.18-.03c.01-.11.28-.28.39-.38.15-.14.32-.31.44-.48.29-.38.57-.68.9-1.03.67-.71,1.46-1.24,2.23-1.83s1.52-1.12,2.26-1.69c.7-.53,1.51-1.19,2.4-1.26s3.1.53,3.84,1.03,1.52.72,2.35.96c.9.26,1.77.68,2.61,1.09.46.23,2.16.24,2.02,1.04"/>
    </g>
  </g>
</svg>