<?xml version="1.0" encoding="UTF-8"?>
<svg id="Layer_2" data-name="Layer 2" xmlns="http://www.w3.org/2000/svg" viewBox="0 0 783.94 917.36">
  <defs>
    <style>
      .cls-1 {
        fill: #f8db5c;
      }

      .cls-2 {
        fill: #f9dc5c;
      }

      .cls-3 {
        stroke-width: .75px;
      }

      .cls-3, .cls-4, .cls-5, .cls-6 {
        stroke: #2a3c24;
        stroke-linecap: round;
        stroke-linejoin: round;
      }

      .cls-3, .cls-4, .cls-6 {
        fill: none;
      }

      .cls-7 {
        fill: #dbecd9;
      }

      .cls-5 {
        fill: #fff;
      }

      .cls-8 {
        fill: #a58fa3;
      }

      .cls-9 {
        fill: #f6d8c0;
      }

      .cls-10 {
        fill: #729bb1;
      }

      .cls-6 {
        stroke-width: .5px;
      }

      .cls-11 {
        fill: #fbf3d3;
      }
    </style>
  </defs>
  <g id="insta">
    <path class="cls-5" d="m340.37,118.51c13.45-18.75,26.89-37.5,40.34-56.24,5.22-7.28,10.63-14.74,18.18-19.55,9.69-6.17,21.8-7.26,33.25-6.36,26.83,2.11,51.81,13.94,76.08,25.57,82.61,39.59,166.36,79.93,235.19,140.38,8.36,7.35,16.93,15.74,19.01,26.67,1.57,8.25-.82,16.7-3.57,24.63-30.97,89.44-91.39,158.98-137.5,241.63-16.21,29.06-44.17,56.43-59.85,85.78-55.49,103.89-135.82,179.62-199.64,278.61-13.56,21.03-45.38,53.84-70.42,42.43-6.19-2.82-12.19-5.97-17.66-10.01-24.64-18.23-49.28-36.45-73.92-54.68-21.95-16.24-44.06-32.62-62.44-52.81-23.35-25.65-48.88-53.26-73.97-77.21-13.69-13.07-21.46-28.07-29.38-45.26-7.9-17.14-5.82-37.27-.53-55.39,19.49-66.71,79.87-129.71,124.23-183.21,33.15-39.98,55.57-74.13,79.18-120.26,11.7-22.85,23.66-41.08,34.41-64.38,7.71-16.71,18.93-30.9,26.92-47.29,12.64-25.91,25.19-49.5,42.08-73.06Z"/>
    <path class="cls-2" d="m726.83,172.6c-43.22-31.81-88.12-60.19-132.72-89.7-43.37-28.7-87.4-55.44-144.84-73.17-8.03-2.48-9.12-5.33-17.35-7.74-4.86-1.42-12.04-3.55-18.07-.2-12.99,7.23-29.59,23.25-35.94,36.61-28.55,60.04-72.37,131.28-115.23,192.95-17.34,24.95-28.12,47.48-44.62,72.99-19.04,29.43-44.41,65.53-63.71,94.79-48.17,73.04-103.72,144.43-144.67,225.44-5.26,10.4-10.2,21.55-9.62,33.19.65,13.14,8.22,24.84,16.01,35.44,46.45,63.17,109.15,112.19,171.01,160.37,30.25,23.56,61.22,47.52,97.42,60.14,6.55,2.28,13.43,4.2,20.32,3.53,7.84-.76,14.97-4.8,21.46-9.28,22.94-15.84,48.29-34.85,65.7-56.62,61.05-76.37,114.49-155.84,175.54-232.21,16.64-20.81,41.79-68.28,56.9-90.23,36.39-52.91,84.03-139.35,131.31-221.44,7.52-13.06,24.65-38.76,27.19-53.61,6.99-40.79-22.75-56.7-56.09-81.23Zm20.61,75.86c-.38,5.77-2.5,11.26-4.75,16.59-7.32,17.31-16.23,33.92-26.16,49.88-12.67,20.37-26.96,39.67-40.51,59.47-16.09,23.52-31.13,47.74-46.16,71.96-5.56,8.96-11.12,17.92-16.68,26.88-31.1,50.1-53.26,100.71-85.12,140.34-23.64,29.41-54.57,71.81-78.47,101.01-6.98,8.52-25.78,29.66-31.86,38.85-24.91,37.71-41.55,57.8-66.04,95.78-8.67,13.45-17.35,26.9-26.02,40.35-3.08,4.78-6.36,9.75-11.32,12.54-9.45,5.31-21.64.79-29.8-6.35s-14.01-16.63-22.26-23.65c-11.54-9.83-20.91-16.78-33.36-25.43-17.55-12.19-45.16-21.99-58.27-38.85-37.72-48.5-94.79-77.7-122.1-133.39-6.13-12.5-13.93-25.23-12.1-39.04,1.05-7.93,4.67-15.25,8.24-22.4,9.16-18.36,18.33-36.73,27.49-55.09,7.2-14.42,14.48-28.98,24.64-41.49,11.03-13.59,35.57-45.59,48.19-57.72,25.41-24.42,49.32-65.65,68.37-95.3,52.34-81.42,87.44-154.28,135.97-226.1,19.42-28.75,32.66-74.07,59.05-83.14,23.31-8.01,36.95-.06,62.94,10.1,29.32,11.47,31.28,21.6,58.27,31.08,7.68,2.7,23.23,14.67,30.77,17.73,34.5,14,58.95,45.97,92.72,61.64,10.16,4.72,21,7.87,31.05,12.83,10.56,5.21,20.06,12.31,29.49,19.37,8.11,6.07,19.65,12.22,26.27,19.88,5.13,5.93,8.02,13.86,7.51,21.69Z"/>
    <path class="cls-11" d="m399.11,177.12c-12.91-4-25.88-.66-32.18,11.92-3.85,7.69-5.28,16.36-8.55,24.32-4.85,11.83-15.74,21.22-22.66,32.12-9.3,14.66-18.6,29.33-27.9,43.99-17.48,27.56-33.7,56.63-52.72,83.14-17.5,24.41-31.86,27.65-49.49,52.14-1.48,2.05-9.27,14.63-9.83,17.09-2.7,11.81,14.09,17.73,21.49,22.03,10.71,6.23,18.99,16.03,28.67,23.64,20.02,15.74,50.71,29.74,71.56,44.46,21.45,15.14,38.85,25.64,55.98,41.9,13.9,13.19,33.93,18.65,47.62,32.23,8.85,8.78,15.32,22.13,27.18,27.41,15.87,7.08,29.04-22.82,36.44-34.35,24.31-37.91,44.28-59.23,68.6-97.13,17.78-27.73,35.57-55.45,53.32-83.2,9.05-14.14,18.1-28.29,27.13-42.45,5.73-8.98,21.85-22.72,20.2-34.49-1.78-12.64-25.64-18.03-35.3-21.02-21.53-6.67-36.37-21.27-55.64-32.87-22.51-13.54-44.72-29.68-66.02-44.8-24.92-17.69-49.85-35.39-74.77-53.08-6.99-4.96-14.12-10-22.25-12.73-.29-.1-.59-.19-.88-.28Z"/>
    <path class="cls-4" d="m421.1,74.88c-4.43,5.61-8.6,11.44-12.47,17.45-1.71,2.65-3.42,5.56-3.26,8.71.05.99.31,2.02,1,2.74,1.41,1.48,3.93,1.01,5.64-.11s3.08-2.76,4.95-3.58,4.59-.36,5.16,1.6c.55,1.9-.99,4.58.71,5.59.55.33,1.25.27,1.89.19,5.52-.73,10.91-2.94,16.46-2.51.78.06,1.68.26,2.02.96.28.57.09,1.25-.12,1.85-.66,1.98-1.33,3.96-1.99,5.95,7.54,1.76,15.52,1.57,22.97-.54-4.33-3.14-10.36-1.14-15.29.95-.91.39-1.96.95-2.06,1.94-.07.71.41,1.35.91,1.86,1.37,1.39,3.11,2.37,4.45,3.79s2.24,3.55,1.43,5.32-3.88,2.17-4.58.35c.95-3.66,4.52-5.94,7.89-7.65,10.21-5.2,21.54-8.72,30.06-16.38-13.72,2.94-26.1,11.65-33.49,23.58,4.69.22,9.44-1.98,12.29-5.71-4.78-2.23-10.97-.9-14.42,3.1,5.76,1.25,11.52,2.5,17.27,3.75-1.37,2.63-3.26,4.99-5.53,6.9,5.45-2.1,11.48-2.64,17.22-1.55-1.25,1.19-2.53,2.43-3.19,4.01s-.55,3.64.74,4.79c.92.82,2.22,1.02,3.44,1.19,3.26.45,6.52.89,9.78,1.34"/>
    <path class="cls-4" d="m661.81,219.81c3.58-1.33,5.29-5.74,4.56-9.49s-3.33-6.86-6.22-9.36c-3.26-2.82-7.78-5.18-11.74-3.48-3.68,1.58-5.24,6.12-4.96,10.11.29,4,1.96,7.75,2.91,11.64,1.55,6.31,1.2,12.93,2.24,19.34.12.73.28,1.51.8,2.04,1.01,1.03,2.71.62,4.06.12,10.27-3.82,20.06-8.93,29.05-15.19,2.4-1.67,5.01-3.96,4.75-6.88-.19-2.11-1.88-3.78-3.68-4.89-7.43-4.58-18.39-1.85-22.81,5.69"/>
    <path class="cls-4" d="m213.88,506.39c3.58-1.33,5.29-5.74,4.56-9.49s-3.33-6.86-6.22-9.36c-3.26-2.82-7.78-5.18-11.74-3.48-3.68,1.58-5.24,6.12-4.96,10.11.29,4,1.96,7.75,2.91,11.64,1.55,6.31,1.2,12.93,2.24,19.34.12.73.28,1.51.8,2.04,1.01,1.03,2.71.62,4.06.12,10.27-3.82,20.06-8.93,29.05-15.19,2.4-1.67,5.01-3.96,4.75-6.88-.19-2.11-1.88-3.78-3.68-4.89-7.43-4.58-18.39-1.85-22.81,5.69"/>
    <path class="cls-4" d="m690.2,236.14c-.98,7.35-3.18,14.79-6.54,22.04,5.43-.31,10.91-1.92,16.35-3.23,8.02-1.94,20.16-1.52,27.29-4.68-5.93-2.63-12.49-4.74-18.54-7.33-1.74-.75-18.63-6.24-18.56-6.8Z"/>
    <path class="cls-4" d="m682.18,258.28c6.59,4.29,12.91,8.82,18.94,13.6,1.73-.51,2.03-2.37,2.6-3.78.9-2.22,3.28-4,5.53-5.63,5.46-3.94,10.92-7.88,16.38-11.82"/>
    <path class="cls-4" d="m290.63,553.25c-.98,7.35-3.18,14.79-6.54,22.04,5.43-.31,10.91-1.92,16.35-3.23,8.02-1.94,20.16-1.52,27.29-4.68-5.93-2.63-12.49-4.74-18.54-7.33-1.74-.75-18.63-6.24-18.56-6.8Z"/>
    <path class="cls-4" d="m282.61,575.39c6.59,4.29,12.91,8.82,18.94,13.6,1.73-.51,2.03-2.37,2.6-3.78.9-2.22,3.28-4,5.53-5.63,5.46-3.94,10.92-7.88,16.38-11.82"/>
    <path class="cls-4" d="m260.21,524.73c-6.03-2.02-13.27.48-16.76,5.79s-2.91,12.95,1.34,17.68c2.51,2.79,6.02,4.53,8.6,7.26s3.99,7.32,1.5,10.14c5.04-5.72,17.52-10.12,20.11-17.41,3.02-8.49-7.28-20.94-14.79-23.47Z"/>
    <path class="cls-4" d="m436.1,644.49c-5.89,7.28-11.98,14.41-18.25,21.37-.9,1-2.51,2.04-3.42,1.04-.37-.4-.43-.98-.47-1.52-.51-6.2-1.02-12.4-1.54-18.6-4.31,3.98-11.18,3.04-16.54,5.42,7.02-3.12,8.02-23.86,15.7-25.51,5.58-1.19,20.23,14.23,24.53,17.8Z"/>
    <path class="cls-4" d="m152.3,541.82c11.11-1.76,23,2.79,30.09,11.53,1.8,2.22,3.37,4.74,5.82,6.21,3.46,2.07,8.32,1.82,10.87,4.95,2.91,3.59.83,9.19,2.8,13.37,1.32,2.8,4.2,4.47,6.92,5.96,29.56,16.23,59.12,32.46,88.68,48.68,4.55,2.5,9.11,5,13.31,8.05,3.52,2.55,6.77,5.46,10.24,8.08,18.55,13.99,43.02,19.28,59.78,35.37"/>
    <path class="cls-4" d="m139.42,560.67c.94,4.33,6.15,5.88,10.42,7.09,4.26,1.21,9.27,4.28,8.4,8.63-.51,2.56-3.05,4.54-2.95,7.15.12,3.12,3.88,4.74,7,4.71s6.39-.91,9.27.31c4.91,2.08,5.55,8.57,7.4,13.57,4.61,12.5,18.93,17.81,31.23,22.95,6.53,2.73,13.01,5.87,18.29,10.6,2.71,2.43,5.06,5.24,7.78,7.67,3.25,2.9,6.98,5.21,10.71,7.47,21.01,12.72,42.65,24.4,64.82,34.98,11.69,5.58,23.8,11.03,33.02,20.13"/>
    <path class="cls-4" d="m117.22,588.2c3.04,5.17,7.98,9.19,13.65,11.11,1.78.6,3.7,1.05,5.1,2.31,1.76,1.59,2.35,4.2,4.14,5.76,3.16,2.76,8.34,1.04,12.02,3.05,2.26,1.24,3.56,3.66,5.3,5.55,4.15,4.52,10.9,6.12,14.64,10.98,1.29,1.68,2.15,3.67,3.52,5.28,3.45,4.07,9.56,5.15,12.89,9.33"/>
    <path class="cls-9" d="m451.12,634.6c-4.18-24.2-8.35-48.39-12.53-72.59-3.79-21.94-9.19-46.47-27.39-58.18-11.97-7.71-26.88-7.96-40.35-12.18-4.25-1.33-8.5-3.15-11.64-6.4-7.12-7.36-6.51-19.32-5.41-29.71-.84-1.46-2.3-1.65-.67-1.75s3.11.93,4.45,1.9c17.6,12.67,37.38,22.04,58.1,27.54,1.35.36,2.76.7,4.13.45,5.71-1.07,6.58-10.97,12.3-12,2.99-.54,5.85,1.88,7.13,4.75s1.4,6.12,1.82,9.26c1.89,14.36,10.05,26.82,16.1,39.86,8.69,18.71,13.21,39.18,17.66,59.44,1.5,6.84,3.02,13.81,2.43,20.8-1.22,14.48-12.42,26.11-26.12,28.81Z"/>
    <g>
      <path class="cls-1" d="m517.43,372.12c1.95,1.75,3.92,3.76,4.42,6.33,1.02,5.33-4.5,9.47-6.42,14.54-.85,2.26-1.12,4.98-3.05,6.44-2.4,1.81-5.8.57-8.51-.72-17.54-8.36-35.07-16.73-52.61-25.09-5.75-2.74-11.52-5.5-16.71-9.2-4.54-3.24-8.57-7.16-13.1-10.42-5.48-3.95-24.77-14.75-29.72-20.91-13.24-16.49,9.52-22.01,13.63-25.38,31.37,20.85,83.95,39.1,112.06,64.42Z"/>
      <path class="cls-7" d="m361.53,338.78c8.53,10.39,25.92,19.12,37.33,26.24,11.59,7.24,12.78,12.57,22.17,17.64,8.9,4.81,14.85,11.08,24.58,13.84,13.84,3.93,26.84,10.82,37.86,20.08,2.84,2.39,6.43,5.11,9.87,3.72,2.42-.97,3.64-3.62,4.63-6.03,1.61-3.91,3.22-7.82,4.83-11.73.53-1.3,1.08-2.73.68-4.07-.37-1.25-1.48-2.13-2.52-2.92-8.34-6.3-16.77-12.66-26.31-16.92-8.66-3.87-18.03-5.9-26.85-9.39-19.44-7.68-35.18-21.96-49.2-37.08-4.73-5.1-12.93-21.83-18.38-16.51-4.26,4.16-25.42,14.91-18.69,23.12Z"/>
      <path class="cls-10" d="m330.31,388.41c20.71,11.68,41.38,21.18,63.49,29.77s40.3,32.36,58.47,41.8c1.62.84,2.34-.52,4.9-.91.85-.13,1.61-.57,2.31-1.07,12.27-8.72,23.17-19.42,32.18-31.57-7.32-7.8-14.82-15.74-24.21-20.74-7.02-3.74-14.82-5.69-22.14-8.77-10.47-4.41-19.85-11.08-29.13-17.7-10.71-7.64-35.59-33.36-49.31-29.25-7.63,2.29-32.23,40.64-36.57,38.43Z"/>
      <path class="cls-8" d="m359.47,398.35c7.37,4.17,14.44,8.93,22.16,12.43,6.6,2.99,13.61,5.04,20.1,8.26,9.71,4.81,17.94,12.08,26.05,19.26,8.17,7.23,16.33,14.46,24.5,21.69,1,.89,2.07,1.88,2.29,3.2.31,1.8-1.03,3.42-2.27,4.76-4.49,4.82-8.97,9.64-13.46,14.47-2.67,2.87-5.51,5.85-9.23,7.08-5.9,1.96-12.2-.96-17.72-3.83-16.06-8.36-31.99-16.96-47.79-25.8-6.7-3.75-13.41-7.55-20.6-10.23-7.24-2.7-14.9-4.22-21.94-7.39-9.05-4.07-16.87-10.85-22.17-19.24-1.03-1.63-2-3.41-2.06-5.34-.06-1.67.56-3.27,1.22-4.81,2.83-6.6,6.51-12.84,10.91-18.52,3.13-4.04,9.49-13.24,14.58-14.75,2.58-.76,10.68,6.68,14.24,8.29,7.2,3.26,14.26,6.7,21.2,10.49Z"/>
    </g>
    <path class="cls-3" d="m390.04,319.24c5.36,13.43,16.9,23.51,29.32,30.91s26.02,12.63,38.65,19.67c8.07,4.5,15.9,9.8,24.87,12.01,4.02.99,8.22,1.34,12.09,2.82s7.54,4.42,8.35,8.48"/>
    <path class="cls-3" d="m373.75,349.19c17.86,13.95,37.08,26.16,57.29,36.4,4.7,2.38,9.46,4.66,13.94,7.43,10.7,6.61,20.03,16.1,32.2,19.27"/>
    <path class="cls-3" d="m339.76,388.92c17.46,8.42,34.38,17.98,50.61,28.59,4.01,2.63,8,5.32,12.26,7.53,8.02,4.14,16.85,6.46,25.1,10.14,9.1,4.07,17.45,9.82,24.49,16.88"/>
    <path class="cls-6" d="m351.79,466.63c2.14,7.07,5.63,13.72,10.22,19.5.98,1.23,2.04,2.45,3.42,3.19,1.56.84,3.39,1.01,5.15,1.21,15.76,1.77,31.06,7.46,44.15,16.42"/>
    <path class="cls-6" d="m431.91,532.1c-4.11,18.04,6.6,35.72,11.01,53.68,3.15,12.84,3.07,26.22,2.97,39.45"/>
    <path class="cls-6" d="m443.56,495.88c5.98,13.26,10.93,26.99,14.78,41.02"/>
    <path class="cls-6" d="m470.53,560.04c2.23,15.17,4.46,30.34,6.7,45.51"/>
  </g>
</svg>