<?xml version="1.0" encoding="UTF-8"?>
<svg id="Layer_2" data-name="Layer 2" xmlns="http://www.w3.org/2000/svg" viewBox="0 0 448 448">
  <defs>
    <style>
      .cls-1 {
        fill: #a690a4;
      }
    </style>
  </defs>
  <g id="Layer_1-2" data-name="Layer 1">
    <path class="cls-1" d="m224,170.66c-29.46.01-53.33,23.9-53.32,53.36.01,29.46,23.9,53.33,53.36,53.32,29.45-.01,53.32-23.89,53.32-53.34-.02-29.46-23.9-53.33-53.36-53.34Zm124.71-41c-5.49-13.91-16.5-24.92-30.41-30.41-21-8.29-71-6.43-94.3-6.43s-73.25-1.93-94.31,6.43c-13.91,5.49-24.92,16.5-30.41,30.41-8.28,21-6.43,71.05-6.43,94.33s-1.85,73.27,6.47,94.34c5.49,13.91,16.5,24.92,30.41,30.41,21,8.29,71,6.43,94.31,6.43s73.24,1.93,94.3-6.43c13.91-5.49,24.92-16.5,30.41-30.41,8.35-21,6.43-71.05,6.43-94.33s1.92-73.26-6.43-94.33h-.04Zm-124.71,176.34c-45.29,0-82-36.71-82-82s36.71-82,82-82,82,36.71,82,82c.06,45.23-36.57,81.94-81.8,82-.07,0-.13,0-.2,0Zm85.38-148.3c-10.57,0-19.14-8.56-19.15-19.13s8.56-19.14,19.13-19.15c10.57,0,19.14,8.56,19.15,19.13h0c.04,10.56-8.47,19.15-19.02,19.19-.02,0-.05,0-.07,0l-.04-.04ZM400,0H48C21.49,0,0,21.49,0,48v352c0,26.51,21.49,48,48,48h352c26.51,0,48-21.49,48-48V48c0-26.51-21.49-48-48-48Zm-17.12,290c-1.29,25.63-7.14,48.34-25.85,67s-41.4,24.63-67,25.85c-26.41,1.49-105.59,1.49-132,0-25.63-1.29-48.26-7.15-67-25.85s-24.63-41.42-25.85-67c-1.49-26.42-1.49-105.61,0-132,1.29-25.63,7.07-48.34,25.85-67s41.47-24.56,67-25.78c26.41-1.49,105.59-1.49,132,0,25.63,1.29,48.33,7.15,67,25.85,18.67,18.7,24.63,41.42,25.85,67.05,1.49,26.32,1.49,105.44,0,131.88Z"/>
  </g>
</svg>