<?xml version="1.0" encoding="UTF-8"?>
<svg id="Layer_2" data-name="Layer 2" xmlns="http://www.w3.org/2000/svg" viewBox="0 0 172.33 174.2">
  <defs>
    <style>
      .cls-1 {
        fill: #2a3c24;
      }
    </style>
  </defs>
  <g id="insta">
    <path class="cls-1" d="m72.22,89.99c14.06-5.23,20.76-22.56,17.91-37.29-2.85-14.72-13.09-26.96-24.42-36.78C52.91,4.83,35.16-4.42,19.6,2.25,5.13,8.45-.99,26.27.13,41.97c1.13,15.7,7.69,30.44,11.43,45.73,6.07,24.78,4.7,50.79,8.81,75.97.47,2.89,1.11,5.94,3.15,8.03,3.95,4.03,10.66,2.44,15.96.47,40.34-14.99,78.78-35.08,114.12-59.65,9.44-6.57,19.69-15.57,18.66-27.03-.74-8.28-7.39-14.83-14.46-19.19-29.19-17.98-72.25-7.25-89.59,22.33"/>
  </g>
</svg>