<?xml version="1.0" encoding="UTF-8"?>
<svg id="Layer_2" data-name="Layer 2" xmlns="http://www.w3.org/2000/svg" viewBox="0 0 92.02 67.77">
  <defs>
    <style>
      .cls-1 {
        fill: #a690a4;
      }

      .cls-2 {
        fill: #c59b6d;
        stroke: #8b6239;
        stroke-linecap: round;
        stroke-linejoin: round;
        stroke-width: .5px;
      }

      .cls-3 {
        fill: #754c24;
      }
    </style>
  </defs>
  <g id="Layer_14" data-name="Layer 14">
    <path id="Path_472" data-name="Path 472" class="cls-1" d="m1.19,26.79C-.3,31.69.06,36.88,0,40.43c-.05,3.62.13,7.31,1.7,10.74,2.69,5.88,9.34,10.45,16.94,13.06s16.11,3.42,24.48,3.52c8.56.1,17.26-.53,25.18-2.92,2.76-.83,12.33-4.47,18.53-12.49,9.74-12.62,3.02-26.07,1.7-28.71-1.8-3.6-10.05-18.36-31.37-22.6-11.74-2.22-23.88-.87-34.85,3.87C9.32,10.73,3.22,20.11,1.19,26.79h0Z"/>
    <path id="Path_473" data-name="Path 473" class="cls-2" d="m23.03,13.19c-1.65,1.81-2.53,4.19-2.48,6.64.07,2.42.46,4.83,1.14,7.15.18.99.56,1.93,1.12,2.76.51.58,1.11,1.07,1.78,1.45,2.36,1.49,4.83,2.81,7.38,3.95,1.18.61,2.46.97,3.78,1.06,1.86-.06,3.62-.85,4.91-2.19,1.27-1.33,2.34-2.84,3.19-4.47.54-.84.94-1.75,1.19-2.72.19-1.74-.11-3.5-.85-5.09-1.6-4.3-3.67-9.47-8.55-10.55-3.87-.85-9.59-1.01-12.61,2h0Z"/>
    <path id="Path_474" data-name="Path 474" class="cls-2" d="m11.36,25.62c-.55,2.63-.07,5.38,1.35,7.67,1.42,2.26,3.12,4.33,5.06,6.15.71.84,1.59,1.52,2.59,2,.8.27,1.65.4,2.49.38,3.07.1,6.14-.03,9.18-.37,1.45-.08,2.87-.45,4.17-1.1,1.73-1.09,2.96-2.81,3.43-4.8.46-1.97.64-3.99.54-6.01.05-1.09-.08-2.18-.38-3.23-.62-1.81-2.16-3.13-3.64-4.35-3.9-3.19-8.74-6.94-13.97-5.24-4.15,1.34-9.65,4.37-10.83,8.9Z"/>
    <path id="Path_475" data-name="Path 475" class="cls-3" d="m15.93,23.49c-1.05.8-1.46,2.19-1,3.43.06.19.18.36.34.49.16.09.34.14.52.15.76.15,1.54.12,2.28-.1.75-.24,1.27-.93,1.27-1.73,0-.11-.04-.22-.1-.31-.12-.13-.28-.22-.44-.28-.49-.33-.92-.73-1.27-1.2-.38-.48-1.03-.63-1.58-.38"/>
    <path id="Path_476" data-name="Path 476" class="cls-3" d="m22.39,20.34c-.91.69-1.27,1.9-.87,2.98.05.17.16.32.3.43.14.08.29.12.45.13.66.12,1.34.09,1.99-.09.66-.2,1.1-.81,1.11-1.5,0-.1-.03-.19-.09-.27-.11-.11-.24-.19-.39-.24-.46-.22-.74-.69-1.11-1.05-.33-.41-.89-.55-1.37-.34"/>
    <path id="Path_477" data-name="Path 477" class="cls-3" d="m20.18,29.63c-.7-.4-1.58-.3-2.18.24-.09.08-.16.19-.2.31-.01.11,0,.23.04.33.1.46.3.9.6,1.27.31.37.83.5,1.28.31.06-.03.11-.07.15-.13.04-.1.06-.21.05-.32.07-.35.2-.69.38-1,.18-.33.11-.73-.16-.99"/>
    <path id="Path_478" data-name="Path 478" class="cls-3" d="m31.8,29.49c-.69.52-.96,1.43-.66,2.25.04.13.12.24.23.32.1.06.22.1.34.1.5.1,1.01.07,1.5-.07.49-.16.83-.61.84-1.13,0-.07-.02-.14-.06-.2-.08-.08-.19-.15-.3-.18-.32-.22-.6-.48-.84-.79-.25-.31-.67-.42-1.04-.25"/>
    <path id="Path_479" data-name="Path 479" class="cls-3" d="m25.53,25.54c-1.05.8-1.46,2.19-1,3.43.06.19.18.36.34.49.16.09.34.14.52.15.76.15,1.54.12,2.28-.1.75-.24,1.27-.93,1.27-1.73,0-.11-.04-.22-.1-.31-.12-.13-.28-.22-.44-.28-.49-.33-.92-.73-1.27-1.2-.38-.47-1.03-.63-1.58-.38"/>
    <path id="Path_480" data-name="Path 480" class="cls-3" d="m32.01,24.29c-.69.52-.96,1.43-.66,2.25.04.13.12.24.23.32.1.06.22.1.34.1.5.1,1.01.07,1.5-.07.49-.16.83-.61.84-1.13,0-.07-.02-.14-.06-.2-.08-.08-.19-.15-.3-.18-.32-.22-.6-.48-.84-.79-.25-.31-.67-.42-1.04-.25"/>
    <path id="Path_481" data-name="Path 481" class="cls-3" d="m24.39,31.43c-.91.69-1.27,1.9-.87,2.98.05.17.16.32.3.43.14.08.29.12.45.13.66.12,1.34.09,1.99-.09.66-.2,1.1-.81,1.11-1.5,0-.1-.03-.19-.09-.27-.11-.11-.24-.19-.39-.24-.46-.22-.74-.69-1.11-1.05-.33-.41-.89-.55-1.37-.34"/>
    <path id="Path_482" data-name="Path 482" class="cls-3" d="m27.86,10.2c-1.31.16-2.36,1.15-2.6,2.45-.05.2-.03.41.04.6.09.16.22.29.38.39.58.51,1.27.88,2.02,1.06.77.18,1.57-.17,1.98-.85.05-.1.07-.21.07-.31-.04-.17-.13-.33-.24-.46-.26-.53-.42-1.1-.49-1.68-.15-.57-.57-1.17-1.16-1.13"/>
    <path id="Path_483" data-name="Path 483" class="cls-3" d="m35.65,13.52c-1.14.14-2.05,1-2.26,2.13-.04.17-.02.36.04.52.08.14.2.25.33.34.5.45,1.11.76,1.76.92.67.15,1.36-.14,1.72-.73.05-.09.07-.18.06-.28-.04-.15-.11-.29-.22-.4-.22-.46-.37-.95-.43-1.46-.13-.49-.5-1.02-1.01-.99"/>
    <path id="Path_484" data-name="Path 484" class="cls-3" d="m27.4,17.24c-.4-.7-1.21-1.06-2-.89-.12.02-.24.08-.33.17-.07.09-.11.19-.13.3-.15.45-.19.93-.12,1.4.08.48.47.85.95.91.07,0,.14,0,.2-.04.09-.06.16-.15.2-.25.24-.27.52-.5.84-.68.29-.23.52-.6.37-.92"/>
    <path id="Path_485" data-name="Path 485" class="cls-3" d="m37.5,21.2c-.86.1-1.55.76-1.71,1.61-.03.13-.02.27.04.39.06.1.15.19.24.26.38.34.83.58,1.32.7.51.12,1.03-.11,1.3-.56.04-.06.05-.14.04-.21-.03-.11-.09-.22-.17-.3-.17-.35-.27-.72-.32-1.11-.1-.38-.38-.77-.77-.74"/>
    <path id="Path_486" data-name="Path 486" class="cls-3" d="m34.72,15.5c-1.31.16-2.36,1.15-2.6,2.45-.05.2-.03.41.04.6.09.16.22.29.38.39.58.51,1.27.88,2.02,1.06.77.18,1.57-.17,1.98-.85.05-.1.07-.21.07-.31-.04-.17-.13-.33-.24-.46-.26-.53-.42-1.1-.49-1.68-.15-.57-.57-1.17-1.16-1.13"/>
    <path id="Path_487" data-name="Path 487" class="cls-3" d="m41.27,16.79c-.86.1-1.55.76-1.71,1.61-.03.13-.02.27.04.39.06.1.15.19.24.26.38.34.83.58,1.32.7.51.12,1.03-.11,1.3-.56.04-.06.05-.14.04-.21-.03-.11-.09-.22-.17-.3-.17-.35-.27-.72-.32-1.11-.1-.38-.38-.77-.77-.74"/>
    <path id="Path_488" data-name="Path 488" class="cls-3" d="m29.68,20.15c-1.14.14-2.05,1-2.26,2.13-.04.17-.02.36.04.52.08.14.2.25.33.34.5.45,1.11.76,1.76.92.67.15,1.36-.14,1.72-.73.05-.09.07-.18.06-.28-.04-.15-.11-.29-.22-.4-.22-.46-.37-.95-.43-1.46-.13-.49-.5-1.02-1.01-.99"/>
    <path id="Path_489" data-name="Path 489" class="cls-2" d="m6.21,40.47c.02,2.45.99,4.8,2.7,6.55,1.7,1.73,3.62,3.24,5.7,4.48.8.61,1.72,1.04,2.69,1.26.76.09,1.54.04,2.28-.15,2.74-.51,5.45-1.22,8.1-2.12,1.27-.36,2.46-.96,3.5-1.79,1.32-1.31,2.08-3.08,2.11-4.94.02-1.84-.22-3.67-.7-5.45-.17-.98-.5-1.93-.97-2.81-1.04-1.41-2.46-2.5-4.09-3.15-4.1-2.07-9.12-4.46-13.44-1.93-3.42,2-7.72,5.77-7.89,10.04h0Z"/>
    <path id="Path_490" data-name="Path 490" class="cls-3" d="m10.34,39.02c-.86,1-.96,2.45-.24,3.56.11.18.26.32.44.41.17.06.36.07.54.04.77-.02,1.53-.22,2.21-.59.69-.39,1.04-1.19.87-1.96-.03-.11-.08-.2-.17-.28-.15-.1-.32-.16-.5-.17-.55-.21-1.05-.52-1.5-.9-.47-.38-1.13-.4-1.62-.04"/>
    <path id="Path_491" data-name="Path 491" class="cls-3" d="m15.7,34.97c-.74.88-.83,2.13-.22,3.1.09.15.22.28.38.36.15.05.31.06.47.03.67-.02,1.33-.19,1.92-.51.6-.34.9-1.03.76-1.71-.02-.09-.07-.18-.14-.24-.13-.09-.28-.14-.44-.15-.48-.18-.92-.45-1.3-.78-.41-.34-.99-.35-1.41-.04"/>
    <path id="Path_492" data-name="Path 492" class="cls-3" d="m16.23,44.39c-.77-.24-1.62.04-2.08.71-.08.1-.12.22-.12.35.01.11.05.22.11.31.19.43.49.81.86,1.11.39.29.92.3,1.32.03.05-.04.09-.1.12-.16.02-.11.01-.22-.02-.32,0-.36.05-.72.16-1.06.06-.36-.03-.8-.37-.92"/>
    <path id="Path_493" data-name="Path 493" class="cls-3" d="m27.55,42.48c-.56.66-.63,1.61-.17,2.34.07.12.17.21.29.27.12.03.24.04.36.03.51-.01,1-.15,1.45-.39.45-.26.68-.78.57-1.29-.01-.07-.05-.13-.1-.18-.1-.06-.21-.1-.32-.11-.36-.14-.69-.34-.99-.59-.31-.25-.74-.26-1.06-.03"/>
    <path id="Path_494" data-name="Path 494" class="cls-3" d="m20.31,39.53c-.86,1-.96,2.45-.24,3.56.11.18.26.32.44.41.17.06.36.07.54.04.77-.02,1.53-.22,2.21-.59.69-.39,1.04-1.19.87-1.96-.03-.11-.08-.2-.17-.28-.15-.1-.32-.16-.5-.17-.55-.21-1.05-.52-1.5-.9-.47-.38-1.13-.4-1.62-.04"/>
    <path id="Path_495" data-name="Path 495" class="cls-3" d="m26.23,37.36c-.56.66-.63,1.61-.17,2.34.07.12.17.21.29.27.12.03.24.04.36.03.51-.01,1-.15,1.45-.39.45-.26.68-.78.57-1.29-.01-.07-.05-.13-.1-.18-.1-.06-.21-.1-.32-.11-.36-.14-.69-.34-.99-.59-.31-.25-.74-.26-1.06-.03"/>
    <path id="Path_496" data-name="Path 496" class="cls-3" d="m20.91,45.49c-.74.88-.83,2.13-.22,3.1.09.15.22.28.38.36.15.05.31.06.47.03.67-.02,1.33-.19,1.92-.51.6-.34.9-1.03.76-1.71-.02-.09-.07-.18-.14-.24-.13-.09-.28-.14-.44-.15-.48-.18-.92-.45-1.3-.78-.41-.34-.99-.35-1.41-.04"/>
    <path id="Path_497" data-name="Path 497" class="cls-2" d="m22.65,42.26c-1.02,1.92-1.26,4.16-.67,6.25.59,2.07,1.44,4.05,2.54,5.9.37.81.9,1.53,1.56,2.13.56.39,1.18.68,1.84.85,2.36.76,4.76,1.35,7.2,1.78,1.14.26,2.33.29,3.49.09,1.58-.46,2.92-1.52,3.73-2.95.8-1.42,1.39-2.95,1.76-4.54.91-2.34.36-5-1.42-6.78-2.31-3.35-5.22-7.34-9.65-7.19-3.51.11-8.45,1.23-10.39,4.48h0Z"/>
    <path id="Path_498" data-name="Path 498" class="cls-3" d="m26.99,47.87c-1.09.42-1.78,1.51-1.7,2.68,0,.18.06.36.17.51.12.12.26.2.41.25.61.31,1.28.47,1.97.47.7-.02,1.31-.48,1.51-1.16.02-.09.02-.19,0-.29-.07-.14-.18-.26-.31-.34-.33-.4-.6-.85-.78-1.33-.25-.45-.75-.88-1.25-.71"/>
    <path id="Path_499" data-name="Path 499" class="cls-3" d="m33.56,46.4c-.95.37-1.55,1.31-1.48,2.33,0,.16.06.31.15.44.1.1.22.18.36.23.53.27,1.12.41,1.72.41.61-.01,1.14-.42,1.32-1,.02-.08.02-.17,0-.25-.04-.13-.17-.21-.27-.3-.29-.34-.52-.74-.68-1.16-.22-.39-.65-.77-1.08-.62"/>
    <path id="Path_500" data-name="Path 500" class="cls-3" d="m28.6,54.13c-.5-.52-1.28-.65-1.92-.32-.1.05-.18.12-.24.22-.04.1-.05.2-.04.3-.03.42.04.84.2,1.23.18.39.58.63,1.01.58.06,0,.11-.03.16-.07.06-.08.1-.17.12-.26.15-.28.34-.54.57-.77.19-.25.32-.64.11-.87"/>
    <path id="Path_501" data-name="Path 501" class="cls-3" d="m38.53,52.65c-.71.28-1.17.99-1.12,1.75,0,.12.04.24.11.33.08.08.17.13.27.17.4.2.84.31,1.29.31.46-.01.86-.32.99-.76.01-.06.01-.13,0-.19-.04-.1-.13-.16-.21-.23-.22-.26-.39-.56-.51-.88-.17-.3-.5-.58-.82-.47"/>
    <path id="Path_502" data-name="Path 502" class="cls-3" d="m34.47,51.34c-1.09.42-1.78,1.51-1.7,2.67,0,.18.06.36.17.51.12.12.26.2.41.25.61.31,1.28.47,1.97.47.7-.02,1.31-.49,1.51-1.16.02-.09.02-.19,0-.29-.07-.14-.18-.26-.31-.34-.33-.4-.6-.85-.78-1.33-.25-.45-.75-.88-1.25-.71"/>
    <path id="Path_503" data-name="Path 503" class="cls-3" d="m40.45,51.6c-.71.28-1.17.99-1.12,1.75,0,.12.04.24.11.33.08.08.17.13.27.17.4.2.84.31,1.29.31.46-.01.86-.32.99-.76.01-.06.01-.13,0-.19-.04-.1-.13-.16-.21-.23-.22-.26-.39-.56-.51-.88-.17-.3-.5-.58-.82-.47"/>
    <path id="Path_504" data-name="Path 504" class="cls-3" d="m31.52,53.21c-.95.37-1.55,1.31-1.48,2.33,0,.16.06.31.15.44.1.1.22.18.36.23.53.27,1.12.41,1.72.41.61-.01,1.14-.42,1.32-1,.02-.08.02-.17,0-.25-.04-.13-.17-.21-.27-.3-.29-.34-.52-.74-.68-1.16-.22-.39-.65-.77-1.08-.62"/>
    <path id="Path_505" data-name="Path 505" class="cls-2" d="m40.57,46.17c-.5,2.4-.06,4.9,1.23,6.98,1.29,2.05,2.83,3.93,4.6,5.59.65.76,1.46,1.38,2.36,1.81.73.24,1.5.36,2.26.35,2.79.09,5.58-.02,8.36-.33,1.32-.07,2.61-.41,3.8-.99,1.57-.99,2.69-2.56,3.12-4.36.42-1.79.58-3.63.49-5.47.05-.99-.07-1.99-.35-2.95-.72-1.6-1.86-2.97-3.31-3.96-3.55-2.9-7.96-6.32-12.7-4.77-3.77,1.22-8.78,3.98-9.85,8.1h0Z"/>
    <path id="Path_506" data-name="Path 506" class="cls-3" d="m45.17,49.65c-1.05.8-1.46,2.19-1,3.43.06.19.18.36.34.49.16.09.34.14.52.15.76.15,1.54.12,2.28-.1.75-.24,1.27-.93,1.27-1.73,0-.11-.04-.22-.1-.31-.12-.13-.28-.22-.44-.28-.49-.33-.92-.73-1.27-1.2-.38-.47-1.03-.63-1.58-.38"/>
    <path id="Path_507" data-name="Path 507" class="cls-3" d="m51.62,46.56c-.91.69-1.27,1.9-.87,2.98.05.17.16.32.3.43.14.08.29.12.45.13.66.12,1.34.09,1.99-.09.66-.2,1.1-.81,1.11-1.5,0-.1-.03-.19-.09-.27-.11-.11-.24-.19-.39-.24-.46-.22-.74-.69-1.11-1.05-.33-.41-.89-.55-1.37-.34"/>
    <path id="Path_508" data-name="Path 508" class="cls-3" d="m49.4,52.58c-.7-.4-1.58-.3-2.18.24-.09.08-.16.19-.2.31-.01.11,0,.23.04.33.1.46.3.9.6,1.27.31.37.83.5,1.28.31.06-.03.11-.07.15-.13.04-.1.06-.21.05-.32.07-.35.2-.69.38-1,.18-.33.11-.73-.16-.98"/>
    <path id="Path_509" data-name="Path 509" class="cls-3" d="m61.03,52.45c-.69.52-.96,1.43-.66,2.25.04.13.12.24.23.32.1.06.22.1.34.1.5.1,1.01.07,1.5-.07.49-.16.83-.61.84-1.13,0-.07-.02-.14-.06-.2-.08-.08-.19-.15-.3-.18-.32-.22-.6-.48-.84-.79-.25-.31-.67-.42-1.04-.25"/>
    <path id="Path_510" data-name="Path 510" class="cls-3" d="m54.76,51.7c-1.05.8-1.46,2.19-1,3.43.06.19.18.36.34.49.16.09.34.14.52.15.76.15,1.54.12,2.28-.1.75-.24,1.27-.93,1.27-1.73,0-.11-.04-.22-.1-.31-.12-.13-.28-.22-.44-.28-.49-.33-.92-.73-1.27-1.2-.38-.48-1.03-.63-1.58-.38"/>
    <path id="Path_511" data-name="Path 511" class="cls-3" d="m61.24,50.61c-.69.52-.96,1.43-.66,2.25.04.13.12.24.23.32.1.06.22.1.34.1.5.1,1.01.07,1.5-.07.49-.16.83-.61.84-1.13,0-.07-.02-.14-.06-.2-.08-.08-.19-.15-.3-.18-.32-.22-.6-.48-.84-.79-.25-.31-.67-.42-1.04-.25"/>
    <path id="Path_512" data-name="Path 512" class="cls-3" d="m53.61,55.25c-.91.69-1.27,1.9-.87,2.98.05.17.16.32.3.43.14.08.29.12.45.13.66.12,1.34.09,1.99-.09.66-.2,1.11-.81,1.11-1.5,0-.1-.03-.19-.09-.27-.11-.11-.24-.19-.39-.23-.46-.22-.74-.69-1.11-1.05-.33-.41-.89-.55-1.37-.34"/>
    <path id="Path_513" data-name="Path 513" class="cls-2" d="m55.38,40.58c-.5,2.4-.06,4.9,1.23,6.98,1.29,2.05,2.83,3.93,4.6,5.59.65.76,1.46,1.38,2.36,1.81.73.24,1.5.36,2.26.35,2.79.09,5.58-.02,8.36-.33,1.32-.07,2.61-.41,3.8-.99,1.57-.99,2.69-2.56,3.12-4.37.42-1.79.58-3.63.49-5.47.05-.99-.07-1.99-.35-2.95-.72-1.6-1.86-2.97-3.31-3.96-3.55-2.9-7.95-6.32-12.7-4.77-3.77,1.22-8.78,3.98-9.85,8.1h0Z"/>
    <path id="Path_514" data-name="Path 514" class="cls-3" d="m59.98,40.77c-1.05.8-1.46,2.19-1,3.43.06.19.18.36.34.49.16.09.34.14.52.15.76.15,1.54.12,2.28-.1.75-.24,1.27-.93,1.27-1.73,0-.11-.04-.22-.1-.31-.12-.13-.28-.22-.44-.28-.49-.33-.92-.73-1.27-1.2-.38-.47-1.03-.63-1.58-.38"/>
    <path id="Path_515" data-name="Path 515" class="cls-3" d="m66.43,37.66c-.91.69-1.27,1.9-.87,2.98.05.17.16.32.3.43.14.08.29.12.45.13.66.12,1.34.09,1.99-.09.66-.2,1.11-.81,1.11-1.5,0-.1-.03-.19-.09-.27-.11-.11-.24-.19-.39-.24-.46-.22-.74-.69-1.11-1.05-.33-.41-.89-.55-1.37-.34"/>
    <path id="Path_516" data-name="Path 516" class="cls-3" d="m64.22,47.02c-.7-.4-1.58-.3-2.18.24-.09.08-.16.19-.2.31-.01.11,0,.23.04.33.1.46.3.9.6,1.27.31.37.83.5,1.28.31.06-.03.11-.07.15-.13.04-.1.06-.21.05-.32.07-.35.2-.69.38-1,.18-.33.11-.73-.16-.99"/>
    <path id="Path_517" data-name="Path 517" class="cls-3" d="m75.85,46.88c-.69.52-.96,1.43-.66,2.25.04.13.12.24.23.32.1.06.22.1.34.1.5.1,1.01.07,1.5-.07.49-.16.83-.61.84-1.13,0-.07-.02-.14-.06-.2-.08-.08-.19-.15-.3-.18-.32-.22-.6-.48-.84-.79-.25-.31-.67-.42-1.04-.25"/>
    <path id="Path_518" data-name="Path 518" class="cls-3" d="m69.57,42.82c-1.05.8-1.46,2.19-1,3.43.06.19.18.36.34.49.16.09.34.14.52.15.76.15,1.54.12,2.28-.1.75-.24,1.27-.93,1.27-1.73,0-.11-.04-.22-.1-.31-.12-.13-.28-.22-.44-.28-.49-.33-.92-.73-1.27-1.2-.38-.48-1.03-.63-1.58-.38"/>
    <path id="Path_519" data-name="Path 519" class="cls-3" d="m76.06,41.67c-.69.52-.96,1.43-.66,2.25.04.13.12.24.23.32.1.06.22.1.34.1.5.1,1.01.07,1.5-.07.49-.16.83-.61.84-1.13,0-.07-.02-.14-.06-.2-.08-.08-.19-.15-.3-.18-.32-.22-.6-.48-.84-.79-.25-.31-.67-.42-1.04-.25"/>
    <path id="Path_520" data-name="Path 520" class="cls-3" d="m68.42,48.75c-.91.69-1.27,1.9-.87,2.98.05.17.16.32.3.43.14.08.29.12.45.13.66.12,1.34.09,1.99-.09.66-.2,1.1-.81,1.11-1.5,0-.1-.03-.19-.09-.27-.11-.11-.24-.19-.39-.24-.46-.22-.74-.69-1.11-1.05-.33-.41-.89-.55-1.37-.34"/>
    <path id="Path_521" data-name="Path 521" class="cls-2" d="m57.99,26.93c-.5,2.4-.06,4.9,1.23,6.98,1.29,2.05,2.83,3.93,4.6,5.59.65.76,1.46,1.38,2.36,1.81.73.24,1.5.36,2.27.35,2.79.09,5.58-.02,8.36-.33,1.32-.07,2.61-.41,3.8-.99,1.57-.99,2.69-2.56,3.12-4.37.42-1.79.58-3.63.49-5.47.05-.99-.07-1.99-.35-2.95-.72-1.6-1.86-2.97-3.31-3.96-3.55-2.9-7.95-6.32-12.7-4.77-3.77,1.22-8.79,3.98-9.86,8.1Z"/>
    <path id="Path_522" data-name="Path 522" class="cls-3" d="m62.59,25.54c-1.05.8-1.46,2.19-1,3.43.06.19.18.36.34.49.16.09.34.14.52.15.76.15,1.54.12,2.28-.1.75-.24,1.27-.93,1.27-1.73,0-.11-.04-.22-.1-.31-.12-.13-.28-.22-.44-.28-.49-.33-.92-.73-1.27-1.2-.38-.48-1.03-.63-1.58-.38"/>
    <path id="Path_523" data-name="Path 523" class="cls-3" d="m69.04,22.39c-.91.69-1.27,1.9-.87,2.98.05.17.16.32.3.43.14.08.29.12.45.13.66.12,1.34.09,1.99-.09.66-.2,1.11-.81,1.11-1.5,0-.1-.03-.19-.09-.27-.11-.11-.24-.19-.39-.24-.46-.22-.74-.69-1.11-1.05-.33-.41-.89-.55-1.37-.34"/>
    <path id="Path_524" data-name="Path 524" class="cls-3" d="m66.83,31.7c-.7-.4-1.58-.3-2.18.24-.09.08-.16.19-.2.31-.01.11,0,.23.04.33.1.46.3.9.6,1.27.31.37.83.5,1.28.31.06-.03.11-.07.15-.13.04-.1.06-.21.05-.32.07-.35.2-.69.38-1,.18-.33.11-.73-.16-.99"/>
    <path id="Path_525" data-name="Path 525" class="cls-3" d="m78.46,31.55c-.69.52-.96,1.43-.66,2.25.04.13.12.24.23.32.1.06.22.1.34.1.5.1,1.01.07,1.5-.07.49-.16.83-.61.84-1.13,0-.07-.02-.14-.06-.2-.08-.08-.19-.15-.3-.18-.32-.22-.6-.48-.84-.79-.25-.31-.67-.42-1.04-.25"/>
    <path id="Path_526" data-name="Path 526" class="cls-3" d="m72.19,27.59c-1.05.8-1.46,2.19-1,3.43.06.19.18.36.34.49.16.09.34.14.52.15.76.15,1.54.12,2.28-.1.75-.24,1.27-.93,1.27-1.73,0-.11-.04-.22-.1-.31-.12-.13-.28-.22-.44-.28-.49-.33-.92-.73-1.27-1.2-.38-.48-1.03-.63-1.58-.38"/>
    <path id="Path_527" data-name="Path 527" class="cls-3" d="m78.67,26.35c-.69.52-.96,1.43-.66,2.25.04.13.12.24.23.32.1.06.22.1.34.1.5.1,1.01.07,1.5-.07.49-.16.83-.61.84-1.13,0-.07-.02-.14-.06-.2-.08-.08-.19-.15-.3-.18-.32-.22-.6-.48-.84-.79-.25-.31-.67-.42-1.04-.25"/>
    <path id="Path_528" data-name="Path 528" class="cls-3" d="m71.04,33.49c-.91.69-1.27,1.9-.87,2.98.05.17.16.32.3.43.14.08.29.12.45.13.66.12,1.34.09,1.99-.09.66-.2,1.1-.81,1.11-1.5,0-.1-.03-.19-.09-.27-.11-.11-.24-.19-.39-.24-.46-.22-.74-.69-1.11-1.05-.33-.41-.89-.55-1.37-.34"/>
    <path id="Path_529" data-name="Path 529" class="cls-2" d="m50.15,18.47c-.5,2.4-.06,4.9,1.23,6.98,1.29,2.05,2.83,3.93,4.6,5.59.65.76,1.46,1.38,2.36,1.81.73.24,1.5.36,2.26.35,2.79.09,5.58-.02,8.36-.33,1.32-.07,2.61-.41,3.8-.99,1.57-.99,2.69-2.56,3.12-4.37.42-1.79.58-3.63.49-5.47.05-.99-.07-1.99-.35-2.95-.72-1.6-1.86-2.97-3.31-3.96-3.55-2.9-7.96-6.32-12.7-4.77-3.77,1.22-8.79,3.98-9.86,8.1Z"/>
    <path id="Path_530" data-name="Path 530" class="cls-3" d="m54.75,12.21c-1.05.8-1.46,2.19-1,3.43.06.19.18.36.34.49.16.09.34.14.52.15.76.15,1.54.12,2.28-.1.75-.24,1.27-.93,1.27-1.73,0-.11-.04-.22-.1-.31-.12-.13-.28-.22-.44-.28-.49-.33-.92-.73-1.27-1.2-.38-.47-1.03-.63-1.58-.38"/>
    <path id="Path_531" data-name="Path 531" class="cls-3" d="m61.2,12.36c-.91.69-1.27,1.9-.87,2.98.05.17.16.32.3.43.14.08.29.12.45.13.66.12,1.34.09,1.99-.09.66-.2,1.1-.81,1.11-1.5,0-.1-.03-.19-.09-.27-.11-.11-.24-.19-.39-.24-.46-.22-.74-.69-1.11-1.05-.33-.41-.89-.55-1.37-.34"/>
    <path id="Path_532" data-name="Path 532" class="cls-3" d="m58.99,18.29c-.7-.4-1.58-.3-2.18.24-.09.08-.16.19-.2.31-.01.11,0,.23.04.33.1.46.3.9.6,1.27.31.37.83.5,1.28.31.06-.03.11-.07.15-.13.04-.1.06-.21.05-.32.07-.35.2-.69.38-1,.18-.33.11-.73-.16-.99"/>
    <path id="Path_533" data-name="Path 533" class="cls-3" d="m70.62,18.15c-.69.52-.96,1.43-.66,2.25.04.13.12.24.23.32.1.06.22.1.34.1.5.1,1.01.07,1.5-.07.49-.16.83-.61.84-1.13,0-.07-.02-.14-.06-.2-.08-.08-.19-.15-.3-.18-.32-.22-.6-.48-.84-.79-.25-.31-.67-.42-1.04-.25"/>
    <path id="Path_534" data-name="Path 534" class="cls-3" d="m64.35,14.26c-1.05.8-1.46,2.19-1,3.43.06.19.18.36.34.49.16.09.34.14.52.15.76.15,1.54.12,2.28-.1.75-.24,1.27-.93,1.27-1.73,0-.11-.04-.22-.1-.31-.12-.13-.28-.22-.44-.28-.49-.33-.92-.73-1.27-1.2-.38-.48-1.03-.63-1.58-.38"/>
    <path id="Path_535" data-name="Path 535" class="cls-3" d="m70.83,12.94c-.69.52-.96,1.43-.66,2.25.04.13.12.24.23.32.1.06.22.1.34.1.5.1,1.01.07,1.5-.07.49-.16.83-.61.84-1.13,0-.07-.02-.14-.06-.2-.08-.08-.19-.15-.3-.18-.32-.22-.6-.48-.84-.79-.25-.31-.67-.42-1.04-.25"/>
    <path id="Path_536" data-name="Path 536" class="cls-3" d="m63.2,20.13c-.91.69-1.27,1.9-.87,2.98.05.17.16.32.3.43.14.08.29.12.45.13.66.12,1.34.09,1.99-.09.66-.2,1.1-.81,1.11-1.5,0-.1-.03-.19-.09-.27-.11-.11-.24-.19-.39-.24-.46-.22-.74-.69-1.11-1.05-.33-.41-.89-.55-1.37-.34"/>
    <path id="Path_537" data-name="Path 537" class="cls-2" d="m34.47,16.73c-.5,2.4-.06,4.9,1.23,6.98,1.29,2.05,2.83,3.93,4.6,5.59.65.76,1.46,1.38,2.36,1.81.73.24,1.5.36,2.26.35,2.79.09,5.58-.02,8.36-.33,1.32-.07,2.61-.41,3.8-.99,1.57-.99,2.69-2.56,3.12-4.37.42-1.79.58-3.63.49-5.47.05-.99-.07-1.99-.35-2.95-.72-1.6-1.86-2.97-3.31-3.96-3.55-2.9-7.96-6.32-12.7-4.77-3.77,1.22-8.79,3.98-9.86,8.1Z"/>
    <path id="Path_538" data-name="Path 538" class="cls-3" d="m39.07,10.94c-1.05.8-1.46,2.19-1,3.43.06.19.18.36.34.49.16.09.34.14.52.15.76.15,1.54.12,2.28-.1.75-.24,1.27-.93,1.27-1.73,0-.11-.04-.22-.1-.31-.12-.13-.28-.22-.44-.28-.49-.33-.92-.73-1.27-1.2-.38-.48-1.03-.63-1.58-.38"/>
    <path id="Path_539" data-name="Path 539" class="cls-3" d="m45.52,10.62c-.91.69-1.27,1.9-.87,2.98.05.17.16.32.3.43.14.08.29.12.45.13.66.12,1.34.09,1.99-.09.66-.2,1.1-.81,1.11-1.5,0-.1-.03-.19-.09-.27-.11-.11-.24-.19-.39-.24-.46-.22-.74-.69-1.11-1.05-.33-.41-.89-.55-1.37-.34"/>
    <path id="Path_540" data-name="Path 540" class="cls-3" d="m43.3,17.01c-.7-.4-1.58-.3-2.18.24-.09.08-.16.19-.2.31-.01.11,0,.23.04.33.1.46.3.9.6,1.27.31.37.83.5,1.28.31.06-.03.11-.07.15-.13.04-.1.06-.21.05-.32.07-.35.2-.69.38-1,.18-.33.11-.73-.16-.99"/>
    <path id="Path_541" data-name="Path 541" class="cls-3" d="m54.94,16.87c-.69.52-.96,1.43-.66,2.25.04.13.12.24.23.32.1.06.22.1.34.1.5.1,1.01.07,1.5-.07.49-.16.83-.61.84-1.13,0-.07-.02-.14-.06-.2-.08-.08-.19-.15-.3-.18-.32-.22-.6-.48-.84-.79-.25-.31-.67-.42-1.04-.25"/>
    <path id="Path_542" data-name="Path 542" class="cls-3" d="m48.66,12.99c-1.05.8-1.46,2.19-1,3.43.06.19.18.36.34.49.16.09.34.14.52.15.76.15,1.54.12,2.28-.1.75-.24,1.27-.93,1.27-1.73,0-.11-.04-.22-.1-.31-.12-.13-.28-.22-.44-.28-.49-.33-.92-.73-1.27-1.2-.38-.48-1.03-.63-1.58-.38"/>
    <path id="Path_543" data-name="Path 543" class="cls-3" d="m55.14,11.66c-.69.52-.96,1.43-.66,2.25.04.13.12.24.23.32.1.06.22.1.34.1.5.1,1.01.07,1.5-.07.49-.16.83-.61.84-1.13,0-.07-.02-.14-.06-.2-.08-.08-.19-.15-.3-.18-.32-.22-.6-.48-.84-.79-.25-.31-.67-.42-1.04-.25"/>
    <path id="Path_544" data-name="Path 544" class="cls-3" d="m47.51,18.85c-.91.69-1.27,1.9-.87,2.98.05.17.16.32.3.43.14.08.29.12.45.13.66.12,1.34.09,1.99-.09.66-.2,1.1-.81,1.11-1.5,0-.1-.03-.19-.09-.27-.11-.11-.24-.19-.39-.24-.46-.22-.74-.69-1.11-1.05-.33-.41-.89-.55-1.37-.34"/>
    <path id="Path_545" data-name="Path 545" class="cls-2" d="m27.03,48.58c.89,2.28,2.62,4.14,4.85,5.18,2.2,1.02,4.52,1.75,6.91,2.17.96.29,1.98.36,2.97.23.74-.2,1.45-.52,2.08-.95,2.38-1.46,4.66-3.07,6.81-4.85,1.07-.78,1.96-1.77,2.64-2.91.78-1.69.86-3.62.23-5.37-.63-1.73-1.5-3.36-2.58-4.85-.51-.86-1.15-1.62-1.9-2.27-1.48-.95-3.19-1.47-4.94-1.5-4.57-.49-10.12-.94-13.25,2.95-2.49,3.08-5.18,8.13-3.82,12.18h0Z"/>
    <path id="Path_546" data-name="Path 546" class="cls-3" d="m29.94,45.46c-.44,1.25-.02,2.63,1.04,3.42.16.13.35.21.56.23.18-.01.36-.07.52-.16.71-.29,1.35-.75,1.86-1.33.5-.61.55-1.48.12-2.14-.07-.09-.15-.16-.25-.21-.17-.03-.35-.03-.52.02-.59,0-1.17-.11-1.72-.31-.57-.19-1.2.03-1.53.54"/>
    <path id="Path_547" data-name="Path 547" class="cls-3" d="m32.94,40.29c-.38,1.08-.01,2.28.9,2.97.14.11.3.18.48.19.16-.01.31-.06.45-.14.62-.26,1.17-.65,1.61-1.16.44-.53.48-1.29.1-1.87-.05-.08-.13-.14-.22-.17-.15-.03-.31-.02-.45.02-.51,0-1.02-.1-1.5-.27-.5-.17-1.05.03-1.33.47"/>
    <path id="Path_548" data-name="Path 548" class="cls-3" d="m37.94,48.87c-.81.05-1.49.61-1.69,1.4-.03.12-.03.25,0,.37.05.1.13.19.22.25.34.34.75.59,1.2.73.47.14.97-.04,1.25-.44.04-.06.06-.12.05-.19-.02-.11-.06-.21-.13-.3-.14-.33-.21-.69-.24-1.05-.07-.35-.3-.74-.67-.74"/>
    <path id="Path_549" data-name="Path 549" class="cls-3" d="m47.6,44.24c-.29.82-.01,1.73.68,2.25.1.09.23.14.37.15.12,0,.24-.04.34-.1.47-.19.89-.5,1.22-.88.33-.4.36-.97.08-1.41-.04-.06-.1-.11-.17-.13-.12-.02-.23-.02-.35,0-.39,0-.77-.08-1.13-.21-.37-.12-.78.02-1,.35"/>
    <path id="Path_550" data-name="Path 550" class="cls-3" d="m39.5,43.35c-.44,1.25-.02,2.63,1.04,3.42.16.13.35.21.56.23.18-.01.36-.07.52-.16.71-.29,1.35-.75,1.86-1.33.5-.61.55-1.48.12-2.14-.07-.09-.15-.16-.25-.21-.17-.03-.35-.03-.52.02-.59,0-1.17-.11-1.72-.31-.57-.19-1.2.03-1.53.54"/>
    <path id="Path_551" data-name="Path 551" class="cls-3" d="m43.9,39.79c-.29.82-.01,1.73.68,2.25.1.09.23.14.37.15.12,0,.24-.04.34-.1.47-.19.89-.5,1.22-.88.33-.4.36-.97.08-1.41-.04-.06-.1-.11-.17-.13-.12-.02-.23-.02-.35,0-.39,0-.77-.08-1.13-.21-.37-.12-.78.02-1,.35"/>
    <path id="Path_552" data-name="Path 552" class="cls-3" d="m42.92,48.77c-.38,1.08-.01,2.28.9,2.97.14.11.3.18.48.19.16-.01.31-.06.45-.14.62-.26,1.17-.65,1.61-1.16.44-.53.48-1.29.1-1.87-.05-.08-.13-.14-.22-.17-.15-.03-.31-.02-.45.02-.51,0-1.02-.1-1.5-.27-.5-.17-1.05.03-1.33.47"/>
    <path id="Path_553" data-name="Path 553" class="cls-2" d="m17.04,32.62c-.5,2.4-.06,4.9,1.23,6.98,1.29,2.05,2.83,3.93,4.6,5.59.65.76,1.46,1.38,2.36,1.81.73.24,1.5.36,2.26.35,2.79.09,5.58-.02,8.36-.33,1.32-.07,2.61-.41,3.8-.99,1.57-.99,2.69-2.56,3.12-4.37.42-1.79.58-3.63.49-5.47.05-.99-.07-1.99-.35-2.95-.72-1.6-1.86-2.97-3.31-3.96-3.55-2.9-7.96-6.32-12.7-4.77-3.77,1.22-8.78,3.98-9.85,8.1h0Z"/>
    <path id="Path_554" data-name="Path 554" class="cls-3" d="m21.64,31.88c-1.05.8-1.46,2.19-1,3.43.06.19.18.36.34.49.16.09.34.14.52.15.76.15,1.54.12,2.28-.1.75-.24,1.27-.93,1.27-1.73,0-.11-.04-.22-.1-.31-.12-.13-.28-.22-.44-.28-.49-.33-.92-.73-1.27-1.2-.38-.47-1.03-.63-1.58-.38"/>
    <path id="Path_555" data-name="Path 555" class="cls-3" d="m28.09,28.75c-.91.69-1.27,1.9-.87,2.98.05.17.16.32.3.43.14.08.29.12.45.13.66.12,1.34.09,1.99-.09.66-.2,1.11-.81,1.11-1.5,0-.1-.03-.19-.09-.27-.11-.11-.24-.19-.39-.24-.46-.22-.74-.69-1.11-1.05-.33-.41-.89-.55-1.37-.34"/>
    <path id="Path_556" data-name="Path 556" class="cls-3" d="m25.88,38.08c-.7-.4-1.58-.3-2.18.24-.09.08-.16.19-.2.31-.01.11,0,.23.04.33.1.46.3.9.6,1.27.31.37.83.5,1.28.31.06-.03.11-.07.15-.13.04-.1.06-.21.05-.32.07-.35.2-.69.38-1,.18-.33.11-.73-.16-.99"/>
    <path id="Path_557" data-name="Path 557" class="cls-3" d="m37.51,37.94c-.69.52-.96,1.43-.66,2.25.04.13.12.24.23.32.1.06.22.1.34.1.5.1,1.01.07,1.5-.07.49-.16.83-.61.84-1.13,0-.07-.02-.14-.06-.2-.08-.08-.19-.15-.3-.18-.32-.22-.6-.48-.84-.79-.25-.31-.67-.42-1.04-.25"/>
    <path id="Path_558" data-name="Path 558" class="cls-3" d="m31.24,33.93c-1.05.8-1.46,2.19-1,3.43.06.19.18.36.34.49.16.09.34.14.52.15.76.15,1.54.12,2.28-.1.75-.24,1.27-.93,1.27-1.73,0-.11-.04-.22-.1-.31-.12-.13-.28-.22-.44-.28-.49-.33-.92-.73-1.27-1.2-.38-.47-1.03-.63-1.58-.38"/>
    <path id="Path_559" data-name="Path 559" class="cls-3" d="m37.72,32.73c-.69.52-.96,1.43-.66,2.25.04.13.12.24.23.32.1.06.22.1.34.1.5.1,1.01.07,1.5-.07.49-.16.83-.61.84-1.13,0-.07-.02-.14-.06-.2-.08-.08-.19-.15-.3-.18-.32-.22-.6-.48-.84-.79-.25-.31-.67-.42-1.04-.25"/>
    <path id="Path_560" data-name="Path 560" class="cls-3" d="m30.09,39.85c-.91.69-1.27,1.9-.87,2.98.05.17.16.32.3.43.14.08.29.12.45.13.66.12,1.34.09,1.99-.09.66-.2,1.11-.81,1.11-1.5,0-.1-.03-.19-.09-.27-.11-.11-.24-.19-.39-.24-.46-.22-.74-.69-1.11-1.05-.33-.41-.89-.55-1.37-.34"/>
    <path id="Path_561" data-name="Path 561" class="cls-2" d="m23.14,20.68c-.5,2.4-.06,4.9,1.23,6.98,1.29,2.05,2.83,3.93,4.6,5.59.65.76,1.46,1.38,2.36,1.81.73.24,1.5.36,2.26.35,2.79.09,5.58-.02,8.36-.33,1.32-.07,2.61-.41,3.8-.99,1.57-.99,2.69-2.56,3.12-4.37.42-1.79.58-3.63.49-5.47.05-.99-.07-1.99-.35-2.95-.72-1.6-1.86-2.97-3.31-3.96-3.55-2.9-7.96-6.32-12.7-4.77-3.77,1.22-8.78,3.98-9.85,8.1h0Z"/>
    <path id="Path_562" data-name="Path 562" class="cls-3" d="m27.74,18.56c-1.05.8-1.46,2.19-1,3.43.06.19.18.36.34.49.16.09.34.14.52.15.76.15,1.54.12,2.28-.1.75-.24,1.27-.93,1.27-1.73,0-.11-.04-.22-.1-.31-.12-.13-.28-.22-.44-.28-.49-.33-.92-.73-1.27-1.2-.38-.48-1.03-.63-1.58-.38"/>
    <path id="Path_563" data-name="Path 563" class="cls-3" d="m34.19,15.39c-.91.69-1.27,1.9-.87,2.98.05.17.16.32.3.43.14.08.29.12.45.13.66.12,1.34.09,1.99-.09.66-.2,1.1-.81,1.11-1.5,0-.1-.03-.19-.09-.27-.11-.11-.24-.19-.39-.24-.46-.22-.74-.69-1.11-1.05-.33-.41-.89-.55-1.37-.34"/>
    <path id="Path_564" data-name="Path 564" class="cls-3" d="m31.98,24.67c-.7-.4-1.58-.3-2.18.24-.09.08-.16.19-.2.31-.01.11,0,.23.04.33.1.46.3.9.6,1.27.31.37.83.5,1.28.31.06-.03.11-.07.15-.13.04-.1.06-.21.05-.32.07-.35.2-.69.38-1,.18-.33.11-.73-.16-.99"/>
    <path id="Path_565" data-name="Path 565" class="cls-3" d="m43.61,24.53c-.69.52-.96,1.43-.66,2.25.04.13.12.24.23.32.1.06.22.1.34.1.5.1,1.01.07,1.5-.07.49-.16.83-.61.84-1.13,0-.07-.02-.14-.06-.2-.08-.08-.19-.15-.3-.18-.32-.22-.6-.48-.84-.79-.25-.31-.67-.42-1.04-.25"/>
    <path id="Path_566" data-name="Path 566" class="cls-3" d="m37.33,20.61c-1.05.8-1.46,2.19-1,3.43.06.19.18.36.34.49.16.09.34.14.52.15.76.15,1.54.12,2.28-.1.75-.24,1.27-.93,1.27-1.73,0-.11-.04-.22-.1-.31-.12-.13-.28-.22-.44-.28-.49-.33-.92-.73-1.27-1.2-.38-.48-1.03-.63-1.58-.38"/>
    <path id="Path_567" data-name="Path 567" class="cls-3" d="m43.82,19.33c-.69.52-.96,1.43-.66,2.25.04.13.12.24.23.32.1.06.22.1.34.1.5.1,1.01.07,1.5-.07.49-.16.83-.61.84-1.13,0-.07-.02-.14-.06-.2-.08-.08-.19-.15-.3-.18-.32-.22-.6-.48-.84-.79-.25-.31-.67-.42-1.04-.25"/>
    <path id="Path_568" data-name="Path 568" class="cls-3" d="m36.18,26.49c-.91.69-1.27,1.9-.87,2.98.05.17.16.32.3.43.14.08.29.12.45.13.66.12,1.34.09,1.99-.09.66-.2,1.1-.81,1.11-1.5,0-.1-.03-.19-.09-.27-.11-.11-.24-.19-.39-.24-.46-.22-.74-.69-1.11-1.05-.33-.41-.89-.55-1.37-.34"/>
    <path id="Path_569" data-name="Path 569" class="cls-2" d="m43.18,21.82c-.5,2.4-.06,4.9,1.23,6.98,1.29,2.05,2.83,3.93,4.6,5.59.65.76,1.46,1.38,2.36,1.81.73.24,1.5.36,2.26.35,2.79.09,5.58-.02,8.36-.33,1.32-.07,2.61-.41,3.8-.99,1.57-.99,2.69-2.56,3.12-4.37.42-1.79.58-3.63.49-5.47.05-.99-.07-1.99-.35-2.95-.72-1.6-1.86-2.97-3.31-3.96-3.55-2.9-7.96-6.32-12.7-4.77-3.77,1.22-8.79,3.98-9.86,8.1Z"/>
    <path id="Path_570" data-name="Path 570" class="cls-3" d="m47.78,19.82c-1.05.8-1.46,2.19-1,3.43.06.19.18.36.34.49.16.09.34.14.52.15.76.15,1.54.12,2.28-.1.75-.24,1.27-.93,1.27-1.73,0-.11-.04-.22-.1-.31-.12-.13-.28-.22-.44-.28-.49-.33-.92-.73-1.27-1.2-.38-.48-1.03-.63-1.58-.38"/>
    <path id="Path_571" data-name="Path 571" class="cls-3" d="m54.23,16.67c-.91.69-1.27,1.9-.87,2.98.05.17.16.32.3.43.14.08.29.12.45.13.66.12,1.34.09,1.99-.09.66-.2,1.1-.81,1.11-1.5,0-.1-.03-.19-.09-.27-.11-.11-.24-.19-.39-.24-.46-.22-.74-.69-1.11-1.05-.33-.41-.89-.55-1.37-.34"/>
    <path id="Path_572" data-name="Path 572" class="cls-3" d="m52.02,25.95c-.7-.4-1.58-.3-2.18.24-.09.08-.16.19-.2.31-.01.11,0,.23.04.33.1.46.3.9.6,1.27.31.37.83.5,1.28.31.06-.03.11-.07.15-.13.04-.1.06-.21.05-.32.07-.35.2-.69.38-1,.18-.33.11-.73-.16-.99"/>
    <path id="Path_573" data-name="Path 573" class="cls-3" d="m63.65,25.81c-.69.52-.96,1.43-.66,2.25.04.13.12.24.23.32.1.06.22.1.34.1.5.1,1.01.07,1.5-.07.49-.16.83-.61.84-1.13,0-.07-.02-.14-.06-.2-.08-.08-.19-.15-.3-.18-.32-.22-.6-.48-.84-.79-.25-.31-.67-.42-1.04-.25"/>
    <path id="Path_574" data-name="Path 574" class="cls-3" d="m57.38,21.88c-1.05.8-1.46,2.19-1,3.43.06.19.18.36.34.49.16.09.34.14.52.15.76.15,1.54.12,2.28-.1.75-.24,1.27-.93,1.27-1.73,0-.11-.04-.22-.1-.31-.12-.13-.28-.22-.44-.28-.49-.33-.92-.73-1.27-1.2-.38-.47-1.03-.63-1.58-.38"/>
    <path id="Path_575" data-name="Path 575" class="cls-3" d="m63.86,20.6c-.69.52-.96,1.43-.66,2.25.04.13.12.24.23.32.1.06.22.1.34.1.5.1,1.01.07,1.5-.07.49-.16.83-.61.84-1.13,0-.07-.02-.14-.06-.2-.08-.08-.19-.15-.3-.18-.32-.22-.6-.48-.84-.79-.25-.31-.67-.42-1.04-.25"/>
    <path id="Path_576" data-name="Path 576" class="cls-3" d="m56.23,27.76c-.91.69-1.27,1.9-.87,2.98.05.17.16.32.3.43.14.08.29.12.45.13.66.12,1.34.09,1.99-.09.66-.2,1.1-.81,1.11-1.5,0-.1-.03-.19-.09-.27-.11-.11-.24-.19-.39-.24-.46-.22-.74-.69-1.11-1.05-.33-.41-.89-.55-1.37-.34"/>
    <path id="Path_577" data-name="Path 577" class="cls-2" d="m45.8,34.33c-.5,2.4-.06,4.9,1.23,6.98,1.29,2.05,2.83,3.93,4.6,5.59.65.76,1.46,1.38,2.36,1.81.73.24,1.5.36,2.26.35,2.79.09,5.58-.02,8.36-.33,1.32-.07,2.61-.41,3.8-.99,1.57-.99,2.69-2.56,3.12-4.37.42-1.79.58-3.63.49-5.47.05-.99-.07-1.99-.35-2.95-.72-1.6-1.86-2.97-3.31-3.96-3.55-2.9-7.96-6.32-12.7-4.77-3.77,1.22-8.79,3.98-9.86,8.1Z"/>
    <path id="Path_578" data-name="Path 578" class="cls-3" d="m50.4,33.79c-1.05.8-1.46,2.19-1,3.43.06.19.18.36.34.49.16.09.34.14.52.15.76.15,1.54.12,2.28-.1.75-.24,1.27-.93,1.27-1.73,0-.11-.04-.22-.1-.31-.12-.13-.28-.22-.44-.28-.49-.33-.92-.73-1.27-1.2-.38-.48-1.03-.63-1.58-.38"/>
    <path id="Path_579" data-name="Path 579" class="cls-3" d="m56.84,30.66c-.91.69-1.27,1.9-.87,2.98.05.17.16.32.3.43.14.08.29.12.45.13.66.12,1.34.09,1.99-.09.66-.2,1.1-.81,1.11-1.5,0-.1-.03-.19-.09-.27-.11-.11-.24-.19-.39-.24-.46-.22-.74-.69-1.11-1.05-.33-.41-.89-.55-1.37-.34"/>
    <path id="Path_580" data-name="Path 580" class="cls-3" d="m54.63,39.99c-.7-.4-1.58-.3-2.18.24-.09.08-.16.19-.2.31-.01.11,0,.23.04.33.1.46.3.9.6,1.27.31.37.83.5,1.28.31.06-.03.11-.07.15-.13.04-.1.06-.21.05-.32.07-.35.2-.69.38-1,.18-.33.11-.73-.16-.99"/>
    <path id="Path_581" data-name="Path 581" class="cls-3" d="m66.26,39.85c-.69.52-.96,1.43-.66,2.25.04.13.12.24.23.32.1.06.22.1.34.1.5.1,1.01.07,1.5-.07.49-.16.83-.61.84-1.13,0-.07-.02-.14-.06-.2-.08-.08-.19-.15-.3-.18-.32-.22-.6-.48-.84-.79-.25-.31-.67-.42-1.04-.25"/>
    <path id="Path_582" data-name="Path 582" class="cls-3" d="m59.99,35.84c-1.05.8-1.46,2.19-1,3.43.06.19.18.36.34.49.16.09.34.14.52.15.76.15,1.54.12,2.28-.1.75-.24,1.27-.93,1.27-1.73,0-.11-.04-.22-.1-.31-.12-.13-.28-.22-.44-.28-.49-.33-.92-.73-1.27-1.2-.38-.48-1.03-.63-1.58-.38"/>
    <path id="Path_583" data-name="Path 583" class="cls-3" d="m66.47,34.65c-.69.52-.96,1.43-.66,2.25.04.13.12.24.23.32.1.06.22.1.34.1.5.1,1.01.07,1.5-.07.49-.16.83-.61.84-1.13,0-.07-.02-.14-.06-.2-.08-.08-.19-.15-.3-.18-.32-.22-.6-.48-.84-.79-.25-.31-.67-.42-1.04-.25"/>
    <path id="Path_584" data-name="Path 584" class="cls-3" d="m58.84,41.76c-.91.69-1.27,1.9-.87,2.98.05.17.16.32.3.43.14.08.29.12.45.13.66.12,1.34.09,1.99-.09.66-.2,1.1-.81,1.11-1.5,0-.1-.03-.19-.09-.27-.11-.11-.24-.19-.39-.24-.46-.22-.74-.69-1.11-1.05-.33-.41-.89-.55-1.37-.34"/>
    <path id="Path_585" data-name="Path 585" class="cls-2" d="m34.74,23.3c-1.55,1.9-2.3,4.33-2.11,6.77.2,2.42.72,4.8,1.52,7.08.23.98.66,1.89,1.26,2.69.54.55,1.16,1.01,1.86,1.34,2.44,1.36,4.97,2.54,7.58,3.54,1.21.54,2.51.83,3.83.85,1.85-.16,3.56-1.04,4.77-2.45,1.19-1.4,2.18-2.96,2.95-4.63,1.53-2.39,1.5-5.46-.09-7.82-1.83-4.21-4.17-9.26-9.1-10.07-3.91-.65-9.63-.49-12.48,2.68h0Z"/>
    <path id="Path_586" data-name="Path 586" class="cls-3" d="m39.62,25.61c-1.3.23-2.3,1.28-2.47,2.59-.03.2,0,.41.08.59.1.15.24.28.4.38.61.48,1.32.81,2.08.96.78.14,1.56-.25,1.93-.95.05-.1.07-.21.05-.32-.05-.17-.15-.32-.27-.45-.29-.51-.48-1.07-.57-1.65-.17-.56-.64-1.13-1.22-1.06"/>
    <path id="Path_587" data-name="Path 587" class="cls-3" d="m47.36,24.99c-1.13.2-2,1.11-2.14,2.25-.03.17,0,.35.07.51.09.13.21.25.35.32.53.42,1.14.7,1.8.83.68.11,1.35-.22,1.67-.83.04-.09.06-.18.04-.28-.05-.15-.13-.28-.24-.39-.25-.45-.42-.93-.51-1.44-.16-.49-.56-.99-1.06-.92"/>
    <path id="Path_588" data-name="Path 588" class="cls-3" d="m39.65,32.75c-.44-.68-1.27-1-2.06-.78-.12.03-.23.09-.31.18-.06.09-.1.2-.11.31-.13.46-.14.94-.04,1.4.11.47.51.82.99.86.07,0,.13-.01.19-.04.09-.07.15-.16.19-.26.22-.28.49-.53.79-.72.27-.24.49-.64.31-.94"/>
    <path id="Path_589" data-name="Path 589" class="cls-3" d="m50.05,36.32c-.85.15-1.51.84-1.62,1.7-.02.13,0,.27.05.39.07.1.16.18.26.24.4.32.87.53,1.37.63.51.09,1.02-.16,1.26-.63.03-.07.04-.14.04-.21-.03-.11-.1-.22-.18-.3-.19-.34-.32-.7-.38-1.08-.12-.37-.42-.75-.8-.7"/>
    <path id="Path_590" data-name="Path 590" class="cls-3" d="m46.85,30.63c-1.3.23-2.3,1.28-2.47,2.59-.03.2,0,.41.08.59.1.15.24.28.4.38.61.48,1.32.81,2.08.96.78.14,1.56-.25,1.93-.95.05-.1.07-.21.05-.32-.05-.17-.15-.32-.27-.45-.29-.51-.48-1.07-.57-1.65-.17-.56-.64-1.13-1.22-1.06"/>
    <path id="Path_591" data-name="Path 591" class="cls-3" d="m53.49,31.77c-.85.15-1.51.84-1.62,1.7-.02.13,0,.27.05.39.07.1.16.18.26.24.4.32.87.53,1.37.63.51.09,1.02-.16,1.26-.63.03-.07.04-.14.04-.21-.03-.11-.1-.22-.18-.3-.19-.34-.32-.7-.38-1.08-.12-.37-.42-.75-.8-.7"/>
    <path id="Path_592" data-name="Path 592" class="cls-3" d="m42.17,35.51c-1.13.2-2,1.11-2.14,2.25-.03.17,0,.35.07.51.09.13.21.25.35.32.53.42,1.14.7,1.8.83.68.11,1.35-.22,1.67-.83.04-.09.06-.18.04-.28-.05-.15-.13-.28-.24-.39-.25-.45-.42-.93-.51-1.44-.16-.49-.56-.99-1.06-.92"/>
  </g>
</svg>