<?xml version="1.0" encoding="UTF-8"?>
<svg id="Layer_2" data-name="Layer 2" xmlns="http://www.w3.org/2000/svg" viewBox="0 0 215.92 138.97">
  <defs>
    <style>
      .cls-1 {
        stroke-width: .5px;
      }

      .cls-1, .cls-2, .cls-3 {
        fill: none;
      }

      .cls-1, .cls-4, .cls-3 {
        stroke-miterlimit: 10;
      }

      .cls-1, .cls-3 {
        stroke: #63615a;
      }

      .cls-5, .cls-4 {
        fill: #fff;
      }

      .cls-6 {
        fill: #fcf4d4;
      }

      .cls-7 {
        fill: #c2eabd;
        opacity: .39;
      }

      .cls-4 {
        stroke: #a0977c;
        stroke-width: .25px;
      }

      .cls-8 {
        fill: #63615a;
      }
    </style>
  </defs>
  <g id="Layer_1-2" data-name="Layer 1">
    <g>
      <path class="cls-4" d="m154.06,47.72c-.19,14.12,4.88,30.65,7.65,44.71.97,4.93,4.91,17.66,2.2,22.57-3.13,5.68-12.25,4.89-17.96,5.69-7.84,1.09-14.86,6.79-23.17,5.27.27-13.41,3.1-26.25,3.16-40.27.05-12.2-.95-27.8,4.18-38.72,6.54-1.9,13.77-.57,20.07-2.44,2.41,2.46,2.73,5.94,3.87,3.2Z"/>
      <path class="cls-4" d="m154.37,50.08c-.19,14.12,4.88,30.65,7.65,44.71.97,4.93,4.91,17.66,2.2,22.57-3.13,5.68-12.25,4.89-17.96,5.69-7.84,1.09-14.86,6.79-23.17,5.27.27-13.41,3.1-26.25,3.16-40.27.05-12.2-.95-27.8,4.18-38.72,6.54-1.9,13.77-.57,20.07-2.44,2.41,2.46,2.73,5.94,3.87,3.2Z"/>
      <path class="cls-4" d="m150.37,52.06c-.19,14.12,4.88,30.65,7.65,44.71.97,4.93,4.91,17.66,2.2,22.57-3.13,5.68-12.25,4.89-17.96,5.69-7.84,1.09-14.86,6.79-23.17,5.27.27-13.41,3.1-26.25,3.16-40.27.05-12.2-.95-27.8,4.18-38.72,6.54-1.9,13.77-.57,20.07-2.44,2.41,2.46,2.73,5.94,3.87,3.2Z"/>
      <path class="cls-4" d="m145.37,52.04c-.19,14.12,4.88,30.65,7.65,44.71.97,4.93,4.91,17.66,2.2,22.57-3.13,5.68-12.25,4.89-17.96,5.69-7.84,1.09-14.86,6.79-23.17,5.27.27-13.41,3.1-26.25,3.16-40.27.05-12.2-.95-27.8,4.18-38.72,6.54-1.9,13.77-.57,20.07-2.44,2.41,2.46,2.73,5.94,3.87,3.2Z"/>
      <path class="cls-4" d="m142.36,54.03c-.19,14.12,4.88,30.65,7.65,44.71.97,4.93,4.91,17.66,2.2,22.57-3.13,5.68-12.25,4.89-17.96,5.69-7.84,1.09-14.86,6.79-23.17,5.27.27-13.41,3.1-26.25,3.16-40.27.05-12.2-.95-27.8,4.18-38.72,6.54-1.9,13.77-.57,20.07-2.44,2.41,2.46,2.73,5.94,3.87,3.2Z"/>
      <path class="cls-6" d="m1.77,114.73c1.79-12.08,2.57-24.54,4.97-36.69,1.14-5.77,2.45-11.49,4.07-17.14,1.83-6.39,3.24-12.79,6.04-18.88,2.38-5.16,4.41-10.49,6.67-15.71.9-2.08,1.45-6.45,3.25-7.88,1.62-1.29,5.45-1.38,7.45-1.9,6.17-1.6,12.5-2.51,18.86-2.96,24.97-1.75,49.7,3.3,74.4,6.08,7.85.88,18.72,1.25,25.15,6.48,4.49,3.65,3.33,11.68,2.81,16.74-.81,7.83-1.95,15.62-4.16,23.24-4.56,15.73-7.03,32.38-9.28,48.53-.54,3.87-1.58,7.66-2.13,11.53-.5,3.47-.05,4.82-3.18,6.98-5.53,3.82-12.29,5.04-18.87,5.55-14.06,1.08-28.33-1.68-42.35-1.95-3.58-.07-7.31-1.03-10.88-1.4s-7.26-.67-10.9-.9c-7.24-.46-14.49-.69-21.73-.98-2.62-.1-5.25-.21-7.87-.34-4.34-.21-8.66-.78-12.95-1.43-2.67-.41-8-.24-9.97-2.28-1.6-1.67-1.25-4.37-.85-6.4.55-2.74,1.02-5.51,1.43-8.3Z"/>
      <path class="cls-2" d="m215.92,24.08l-3.4,2.15"/>
      <path class="cls-5" d="m34.49,24.26c-3.94,9.26-6.79,19.09-9.31,28.84-3.05,11.77-7.02,23.23-9.4,35.21-1.55,7.77-3.45,15.41-5.1,23.13-.49,2.27-.94,4.51-1.27,6.76-.31,2.08-.82,3.29,1.45,3.85,2.08.51,4.35.36,6.49.71,1.36.23,2.64.78,3.97,1.11,4.8,1.2,10.23,1.24,15.17,1.49s10.21.42,15.3.44c4.2.02,8.61-.39,12.76.36,1.89.34,3.79.97,5.73.9,1.58-.06,3.12-.53,4.73-.55,7.82-.08,15.59.99,23.15,1.79,3.68.39,6.89,1.08,10.66.9,3.46-.17,7.2-.16,10.75-.53,4.65-.48,5.25-3.57,6.54-7.62,2.43-7.61,5.09-15.06,6.39-23.02,2.91-17.73,9.27-34.65,12.77-52.27.76-3.83,1.31-9.48.26-13.26-1.25-4.48-8-5.11-12-6.23-9.26-2.6-18.77-1.19-28.14-2.82-4.74-.82-9.26-1.71-14.08-1.88s-9.58.25-14.36.04c-7.85-.35-15.64-.23-23.52-.22-4.55,0-9.02-.28-13.48.34-1.79.25-4.32.72-5.46,2.52Z"/>
      <path class="cls-8" d="m62.79,27.13c-3.54-4.71-5.32,5.61-.9,3.05,1.73-1,1.07-3.82-.78-4.32s-2.88,2.77-1.54,3.92c1.72,1.48,5.29-1.58,3.22-3"/>
      <path class="cls-8" d="m112.06,29.95c-3.54-4.71-5.32,5.61-.9,3.05,1.73-1,1.07-3.82-.78-4.32s-2.88,2.77-1.54,3.92c1.72,1.48,5.29-1.58,3.22-3"/>
      <path class="cls-3" d="m61.54,27.48c-.72.79-6.22-1.41-7.3-2.01-2.96-1.64-3.92-5.98-4.38-9.04-1.51-10.14,11.29-21.96,20.27-12.41,2.24,2.38,3.38,5.18,2.34,8.24"/>
      <path class="cls-3" d="m111.15,30.71c-6.51.72-12.81-6.66-12.17-13.22.45-4.59,2-8.44,5.72-11.32,3.13-2.42,8.17-3.84,11.53-1.48,1.66,1.16,3.24,2.86,4.11,4.69,1.36,2.88,1.41,6.56-.59,9.14"/>
      <path class="cls-1" d="m41.84,38.59c-4.87,12.33-9.58,24.7-13.21,37.47-1.61,5.67-2.76,11.48-4.2,17.2-.85,3.37-2.02,6.76-2.65,10.15-.4,2.14-.65,5.2,1.12,6.77,3.53,3.11,10.04,3.19,14.24,3.49,6.48.47,12.91,1.5,19.39,1.93,7.05.47,14.17.11,21.21.18,9.34.1,18.53,2.06,27.82,1.61,2.87-.14,5.62.59,7.79-1.61,2.67-2.73,4.12-7.73,5.65-11.15,5.17-11.53,8.99-23.96,11.59-36.33.9-4.28,1.86-8.78,2.07-13.11.09-1.91.35-5.36-.57-7.02-1.29-2.35-5.51-2.13-7.87-2.42-5.32-.66-10.65-1.89-15.85-3.12-6.5-1.54-13.08-1.71-19.66-2.66-6.17-.89-12.38-2.47-18.58-2.91-7.87-.56-15.62.99-23.37.64-1.06-.05-2.18-.17-4.93.88Z"/>
      <path class="cls-1" d="m59.03,36.62c-2.96,10.77-6.46,21.89-9.76,32.76-3.41,11.21-6.53,22.53-10.55,33.53-.67,1.85-1.31,3.69-1.9,5.55-.46,1.45-.37,3.25-.9,4.64"/>
      <path class="cls-1" d="m77.48,38.23c-.82,1.1-.95,2.7-1.21,4.12-.5,2.76-1.17,5.51-1.84,8.24-1.54,6.31-2.6,12.72-4.26,18.99-3.2,12.1-7.64,24.36-12.53,35.86-1.27,2.98-4.59,6.83-4.52,10.16"/>
      <path class="cls-1" d="m102.19,41.27c-1.01.12-2.58,9.97-2.93,11.39-1.85,7.39-4.09,14.64-6.2,21.97-3.03,10.51-6.95,20.63-10.88,30.77-1.4,3.6-3.38,6.87-4.88,10.38"/>
      <path class="cls-1" d="m118.85,46.47c.2,3.1-1.6,6.22-2.33,9.17-1.5,6.1-2.56,12.28-4.03,18.4-3.02,12.53-7.42,24.59-12.09,36.56-1.03,2.64-2.13,5.29-3.58,7.69"/>
      <path class="cls-1" d="m38.43,50.95c1.87.6,4.41.73,6.44,1.12,3.8.74,7.64,1.51,11.51,1.75,7.81.49,15.47,2.2,23.27,2.66,7.14.42,14.2,1.98,21.29,2.79,5.8.67,11.91,1.38,17.55,2.73,2.35.56,4.59.88,6.94,1.12,1.26.13,5.23-.19,5.6,1.08"/>
      <path class="cls-1" d="m30.91,67.24c4.88,2.21,10.96,2.69,16.16,4.11,7.78,2.12,16.01,3.54,24,4.63,13.17,1.79,26.3,4.35,39.54,5.59,4.91.46,9.93.69,14.86.72"/>
      <path class="cls-1" d="m24.64,89.63c1.55.46,3.77.49,5.55.67,4.38.46,8.72,1.23,13.12,1.62,9.01.8,18,1.67,27.01,2.54,12.68,1.23,25.38,1.78,37.97,3.18,3.65.41,7.84,1.33,11.46,1.11"/>
      <path class="cls-1" d="m91.09,81.93c3.23-3.81,7.69-7.22,11.46-10.55s7.43-7.27,11.64-9.87"/>
      <path class="cls-1" d="m98.79,58.11c-2.69,2.92,2.31,7.83,3.89,10.2,3.17,4.77,7.18,9.55,9.72,14.69"/>
      <path class="cls-1" d="m41.48,89.27c-.31.08-.96.4-1.36.54,1.11.22,2.59-.94,3.55-1.6,3.2-2.22,6.27-4.79,9.36-7.18,4.31-3.32,9.32-6.13,13.53-9.31"/>
      <path class="cls-1" d="m47.57,70.83c-1.21.66,12.24,23.32,14.15,26.51"/>
      <path class="cls-7" d="m37.72,50.77c.82-1.56.92-3.87,1.77-5.66.75-1.58,1.39-4.06,2.39-5.45,2.1-2.92,7.9-1.83,11.06-2.14,1.75-.17,4.87-.65,6.11.71-2.59,4.98-1.94,11.02-4.54,15.92-1.22-.78-2.62-.33-4.08-.51s-3.06-.74-4.57-.99c-2.02-.34-6.02-2.47-8.15-1.88Z"/>
      <path class="cls-7" d="m62.61,93.93c.39-5.69,3-11.95,5.32-17.05.82-1.81,1.13-1.38,2.91-1.21,1.54.15,2.43.35,3.83.74s2.87.21,4.32.42c1.37.21,2.58.74,3.94.99,2.82.52,5.8.5,8.47,1.46-.13,2.44-1.3,5.12-2.03,7.49s-.62,5.13-1.88,7.16c-1.4,2.27-4.53.83-6.99.72-2.75-.13-5.52-.76-8.24-1.07-3.02-.35-6.33.08-9.29-.38.22-1.56.7-3.98,1.58-5.35"/>
    </g>
  </g>
</svg>