<?xml version="1.0" encoding="UTF-8"?>
<svg id="Layer_2" data-name="Layer 2" xmlns="http://www.w3.org/2000/svg" viewBox="0 0 60.18 39.76">
  <defs>
    <style>
      .cls-1 {
        fill: #f9dc5c;
      }

      .cls-2 {
        fill: #5e4f3c;
      }
    </style>
  </defs>
  <g id="Layer_14" data-name="Layer 14">
    <g id="kaffekop">
      <path id="Path_2953" data-name="Path 2953" class="cls-1" d="m5.39,4.43c-13.12,12.21.15,28.86,13.73,33.94,5.81,2.17,15.73,1.95,21.48-1.66,4.07-2.54,3.37-6.9,6.09-9.24,3.07-2.64,6.27-.73,9.56-2.87,8.4-5.48,1.97-16.15-6.74-12.82C50.93.06,21.71-1.38,13.7.92c-21.97,6.28,6.62,14.56,15.77,15.15,5.83.37,18.57-.56,20.75-6.66"/>
      <path id="Path_2954" data-name="Path 2954" class="cls-2" d="m16.18,6.52c-4.06-3.67-11.69,8.9,2.91,9.96,9.23.54,18.48.5,27.71-.13-1.17-8.91-22.17-13.83-28.12-11.5"/>
    </g>
  </g>
</svg>