<?xml version="1.0" encoding="UTF-8"?>
<svg id="Layer_2" data-name="Layer 2" xmlns="http://www.w3.org/2000/svg" viewBox="0 0 215.13 245.19">
  <defs>
    <style>
      .cls-1 {
        fill: #2a3c24;
      }

      .cls-2 {
        fill: none;
        stroke: #2a3c24;
        stroke-miterlimit: 10;
        stroke-width: 2px;
      }
    </style>
  </defs>
  <g id="Layer_1-2" data-name="Layer 1">
    <path class="cls-2" d="m90.62,130.4c-.13.27.15.44-.2.5-.04-5.34-1.23-10.65.91-15.78s7.25-8.49,12.63-8.52c12.68-.08,21.43,13.67,13.78,24.27-1.54,2.13-3.74,4.1-6.01,5.27s-5.4,1.6-6.9,3.86c2.84,5.14,10.44,8.32,15.56,10.1,4.03,1.4,12.01,4.5,16.13,1.88,3.27-2.07,1.58-9.32.67-12.35-1.26-4.24-2.53-6.52-5.67-9.61-1.19-1.17-3.95-4.76-1.54-6.08,1.72-.94,3.58,2.29,5.18,2.87,1.41-1.79,1.87-5.29,3.44-7.52,1.95-2.78,4.07-4.43,7.56-4.42,9.42.03,6.94,12.08,6.35,18.25s-2.73,12.6-3.36,19.05c-.52,5.22-2.04,10.99-6.98,13.98-5.22,3.15-10.87,3.12-16.72,2.6s-11.38-2.98-17.22-2.13c-11.79,1.73-23.59,12.41-31.34,20.83-3.85,4.18-6.72,10-9.52,14.97-2.55,4.53-3.68,9.98-7.42,13.72-4.33,4.32-9.71,7.12-15.43,9.27-2.3.86-4.9,1.81-7.25,2.14-3.12.44-5.15.07-7.77,2.13-4.51,3.54-2.93,10.29-7.13,13.54-5.52,4.28-8.63-6.4-9.14-9.97-.39-2.75-.63-5.97-.32-8.81.43-3.9,1.63-4.31,4.91-4.93,5.58-1.06,11.34-3.11,16.02-6.53s10.05-6.06,12.94-11.39,2.41-10.87,2.39-16.9c-.01-3.38,1.46-5.67-2.72-5.83-2.87-.1-5.62.33-8.22-.2s-5.3-1.23-7.97-1.86c-1.52-.36-6.77-2.04-7.97-1-2.13,1.84,3.47,12.96,3.96,15.62,1.06,5.88-1.32,10.56-6.8,13.14-3.79,1.79-12.07,2.93-15.8.65-5-3.06-2.04-9.42,1.36-12.63,1.65-1.56,4.95-2.37,6.03-4.2,1.4-2.36-.72-6.1-1.69-8.24-2.29-5.04-7.38-10.71-4.47-16.3,1.53-2.93,4.24-2.04,7.12-2.48s5.38-.52,8.16-.39c5.86.29,11.64.53,17.61.52,4.96-.01,12.47.9,16.16-3.24,1.79-2.01,2.08-5.18,3.65-7.51s3.08-4.74,4.46-7.38c1.73-3.29,7.63-10.57,5.33-14.3-2.72-4.41-11.75-3.73-15.75-2.02-5.61,2.41-7.21,7.84-10.04,12.9-1.51,2.7-1.95,4.96-1.48,8.09s.25,5.66-3.06,2.78c-2.74-2.39-3.5-2.43-6.93-1.1-2.56,1-5.98,1.97-8.81,1.43-6.75-1.3.87-11.97,2.98-15.08,2.99-4.43,6.63-8.27,10.43-12.06,1.86-1.85,3.38-4.17,5.48-5.76,2.47-1.88,4.6-1.49,7.39-1.83,11.28-1.35,21.54.16,31.87,4.03,3.64,1.36,9.95,3.23,11.14,9.97Z"/>
    <g>
      <path class="cls-1" d="m114.42,54.81c4.86-5.45,10.12-8.29,13.24-6.77.35.17,1.29.66,1.66,1.66,1.38,3.64-6.58,9.61-8.98,10.76-1.6.77-2.43.47-3.82-.84-.99-.93-2.35-2.25-2.11-4.8Z"/>
      <path class="cls-1" d="m107.02,62.97c.68-2.35,2.69-3.82,4.74-5.24.82,1.66,3.15,4.12,4.76,5.02-1.95.91-3.2,3.35-5.54,3.53-1.53.12-4.17-2.02-3.95-3.31Z"/>
      <path class="cls-1" d="m135.5,68.23c6.49-3.35,10.55-7.73,9.86-11.13-.08-.38-.32-1.41-1.19-2.03-3.18-2.24-10.95,3.97-12.66,6-1.15,1.36-1.06,2.23-.13,3.91.66,1.19,1.6,2.84,4.13,3.24Z"/>
      <path class="cls-1" d="m125.74,73.35c2.45-.07,4.37-1.65,6.26-3.28-1.41-1.21-3.2-4.08-3.67-5.86-1.36,1.66-4.04,2.26-4.8,4.48-.5,1.45.92,4.55,2.22,4.66Z"/>
      <path class="cls-1" d="m147.55,30.6c4.86-5.45,10.12-8.29,13.24-6.77.35.17,1.29.66,1.66,1.66,1.38,3.64-6.58,9.61-8.98,10.76-1.6.77-2.43.47-3.82-.84-.99-.93-2.35-2.25-2.11-4.8Z"/>
      <path class="cls-1" d="m140.16,38.76c.68-2.35,2.69-3.82,4.74-5.24.82,1.66,3.15,4.12,4.76,5.02-1.95.91-3.2,3.35-5.54,3.53-1.53.12-4.17-2.02-3.95-3.31Z"/>
      <path class="cls-1" d="m168.63,44.02c6.49-3.35,10.55-7.73,9.86-11.13-.08-.38-.32-1.41-1.19-2.03-3.18-2.24-10.95,3.97-12.66,6-1.15,1.36-1.06,2.23-.13,3.91.66,1.19,1.6,2.84,4.13,3.24Z"/>
      <path class="cls-1" d="m158.87,49.14c2.45-.07,4.37-1.65,6.26-3.28-1.41-1.21-3.2-4.08-3.67-5.86-1.36,1.66-4.04,2.26-4.8,4.48-.5,1.45.92,4.55,2.22,4.66Z"/>
      <path class="cls-1" d="m186.09,3.92c6.21-3.85,12.06-5.07,14.62-2.73.29.26,1.05,1,1.12,2.06.29,3.88-9.04,7.34-11.66,7.77-1.76.28-2.46-.24-3.42-1.89-.69-1.18-1.61-2.83-.66-5.21Z"/>
      <path class="cls-1" d="m176.69,9.65c1.32-2.06,3.66-2.9,6.03-3.68.31,1.83,1.85,4.84,3.13,6.16-2.12.32-4.02,2.3-6.32,1.81-1.5-.32-3.43-3.13-2.85-4.29Z"/>
      <path class="cls-1" d="m202.49,22.78c7.18-1.36,12.31-4.41,12.62-7.87.03-.39.09-1.45-.57-2.28-2.41-3.05-11.62.69-13.85,2.16-1.49.98-1.65,1.84-1.24,3.71.29,1.33.72,3.18,3.04,4.28Z"/>
      <path class="cls-1" d="m191.68,24.91c2.37.63,4.66-.34,6.93-1.37-1-1.56-1.91-4.82-1.85-6.66-1.78,1.2-4.52,1.02-5.88,2.94-.89,1.25-.41,4.62.8,5.09Z"/>
    </g>
  </g>
</svg>