<?xml version="1.0" encoding="UTF-8"?>
<svg id="Layer_2" data-name="Layer 2" xmlns="http://www.w3.org/2000/svg" viewBox="0 0 106.05 96.03">
  <defs>
    <style>
      .cls-1 {
        fill: none;
        stroke: #2a3c24;
        stroke-miterlimit: 10;
        stroke-width: 2px;
      }
    </style>
  </defs>
  <g id="Layer_14" data-name="Layer 14">
    <path id="Path_2955" data-name="Path 2955" class="cls-1" d="m62.26,17.26c-.09.18.1.3-.14.34-.03-3.65-.84-7.28.62-10.78,1.47-3.48,4.85-5.76,8.63-5.82,8.67-.05,14.64,9.34,9.42,16.58-1.08,1.49-2.48,2.72-4.11,3.6-1.55.8-3.69,1.09-4.71,2.64,1.94,3.51,7.13,5.68,10.63,6.9,2.75.96,8.21,3.08,11.02,1.28,2.23-1.41,1.08-6.37.46-8.44-.61-2.52-1.96-4.81-3.87-6.57-.81-.8-2.7-3.25-1.05-4.16,1.18-.64,2.45,1.57,3.54,1.96.96-1.22,1.28-3.61,2.35-5.14,1.33-1.9,2.78-3.03,5.17-3.02,6.44.02,4.74,8.26,4.34,12.47s-1.86,8.61-2.3,13.02c-.36,3.57-1.39,7.51-4.77,9.55-3.57,2.15-7.43,2.13-11.43,1.78s-7.78-2.04-11.77-1.46c-8.06,1.18-16.12,8.48-21.42,14.23-2.63,2.86-4.59,6.83-6.51,10.23-1.74,3.1-2.51,6.82-5.07,9.38-3.02,2.84-6.62,5-10.54,6.33-1.6.66-3.26,1.15-4.95,1.46-2.13.3-3.52.05-5.31,1.46-3.08,2.42-2,7.03-4.87,9.25-3.77,2.93-5.9-4.37-6.25-6.81-.31-1.99-.39-4.01-.22-6.02.29-2.67,1.11-2.94,3.35-3.37,3.93-.67,7.67-2.19,10.95-4.46,3.2-2.34,6.87-4.14,8.84-7.78s1.65-7.43,1.63-11.55c0-2.31,1-3.87-1.86-3.98-1.96-.07-3.84.22-5.62-.14s-3.62-.84-5.45-1.27c-1.04-.25-4.63-1.39-5.45-.68-1.45,1.26,2.37,8.86,2.71,10.67.89,3.73-1.09,7.55-4.65,8.98-2.59,1.22-8.25,2-10.8.44-3.42-2.09-1.39-6.44.93-8.63,1.13-1.07,3.38-1.62,4.12-2.87.96-1.61-.49-4.17-1.15-5.63-1.56-3.44-5.03-7.32-3.05-11.14,1.04-2,2.9-1.39,4.87-1.69,1.84-.28,3.71-.37,5.58-.27,4,.2,7.95.36,12.03.35,3.39,0,8.52.62,11.04-2.21,1.22-1.37,1.42-3.54,2.49-5.13,1.11-1.62,2.13-3.31,3.05-5.04,1.18-2.25,5.21-7.22,3.64-9.77-1.86-3.01-8.03-2.55-10.76-1.38-3.83,1.65-4.93,5.36-6.86,8.81-1.01,1.66-1.37,3.62-1.01,5.53.32,2.14.17,3.87-2.09,1.9-1.87-1.63-2.39-1.66-4.74-.75-1.89.85-3.96,1.18-6.02.98-4.61-.89.59-8.18,2.04-10.3,2.1-2.97,4.49-5.73,7.13-8.24,1.16-1.39,2.41-2.71,3.74-3.94,1.69-1.28,3.14-1.02,5.05-1.25,7.37-.89,14.86.05,21.78,2.75,2.49.93,6.8,2.21,7.61,6.81h.02Z"/>
  </g>
</svg>