<?xml version="1.0" encoding="UTF-8"?>
<svg id="Layer_2" data-name="Layer 2" xmlns="http://www.w3.org/2000/svg" viewBox="0 0 679.27 933.47">
  <defs>
    <style>
      .cls-1 {
        fill: #2a3c24;
      }
    </style>
  </defs>
  <g id="logo_ny" data-name="logo ny">
    <g>
      <path class="cls-1" d="m179.33,408c.17-.09.34-.19.5-.28-.19-.1-.35.01-.5.28Z"/>
      <path class="cls-1" d="m394.08,420.13c15.94,4.88,30.91,12.95,43.74,23.59,11.03,9.15,17.92,27.73,27.95,14.74,7.86-10.18,11.98-29.62,7.53-41.63-5.21-14.09-18.19-16.02-31.39-21.02-7.72-2.93-15.57-5.48-23.53-7.66-25.15-6.89-51.34-10.01-77.4-9.11-12.81.44-33.08-1.37-35.73,15.14-2.05,12.8,5.63,30.83,6.76,44.19,1.42,16.77,2.54,33.57,3.37,50.38,1.6,32.57,2.07,65.19,1.42,97.8-.58,29.38-2.07,58.74-4.48,88.03-.77,9.32-5.81,23.49,3.46,29.27,6.78,4.23,20.9-1,28.25-1.09,0,0,9.33-21.43,10.88-33.11,4.09-30.88,8.18-61.76,12.26-92.64,11.06-2.38,30.48.58,26.94-18-2.78-14.6-16.42-9.63-26.12-14.06-.62-20.35-2.82-40.61-5-60.84-1.87-17.41-8.74-41.36-5.52-58.6,3.25-17.41,21.73-9.92,36.59-5.37Z"/>
      <path class="cls-1" d="m520.96,411.63c-14.25-1.68-6.29,23.04-7.36,37.34-2.08,27.86-4.86,62.04-20.54,91.98-8.99-38.24-52.09-69.54-75.74-91.98,11.32,70.43,6.04,146.75-16.69,213.6-13.52,39.77-29.06,58.08-44.93,81.08-2.9,4.21-6.04,8.33-9.31,12.4-60.6-66.98-141.57-159.39-134.47-177.6,30.41-77.97,41.08-111.78,79.59-196.41,2.55-4.66-51.35,10.27-51.35,10.27-6.42,39.98-35.94,158.58-46.21,155.21-7.54-2.47-18.5-132.53-14.62-139.53-4.7,2.59-12.18,6.4-21.84,9.91-9.38,3.41-17.42,4.17-17.46,5.21-2.57,65.89-1.28,181.28,30.81,347.89,1.55,8.06,39.87,24.97,38.51,11.55-5.14-50.89-30.07-200.62-19.26-175.87,14.95,34.22,23.69,93.25,137.03,171.23-13.44,14.22-27.62,27.83-39.76,41.33,13.9,7.6,51.46-18.13,61.85-26.75,17.82,11.3,37.85,22.97,60.39,34.99,3.89,2.07-15.78-19.28-44.06-50.34,24.05-25.37,41.73-56.95,58.14-87.96,5.09-9.61,43.69-91.65,30.85-132.82,13.11,6.03,44.8,41.31,52.63,59.23,12.73-28.32,25.79-75.59,38.51-103.91,9.01,90.24,8.99,185.93-41.16,275.97,30.89-5.73,51.74-13.09,59.13-20.59,7.11-7.21,11.82-50.02,14.12-68.09,11.1-87.34,8.99-168.84-20.53-248.75-3.48-9.43-4.17-20.03-10.11-28.12q-5.95-8.1-26.18-10.48Z"/>
      <path class="cls-1" d="m160.83,244.82c36.27,24.9,35.94,57.6,54.38,67.43,8.77,4.68,43.29-17.53,128.6-19.87,63.71-1.75,103.8,18.52,122.17,23.47.51.14,1.37.53,2.53.34,6.83-1.14,9.59-20.28,27.87-43.68,8.77-11.23,16.47-19.69,23.11-26.35,20.05-20.09,26.58-22.64,31.47-35.03,4.99-12.64,3.46-24.47,2.7-30.4-.98-7.65-2.66-20.68-12.28-31.56-12.27-13.89-32.31-18.45-47.93-16.37-19.07,2.54-29,14.62-35.07,9.94-4.33-3.34-.78-10.65-1.89-21.57-1.85-18.29-15.61-35.32-30.54-43.28-20.02-10.68-46.33-7.3-66.94,8.16,0,0-20.29-43.4-13.44-44.42,3.72-.55,20.9,10.95,26.89,5.85,1.83-1.56,1.21-3.71,1.17-16.95-.04-14.34.96-18.48-1.17-18.12-6.03,1.03-22.72,16.45-25.72,14.03-2.77-2.24,12.28-26.41,7.01-26.41-11.11,0-17.25,2.45-33.32,2.45-4.68,0,11.82,21.32,9.35,23.97-2.78,2.97-24.86-11.26-28.64-10.52,0,0,.24,34.25,4.68,35.66,5.15,1.64,20.94-11.19,26.3-7.6,8.05,5.39-8.33,53.06-12.86,49.1-28.06-24.55-39.08-20.57-60.79-15.78-39.75,8.77-33.69,65.47-37.41,63.13-8.51-5.36-15.66-13.29-33.65-16.4-23.43-4.05-51.88,15.2-59.29,40.36-5.98,20.34,2.47,40.46,27.47,76.57,1.06,1.53,2.44,1.96,5.24,3.88Zm329.85-96.07c17.67-4.05,40.57,13.44,39.02,39.16-1.92,31.77-47.21,56.7-55.39,79.5l-57.87-16.37c29.81-57.28,46.18-95.86,74.23-102.29Zm-115.15-42.67c18.68-14.62,51.85-2.8,59.62,27.22,7.02,27.14-33.31,85.59-38.41,113.89l-42.84-1.41c4.97-71.71-5.26-118.66,21.63-139.7Zm-127,24.13c7.77-30.02,40.93-41.84,59.61-27.22,26.89,21.04,16.66,68,21.63,139.7l-42.84,1.41c-5.09-28.3-45.43-86.75-38.41-113.89Zm-55.54,15.45c28.06,6.43,44.42,45.01,74.23,102.29l-57.87,16.37c-8.18-22.8-53.47-47.72-55.39-79.5-1.55-25.72,21.36-43.21,39.02-39.16Z"/>
      <path class="cls-1" d="m678.83,729.45s-123.98,136.86-344.76,128.95C77.66,849.21,18.37,702.35.72,717.59c-11.54,9.96,115.39,210.06,339.28,215.77,214.48,5.46,347.91-190.71,338.83-203.91Z"/>
    </g>
  </g>
</svg>