<?xml version="1.0" encoding="UTF-8"?>
<svg id="Layer_2" data-name="Layer 2" xmlns="http://www.w3.org/2000/svg" viewBox="0 0 505.27 439.19">
  <defs>
    <style>
      .cls-1, .cls-2, .cls-3, .cls-4, .cls-5, .cls-6, .cls-7, .cls-8 {
        stroke: #2c3d24;
      }

      .cls-1, .cls-2, .cls-9, .cls-5, .cls-7 {
        stroke-linecap: round;
        stroke-linejoin: round;
      }

      .cls-1, .cls-10, .cls-6 {
        fill: #2c3d24;
      }

      .cls-2, .cls-11, .cls-12, .cls-13, .cls-8, .cls-14 {
        fill: none;
      }

      .cls-15, .cls-7 {
        fill: #f9dc5c;
      }

      .cls-16, .cls-17 {
        fill: #fcf4d4;
      }

      .cls-18 {
        fill: #a690a4;
      }

      .cls-19 {
        fill: #c2eabd;
      }

      .cls-20 {
        fill: #754c24;
      }

      .cls-17, .cls-3, .cls-4, .cls-5, .cls-7, .cls-12, .cls-13, .cls-8 {
        stroke-width: .25px;
      }

      .cls-17, .cls-3, .cls-4, .cls-6, .cls-11, .cls-12, .cls-13, .cls-8, .cls-14 {
        stroke-miterlimit: 10;
      }

      .cls-17, .cls-11, .cls-12, .cls-14 {
        stroke: #c2eabd;
      }

      .cls-3, .cls-5 {
        fill: #fff;
      }

      .cls-4 {
        fill: #a691ad;
      }

      .cls-9 {
        fill: #c59b6d;
        stroke: #8b6239;
      }

      .cls-9, .cls-14 {
        stroke-width: .5px;
      }

      .cls-13 {
        stroke: #2a3c24;
      }
    </style>
  </defs>
  <g id="bord">
    <path class="cls-16" d="m33.11,438.59c4.58,1.98,10.1-1.49,11-2,12.78-7.25,136.55-9.87,453.79-3.55,10.53-134.16,8.08-205.09,3.21-245.45,0,0-11.55-95.89-13-133-.39-10.01-2.19-19.98-2-30,.18-9.71,1.09-14.01-2-18-3.37-4.36-9.24-5.42-24-6-15.95-.62-23.92-.93-31,0-6.13.81-61.05,1.53-170,13C157.34,24.3,74.35,33.04,30.11,31.59c-4.27-.14-16.19-.64-24,7-12.53,12.26-2.02,36.48-1.22,58.34,1.61,43.94,6.26,72.01,9.19,108.59,5.04,63.01,9.28,94.36,8.93,111.7-.58,28.8,4.46,57.59,3.1,86.36-.48,10.12-1.82,31.19,7,35Z"/>
    <path class="cls-11" d="m272.49,230.79c1.37.65,2.47,2.85,3.84,3.5-2.54-.86-4.94-2.15-7.05-3.81"/>
  </g>
  <g id="briller">
    <path class="cls-6" d="m190.11,95.59c.86,1.61-.12,2.86-.78,6.44-.49,2.64-.93,5-.22,7.56.78,2.83,2.59,4.62,3.5,5.5,2.77,2.68,5.88,3.48,8,4,3.03.74,8.17,2,12.5-.5,4.11-2.38,4.97-5.72,9.41-7.57.43-.18,1.6-.66,2.66-.18,0,0,.52.24.93.75,1.39,1.77-.11,6.15,0,10,.01.47.14,3.83,2,7,2.89,4.94,8.27,6.5,10,7,1.58.46,8.9,2.58,13-1,.75-.66,2.51-2.48,4-5,1.15-1.94,1.67-3.5,3.11-3.85,1.16-.28,1.95.45,2.89-.15.66-.42,1.05-1.27,1-2-.09-1.52-2.09-2.54-3-3-8.35-4.28-5.69-4.2-17-9-2.77-1.18-4.54-1.86-7-2-2.48-.14-2.78.45-4.96.13-2.73-.39-4.74-1.66-7.04-3.13-2.07-1.33-3.45-2.53-4-3-2.11-1.8-7.44-6.35-14-9-5.79-2.33-6.09-.59-11-3-1.34-.66-3.62-1.92-5-1-.63.42-1.02,1.25-1,2,.03,1.32,1.31,1.71,2,3Z"/>
    <path class="cls-1" d="m232.82,111.45c3.2,1.08,6.4,2.17,9.6,3.25,3.1,1.05,6.22,2.11,9.16,3.55,2.19,1.08,4.47,2.65,4.92,5.04-4.94-1.37-9.75-3.23-14.32-5.54,1.17,2.28,1.81,4.2,2.18,5.54.38,1.36.53,2.35,1.26,4.79.42,1.42.64,2.15,1,3,.8,1.88,1.19,2.25,1.61,3.39.36,1,.69,2.5.39,4.61-.19.22-1.08,1.19-2,1-.94-.19-1.35-1.47-1.7-2.57-.58-1.81-.54-3.31-.54-3.42,0,0,.05-.52-.76-8.01-.26-2.44-1.21-5.85-4.28-9.95-1.44-.48-2.9-.97-4.37-1.49-1.48-.52-2.93-1.04-4.35-1.56.02-.08.24-1.19,1.21-1.57.42-.16.8-.12,1.01-.08Z"/>
    <path class="cls-1" d="m213.04,106.25c-1.67-.5-3.38-.98-5.12-.95-1.8.03-3.54.61-5.21,1.28-4.2,1.69-8.15,4.02-11.67,6.88-.66.53-1.32,1.1-2.12,1.38-.8.29-1.78.23-2.38-.37-.15-.15-.28-.35-.26-.56.02-.25.2-.43.29-.52,1.52-1.44,2.28-2.17,3.03-2.31.92-.18.99.21,2,0,.81-.17,1.33-.54,2-1,.99-.68,2.05-1.27,3-2,1.36-1.05,5.81-3.86,10.94-4.37,1.75-.18,4.98-.22,8.97,1.42-3.6-1.37-6.65-2.6-9.02-3.58-4.19-1.74-6.28-2.61-7.88-3.47-1.98-1.06-2.5-1.63-4-2-.4-.1-1.32-.3-1.33-.6,0-.22.47-.4.64-.46,2.9-1.09,7.69,1.06,7.7,1.06,1.93.87,1.75,1.03,4.16,2.28,3.54,1.83,4.22,1.77,7.5,3.4,1.53.76,4.71,2.58,4.88,4.55.23,2.8-4.89.29-6.1-.07Z"/>
    <path class="cls-2" d="m219.61,104.09c2.24.88,4.58,1.87,7,3,2.12.99,4.12,1.99,6,3"/>
    <path class="cls-16" d="m191.11,100.59c-.53,1.29-1.71,4.3-1,8,.14.73.35,1.78,1,3,1.47,2.75,3.92,3.97,6,5,3.82,1.9,7.18,1.99,8,2,1.47.02,3.56.02,6-1,3.45-1.44,5.25-3.94,6-5,1.09-1.55,2.14-3.04,2-5-.11-1.64-.99-2.76-2-4-2.88-3.56-6.66-5.25-10.69-7-1.17-.51-2-.87-3.23-1.23-2.94-.88-5.52-1.65-7.81-.65-2.28.99-3.22,3.28-4.28,5.88Z"/>
    <path class="cls-17" d="m254.13,128.15c-.58,1.27-1.95,4.2-5.13,6.22-.62.4-1.54.97-2.87,1.33-3.01.82-5.57-.13-7.75-.93-4-1.48-6.38-3.86-6.95-4.44-1.02-1.06-2.46-2.57-3.39-5.05-1.32-3.49-.74-6.52-.48-7.8.38-1.86.74-3.64,2.26-4.89,1.27-1.04,2.69-1.17,4.28-1.29,4.57-.35,8.39,1.24,12.43,2.97,1.17.5,2,.86,3.11,1.5,2.66,1.54,4.99,2.88,5.83,5.23.84,2.34-.18,4.59-1.34,7.15Z"/>
    <path class="cls-14" d="m202.49,116.96c.34-.26.78-.33,1.21-.43,2.92-.66,5.44-2.54,8.41-2.94"/>
    <path class="cls-14" d="m198.11,115.59c4.61-2.12,9.21-4.01,13.67-5.59"/>
    <path class="cls-14" d="m195.11,113.59c4.28-1.12,7.74-4.22,12.05-5.23"/>
    <path class="cls-14" d="m241.81,134.04c.34-.26.78-.33,1.21-.43,2.92-.66,5.44-2.54,8.41-2.94"/>
    <path class="cls-14" d="m237.43,132.67c4.61-2.12,9.21-4.01,13.67-5.59"/>
    <path class="cls-14" d="m234.43,130.66c4.28-1.12,7.74-4.22,12.05-5.23"/>
  </g>
  <g id="pen">
    <path class="cls-19" d="m326.78,184.23c-3.9-6.6-9.98-11.87-17.06-14.8-.69,8.03,4.03,15.48,9.14,21.7,1.56,1.91,3.22,3.82,4.06,6.13.48,1.3.68,2.69,1.22,3.96.58,1.38,1.53,2.57,2.46,3.74,5.13,6.43,10.26,12.86,15.39,19.28.3.37.62.76,1.08.91.89.29,1.83-.57,1.99-1.5s-.23-1.85-.6-2.72c-2.74-6.35-5.52-12.77-9.61-18.34-2-2.72-4.3-5.21-6.22-7.98-5.31-7.66-7.89-17.58-15.43-23.06"/>
    <path class="cls-8" d="m318.94,189.94c1.42-.71,2.78-1.54,4.05-2.48"/>
    <path class="cls-8" d="m337.6,216.38c.92-.29,1.78-.79,2.48-1.46"/>
    <path class="cls-10" d="m104.43,384.76c-5.74,5.07-9.78,12.04-11.33,19.54,8.01-.84,14.44-6.87,19.6-13.06,1.58-1.89,3.14-3.88,5.26-5.14,1.19-.71,2.51-1.18,3.66-1.95,1.25-.83,2.24-1.99,3.21-3.12,5.35-6.25,10.7-12.5,16.04-18.75.31-.36.63-.75.69-1.23.12-.93-.9-1.69-1.84-1.67s-1.78.57-2.56,1.1c-5.72,3.89-11.5,7.82-16.2,12.89-2.29,2.47-4.31,5.2-6.67,7.61-6.53,6.66-15.78,11.05-19.74,19.49"/>
    <path class="cls-12" d="m111.51,391.39c-.96-1.26-2.03-2.44-3.2-3.51"/>
    <path class="cls-12" d="m133.97,368.09c-.46-.85-1.11-1.59-1.9-2.16"/>
  </g>
  <g id="bog_ø-h" data-name="bog ø-h">
    <path class="cls-5" d="m400.61,169.09c-22.09-14.64-38.44-25.22-43-28-3.56-2.17-7-4-7-4-3.25-1.73-5.7-2.86-6-3-3.56-1.68-14.27-10.2-43-37,22.64-12.6,36-26.59,44-37,10.74-13.98,15.69-26.53,24-26,7.35.47,8.91,10.63,23,24,2.29,2.17,5.49,4.98,23,16,35.57,22.38,44.76,24.89,45,32,.24,7.27-9.15,11.06-23,22-18.3,14.47-29.99,30.06-37,41Z"/>
    <path class="cls-18" d="m369.61,25.09c8.29,10.82,16,19.08,22,25,12.94,12.77,17.2,13.89,20,14,1.24.05,4.34-.02,7,2,3.06,2.32,3.76,6.05,4,7,3.05,12.26,42.41,21.26,44,34,.89,7.09-10.37,11.67-28,26-15.71,12.77-26.65,25.29-33.37,33.74-7.26-2.36-20.13-7.05-32.63-14.74-10.11-6.22-15.17-9.33-17-14-.46-1.17-1.45-4.21-4.24-5.66-2.68-1.4-5.51-.56-6.76-.34-6.6,1.2-14.24-6.44-25-19-12.81-14.95-19.26-22.43-19-26,.73-10.22,13.3-14.55,32-28,11.81-8.5,24.51-19.52,37-34Z"/>
    <path class="cls-4" d="m339.61,131.09c15.84-14.36,27.79-26.91,36-36,0,0,28.3-31.34,40-30,1.65.19,3,1,3,1,2.56,1.54,3.93,4.61,4,7,.13,4.27-3.87,7.56-5.49,8.93-7.85,6.63-13.62,15.5-21.51,22.07-21.47,17.87-34.24,39.36-38,37-1.28-.81-.72-3.9-4-7-.77-.73-1.62-1.54-3-2-2.39-.8-3.84.27-7,0-1.53-.13-2.87-.53-4-1Z"/>
  </g>
  <g id="Kop_n-v" data-name="Kop n-v">
    <path class="cls-19" d="m287.63,396.07c7.81-6.83,9.16-16.24,9.45-19.27.81-8.65-2.42-15.12-3.99-18.15-3.7-7.17-8.81-11.15-10.51-12.39-2.42-1.77-9.94-6.79-20.51-6.74-7.18.04-12.27,2.39-17.15,4.64-2.9,1.34-4.57,2.45-6.06,3.93-1.73,1.72-2.76,3.49-4.97,8.88-3.01,7.36-4.53,11.05-4.7,14.01-.3,5.04.96,9.07,1.53,10.91,1.69,5.39,3.07,5.03,3.46,7.89,1.14,8.17-9.79,13.55-7.92,19.04.42,1.25,1.62,2.84,5.21,4.04,6.03-11.21,10.95-13.51,14.33-13.53,2.9-.02,4.23,1.64,10.17,2.96.61.13,5.76,1.31,11.45.94,4.73-.3,13.03-.86,20.21-7.15Z"/>
    <path class="cls-20" d="m285.93,381.65c3.48-11.19-5.28-20.9-6.65-22.4-1.26-1.38-11.76-12.57-24.3-8.66-10.26,3.2-13.6,13.94-13.96,15.18-2.36,8.05-.09,16.72,5.36,22.67,7.11,7.75,18.27,9.21,27.07,5.89,5.72-2.15,10.65-6.77,12.49-12.68Z"/>
    <path class="cls-15" d="m57.81,120.29c5,9.09,13.89,12.44,16.79,13.37,8.27,2.65,15.29.88,18.59,0,7.8-2.08,12.78-6.21,14.36-7.6,2.25-1.98,8.76-8.25,10.98-18.59,1.51-7.02.3-12.5-.84-17.74-.68-3.12-1.41-4.99-2.53-6.76-1.31-2.06-2.81-3.45-7.6-6.76-6.55-4.52-9.82-6.79-12.67-7.6-4.85-1.38-9.06-1.01-10.98-.84-5.63.49-5.57,1.91-8.45,1.69-8.23-.64-11.13-12.47-16.9-11.83-1.31.15-3.12.97-5.07,4.22,9.65,8.3,10.84,13.59,10.14,16.9-.6,2.84-2.51,3.78-5.07,9.29-.26.56-2.51,5.34-3.38,10.98-.72,4.68-1.96,12.91,2.64,21.27Z"/>
    <path class="cls-20" d="m72.25,121.73c10.18,5.81,21.54-.67,23.31-1.68,1.62-.93,14.81-8.79,13.67-21.87-.93-10.71-10.7-16.28-11.83-16.9-7.36-4.03-16.31-3.68-23.29.36-9.09,5.28-12.92,15.86-11.57,25.17.87,6.05,4.33,11.85,9.7,14.92Z"/>
    <path class="cls-10" d="m404.18,189.64c-6.76,7.87-6.78,17.37-6.63,20.41.42,8.68,4.54,14.62,6.52,17.41,4.68,6.57,10.3,9.79,12.16,10.78,2.64,1.41,10.8,5.32,21.26,3.77,7.1-1.05,11.81-4.1,16.32-7.01,2.68-1.73,4.18-3.07,5.44-4.74,1.47-1.94,2.24-3.84,3.66-9.49,1.94-7.72,2.92-11.57,2.68-14.53-.41-5.03-2.23-8.84-3.06-10.58-2.43-5.1-3.75-4.55-4.54-7.32-2.28-7.93,7.78-14.8,5.15-19.97-.6-1.17-2.01-2.58-5.73-3.27-4.39,11.95-8.93,14.92-12.27,15.42-2.87.43-4.42-1.03-10.48-1.49-.62-.05-5.88-.48-11.47.69-4.64.97-12.78,2.69-19,9.93Z"/>
    <path class="cls-20" d="m407.9,203.67c-1.87,11.57,8.18,19.94,9.75,21.24,1.44,1.19,13.42,10.78,25.28,5.14,9.71-4.62,11.49-15.73,11.68-17,1.2-8.31-2.27-16.57-8.51-21.68-8.13-6.67-19.38-6.53-27.63-2.01-5.36,2.94-9.58,8.21-10.57,14.32Z"/>
  </g>
  <g id="tallerken">
    <path class="cls-18" d="m182.36,216.98c-1.71,7.59-1.3,15.62-1.36,21.13-.06,5.61.15,11.33,1.95,16.64,3.09,9.1,10.72,16.19,19.44,20.23,8.73,4.04,18.49,5.3,28.1,5.46,9.82.16,19.81-.82,28.9-4.53,3.17-1.29,14.15-6.92,21.26-19.35,11.18-19.55,3.46-40.39,1.95-44.47-2.07-5.58-11.53-28.44-36-35-20.3-5.45-36.85,4.1-40,6-14.91,9.01-21.92,23.53-24.25,33.89Z"/>
    <path class="cls-9" d="m207.42,190.6c-1.97,1.97-2.8,4.84-2.84,7.62s.64,5.51,1.31,8.21c.28,1.11.57,2.26,1.28,3.17.54.69,1.3,1.19,2.04,1.66,2.71,1.71,5.54,3.22,8.47,4.53,1.38.62,2.83,1.2,4.34,1.22,2.11.03,4.11-1.05,5.63-2.51s2.61-3.3,3.66-5.13c.57-.99,1.14-2,1.37-3.12.4-1.96-.29-3.96-.98-5.84-1.83-4.94-4.21-10.87-9.81-12.11-4.44-.98-11-1.16-14.47,2.3Z"/>
    <path class="cls-9" d="m194.03,215.39c-.77,2.96.04,6.15,1.55,8.8s3.67,4.87,5.81,7.06c.88.9,1.8,1.83,2.97,2.29.9.35,1.89.41,2.86.44,3.52.11,7.04-.03,10.54-.42,1.65-.18,3.35-.44,4.79-1.26,2.02-1.14,3.32-3.28,3.94-5.51s.64-4.58.62-6.9c-.01-1.25-.03-2.53-.44-3.71-.71-2.08-2.48-3.59-4.18-4.99-4.48-3.66-10.03-7.96-16.03-6.02-4.76,1.54-11.07,5.02-12.43,10.22Z"/>
    <path class="cls-20" d="m199.28,212.45c-1.19.87-1.69,2.57-1.15,3.94.08.22.2.43.39.56.18.12.39.15.6.17.88.11,1.79.19,2.62-.12s1.54-1.1,1.46-1.98c-.01-.13-.04-.25-.11-.36-.12-.16-.33-.23-.51-.32-.61-.29-.98-.9-1.46-1.38s-1.25-.82-1.81-.44"/>
    <path class="cls-20" d="m206.69,207.42c-1.03.75-1.47,2.23-1,3.42.07.19.17.38.34.49.15.1.34.13.52.15.76.09,1.56.16,2.28-.1s1.34-.96,1.27-1.72c0-.11-.03-.22-.1-.31-.1-.14-.29-.2-.45-.27-.53-.25-.85-.79-1.27-1.2s-1.09-.71-1.57-.39"/>
    <path class="cls-20" d="m204.15,221.79c-.77-.47-1.86-.34-2.5.28-.1.1-.2.22-.23.36-.02.13.01.26.05.38.15.52.32,1.06.69,1.46s.99.61,1.47.36c.07-.04.13-.08.17-.15.06-.11.05-.24.06-.37.02-.41.28-.77.43-1.15s.17-.9-.18-1.13"/>
    <path class="cls-20" d="m217.49,221.64c-.78.57-1.11,1.68-.76,2.58.06.14.13.29.26.37.12.08.26.1.39.11.58.07,1.18.12,1.72-.08s1.01-.72.96-1.3c0-.08-.03-.17-.07-.23-.08-.11-.22-.15-.34-.21-.4-.19-.64-.59-.96-.91s-.82-.54-1.19-.29"/>
    <path class="cls-20" d="m210.29,215.68c-1.19.87-1.69,2.57-1.15,3.94.08.22.2.43.39.56.18.12.39.15.6.17.88.11,1.79.19,2.62-.12s1.54-1.1,1.46-1.98c-.01-.13-.04-.25-.11-.36-.12-.16-.33-.23-.51-.32-.61-.29-.98-.9-1.46-1.38s-1.25-.82-1.81-.44"/>
    <path class="cls-20" d="m217.73,213.49c-.78.57-1.11,1.68-.76,2.58.06.14.13.29.26.37.12.08.26.1.39.11.58.07,1.18.12,1.72-.08s1.01-.72.96-1.3c0-.08-.03-.17-.07-.23-.08-.11-.22-.15-.34-.21-.4-.19-.64-.59-.96-.91s-.82-.54-1.19-.29"/>
    <path class="cls-20" d="m208.98,224.86c-1.03.75-1.47,2.23-1,3.42.07.19.17.38.34.49.15.1.34.13.52.15.76.09,1.56.16,2.28-.1s1.34-.96,1.27-1.72c0-.11-.03-.22-.1-.31-.1-.14-.29-.2-.45-.27-.53-.25-.85-.79-1.27-1.2s-1.09-.71-1.57-.39"/>
    <path class="cls-20" d="m212.97,191.57c-1.46.15-2.75,1.36-2.99,2.81-.04.23-.05.48.05.69.09.19.26.32.43.45.7.54,1.45,1.07,2.32,1.22s1.89-.17,2.27-.97c.05-.11.09-.24.08-.36-.02-.2-.17-.36-.28-.53-.38-.56-.39-1.28-.56-1.93s-.66-1.34-1.33-1.3"/>
    <path class="cls-20" d="m221.91,190.98c-1.27.13-2.39,1.18-2.6,2.44-.03.2-.04.41.05.6.08.16.23.28.38.39.61.47,1.26.93,2.02,1.06s1.64-.15,1.97-.84c.05-.1.08-.21.07-.32-.02-.18-.15-.32-.25-.46-.33-.48-.34-1.11-.49-1.67s-.57-1.17-1.16-1.13"/>
    <path class="cls-20" d="m212.44,202.09c-.43-.79-1.43-1.24-2.3-1.02-.14.03-.28.09-.38.19-.09.1-.12.23-.15.35-.14.53-.26,1.08-.14,1.61s.55,1.03,1.09,1.05c.08,0,.16,0,.23-.04.11-.06.17-.18.23-.29.23-.35.63-.52.96-.78s.6-.69.42-1.06"/>
    <path class="cls-20" d="m224.03,208.71c-.96.1-1.81.89-1.96,1.85-.02.15-.03.31.04.45.06.12.17.21.28.3.46.35.95.7,1.52.8s1.24-.11,1.49-.64c.04-.07.06-.16.05-.24-.01-.13-.11-.24-.19-.35-.25-.37-.25-.84-.37-1.27s-.43-.88-.88-.85"/>
    <path class="cls-20" d="m220.84,199.93c-1.46.15-2.75,1.36-2.99,2.81-.04.23-.05.48.05.69.09.19.26.32.43.45.7.54,1.45,1.07,2.32,1.22s1.89-.17,2.27-.97c.05-.11.09-.24.08-.36-.02-.2-.17-.36-.28-.53-.38-.56-.39-1.28-.56-1.93s-.66-1.34-1.33-1.3"/>
    <path class="cls-20" d="m228.36,201.8c-.96.1-1.81.89-1.96,1.85-.02.15-.03.31.04.45.06.12.17.21.28.3.46.35.95.7,1.52.8s1.24-.11,1.49-.64c.04-.07.06-.16.05-.24-.01-.13-.11-.24-.19-.35-.25-.37-.25-.84-.37-1.27s-.43-.88-.88-.85"/>
    <path class="cls-20" d="m215.06,207.18c-1.27.13-2.39,1.18-2.6,2.44-.03.2-.04.41.05.6.08.16.23.28.38.39.61.47,1.26.93,2.02,1.06s1.64-.15,1.97-.84c.05-.1.08-.21.07-.32-.02-.18-.15-.32-.25-.46-.33-.48-.34-1.11-.49-1.67s-.57-1.17-1.16-1.13"/>
    <path class="cls-9" d="m188.12,239.95c-.11,2.78,1.24,5.45,3.1,7.52s4.21,3.61,6.54,5.14c.96.63,1.96,1.27,3.09,1.45.87.14,1.76,0,2.62-.17,3.15-.59,6.25-1.4,9.29-2.43,1.43-.49,2.89-1.04,4.02-2.05,1.57-1.41,2.31-3.56,2.42-5.67s-.33-4.2-.8-6.25c-.25-1.11-.52-2.24-1.11-3.22-1.04-1.71-2.9-2.71-4.69-3.61-4.7-2.38-10.47-5.12-15.42-2.22-3.93,2.3-8.86,6.62-9.05,11.52Z"/>
    <path class="cls-20" d="m192.86,236.88c-.98,1.1-1.1,2.87-.28,4.09.13.19.29.38.51.47.2.08.41.06.62.04.88-.08,1.79-.2,2.54-.68s1.27-1.41,1-2.25c-.04-.12-.09-.24-.19-.32-.15-.13-.37-.15-.57-.2-.66-.15-1.15-.67-1.72-1.03s-1.4-.54-1.86-.05"/>
    <path class="cls-20" d="m199.01,230.38c-.85.96-.95,2.49-.25,3.56.11.17.25.33.44.41.17.07.36.05.54.03.76-.07,1.56-.18,2.2-.59s1.1-1.22.87-1.96c-.03-.1-.08-.21-.16-.28-.13-.12-.32-.13-.5-.17-.57-.13-1-.58-1.49-.9s-1.21-.47-1.62-.04"/>
    <path class="cls-20" d="m199.62,244.96c-.86-.29-1.89.06-2.39.81-.08.12-.15.25-.14.4,0,.13.07.25.13.36.26.48.54.97.99,1.27s1.1.38,1.51.03c.06-.05.11-.11.14-.18.04-.12,0-.25-.02-.37-.07-.41.11-.81.18-1.22s-.03-.92-.42-1.06"/>
    <path class="cls-20" d="m212.61,241.95c-.64.72-.72,1.88-.19,2.69.08.13.19.25.33.31.13.05.27.04.41.03.58-.06,1.18-.13,1.66-.45s.83-.92.66-1.48c-.02-.08-.06-.16-.12-.21-.1-.09-.24-.1-.37-.13-.43-.1-.76-.44-1.13-.68s-.92-.35-1.22-.03"/>
    <path class="cls-20" d="m204.3,237.67c-.98,1.1-1.1,2.87-.28,4.09.13.19.29.38.51.47.2.08.41.06.62.04.88-.08,1.79-.2,2.54-.68s1.27-1.41,1-2.25c-.04-.12-.09-.24-.19-.32-.15-.13-.37-.15-.57-.2-.66-.15-1.15-.67-1.72-1.03s-1.4-.54-1.86-.05"/>
    <path class="cls-20" d="m211.1,233.93c-.64.72-.72,1.88-.19,2.69.08.13.19.25.33.31.13.05.27.04.41.03.58-.06,1.18-.13,1.66-.45s.83-.92.66-1.48c-.02-.08-.06-.16-.12-.21-.1-.09-.24-.1-.37-.13-.43-.1-.76-.44-1.13-.68s-.92-.35-1.22-.03"/>
    <path class="cls-20" d="m204.99,246.91c-.85.96-.95,2.49-.25,3.56.11.17.25.33.44.41.17.07.36.05.54.03.76-.07,1.56-.18,2.2-.59s1.1-1.22.87-1.96c-.03-.1-.08-.21-.16-.28-.13-.12-.32-.13-.5-.17-.57-.13-1-.58-1.49-.9s-1.21-.47-1.62-.04"/>
    <path class="cls-9" d="m206.99,251.18c-1.26,2.12-1.34,4.77-.77,7.17s1.75,4.6,2.92,6.77c.48.9.99,1.82,1.79,2.44.62.48,1.37.74,2.11.98,2.7.87,5.46,1.55,8.26,2.04,1.32.23,2.69.41,4,.1,1.82-.43,3.3-1.8,4.28-3.39s1.52-3.41,2.02-5.21c.27-.97.54-1.97.49-2.98-.08-1.77-1.11-3.34-2.12-4.8-2.65-3.84-5.99-8.42-11.07-8.25-4.03.13-9.7,1.41-11.92,5.14Z"/>
    <path class="cls-20" d="m211.97,250.8c-1.23.44-2.07,1.77-1.95,3.07.02.21.06.42.2.58.12.14.3.22.47.29.72.31,1.48.6,2.26.54s1.59-.56,1.73-1.33c.02-.11.03-.23,0-.33-.06-.17-.23-.28-.36-.39-.45-.4-.61-1.01-.9-1.53s-.86-1.01-1.43-.82"/>
    <path class="cls-20" d="m219.51,248.34c-1.06.39-1.8,1.54-1.7,2.67.02.18.05.36.17.5.1.12.26.19.41.26.63.27,1.29.52,1.97.47s1.38-.49,1.51-1.15c.02-.1.02-.2,0-.29-.05-.15-.2-.24-.31-.34-.39-.34-.53-.88-.78-1.33s-.75-.88-1.24-.71"/>
    <path class="cls-20" d="m213.82,259.95c-.54-.59-1.49-.75-2.2-.37-.11.06-.22.14-.28.25-.05.1-.05.22-.05.34,0,.48.01.98.23,1.41s.69.76,1.16.67c.07-.01.13-.04.18-.08.08-.08.1-.19.14-.3.12-.35.43-.59.65-.88s.37-.73.13-1"/>
    <path class="cls-20" d="m225.21,263.1c-.8.29-1.36,1.16-1.28,2.01.01.13.04.28.13.38.08.09.2.15.31.19.47.2.97.39,1.48.36s1.04-.37,1.14-.87c.01-.07.02-.15,0-.22-.04-.11-.15-.18-.24-.26-.29-.26-.4-.66-.59-1.01s-.57-.66-.94-.54"/>
    <path class="cls-20" d="m220.55,256.26c-1.23.44-2.07,1.77-1.95,3.07.02.21.06.42.2.58.12.14.3.22.47.29.72.31,1.48.6,2.26.54s1.59-.56,1.73-1.33c.02-.11.03-.23,0-.33-.06-.17-.23-.28-.36-.39-.45-.4-.61-1.01-.9-1.53s-.86-1.01-1.43-.82"/>
    <path class="cls-20" d="m227.42,256.22c-.8.29-1.36,1.16-1.28,2.01.01.13.04.28.13.38.08.09.2.15.31.19.47.2.97.39,1.48.36s1.04-.37,1.14-.87c.01-.07.02-.15,0-.22-.04-.11-.15-.18-.24-.26-.29-.26-.4-.66-.59-1.01s-.57-.66-.94-.54"/>
    <path class="cls-20" d="m217.17,263.74c-1.06.39-1.8,1.54-1.7,2.67.02.18.05.36.17.5.1.12.26.19.41.26.63.27,1.29.52,1.97.47s1.38-.49,1.51-1.15c.02-.1.02-.2,0-.29-.05-.15-.2-.24-.31-.34-.39-.34-.53-.88-.78-1.33s-.75-.88-1.24-.71"/>
    <path class="cls-9" d="m227.55,255.66c-.7,2.69.04,5.59,1.41,8.01s3.34,4.43,5.28,6.42c.8.82,1.64,1.66,2.71,2.08.82.32,1.72.37,2.6.4,3.2.1,6.41-.03,9.59-.38,1.51-.17,3.05-.4,4.36-1.14,1.83-1.04,3.02-2.98,3.58-5.01s.58-4.17.56-6.28c0-1.14-.03-2.3-.4-3.38-.65-1.89-2.25-3.27-3.8-4.54-4.08-3.33-9.13-7.25-14.58-5.48-4.33,1.4-10.08,4.57-11.31,9.3Z"/>
    <path class="cls-20" d="m232.83,253.68c-1.19.87-1.69,2.57-1.15,3.94.08.22.2.43.39.56.18.12.39.15.6.17.88.11,1.79.19,2.62-.12s1.54-1.1,1.46-1.98c-.01-.13-.04-.25-.11-.36-.12-.16-.33-.23-.51-.32-.61-.29-.98-.9-1.46-1.38s-1.25-.82-1.81-.44"/>
    <path class="cls-20" d="m240.23,248.65c-1.03.75-1.47,2.23-1,3.42.07.19.17.38.34.49.15.1.34.13.52.15.76.09,1.56.16,2.28-.1s1.34-.96,1.27-1.72c0-.11-.03-.22-.1-.31-.1-.14-.29-.2-.45-.27-.53-.25-.85-.79-1.27-1.2s-1.09-.71-1.57-.39"/>
    <path class="cls-20" d="m237.69,263.02c-.77-.47-1.86-.34-2.5.28-.1.1-.2.22-.23.36-.02.13.01.26.05.38.15.52.32,1.06.69,1.46s.99.61,1.47.36c.07-.04.13-.08.17-.15.06-.11.05-.24.06-.37.02-.41.28-.77.43-1.15s.17-.9-.18-1.13"/>
    <path class="cls-20" d="m251.04,262.87c-.78.57-1.11,1.68-.76,2.58.06.14.13.29.26.37.12.08.26.1.39.11.58.07,1.18.12,1.72-.08s1.01-.72.96-1.3c0-.08-.03-.17-.07-.23-.08-.11-.22-.15-.34-.21-.4-.19-.64-.59-.96-.91s-.82-.54-1.19-.29"/>
    <path class="cls-20" d="m243.84,256.91c-1.19.87-1.69,2.57-1.15,3.94.08.22.2.43.39.56.18.12.39.15.6.17.88.11,1.79.19,2.62-.12s1.54-1.1,1.46-1.98c-.01-.13-.04-.25-.11-.36-.12-.16-.33-.23-.51-.32-.61-.29-.98-.9-1.46-1.38s-1.25-.82-1.81-.44"/>
    <path class="cls-20" d="m251.28,254.72c-.78.57-1.11,1.68-.76,2.58.06.14.13.29.26.37.12.08.26.1.39.11.58.07,1.18.12,1.72-.08s1.01-.72.96-1.3c0-.08-.03-.17-.07-.23-.08-.11-.22-.15-.34-.21-.4-.19-.64-.59-.96-.91s-.82-.54-1.19-.29"/>
    <path class="cls-20" d="m242.52,266.09c-1.03.75-1.47,2.23-1,3.42.07.19.17.38.34.49.15.1.34.13.52.15.76.09,1.56.16,2.28-.1s1.34-.96,1.27-1.72c0-.11-.03-.22-.1-.31-.1-.14-.29-.2-.45-.27-.53-.25-.85-.79-1.27-1.2s-1.09-.71-1.57-.39"/>
    <path class="cls-9" d="m244.55,241.66c-.7,2.69.04,5.59,1.41,8.01s3.34,4.43,5.28,6.42c.8.82,1.64,1.66,2.71,2.08.82.32,1.72.37,2.6.4,3.2.1,6.41-.03,9.59-.38,1.51-.17,3.05-.4,4.36-1.14,1.83-1.04,3.02-2.98,3.58-5.01s.58-4.17.56-6.28c0-1.14-.03-2.3-.4-3.38-.65-1.89-2.25-3.27-3.8-4.54-4.08-3.33-9.13-7.25-14.58-5.48-4.33,1.4-10.08,4.57-11.31,9.3Z"/>
    <path class="cls-20" d="m249.83,239.68c-1.19.87-1.69,2.57-1.15,3.94.08.22.2.43.39.56.18.12.39.15.6.17.88.11,1.79.19,2.62-.12s1.54-1.1,1.46-1.98c-.01-.13-.04-.25-.11-.36-.12-.16-.33-.23-.51-.32-.61-.29-.98-.9-1.46-1.38s-1.25-.82-1.81-.44"/>
    <path class="cls-20" d="m257.23,234.65c-1.03.75-1.47,2.23-1,3.42.07.19.17.38.34.49.15.1.34.13.52.15.76.09,1.56.16,2.28-.1s1.34-.96,1.27-1.72c0-.11-.03-.22-.1-.31-.1-.14-.29-.2-.45-.27-.53-.25-.85-.79-1.27-1.2s-1.09-.71-1.57-.39"/>
    <path class="cls-20" d="m254.69,249.02c-.77-.47-1.86-.34-2.5.28-.1.1-.2.22-.23.36-.02.13.01.26.05.38.15.52.32,1.06.69,1.46s.99.61,1.47.36c.07-.04.13-.08.17-.15.06-.11.05-.24.06-.37.02-.41.28-.77.43-1.15s.17-.9-.18-1.13"/>
    <path class="cls-20" d="m268.04,248.87c-.78.57-1.11,1.68-.76,2.58.06.14.13.29.26.37.12.08.26.1.39.11.58.07,1.18.12,1.72-.08s1.01-.72.96-1.3c0-.08-.03-.17-.07-.23-.08-.11-.22-.15-.34-.21-.4-.19-.64-.59-.96-.91s-.82-.54-1.19-.29"/>
    <path class="cls-20" d="m260.84,242.91c-1.19.87-1.69,2.57-1.15,3.94.08.22.2.43.39.56.18.12.39.15.6.17.88.11,1.79.19,2.62-.12s1.54-1.1,1.46-1.98c-.01-.13-.04-.25-.11-.36-.12-.16-.33-.23-.51-.32-.61-.29-.98-.9-1.46-1.38s-1.25-.82-1.81-.44"/>
    <path class="cls-20" d="m268.28,240.72c-.78.57-1.11,1.68-.76,2.58.06.14.13.29.26.37.12.08.26.1.39.11.58.07,1.18.12,1.72-.08s1.01-.72.96-1.3c0-.08-.03-.17-.07-.23-.08-.11-.22-.15-.34-.21-.4-.19-.64-.59-.96-.91s-.82-.54-1.19-.29"/>
    <path class="cls-20" d="m259.52,252.09c-1.03.75-1.47,2.23-1,3.42.07.19.17.38.34.49.15.1.34.13.52.15.76.09,1.56.16,2.28-.1s1.34-.96,1.27-1.72c0-.11-.03-.22-.1-.31-.1-.14-.29-.2-.45-.27-.53-.25-.85-.79-1.27-1.2s-1.09-.71-1.57-.39"/>
    <path class="cls-9" d="m247.55,217.66c-.7,2.69.04,5.59,1.41,8.01s3.34,4.43,5.28,6.42c.8.82,1.64,1.66,2.71,2.08.82.32,1.72.37,2.6.4,3.2.1,6.41-.03,9.59-.38,1.51-.17,3.05-.4,4.36-1.14,1.83-1.04,3.02-2.98,3.58-5.01s.58-4.17.56-6.28c0-1.14-.03-2.3-.4-3.38-.65-1.89-2.25-3.27-3.8-4.54-4.08-3.33-9.13-7.25-14.58-5.48-4.33,1.4-10.08,4.57-11.31,9.3Z"/>
    <path class="cls-20" d="m252.83,215.68c-1.19.87-1.69,2.57-1.15,3.94.08.22.2.43.39.56.18.12.39.15.6.17.88.11,1.79.19,2.62-.12s1.54-1.1,1.46-1.98c-.01-.13-.04-.25-.11-.36-.12-.16-.33-.23-.51-.32-.61-.29-.98-.9-1.46-1.38s-1.25-.82-1.81-.44"/>
    <path class="cls-20" d="m260.23,210.65c-1.03.75-1.47,2.23-1,3.42.07.19.17.38.34.49.15.1.34.13.52.15.76.09,1.56.16,2.28-.1s1.34-.96,1.27-1.72c0-.11-.03-.22-.1-.31-.1-.14-.29-.2-.45-.27-.53-.25-.85-.79-1.27-1.2s-1.09-.71-1.57-.39"/>
    <path class="cls-20" d="m257.69,225.02c-.77-.47-1.86-.34-2.5.28-.1.1-.2.22-.23.36-.02.13.01.26.05.38.15.52.32,1.06.69,1.46s.99.61,1.47.36c.07-.04.13-.08.17-.15.06-.11.05-.24.06-.37.02-.41.28-.77.43-1.15s.17-.9-.18-1.13"/>
    <path class="cls-20" d="m271.04,224.87c-.78.57-1.11,1.68-.76,2.58.06.14.13.29.26.37.12.08.26.1.39.11.58.07,1.18.12,1.72-.08s1.01-.72.96-1.3c0-.08-.03-.17-.07-.23-.08-.11-.22-.15-.34-.21-.4-.19-.64-.59-.96-.91s-.82-.54-1.19-.29"/>
    <path class="cls-20" d="m263.84,218.91c-1.19.87-1.69,2.57-1.15,3.94.08.22.2.43.39.56.18.12.39.15.6.17.88.11,1.79.19,2.62-.12s1.54-1.1,1.46-1.98c-.01-.13-.04-.25-.11-.36-.12-.16-.33-.23-.51-.32-.61-.29-.98-.9-1.46-1.38s-1.25-.82-1.81-.44"/>
    <path class="cls-20" d="m271.28,216.72c-.78.57-1.11,1.68-.76,2.58.06.14.13.29.26.37.12.08.26.1.39.11.58.07,1.18.12,1.72-.08s1.01-.72.96-1.3c0-.08-.03-.17-.07-.23-.08-.11-.22-.15-.34-.21-.4-.19-.64-.59-.96-.91s-.82-.54-1.19-.29"/>
    <path class="cls-20" d="m262.52,228.09c-1.03.75-1.47,2.23-1,3.42.07.19.17.38.34.49.15.1.34.13.52.15.76.09,1.56.16,2.28-.1s1.34-.96,1.27-1.72c0-.11-.03-.22-.1-.31-.1-.14-.29-.2-.45-.27-.53-.25-.85-.79-1.27-1.2s-1.09-.71-1.57-.39"/>
    <path class="cls-9" d="m238.55,196.66c-.7,2.69.04,5.59,1.41,8.01s3.34,4.43,5.28,6.42c.8.82,1.64,1.66,2.71,2.08.82.32,1.72.37,2.6.4,3.2.1,6.41-.03,9.59-.38,1.51-.17,3.05-.4,4.36-1.14,1.83-1.04,3.02-2.98,3.58-5.01s.58-4.17.56-6.28c0-1.14-.03-2.3-.4-3.38-.65-1.89-2.25-3.27-3.8-4.54-4.08-3.33-9.13-7.25-14.58-5.48-4.33,1.4-10.08,4.57-11.31,9.3Z"/>
    <path class="cls-20" d="m243.83,194.68c-1.19.87-1.69,2.57-1.15,3.94.08.22.2.43.39.56.18.12.39.15.6.17.88.11,1.79.19,2.62-.12s1.54-1.1,1.46-1.98c-.01-.13-.04-.25-.11-.36-.12-.16-.33-.23-.51-.32-.61-.29-.98-.9-1.46-1.38s-1.25-.82-1.81-.44"/>
    <path class="cls-20" d="m251.23,189.65c-1.03.75-1.47,2.23-1,3.42.07.19.17.38.34.49.15.1.34.13.52.15.76.09,1.56.16,2.28-.1s1.34-.96,1.27-1.72c0-.11-.03-.22-.1-.31-.1-.14-.29-.2-.45-.27-.53-.25-.85-.79-1.27-1.2s-1.09-.71-1.57-.39"/>
    <path class="cls-20" d="m248.69,204.02c-.77-.47-1.86-.34-2.5.28-.1.1-.2.22-.23.36-.02.13.01.26.05.38.15.52.32,1.06.69,1.46s.99.61,1.47.36c.07-.04.13-.08.17-.15.06-.11.05-.24.06-.37.02-.41.28-.77.43-1.15s.17-.9-.18-1.13"/>
    <path class="cls-20" d="m262.04,203.87c-.78.57-1.11,1.68-.76,2.58.06.14.13.29.26.37.12.08.26.1.39.11.58.07,1.18.12,1.72-.08s1.01-.72.96-1.3c0-.08-.03-.17-.07-.23-.08-.11-.22-.15-.34-.21-.4-.19-.64-.59-.96-.91s-.82-.54-1.19-.29"/>
    <path class="cls-20" d="m254.84,197.91c-1.19.87-1.69,2.57-1.15,3.94.08.22.2.43.39.56.18.12.39.15.6.17.88.11,1.79.19,2.62-.12s1.54-1.1,1.46-1.98c-.01-.13-.04-.25-.11-.36-.12-.16-.33-.23-.51-.32-.61-.29-.98-.9-1.46-1.38s-1.25-.82-1.81-.44"/>
    <path class="cls-20" d="m262.28,195.72c-.78.57-1.11,1.68-.76,2.58.06.14.13.29.26.37.12.08.26.1.39.11.58.07,1.18.12,1.72-.08s1.01-.72.96-1.3c0-.08-.03-.17-.07-.23-.08-.11-.22-.15-.34-.21-.4-.19-.64-.59-.96-.91s-.82-.54-1.19-.29"/>
    <path class="cls-20" d="m253.52,207.09c-1.03.75-1.47,2.23-1,3.42.07.19.17.38.34.49.15.1.34.13.52.15.76.09,1.56.16,2.28-.1s1.34-.96,1.27-1.72c0-.11-.03-.22-.1-.31-.1-.14-.29-.2-.45-.27-.53-.25-.85-.79-1.27-1.2s-1.09-.71-1.57-.39"/>
    <path class="cls-9" d="m220.55,194.66c-.7,2.69.04,5.59,1.41,8.01s3.34,4.43,5.28,6.42c.8.82,1.64,1.66,2.71,2.08.82.32,1.72.37,2.6.4,3.2.1,6.41-.03,9.59-.38,1.51-.17,3.05-.4,4.36-1.14,1.83-1.04,3.02-2.98,3.58-5.01s.58-4.17.56-6.28c0-1.14-.03-2.3-.4-3.38-.65-1.89-2.25-3.27-3.8-4.54-4.08-3.33-9.13-7.25-14.58-5.48-4.33,1.4-10.08,4.57-11.31,9.3Z"/>
    <path class="cls-20" d="m225.83,192.68c-1.19.87-1.69,2.57-1.15,3.94.08.22.2.43.39.56.18.12.39.15.6.17.88.11,1.79.19,2.62-.12s1.54-1.1,1.46-1.98c-.01-.13-.04-.25-.11-.36-.12-.16-.33-.23-.51-.32-.61-.29-.98-.9-1.46-1.38s-1.25-.82-1.81-.44"/>
    <path class="cls-20" d="m233.23,187.65c-1.03.75-1.47,2.23-1,3.42.07.19.17.38.34.49.15.1.34.13.52.15.76.09,1.56.16,2.28-.1s1.34-.96,1.27-1.72c0-.11-.03-.22-.1-.31-.1-.14-.29-.2-.45-.27-.53-.25-.85-.79-1.27-1.2s-1.09-.71-1.57-.39"/>
    <path class="cls-20" d="m230.69,202.02c-.77-.47-1.86-.34-2.5.28-.1.1-.2.22-.23.36-.02.13.01.26.05.38.15.52.32,1.06.69,1.46s.99.61,1.47.36c.07-.04.13-.08.17-.15.06-.11.05-.24.06-.37.02-.41.28-.77.43-1.15s.17-.9-.18-1.13"/>
    <path class="cls-20" d="m244.04,201.87c-.78.57-1.11,1.68-.76,2.58.06.14.13.29.26.37.12.08.26.1.39.11.58.07,1.18.12,1.72-.08s1.01-.72.96-1.3c0-.08-.03-.17-.07-.23-.08-.11-.22-.15-.34-.21-.4-.19-.64-.59-.96-.91s-.82-.54-1.19-.29"/>
    <path class="cls-20" d="m236.84,195.91c-1.19.87-1.69,2.57-1.15,3.94.08.22.2.43.39.56.18.12.39.15.6.17.88.11,1.79.19,2.62-.12s1.54-1.1,1.46-1.98c-.01-.13-.04-.25-.11-.36-.12-.16-.33-.23-.51-.32-.61-.29-.98-.9-1.46-1.38s-1.25-.82-1.81-.44"/>
    <path class="cls-20" d="m244.28,193.72c-.78.57-1.11,1.68-.76,2.58.06.14.13.29.26.37.12.08.26.1.39.11.58.07,1.18.12,1.72-.08s1.01-.72.96-1.3c0-.08-.03-.17-.07-.23-.08-.11-.22-.15-.34-.21-.4-.19-.64-.59-.96-.91s-.82-.54-1.19-.29"/>
    <path class="cls-20" d="m235.52,205.09c-1.03.75-1.47,2.23-1,3.42.07.19.17.38.34.49.15.1.34.13.52.15.76.09,1.56.16,2.28-.1s1.34-.96,1.27-1.72c0-.11-.03-.22-.1-.31-.1-.14-.29-.2-.45-.27-.53-.25-.85-.79-1.27-1.2s-1.09-.71-1.57-.39"/>
    <path class="cls-9" d="m212.01,251.4c.88,2.64,3.09,4.66,5.56,5.94s5.22,1.89,7.93,2.49c1.12.25,2.28.5,3.41.26.86-.18,1.64-.63,2.39-1.09,2.73-1.67,5.35-3.53,7.82-5.56,1.17-.96,2.33-2,3.03-3.34.97-1.87.9-4.15.26-6.16s-1.8-3.81-2.96-5.56c-.63-.95-1.28-1.91-2.18-2.61-1.58-1.23-3.68-1.51-5.67-1.72-5.24-.56-11.61-1.08-15.21,3.38-2.86,3.54-5.94,9.33-4.39,13.98Z"/>
    <path class="cls-20" d="m215.35,246.86c-.52,1.38-.01,3.07,1.19,3.93.19.14.4.25.64.26.21,0,.41-.09.6-.18.79-.39,1.6-.82,2.13-1.53s.69-1.77.14-2.46c-.08-.1-.17-.19-.29-.24-.19-.07-.4,0-.6.02-.67.09-1.32-.22-1.97-.36s-1.5,0-1.76.62"/>
    <path class="cls-20" d="m218.8,238.6c-.45,1.2,0,2.67,1.03,3.41.16.12.35.22.55.22.18,0,.36-.08.52-.16.69-.34,1.39-.72,1.85-1.33s.6-1.54.12-2.14c-.07-.09-.15-.17-.25-.2-.17-.06-.35,0-.52.02-.58.08-1.14-.19-1.72-.31s-1.3,0-1.53.54"/>
    <path class="cls-20" d="m224.53,252.02c-.9.03-1.74.73-1.94,1.61-.03.14-.05.29,0,.42.05.12.15.21.25.29.41.36.85.71,1.38.84s1.16-.03,1.43-.5c.04-.07.07-.14.06-.22,0-.13-.09-.23-.15-.34-.21-.36-.19-.8-.27-1.2s-.35-.85-.77-.85"/>
    <path class="cls-20" d="m235.62,244.6c-.34.9,0,2.02.78,2.58.12.09.27.17.42.17.14,0,.27-.06.39-.12.52-.26,1.05-.54,1.4-1.01s.45-1.16.09-1.62c-.05-.06-.11-.13-.19-.15-.13-.05-.26,0-.4.01-.44.06-.86-.15-1.3-.24s-.98,0-1.15.4"/>
    <path class="cls-20" d="m226.33,243.54c-.52,1.38-.01,3.07,1.19,3.93.19.14.4.25.64.26.21,0,.41-.09.6-.18.79-.39,1.6-.82,2.13-1.53s.69-1.77.14-2.46c-.08-.1-.17-.19-.29-.24-.19-.07-.4,0-.6.02-.67.09-1.32-.22-1.97-.36s-1.5,0-1.76.62"/>
    <path class="cls-20" d="m231.37,237.64c-.34.9,0,2.02.78,2.58.12.09.27.17.42.17.14,0,.27-.06.39-.12.52-.26,1.05-.54,1.4-1.01s.45-1.16.09-1.62c-.05-.06-.11-.13-.19-.15-.13-.05-.26,0-.4.01-.44.06-.86-.15-1.3-.24s-.98,0-1.15.4"/>
    <path class="cls-20" d="m230.25,251.94c-.45,1.2,0,2.67,1.03,3.41.16.12.35.22.55.22.18,0,.36-.08.52-.16.69-.34,1.39-.72,1.85-1.33s.6-1.54.12-2.14c-.07-.09-.15-.17-.25-.2-.17-.06-.35,0-.52.02-.58.08-1.14-.19-1.72-.31s-1.3,0-1.53.54"/>
    <path class="cls-9" d="m200.55,227.66c-.7,2.69.04,5.59,1.41,8.01s3.34,4.43,5.28,6.42c.8.82,1.64,1.66,2.71,2.08.82.32,1.72.37,2.6.4,3.2.1,6.41-.03,9.59-.38,1.51-.17,3.05-.4,4.36-1.14,1.83-1.04,3.02-2.98,3.58-5.01s.58-4.17.56-6.28c0-1.14-.03-2.3-.4-3.38-.65-1.89-2.25-3.27-3.8-4.54-4.08-3.33-9.13-7.25-14.58-5.48-4.33,1.4-10.08,4.57-11.31,9.3Z"/>
    <path class="cls-20" d="m205.83,225.68c-1.19.87-1.69,2.57-1.15,3.94.08.22.2.43.39.56.18.12.39.15.6.17.88.11,1.79.19,2.62-.12s1.54-1.1,1.46-1.98c-.01-.13-.04-.25-.11-.36-.12-.16-.33-.23-.51-.32-.61-.29-.98-.9-1.46-1.38s-1.25-.82-1.81-.44"/>
    <path class="cls-20" d="m213.23,220.65c-1.03.75-1.47,2.23-1,3.42.07.19.17.38.34.49.15.1.34.13.52.15.76.09,1.56.16,2.28-.1s1.34-.96,1.27-1.72c0-.11-.03-.22-.1-.31-.1-.14-.29-.2-.45-.27-.53-.25-.85-.79-1.27-1.2s-1.09-.71-1.57-.39"/>
    <path class="cls-20" d="m210.69,235.02c-.77-.47-1.86-.34-2.5.28-.1.1-.2.22-.23.36-.02.13.01.26.05.38.15.52.32,1.06.69,1.46s.99.61,1.47.36c.07-.04.13-.08.17-.15.06-.11.05-.24.06-.37.02-.41.28-.77.43-1.15s.17-.9-.18-1.13"/>
    <path class="cls-20" d="m224.04,234.87c-.78.57-1.11,1.68-.76,2.58.06.14.13.29.26.37.12.08.26.1.39.11.58.07,1.18.12,1.72-.08s1.01-.72.96-1.3c0-.08-.03-.17-.07-.23-.08-.11-.22-.15-.34-.21-.4-.19-.64-.59-.96-.91s-.82-.54-1.19-.29"/>
    <path class="cls-20" d="m216.84,228.91c-1.19.87-1.69,2.57-1.15,3.94.08.22.2.43.39.56.18.12.39.15.6.17.88.11,1.79.19,2.62-.12s1.54-1.1,1.46-1.98c-.01-.13-.04-.25-.11-.36-.12-.16-.33-.23-.51-.32-.61-.29-.98-.9-1.46-1.38s-1.25-.82-1.81-.44"/>
    <path class="cls-20" d="m224.28,226.72c-.78.57-1.11,1.68-.76,2.58.06.14.13.29.26.37.12.08.26.1.39.11.58.07,1.18.12,1.72-.08s1.01-.72.96-1.3c0-.08-.03-.17-.07-.23-.08-.11-.22-.15-.34-.21-.4-.19-.64-.59-.96-.91s-.82-.54-1.19-.29"/>
    <path class="cls-20" d="m215.52,238.09c-1.03.75-1.47,2.23-1,3.42.07.19.17.38.34.49.15.1.34.13.52.15.76.09,1.56.16,2.28-.1s1.34-.96,1.27-1.72c0-.11-.03-.22-.1-.31-.1-.14-.29-.2-.45-.27-.53-.25-.85-.79-1.27-1.2s-1.09-.71-1.57-.39"/>
    <path class="cls-9" d="m207.55,206.66c-.7,2.69.04,5.59,1.41,8.01s3.34,4.43,5.28,6.42c.8.82,1.64,1.66,2.71,2.08.82.32,1.72.37,2.6.4,3.2.1,6.41-.03,9.59-.38,1.51-.17,3.05-.4,4.36-1.14,1.83-1.04,3.02-2.98,3.58-5.01s.58-4.17.56-6.28c0-1.14-.03-2.3-.4-3.38-.65-1.89-2.25-3.27-3.8-4.54-4.08-3.33-9.13-7.25-14.58-5.48-4.33,1.4-10.08,4.57-11.31,9.3Z"/>
    <path class="cls-20" d="m212.83,204.68c-1.19.87-1.69,2.57-1.15,3.94.08.22.2.43.39.56.18.12.39.15.6.17.88.11,1.79.19,2.62-.12s1.54-1.1,1.46-1.98c-.01-.13-.04-.25-.11-.36-.12-.16-.33-.23-.51-.32-.61-.29-.98-.9-1.46-1.38s-1.25-.82-1.81-.44"/>
    <path class="cls-20" d="m220.23,199.65c-1.03.75-1.47,2.23-1,3.42.07.19.17.38.34.49.15.1.34.13.52.15.76.09,1.56.16,2.28-.1s1.34-.96,1.27-1.72c0-.11-.03-.22-.1-.31-.1-.14-.29-.2-.45-.27-.53-.25-.85-.79-1.27-1.2s-1.09-.71-1.57-.39"/>
    <path class="cls-20" d="m217.69,214.02c-.77-.47-1.86-.34-2.5.28-.1.1-.2.22-.23.36-.02.13.01.26.05.38.15.52.32,1.06.69,1.46s.99.61,1.47.36c.07-.04.13-.08.17-.15.06-.11.05-.24.06-.37.02-.41.28-.77.43-1.15s.17-.9-.18-1.13"/>
    <path class="cls-20" d="m231.04,213.87c-.78.57-1.11,1.68-.76,2.58.06.14.13.29.26.37.12.08.26.1.39.11.58.07,1.18.12,1.72-.08s1.01-.72.96-1.3c0-.08-.03-.17-.07-.23-.08-.11-.22-.15-.34-.21-.4-.19-.64-.59-.96-.91s-.82-.54-1.19-.29"/>
    <path class="cls-20" d="m223.84,207.91c-1.19.87-1.69,2.57-1.15,3.94.08.22.2.43.39.56.18.12.39.15.6.17.88.11,1.79.19,2.62-.12s1.54-1.1,1.46-1.98c-.01-.13-.04-.25-.11-.36-.12-.16-.33-.23-.51-.32-.61-.29-.98-.9-1.46-1.38s-1.25-.82-1.81-.44"/>
    <path class="cls-20" d="m231.28,205.72c-.78.57-1.11,1.68-.76,2.58.06.14.13.29.26.37.12.08.26.1.39.11.58.07,1.18.12,1.72-.08s1.01-.72.96-1.3c0-.08-.03-.17-.07-.23-.08-.11-.22-.15-.34-.21-.4-.19-.64-.59-.96-.91s-.82-.54-1.19-.29"/>
    <path class="cls-20" d="m222.52,217.09c-1.03.75-1.47,2.23-1,3.42.07.19.17.38.34.49.15.1.34.13.52.15.76.09,1.56.16,2.28-.1s1.34-.96,1.27-1.72c0-.11-.03-.22-.1-.31-.1-.14-.29-.2-.45-.27-.53-.25-.85-.79-1.27-1.2s-1.09-.71-1.57-.39"/>
    <path class="cls-9" d="m230.55,208.66c-.7,2.69.04,5.59,1.41,8.01s3.34,4.43,5.28,6.42c.8.82,1.64,1.66,2.71,2.08.82.32,1.72.37,2.6.4,3.2.1,6.41-.03,9.59-.38,1.51-.17,3.05-.4,4.36-1.14,1.83-1.04,3.02-2.98,3.58-5.01s.58-4.17.56-6.28c0-1.14-.03-2.3-.4-3.38-.65-1.89-2.25-3.27-3.8-4.54-4.08-3.33-9.13-7.25-14.58-5.48-4.33,1.4-10.08,4.57-11.31,9.3Z"/>
    <path class="cls-20" d="m235.83,206.68c-1.19.87-1.69,2.57-1.15,3.94.08.22.2.43.39.56.18.12.39.15.6.17.88.11,1.79.19,2.62-.12s1.54-1.1,1.46-1.98c-.01-.13-.04-.25-.11-.36-.12-.16-.33-.23-.51-.32-.61-.29-.98-.9-1.46-1.38s-1.25-.82-1.81-.44"/>
    <path class="cls-20" d="m243.23,201.65c-1.03.75-1.47,2.23-1,3.42.07.19.17.38.34.49.15.1.34.13.52.15.76.09,1.56.16,2.28-.1s1.34-.96,1.27-1.72c0-.11-.03-.22-.1-.31-.1-.14-.29-.2-.45-.27-.53-.25-.85-.79-1.27-1.2s-1.09-.71-1.57-.39"/>
    <path class="cls-20" d="m240.69,216.02c-.77-.47-1.86-.34-2.5.28-.1.1-.2.22-.23.36-.02.13.01.26.05.38.15.52.32,1.06.69,1.46s.99.61,1.47.36c.07-.04.13-.08.17-.15.06-.11.05-.24.06-.37.02-.41.28-.77.43-1.15s.17-.9-.18-1.13"/>
    <path class="cls-20" d="m254.04,215.87c-.78.57-1.11,1.68-.76,2.58.06.14.13.29.26.37.12.08.26.1.39.11.58.07,1.18.12,1.72-.08s1.01-.72.96-1.3c0-.08-.03-.17-.07-.23-.08-.11-.22-.15-.34-.21-.4-.19-.64-.59-.96-.91s-.82-.54-1.19-.29"/>
    <path class="cls-20" d="m246.84,209.91c-1.19.87-1.69,2.57-1.15,3.94.08.22.2.43.39.56.18.12.39.15.6.17.88.11,1.79.19,2.62-.12s1.54-1.1,1.46-1.98c-.01-.13-.04-.25-.11-.36-.12-.16-.33-.23-.51-.32-.61-.29-.98-.9-1.46-1.38s-1.25-.82-1.81-.44"/>
    <path class="cls-20" d="m254.28,207.72c-.78.57-1.11,1.68-.76,2.58.06.14.13.29.26.37.12.08.26.1.39.11.58.07,1.18.12,1.72-.08s1.01-.72.96-1.3c0-.08-.03-.17-.07-.23-.08-.11-.22-.15-.34-.21-.4-.19-.64-.59-.96-.91s-.82-.54-1.19-.29"/>
    <path class="cls-20" d="m245.52,219.09c-1.03.75-1.47,2.23-1,3.42.07.19.17.38.34.49.15.1.34.13.52.15.76.09,1.56.16,2.28-.1s1.34-.96,1.27-1.72c0-.11-.03-.22-.1-.31-.1-.14-.29-.2-.45-.27-.53-.25-.85-.79-1.27-1.2s-1.09-.71-1.57-.39"/>
    <path class="cls-9" d="m233.55,230.66c-.7,2.69.04,5.59,1.41,8.01s3.34,4.43,5.28,6.42c.8.82,1.64,1.66,2.71,2.08.82.32,1.72.37,2.6.4,3.2.1,6.41-.03,9.59-.38,1.51-.17,3.05-.4,4.36-1.14,1.83-1.04,3.02-2.98,3.58-5.01s.58-4.17.56-6.28c0-1.14-.03-2.3-.4-3.38-.65-1.89-2.25-3.27-3.8-4.54-4.08-3.33-9.13-7.25-14.58-5.48-4.33,1.4-10.08,4.57-11.31,9.3Z"/>
    <path class="cls-20" d="m238.83,228.68c-1.19.87-1.69,2.57-1.15,3.94.08.22.2.43.39.56.18.12.39.15.6.17.88.11,1.79.19,2.62-.12s1.54-1.1,1.46-1.98c-.01-.13-.04-.25-.11-.36-.12-.16-.33-.23-.51-.32-.61-.29-.98-.9-1.46-1.38s-1.25-.82-1.81-.44"/>
    <path class="cls-20" d="m246.23,223.65c-1.03.75-1.47,2.23-1,3.42.07.19.17.38.34.49.15.1.34.13.52.15.76.09,1.56.16,2.28-.1s1.34-.96,1.27-1.72c0-.11-.03-.22-.1-.31-.1-.14-.29-.2-.45-.27-.53-.25-.85-.79-1.27-1.2s-1.09-.71-1.57-.39"/>
    <path class="cls-20" d="m243.69,238.02c-.77-.47-1.86-.34-2.5.28-.1.1-.2.22-.23.36-.02.13.01.26.05.38.15.52.32,1.06.69,1.46s.99.61,1.47.36c.07-.04.13-.08.17-.15.06-.11.05-.24.06-.37.02-.41.28-.77.43-1.15s.17-.9-.18-1.13"/>
    <path class="cls-20" d="m257.04,237.87c-.78.57-1.11,1.68-.76,2.58.06.14.13.29.26.37.12.08.26.1.39.11.58.07,1.18.12,1.72-.08s1.01-.72.96-1.3c0-.08-.03-.17-.07-.23-.08-.11-.22-.15-.34-.21-.4-.19-.64-.59-.96-.91s-.82-.54-1.19-.29"/>
    <path class="cls-20" d="m249.84,231.91c-1.19.87-1.69,2.57-1.15,3.94.08.22.2.43.39.56.18.12.39.15.6.17.88.11,1.79.19,2.62-.12s1.54-1.1,1.46-1.98c-.01-.13-.04-.25-.11-.36-.12-.16-.33-.23-.51-.32-.61-.29-.98-.9-1.46-1.38s-1.25-.82-1.81-.44"/>
    <path class="cls-20" d="m257.28,229.72c-.78.57-1.11,1.68-.76,2.58.06.14.13.29.26.37.12.08.26.1.39.11.58.07,1.18.12,1.72-.08s1.01-.72.96-1.3c0-.08-.03-.17-.07-.23-.08-.11-.22-.15-.34-.21-.4-.19-.64-.59-.96-.91s-.82-.54-1.19-.29"/>
    <path class="cls-20" d="m248.52,241.09c-1.03.75-1.47,2.23-1,3.42.07.19.17.38.34.49.15.1.34.13.52.15.76.09,1.56.16,2.28-.1s1.34-.96,1.27-1.72c0-.11-.03-.22-.1-.31-.1-.14-.29-.2-.45-.27-.53-.25-.85-.79-1.27-1.2s-1.09-.71-1.57-.39"/>
    <path class="cls-9" d="m220.86,215.22c-1.86,2.07-2.53,4.99-2.42,7.77s.94,5.47,1.75,8.13c.34,1.1.69,2.23,1.45,3.09.58.66,1.36,1.12,2.13,1.54,2.8,1.56,5.71,2.91,8.7,4.06,1.41.54,2.89,1.04,4.4.98,2.11-.08,4.05-1.27,5.48-2.81s2.43-3.44,3.38-5.32c.51-1.02,1.03-2.06,1.2-3.19.29-1.98-.5-3.94-1.3-5.78-2.1-4.83-4.79-10.63-10.45-11.56-4.49-.74-11.05-.56-14.32,3.08Z"/>
    <path class="cls-20" d="m226.46,215.89c-1.45.22-2.68,1.51-2.83,2.97-.02.23-.02.48.09.68.1.18.28.31.46.43.73.5,1.51.99,2.39,1.1s1.88-.27,2.21-1.09c.05-.12.08-.24.06-.37-.03-.2-.19-.35-.31-.52-.41-.54-.46-1.25-.66-1.89s-.73-1.3-1.4-1.22"/>
    <path class="cls-20" d="m235.34,214.81c-1.26.19-2.33,1.31-2.46,2.58-.02.2-.02.42.08.59.09.16.24.27.4.37.63.43,1.31.86,2.07.95s1.63-.24,1.92-.95c.04-.1.07-.21.05-.32-.03-.17-.17-.31-.27-.45-.35-.47-.4-1.09-.58-1.65s-.64-1.13-1.22-1.06"/>
    <path class="cls-20" d="m226.5,226.42c-.47-.77-1.49-1.16-2.36-.9-.14.04-.28.1-.36.21-.08.1-.11.23-.13.36-.11.53-.2,1.09-.05,1.61s.6,1,1.14.99c.08,0,.16-.01.22-.05.11-.07.16-.19.22-.3.21-.36.6-.56.91-.83s.56-.73.36-1.08"/>
    <path class="cls-20" d="m238.43,232.4c-.95.15-1.76.99-1.86,1.95-.02.15-.01.31.06.45.07.12.18.2.3.28.48.33.99.65,1.57.72s1.23-.18,1.45-.72c.03-.08.05-.16.04-.24-.02-.13-.12-.23-.21-.34-.27-.35-.3-.82-.44-1.24s-.48-.86-.92-.8"/>
    <path class="cls-20" d="m234.76,223.81c-1.45.22-2.68,1.51-2.83,2.97-.02.23-.02.48.09.68.1.18.28.31.46.43.73.5,1.51.99,2.39,1.1s1.88-.27,2.21-1.09c.05-.12.08-.24.06-.37-.03-.2-.19-.35-.31-.52-.41-.54-.46-1.25-.66-1.89s-.73-1.3-1.4-1.22"/>
    <path class="cls-20" d="m242.38,225.27c-.95.15-1.76.99-1.86,1.95-.02.15-.01.31.06.45.07.12.18.2.3.28.48.33.99.65,1.57.72s1.23-.18,1.45-.72c.03-.08.05-.16.04-.24-.02-.13-.12-.23-.21-.34-.27-.35-.3-.82-.44-1.24s-.48-.86-.92-.8"/>
    <path class="cls-20" d="m229.39,231.35c-1.26.19-2.33,1.31-2.46,2.58-.02.2-.02.42.08.59.09.16.24.27.4.37.63.43,1.31.86,2.07.95s1.63-.24,1.92-.95c.04-.1.07-.21.05-.32-.03-.17-.17-.31-.27-.45-.35-.47-.4-1.09-.58-1.65s-.64-1.13-1.22-1.06"/>
  </g>
  <g id="bog_n-h" data-name="bog n-h">
    <path class="cls-15" d="m460.59,356.68c-2.03-.44-3.33-2.34-4.53-4.04-4.14-5.89-9.31-10.95-14.45-15.98-15.42-15.08-30.84-30.17-46.26-45.25-.73-.71-1.51-1.45-2.5-1.65-1.16-.23-2.31.32-3.37.85-18.26,9.25-36.51,18.5-54.77,27.75,6.48,4.29,10.43,11.37,14.53,17.96,12.72,20.47,29.06,38.68,48.03,53.54,5.63,4.41,6.98,5.49,13.32,1.8,5.85-3.41,11.53-7.19,17.16-10.95,11.28-7.54,22.24-15.56,32.85-24.03Z"/>
    <rect class="cls-5" x="423.67" y="340.24" width="7.08" height="65.62" rx="1.54" ry="1.54" transform="translate(507.35 -188.42) rotate(56.99)"/>
    <path class="cls-15" d="m463.75,347.57c-2.03-.44-3.33-2.34-4.53-4.04-4.14-5.89-9.31-10.95-14.45-15.98-15.42-15.08-30.84-30.17-46.26-45.25-.73-.71-1.51-1.45-2.5-1.65-1.16-.23-2.31.32-3.37.85-18.26,9.25-36.51,18.5-54.77,27.75,6.48,4.29,10.43,11.37,14.53,17.96,12.72,20.47,29.06,38.68,48.03,53.54,5.63,4.41,6.98,5.49,13.32,1.8,5.85-3.41,11.53-7.19,17.16-10.95,11.28-7.54,22.24-15.56,32.85-24.03Z"/>
    <path class="cls-7" d="m407.27,385.92c.6,2.64-.38,5.9-2.34,7.03-3.88,2.23-11.6-3.73-19.66-10.91-13.53-12.05-17.31-15.94-34.1-38.91-.73-1-4.11-5.66-10.72-15.1-4.18-5.98-6.56-9.45-5.82-13.58.6-3.36,3-5.7,4.69-7.03,4.44,6.31,10.71,14.85,18.75,24.61,6.27,7.61,11.22,13.06,16.4,18.75,7.19,7.89,17.03,18.36,29.29,30.47.62.39,2.88,1.89,3.52,4.69Z"/>
  </g>
  <g id="bog_m-v" data-name="bog m-v">
    <path class="cls-19" d="m42.85,260.81c.34-4.78.97-9.59.28-14.33-.94-6.46-4.27-12.29-6.66-18.37-7-17.81-5.9-37.62-4.69-56.72.05-.72.11-1.49.59-2.02.49-.54,1.27-.69,1.99-.8,30.99-4.79,62.43-6.72,93.77-5.74,4.62,8.88,7.46,18.67,8.32,28.64.89,10.36-.32,20.98,2.34,31.04,1.37,5.18,3.75,10.12,4.43,15.44.71,5.58-.5,11.2-.89,16.81-1.42,20.75,8.41,40.8,8.58,61.6,0,.92-.03,1.92-.61,2.64-.57.71-1.52.96-2.41,1.17-24.2,5.75-49.02,8.87-73.89,9.28-6.39.11-23.95,3.08-27.5-3.73-1.35-2.59.13-6.76.33-9.45.39-5.07-.33-9.5-1.16-14.51-2.25-13.52-3.79-27.24-2.83-40.96Z"/>
    <path class="cls-3" d="m133.7,244.4c5.68-6.56-2.95-10.88-2.7-45.86.09-12.87,1.36-26.2-4.72-29-2.11-.97-4.3-.31-5.4,0-14.23,3.97-23.39-2.4-47.21-1.35-16.74.74-30.27,1.33-35.75,10.12-2.32,3.72-1.35,10.4.67,23.61,5.86,38.13,7.75,48.87,13.49,49.91,1.99.36,3.65-.59,4.43-1,21.22-11.27,64.64,8.05,77.17-6.42Z"/>
    <path class="cls-3" d="m59.51,323.98c-2.13-.12-3.76-.24-5.4-1.35-7.81-5.26,2.34-20.38-2.7-43.16-.98-4.44-1.37-9.61-2.14-19.94-.25-3.38-.54-7.94,2.15-10.04,1.92-1.51,4.52-1.13,5.29-1.04,10.1,1.22,21.74-6.93,46.07-10.41,14.35-2.05,21.52-3.08,26.86.97,5.05,3.83,6.14,11.15,8.09,25.63,5.75,42.56,6.19,47.04,2.32,51.32-3.12,3.45-4.29,1.42-30.65,5.34-2.84.42-26.56,3.97-49.91,2.7Z"/>
    <path class="cls-13" d="m112.97,183.46c.54,2.91,1.08,5.85.94,8.81-.09,1.93-.48,3.84-.4,5.77.07,1.66.48,3.29.86,4.92,1.77,7.48,3,15.1,3.68,22.76.14,1.61.31,3.34,1.35,4.57"/>
    <path class="cls-13" d="m97.04,187.39c4.32,4.67,5.73,11.82,3.52,17.79-.42,1.14-.98,2.27-1,3.49-.04,1.79,1.06,3.38,1.83,5,1.36,2.88,1.73,6.21,1.04,9.31-.65,2.93-2,6.57.31,8.49"/>
    <path class="cls-13" d="m83.29,191c-.9,3.85-1.69,8.27.66,11.45.46.62,1.03,1.17,1.44,1.82,2.03,3.22-.31,7.29-.93,11.04-.78,4.64,1.2,9.32,1.14,14.02"/>
    <path class="cls-13" d="m60.31,190.33c.63,5.94.29,11.98-1.02,17.81-.68,3.04-1.59,6.37-.17,9.14.89,1.73,2.57,2.96,3.43,4.7,2.07,4.18-1.31,9.17-.51,13.77"/>
    <path class="cls-13" d="m70.72,193.55c-1.7,7.75,2.63,15.54,2.75,23.47.09,5.63-1.96,11.2-1.35,16.8.14,1.25.51,2.64,1.61,3.25"/>
    <path class="cls-13" d="m120.25,251.82c.53,5.21-.03,10.52-1.62,15.5-.4,1.24-.87,2.51-.81,3.81.09,2.29,1.74,4.17,2.82,6.19,2.5,4.66,2.08,10.26,1.8,15.54s-.2,11.02,3.02,15.21"/>
    <path class="cls-13" d="m102.79,258.28c-1.44,4.13,2.31,8.49,1.67,12.82-.38,2.54-2.25,4.77-2.21,7.34.03,1.69.89,3.24,1.67,4.73,4.68,8.96,7.37,18.94,7.84,29.04"/>
    <path class="cls-13" d="m91.06,264.68c-.43,4.64-.81,9.57,1.26,13.75,1.01,2.05,2.57,3.81,3.37,5.95,1.66,4.44-.25,9.36-.06,14.09.14,3.55,1.48,6.95,3.17,10.07"/>
    <path class="cls-13" d="m76.9,265.19c.26,6.61.53,13.28-.49,19.82-.36,2.32-.88,4.63-.81,6.97.11,3.63,1.63,7.07,3.38,10.26,1.26,2.31,2.71,4.89,1.99,7.42"/>
    <path class="cls-13" d="m62.39,270.51c.09,4.18,1.66,8.16,2.52,12.24.94,4.47,1.03,9.06,1.11,13.62.1,5.27.19,10.54.29,15.82"/>
  </g>
</svg>