<?xml version="1.0" encoding="UTF-8"?>
<svg id="Layer_2" data-name="Layer 2" xmlns="http://www.w3.org/2000/svg" viewBox="0 0 223.88 267.75">
  <defs>
    <style>
      .cls-1 {
        fill: #f9dc5c;
      }
    </style>
  </defs>
  <g id="Layer_1-2" data-name="Layer 1">
    <path class="cls-1" d="m157.62,63.19c.31.08.33-.15.58-.21s.55.07.8.02c.29-.06.49-.2.79-.21.39-.02.63-.05.99-.15.45-.12.96-.03,1.39-.14.51-.13,1.06-.21,1.59-.44,1.78-.77,3.57-1.59,4.71-3.23.27-.39.62-.74.9-1.14.32-.45.49-.96.74-1.43.44-.86.78-1.95,1.01-2.86.05-.19.14-.4.2-.61s.11-.5.17-.71.14-.37.2-.58c.08-.28.13-.5.25-.79.18-.45.4-1.02.5-1.44.06-.26.13-.5.2-.75.08-.3,0-.59.06-.89.26-1.22.42-2.47.73-3.67.15-.58.1-1.22.23-1.79.12-.51.5-1.13.41-1.71,0,.49.08,1.06-.04,1.53-.15.59-.12,1.17-.2,1.78-.14,1.09-.15,2.16-.15,3.27,0,1.05-.21,2.35.02,3.37.07.32.18.45.18.79,0,.32.02.49.1.79.07.28.06.52.12.79.03.15.13.25.17.4.04.17-.03.34,0,.51.09.43.44.98.65,1.38.12.22.26.38.4.58.16.23.24.55.39.75.49.67.96,1.34,1.54,1.93.64.64,1.22,1.1,2.03,1.44.9.38,1.74.72,2.58,1.18,1.11.61,2.41.42,3.52.85.96.37,2.42.25,3.5.18-.14.19-.75.5-.97.56-.52.15-1.11.15-1.64.26-.31.07-.46.18-.79.18-.26,0-.53,0-.79,0-.56,0-1.12,0-1.68,0-.52,0-.84.21-1.39.2-.29,0-.43.1-.64.15-.28.06-.58-.02-.86.04-.23.05-.35.16-.58.21-.26.05-.55-.06-.81-.01-.44.08-.9.37-1.27.65-1.61,1.23-2.46,3.26-2.98,5.11-.26.9-.42,1.8-.58,2.78-.05.29-.2.49-.21.79-.01.32-.07.49-.15.79-.07.26-.05.52-.04.79,0,.38-.13.47-.21.78-.06.23,0,.57,0,.8,0,.38-.13.47-.21.78-.12.51,0,1.26,0,1.79,0,.39-.14.62-.21.99-.04.24.01.54.01.79,0,.3.08.71.01,1-.07.31-.28.33-.21.72-.07-.49.2-1.01.2-1.53s0-1.06,0-1.59,0-1.06,0-1.59c0-.24.05-.56.01-.79-.06-.34-.2-.54-.21-.89,0-.47.09-1.03.01-1.49-.05-.29-.2-.49-.21-.79s.05-.6-.01-.89c-.24-1.09-.56-2.18-.78-3.28-.33-1.65-.64-3.29-1.93-4.6-.27-.28-.58-.47-.89-.7-.12-.08-.32-.17-.45-.24-.18-.1-.35-.25-.55-.35-.46-.23-.81-.26-1.34-.25s-.91-.21-1.47-.22c-.23,0-.45-.02-.72.02-.1.02-.26.11-.35.11-.11,0-.2-.14-.33-.12-.31.03-.58.29-.91.23-.28-.05-.34-.2-.68-.22-.29-.01-.61.04-.9,0s-.42-.15-.68-.21c-.21-.05-.68-.04-.9,0-.33.06-.51.3-1.98.41Z"/>
    <path class="cls-1" d="m99.79,143.09c-.24-.11-.39-.2-.64-.26-.3-.08-.51.13-.73-.21-.48.18-1.05.24-1.54.41-.75.26-1.54.46-2.27.77-1.54.67-3.03,1.6-4.5,2.41-1.85,1.02-3.55,2.28-5.32,3.43-1,.65-1.63,1.58-2.58,2.28-1.2.88-2.26,1.92-3.42,2.85-2.18,1.74-4.26,3.82-6.13,5.89-.93,1.04-1.7,2.22-2.64,3.25-.5.55-.96,1.11-1.43,1.69-.54.66-.85,1.45-1.35,2.15-.93,1.31-1.72,2.69-2.45,4.11s-1.87,2.78-2.71,4.23c-.75,1.3-1.48,2.71-2.07,4.09-.69,1.59-1.07,3.34-1.78,4.92-1.23,2.74-1.87,5.86-2.57,8.79-.37,1.54-.66,3.08-.89,4.65s-.67,3.08-.64,4.62c.02.75-.22,1.39-.27,2.13-.04.68.02,1.39.02,2.07,0,1.64,0,3.28.01,4.92,0,2.99.23,6.03.93,8.93.35,1.44.63,2.85,1.17,4.26.51,1.33.9,2.76,1.3,4.13s1.15,2.55,1.57,3.88c.23.73.63,1.35.89,2.07.3.83.41,1.43.99,2.12.48.57.86,1.17,1.23,1.81s.91,1.12,1.32,1.74.76,1.18,1.23,1.74c.54.65.83,1.45,1.41,2.07,2.06,2.19,4.33,4.1,6.56,6.13,1.07.97,2.27,1.77,3.36,2.7.61.53,1.31.93,1.95,1.42.83.63,1.65.96,2.53,1.47.69.4,1.51.81,2.14,1.29s1.06.91,1.78,1.23c.84.38,1.57.77,2.37,1.22.57.33,1.24.44,1.86.63.98.31,1.84.83,2.81,1.16,3.37,1.16,6.88,2.5,10.38,3.16,1.88.36,3.77.63,5.65,1.01,2.09.43,4.21.54,6.33.85,3.62.53,7.26.39,10.9.4,3.75,0,7.63-.6,11.3-1.32s6.95-1.59,10.27-2.91c3.28-1.3,6.63-2.44,9.59-4.38,1.56-1.02,3.26-1.78,4.8-2.84s3.01-2.28,4.44-3.56,2.62-2.81,3.9-4.25c.37-.42.46-.85.76-1.31.23-.35.56-.64.78-1.02.46-.78.68-1.69,1.16-2.48.7-1.14,1.2-2.38,1.47-3.69.08-.4.21-.19,0-.64-.17-.39-.06-.46-.52-.4-.19.02-.6.33-.84.4-.46.14-.84.36-1.29.53-.67.24-1.38.62-2.07.78-.77.18-1.64.55-2.43.59-.35.02-.7-.05-1.05-.02-.46.04-.87.24-1.33.28-.57.05-.97-.15-1.52-.25-.61-.11-1.31-.02-1.93-.02-1.38,0-2.77,0-4.15,0-1.77,0-3.47-.25-5.24-.25-.86,0-1.72,0-2.59.01s-1.7-.23-2.58-.27c-.92-.05-1.86.07-2.78.03-1.18-.04-2.39-.3-3.57-.46-3.99-.55-7.95-.84-11.83-1.98-1.03-.3-2.09-.44-3.12-.76s-2.07-.69-3.11-1.04c-2.2-.73-4.39-1.46-6.4-2.63-.94-.54-1.91-1.01-2.85-1.55s-2.08-.93-2.99-1.6-1.75-1.3-2.71-1.88c-1.3-.78-2.38-1.81-3.58-2.74-.84-.65-1.76-1.13-2.51-1.9s-1.68-1.5-2.41-2.33c-1.56-1.77-3.23-3.47-4.64-5.38-1.28-1.73-2.28-3.87-3.27-5.78-1.13-2.18-2.24-4.46-3-6.8-.68-2.06-1.36-4.07-1.75-6.21-.44-2.34-.73-4.7-1.05-7.06-.25-1.82-.06-3.77-.07-5.61-.01-2.27.31-4.41.64-6.64.27-1.85.43-3.74.88-5.57.21-.85.57-1.64.78-2.48.28-1.1.82-2.05,1.13-3.13.27-.94.42-1.78.79-2.7.33-.83.69-1.64,1.03-2.46.7-1.67,1.62-3.17,2.51-4.73,1.67-2.94,4-5.37,5.87-8.16.67-1,1.31-2.03,2.06-2.98s1.63-1.68,2.45-2.52c.59-.61,1.31-1.04,2.07-1.43.5-.25,1.06-.79,1.63-.83l.05-.21"/>
    <path class="cls-1" d="m192.62,215.71c.31.08.33-.15.58-.21s.55.07.8.02c.29-.06.49-.2.79-.21.39-.02.63-.05.99-.15.45-.12.96-.03,1.39-.14.51-.13,1.06-.21,1.59-.44,1.78-.77,3.57-1.59,4.71-3.23.27-.39.62-.74.9-1.14.32-.45.49-.96.74-1.43.44-.86.78-1.95,1.01-2.86.05-.19.14-.4.2-.61s.11-.5.17-.71.14-.37.2-.58c.08-.28.13-.5.25-.79.18-.45.4-1.02.5-1.44.06-.26.13-.5.2-.75.08-.3,0-.59.06-.89.26-1.22.42-2.47.73-3.67.15-.58.1-1.22.23-1.79.12-.51.5-1.13.41-1.71,0,.49.08,1.06-.04,1.53-.15.59-.12,1.17-.2,1.78-.14,1.09-.15,2.16-.15,3.27,0,1.05-.21,2.35.02,3.37.07.32.18.45.18.79,0,.32.02.49.1.79.07.28.06.52.12.79.03.15.13.25.17.4.04.17-.03.34,0,.51.09.43.44.98.65,1.38.12.22.26.38.4.58.16.23.24.55.39.75.49.67.96,1.34,1.54,1.93.64.64,1.22,1.1,2.03,1.44.9.38,1.74.72,2.58,1.18,1.11.61,2.41.42,3.52.85.96.37,2.42.25,3.5.18-.14.19-.75.5-.97.56-.52.15-1.11.15-1.64.26-.31.07-.46.18-.79.18-.26,0-.53,0-.79,0-.56,0-1.12,0-1.68,0-.52,0-.84.21-1.39.2-.29,0-.43.1-.64.15-.28.06-.58-.02-.86.04-.23.05-.35.16-.58.21-.26.05-.55-.06-.81-.01-.44.08-.9.37-1.27.65-1.61,1.23-2.46,3.26-2.98,5.11-.26.9-.42,1.8-.58,2.78-.05.29-.2.49-.21.79-.01.32-.07.49-.15.79-.07.26-.05.52-.04.79,0,.38-.13.47-.21.78-.06.23,0,.57,0,.8,0,.38-.13.47-.21.78-.12.51,0,1.26,0,1.79,0,.39-.14.62-.21.99-.04.24.01.54.01.79,0,.3.08.71.01,1-.07.31-.28.33-.21.72-.07-.49.2-1.01.2-1.53s0-1.06,0-1.59,0-1.06,0-1.59c0-.24.05-.56.01-.79-.06-.34-.2-.54-.21-.89,0-.47.09-1.03.01-1.49-.05-.29-.2-.49-.21-.79s.05-.6-.01-.89c-.24-1.09-.56-2.18-.78-3.28-.33-1.65-.64-3.29-1.93-4.6-.27-.28-.58-.47-.89-.7-.12-.08-.32-.17-.45-.24-.18-.1-.35-.25-.55-.35-.46-.23-.81-.26-1.34-.25s-.91-.21-1.47-.22c-.23,0-.45-.02-.72.02-.1.02-.26.11-.35.11-.11,0-.2-.14-.33-.12-.31.03-.58.29-.91.23-.28-.05-.34-.2-.68-.22-.29-.01-.61.04-.9,0s-.42-.15-.68-.21c-.21-.05-.68-.04-.9,0-.33.06-.51.3-1.98.41Z"/>
    <path class="cls-1" d="m5.23,48.02c-.15-.41.42-.15.56-.14.41.04.87-.04,1.29-.06.46-.02.88-.02,1.32-.14.34-.09.68-.21,1.03-.28.39-.07.78-.09,1.16-.18.52-.12,1-.35,1.51-.49.49-.14.95-.37,1.42-.55.54-.19,1.07-.47,1.57-.75.98-.57,1.94-1.19,2.87-1.82.86-.58,1.56-1.5,2.19-2.31.35-.45.73-.86,1.07-1.31.38-.5.69-1.09.96-1.65.48-.96.84-2.01,1.17-3.03.4-1.26.89-2.5,1.14-3.8.23-1.17.57-2.35.64-3.54.04-.66.18-1.31.32-1.96.15-.72.16-1.47.29-2.2.13-.68.21-1.34.28-2.03.06-.6.2-1.18.24-1.78.08-1.39.34-2.78.47-4.17.22-2.31.59-4.66.63-6.99.02-1.06.21-2.13.29-3.19.06-.85.18-1.69.25-2.54.05-.66.08-1.36.21-2,.04-.19.12-.38.15-.57.04-.22-.03-.32.1-.54-.19.32-.09.75-.08,1.11.03.58-.04,1.25.1,1.81.2.77.04,1.49.07,2.27.05,1.03.09,2.06.13,3.08.11,2.57.23,5.14.34,7.72.06,1.46.01,2.91.08,4.37.07,1.69.02,3.43.25,5.11.2,1.5.25,3.02.42,4.52.05.42.14.84.21,1.26s.06.83.13,1.23c.14.76.35,1.51.5,2.27.26,1.34.7,2.62,1.11,3.93s.97,2.39,1.52,3.57c.68,1.47,1.67,2.92,3.01,3.86,1.65,1.15,3.61,1.82,5.57,2.22s3.88.45,5.81.45c.85,0,1.7.1,2.55.11s1.75-.05,2.64-.02c.68.02,1.36,0,2.04.07.23.02.5.02.72.06.24.04,1.08.24.86.57-.07.1-.32.18-.42.2-.18.04-.33.07-.51.12-.42.12-.83.23-1.26.34-1.63.41-3.26.84-4.93.98-.42.03-.81.16-1.23.17-.56.02-1.15,0-1.7.1-1.16.21-2.36.25-3.53.44-1.05.17-2.12.3-3.14.62-.96.31-1.91.49-2.82.92-.36.17-.65.35-.96.58-.21.15-.45.21-.66.34s-.36.31-.53.5c-.68.76-1.21,1.62-1.71,2.51-.55.99-1.03,2.13-1.37,3.22-.17.53-.29,1.07-.47,1.6-.14.41-.16.84-.26,1.26-.11.47-.29.91-.39,1.39-.32,1.6-.6,3.2-.87,4.81s-.72,3.2-.81,4.81c-.05.98-.31,1.92-.45,2.88s-.18,1.85-.33,2.77c-.18,1.07-.2,2.14-.37,3.2-.08.48-.09.95-.13,1.43-.05.58-.18,1.14-.22,1.71-.26,3.64-.48,7.28-.71,10.92-.04.68-.09,1.36-.11,2.05,0,.33-.05.66-.06.99-.01.4.06.8.02,1.21-.05.5-.01.97-.02,1.47,0,.42-.09.82-.06,1.25.03.68.06,1.37.09,2.05.02.37.13.88.03,1.23-.27-.07-.22-.63-.24-.86-.02-.25-.12-.45-.15-.7-.06-.45-.02-.92-.05-1.37s-.16-.89-.18-1.35c-.02-.5-.02-1-.06-1.5-.05-.68-.18-1.33-.21-2.01-.03-.84-.2-1.66-.22-2.49s-.15-1.67-.25-2.49-.16-1.57-.27-2.35c-.27-1.97-.51-3.95-.72-5.92-.4-3.78-.85-7.56-1.46-11.31-.59-3.61-1.26-7.2-1.9-10.8-.29-1.64-.6-3.27-1.04-4.88-.39-1.44-.72-2.94-1.38-4.28-.5-1.03-.98-2.04-1.64-2.97-.29-.41-.63-.73-.93-1.12-.32-.42-.69-.8-1.14-1.09-1.45-.93-3.26-1.57-4.98-1.65-.89-.04-1.79-.09-2.68-.2-.43-.05-.85.06-1.27,0s-.82-.06-1.25-.03-.83-.05-1.26-.06c-.19,0-.37.04-.56.02s-.38-.08-.57-.09c-.39,0-.74.07-1.12,0-.27-.05-.73.06-.93-.13"/>
  </g>
</svg>