<?xml version="1.0" encoding="UTF-8"?>
<svg id="Layer_2" data-name="Layer 2" xmlns="http://www.w3.org/2000/svg" viewBox="0 0 344.67 334.33">
  <defs>
    <style>
      .cls-1 {
        fill: #a393a3;
      }

      .cls-2 {
        fill: #d3caae;
        opacity: .68;
      }

      .cls-3 {
        fill: #c2eabd;
      }

      .cls-4 {
        fill: #13abb8;
        opacity: .82;
      }

      .cls-5 {
        fill: #fcf4d4;
      }

      .cls-6 {
        fill: none;
        stroke: #844f83;
        stroke-miterlimit: 10;
      }

      .cls-7 {
        fill: #a690a4;
        opacity: .64;
      }
    </style>
  </defs>
  <g id="Layer_1-2" data-name="Layer 1">
    <g>
      <path class="cls-4" d="m34.39,67.59c-.89-.65-3.04.52-3.79,1.07-1.1.8-2.23,1.73-3.15,2.73-.5.54-1.02,1.03-1.52,1.58-.59.65-1.37,1.11-1.94,1.8-1.08,1.32-2.19,2.72-3.42,3.93-1.19,1.17-2.37,2.29-3.44,3.56-1.2,1.42-2.32,2.86-3.5,4.31-.9,1.1-1.88,2.25-2.7,3.41-.81,1.15-1.68,2.07-2.25,3.41s-1.24,2.66-1.69,4.11c-.47,1.51-.91,3.03-1.43,4.47-1.07,2.97-1.89,6.15-3.09,9.11-1.13,2.79-1.93,5.46-2.1,8.45-.04.79-.37,1.4-.37,2.23,0,.87,0,1.74,0,2.61v5.11c0,2,.36,3.83.36,5.82,0,.76-.08,1.57-.01,2.32.09,1,.36,1.84.37,2.87.01,1,.38,1.84.37,2.83-.02,1.11.34,2.03.36,3.11.01.83.24,1.35.37,2.13.06.35-.1.73-.04,1.07.08.45.34.79.39,1.25.17,1.5.16,3.05.7,4.48.61,1.59,1.11,3.11,1.88,4.66.73,1.45,1.49,2.91,2.23,4.3.35.66.88,1.3,1.26,1.97s.85,1.19,1.43,1.68c2.42,2.06,4.71,4.25,7.05,6.36.57.51.97,1.11,1.57,1.59,1.24.99,2.59,2.05,3.9,3.04,1.73,1.31,3.39,2.64,5.06,3.99,2.44,1.98,5.11,3.66,7.54,5.65,1.18.97,2.32,2,3.59,2.86.45.3.86.57,1.31.84.97.59,2.05,1.01,2.98,1.67,1.07.75,2.22,1.05,3.34,1.68,2.69,1.49,5.4,2.9,8.39,3.89,1.19.4,2.47.95,3.75.99.32.01.64-.09.96-.05,2.54.29,5.06,1.2,7.59,1.62,4.12.68,8.27-.15,12.36-.53,1.47-.14,2.98-.8,4.43-1.14.62-.15,1.2-.53,1.77-.66.34-.08.67.03,1.02-.06.37-.1.99-.38,1.42-.52,1.19-.39,2.35-.74,3.49-1.15.65-.23,1.46-.54,2.05-.68,2.44-.58,4.69-1.47,7.16-2.35,2.9-1.04,5.45-2.87,8.17-4.45,3.2-1.86,5.73-4.63,8.05-7.43.48-.57.98-1.07,1.48-1.6.55-.59.99-1.3,1.56-1.87s.98-1.16,1.52-1.7c.27-.27.68-.53.92-.81.29-.33.38-.8.65-1.14.93-1.19,1.92-2.37,2.83-3.61.8-1.1,1.43-2.29,2.33-3.32,1.96-2.25,3.74-5.01,5.27-7.6s2.65-5.41,3.29-8.43c.08-.36-.02-.71.02-1.07.04-.41.26-.69.34-1.07.07-.36-.02-.72.06-1.07.09-.45.3-.76.34-1.24.08-.94.03-1.63.27-2.51s.09-1.97.08-2.88c0-.97.27-1.76.37-2.7s-.33-1.61-.37-2.48c-.08-1.73,0-3.48,0-5.21,0-1.61-.02-3.22,0-4.84,0-.81-.28-1.38-.37-2.15s.16-1.58.03-2.33c-.14-.79-.39-1.3-.38-2.15.01-.93-.32-1.62-.37-2.51-.09-1.58-.36-2.96-.68-4.48-.07-.36.01-.72-.06-1.07-.08-.39-.3-.67-.34-1.07-.04-.35.06-.7-.02-1.04s-.27-.5-.33-.9c-.23-1.57-.67-3.07-1.24-4.5-.3-.74-.83-1.38-1.18-2.05-.35-.68-.51-1.52-.84-2.22-.54-1.14-1.19-2.28-1.75-3.41-.63-1.28-1.2-2.54-1.97-3.79-.81-1.32-1.42-2.8-2.24-4.12-.76-1.23-1.76-2.5-2.69-3.54-1.17-1.32-2.12-2.82-3.3-4.14-1.29-1.43-2.48-3.03-3.85-4.4-1.2-1.2-2.64-2.3-3.86-3.52s-2.77-2.17-4.12-3.22c-.71-.56-1.37-1.13-2.16-1.59-.73-.43-1.2-.96-1.97-1.33-1.48-.72-2.96-1.37-4.46-2.06-1.58-.72-3.37-1.14-4.85-2.05-2.91-1.79-5.81-2.91-9.13-3.49-1.61-.28-3.22-.8-4.83-1.1-.44-.08-.92.11-1.36.04s-.75-.29-1.15-.39c-.77-.19-1.56-.22-2.33-.38-.48-.1-.75-.32-1.25-.34-.39-.02-.69.03-1.07-.07-.82-.21-1.48-.17-2.33-.27-.77-.09-1.33-.38-2.15-.37-.77,0-1.54,0-2.31,0-1.57,0-3.3-.2-4.85-.01-.77.09-1.34.36-2.15.37-.43,0-.68.08-1.07.18-.52.14-.89.1-1.43.17-.41.05-.71.26-1.1.34-.47.1-.93-.03-1.4.02-.91.08-1.94.33-2.82.55-3.89.95-7.16,3.21-10.61,5.2"/>
      <path class="cls-3" d="m42.99,79.05l-.07-.29c-1.42.08-.03-1.82.33-2.32.57-.78,1.52-1.68,2.26-2.23.52-.38,1.65-.88,1.8-1.6.35-1.63-2.72.21-1.65-1.81.43-.82,1.52-1.33,2.34-1.44,1.33-.18,1.89.48,2.86,1.17.71.51,1.51.8,2.24,1.24,1,.61,1.72,1.45,2.76,1.9.95.41,1.81.98,2.74,1.39.58.26.71.06,1.2.03.97-.06.96-.27,1.8-.62.68-.28.85-.11,1.42-.07.23.02.51-.05.74-.02.34.05.54.24.79.29.87.19,2.55.34,3.08-.62.27-.48-.01-1.29.05-1.82.06-.48.18-.99.35-1.42.27-.68.58-1.21,1.45-1.11.58.07.94.75,1.43.78.34.02.84-.53,1.16-.66.63-.26.92-.35,1.44-.19,1.15.37,2.32.89,3.06,1.91.81,1.1.23,2.55.51,3.84.03.13.25.23.3.42.08.35-.12.76-.04,1.11.11.47.52.96.82,1.32.6.7,1.33,1.31,1.97,1.97.82.85,1.9.83,2.88,1.31.3-.87.02-1.97.25-2.83.22-.84.45-1.89.6-2.8.89-.15,1.26-.49,2.08,0,.69.42,1.24.98,1.8,1.54,1.09,1.1,2.22,1.9,3.66,2.25,1.53.37,2.86.69,4.22,1.51.88.53,2.1,2.58,3.2,1.58.37-.34.53-1.15.92-1.58.53-.59.89-1.03,1.52-.29.9,1.06,1.77,2.66.46,3.69-1.24.98-2.8,1.26-3.95,2.41-.43.43-.96,1.11-1.09,1.69-.19.85.35,2.01-.05,2.81-.23.45-.93.84-1.27,1.24-.48.56-.81,1.2-1.16,1.88-.69,1.31-1.32,2.74-2.52,3.69-1.11.88-3.42.43-4.83.43-.83,0-1.68-.04-2.51,0s-1.68.59-2.34,1.17c-.96.83-2.13,2.42-2.14,3.67,0,.96.41.92.91,1.6.42.57.32,1.44.78,1.91.55.55,1.55.16,2.26.24s1.49.39,1.88,1.06c.2.36.23.77.43,1.11.14.24.47.46.64.69.44.62.66,1.3,1.03,1.94.34.57.94,1.4,1.6,1.63.93.32,1.66-.5,2.58-.25,1.36.37,1.52,2.07,2.05,3.14.91,1.85,2.06.79,3.39-.09,1.29-.85,3.4-.89,4.95-.55.15.03.6.21.79.27.52.17.93.26,1.45.37.76.15,1.57.36,2.32.71,1.43.68,2.71,1.54,4.1,2.15.86.38,1.6.2,2.45.44.33.09.55.24.97.28.54.05.92.19,1.44.32,1.61.41,2.14,1.07,2.95,2.53.87,1.57-.29,3.72,1.43,4.77.7.43,1.43.15,2.25.24.37.04.51.21.79.29.48.13.91.06,1.35.25,1.29.55,2.69,1.57,3.5,2.79.94,1.42.8,3.1.8,4.75,0,1.7-.4,3.19-.79,4.84-.41,1.71-.95,3.65-1.89,5.21-.76,1.25-1.91,2.85-3.12,3.66-.76.5-1.6.76-2.44,1.08s-1.41.77-2.13,1.25c-1.14.76-2.28,1.72-2.92,2.91-.39.73-.53,1.39-.71,2.19-.1.45-.3.77-.33,1.25s.13,1.01.03,1.45c-.36,1.59-2.3,2.81-3.81,3.17-.39.09-.76,0-1.14.11-.34.09-.53.26-.97.28-.98.05-1.73-.37-2.69-.36-.86.01-1.41-.03-2.15.36-.69.36-1.44.68-2.08,1.16-1.25.95-2.45,2.49-3.45,3.69s-1.94,2.03-2.62,3.39c-.72,1.43-1,3.37-2.78,3.91-.71.21-1.17.33-1.82.73-.61.38-1.48,1.45-2.24,1.41-.5-1.75.45-3.9,1.06-5.51.84-2.21,1.79-4.45,2.47-6.71.59-1.98,1.18-3.92,1.79-5.85.2-.63.6-1.3.74-1.94.08-.36.07-.76.16-1.09.12-.45.05-.98.16-1.45.1-.44.32-.55.39-1.05.05-.4,0-.86,0-1.26,0-.96,0-1.91,0-2.87,0-.9.01-1.79,0-2.69-.01-.97.62-1.91.38-2.88-.08-.34-.31-.51-.39-.86-.12-.52.08-.98.19-1.45.21-.83.35-1.99.19-2.88-.25-1.46-1.54-2.81-2.07-4.19-.81-2.08-.88-3.88-.37-6.01.26-1.06.61-2.21.99-3.22.18-.47.29-.95.45-1.43.11-.36.25-1.35.57-1.53-.93-2.22-3.71-3.06-5.65-4.29-2.25-1.42-5.11-.52-7.27-1.95-.88-.58-1.41-1.45-2.33-1.98-.99-.56-1.84-1.31-2.87-1.8-1.17-.56-2.45-.72-3.67-1.25-1.07-.45-1.81-1.37-2.67-2.1-1.85-1.56-3.04-3.57-5.21-4.8-.95-.54-2.07-.74-3.03-1.08-1.16-.41-2.07-.99-2.97-1.88-.75-.74-1.48-1.7-1.53-2.78-.06-1.3-.01-2.63,0-3.94.02-1.16-.53-2.46-.98-3.59-.48-1.21-1.01-2.37-1.61-3.57-.59-1.18-1.28-2.55-2.05-3.58-.68-.91-1.52-1.74-2.14-2.72-.86-1.35-2.1-1.95-3.6-1.94s-3.26.06-5.01-.72Z"/>
      <path class="cls-3" d="m47.88,193.92c.32,0,.64,0,.95,0,.37,0,.48.11.77.18s.59.03.9.11.59.34.86.4.57.08.82.14c.3.08.49.11.84.12.38.01.45.17.73.22.33.06.71.02,1.05.02.69,0,1.24.25,1.91.24.74,0,1.33.23,2.03.24,1.34.02,2.4.57,3.7.71.66.07,1.21.24,1.91.24.31,0,.64-.02.96,0,.39.02.69.21,1.07.25.68.08,1.44,0,2.13,0,.82,0,1.49.25,2.3.24,1.31-.01,2.9.25,4.16-.02,1.62-.34,3.32-.39,4.9-.88.71-.22,1.43-.37,2.13-.53.4-.09.81-.19,1.21-.3.48-.14.83-.11,1.32-.17.34-.05.61-.22.95-.26.37-.04.6-.01.96-.11s.58-.11.96-.12c.43,0,.67-.18,1.07-.25.62-.11,1.29.12,1.91-.04.36-.09.56-.18.95-.19s.54-.14.86-.22c1.36-.33,2.58-1.03,3.62-1.99.72-.67,1.79-1.75,1.03-2.72-.37-.47-1.22-.41-1.78-.31-.14.03-.14.17-.28.2-.15.03-.31-.01-.45.01-.34.06-.74.17-1.08.3-1.26.47-2.46,1-3.7,1.51-.55.22-1.16.37-1.67.59s-1.2.53-1.79.66c-.65.15-1.23.29-1.91.29s-1.14-.16-1.79-.23c-1.19-.13-2.45-.63-3.52-1.14-.46-.22-1.25-.47-1.63-.82-.17-.15-.42-.65-.18-.87.17-.15.82-.04,1.04-.04.59,0,1.32.11,1.89-.02.18-.04.42-.15.61-.21.42-.13.81-.33,1.21-.54.51-.27.93-.65,1.41-.96.58-.36,1.23-.48,1.81-.77.46-.23.82-.6,1.3-.79.63-.26,1.34-.24,1.91-.58.63-.37.78-.81,1.14-1.39.39-.62.32-.92.09-1.57-.19-.55-.43-1.16-1.18-.77-.37.19-.76.79-1.06,1.09-.77.77-1.46,1.67-2.57,1.37s-2.18-.39-3.36-.13c-.42.09-.84.51-1.23.67-.59.24-1.15.42-1.73.53-.63.12-1.12.24-1.79.25-.72,0-1.43,0-2.15,0-.33,0-.64-.03-.96.05-.33.09-.58.27-.96.2-.35-.07-.59-.24-.96-.26-.32-.02-.64,0-.96,0s-.64.02-.96,0c-.37-.02-.6-.18-.96-.26-.72-.15-1.24.26-1.91.25-1.19-.02-2.49.16-3.52.77-1.15.68-1.86,1.91-.24,2.51.87.32,2.3.93,2.58,1.96.22.78-.5.73-.69,1.26-.13.39.24.34.22.66-.01.17-.39.59-.55.67-.42.2-1.11-.23-1.51-.4-.47-.19-1.06-.53-1.54-.46-.54.08-1.13.24-1.62.49-.64.33-.96.41-1.73.42-.61,0-.97-.28-1.53-.51-.61-.24-.85-.46-1.57-.45-.66,0-.94-.01-1.37-.53-.48-.58-.81-1.08-1.49-1.45-.49-.26-1.03-.48-1.55-.68-.61-.23-.95-.6-1.57-.21-.39.25-.71.57-1.01.94-.21.26-.37.56-.6.79-.31.33-.6.28-.37.72.54,1.06,1.96.89.79,1.84Z"/>
      <path class="cls-3" d="m72,58.75c-.15-.21-.32-.44-.06-.64.37,1.12.3,2.3.3,3.5,0,.57-.08,1.22,0,1.79.08.63.32,1.3.49,1.91.15.56.27,1.12.71,1.56.38.38.9.52,1.32.83s.87.51,1.31.84.89.74,1.43.67c1-.13,1.88-.83,2.82-1.21s1.76-.88,2.92-.67c.61.11,1.18.42,1.79.5.27.04.57-.05.84-.01.33.04.51.17.82.25.6.16.93.18,1.44.61.46.39.85.93,1.2,1.42.55.78,1.37,2.23,2.39,2.49.6.15,1.28-.24,1.8-.52.16-.09,1.44-1.17,1.4-.46-.58-.02-1.72-1.64-1.95-2.11-.25-.5-.29-1.13.06-1.55.39-.47,1.02-.58,1.18-1.22.12-.47.04-1.22-.45-1.49-.22-.12-.62-.06-.85-.04-.27.01-.56.23-.74.23-.42,0-.69-.53-1.1-.65-.26-.07-.52,0-.78-.07-.34-.08-.76-.32-1.09-.46-.41-.17-.76-.33-.89-.77-.17-.59.01-1.25-.05-1.86-.13-1.26-1.93-.53-2.82-.76-.46-.12-.87-.32-1.36-.42-.29-.06-.54-.2-.84-.26-.34-.07-.71.07-1.05,0-.22-.05-.34-.19-.61-.22s-.57,0-.84,0c-.6,0-1.32.11-1.91-.02-.69-.15-1.38-.41-2.04-.7-.51-.22-.97-.58-1.54-.7-.69-.14-1.39,0-2.03.17-.35.09-.62.08-.96.23-.3.13-1.01.31-.24-.17Z"/>
      <path class="cls-3" d="m21.61,78.33c-.53,0-1.07-.02-1.6.01.59-.36,1.3-.57,1.89-.9.8-.44,1.68-.69,2.58-.78.39-.04.56-.21.94-.25s.77.03,1.15-.05c.16-.04.3-.16.53-.19.19-.02.41,0,.6,0,.5,0,.76-.07,1.19-.27s.88-.43,1.33-.64c.31-.15.67-.16.96-.29.59-.24,1.13-.66,1.72-.9.77-.32,1.4-.54,2.21-.54s1.96.19,2.76.01c.68-.15.98-.8,1.24-1.39.23-.51.12-.5,0-1.01-.11-.43,0-1.04-.52-1.21-.79-.26-1.49.35-2.15.51-.98.23-1.55-.47-2.4-.67-.2-.05-.42,0-.61-.05-.13-.04-.31-.17-.4-.19-.26-.07-.92.1-1.1-.09-.28-.28.17-.97-.05-1.27-.29-.4-.7-.03-.95.23-.28.29-.4.66-.71.9-.28.22-.52.33-.78.59-.55.56-1.17.95-1.86,1.31-.43.23-.76.47-1.2.66-.39.17-.8.33-1.19.54-.7.38-1.16.99-1.73,1.55s-.96,1.08-1.37,1.73c-.22.35-.4.77-.71,1.07-.14.14-.34.21-.49.35-.27.24-.38.63.72,1.21Z"/>
      <path class="cls-3" d="m59.82,58.99l-.06-.22c-.62.2-.53,1.66-.12,2.07.22.22.57.48.88.55.23.05.5-.05.73-.02.28.04.39.18.61.22.35.07,1.06.1,1.42.03.4-.08.76-.36,1.19-.46s.68-.17,1.07-.38c.44-.24.48-.31.68-.77-.31-.19-.1-.47-.24-.74-.08-.15-.4-.42-.55-.53-.28-.22-.95-.69-1.31-.73-.52-.06-1.15.45-1.69.45-.27,0-.5-.18-.82-.2-.4-.03-.69-.18-1.08-.24"/>
      <path class="cls-3" d="m68.66,66.15c-.75-.08-1.78.45-1.26,1.26.3.46,1.12.65,1.62.66,2.19.01.21-2.65-.6-1.68"/>
      <path class="cls-3" d="m65.07,68.07c-.3-.06-.7.12-.97.24s-.44.14-.7.23c-.54.19-1.01.4-1.49.66-.26.14-.98.5-1.1.83-.27.75.98.34,1.39.41.57.1,1.22.31,1.72.44.36.1.99.44,1.33.24.5-.29.28-1.15.29-1.62,0-.59-.22-.92-.48-1.43"/>
      <path class="cls-3" d="m18.03,161.44c-.12-.36-.44-.64-.73-.87-.02.65.51,1.28.85,1.83s.71,1.11,1.13,1.61c.46.54,1.02,1.06,1.73,1.24.62.16,1.4-.25,1.27-.93-.14-.75-.89-1.42-1.11-2.15-.19-.66-.16-1.55-.76-2.04-.46-.38-1.16-.4-1.67-.58s-1.72-.63-1.92.23"/>
      <path class="cls-3" d="m22.09,169.32c-.04-.18-.25-.53-.48-.51-.39.04-.19.24-.19.45.12.06.19.15.2.28-.04.17-.03.33.03.49.39,1.04,1.6,1.72,2.36,2.49.27.27.51.58.78.85.39.39.85.66,1.27,1.01.52.43.96.94,1.52,1.32.46.32.9.8,1.19,1.25.38.61.24,1.42.24,2.15,0,.2.14,1.04-.04,1.16-.3.2-.74-.35-1.03-.43-.63-.17-1.87.36-2.04-.37s0-1.77.01-2.52c.01-.83-.37-1.54-.52-2.35l-.19-.04"/>
    </g>
    <g>
      <path class="cls-5" d="m159.09,230.21c-.95.17-1.84.68-2.75.98s-1.72.76-2.56,1.1c-1.95.79-3.81,1.25-5.8,1.73-1.06.25-2,.82-2.99,1.26-.46.2-.99.25-1.43.46-.26.12-.45.32-.72.44s-.56.25-.84.36c-.94.38-1.78.89-2.69,1.37-.4.21-.83.35-1.19.65s-.72.69-1.12.96c-.88.61-1.84,1.1-2.75,1.72-.84.57-1.51,1.3-2.21,2.03-1.37,1.42-2.65,2.97-4,4.42-1.42,1.52-2.89,3.13-3.89,4.96-1.1,2.01-2.18,4.04-3.4,5.97-1.15,1.83-1.82,3.85-2.63,5.85-.78,1.93-1.07,4.04-1.76,5.97-.35.98-.5,1.99-.74,2.99-.12.48-.18.96-.3,1.43-.13.52-.17,1.04-.31,1.55s-.04,1.04-.17,1.55c-.07.27-.18.42-.19.72s.05.56-.01.84c-.11.52-.22.87-.22,1.43s0,1.07,0,1.61v3.41c0,.93-.18,2.09.05,2.99.28,1.06.47,2.14.64,3.23.08.48.2.95.27,1.42.08.55.28,1.01.42,1.55.14.59.12,1.19.32,1.8.2.6.34,1.19.51,1.79.29,1.02.75,1.99,1.11,2.97.36.98.69,2.05,1.16,2.99.45.91.92,1.78,1.29,2.74.33.88.92,1.64,1.35,2.51.47.94.91,1.83,1.37,2.75,1.03,2.05,2.67,3.83,4.51,5.17.76.56,1.55,1.1,2.28,1.68.5.4.9.95,1.45,1.27.36.21.69.4,1.04.66,1.56,1.13,3.31,1.95,4.92,3.01,2.79,1.85,6,3.17,8.84,4.8.36.21.75.34,1.13.53,1.46.72,3.14,1.5,4.72,2.01.94.3,1.8.52,2.66.84.62.23,1.39.4,2.02.47,1.28.13,2.55.58,3.79.7.54.05.93.05,1.44.18.81.21,1.8.02,2.62.07,1.69.1,3.32.22,5.01.22,2.29,0,4.54-.14,6.82-.24.98-.04,1.95-.37,2.95-.45.88-.07,1.75-.19,2.63-.24.19-.01.62.03.82-.02.1-.03.14-.18.2-.19.92-.23,1.9-.24,2.85-.43,1.2-.24,2.73-.55,3.82-1.11.26-.13.43-.32.71-.43.24-.1.44-.14.66-.29.4-.27.85-.5,1.25-.77.9-.62,1.81-1.16,2.64-1.85,1.66-1.39,2.99-2.95,4.52-4.48,1.96-1.95,3.9-3.93,5.85-5.85.46-.46.77-.96,1.19-1.43.47-.54.96-.98,1.38-1.55.2-.27.45-.45.67-.7.27-.31.32-.65.52-.98.36-.6,1.05-1.02,1.5-1.56s.76-1.12,1.17-1.65c.39-.51.79-1.02,1.15-1.55.74-1.09,1.49-2.16,2.24-3.22.68-.97,1.52-2.17,1.95-3.29.52-1.35,1.29-2.6,1.68-4.01.34-1.25.82-2.45,1.13-3.7.3-1.23.71-2.45.85-3.7.04-.33-.04-.63.04-.96s.18-.52.19-.89c.01-.74.19-1.4.24-2.12.05-.65,0-1.34,0-2,0-.87.16-1.61.25-2.45.08-.68.07-1.58,0-2.26-.08-.76-.2-1.62-.37-2.36-.33-1.45-.72-2.9-1.13-4.33s-.96-2.87-1.44-4.3c-.45-1.35-1.05-2.58-1.61-3.88-.25-.59-.55-1.21-.84-1.8-.13-.26-.31-.45-.45-.7-.2-.35-.25-.75-.44-1.1-.3-.56-.77-1.04-1.09-1.61-.34-.61-.71-1.29-1.13-1.85-.87-1.17-1.48-2.62-2.27-3.87-.46-.72-.66-1.46-1.19-2.16s-1.08-1.28-1.55-1.96c-.51-.72-1.01-1.41-1.55-2.11-.53-.68-1.05-1.46-1.67-2.06s-1.03-1.26-1.55-1.92c-.25-.31-.53-.49-.84-.73-.41-.32-.62-.75-1.01-1.1-1.21-1.08-2.42-2.18-3.67-3.21s-2.67-2.17-4.16-2.8c-.74-.31-1.38-.78-2.15-1.08-.83-.33-1.64-.63-2.51-.9-1.69-.51-3.47-.98-5.2-1.31-1.86-.36-3.6-1.12-5.42-1.61-1.85-.5-3.6-1.5-5.51-1.76-2.07-.29-3.95-.88-6.09-.68-5.1.49-9.66,3.15-13.97,5.72"/>
      <path class="cls-2" d="m187.51,248.84c-.81-.21-1.91,1.8-2.09,2.39-.1.33-.19.64-.31.96-.07.2-.2.5-.24.7-.07.29.03.61-.04.91-.01.06-.17.17-.2.28-.05.21.01.5.01.73,0,1.18.42,1.97,1.25,2.81.37.37.75.7,1.19.96.54.32.99.63,1.61.83.69.22,1.24.26,1.92-.06.27-.12.39-.21.7-.25.44-.04.57-.09.95-.24.15-.06.27.06.44-.04.09-.05.13-.2.22-.26.2-.12.43-.19.61-.34.39-.34.69-1.03.89-1.49.25-.59.62-1.28.73-1.92.05-.29-.02-.65-.01-.95,0-.4-.16-.55-.22-.86-.06-.34.02-.67-.07-1-.05-.18-.28-.41-.36-.59-.23-.46-.55-.87-.92-1.25-.84-.9-1.87-1.66-2.96-2.15-1.43-.65-2.75-.35-3.11.84Z"/>
      <path class="cls-2" d="m207.57,269.14l.2-.04c.03-.27-.02-.57.24-.74-.09-.87-2.11-.31-2.59-.12-.71.28-1.36,1.16-1.61,1.86s-.25.86-.08,1.55c.13.49.2.92.43,1.37.45.87,1.26,1.57,2.07,2.11.36.24.7.36,1.09.52.49.21.72.11,1.2-.11,1.04-.49,1.63-1.46,2.15-2.43.2-.38.39-.68.54-1.09.18-.52,0-.79-.35-1.19-.32-.37-.7-.57-1.12-.78-.69-.34-1.64-.55-2.17-1.13"/>
      <path class="cls-2" d="m161,253.38c0-.2.12-.77-.04-.92-.11-.11-.78-.09-.92-.05-.81.19-.77,1.09-.24,1.57.46.42,1.25.51,1.81.25.31-.15,1.33-1.28.59-1.32"/>
      <path class="cls-2" d="m167.69,291.35c-.16-.69-1.28-1.28-1.92-1.2-.24.03-.34.14-.52.19-.27.07-.51.02-.78.07-.46.1-.89.28-1.3.46-1.76.77-3.78,1.84-5.21,3.16-.57.53-1.08,1.25-1.43,1.9-.24.45-.51.78-.66,1.26-.13.4-.43.76-.54,1.13-.32.99-.29,1.99-.29,3.05,0,.48-.11,1.09,0,1.56.09.44.32.84.43,1.3.23.95.36,2.07,1.07,2.81,1.51,1.59,3.42,3.55,5.59,4.09,1.32.33,2.48.9,3.88.98,1.61.1,3.39-.32,4.97-.66.83-.18,1.6-.71,2.26-1.19.24-.18.52-.18.79-.41.2-.17.41-.32.6-.48.3-.26.48-.56.65-.89.4-.8.76-1.71.96-2.57.25-1.05.29-2,.29-3.1,0-.55.03-1.04-.12-1.55-.15-.52-.35-1.05-.54-1.56-.72-1.94-1.8-3.51-3.28-5.01-.79-.8-1.8-1.49-2.74-2.09-.78-.5-1.48-.98-2.34-1.31-1.24-.48-2.08-.66-3.4-.66"/>
      <path class="cls-2" d="m148.58,238.33c-.31-.63-.52-1.11-1.31-1.2-.66-.08-1.25-.06-1.67.48-.85,1.09-1,2.95,0,3.95.48.49,1.45.86,2.04.71.63-.15,1.13-.75,1.43-1.31.18-.33.16-.72.26-1.07s.25-.43.22-.86c-.05-.74-.35-1.56-1.2-1.67"/>
      <path class="cls-2" d="m129,261.02c.09-.17.16-.41.27-.57.1-.14.32-.28.4-.43.26-.5-.18-.92-.68-.63-.44.26-.68.93-.71,1.39-.01.2-.03.53,0,.72.06.43-.05.37.35.48.87.25,1.63-.36,2.16-.97.22-.26.52-.6.61-.94.22-.9-.6-.58-.73-1.21"/>
      <path class="cls-2" d="m130.91,250.99c.07-.27-.14-.74-.48-.74-.2,0-.55.4-.66.55-.3.41-.77,1.55-.48,2.05.4.68,1.23,0,1.63-.31.59-.46.93-1.26.67-1.99l-.2-.04"/>
      <path class="cls-2" d="m137.12,295.89l-.04-.2c-.5-.17-1.22-.04-1.75-.04-.28,0-.56,0-.83,0-.45,0-.5.11-.86.22-1.16.33-1.81.97-2.19,2.17-.76,2.44-.33,5.17,1.37,7.06.43.48.73,1.05,1.18,1.48.83.79,2.16,1.26,3.15,1.75,1.23.6,2.87.79,3.43-.74.09-.25.04-.47.1-.73.07-.3.22-.36.26-.7.08-.66.24-1.24.23-1.92,0-1.23.09-2.46-.41-3.58-.55-1.22-1.07-2.58-2.21-3.4s-2.21-1.4-1.44-1.37Z"/>
      <path class="cls-2" d="m136.16,290.15c-.07-.35-.41-.33-.67-.54-.12-.09-.21-.3-.33-.37-.43-.24-1.16-.08-1.39.19-.57.66-.36,2.33.54,2.58.83.23,2.17.2,2.76-.48.26-.3.41-1.01.3-1.39-.14-.52-.83-.74-.97-1.18"/>
      <path class="cls-2" d="m170.79,318.1c-.13-.41-.52-1.01-.83-1.32-.47-.48-1.05-.35-1.68-.35-1.08,0-2.18.23-3.22.48-1.13.27-2.08.6-2.87,1.55-.76.92-1.19,1.78-1.19,2.98,0,.86.27,1.95.84,2.64.94,1.14,2.31,1.06,3.68,1.42,2.97.78,6.81.86,9.21-1.3.85-.76,1.62-1.83,1.56-2.99-.09-1.56-1.78-2.26-2.99-2.87-.67-.33-1.35-.59-2.03-.9s-1.58-.49-.48.66Z"/>
      <path class="cls-2" d="m184.88,304.48c-.55-.7-.58-.75-1.43-.53-.52.13-.94.11-1.43.35-.86.42-1.02,2.23-.61,3.05.65,1.28,3.16,1.55,3.95.34.26-.4.51-1.33.43-1.77-.11-.57-.69-1.69-1.38-1.67"/>
    </g>
    <g>
      <path class="cls-7" d="m255.72,6.42c-.52-.27-.94-.24-1.55-.24-.32,0-.64-.01-.96,0-.41.01-.68.18-1.07.25-.54.09-1.14-.12-1.67-.02-.35.06-.59.24-.96.26-.31.02-.65-.07-.96-.02-1.5.27-2.96.97-4.49,1.21s-3.11.74-4.59,1.31c-.77.3-1.55.48-2.33.78-.84.33-1.62.75-2.45,1.08-1.58.63-3.09,1.35-4.66,1.96-1.61.63-3.42,1.1-4.9,2.02-.86.53-1.69,1.05-2.57,1.5-.77.39-1.54.86-2.2,1.38-1.22.96-2.71,1.58-3.94,2.52-.3.23-.52.54-.83.76-.37.26-.83.36-1.21.59-.63.38-1.18.86-1.71,1.31-.57.49-1.18.88-1.74,1.38-.26.24-.56.36-.84.58-.38.3-.62.74-.96,1.07-.51.49-1.09,1.1-1.67,1.52-.28.2-.66.33-.9.58-.12.12-.15.31-.28.43-.14.14-.37.16-.5.29-.29.27-.39.65-.7.91s-.46.39-.71.7c-.22.27-.41.6-.63.85-.28.33-.57.45-.81.82-.82,1.26-1.74,2.49-2.63,3.71-1.89,2.6-3.71,5.29-5.26,8.12-.4.73-.54,1.57-.95,2.28s-.72,1.43-1.14,2.13c-.4.66-.56,1.47-.94,2.15-.16.29-.39.54-.55.84-.22.4-.25.83-.4,1.26-.51,1.41-1.1,2.79-1.53,4.22-.23.75-.3,1.48-.44,2.22s-.36,1.49-.5,2.26-.08,1.65-.25,2.43c-.15.73-.38,1.43-.45,2.19-.06.72-.24,1.32-.25,2.06,0,.44.02.88,0,1.32-.02.47-.21.86-.26,1.32-.15,1.53.01,3.16.01,4.7v8.6c0,1.35-.19,2.85,0,4.18.08.63.26,1.12.25,1.79,0,.68.25,1.22.24,1.91-.01.64.23,1.15.24,1.79.01.68.27,1.39.43,2.03.59,2.38,1.04,4.93,2.14,7.18.56,1.14,1.38,2.24,1.85,3.45.24.62.62,1.17.84,1.79.24.67.58,1.33,1.01,1.91.71.96,1.47,2.02,2.04,3.1.63,1.2,1.22,2.44,1.92,3.59.31.51.6,1,.94,1.49.4.58.93,1.06,1.32,1.61.78,1.07,1.28,2.39,2.08,3.45.35.47.8.85,1.14,1.34.34.49.79.83,1.2,1.24.81.81,1.65,1.63,2.43,2.48,1.65,1.78,3.33,3.52,5.1,5.15.59.54,1.37.86,1.96,1.41.35.33.58.65.95.94.67.52,1.26,1.09,1.95,1.6,2.48,1.84,5.37,3.21,8.13,4.6,1.53.77,3.14,1.34,4.73,1.94,1.58.6,3.07,1.46,4.68,2.03,1.27.45,2.44.87,3.76,1.16,1.24.27,2.43.6,3.63,1.02,2.48.87,5.1,1.28,7.68,1.72,3.96.69,8.16,1.12,12.18.97,1.26-.05,2.51-.27,3.77-.26s2.51.03,3.77-.21c2.85-.55,5.77-1.68,8.41-2.86,1.01-.45,2.06-.79,3.06-1.27s1.92-1.18,2.93-1.69c.79-.4,1.5-.89,2.24-1.37,1.13-.72,2.38-1.21,3.53-1.9,2.78-1.67,5.75-3.15,8.29-5.1,2.3-1.77,4.67-3.6,6.94-5.41.57-.45.96-1.02,1.55-1.43,1.48-1.05,2.74-2.47,4.17-3.58.52-.41.98-.75,1.39-1.26.46-.56.93-1.14,1.34-1.74.82-1.2,1.71-2.43,2.72-3.48.89-.92,1.79-2.08,2.45-3.21.34-.58.62-1.21.96-1.79.17-.3.31-.62.41-.96.11-.39.33-.6.49-.96.26-.57.35-1.21.64-1.79s.66-1.18.89-1.79c.48-1.22.86-2.5,1.37-3.71,1.11-2.61,1.69-5.49,2.17-8.24.11-.66.25-1.31.4-1.96.16-.71.05-1.56.05-2.28v-4.35c0-.72.04-1.29.19-1.97.12-.54-.14-.8-.2-1.32-.05-.4.01-.85.01-1.25,0-.75.13-1.65.01-2.39-.06-.37-.24-.66-.26-1.05s.09-.88.02-1.28c-.06-.36-.24-.63-.26-1-.03-.44.06-.89-.01-1.32-.13-.84-.28-1.67-.44-2.5-.07-.37,0-.76-.01-1.14-.02-.47-.2-.85-.26-1.31-.11-.94-.07-1.87-.28-2.81-.37-1.64-.47-3.37-.87-5.01-.4-1.61-.68-3.21-1.16-4.79-.46-1.48-1.09-2.92-1.67-4.35s-1.02-2.97-1.82-4.36c-.2-.35-.25-.74-.44-1.1-.18-.33-.47-.62-.66-.94-.42-.71-.8-1.45-1.25-2.15-.86-1.32-1.64-2.67-2.57-3.95-.98-1.34-1.7-2.85-2.68-4.18-1.07-1.45-2.33-2.7-3.53-4.05-.56-.63-1.16-1.31-1.67-1.98-.63-.82-1.42-1.5-2.03-2.33-.57-.78-1.36-1.23-2.03-1.91s-1.43-1.33-2.16-1.96c-.38-.33-.56-.81-.94-1.15-.34-.31-.76-.51-1.1-.83-.7-.66-1.43-1.25-2.13-1.91s-1.48-1.23-2.23-1.8c-.41-.31-.77-.43-1.19-.7s-.74-.7-1.19-.98c-1.55-.95-3.03-1.98-4.58-2.91-1.43-.86-3-1.5-4.43-2.34-.7-.41-1.49-.65-2.22-1s-1.38-.77-2.15-1.08c-1.44-.58-2.82-1.28-4.25-1.85-.76-.3-1.55-.45-2.3-.77s-1.55-.73-2.32-1.11c-.96-.47-2.08-.66-3.11-.92-.72-.18-1.45-.39-2.19-.44-1.18-.07-2.38.18-3.55.26"/>
      <path class="cls-1" d="m188.37,65.89l-.2.04c-.11.55-.2.94-.27,1.51-.08.67-.26,1.38-.43,2.03-.08.29,0,.55-.04.84-.04.34-.21.61-.26.96-.08.61,0,1.29,0,1.91,0,1.16-.19,2.53.05,3.65.05.25.19.42.19.77s.13.52.19.77c.1.49,0,1.27.78,1.16.27-.04.4-.22.7-.26.26-.03.58,0,.84,0,.66.02,1.23.22,1.91.24.63.01,1.13.25,1.79.24s1.35,0,2.03,0c.62,0,.95.25,1.55.24.64,0,1.27,0,1.91,0h3.82c.56,0,1.11,0,1.67,0,.63,0,1.34.21,1.91.36.25.06.45.08.72.11.34.04.4.19.7.26.31.07.64-.04.97.04.36.09.57.16.96.18.63.03,1.31.27,1.91.43.29.08.54.05.84.05.44,0,.66.19,1.07.25.29.05.55.04.84.11s.59.18.84.24c.52.12.99.44,1.55.57.6.14,1.18.36,1.79.51s1.29.12,1.91.29,1.28.22,1.91.37c.59.15,1.19.3,1.72.47,1.19.39,2.23.87,3.41,1.28s2,1.11,3.11,1.62c2.02.91,4.15,1.81,6.08,2.89.96.54,1.82,1.25,2.63,2.03.82.79,1.89,1.41,2.64,2.27s1.37,1.89,2.14,2.81c.88,1.05,2,2.04,2.99,3.04.85.85,1.75,1.63,2.56,2.5.89.96,1.73,1.95,2.63,2.87,1.07,1.08,1.96,2.26,3,3.37.94,1,2.02,1.81,3.04,2.74.41.38.86.71,1.3,1.06.55.43.95.94,1.5,1.37.44.35.82.77,1.25,1.14.55.46,1.24.86,1.74,1.37.9.91,1.68,1.98,2.55,2.93.76.83,1.42,1.78,2.22,2.57.98.97,2,1.98,2.92,2.99s1.73,2.2,2.87,3.05c1.76,1.31,3.76,2.54,5.31,4.12.47.48,1,.89,1.47,1.38.35.36.75.63,1.16,1,.37.35.76.61,1.13.96.47.44,1.01.81,1.55,1.16.87.56,1.86.98,2.57,1.7.7.71,1.37,1.6,2.28,2.03,1.03.49,1.98-.19,2.92-.66.87-.44,1.72-.86,2.63-1.25.59-.25,1.03-.55,1.49-.96.39-.35.84-.36,1.31-.6.86-.44,1.53-1.06,2.35-1.61.91-.61,1.7-1.25,2.48-2.03.32-.32.76-.58.73-1.07-.03-.49-.56-.96-.91-1.26s-.79-.59-1.17-.87c-.43-.32-.99-.73-1.53-.93-1.12-.41-2.19-.93-3.25-1.46-.94-.46-1.94-.93-2.96-1.17-1.31-.31-2.5-1.03-3.77-1.54-1.08-.44-2.14-1.17-3.28-1.59s-2.27-.81-3.41-1.28c-.95-.39-2-1.09-2.87-1.67-1.12-.75-1.96-1.74-2.92-2.67-.47-.45-.97-.85-1.37-1.39-.23-.31-.46-.64-.73-.91s-.62-.52-.9-.82c-.78-.88-1.5-1.82-2.25-2.74-1.61-1.98-2.9-4.2-3.86-6.55-.43-1.05-1.15-2.16-1.71-3.19s-1.15-2.16-1.84-3.16-1.38-1.96-2.03-2.97-1.22-2.13-2.03-2.94c-.77-.77-1.42-1.67-2.2-2.44-.92-.9-2.06-1.52-3.06-2.33-.82-.67-1.63-1.4-2.52-1.94-.48-.29-.95-.58-1.47-.8-.46-.2-.78-.59-1.24-.84-1.16-.61-2.39-1-3.53-1.55-1-.49-2.05-.94-3.04-1.37-1.1-.48-2.31-.93-3.41-1.49-1.01-.51-2.13-1.07-3.21-1.33-.59-.14-1.15-.3-1.74-.5-.26-.09-.56-.23-.84-.28-.35-.06-.72.07-1.07,0-.64-.15-1.11-.22-1.79-.22s-1.14-.16-1.79-.23c-.6-.07-1.21-.28-1.79-.43-.29-.08-.55,0-.84-.04-.38-.05-.68-.24-1.07-.25-1.31-.05-2.52-.65-3.82-.7-.33-.01-.52-.16-.84-.22-.28-.06-.56.04-.84,0-.35-.06-.59-.24-.96-.26s-.73.06-1.07.01c-.59-.07-1.22-.29-1.79-.43-.33-.08-.63-.16-.96-.24s-.63.01-.96-.04c-.36-.06-.58-.24-.96-.26-.28-.01-.56,0-.84,0-.79,0-1.29-.25-2.03-.42-.59-.14-1.19-.19-1.77-.31-.17-.04-.43-.15-.61-.21-.41-.13-.65-.22-1.08-.25-.55-.04-1.01-.27-1.55-.48-.66-.25-1.27-.33-1.91-.66-1.18-.61-2.57-.8-3.82-1.2-2.47-.79-4.88-1.53-7.26-2.48-.47-.19-.9-.45-1.33-.75-.5-.34-1.04-.48-1.56-.8-.57-.35-1.15-.77-1.79-.99-.6-.21-1.04-.54-.72-.53Z"/>
      <path class="cls-1" d="m193.15,50.36c.1.46.7.62,1.02.9.34.3.64.66.96.96.66.63,1.53,1.06,2.31,1.55.43.27.88.51,1.32.78.58.36,1.2.62,1.8.88.52.23,1.06.7,1.55,1,.53.32,1.11.58,1.67.86.53.26,1.11.5,1.55.86.48.4,1.02.6,1.56.93,1.01.62,2.02,1.25,3.1,1.79s2.17,1.14,3.34,1.41,2.16.87,3.22,1.4,2.25,1.01,3.34,1.55,2.21,1.22,3.34,1.79,2.18.79,3.34,1.07,2.45.47,3.58.9,2.41.69,3.58.95c1.28.28,2.48.65,3.73,1.09,1.33.46,2.62.73,4.01.82.39.03.72.22,1.1.26.31.03.66-.08.97-.02.68.13,1.36.43,2.04.61.35.09.71.07,1.05.16.3.08.59.29.9.38.78.22,1.54.47,2.3.77,1.37.55,2.75.94,4.09,1.55,1.2.55,2.46,1.04,3.76,1.31,1.36.29,2.64.97,3.99,1.37,1.43.42,2.81.8,4.25,1.2,1.19.33,2.53.74,3.64,1.31,2.19,1.11,4.6,1.57,6.81,2.69,1.09.55,2.24,1.07,3.33,1.58s2.06,1.16,3.11,1.79,1.98,1.43,2.86,2.15c.89.72,1.8,1.12,2.63,1.88,1.46,1.34,3.01,2.54,4.36,4.01.77.83,1.39,1.79,2.15,2.63.76.84,1.74,1.44,2.46,2.33s1.53,1.66,2.32,2.44c.66.66,1.26,1.48,1.98,2.04,1.56,1.21,3.04,2.45,4.52,3.72.82.7,1.66,1.39,2.51,2.06.35.28.68.46,1.02.78.36.34.74.61,1.15.89.78.53,1.63.95,2.48,1.37s1.68.91,2.57,1.31c.39.17.79.27,1.19.48.36.18.75.58,1.16.63-.06-.15-.11-.3-.15-.45-.05,0,.38.01.33.02.57-.66.83-1.33,1.16-2.11.25-.59.64-1.09.84-1.73.46-1.54,1.44-2.84,1.74-4.42.26-1.37.77-2.8,1.18-4.19.16-.55.55-1.03.9-1.47.56-.71.38-1.55.59-2.34.12-.44.2-.7.19-1.19,0-.33.14-.53.18-.77.08-.38,0-.76.11-1.14.13-.49.19-.78.19-1.31,0-.38.13-.61.19-.89.08-.37.05-.75.05-1.14s-.03-.8,0-1.19c.02-.43.23-.77.25-1.19s-.06-.8.05-1.19c.12-.44.19-.7.19-1.19,0-.8-.24-1.34-.24-2.15,0-.68.13-1.49.01-2.15-.08-.45-.26-.72-.25-1.19,0-.44,0-.88,0-1.31,0-.79-.24-1.46-.24-2.27,0-.84-.24-1.56-.24-2.39s.02-1.6-.19-2.39c-.08-.32-.06-.63-.05-.96,0-.59-.15-.89-.25-1.43-.06-.35.06-.72,0-1.07-.08-.38-.16-.69-.21-1.08s-.21-.56-.25-.94c-.05-.47-.09-.86-.23-1.32-.45-1.47-.81-2.94-1.37-4.42-.45-1.19-.84-2.72-2.45-2.63-.4.02-.69.2-1.07.25-.34.05-.73,0-1.07,0-.84,0-1.67,0-2.51,0-.36,0-.72,0-1.07,0-.47,0-.64.08-1.01.19s-.76-.04-1.14.04c-.41.08-.79.34-1.19.44-1.61.38-3.18.81-4.78,1.19-.71.17-1.44.42-2.15.54-.43.07-.77.06-1.19.17-.47.12-.95.02-1.43.04-.43.02-.78.2-1.19.25-.39.04-.81.14-1.19.23-.86.2-1.72.48-2.57.72-.43.12-.81.19-1.24.29s-.87.12-1.33.21c-.93.17-1.78.39-2.74.45-.45.03-.83.23-1.29.25-.38.02-.77-.03-1.15-.01-.51.02-.88.21-1.37.25-.22.02-.45-.02-.68-.01-.38.02-.64.16-1.01.22-1.71.31-3.48.26-5.25.26-.48,0-.97.05-1.43-.05s-.8-.19-1.31-.19c-.44,0-.88,0-1.33,0-.63,0-1.07-.17-1.68-.25-1.72-.23-3.63.03-5.36.01-.5,0-.79.09-1.26.19-.42.09-.84-.04-1.25.04-.51.1-.84.26-1.41.25-.48,0-.97,0-1.45,0-.43,0-.96-.08-1.37-.01-.49.08-.87.24-1.38.25-.82.02-1.68.05-2.5,0-.39-.02-.69-.2-1.07-.25-.42-.06-.9,0-1.33,0-.49,0-.72-.07-1.18-.19-.44-.11-.88.01-1.31-.07-1.58-.32-3.12-.77-4.71-1.12-.49-.11-.91-.12-1.38-.24-.35-.09-.72-.1-1.07-.17-.84-.16-1.66-.47-2.5-.65-1.73-.37-3.37-1.08-5.03-1.67-.85-.3-1.64-.84-2.38-1.31-.77-.49-1.57-.91-2.39-1.32s-1.42-.61-2.27-.78c-.37-.07-.72-.21-1.07-.3-.47-.12-.98.07-1.45-.04-.33-.08-.43-.23-.82-.25-.34-.02-.74.07-1.08.01-.23-.04-.38-.19-.6-.23-.2-.04-.4.03-.6,0s-.3-.15-.48-.2c-.25-.07-.47,0-.72-.04-1.53-.25-2.85-1.11-4.3-1.63-1.55-.56-3.06-1.25-4.52-1.96-.72-.35-1.55-.72-2.17-1.25-.4-.34-.46-.42-.96-.66-.32-.15-.61-.37-.94-.54-.79-.39-1.63-.75-2.39-1.13-.68-.34-1.49-.7-2.1-1.19-1.41-1.15-2.88-2.26-4.35-3.35-.56-.41-1.12-.75-1.67-1.18s-1.13-.84-1.74-1.14c-1.13-.55-2.41-1.63-3.77-1.27-.58.16-.96.74-1.41,1.09-.12.09-.34.06-.44.16-.07.07-.05.3-.1.37-.23.33-.5.7-.61,1.07-.22.73-.55,1.52-.72,2.27-.29,1.26-.33,2.14-.05,3.41Z"/>
      <path class="cls-1" d="m210.58,25.29c-.18.63.96,1.56,1.37,1.97.35.34.73.74,1.02,1.14.1.14.18.35.29.48.27.35.62.4.91.7.22.22.24.52.45.74.18.18.42.22.61.37.48.37.89.86,1.31,1.29.95.96,2.14,1.7,3.29,2.4,1,.61,2.1,1.29,2.92,2.14.75.77,1.73,1.52,2.63,2.1,1.66,1.08,3.51,1.98,5.27,2.85.69.34,1.43.75,2.13,1.07.96.45,2.05.96,2.87,1.61.73.58,1.6.9,2.38,1.49.82.62,1.72,1.35,2.64,1.8,1.83.89,3.44,2.08,5.25,2.98.88.44,1.75.88,2.63,1.31.4.2.8.39,1.19.6.64.33,1.25.43,1.92.66.89.29,1.73.68,2.61.9.94.23,1.92.32,2.87.54.53.13,1.12.11,1.68.28.4.12.79.26,1.19.37.89.23,1.94,0,2.87.05.47.03.84.23,1.31.25.43.02.88,0,1.31,0,.49,0,.75.07,1.19.19.54.14,1.12.02,1.67.05.43.02.76.23,1.19.25.47.03.95,0,1.43,0s.97-.03,1.44,0c.53.03.93.25,1.48.24.98-.02,1.82.24,2.81.24.48,0,.96,0,1.43,0,.59,0,1.03.23,1.62.24.94.03,1.75.18,2.68.23.43.02.76.23,1.19.25.55.03,1.13-.09,1.67.05.82.21,1.68.13,2.51.31.9.19,1.82.05,2.75.11.58.04,1.07.25,1.67.24.48,0,.96,0,1.44,0,.53,0,1.08.04,1.61,0s.97-.25,1.54-.24c.54,0,1.08,0,1.62,0,.6,0,1.07-.21,1.67-.23.2,0,.29,0,.48-.06.41-.11.72-.1,1.14-.17.29-.05.49-.21.77-.26.23-.04.48.06.72.02.27-.05.45-.22.72-.26.3-.05.65.03.96.02.47-.03.93-.19,1.38-.3.93-.22,1.94-.72,2.92-.96,1.8-.44,3.6-.76,5.25-1.44.44-.18.89-.31,1.31-.43.16-.05.37,0,.55-.05.26-.06.41-.19.77-.19.52.01.72-.17,1.19-.24.5-.08.92.44,1.35.21-.2-.36-.22-.78-.39-1.14-.21-.46-.25-1-.36-1.44-.21-.85-.75-1.58-1.2-2.39-.82-1.46-2.06-2.67-3.04-3.99-.45-.6-.8-1.23-1.27-1.85-.51-.67-1.27-1.53-2.12-1.56-.91-.04-1.69.28-2.51.48s-1.76.71-2.61.96c-.96.29-2.01.26-3,.49-.49.11-.94.39-1.43.46-.54.08-1.12.13-1.65.25-.17.04-.3.18-.49.23-.23.06-.48.05-.73.11-.51.13-1.04.23-1.55.35-.48.12-.96.18-1.43.3-.55.14-1.11.35-1.67.44-.99.16-2,.28-2.99.48s-1.94.47-2.98.46c-.54,0-.8.22-1.31.24s-1.04,0-1.55,0h-2.99c-.52,0-1.03,0-1.55,0-.58,0-1-.19-1.55-.25-.51-.05-.94-.17-1.43-.24-.53-.07-1.01-.25-1.55-.23s-1-.22-1.55-.24c-.52-.02-1.04,0-1.55,0-.97,0-2.06.13-2.99-.12-.51-.14-1.04-.04-1.55-.17-.62-.16-1.13-.19-1.8-.19-1.16,0-2.33-.24-3.47-.48-1.22-.26-2.4-.66-3.62-1-1.3-.36-2.59-.75-3.89-1.11-1.37-.38-2.71-.78-4.06-1.22s-2.67-.73-3.95-1.19c-2.37-.86-4.75-1.6-7.04-2.75-.99-.5-2.02-.95-2.99-1.49-1.05-.58-2.02-1.25-3.1-1.8-.98-.5-2.09-.85-2.99-1.51s-1.76-1.26-2.62-1.92c-.9-.7-1.82-1.37-2.76-2-.87-.58-1.85-1.14-2.63-1.85-.67-.61-1.34-1.16-2.01-1.73-.77-.66-1.67-1.18-2.4-1.91-.24-.24-.48-.5-.74-.69-.11-.08-.33-.2-.45-.26-.24-.13-.35-.14-.6-.23-.32-.11-.61-.42-.94-.5-.23-.05-.51.08-.74.02-.28-.07-.38-.22-.7-.26-.96-.12-1.38.38-2.03.96s-1.41.96-2.03,1.55c-.29.28-.72.45-.96.73-.37.43-.41.99-.51,1.49-.07.01-.13.03,1-.2Z"/>
      <path class="cls-1" d="m226.34,15.5c.12.54.89.81,1.3,1.08.7.44,1.54.76,2.28,1.07s1.43.78,2.15,1.14c.77.39,1.6.6,2.39.95s1.55.59,2.27,1.02,1.36.85,2.16,1.17c.65.26,1.38.46,2.03.75.7.31,1.38.71,2.08,1.01,1.18.51,2.35,1.31,3.38,2.14.75.61,1.39,1.37,2.16,1.92.76.55,1.53,1.02,2.34,1.43.58.3,1.16.79,1.72,1.14.67.43,1.39.9,2.1,1.26.6.31,1.2.63,1.84.89.35.14.71.31,1.07.42.43.13.72.37,1.1.52.69.26,1.53.37,2.25.55.78.19,1.55.43,2.39.43,1.56-.01,2.92.17,4.4.5.17.04.18.19.37.23.15.03.34-.05.49-.03.37.06.82.21,1.19.3.79.19,1.55.43,2.39.43,1.51-.01,3.02,0,4.54,0h2.27c.78,0,1.75-.14,2.51.05s1.38.19,2.15.19,1.65.14,2.39.01c.47-.08.69-.26,1.19-.25.36,0,.72,0,1.07,0,.79,0,1.6.04,2.39,0,.42-.02.68-.19,1.07-.25.19-.03.38.04.58,0,.17-.04.18-.19.37-.23.15-.03.34.05.49.03.23-.04.38-.19.6-.23.47-.09.85-.09,1.31-.21.36-.09.7-.03,1.08-.05.39-.02.49-.17.82-.25.75-.18,1.64.12,2.41.02.38-.05.56-.2.94-.25s.82,0,1.2,0c.32,0,.64,0,.96,0,.54,0,.92-.22,1.43-.24.35-.02.72,0,1.07,0,.4,0,.59-.12.89-.19.37-.09.79.05,1.15-.04s.49-.25.94-.25c.18,0,.43-.05.61,0,.11.03.35.19.41.2.25.04.59,0,.65-.34.11-.6-.85-1.23-1.28-1.52-2.1-1.43-4.27-2.68-6.5-3.79-1.31-.66-2.64-.57-3.9-.02-.52.22-1.16.34-1.69.64-.67.39-1.36.99-2.14,1.21s-1.51.45-2.27.65c-.37.09-.71.04-1.07.1-.54.09-.85.26-1.43.25-.72,0-1.43,0-2.15,0-.4,0-.8.03-1.19,0-.43-.02-.76-.23-1.19-.25-.41-.02-.8.06-1.19-.05-.35-.09-.58-.19-.96-.18-.88.02-1.61-.24-2.51-.24-.81,0-1.51.01-2.27-.19s-1.62,0-2.39-.05c-.4-.02-.69-.2-1.07-.25-.36-.05-.71.05-1.07-.04-.4-.1-.79-.14-1.19-.24-.17-.04-.29-.17-.48-.2-.23-.04-.48.06-.72.02-.43-.07-.77-.19-1.2-.24-.34-.04-.64-.14-.95-.25-.68-.24-1.41-.34-2.15-.46-.31-.05-.65-.17-.96-.25-.43-.1-.77-.16-1.19-.23s-.77-.19-1.2-.25c-.31-.04-.66-.14-.94-.24-1.47-.53-2.96-.95-4.42-1.47s-2.95-1.01-4.42-1.46c-.67-.21-1.24-.59-1.91-.84-.74-.27-1.44-.47-2.15-.83-.37-.19-.78-.29-1.14-.47-.28-.14-.55-.45-.83-.61-.52-.3-.94-.6-1.43-.96-.18-.13-.46-.3-.66-.42-.23-.14-.47-.27-.72-.41-.65-.39-1.24-.86-1.92-1.19-1.33-.65-2.63-1.49-3.81-2.38-1.22-.92-2.5-1.61-3.85-2.27-.48-.23-.91-.57-1.41-.78-.71-.3-1.29-.88-2.04-.95-.65-.06-1.15-.41-1.79-.48-.84-.1-1.29.09-1.98.42-.42.21-.99.48-1.31.82-.62.68-.1,1.36-.02,2.06.07.01.13.03-.28.28Z"/>
      <path class="cls-1" d="m247.84,7.14c-.02,1.01.87,1.62,1.67,2.15.99.66,1.91,1.4,2.87,2.1,1.92,1.39,3.92,2.7,5.96,3.93,1.04.63,2.11,1.1,3.12,1.79.4.28.8.52,1.25.71.72.31,1.33.77,2.04,1.09.94.41,1.76.97,2.68,1.43.48.24.97.46,1.44.72s.69.32,1.19.47c.26.07.46.31.72.38s.47.04.72.1c.28.07.41.18.72.19.15,0,.33-.04.48-.02.48.08.96.32,1.43.44.51.13.96.12,1.43.29.83.29,1.55.51,2.39.72.46.11.85.18,1.31.27.22.04.37.19.6.23.3.05.6-.02.9.04.12.02.36.15.53.19.25.05.47.12.72.19.2.05.42,0,.61.05.13.04.31.17.4.19.23.06.45-.01.68.04.21.05.25.2.45.26.5.15,1.04.16,1.54.25.16.03.18.19.37.23.22.05.51-.03.73-.02.49.02.95.18,1.44.24.38.04.56.21.94.25.53.06.9.24,1.44.23.47,0,.98.07,1.44,0,.36-.05.59-.17.94-.24.46-.09.93-.18,1.39-.29.15-.04.33-.15.53-.19.32-.06.43.01.73-.17.56-.34,1.2-1.09,1.19-1.74,0-.32-.14-.67-.24-.95-.17-.48-.32-.99-.54-1.44-.7-1.41-2.27-1.99-3.52-2.69-1.67-.94-3.43-1.78-5.03-2.81-.64-.41-1.28-.82-1.9-1.25-.79-.55-1.63-1.07-2.45-1.56-.65-.38-1.35-.72-2.04-1.07-.79-.4-1.61-.7-2.44-.94-.76-.22-1.53-.75-2.21-1.09-.64-.32-1.29-.61-1.9-.95-1.49-.82-3.35-1.2-4.83-1.74-.15-.05-.46-.15-.61-.19-.24-.06-.58-.2-.77-.24-.51-.1-1.1-.28-1.62-.3-.49-.02-.73-.18-1.19-.24-.22-.03-.5,0-.72,0-.4,0-.59-.09-.96-.18-.47-.12-.96.02-1.43-.11-.58-.15-1.05-.19-1.67-.19-.53,0-.92-.22-1.43-.24-.55-.03-1.12,0-1.67,0-1.02,0-1.81-.38-2.87-.24-.52.07-.84.25-1.43.24-.44,0-1-.09-1.43-.01-.27.05-.45.22-.72.26-.31.05-.65-.08-.96-.02-.54.1-1.07.32-1.62.44-.28.06-.49.03-.77.05-.39.03-.63.12-1.01.19-.79.16-1.76-.33-2.57-.43"/>
      <path class="cls-1" d="m188.85,101.47l.19.05c.02.29.23.63.34.9.16.4.24.83.47,1.2.58.93,1.23,1.74,1.86,2.61.22.31.25.66.46.98.11.17.31.27.43.45.29.44.55.97.83,1.43.57.94,1.03,1.95,1.61,2.88.95,1.51,1.8,3.06,2.81,4.54.46.68.81,1.45,1.31,2.1.47.62,1.09.85,1.73,1.23,1.42.84,2.77,1.69,4.42,2.1.4.1.8-.03,1.19.04.44.08.72.26,1.19.25s.75.16,1.19.25c.56.12,1.1.03,1.67.23,1,.34,2.05.47,3.05.77,1.07.32,2.09.78,3.17,1.08,2.16.6,4.3,1.42,6.38,2.27,4.41,1.8,9.07,2.98,13.57,4.6,2,.72,3.71,1.75,5.58,2.69.79.4,1.6.68,2.39,1.07.38.19.86.35,1.21.59.44.31.66.59,1.18.84.86.41,1.57,1.06,2.39,1.56.75.46,1.43.97,2.15,1.49,1.04.74,1.91,1.79,2.81,2.69,1.03,1.03,2.2,1.96,3.28,2.92.55.49,1.07,1.13,1.55,1.7.28.33.53.65.82.97.11.12.19.3.32.4.16.12.34.11.49.22.59.43,1.23.93,1.95,1.15.89.27,1.81.23,2.76.23s1.83-.01,2.75,0c.51,0,.73-.2,1.19-.24s.75-.19,1.19-.24c.49-.06.96-.22,1.44-.24s.85-.17,1.31-.24c.44-.06.88.07,1.31-.04s.79-.31,1.18-.43c.96-.29,1.94-.54,2.89-.95.67-.29,1.06-.77,1.62-1.25-.25-.59-.61-.99-1.11-1.44-.45-.4-.88-.66-1.31-1.07-.24-.23-.5-.33-.75-.53s-.43-.52-.67-.72c-.85-.71-1.63-1.5-2.46-2.25-.66-.6-1.3-1.26-2.02-1.82-.33-.26-.74-.35-1.07-.61-.44-.33-.87-.66-1.32-.99-.7-.51-1.35-1.03-2.02-1.62-.35-.31-.73-.49-1.07-.82-.53-.51-.98-1.07-1.62-1.45-1.7-1.02-3.19-2.39-4.85-3.52-.33-.22-.62-.49-.93-.76-.17-.14-.3-.37-.48-.5-.29-.21-.61-.26-.91-.45-.39-.25-.64-.65-1.01-.91-.53-.38-.95-.79-1.43-1.25-.34-.33-.72-.51-1.07-.82-.38-.33-.67-.79-1.07-1.1-.87-.67-1.65-1.45-2.51-2.14-.75-.6-1.38-1.2-2.02-1.92-.32-.35-.76-.49-1.09-.82-.38-.38-.73-.9-1.08-1.33-1.16-1.4-2.49-2.58-3.93-3.72-.66-.52-1.33-1.03-2.03-1.46s-1.21-1.04-1.9-1.43c-.78-.45-1.49-1.04-2.27-1.5s-1.65-.94-2.51-1.37c-1.49-.74-3.06-1.28-4.54-2.03-.83-.42-1.68-.84-2.57-1.08s-1.74-.72-2.63-1.07c-1.73-.68-3.38-1.46-5.18-1.83-.82-.17-1.71-.1-2.52-.31s-1.72-.43-2.57-.42c-.39,0-.85-.06-1.23-.01-.47.06-.85.24-1.33.25-.36.01-.72,0-1.07,0-.54,0-.91.22-1.43.24-.4.02-.8-.03-1.19-.01-.51.03-.9.25-1.43.24-.39,0-.8-.03-1.19,0-.51.03-.9.25-1.43.24-.4,0-.8,0-1.19,0-.58,0-.89.16-1.43.25-.81.14-1.8-.01-2.63-.01h-2.51c-.41,0-.91.08-1.31.01-.51-.09-.77-.26-1.31-.25-.5.01-.66-.15-1.06-.25s-.93.04-1.33.01c-.44-.02-.65-.19-1.07-.25-.46-.06-.95.1-1.4-.04-.02-.13-.05-.26-.09-.39-.06-.02-.13-.03.52.19Z"/>
      <path class="cls-6" d="m197.69,38.18c.15.09.28.15.43.21.25-.47-.85-1.11-1.15-1.4-.95-.91-1.8-1.84-2.86-2.63-1.25-.93-2.49-1.9-3.82-2.73-.65-.4-1.37-.71-2.03-1.1-.79-.46-1.48-.63-2.32-.95-2.23-.84-5.47-1.27-7.69-.1-.62.33-1.49.84-1.91,1.4-.18.24-.52.68-.6.96-.09.29-.3,1.04-.28,1.32.02.36.2.82.26,1.19.08.47.27.92.42,1.37.4,1.16,1.17,2.37,1.97,3.29,1.17,1.34,2.02,2.89,3.1,4.3,1.56,2.03,3.31,3.86,5.01,5.78,1.03,1.16,2.1,2.28,3.11,3.47,1.17,1.38,2.47,2.51,3.78,3.75,1.37,1.31,2.54,2.81,3.91,4.13,1.73,1.66,3.63,3.1,5.32,4.81,3.17,3.22,6.69,6.22,10.16,9.11,1.63,1.36,3.37,2.59,5.02,3.92,2.41,1.95,4.92,3.7,7.41,5.56,1.96,1.46,3.94,2.89,5.98,4.25,2,1.33,3.89,2.8,5.94,4.05,2.28,1.39,4.46,2.93,6.7,4.38,2.46,1.58,5.03,2.97,7.52,4.49,2.16,1.31,4.21,2.78,6.47,3.92,1.93.98,3.75,2.11,5.64,3.17,4.67,2.61,9.43,5.08,14.22,7.46,2.1,1.04,4.2,2.09,6.27,3.18s4.12,1.81,6.15,2.79c2,.96,4.01,1.81,6.04,2.69,2.07.9,4.05,1.97,6.16,2.78,6.67,2.57,13.34,5.07,20.09,7.38,1.24.43,2.54.69,3.82,1s2.54.84,3.83,1.21c2.14.62,4.34.99,6.51,1.48,1.5.34,2.92.67,4.48.66.94,0,2.03.05,2.88-.41,2.67-1.45-5.17-6.73-6.18-7.28s-1.84-1.45-2.74-2.1-1.86-1.23-2.75-1.91c-.46-.35-.97-.6-1.43-.94-.42-.32-.73-.74-1.13-1.09-.66-.58-1.41-1.23-2.17-1.69-1.44-.88-2.92-1.59-4.4-2.42-.66-.37-1.25-.73-1.92-1.08-.34-.18-.6-.44-.95-.6-.22-.1-.72-.36-.96-.29"/>
      <path class="cls-6" d="m206.52,28.39c-.24-.7-1-1.2-1.49-1.72-1.26-1.35-2.17-3.01-3.41-4.37-1.76-1.92-3.8-3.54-5.62-5.4-2.1-2.13-4.37-3.88-6.68-5.76-1.85-1.51-3.49-3.16-5.49-4.49-1.68-1.11-3.2-2.49-4.78-3.75-.8-.64-1.51-1.37-2.38-1.92-.32-.2-1.2-.67-1.42-.4-.33.41.22,1.65.34,2.02.38,1.14.95,2.29,1.54,3.34.37.65.81,1.2,1.09,1.91.32.81.64,1.6,1.01,2.4.87,1.9,1.76,3.8,2.59,5.71,1.11,2.55,2.63,4.88,4.02,7.27,1.56,2.7,2.87,5.55,4.43,8.26,1.66,2.89,3.57,5.59,5.13,8.53,1.94,3.65,4.34,7.13,6.59,10.6,1.11,1.71,2.03,3.54,3.08,5.29,1.13,1.88,2.4,3.67,3.58,5.53,2.62,4.13,5.11,8.33,7.85,12.39,1.42,2.1,2.61,4.34,4.04,6.45,1.07,1.57,2.11,3.16,3.18,4.73,2.75,4.08,5.57,8.1,8.42,12.11,2.43,3.42,5,6.72,7.52,10.08,2.69,3.59,5.56,7,8.31,10.54,1.21,1.56,2.32,3.17,3.63,4.65,1.23,1.37,2.5,2.69,3.61,4.16,2.34,3.07,5.12,5.77,7.67,8.67,2.24,2.54,4.79,4.7,7.17,7.1,1.09,1.1,2.17,2.21,3.34,3.24,1.25,1.09,2.6,2.08,3.8,3.22,3.43,3.25,7.44,5.51,11.48,7.88,2.6,1.52,5.22,2.97,8.1,3.82.82.24,1.67.4,2.51.6.68.16,1.42.3,2.05.17.7-.14,1.28-.3,1.55-1.01.21-.56.15-1.31,0-1.91-.43-1.66-1.18-2.98-1.97-4.49-.47-.89-1.11-1.94-1.72-2.75-.41-.54-.85-.96-1.21-1.55-.33-.56-.8-.97-1.26-1.43-.98-.97-1.97-1.9-2.92-2.91-.43-.45-.83-.83-1.21-1.32s-.78-1.17-1.29-1.56"/>
      <path class="cls-5" d="m333.09,135.86c0-.49.11-1.04-.47-1.21-.35-.1-1.3-.07-1.68,0-1.24.23-1.43,1.62-1.43,2.64,0,1.1.1,1.92.78,2.82.68.89,1.82,1.05,2.81,1.29s1.7.12,2.18-.86c.19-.39.39-.88.46-1.34,0-.16-.02-.33-.03-.49.02-.13.08-.22.2-.28.05-.25.06-.4.05-.66-.02-1.09.06-1.8-.78-2.57s-1.93-1.02-3.04-1.01"/>
      <path class="cls-5" d="m238.76,102.66c-.3-.05-.53-.21-.84-.25-.27-.03-.57,0-.84,0-.62,0-1.14.04-1.67.23-1.02.37-1.93,1.6-2.17,2.63-.11.49.01,1.18.01,1.68,0,.69-.02,1.27.18,1.91.38,1.2,1.12,2.28,2.2,2.93,1.14.68,2.28,1.12,3.59,1.13,1.24,0,2.53-.45,3.59-1.13s1.38-1.31,1.71-2.39c.07-.23.18-.35.19-.65.01-.28,0-.56,0-.84,0-.65-.1-1.1-.24-1.67-.3-1.22-1.16-2.48-2.39-3.05-.19-.09-.51-.26-.7-.31-.16-.04-.35.06-.5.03-.12-.03-.19-.18-.28-.2-.38-.09-.64-.13-1.02-.29-.32-.14-.85-.21-.84.24Z"/>
      <path class="cls-5" d="m199.36,15.26c.27,0,.31-.26.26-.48-.07-.32-.35-.34-.62-.44-.55-.22-.97-.26-1.55-.27-.89,0-1.51.34-2.08,1s-1.22,1.82-1.26,2.7c-.03.5-.05.96.17,1.37.28.52.76.93,1.26,1.21.95.53,1.8.65,2.87.65,1.23,0,2-.65,2.57-1.71.51-.95.74-2.09.24-3.06-.26-.5-.44-1.08-.89-1.45-.22-.18-.58-.44-.84-.56s-.64-.13-.84-.38"/>
    </g>
  </g>
</svg>