<?xml version="1.0" encoding="UTF-8"?>
<svg id="Layer_2" data-name="Layer 2" xmlns="http://www.w3.org/2000/svg" xmlns:xlink="http://www.w3.org/1999/xlink" viewBox="0 0 128.07 101.31">
  <defs>
    <style>
      .cls-1 {
        fill: #c2eabd;
      }

      .cls-2 {
        clip-path: url(#clippath);
      }

      .cls-3 {
        fill: none;
      }
    </style>
    <clipPath id="clippath">
      <rect class="cls-3" width="128.07" height="101.31"/>
    </clipPath>
  </defs>
  <g id="Layer_14" data-name="Layer 14">
    <g class="cls-2">
      <g id="Group_136" data-name="Group 136">
        <path id="Path_2917" data-name="Path 2917" class="cls-1" d="m0,65.83c.14,2.3,2.27,2.86,3.85,4.87.58.66.94,1.47,1.04,2.34.04,1.17-.84,1.5-1.03,2.42-.35,1.67,1.19,3.01,1.17,4.83-.03,2.64-.85,4.17,2.25,4.44,2.67.23,4.87.56,6.58,2.92.9,1.32,1.7,2.7,2.4,4.14,1.15,2.3,1.62,4.5,4.57,3.5,2.61-.88,4.71-3.28,7.61-3.24,3.06.04,4.34,3.34,6.9,4.43,3.21,1.36,6.94,2.69,10.47,2.51,2.35-.11,4.51-1.15,6.85-1.2,1.03-.12,2.08-.02,3.08.3.78.32,1.36.99,2.16,1.3,1.7.64,3.74-.36,5.58-.4,1.99-.05,3.45.84,5.3,1.33,1.48.4,2.74-.04,4.2-.11,1.76-.08,1.32.63,2.68,1,1.64.45,3.41-.83,4.59-1.85,1.35-1.15,2.72-2.28,4.02-3.48,1.36-1.26,2.27-3.05,3.68-4.21,1.61-1.45,3.99-1.65,5.82-.5,1.14.76,1.69,2.54,2.94,3.1.31.14.64.2.97.2,1.17-.16,2.3-.56,3.3-1.19,1.02-.6,1.92-1.39,2.64-2.32,1.6-1.77,3.51-1.32,5.33-2.54,2.95-1.97,4.27-6.81,4.53-10.13.14-1.73-1.18-3.91.12-5.45.85-1.01,3.67-1.89,4.98-1.95,1.63-.08,2.97.22,4.52-.67,3.54-2.05,3.98-6.21,2.85-9.77-1.28-4-4.11-7.71-4.82-11.83-.94-5.44,3.69-7.43,6-11.53,4.64-8.22-9.22-12.83-14.45-14.74-1.84-.67-4.51-1.83-5.35-3.71-.8-1.78.11-3.77.37-5.57.45-3.07.79-6.74-2.27-8.59-3.95-2.38-7.91-.69-11.92.82-4.66,1.76-8.18,5.7-12.84,7.41-1.74.8-3.76.72-5.43-.22-3.51-1.75-6.66-3.48-9.13-6.57C64.1,3.43,60.83.2,57.43.01c-6.09-.33-8.2,7.22-13.88,7.41-4.04.12-8.08-.19-12.05-.93-3.39-.59-5.29,3.62-6.08,6.55-.96,3.6,2.2,5.73,2.85,9.1.74,3.83-2.37,5.51-5.57,6.26-4.01.94-7.61,1.49-11.16,3.8-3.26,2.12-6.48,5.72-4.07,9.51,1.74,2.74,5.79,5.92,5.52,9.49-.25,3.38-3.8,4.59-6.33,5.91-2.83,1.48-5.72,3.89-6.49,7.19-.13.5-.18,1.02-.16,1.54"/>
      </g>
    </g>
  </g>
</svg>