<?xml version="1.0" encoding="UTF-8"?>
<svg id="Layer_2" data-name="Layer 2" xmlns="http://www.w3.org/2000/svg" viewBox="0 0 786.93 622.53">
  <defs>
    <style>
      .cls-1, .cls-2 {
        fill: #f9dc5c;
      }

      .cls-3 {
        fill: #fff;
      }

      .cls-4 {
        fill: #2a3c24;
      }

      .cls-5 {
        stroke: #2a3c24;
        stroke-miterlimit: 10;
        stroke-width: 2px;
      }

      .cls-5, .cls-6 {
        fill: none;
      }

      .cls-7 {
        fill: #9b819a;
      }

      .cls-8 {
        fill: #13abb8;
        opacity: .54;
      }

      .cls-9 {
        fill: #d3caae;
      }

      .cls-9, .cls-2 {
        opacity: .68;
      }

      .cls-10 {
        fill: #c2eabd;
      }

      .cls-11 {
        fill: #a690a4;
      }

      .cls-12 {
        fill: #99785f;
      }

      .cls-13 {
        fill: #826755;
      }

      .cls-14 {
        fill: #fcf4d4;
      }

      .cls-15 {
        fill: #d8be4e;
      }
    </style>
  </defs>
  <g id="Layer_1-2" data-name="Layer 1">
    <g>
      <path class="cls-10" d="m.04,404.54c.84,14.13,13.93,17.57,23.65,29.93,3.15,4.01,6.19,9.16,6.39,14.4.27,7.19-5.15,9.23-6.33,14.85-2.14,10.24,7.32,18.49,7.18,29.68-.21,16.24-5.22,25.63,13.83,27.3,16.42,1.44,29.94,3.43,40.41,17.95,5.34,7.41,10.63,17.22,14.75,25.45,7.08,14.15,9.98,27.67,28.11,21.52,16.03-5.43,28.95-20.15,46.77-19.9,18.79.27,26.64,20.51,42.41,27.19,19.71,8.34,42.68,16.49,64.35,15.46,14.42-.69,27.68-7.05,42.08-7.38,6.59-.15,12.89-.62,18.89,1.87,4.79,1.99,8.35,6.11,13.25,7.97,10.42,3.96,22.99-2.19,34.28-2.46,12.24-.3,21.22,5.15,32.56,8.2,9.08,2.43,16.84-.28,25.81-.71,10.83-.52,8.14,3.85,16.47,6.13,10.08,2.75,20.93-5.12,28.23-11.35,8.31-7.1,16.72-13.98,24.72-21.39,8.38-7.76,13.95-18.72,22.6-25.84,10.27-8.47,24.42-10.58,35.8-3.05,7.02,4.65,10.39,15.6,18.08,19.06,1.93.87,3.93,1.22,5.97,1.21,6.81-.04,14.04-4.2,20.29-7.34,6.88-3.46,11.12-8.67,16.19-14.27,9.84-10.86,21.6-8.1,32.78-15.59,18.1-12.14,26.22-41.85,27.81-62.27.83-10.65-7.25-24.01.74-33.51,5.21-6.2,22.55-11.62,30.59-12,10.01-.47,18.26,1.36,27.75-4.14,21.72-12.59,24.48-38.17,17.49-60.06-7.86-24.61-25.26-47.4-29.63-72.72-5.76-33.4,22.66-45.68,36.88-70.84,28.53-50.5-56.65-78.82-88.81-90.58-11.3-4.13-27.72-11.22-32.88-22.78-4.89-10.97.65-23.15,2.28-34.2,2.78-18.83,4.85-41.43-13.95-52.77-24.3-14.66-48.64-4.24-73.28,5.06-28.65,10.81-50.3,35-78.89,45.52-12.58,4.63-21.26,4.7-33.37-1.33-21.6-10.76-40.94-21.4-56.14-40.42C393.9,21.06,373.76,1.21,352.88.07c-37.45-2.05-50.41,44.38-85.31,45.56-25.98.87-48.82-1.31-74.04-5.73-20.85-3.65-32.53,22.22-37.33,40.23-5.89,22.09,13.52,35.21,17.54,55.91,4.57,23.56-14.55,33.87-34.21,38.47-24.65,5.77-46.76,9.18-68.61,23.37-20.03,13-39.81,35.12-25.02,58.41,10.71,16.86,35.56,36.35,33.93,58.29-1.55,20.8-23.34,28.19-38.91,36.33-17.36,9.07-35.13,23.96-39.87,44.16-.86,3.65-1.15,6.76-.99,9.47Z"/>
      <g>
        <path class="cls-4" d="m319.1,64.2c-.75-3.4-7.16-3.6-9.68-3.22-4.87.73-8.69,2.74-12.51,5.79-4.67,3.73-7.3,10.61,1.01,12.3,6.86,1.4,22.84-8.53,23.05-11.35.12-1.68-.53-4.14-1.86-3.52Z"/>
        <path class="cls-11" d="m324.53,62.98c-3.79.88-7.36,2.11-11.12,3.2-3.83,1.1-7.43,2.79-11.1,4.47-7.41,3.4-15.21,6.1-20.94,11.84-2.53,2.53-5.78,5.34-4.84,9.22,1.07,4.41,10.05,2.08,13.25,1.36,7.27-1.64,14.6-4.52,21.53-7.37,5.28-2.17,10.44-4.64,15.45-7.38,2.13-1.16,3.58-2.47,5.47-3.85,1.59-1.16,3.42-1.92,5.08-2.97,1.94-1.22,4.2-2.52,5.25-4.76,1.11-2.38-.26-4.51-2.74-4.73-4.56-.4-9.32-.26-13.82.65-.49.1-.98.21-1.47.32Z"/>
        <path class="cls-7" d="m313.31,69.54c-1.88.37-3.99,1.77-5.9,2.54-2.74,1.1-5.35,2.33-7.94,3.67-4.84,2.49-9.59,5.08-14.23,7.79-2.6,1.52-7.64,4.5-8.52,7.71-1.22,4.43,8.94,3.07,11.18,2.9,6.76-.51,13.37-3.59,19.65-5.82,5.36-1.91,10.76-4.43,15.96-6.83,4.1-1.89,8.23-4.19,11.79-6.88,2.53-1.92,7.43-5.34,8.22-8.66.96-4.04-10.44-1.49-12.33-1.05-5.2,1.22-10.54,2.74-15.56,4.49-2.02.7-3.62,1.9-5.5,2.85"/>
        <path class="cls-11" d="m323.28,77.31c-.19-.12-.4-.23-.61-.31-3.55-1.41-8.71.59-12.1,1.72-4.68,1.55-9.55,3.32-13.02,6.99-.53.55-1.52,1.77-1.52,2.63,0,.97,1.01,1.53,1.82,2.15,1.61,1.23,3.8,1.12,5.78.53,4.43-1.32,8.56-3.78,12.52-5.85,2.05-1.07,8.42-2.6,8.45-5.65,0-.93-.56-1.71-1.32-2.21Z"/>
        <path class="cls-1" d="m300.09,90.85c-.7-1.79,7.12-4.92,8.54-5.5,3.31-1.33,6.61-2.55,9.97-3.53.98-.29,4.29-1.73,4.78-.29.35,1.04-1.94,3.13-2.6,3.72-2.66,2.36-5.86,4.68-9.16,6.18s-8.56,2.53-11.53-.58Z"/>
        <path class="cls-2" d="m302.68,91.39c-.24,3.77.8,8.06,1.47,11.91.66,3.77.99,7.56,1.61,11.32s1.73,7.56,2.51,11.38c2.01,9.86,1.98,20.18,3.83,29.95.26,1.37.58,2.7.97,4.04.51,1.74.73,2.01,2.54,1.43,5.92-1.91,12.22-3.78,18.43-5,7-1.38,13.92-.99,20.99-1.47,3.3-.22,6.59.17,9.9.43,2.96.23,5.87.11,8.75.72.74.16,3.28,1.08,3.69.3s-1.98-3.53-2.39-4.11c-2.63-3.73-6.25-7.05-9.3-10.46-3.45-3.86-6.52-7.97-9.67-12.11-3.37-4.44-7.18-8.56-10.51-13.02-5.51-7.38-9.87-15.54-14.74-23.17-1.59-2.49-3.23-4.83-5-7.09-.79-1.01-1.47-2.23-2.39-3.07-1.35-1.23-1.87-.33-3.18.45-2.26,1.36-4.81,2.77-7.27,3.75s-4.91,1.37-7.31,2.47c-.88.4-2.04,1.34-2.94,1.34Z"/>
        <path class="cls-1" d="m239.42,56.9c-.07-.18.18-.07.25-.06.18.02.39-.02.57-.03.2,0,.39,0,.59-.06.15-.04.3-.09.46-.12.17-.03.34-.04.52-.08.23-.05.44-.16.67-.22.22-.06.42-.17.63-.24.24-.09.47-.21.7-.33.43-.25.86-.53,1.28-.81.38-.26.69-.66.97-1.03.15-.2.32-.38.48-.58.17-.22.3-.49.43-.73.21-.42.37-.89.52-1.35.18-.56.39-1.11.51-1.69.1-.52.25-1.04.28-1.57.02-.29.08-.58.14-.87.07-.32.07-.65.13-.98.06-.3.09-.6.12-.9.03-.26.09-.52.11-.79.04-.62.15-1.23.21-1.85.1-1.03.26-2.07.28-3.1,0-.47.09-.94.13-1.42.03-.38.08-.75.11-1.13.02-.29.04-.6.09-.89.02-.09.05-.17.07-.25.02-.1-.01-.14.04-.24-.09.14-.04.33-.03.49.01.26-.02.56.05.8.09.34.02.66.03,1.01.02.46.04.91.06,1.37.05,1.14.1,2.28.15,3.42.03.65,0,1.29.03,1.94.03.75,0,1.52.11,2.27.09.67.11,1.34.19,2.01.02.19.06.37.09.56s.02.37.06.55c.06.34.16.67.22,1.01.12.6.31,1.16.49,1.75s.43,1.06.67,1.59c.3.65.74,1.3,1.34,1.71.73.51,1.6.81,2.47.99s1.72.2,2.58.2c.38,0,.75.04,1.13.05s.78-.02,1.17,0c.3,0,.6,0,.91.03.1,0,.22,0,.32.03.11.02.48.11.38.25-.03.04-.14.08-.19.09-.08.02-.15.03-.22.05-.19.05-.37.1-.56.15-.72.18-1.45.37-2.19.43-.19.02-.36.07-.55.08-.25,0-.51,0-.76.04-.52.09-1.05.11-1.57.2-.46.08-.94.13-1.39.27-.43.14-.85.22-1.25.41-.16.08-.29.16-.43.26-.09.07-.2.09-.29.15s-.16.14-.23.22c-.3.34-.54.72-.76,1.11-.24.44-.46.95-.61,1.43-.07.24-.13.48-.21.71-.06.18-.07.37-.12.56-.05.21-.13.41-.17.62-.14.71-.27,1.42-.38,2.13s-.32,1.42-.36,2.14c-.02.43-.14.85-.2,1.28s-.08.82-.15,1.23c-.08.47-.09.95-.16,1.42-.04.21-.04.42-.06.63-.02.26-.08.51-.1.76-.11,1.61-.21,3.23-.32,4.84-.02.3-.04.61-.05.91,0,.15-.02.29-.03.44,0,.18.03.36,0,.54-.02.22,0,.43,0,.65,0,.19-.04.36-.03.55.01.3.03.61.04.91,0,.16.06.39.01.55-.12-.03-.1-.28-.1-.38,0-.11-.05-.2-.07-.31-.03-.2,0-.41-.02-.61s-.07-.39-.08-.6c0-.22,0-.45-.03-.67-.02-.3-.08-.59-.09-.89-.01-.37-.09-.73-.1-1.11s-.07-.74-.11-1.11-.07-.7-.12-1.04c-.12-.87-.22-1.75-.32-2.63-.18-1.68-.38-3.35-.65-5.02s-.56-3.19-.84-4.79c-.13-.73-.27-1.45-.46-2.17-.17-.64-.32-1.3-.61-1.9-.22-.46-.44-.91-.73-1.32-.13-.18-.28-.32-.41-.5-.14-.19-.3-.36-.5-.48-.64-.41-1.45-.7-2.21-.73-.39-.02-.8-.04-1.19-.09-.19-.02-.38.03-.56,0s-.36-.03-.56-.02-.37-.02-.56-.03c-.08,0-.17.02-.25,0s-.17-.04-.25-.04c-.17,0-.33.03-.5,0-.12-.02-.32.03-.41-.06"/>
        <path class="cls-1" d="m212.39,28.28c.14.04.15-.07.26-.09s.24.03.36,0c.13-.03.22-.09.35-.09.17,0,.28-.02.44-.07.2-.05.42-.01.62-.06.23-.06.47-.1.7-.2.79-.34,1.59-.71,2.09-1.43.12-.17.27-.33.4-.51.14-.2.22-.42.33-.64.2-.38.35-.87.45-1.27.02-.08.06-.18.09-.27s.05-.22.08-.31.06-.17.09-.26c.04-.12.06-.22.11-.35.08-.2.18-.45.22-.64.03-.11.06-.22.09-.33.03-.13,0-.26.03-.4.12-.54.19-1.09.32-1.63.07-.26.04-.54.1-.8.05-.23.22-.5.18-.76,0,.22.04.47-.02.68-.07.26-.05.52-.09.79-.06.48-.07.96-.07,1.45,0,.47-.09,1.04,0,1.5.03.14.08.2.08.35,0,.14,0,.22.04.35.03.12.03.23.05.35.01.06.06.11.07.18.02.07-.01.15,0,.22.04.19.19.43.29.61.05.1.11.17.18.26.07.1.11.24.17.33.22.3.42.6.68.86.28.28.54.49.9.64.4.17.77.32,1.14.53.49.27,1.07.19,1.56.38.43.17,1.07.11,1.56.08-.06.09-.33.22-.43.25-.23.07-.49.07-.73.12-.14.03-.2.08-.35.08-.12,0-.23,0-.35,0-.25,0-.5,0-.75,0-.23,0-.37.09-.62.09-.13,0-.19.05-.28.07-.13.03-.26,0-.38.02-.1.02-.16.07-.26.09-.11.02-.24-.03-.36,0-.19.03-.4.16-.56.29-.72.54-1.09,1.45-1.32,2.27-.11.4-.19.8-.26,1.23-.02.13-.09.22-.1.35,0,.14-.03.22-.07.35-.03.12-.02.23-.02.35,0,.17-.06.21-.09.35-.02.1,0,.25,0,.36,0,.17-.06.21-.09.35-.06.23,0,.56,0,.8,0,.17-.06.28-.09.44-.02.11,0,.24,0,.35,0,.13.03.32,0,.44-.03.14-.12.14-.09.32-.03-.22.09-.45.09-.68s0-.47,0-.7,0-.47,0-.7c0-.11.02-.25,0-.35-.03-.15-.09-.24-.09-.4,0-.21.04-.46,0-.66-.02-.13-.09-.22-.09-.35s.02-.27,0-.4c-.11-.48-.25-.97-.34-1.45-.15-.73-.28-1.46-.86-2.04-.12-.12-.26-.21-.39-.31-.05-.04-.14-.07-.2-.11-.08-.05-.16-.11-.24-.15-.2-.1-.36-.11-.59-.11s-.41-.09-.65-.1c-.1,0-.2,0-.32.01-.04,0-.12.05-.15.05-.05,0-.09-.06-.15-.05-.14.01-.26.13-.4.1-.12-.02-.15-.09-.3-.1-.13,0-.27.02-.4,0s-.19-.07-.3-.09c-.09-.02-.3-.02-.4,0-.15.03-.22.14-.88.18Z"/>
        <path class="cls-1" d="m210.17,69.8c.14.04.15-.07.26-.09s.24.03.36,0c.13-.03.22-.09.35-.09.17,0,.28-.02.44-.07.2-.05.42-.01.62-.06.23-.06.47-.1.7-.2.79-.34,1.59-.71,2.09-1.43.12-.17.27-.33.4-.51.14-.2.22-.42.33-.64.2-.38.35-.87.45-1.27.02-.08.06-.18.09-.27s.05-.22.08-.31.06-.17.09-.26c.04-.12.06-.22.11-.35.08-.2.18-.45.22-.64.03-.11.06-.22.09-.33.03-.13,0-.26.03-.4.12-.54.19-1.09.32-1.63.07-.26.04-.54.1-.8.05-.23.22-.5.18-.76,0,.22.04.47-.02.68-.07.26-.05.52-.09.79-.06.48-.07.96-.07,1.45,0,.47-.09,1.04,0,1.5.03.14.08.2.08.35,0,.14,0,.22.04.35.03.12.03.23.05.35.01.06.06.11.07.18.02.07-.01.15,0,.22.04.19.19.43.29.61.05.1.11.17.18.26.07.1.11.24.17.33.22.3.42.6.68.86.28.28.54.49.9.64.4.17.77.32,1.14.53.49.27,1.07.19,1.56.38.43.17,1.07.11,1.56.08-.06.09-.33.22-.43.25-.23.07-.49.07-.73.12-.14.03-.2.08-.35.08-.12,0-.23,0-.35,0-.25,0-.5,0-.75,0-.23,0-.37.09-.62.09-.13,0-.19.05-.28.07-.13.03-.26,0-.38.02-.1.02-.16.07-.26.09-.11.02-.24-.03-.36,0-.19.03-.4.16-.56.29-.72.54-1.09,1.45-1.32,2.27-.11.4-.19.8-.26,1.23-.02.13-.09.22-.1.35,0,.14-.03.22-.07.35-.03.12-.02.23-.02.35,0,.17-.06.21-.09.35-.02.1,0,.25,0,.36,0,.17-.06.21-.09.35-.06.23,0,.56,0,.8,0,.17-.06.28-.09.44-.02.11,0,.24,0,.35,0,.13.03.32,0,.44-.03.14-.12.14-.09.32-.03-.22.09-.45.09-.68s0-.47,0-.7,0-.47,0-.7c0-.11.02-.25,0-.35-.03-.15-.09-.24-.09-.4,0-.21.04-.46,0-.66-.02-.13-.09-.22-.09-.35s.02-.27,0-.4c-.11-.48-.25-.97-.34-1.45-.15-.73-.28-1.46-.86-2.04-.12-.12-.26-.21-.39-.31-.05-.04-.14-.07-.2-.11-.08-.05-.16-.11-.24-.15-.2-.1-.36-.11-.59-.11s-.41-.09-.65-.1c-.1,0-.2,0-.32.01-.04,0-.12.05-.15.05-.05,0-.09-.06-.15-.05-.14.01-.26.13-.4.1-.12-.02-.15-.09-.3-.1-.13,0-.27.02-.4,0s-.19-.07-.3-.09c-.09-.02-.3-.02-.4,0-.15.03-.22.14-.88.18Z"/>
        <path class="cls-1" d="m227.92,95.98c.14.04.15-.07.26-.09s.24.03.36,0c.13-.03.22-.09.35-.09.17,0,.28-.02.44-.07.2-.05.42-.01.62-.06.23-.06.47-.1.7-.2.79-.34,1.59-.71,2.09-1.43.12-.17.27-.33.4-.51.14-.2.22-.42.33-.64.2-.38.35-.87.45-1.27.02-.08.06-.18.09-.27s.05-.22.08-.31.06-.17.09-.26c.04-.12.06-.22.11-.35.08-.2.18-.45.22-.64.03-.11.06-.22.09-.33.03-.13,0-.26.03-.4.12-.54.19-1.09.32-1.63.07-.26.04-.54.1-.8.05-.23.22-.5.18-.76,0,.22.04.47-.02.68-.07.26-.05.52-.09.79-.06.48-.07.96-.07,1.45,0,.47-.09,1.04,0,1.5.03.14.08.2.08.35,0,.14,0,.22.04.35.03.12.03.23.05.35.01.06.06.11.07.18.02.07-.01.15,0,.22.04.19.19.43.29.61.05.1.11.17.18.26.07.1.11.24.17.33.22.3.42.6.68.86.28.28.54.49.9.64.4.17.77.32,1.14.53.49.27,1.07.19,1.56.38.43.17,1.07.11,1.56.08-.06.09-.33.22-.43.25-.23.07-.49.07-.73.12-.14.03-.2.08-.35.08-.12,0-.23,0-.35,0-.25,0-.5,0-.75,0-.23,0-.37.09-.62.09-.13,0-.19.05-.28.07-.13.03-.26,0-.38.02-.1.02-.16.07-.26.09-.11.02-.24-.03-.36,0-.19.03-.4.16-.56.29-.72.54-1.09,1.45-1.32,2.27-.11.4-.19.8-.26,1.23-.02.13-.09.22-.1.35,0,.14-.03.22-.07.35-.03.12-.02.23-.02.35,0,.17-.06.21-.09.35-.02.1,0,.25,0,.36,0,.17-.06.21-.09.35-.06.23,0,.56,0,.8,0,.17-.06.28-.09.44-.02.11,0,.24,0,.35,0,.13.03.32,0,.44-.03.14-.12.14-.09.32-.03-.22.09-.45.09-.68s0-.47,0-.7,0-.47,0-.7c0-.11.02-.25,0-.35-.03-.15-.09-.24-.09-.4,0-.21.04-.46,0-.66-.02-.13-.09-.22-.09-.35s.02-.27,0-.4c-.11-.48-.25-.97-.34-1.45-.15-.73-.28-1.46-.86-2.04-.12-.12-.26-.21-.39-.31-.05-.04-.14-.07-.2-.11-.08-.05-.16-.11-.24-.15-.2-.1-.36-.11-.59-.11s-.41-.09-.65-.1c-.1,0-.2,0-.32.01-.04,0-.12.05-.15.05-.05,0-.09-.06-.15-.05-.14.01-.26.13-.4.1-.12-.02-.15-.09-.3-.1-.13,0-.27.02-.4,0s-.19-.07-.3-.09c-.09-.02-.3-.02-.4,0-.15.03-.22.14-.88.18Z"/>
      </g>
      <path class="cls-5" d="m174.65,327.64c-.13.27.15.44-.2.5-.04-5.34-1.23-10.65.91-15.78s7.25-8.49,12.63-8.52c12.68-.08,21.43,13.67,13.78,24.27-1.54,2.13-3.74,4.1-6.01,5.27s-5.4,1.6-6.9,3.86c2.84,5.14,10.44,8.32,15.56,10.1,4.03,1.4,12.01,4.5,16.13,1.88,3.27-2.07,1.58-9.32.67-12.35-1.26-4.24-2.53-6.52-5.67-9.61-1.19-1.17-3.95-4.76-1.54-6.08,1.72-.94,3.58,2.29,5.18,2.87,1.41-1.79,1.87-5.29,3.44-7.52,1.95-2.78,4.07-4.43,7.56-4.42,9.42.03,6.94,12.08,6.35,18.25s-2.73,12.6-3.36,19.05c-.52,5.22-2.04,10.99-6.98,13.98-5.22,3.15-10.87,3.12-16.72,2.6s-11.38-2.98-17.22-2.13c-11.79,1.73-23.59,12.41-31.34,20.83-3.85,4.18-6.72,10-9.52,14.97-2.55,4.53-3.68,9.98-7.42,13.72-4.33,4.32-9.71,7.12-15.43,9.27-2.3.86-4.9,1.81-7.25,2.14-3.12.44-5.15.07-7.77,2.13-4.51,3.54-2.93,10.29-7.13,13.54-5.52,4.28-8.63-6.4-9.14-9.97-.39-2.75-.63-5.97-.32-8.81.43-3.9,1.63-4.31,4.91-4.93,5.58-1.06,11.34-3.11,16.02-6.53s10.05-6.06,12.94-11.39,2.41-10.87,2.39-16.9c-.01-3.38,1.46-5.67-2.72-5.83-2.87-.1-5.62.33-8.22-.2s-5.3-1.23-7.97-1.86c-1.52-.36-6.77-2.04-7.97-1-2.13,1.84,3.47,12.96,3.96,15.62,1.06,5.88-1.32,10.56-6.8,13.14-3.79,1.79-12.07,2.93-15.8.65-5-3.06-2.04-9.42,1.36-12.63,1.65-1.56,4.95-2.37,6.03-4.2,1.4-2.36-.72-6.1-1.69-8.24-2.29-5.04-7.38-10.71-4.47-16.3,1.53-2.93,4.24-2.04,7.12-2.48s5.38-.52,8.16-.39c5.86.29,11.64.53,17.61.52,4.96-.01,12.47.9,16.16-3.24,1.79-2.01,2.08-5.18,3.65-7.51s3.08-4.74,4.46-7.38c1.73-3.29,7.63-10.57,5.33-14.3-2.72-4.41-11.75-3.73-15.75-2.02-5.61,2.41-7.21,7.84-10.04,12.9-1.51,2.7-1.95,4.96-1.48,8.09s.25,5.66-3.06,2.78c-2.74-2.39-3.5-2.43-6.93-1.1-2.56,1-5.98,1.97-8.81,1.43-6.75-1.3.87-11.97,2.98-15.08,2.99-4.43,6.63-8.27,10.43-12.06,1.86-1.85,3.38-4.17,5.48-5.76,2.47-1.88,4.6-1.49,7.39-1.83,11.28-1.35,21.54.16,31.87,4.03,3.64,1.36,9.95,3.23,11.14,9.97Z"/>
      <g>
        <path class="cls-15" d="m179.54,297.85c.1.11.49.39.27.28-2.58-4.03-3.45-9.16-6.17-13.04-2.39-3.4-6.77-3.6-10.42-5.3-2.19-1.02-3.94-2.3-6.17-2.89.88,3.62,4.35,7.71,5.97,11.05,1.73,3.56,6.45,4.64,9.85,6.47,1.73.93,3.89,1.53,6.67,3.43Z"/>
        <path class="cls-1" d="m148.46,296.82c1.69-3.37,3.09-7.08,4.6-10.62,1.36-3.2,3.53-6.27,4.53-9.55,2.5.93,5.25,1.89,7.87,2.53s4.51,2.11,7.05,2.93c.34,2.67-1.46,6.16-2.03,8.76-.69,3.2-1.77,6.48-2.86,9.57-.95,2.72-1.63,6.5-4.98,4.74-2.21-1.16-4.42-2.5-6.41-3.95-1.38-1.01-2.8-1.38-4.16-2.06-1.14-.56-2.59-2.12-3.61-2.34Z"/>
      </g>
      <g>
        <path class="cls-15" d="m81.04,377.41c.1.11.49.39.27.28-2.58-4.03-3.45-9.16-6.17-13.04-2.39-3.4-6.77-3.6-10.42-5.3-2.19-1.02-3.94-2.3-6.17-2.89.88,3.62,4.35,7.71,5.97,11.05,1.73,3.56,6.45,4.64,9.85,6.47,1.73.93,3.89,1.53,6.67,3.43Z"/>
        <path class="cls-1" d="m49.96,376.37c1.69-3.37,3.09-7.08,4.6-10.62,1.36-3.2,3.53-6.27,4.53-9.55,2.5.93,5.25,1.89,7.87,2.53s4.51,2.11,7.05,2.93c.34,2.67-1.46,6.16-2.03,8.76-.69,3.2-1.77,6.48-2.86,9.57-.95,2.72-1.63,6.5-4.98,4.74-2.21-1.16-4.42-2.5-6.41-3.95-1.38-1.01-2.8-1.38-4.16-2.06-1.14-.56-2.59-2.12-3.61-2.34Z"/>
      </g>
      <g>
        <path class="cls-15" d="m191.04,420.41c.1.11.49.39.27.28-2.58-4.03-3.45-9.16-6.17-13.04-2.39-3.4-6.77-3.6-10.42-5.3-2.19-1.02-3.94-2.3-6.17-2.89.88,3.62,4.35,7.71,5.97,11.05,1.73,3.56,6.45,4.64,9.85,6.47,1.73.93,3.89,1.53,6.67,3.43Z"/>
        <path class="cls-1" d="m159.96,419.37c1.69-3.37,3.09-7.08,4.6-10.62,1.36-3.2,3.53-6.27,4.53-9.55,2.5.93,5.25,1.89,7.87,2.53s4.51,2.11,7.05,2.93c.34,2.67-1.46,6.16-2.03,8.76-.69,3.2-1.77,6.48-2.86,9.57-.95,2.72-1.63,6.5-4.98,4.74-2.21-1.16-4.42-2.5-6.41-3.95-1.38-1.01-2.8-1.38-4.16-2.06-1.14-.56-2.59-2.12-3.61-2.34Z"/>
      </g>
      <g>
        <path class="cls-4" d="m198.45,252.05c4.86-5.45,10.12-8.29,13.24-6.77.35.17,1.29.66,1.66,1.66,1.38,3.64-6.58,9.61-8.98,10.76-1.6.77-2.43.47-3.82-.84-.99-.93-2.35-2.25-2.11-4.8Z"/>
        <path class="cls-4" d="m191.06,260.22c.68-2.35,2.69-3.82,4.74-5.24.82,1.66,3.15,4.12,4.76,5.02-1.95.91-3.2,3.35-5.54,3.53-1.53.12-4.17-2.02-3.95-3.31Z"/>
        <path class="cls-4" d="m219.53,265.47c6.49-3.35,10.55-7.73,9.86-11.13-.08-.38-.32-1.41-1.19-2.03-3.18-2.24-10.95,3.97-12.66,6-1.15,1.36-1.06,2.23-.13,3.91.66,1.19,1.6,2.84,4.13,3.24Z"/>
        <path class="cls-4" d="m209.77,270.59c2.45-.07,4.37-1.65,6.26-3.28-1.41-1.21-3.2-4.08-3.67-5.86-1.36,1.66-4.04,2.26-4.8,4.48-.5,1.45.92,4.55,2.22,4.66Z"/>
        <path class="cls-4" d="m231.58,227.84c4.86-5.45,10.12-8.29,13.24-6.77.35.17,1.29.66,1.66,1.66,1.38,3.64-6.58,9.61-8.98,10.76-1.6.77-2.43.47-3.82-.84-.99-.93-2.35-2.25-2.11-4.8Z"/>
        <path class="cls-4" d="m224.19,236.01c.68-2.35,2.69-3.82,4.74-5.24.82,1.66,3.15,4.12,4.76,5.02-1.95.91-3.2,3.35-5.54,3.53-1.53.12-4.17-2.02-3.95-3.31Z"/>
        <path class="cls-4" d="m252.66,241.26c6.49-3.35,10.55-7.73,9.86-11.13-.08-.38-.32-1.41-1.19-2.03-3.18-2.24-10.95,3.97-12.66,6-1.15,1.36-1.06,2.23-.13,3.91.66,1.19,1.6,2.84,4.13,3.24Z"/>
        <path class="cls-4" d="m242.9,246.38c2.45-.07,4.37-1.65,6.26-3.28-1.41-1.21-3.2-4.08-3.67-5.86-1.36,1.66-4.04,2.26-4.8,4.48-.5,1.45.92,4.55,2.22,4.66Z"/>
        <path class="cls-4" d="m270.13,201.16c6.21-3.85,12.06-5.07,14.62-2.73.29.26,1.05,1,1.12,2.06.29,3.88-9.04,7.34-11.66,7.77-1.76.28-2.46-.24-3.42-1.89-.69-1.18-1.61-2.83-.66-5.21Z"/>
        <path class="cls-4" d="m260.72,206.89c1.32-2.06,3.66-2.9,6.03-3.68.31,1.83,1.85,4.84,3.13,6.16-2.12.32-4.02,2.3-6.32,1.81-1.5-.32-3.43-3.13-2.85-4.29Z"/>
        <path class="cls-4" d="m286.52,220.02c7.18-1.36,12.31-4.41,12.62-7.87.03-.39.09-1.45-.57-2.28-2.41-3.05-11.62.69-13.85,2.16-1.49.98-1.65,1.84-1.24,3.71.29,1.33.72,3.18,3.04,4.28Z"/>
        <path class="cls-4" d="m275.72,222.16c2.37.63,4.66-.34,6.93-1.37-1-1.56-1.91-4.82-1.85-6.66-1.78,1.2-4.52,1.02-5.88,2.94-.89,1.25-.41,4.62.8,5.09Z"/>
      </g>
      <g>
        <path class="cls-12" d="m545.02,145.42c0-.31-.03-.54-.11-.83-.06-.21.06-.55-.12-.7.26.02.53-.03.78,0,.21.03.33.12.54.14.25.03.33.07.55.14.27.08.55.08.83.13.15.02.26.13.41.15.09.01.19-.03.28-.02.16.03.28.12.44.15.15.02.3-.02.45,0,.79.12,1.57.35,2.38.41.84.07,1.68.07,2.51.24.42.08.94.15,1.38.18.51.03,1,.1,1.51.13,1.06.05,2.11.43,3.17.42s2.02.34,3.04.42c1.81.14,3.59.61,5.39.83.71.09,1.42.26,2.13.38.37.06.73.11,1.1.17.42.07.86.07,1.27.15.33.06.66.09,1,.16s.64.08.97.14c.67.12,1.32.33,1.99.38.63.05,1.26.23,1.88.4.72.2,1.46.31,2.18.46.62.13,1.23.31,1.85.38.38.05.69.24,1.07.28.4.04.82.09,1.22.15.64.09,1.34.24,1.98.4.6.15,1.21.39,1.82.42.33.02.55.08.86.14.17.03.35-.04.52-.01.18.03.33.13.52.15.57.06,1.13.21,1.69.27.24.03.44.13.69.14.22.01.47-.05.69-.01.31.06.57.11.89.14.17.01.29.08.46.11.2.04.38,0,.58.04.55.1,1.07.27,1.62.37.6.11,1.19.19,1.79.3.55.1,1.15.21,1.68.38.49.16,1,.33,1.51.45.53.13,1.12.19,1.65.27s1.08.28,1.65.28c.27,0,.44.04.69.11.23.06.45.01.69.03.25.01.44.13.69.14.32.02.53.03.83.1.5.13,1.02.15,1.51.28.23.06.45.01.69.03.29.02.52.14.83.14.27,0,.33.09.54.14.14.03.29-.05.43-.01.07.02.11.1.16.11.27.06.53.07.8.14s.55-.01.83.06c.25.07.42.09.69.1.25.01.44.13.69.14.46.02.91.17,1.38.27.35.07.81.14.96.54.12.31.31,1.15.04,1.42-.24.24-1.02.1-1.35.1-.25,0-.5,0-.76,0-.28,0-.43-.11-.69-.14s-.44-.04-.69-.1c-.23-.06-.46.02-.69-.02-.25-.04-.43-.12-.69-.14-.34-.03-.66-.1-1-.13-.37-.04-.74-.18-1.1-.25s-.68-.09-1.03-.17c-.76-.18-1.51-.18-2.27-.31s-1.48-.28-2.24-.39c-.84-.12-1.71-.27-2.54-.43-.75-.14-1.5-.18-2.23-.35-.92-.22-1.88-.3-2.8-.46-.7-.12-1.39-.23-2.09-.4-.39-.09-.75-.11-1.14-.17-.42-.06-.85-.21-1.28-.25-.63-.07-1.21-.19-1.84-.34-.33-.08-.72-.18-1.05-.21-.37-.03-.73-.11-1.1-.13-.29-.02-.51-.08-.79-.17-.24-.08-.45-.07-.69-.13-.56-.14-1.15-.29-1.73-.37-.49-.07-.96-.15-1.44-.29-.53-.15-1.11-.17-1.65-.3-.5-.12-1.01-.22-1.51-.35-.26-.07-.57-.13-.83-.18s-.55-.1-.83-.13c-.41-.05-.86-.15-1.23-.27-.67-.23-1.31-.28-1.99-.41-.29-.05-.58-.07-.88-.12s-.54-.12-.83-.17c-.61-.11-1.2-.26-1.81-.41s-1.3-.16-1.93-.27-1.22-.19-1.79-.42c-.31-.12-.51-.08-.83-.13-.28-.05-.56-.19-.83-.25-.64-.16-1.3-.22-1.95-.34-.54-.1-1.07-.18-1.61-.28-.68-.12-1.35-.33-2.04-.38-.6-.04-1.19-.22-1.79-.28-.56-.05-1.12-.22-1.69-.28-.5-.05-1.01-.19-1.52-.28-.25-.04-.5-.09-.75-.13-.12-.02-.23-.08-.34-.11-.2-.05-.38,0-.58-.02-.5-.05-.99-.27-1.48-.29s-1.02-.16-1.51-.28c-.25-.06-.5-.11-.76-.13s-.49-.13-.76-.14c-.23-.01-.47.03-.69,0-.26-.03-.4-.14-.69-.14-.48,0-.9-.26-1.38-.28-.13,0-.3.04-.42.01s-.14-.12-.26-.15c-.07-.02-.21,0-.28,0-.23,0-.34-.05-.55-.11-.23-.06-.46.02-.69-.02-.13-.02-.22-.11-.34-.13-.12-.02-.23.01-.34,0-.52-.08-.97-.27-.55,0Z"/>
        <path class="cls-13" d="m568.42,222.06c.14.07.34.23.48.27.11.04.21.01.32.05.1.03.11.13.23.15.24.04.45-.11.68-.09.26.02.54.08.82.08.24,0,.48.02.71-.03.18-.04.32-.12.55-.12.52,0,1.04,0,1.56,0,.22,0,.45,0,.67,0,.23,0,.38-.08.55-.12.48-.11,1.03-.01,1.53-.03.26-.01.43-.12.67-.16.23-.04.51,0,.74,0,.25,0,.5,0,.74,0,.09,0,.21.01.3,0,.15-.02.23-.1.33-.12.45-.1.99-.04,1.45-.03.51,0,.85-.16,1.34-.15s.92-.16,1.41-.15c.22,0,.43.03.64-.03.07-.02.16-.1.25-.13.17-.04.37.06.53.01.2-.05.27-.15.51-.16.12,0,.27.04.38,0,.08-.02.12-.11.17-.13.23-.05.47-.03.71-.03.33,0,.49-.04.44.37-.01.1-.12.12-.15.24-.02.1.04.22.02.32-.03.12-.12.13-.14.24-.03.13.02.25,0,.37-.05.29-.16.46-.16.77,0,.1.01.22,0,.31-.02.15-.1.23-.12.34-.2.95-.39,1.83-.74,2.74-.31.81-.74,1.58-1.19,2.34s-1.03,1.37-1.59,2.05-1.19,1.26-1.87,1.76c-.36.26-.63.57-1.01.81-.15.09-.29.22-.45.31-.18.1-.41.19-.59.3-.83.51-1.78.69-2.68.92-.15.04-.27.12-.48.12-.23,0-.52-.05-.74,0-.31.06-.39.2-.71.13-.03,0-.11-.11-.17-.13-.13-.03-.32,0-.45,0-1,.01-1.75-.44-2.49-1.12-.85-.78-1.52-1.65-2.01-2.69-.22-.47-.41-1.04-.41-1.58,0-.32-.12-.47-.15-.77-.03-.25.05-.53.01-.77-.06-.35-.16-.55-.16-.92,0-.26,0-.51,0-.77v-1.77c0-.28,0-.56,0-.85,0-.31-.15-.56-.14-.83,0-.09.12-.13.15-.24.03-.12,0-.35,0-.47,0-.32.02-.49-.3-.62Z"/>
        <path class="cls-14" d="m543.78,144.6c.26.03.5.26.72.37.29.16.58.23.87.38.58.29,1.06.77,1.58,1.18s1.21.72,1.73,1.15,1.08.83,1.54,1.36c.5.57.97,1.13,1.54,1.61.62.52,1.09,1.12,1.72,1.6,1.21.91,2.08,2.07,3.17,3.15.29.29.56.62.84.89.33.32.7.6.99.97.19.24.41.43.58.68.22.34.44.71.68,1.02.1.13.23.2.32.35.1.16.19.32.29.48.2.32.38.78.63,1.04.12.13.25.19.36.33.12.15.22.32.33.49.23.36.46.67.74.96.26.27.47.62.63.96.19.39.45.75.65,1.13.19.36.37.72.59,1.07.24.38.39.81.63,1.17.52.78.94,1.63,1.43,2.44.46.76.94,1.52,1.33,2.31.2.4.4.78.61,1.17.22.41.33.87.55,1.28.2.37.34.76.52,1.14.21.43.47.82.69,1.23s.32.85.55,1.25c.2.36.44.72.62,1.09.41.83.77,1.68,1.17,2.52.18.37.34.84.44,1.24.12.46.31.9.48,1.35.32.87.64,1.75,1,2.61s.66,1.69,1,2.54c.36.91.45,1.89.79,2.81.66,1.75,1.06,3.59,1.55,5.4.26.96.49,1.91.7,2.89.21.98.55,1.93.7,2.92.08.48.17.98.27,1.45s.15.98.23,1.48c.04.25-.02.5,0,.76.03.28.14.52.15.81,0,.24-.01.49,0,.73,0,.32.11.59.15.9.06.5,0,.95.1,1.45.12.57-.05,1.18.02,1.76.03.2.13.38.15.58.02.23,0,.48,0,.71,0,.5-.01,1,0,1.49s.14.95.14,1.45c0,.41.06.85,0,1.26-.02.2-.13.37-.15.57s0,.44,0,.64c0,.47,0,.94,0,1.41,0,.23.02.47,0,.7-.01.19-.09.29-.13.47-.09.38-.01.88-.01,1.28s-.1.71-.14,1.1.03.81,0,1.21c-.02.34-.14.61-.14.96,0,.33.05.71-.03,1.03-.05.19-.1.27-.11.48,0,.15.04.34,0,.49-.03.13-.12.2-.15.33-.04.18.03.38,0,.56-.07.33-.18.64-.25.96-.04.16,0,.32-.04.48-.05.21-.11.32-.11.55,0,.32-.08.65-.13.96-.03.17-.13.31-.15.48s-.02.33-.06.48c-.15.59-.32,1.25-.35,1.88.23-.17.15-.6.21-.85.09-.36,0-.74.08-1.1.03-.17.12-.29.13-.48s.03-.31.07-.48c.04-.16.1-.34.14-.48.04-.15.04-.31.06-.48.18-1.39.94-2.76,1.41-4.06.53-1.46,1.38-2.84,2.1-4.2.39-.73.78-1.44,1.17-2.16s.62-1.52,1.07-2.2c.4-.61.75-1.32,1.07-1.97.35-.71.7-1.4,1.12-2.06.42-.67.87-1.33,1.29-2s.84-1.33,1.34-1.92c.25-.3.38-.68.64-.97s.49-.59.71-.9c.11-.15.22-.2.35-.33.16-.16.24-.38.41-.56.3-.32.54-.7.83-1.04.84-.99,1.73-2.02,2.74-2.85.52-.42,1.03-.78,1.59-1.16.53-.35.95-.83,1.44-1.22.53-.43,1.18-.86,1.76-1.21.23-.14.48-.25.73-.37.27-.13.47-.33.71-.52.27-.21.59-.36.87-.58s.53-.44.82-.62c.56-.35,1.2-.48,1.78-.77s1.14-.56,1.74-.7,1.07-.45,1.65-.62c.34-.1.69-.25,1.03-.31.15-.02.25-.07.37-.1.2-.05.39,0,.59-.04.68-.13,1.37-.39,2.06-.4.36,0,.65-.14,1.03-.14s.74.02,1.1,0c.33-.02.61-.21.96-.15.21.04.33.14.55.15.18,0,.37,0,.55,0,.32,0,.71.06,1.02-.01.13-.03.2-.11.35-.13.2-.02.42,0,.62,0,.67,0,1.39-.31,2.07-.14.15.04.25.11.4.15.14.03.34,0,.49,0,.5,0,.43-.17.28-.55-.08-.22-.24-.45-.29-.68-.02-.09.04-.2.02-.29-.02-.07-.1-.12-.11-.16-.04-.16-.02-.32-.06-.49-.15-.57-.45-1.28-.67-1.89-.26-.69-.54-1.38-.79-2.06-.55-1.49-1.02-2.99-1.56-4.47-.3-.82-.63-1.65-.93-2.47-.32-.89-.53-1.84-.76-2.76-.26-1.04-.45-2.09-.62-3.13-.07-.43-.14-.88-.25-1.3-.13-.54-.15-1.09-.28-1.62-.1-.42-.1-.88-.16-1.31-.03-.17-.12-.31-.15-.48-.04-.2.04-.42,0-.62-.03-.17-.12-.3-.13-.48s0-.37,0-.55c0-.37.07-.82-.01-1.17s-.13-.64-.13-1.03c0-.34.07-.76,0-1.1-.03-.17-.13-.31-.15-.48-.02-.15,0-.33,0-.48,0-.35.06-.76-.03-1.1-.06-.22-.11-.31-.11-.55,0-.15.03-.35,0-.49s-.12-.2-.15-.33c-.05-.19.03-.43,0-.63-.03-.17-.12-.3-.13-.48s0-.37,0-.55c0-.37-.14-.66-.14-1.03,0-.34,0-.69,0-1.03,0-.16,0-.32,0-.48-.01-.24-.1-.27-.15-.47-.07-.29.01-.58-.13-.84-.13-.24-.33-.42-.42-.68-.08-.22,0-.21-.17-.38-.11-.1-.16-.12-.29-.19-.27-.14-.53-.23-.84-.26s-.56-.1-.86-.17c-.13-.03-.19-.1-.37-.11s-.33-.03-.48-.07c-.17-.04-.29-.04-.48-.06-.18-.02-.31-.12-.48-.15-.15-.03-.33.02-.48,0-.24-.01-.27-.1-.47-.15-.16-.04-.32-.02-.49-.06s-.32-.12-.48-.17c-.37-.11-.74-.22-1.1-.31-.72-.17-1.42-.38-2.13-.54-.16-.04-.32.02-.48,0-.21-.04-.33-.14-.55-.15-.37-.02-.68-.07-1.03-.13s-.64-.14-1.03-.14-.71-.14-1.1-.14c-.36,0-.62-.12-.96-.14-.17,0-.38.04-.55.01-.2-.04-.34-.14-.55-.15-.37-.02-.68-.08-1.03-.13-.18-.02-.31-.12-.48-.15-.2-.03-.42.04-.62.01-.18-.02-.31-.12-.48-.15s-.38.02-.55.01c-.19-.01-.3-.09-.48-.13s-.37.02-.55,0c-.2-.03-.35-.12-.55-.15-.16-.02-.33.04-.48.01-.17-.03-.31-.13-.48-.15-.23-.03-.5,0-.73,0-.36,0-.64-.14-.99-.14-.4,0-.72-.12-1.1-.14-.33-.02-.71.06-1.03,0-.18-.04-.29-.11-.47-.13-.25-.02-.52.04-.77,0-.17-.02-.31-.12-.48-.15s-.38.02-.55.01c-.19-.01-.3-.09-.48-.13s-.37.02-.55,0c-.76-.1-1.48-.42-2.27-.42-.34,0-.62-.12-.96-.13-.21,0-.35-.11-.55-.15-.18-.03-.37.05-.55.01-.21-.04-.33-.14-.55-.15-.19,0-.3-.02-.48-.07-.34-.09-.75-.2-1.1-.21s-.68-.08-1.03-.1-.61-.16-.96-.17c-.19,0-.3-.09-.48-.13-.16-.04-.32,0-.48-.04s-.32-.13-.48-.18c-.22-.06-.4-.02-.62-.06-.17-.03-.3-.13-.48-.15s-.31.02-.48-.03c-.21-.06-.32-.09-.55-.1-.21,0-.35-.12-.55-.15-.32-.05-.57-.07-.9-.14-.38-.08-.71-.24-1.1-.26-.73-.04-1.43-.35-2.13-.52-.18-.04-.32-.04-.48-.11-.2-.09-.25-.17-.48-.19-.36-.04-.74-.19-1.09-.27-.75-.17-1.47-.47-2.21-.66-.19-.05-.36,0-.55-.02-.17-.03-.31-.13-.48-.15-.15-.02-.33.04-.48.01-.28-.05-.47-.14-.77-.15-.37,0-.66-.14-1.03-.14-.15,0-.33.02-.48,0-.22-.03-.39-.13-.62-.15-.34-.02-.64-.12-.96-.14-.16,0-.32.02-.47,0-.18-.03-.26-.13-.49-.13-.36,0-.63-.02-.96-.11-.18-.05-.36-.03-.55-.03-.23,0-.34-.05-.55-.11-.34-.09-.69-.08-1.03-.17-.38-.1-.7-.12-1.1-.14-.36-.01-.66-.14-1.03-.14-.35,0-.73.04-1.07-.03-.12-.03-.2-.1-.37-.11-.16,0-.33.02-.49,0s-.26-.11-.4-.11c-.07,0-.12.09-.21.09-.13,0-.22-.1-.35-.12-.15-.03-.33.01-.48,0-.21,0-.29-.06-.48-.11s-.36-.03-.55-.03c-.23,0-.34-.05-.55-.11-.19-.05-.36-.02-.55-.03s-.31-.1-.48-.13c-.33-.07-.7.04-1.04,0-.3-.04-.49-.14-.82-.14s-.78.08-1.08-.02c0-.04-.02-.08-.02-.39Z"/>
        <path class="cls-14" d="m645.51,148.73l.03-.12c.1.02.57.77.69.95.13.18.25.37.38.55.16.23.35.5.55.7.11.12.22.13.32.26s.14.26.24.39c.12.15.26.31.38.47.31.44.59.88.83,1.35.21.4.28.85.55,1.24s.57.74.83,1.13c.56.84,1.03,1.74,1.58,2.58,1.11,1.69,2.14,3.58,2.75,5.51.17.53.39,1.1.52,1.65.05.22.08.47.13.69.04.16.12.28.15.44.03.19-.03.33.02.52.13.49.3,1.01.39,1.51.02.09-.01.21-.01.31,0,.23.06.32.11.52.08.33-.02.66.02.99.03.28.11.57.16.85.02.09.11.1.13.21.03.14-.01.27.02.42.13.51.24.97.24,1.51,0,.5,0,1.01,0,1.51s.24.99.11,1.51-.11.99-.11,1.51c0,.23,0,.46,0,.69,0,.31-.12.53-.14.83-.01.23.04.47,0,.69-.04.26-.15.4-.14.69.01.54-.2,1-.28,1.51-.04.24-.08.44-.13.69-.06.27-.07.56-.13.83-.04.18-.13.34-.18.54-.06.25-.18.46-.25.68-.14.47-.19.92-.3,1.38-.13.51-.32.99-.38,1.51-.06.5-.18,1.03-.31,1.51s-.2,1.02-.38,1.51c-.33.88-.46,1.75-.83,2.61-.18.42-.25.89-.44,1.35-.18.42-.43.87-.65,1.27s-.31.78-.44,1.21c-.12.39-.42.8-.62,1.16-.23.43-.55.81-.83,1.21-.25.37-.5.71-.72,1.1-.52.91-.85,2.02-1.49,2.85-.13-.3-.03-.86-.03-1.19,0-.45-.09-.89-.21-1.31-.21-.81-.43-1.65-.95-2.35-.42-.57-.87-1.14-1.43-1.61-.28-.24-.54-.51-.86-.72-.16-.1-.31-.25-.44-.35-.2-.13-.42-.17-.63-.31-.72-.47-1.57-.82-2.37-1.17-.42-.18-.8-.35-1.24-.49-.22-.07-.43-.17-.66-.21-.24-.05-.48,0-.72-.06-.86-.21-1.68-.54-2.55-.66s-1.82,0-2.68,0c-.93,0-1.8.09-2.72.13-.25.01-.44.12-.69.15s-.41,0-.65.06c-.47.12-.96,0-1.44.06-.98.13-1.96.39-2.89.66s-1.97.54-2.91.96-1.92.74-2.81,1.28c-.83.5-1.73.88-2.55,1.4-.72.46-1.41,1.11-1.92,1.76-.61.78-1.35,1.49-2.07,2.21-.76.76-1.48,1.57-2.25,2.29-.56.52-1.33.89-2.01,1.26-.34.18-.61.43-.93.62-.43.25-.79.4-1.27.52-.23.06-.46.19-.69.25-.24.06-.46.06-.7.17-.17.07-.33.16-.48.27-.16.13-.24.31-.46.37-.16-.48.06-1.01.11-1.47.06-.5.19-1.01.27-1.51.02-.11.09-.18.11-.28.04-.15,0-.26.02-.41.04-.27.1-.58.18-.83.14-.5.26-1.01.38-1.51.11-.45.29-.91.28-1.38,0-.28.1-.43.14-.69.02-.13-.02-.28-.01-.41,0-.17.07-.26.11-.41.07-.25,0-.51.04-.76.06-.28.13-.46.13-.76,0-.23,0-.46,0-.69,0-.31.12-.53.14-.83.03-.49-.02-.91.1-1.38s.03-1.03.03-1.51c0-.23,0-.46,0-.69,0-.27-.1-.43-.14-.69-.08-.46,0-1.04,0-1.51,0-.24.04-.52-.01-.76-.06-.28-.13-.46-.13-.76,0-.25-.09-.33-.14-.54-.02-.08,0-.2,0-.28,0-.23-.05-.34-.11-.55-.06-.23.02-.46-.02-.69-.02-.13-.11-.22-.13-.34-.02-.12.01-.23,0-.34-.08-.51-.34-1-.43-1.51-.34-2.06-1.05-4.04-1.68-6.06-.16-.52-.34-1.01-.55-1.51s-.44-1.01-.68-1.51c-.26-.54-.44-1.12-.69-1.66-.28-.63-.61-1.21-.86-1.84-.11-.29-.27-.52-.45-.77s-.28-.51-.41-.8c-.27-.59-.66-1.14-.97-1.71-.14-.28-.28-.53-.45-.8-.15-.25-.38-.44-.52-.68-.17-.27-.22-.56-.41-.83s-.37-.58-.58-.85c-.22-.3-.35-.64-.55-.94-.12-.19-.29-.35-.41-.54-.35-.52-.67-1.06-1.02-1.59-.33-.5-.68-.96-1.02-1.45s-.6-1.07-1-1.48c-.35-.35-.62-.77-.96-1.13-.39-.42-.81-.89-1.1-1.38s-.62-.92-.96-1.35c-.17-.21-.38-.42-.55-.65-.08-.11-.16-.23-.24-.35-.12-.17-.23-.21-.36-.35-.22-.23-.4-.51-.63-.75s-.4-.44-.58-.69c-.17-.23-.34-.46-.51-.69-.1-.13-.25-.22-.36-.34-.14-.16-.19-.33-.3-.49-.14-.2-.34-.33-.48-.54-.16-.24-.35-.46-.52-.69-.35-.48-.7-.91-1.07-1.38-.65-.82-1.47-1.56-2.09-2.41-.3-.41-.67-.78-1-1.16s-.54-.79-.9-1.14c-.27-.27-1.5-1.51-1.01-1.76.15-.08.51-.12.7-.13.25-.01.51,0,.76,0,.48,0,1.01-.04,1.45.07,2.02.52,4.14,1.04,6.33,1.03.6,0,1.11.14,1.72.14.33,0,.58.11.9.14s.67,0,.99,0c.3,0,.63-.04.93,0s.53.14.83.14c.62.01,1.14.14,1.76.14,1.11,0,2.23,0,3.34,0,.56,0,1.04.15,1.59.14.34,0,.59.12.91.14s.63-.05.93.03c.47.12,1.01.22,1.51.24.33.01.61.13.93.14.42.02.74.03,1.14.1.53.1,1.1,0,1.64.03.7.03,1.37.25,2.07.27.31,0,.56.13.86.14.35.02.65-.01.99.07.29.07.58.12.87.18.13.02.21.02.34.03.27.02.49.11.75.14.31.04.65-.03.97-.01.27.02.48.13.75.14.64.03,1.22.13,1.87.13.27,0,.56-.03.83.03.2.05.27.1.47.11.12,0,.27-.03.39-.01.51.1.97.29,1.51.28s.94.14,1.45.14c.55,0,1.03.1,1.58.13.47.03.92.21,1.38.29.11.02.24-.04.35-.01.09.02.17.09.23.11.24.07.54.03.8.03.24,0,.46.02.69.04.24.02.44-.07.69,0,.49.13.99.11,1.51.11.3,0,.48.07.76.13.24.05.51.01.76.01.23,0,.46,0,.69,0,.09,0,.2-.01.28,0,.19.03.24.11.4.15.08.02.21-.01.28-.01.18,0,.25.07.41.11.23.06.46-.02.69.02.27.05.4.15.69.14s.47.02.72.1c.23.08.42.16.66.17.27.02.46-.1.69-.12.17,0,.24.1.41.09.05,0,.2-.11.28-.12.23-.05.57.14.73-.11.04.03.17.06.2.09.17-.26.74-.08,1-.11.32-.04.53-.14.89-.14.54,0,1.52-.2,1.9.25.03-.03.17-.06.2-.09.08.09.33.23.44.26s.24-.03.36-.01c.09.02.17.1.23.11.37.09.94.09,1.32,0,.18-.04.34-.14.58-.11.19.03.29.1.47.14.38.09.53.14,1.04,1.1Z"/>
        <path class="cls-14" d="m547.22,144.6c-.05-.18.09-.39.27-.42.2-.04.25.12.41.16.14.03.27-.01.42.02.1.03.16.09.28.11.21.04.47-.01.69,0,.51,0,1.03-.14,1.53-.24.55-.11,1.09-.21,1.64-.34,1.12-.25,2.22-.61,3.3-.93.98-.29,2.06-.28,3.02-.65s2.01-.7,2.9-1.28c.42-.28.84-.52,1.24-.83.23-.18.46-.34.69-.52.2-.16.34-.32.54-.47.43-.33.9-.79,1.25-1.21s.8-.76,1.23-1.11c.22-.17.37-.25.55-.47s.36-.33.56-.51.28-.4.48-.58c.21-.19.33-.38.51-.6.3-.36.54-.73.79-1.13.3-.48.66-.9.96-1.38.51-.81.95-1.6,1.34-2.47.2-.45.29-.93.49-1.38s.41-.91.55-1.38c.26-.85.53-1.72.52-2.62,0-.22.05-.35.11-.55.06-.22.03-.46.03-.69,0-.49.14-.89.14-1.38,0-.44.15-.81.14-1.24,0-.47.14-.84.14-1.31s.14-.84.14-1.31c0-.38-.11-.95,0-1.31.15-.52.61,0,.86.18.1.08.23.12.34.2.2.14.38.2.59.31.78.38,1.6.59,2.41.91.86.35,1.73.61,2.62.88.41.12.82.32,1.23.41.56.13,1.13.2,1.7.31.49.09.99.14,1.48.24s.95.15,1.45.2,1.05.18,1.57.27c.45.08.88.14,1.31.26.28.07.56-.03.83.02.2.04.35.12.55.14.55.06,1.1.25,1.66.28.23.01.46-.03.69.03.2.05.33.11.55.11.48,0,.89.13,1.38.14s.89.14,1.37.14c.53,0,.98.14,1.52.14.23,0,.46-.02.69,0,.21.01.35.1.55.14.44.11.9.19,1.35.3.14.03.33.14.51.18.21.04.41.12.62.18.23.06.46,0,.69.06s.46.16.69.21c.38.1.72.1,1.1.2.45.12.89.25,1.38.24.2,0,.43-.03.62,0,.22.03.39.13.62.15.45.02.95-.09,1.38.03s.8.11,1.24.11c.19,0,.45-.05.62,0,.25.06.32.15.61.14.21,0,.37.02.55.07s.37.02.56.06c.14.03.31.11.46.16.2.06.43.19.64.27.28.1.67.11.93.3.28.21.44.5.58.8.05.1.09.31.16.39.12.12.4.1.53.16.36.16.43.75.52,1.1.04.15.11.33.14.44.05.22,0,.44.06.66.11.42.25.93.24,1.38,0,.17-.05.39,0,.56.06.23.14.26.14.54,0,.43.15.9.28,1.31.26.83.5,1.65.83,2.48s.62,1.54.81,2.34c.1.41.13.83.22,1.24.04.21.07.39.07.62,0,.3.09.48.14.76.02.1,0,.21.03.31.01.05.1.09.11.16.05.19-.04.42,0,.61s.13.25.13.49c0,.08-.01.2,0,.28.02.16.11.23.13.35.07.4-.05.83.02,1.23.05.24.13.37.13.62,0,.23,0,.46,0,.69,0,.47-.14.85-.14,1.31s0,.87,0,1.31c0,.39.1.93,0,1.31-.05.19-.12.27-.15.47s0,.44,0,.65c.12-.67-1.54-.98-1.93-1.06-.19-.04-.41.03-.61,0-.17-.03-.28-.12-.49-.13-.28,0-.43-.09-.69-.14-.29-.06-.59.01-.89-.06-.26-.06-.49-.07-.75-.07-.33,0-.52-.1-.83-.14-.24-.04-.52.02-.76,0-.32-.01-.61-.13-.93-.14-.29-.01-.6,0-.9,0-.31,0-.56-.07-.86-.13-.29-.05-.57,0-.86-.04-.4-.07-.78-.14-1.17-.21-.26-.05-.51.01-.76-.02-.35-.05-.6-.15-.96-.14-.39,0-.65-.1-1.03-.14-.14-.02-.32.01-.45.01-.24,0-.36-.07-.58-.11-.67-.14-1.38-.09-2.07-.2-.78-.12-1.55-.22-2.35-.24-.62-.02-1.23-.21-1.85-.29-.39-.05-.75-.03-1.14-.1s-.82,0-1.24-.03c-.34-.02-.65-.14-1-.15-.39,0-.78.04-1.17-.03-.82-.13-1.64-.11-2.48-.11-.39,0-.79.04-1.17-.03-.34-.06-.63-.11-.99-.11s-.72.04-1.07,0c-.42-.03-.77-.15-1.2-.14-.66,0-1.37.07-2.03,0-.38-.04-.71-.15-1.1-.14-.36,0-.65-.1-1-.14-.31-.04-.65.02-.96.01s-.58-.13-.88-.15c-.29-.02-.59.05-.88.01-.39-.05-.79-.17-1.17-.25-.28-.06-.57.02-.84-.04s-.51-.13-.81-.13c-.67.01-1.34-.17-2-.28-.58-.09-1.2-.26-1.79-.28-.27,0-.45-.07-.72-.12-.34-.06-.66-.04-1-.12-.31-.08-.62,0-.93-.06-.24-.05-.43-.11-.68-.11-.34,0-.55-.09-.86-.14-.29-.05-.69,0-.99,0-1.12,0-2.17-.28-3.28-.28-.54,0-1.02-.14-1.56-.14-.61,0-1.15-.14-1.74-.14-.54,0-1.08,0-1.62,0-.58,0-1.1-.13-1.68-.14-.31,0-.51.09-.8.14-.25.04-.57,0-.83,0-.23,0-.46,0-.69,0-.31,0-.52.12-.82.14-.28.02-.56,0-.83,0-.29,0-.49.11-.77.14s-.61-.07-.88-.01c-.29.06-.59.14-.88.21-.76.18-1.56.41-2.28.67-.47.17-.93.27-1.38.5-.55.28-1.1.55.13.28Z"/>
        <path class="cls-4" d="m524.51,168.97c.41,0,.78.19,1.16.28.49.12.87.24,1.32.51.42.26.86.63,1.23.95.4.35.81.69,1.14,1.12.25.33.59.61.83.96.21.31.41.63.65.93.27.35.57.69.8,1.07s.44.71.44,1.16c0-.93.18-1.8.72-2.57.26-.38.47-.75.75-1.13.39-.53.89-.96,1.39-1.38.79-.67,1.56-1.27,2.51-1.72.19-.09.34-.14.54-.17.25-.03.4.08.58.11.31.05.28-.03.51-.14.25-.13.62-.11.29-.41-.31-.28-.86-.38-1.25-.38-.55,0-.99,0-1.51.17-.45.14-.96.27-1.38.48-.37.18-.73.44-1.09.62s-.73.46-1,.76c-.37.42-.89.83-1.17,1.31-.24.39-.35.48-.68.08-.31-.37-.66-.74-.97-1.1-.4-.48-.7-.9-1.28-1.18-.24-.11-.43-.14-.69-.2-.16-.04-.23-.1-.41-.11-.13,0-.28.03-.41.01-.31-.06-.49-.15-.83-.14-.28,0-.55,0-.83,0-.46,0-.83-.21-1.38.14Z"/>
        <path class="cls-4" d="m658.86,149.97c.28-.09.64.47.8.69.24.33.52.62.75.96.53.77.91,1.68,1.48,2.41.27.34.43.7.69,1.04.23.29.41.48.58.82.29.58.51,1.12.52,1.75-.04-.24.09-.28.13-.45.03-.19,0-.39.04-.58.03-.13.13-.35.17-.51.06-.24.14-.49.21-.73.28-.96.78-1.82,1.34-2.65.59-.88,1.45-1.47,2.17-2.27.55-.61,1.04-1.29,1.66-1.87-.18-.02-.51.18-.67.25-.27.11-.53.21-.79.34-.63.32-1.17.72-1.75,1.1-.44.29-.79.63-1.1,1.09-.37.55-.49,1.22-.86,1.76-.12.17-.26.49-.52.39-.08-.03-.16-.18-.2-.25-.12-.18-.2-.26-.35-.42-.38-.4-.76-.84-1.23-1.14-.51-.33-1.16-.62-1.72-.9-.3-.15-.57-.27-.86-.45-.22-.13-.61-.42-.87-.44,0-.04-.02-.07.39.03Z"/>
        <path class="cls-4" d="m660.52,140.19v-.09c-.07.44.36.64.68.81.66.36,1.26.81,1.8,1.34s1,1.04,1.47,1.55c.29.31.73.61.86,1.02.17-.13.16-.39.21-.57.08-.3.23-.49.38-.76.13-.23.2-.48.37-.69.22-.27.49-.48.69-.76.36-.49.76-.97,1.13-1.45.15-.19.35-.38.52-.55.13-.13.6-.3.54-.53-.16.05-.32.2-.48.25-.24.07-.5.09-.75.18-.52.19-1.02.44-1.51.69s-.97.52-1.38.93c-.27.27-.67.7-.72,1.09-.29-.03-.23-.49-.45-.67-.23-.19-.55-.31-.82-.43-.38-.16-.81-.39-1.21-.5-.46-.14-.86-.3-1.35-.86Z"/>
        <path class="cls-12" d="m593.37,205.52c0-.19-.09-.63.11-.68.14.35.03.92.03,1.3,0,.19-.05.44,0,.63.05.22.14.28.14.54,0,.23-.09.32-.12.49-.04.21-.01.46-.01.68,0,.44,0,.87,0,1.31s0,.82-.11,1.24-.05.89-.16,1.31c-.06.21-.13.3-.14.54,0,.11.03.25,0,.35-.02.07-.1.12-.11.16-.05.22.03.45-.02.66-.05.19-.18.26-.15.5-.03-.19.29-.5.41-.64.23-.28.49-.44.8-.59.47-.23.97-.38,1.45-.62s.95-.41,1.34-.79c.33-.33.72-.58,1.1-.83.16-.1.43-.17.53-.37.12-.25.03-.73.03-1.01,0-.29.07-.69,0-.97-.03-.14-.12-.2-.15-.33-.03-.14,0-.34,0-.49,0-.66.04-1.34,0-2-.02-.31-.14-.57-.14-.89s-.02-.69,0-1.03c.01-.21.11-.35.15-.55.03-.17,0-.38,0-.55,0-.34,0-.69,0-1.03,0-.38.14-.59.14-.96s.08-.82-.03-1.16c-.08.02-.18.24-.24.33-.09.14-.21.32-.31.45-.19.24-.47.41-.65.66-.38.51-.82.94-1.27,1.4s-.94.89-1.38,1.37c-.25.28-.53.51-.79.79-.24.26-.64.52-.41.76Z"/>
        <path class="cls-12" d="m595.56,120.28c-.04-.18.07-.19.11-.31.04-.15.03-.29.03-.45,0-.34.14-.61.14-.96,0-.76.02-1.52,0-2.27-.01-.43-.14-.8-.14-1.24s0-.85,0-1.27c0-.45-.14-.82-.14-1.26,0-.38.02-.73-.07-1.1s-.07-.76-.07-1.16c0-.19.01-.39,0-.58-.01-.21-.11-.35-.15-.55-.05-.27,0-.62,0-.9,0-.35-.13-.62-.14-.96-.01-.62,0-1.24,0-1.86,0-.3,0-.6,0-.89,0-.33.12-.58.14-.89.03-.59.07-1.11.2-1.65.04-.15.11-.53.23-.66.2-.22.67-.21.94-.17.22.03.22-.04.28.2.03.11,0,.31-.02.42-.08.34-.13.6-.13.96s-.02.68-.11,1.03c-.11.49.04,1.02-.06,1.52s-.08.93-.1,1.44c-.02.46-.14.87-.14,1.35,0,.79,0,1.58,0,2.37v5.92c0,.34,0,.69,0,1.03s.13.56.14.89c.01.31.08.75,0,1.04-.04.17-.13.2-.15.4-.02.16.03.32,0,.47-.02.07-.09.3-.12.36-.05.11-.13.28-.28.29-.19.01-.69-.37-.41-.56Z"/>
        <path class="cls-12" d="m615.09,145.72c0,.22,0,.28-.1.45-.07.13-.21.13-.18.33.02-.49,0-.98,0-1.47,0-.27.04-.44.11-.69.09-.36.01-.77.03-1.14,0-.29.13-.51.14-.79.01-.23,0-.46,0-.69v-8.19c0-.45-.09-1,0-1.45.05-.28.15-.46.14-.76s0-.6,0-.89c0-.23-.02-.46,0-.69.01-.25.13-.44.14-.69.03-.55-.04-1.1,0-1.65.01-.25.13-.44.14-.69.01-.27,0-.55,0-.83,0-.22-.04-.48,0-.69.05-.3.15-.51.14-.83,0-.27.04-.56-.03-.83-.06-.25-.11-.42-.11-.69,0-.55,0-1.1,0-1.65,0-.46-.03-.92,0-1.38.02-.3.15-.52.14-.83,0-.09,0-.18,0-.27,0-.21.07-.29.11-.44.1-.46.08-.96.16-1.42.05-.31.43-.85.8-.73.45.15.3.88.31,1.21,0,.29-.1.42-.14.69-.04.25,0,.56,0,.82,0,1.15-.18,2.49.11,3.59.11.41.11,1.09.04,1.51-.06.34-.15.61-.14.97,0,.27.04.57-.03.83-.13.5-.08.98-.1,1.51-.01.25-.13.44-.14.69-.01.27,0,.55,0,.83,0,.5,0,1.01,0,1.51,0,.55-.14,1.03-.14,1.58,0,1,.14,2.15-.11,3.1-.13.5-.03,1.13-.03,1.65v1.79c0,.54-.07,1.12,0,1.66.03.26.14.4.14.69,0,.32,0,.64,0,.96,0,.28,0,.55,0,.83,0,.3.1.41.14.69.03.24.03.59,0,.83-.04.3-.14.48-.14.82,0,.27.02.54-.03.8-.01.06-.1.14-.11.23-.03.15.07.32-.02.46-.33.53-1.06-.16-1.21-.66Z"/>
        <path class="cls-4" d="m595.81,101.73c.21-.29.63-.54.96-.73.37-.21.88-.4,1.32-.38.22.01.29.1.47.15.22.05.48-.04.7-.01.44.06.77.24,1.13.52.62.48,1.26.87,1.9,1.31s1.35.67,2.07.9c.48.15.87.17,1.38.17.08,0,.2.01.28,0,.13-.02.21-.09.3-.11.06-.01.19-.01.24-.03.09-.03.26-.1.36-.12.74-.18,1.46-.48,2.12-.87.35-.21.67-.46,1.04-.64.34-.16.69-.3,1.03-.42.36-.13.75-.29,1.09-.41.21-.08.43-.08.63-.14.23-.07.35-.14.61-.14.45,0,.91.2,1.32.39.19.09.42.14.61.25.21.12.32.31.54.42.37.18.76.3,1.1.55.19.14.32.23.51.34.17.1.4.24.54.39-.34-.02-.55-.15-.84-.08-.36.09-.74.11-1.09.22-.5.16-.98.54-1.35.92-.41.4-.63.98-.95,1.46-.39.6-.86,1.15-1.26,1.74-.63.93-1.31,2.13-2.31,2.68-.3.16-.62.43-.96.49-.15.03-.33-.01-.48,0-.25,0-.38.1-.62.15-.34.06-.53-.11-.82-.15-.18-.02-.34.02-.52-.03s-.27-.11-.51-.11c-.35,0-.55-.14-.9-.14-.37,0-.73,0-1.1,0-.29,0-.69-.07-.97,0-.18.04-.2.13-.4.15s-.35.03-.55.1c-1.23.4-2.35,1.14-3.41,1.86-.46.31-.9.71-1.27,1.13-.2.23-.38.5-.55.75-.1.15-.46.72-.69.71-.26-.01-.13-1.66-.13-1.94,0-.34,0-.69,0-1.03,0-.4-.14-.7-.14-1.1,0-.78-.1-1.64,0-2.41.02-.18.11-.24.15-.4.05-.19-.04-.43-.01-.63.03-.22.13-.39.15-.62,0-.18,0-.37,0-.55,0-.42-.13-.77-.14-1.17s0-.78,0-1.17c0-.44,0-.82.11-1.24.07-.25.14-.89-.11-1.05,0,.03,0,.06-.54.08Z"/>
        <path class="cls-4" d="m616.14,127.82c0-1.01,0-2.02,0-3.03,0-.56-.14-1.03-.14-1.58,0-.5,0-1.01,0-1.51,0-.46.08-1.01-.03-1.45-.07-.28-.09-.46-.11-.76-.01-.26-.11-.37-.14-.61-.06-.43-.08-1.09,0-1.52.04-.21.12-.46.18-.66s.28-.42.24-.67c-.06.29.33.68.58.75.46.13.77-.12,1.21-.11.24,0,.3-.08.49-.13s.41-.01.61-.01.51.05.7,0c.21-.05.29-.15.54-.14.86.02,1.72-.41,2.48-.79.84-.43,1.63-.73,2.55-.87.35-.05.94-.05,1.28.04s.68.38.99.55c.37.2.71.42,1.06.64.31.19.67.35.94.64.32.34.39.74.49,1.17.06.26.14.41.14.69,0,.21-.06.5,0,.7.06.24.15.25.14.54,0,.21,0,.41,0,.62,0,.48,0,.96,0,1.45,0,.27.1.44.14.69s0,.57,0,.83c0,.46-.08,1,.01,1.45.05.28.13.46.13.76,0,.25,0,.5,0,.76,0,.11.02.24,0,.35-.02.15-.09.2-.11.3-.05.23.05.58-.13.75-.05-.22-.22-.32-.34-.5-.16-.23-.27-.42-.51-.59-.44-.31-1.04-.39-1.59-.38-.27,0-.57.07-.83.14-.11.03-.19.11-.28.13-.16.03-.31,0-.47.04-.31.08-.57.2-.89.24-.29.04-.62.14-.9.25-.98.38-1.97.83-2.96,1.27-.31.14-.52.07-.83.13-.27.06-.43.14-.75.14-.15,0-.34.04-.49,0-.12-.03-.18-.11-.28-.13-.28-.06-.6,0-.88,0-.32-.02-.54-.22-.82-.29-.14-.03-.29-.03-.42-.06-.14-.04-.24-.07-.41-.07-.37,0-.66-.14-1.03-.14-.26,0-.41.06-.6.11-.03-.08.01-.12,1.08-.11Z"/>
        <path class="cls-12" d="m562.78,222.93c-.23.05-.26.2-.28.41,0,.09.03.2.01.29-.02.07-.1.11-.11.16-.04.19-.06.39-.1.59-.05.25-.17.51-.21.76-.03.19-.05.36-.1.55-.05.22-.11.35-.17.54-.12.4-.17.84-.27,1.25-.41,1.7-1.32,3.31-1.72,5.02-.05.21-.02.43-.06.63-.04.15-.12.23-.15.4-.05.34.16.77.31,1.07.38.75.97,1.4,1.34,2.17s.75,1.46,1,2.27c.11.38.28.75.38,1.09.05.16.11.38.14.56.02.11-.02.22,0,.33.02.1.11.16.13.28s-.04.24-.01.36c.01.06.11.13.11.16.04.19,0,.39.04.58s.13.24.13.49.09.34.14.54c.05.2-.04.43,0,.63.05.24.12.37.13.62s.08.3.13.49.03.42.08.61c.05.17.02.38.06.56s.12.26.14.47c.04.4.18.76.28,1.17s.28.83.38,1.24.29.8.44,1.24c.53,1.46,1.36,2.94,2.44,4.03.49.49,1,.95,1.58,1.31.65.4,1.24.9,1.9,1.27s1.36.62,2.06.83c.75.22,1.55.24,2.34.44.2.05.33.11.55.11s.47-.03.69.03c.44.11.84.11,1.31.11.39,0,.78,0,1.17,0,.49,0,.9.14,1.38.14.44,0,.81.14,1.24.14s.87,0,1.31,0h5.09c.4,0,.85.06,1.24,0,.22-.03.39-.13.62-.15s.46,0,.69,0c.43,0,.79-.14,1.24-.14.24,0,.3-.08.49-.13.22-.05.46.02.68-.02.41-.08.83-.19,1.24-.27.1-.02.21,0,.31-.03.05-.01.09-.1.16-.11.09-.02.19.02.29.01.15-.02.19-.09.3-.11.2-.04.39,0,.59-.04.23-.05.38-.11.62-.12.44-.02.83-.24,1.24-.28.77-.08,1.55-.37,2.34-.41.23,0,.4-.12.62-.15.2-.03.42,0,.62,0,.46,0,.92,0,1.38,0h1.17c.2,0,.43-.03.62,0,.22.03.33.12.54.14s.49-.06.7-.01c.16.04.23.12.4.15.44.06.93,0,1.38,0,.41,0,.81.02,1.21-.07.15-.03.29-.07.44-.07.25-.01.33-.09.54-.14s.46.04.7-.02c.19-.05.37-.06.56-.1.11-.02.12-.11.21-.13.11-.02.23.02.34,0,.22-.05.27-.13.54-.14.38-.02.76-.18,1.09-.28.42-.13.88-.18,1.3-.28.2-.05.23-.13.49-.12.19,0,.3-.08.44-.11.21-.05.42-.01.63-.06.05-.01.08-.1.16-.11.14-.03.29.05.43.01.3-.07.57-.27.85-.39.39-.16.55-.34.88-.58.59-.44,1.18-.88,1.82-1.27.29-.18.55-.39.85-.52s.65-.16.97-.34c.28-.16.62-.32.88-.5.25-.17.54-.32.73-.56.56-.67,1.02-1.4,1.62-2.04.23-.24.38-.52.62-.76.21-.21.45-.42.65-.65.49-.57.98-1.21,1.31-1.87s.53-1.38.83-2.07c.3-.7.66-1.42.9-2.13.12-.34.22-.68.31-1,.05-.19.09-.42.14-.62.05-.22.11-.46.13-.69.05-.42.19-.83.28-1.24s.17-.81.31-1.24c.12-.38.25-.84.24-1.24,0-.22.06-.35.11-.55.06-.23-.02-.46.02-.69.05-.27.15-.4.14-.69,0-.18,0-.37,0-.55,0-.46.15-.76.14-1.24,0-.4.15-.79.24-1.13.05-.18-.02-.36.02-.53.03-.11.11-.12.13-.21.03-.13-.02-.27,0-.41.03-.16.1-.32.14-.48.04-.14.11-.27.14-.41.05-.21-.04-.48-.01-.7s.12-.33.14-.54c.02-.18-.02-.34.03-.52.02-.06.09-.14.11-.23.03-.11-.03-.24-.01-.35.07-.44.23-.87.29-1.31.11-.79.25-1.62.55-2.41.12-.33.31-.69.38-.99.03-.14.12-.31.14-.41s0-.22.03-.32c.03-.1.11-.19.13-.28.16-.71.27-1.6.56-2.26.14-.33.3-.73.39-1.1s.25-.62.38-.96c.23-.64.49-1.29.76-1.92.06-.15.07-.33.13-.49.07-.16.16-.31.24-.48.16-.32.3-.62.48-.93.35-.58.66-1.21.96-1.83.19-.38.35-.72.52-1.11.14-.33.27-.63.41-.95.16-.34.21-.7.27-1.04.08-.41.21-.77.31-1.17s.19-.71.24-1.1c.02-.2.09-.29.15-.47.06-.21.06-.41.13-.62.13-.42.15-.84.28-1.25.1-.33.23-.6.31-.96.09-.4.27-.85.41-1.24.16-.43.29-.79.41-1.21.1-.34.32-.71.49-1.02.19-.34.29-.78.44-1.14.32-.76.69-1.5.99-2.27.06-.16.18-.26.25-.41.07-.16.08-.34.17-.52.19-.38.23-.79.4-1.19.65-1.52,1.18-3.1,1.84-4.62.57-1.31,1.29-2.6,1.84-3.93.31-.74.66-1.52.98-2.26.35-.8.52-1.69.93-2.49.18-.36.31-.69.5-1.03.24-.43.44-.87.64-1.31.34-.77.62-1.57,1-2.33s.84-1.53,1.04-2.34c.21-.9.5-1.74.83-2.62.28-.77.57-1.54.75-2.34.08-.35.27-.68.35-.99.1-.41.24-.78.34-1.18.07-.3.32-.68.39-.99.02-.09-.04-.2-.02-.29s.1-.1.12-.16c.07-.3.07-.28.24-.52.18-.25.34-.56.51-.83.1-.16.17-.38.27-.52.09-.13.26-.21.35-.34.17-.23.33-.7.41-.96.1-.32.19-.64.3-.94.12-.33.27-.65.28-1.03,0-.21.04-.43.04-.63,0-.17-.04-.33-.06-.52-.12-.02-.24-.02-.36-.05-.18-.04-.08-.1-.31-.04-.31.08-.35.3-.45.59-.07.23-.15.55-.24.79s-.11.45-.17.72c-.04.19-.19.46-.23.66-.03.13.02.27-.02.39s-.19.21-.24.35c-.09.27-.12.49-.23.76s-.24.51-.35.75c-.44.99-.67,1.98-1.17,2.97-.27.53-.43,1.1-.64,1.65-.21.57-.48,1.09-.69,1.65-.18.48-.47.91-.69,1.36-.25.52-.59,1.01-.88,1.53-.57,1.02-1.18,2-1.72,3.03-.26.5-.57.96-.86,1.44-.3.5-.54,1.05-.9,1.53-.72.95-1.47,1.86-2.1,2.88-.28.45-.55.93-.85,1.37-.35.51-.74,1-1.11,1.49-.69.92-1.42,1.78-2.2,2.61-.4.42-.79.85-1.18,1.28-.14.16-.28.32-.44.48-.18.17-.24.33-.38.52-.41.56-.99,1.05-1.48,1.55-.23.23-.46.46-.69.68s-.44.48-.69.71c-.74.67-1.46,1.39-2.2,2.06s-1.63,1.31-2.35,2.04c-.34.34-.73.6-1.09.91s-.7.59-1.11.82c-.2.11-.43.32-.64.38-.25.08-.48.1-.73.16-.21.06-.44.19-.65.25-.3.08-.63,0-.94.03-1.04.1-2.23.21-3.3.56-.46.15-.94.28-1.41.51-.42.21-.9.43-1.34.59-.12.04-.2.04-.31.1-.14.07-.26.18-.38.25-.19.1-.39.2-.58.3-.53.29-1.07.48-1.63.73-.44.19-.9.38-1.37.58-.58.25-1.1.64-1.66.9-.49.23-.95.45-1.43.72s-.97.52-1.46.75c-.46.22-.89.61-1.32.9-.45.3-.9.6-1.36.89-.5.32-1.02.52-1.52.83-.45.28-.87.45-1.38.62-.24.08-.46.1-.72.17-.21.06-.5.23-.72.31-.54.2-1.04.41-1.58.6-1.12.4-2.18.94-3.27,1.36s-2.24.94-3.24,1.58c-.44.28-.88.59-1.31.9-.38.27-.8.49-1.2.72-.85.48-1.62,1.09-2.48,1.51-.45.22-.84.54-1.27.8-.39.23-.77.54-1.2.72-.46.19-.9.44-1.32.69s-.79.52-.88,1.03c-.02.14.02.28,0,.42-.02.12-.11.18-.13.28-.06.29-.08.52-.16.8-.06.22-.14.45-.19.7-.07.29-.14.54-.22.81-.13.47-.35.96-.47,1.46-.06.24-.12.45-.21.68-.1.24-.09.49-.15.75-.04.2-.18.47-.23.66-.08.26-.13.47-.23.73-.19.47-.42.91-.64,1.36-.2.4-.41.79-.6,1.19-.24.48-.58.91-.86,1.38-.5.83-1.19,1.72-1.96,2.33-.8.64-1.51,1.38-2.38,1.9-.17.11-.45.23-.65.28-.3.07-.53.2-.83.27-.28.07-.6.03-.89.03-.31,0-.47.11-.75.14s-.62-.07-.9,0c-.12.03-.18.11-.28.13-.16.04-.32-.01-.47,0-.28.04-.44.14-.75.14s-.61.01-.9-.14c-.22-.11-.42-.26-.61-.41-.21-.16-.46-.28-.6-.5-.11-.16-.18-.38-.27-.55-.12-.22-.27-.45-.43-.66s-.37-.26-.56-.42c-.22-.2-.37-.55-.48-.83-.09-.21-.2-.41-.27-.62-.1-.27-.07-.59-.07-.9,0-.28,0-.55,0-.83,0-.14.04-.35,0-.49-.03-.11-.13-.15-.15-.26-.03-.13.05-.29.01-.43-.03-.11-.12-.15-.15-.26-.06-.21-.04-.75-.25-.87.1-.25.07-.43.13-.71.02-.12.11-.2.13-.35.02-.14-.02-.28,0-.42.03-.26.15-.4.14-.69,0-.12-.04-.3,0-.42s.13-.15.15-.26c.03-.14.03-.29.06-.42.03-.11.06-.2.07-.34.02-.32,0-.5-.14-.76-.08-.16-.14-.54-.38-.4-.12.07-.09.29-.19.38-.07.06-.3.05-.39.09-.08.03-.19.11-.27.14-.15.05-.27.02-.42.06-.28.06-.34.21-.68.11-.52-.14-1.15-.16-1.58.17-.32.24-.68.55-1.06.66-.23.07-.54.07-.76,0-.1-.03-.17-.09-.3-.11-.16-.02-.34,0-.51,0,.08.12.22.18.36-.13Z"/>
        <path class="cls-8" d="m723.98,259.82c.86,1.2,2.39,1.6,3.78,1.83,1.19.2,2.23.52,3.31,1.06,1.55.77,2.88,2.03,4.02,3.31.99,1.11,2.31,2.05,3.68,2.61.6.25,1.19.47,1.8.68.58.2,1.09.55,1.64.8,1.2.54,2.34,1.09,3.44,1.82.61.4,1.09.94,1.68,1.36.64.46,1.33.72,2.1.85.26.04.96.05.93.49-.01.21-.27.35-.44.44-.58.32-1.11.79-1.73,1.05-1.33.58-2.63,1.18-3.96,1.77-.5.22-1.02.34-1.54.5-.42.13-.88.3-1.31.29-.77,0-1.44.15-2.2.14-.7,0-1.52.35-2.2.58-.46.16-.9.29-1.38.42-.45.12-.98.24-1.45.24-.74.01-1.45.28-2.2.27s-1.56.08-2.27-.11-1.55.05-2.2.21c-.41.1-.83.2-1.24.3s-.75.28-1.09.46-.86.31-1.25.38c-.19.03-.5.02-.69,0-.18-.02-.24-.11-.4-.15-.09-.02-.19.01-.28.01-.19,0-.23-.06-.41-.11s-.37,0-.55-.02c-.25-.04-.42-.15-.69-.14-.24,0-.4.01-.62.07-.6.15-1.24.13-1.86.28-.45.11-.86.27-1.25.51-.3.18-.57.38-.9.5-.89.31-1.91.22-2.81.43-.12.03-.13.12-.26.15s-.26,0-.39.02c-.09.02-.17.1-.3.11-.5.06-1.02-.03-1.52,0-.73.04-1.44.33-2.17.4-.28.02-.54.06-.81.13-.43.11-.87.1-1.28.2-.25.06-.42.11-.69.11-.91-.01-1.97-.15-2.86.03-.99.19-2.05.11-3.06.11s-2.12.12-3.13,0c-.25-.03-.47-.14-.72-.16-.29-.02-.55.06-.83.12-.54.11-1.17.03-1.72.03h-6.54c-.51,0-1.01,0-1.52,0s-.99.14-1.51.14c-.46,0-.96-.05-1.41.03-.49.09-1,.06-1.48.18-.41.1-.82.07-1.24.07-.44,0-.82-.14-1.27-.14s-.92,0-1.38,0c-.49,0-.92-.15-1.41-.14s-.94-.14-1.43-.14c-.55,0-1.11,0-1.66,0h-3.7c-.65,0-1.3,0-1.94,0-.76,0-1.49.15-2.24.14-.34,0-.69-.03-1.03-.01s-.68.16-1.03.16-.7-.17-1.07-.17c-.42,0-.82.15-1.24.16-.7.01-1.37-.13-2.06-.15-.78-.02-1.56,0-2.34,0-1.51,0-2.98-.14-4.49-.14s-2.98-.14-4.49-.14-3.03-.14-4.56-.14-3.1.08-4.63,0c-.37-.02-.73-.14-1.1-.15s-.73,0-1.09,0c-.85,0-1.71.05-2.55-.07-1.68-.23-3.35.28-5.03.04-.43-.06-.81-.15-1.25-.08-.37.06-.71.12-1.09.11-.97,0-1.93,0-2.9,0-1.65,0-3.37-.13-5.02.01-1.77.15-3.53.12-5.31.13-.88,0-1.74-.15-2.62-.14-.95,0-1.88-.12-2.82-.14-3.92-.06-7.81.15-11.72.14-.96,0-1.92,0-2.88,0-.46,0-.93.01-1.39,0-.56,0-1.11-.13-1.67-.15-.92-.03-1.86,0-2.78,0-1.01,0-1.98-.04-2.98-.13-.91-.08-1.83.06-2.74-.02-.44-.04-.86-.13-1.3-.13-.52,0-1.03.04-1.54-.03-.86-.1-1.75-.22-2.62-.25-.98-.03-1.94-.12-2.92-.13-.86,0-1.69-.14-2.56-.14-.92,0-1.83,0-2.75,0h-5.17c-.78,0-1.56.02-2.34,0-.38,0-.74-.09-1.11-.13-.46-.05-.94-.01-1.4-.01-.72,0-1.49.09-2.2-.03-.81-.13-1.6-.09-2.43-.1-.7-.01-1.38-.15-2.1-.14-.77,0-1.53-.15-2.29-.14-.66.01-1.33-.1-1.99-.13-.74-.03-1.49-.19-2.22-.27-.32-.04-.64.01-.96-.02s-.64-.12-.98-.13c-.75-.01-1.47.04-2.2-.1-.62-.12-1.32-.03-1.96-.03-.73,0-1.45-.14-2.19-.14-1.38,0-2.77.01-4.15,0-.64,0-1.24.15-1.89.14-.73,0-1.42.14-2.14.14-1.26,0-2.51.04-3.75.24-.29.05-.57,0-.86.02s-.54.14-.83.15c-.6.03-1.19.12-1.79.13-.53,0-1.04.14-1.58.14-.25,0-.51-.01-.76,0-.29,0-.54.12-.82.15-.66.07-1.44.05-2.1-.06-.4-.07-.81-.25-1.21-.37-.96-.27-1.9-.42-2.9-.41-1.55.01-3.07-.16-4.61.01-1.38.16-2.69.66-4.06.86-1.67.24-3.21-.33-4.65-1.14-1.79-1.01-3.78-1.19-5.81-1.11-1.58.06-3.09.67-4.66.71-.97.02-1.95-.02-2.92,0-1.04,0-1.96-.13-2.97-.34-1.94-.41-3.16-2.24-4.69-3.36-1.47-1.08-3.32-.89-5-.67-1.47.19-3.12.4-4.57-.03-.45-.13-2.4-.76-1.73-1.49.27-.29.65-.34,1-.52s.65-.33.96-.57c.39-.3.79-.51,1.16-.82.34-.29.66-.58,1.04-.83.24-.16.52-.2.77-.35.2-.12.34-.3.54-.42.23-.13.49-.22.7-.38s.39-.33.62-.47c.39-.23.76-.37,1.18-.49.16-.05.23-.12.4-.15.22-.04.43-.04.66-.1.88-.22,1.81-.44,2.65-.83.51-.23,1.08-.36,1.61-.55s.96-.43,1.44-.69c.98-.53,2.05-.9,3.01-1.44.17-.09.33-.19.45-.34.21-.23.28-.54.4-.82.64-1.49,2.27-2.36,3.15-3.72.49-.76,1.43-2.62,2.6-1.77.28.2.37.27.68.07.24-.15.47-.34.65-.58.53-.69.97-1.35,1.41-2.1.32-.54.79-1.23,1.31-1.58.48-.33,1.07-.54,1.58-.86.33-.2.71-.37,1.04-.59.26-.17.48-.4.75-.59.79-.54,1.62-1.06,2.45-1.55.9-.53,1.8-.94,2.77-1.32,1.05-.41,2.18-.99,3.33-1.01.64-.01,1.26-.15,1.91-.14.5,0,.94.15,1.45.14.48,0,.99.12,1.44.28s.92.2,1.38.31c.74.18,1.47.34,2.2.51.67.16,1.37.37,2.1.29.85-.09,1.63-.47,2.41-.8.51-.22,1.04-.41,1.55-.62s.95-.43,1.45-.59c.9-.29,2.02-.52,2.96-.27.37.09.73.1,1.1.19.34.08.65.17.96.33.52.27,1.01.54,1.62.52.43-.01.85-.05,1.26.1.37.13.7.34,1.06.5.73.32,1.43.45,2.21.18,1.13-.4,2.01-1.28,2.95-1.99.36-.27.75-.52,1.16-.72.46-.23.96-.52,1.45-.66.18-.05.36-.01.55-.06.27-.07.4-.11.69-.11.49,0,.9.14,1.38.14.39,0,.87.08,1.24-.03.43-.13.88-.48,1.19-.79.61-.63,1.14-1.3,1.74-1.92.66-.7,1.39-1.26,2.17-1.8.28-.19.62-.34.82-.62.25-.34.16-.85.02-1.24-.1-.27-.15-.48-.15-.76s-.08-.38-.14-.61c-.05-.18-.13-.56-.11-.73.02-.12.19-.44.28-.55.27-.34.49-.7.9-.89.46-.22.88-.11,1.3.14.8.47,1.71,1.07,2.72.83.46-.11.75-.5,1.1-.79.42-.34.71-.75,1.2-.95.09.15.69.24.86.25.22.01.53.06.66-.17s0-.65-.04-.87c-.05-.23-.11-.56-.2-.76-.09-.19-.22-.32-.31-.51-.11-.23-.26-.37-.41-.58-.28-.4-.49-.78-.87-1.1-1-.84-2.1-1.46-2.91-2.51-.35-.45-.71-.89-.96-1.38-.12-.22-.28-.36-.42-.55-.08-.1-.33-.49-.32-.61.37.4.82.7,1.25,1.05.48.39.85.93,1.38,1.25.49.3,1.01.56,1.52.82.28.14.58.26.89.35s.61,0,.9.06c.57.13.81.52,1.09.97.27.42.57.82.86,1.24s.59.77,1.04,1c.5.27,1.01.6,1.38,1.07.64.81.84,1.84,1.58,2.57.38.38.73.48,1.24.48s.93-.3,1.38-.42c.23-.06.6-.09.8.03s.34.39.48.56c.22.27.69.68,1.03.82.51.21,1.03.24,1.52.41.44.16.77.51,1.1.84.11.11.34.42.5.46.3.08.52-.25.63-.46.26-.52.06-1.02-.08-1.53-.13-.47-.46-1.2,0-1.58.18-.15.45-.25.69-.28.15-.02.33,0,.48,0,.18,0,.31.11.48.13.87.1.29-.85.22-1.18-.06-.25-.01-.55-.01-.81,0-.4-.08-.67.34-.83.57-.23,1.18.28,1.65.57.51.32.98.61,1.51.88,1.11.57,2.2,1.2,3.44,1.37.64.09,1.19.39,1.79.63s1.17.47,1.65.96c.32.33.78.82,1.23.9.66.11,1.19-.28,1.79-.41.29-.06.62.06.9,0,.11-.03.15-.12.26-.15.15-.04.34.04.49.01.53-.1.63-.79.88-1.19.18-.29.32-.57.7-.44.13.05.21.14.31.21.13.1.17.11.31.17.42.18,1.16.23,1.65.13.59-.13,1.02-.4,1.65-.4.55,0,.93.14,1.4.4.29.16,1.06,1.21,1.45.76.12-.14.06-.44.05-.6-.03-.71.32-1.31.54-1.97.1-.3.23-.63.31-.95.04-.17.09-.36.13-.52s.08-.31.03-.49c-.02-.06-.08-.09-.09-.17-.01-.11.09-.18.09-.27,0-.1-.07-.1-.09-.2-.02-.09,0-.23,0-.32,0-.16.02-.34-.02-.49s-.15-.37-.21-.54c-.1-.31-.15-.61-.27-.89-.07-.16-.1-.26-.14-.43,0-.02-.08-.21-.08-.23-.03-.09.04-.17-.09-.23.07-.46.85.12,1.01.23.35.24.74.59,1.01.93.31.39.67.72.98,1.1.33.41.73.75,1.01,1.22.47.77.99,1.51,1.52,2.24.28.39.47.83.73,1.24.13.2.24.4.36.6.24.4.51.68.84,1,.35.34.58.81.86,1.21.13.19.24.3.34.51s.21.44.34.62c.44.66.98,1.53,1.85,1.68.21.04.43-.02.59-.16.45-.41,0-.99-.19-1.4-.05-.09-.16-.25-.11-.37.06-.14.16-.08.3-.12.14-.04.15-.11.33-.06.14.04.28.1.41.15.9.39,1.77.83,2.74,1.11.13.04.22.04.36.05.15,0,.22.07.36.1.24.05.49-.06.72-.09.52-.07.85-.37,1.14-.78.2-.29.37-.61.58-.89.12-.16.38-.57.61-.61.44-.07,1.03.88,1.24,1.18.49.71.73,1.61,1.35,2.22.26.25.57.45.89.6.21.1.43.19.64.28.24.11.44.07.69.12,1.16.19,2.26.38,3.44.38.28,0,.61.05.88-.01.1-.02.16-.11.28-.13.14-.03.34,0,.49,0,.31,0,.59-.09.89-.13.27-.04.56-.15.79-.25.43-.18.76-.58.96-1,.25-.5.61-.9.9-1.38.46-.77,1.05-1.53,1.65-2.24.29-.34.78-.72,1.2-.8.33-.06.33.18.57.27.27.1.48-.2.68-.34.41-.29.77-.65,1.16-.96.49-.4,1.04-.73,1.38-1.26.12-.18.3-.3.46-.45.19-.17.34-.37.53-.54.54-.46,1.09-.89,1.73-1.16.68-.3,1.34-.64,1.92-1.08.26-.2.54-.33.79-.55.14-.12.26-.22.37-.37.07-.1.14-.27.24-.35.03.23-.16.56-.24.79-.09.29-.16.58-.23.88-.12.49-.32,1.08-.62,1.5-.37.52-.76.98-1.21,1.43-.38.38-.7.87-.81,1.4-.09.42-.09.85-.24,1.26-.22.62-.39,1.22-.55,1.86-.06.24-.08.49-.07.76,0,.18-.04.27.13.35.12.06.39-.02.5-.07.2-.1.3-.28.47-.42.24-.19.46-.35.7-.55.11-.09.35-.34.5-.34.2,0,.27.32.46.48.45.36.94.41,1.52.35.4-.04,1.15-.32,1.41-.67.17.02.14.16.23.26.06.07.23.24.36.26.29.05.77-.21,1.03-.37.71-.44,1.35-1.01,1.98-1.55.32-.28.69-.54,1-.83.24-.23.41-.53.62-.79.13-.18,1.28-1.36,1.39-1.2.04.05-.05.25-.06.31-.04.19-.05.38-.08.58-.04.26-.07.52-.14.77-.29,1.12-.97,2.13-1.66,3.03-.05.07-.11.14-.16.21-.32.45-.98,1.05-.8,1.65.14.48.65.8,1.07.98.66.29,1.23.27,1.93.26s1.4.03,2.11.1c.62.06,1.1.11,1.65.49.14.1.28.3.43.36.38.15.84-.09,1.18-.2.18-.06.28-.04.48-.06s.35-.12.55-.15c.93-.12,1.9-.14,2.84-.13,1.29,0,2.57-.15,3.85-.31.72-.09,1.39-.37,2.04-.63.36-.14.76-.15,1.11-.3.33-.14.64-.3.97-.42.4-.15.82-.45,1.23-.65.55-.27,1.07-.63,1.64-.86.15-.06.3-.11.47-.11.34-.01.68.11,1.02.13,1.07.08,2.1-.12,3.07-.57.41-.18.73-.47,1.13-.66.44-.2.89-.4,1.35-.58.7-.28,1.28-.67,2.06-.69.58-.01,1.04.22,1.48.58.2.16.37.38.57.55.39.33.81.54,1.26.76,1.42.7,3,.58,4.56.58.89,0,1.73-.14,2.62-.14.71,0,1.61-.14,2.31,0,1.4.26,2.41,1.44,3.37,2.42.74.76,1.58,1.44,2.55,1.9.69.33,1.45.47,2.2.61,1.09.21,2.07.11,3.17.03,1.26-.09,2.47-.55,3.72-.69.92-.11,1.8-.28,2.72-.31.86-.04,1.71.1,2.55.31.7.18,1.47.45,2,.97.42.41.71.97,1,1.47.37.63.62,1.43,1.13,1.96.35.37.74.46,1.2.55.29.06.49.16.82.14s.61-.14.96-.14c.27,0,.55,0,.83,0,.78-.01,1.21.57,1.53,1.21.3.61.82,1.09,1.07,1.72.73,1.78.57,3.86,1.73,5.47Z"/>
        <path class="cls-12" d="m573.93,116.65c.09.02.18.01.26-.03-.07-.14-.3-.71-.04-.8.18-.06.6.3.78.38.27.11.6.25.86.31.14.03.26.07.38.1.16.05.32.12.46.15.66.18,1.3.2,1.91.43.67.25,1.45.38,2.14.55.35.08.68.2,1.03.27.37.07.69.06,1.04.14.13.03.2.12.33.15.18.04.38.08.56.12.36.08.75.06,1.11.15.13.03.2.12.33.15.18.04.39-.06.56-.01s.2.13.4.15.35.05.55.1c.36.09.74.11,1.1.2.17.04.29.1.48.11.24.01.39.11.62.14.17.03.35-.01.52.02.12.03.19.1.37.11.42.02.77,0,1.17.11.17.04.31.02.48.03.18,0,.25.08.37.11.35.07.74.01,1.07.1.31.08.62.05.96.07.21.01.35.11.55.15.19.03.36-.03.55.02.36.09.71.06,1.07.14.13.03.19.1.37.11.27,0,.38.04.62.11.32.08.7.03,1.03.03.38,0,.59.14.96.14s.58.08.89.14c.38.07.79.11,1.17.21.34.08.68.07,1.03.07.4,0,.71.14,1.1.14.18,0,.37-.01.55,0s.31.1.48.13c.18.04.37-.02.55.02.25.05.36.13.62.13.15,0,.35-.04.49,0,.15.04.25.11.4.15.14.03.34,0,.49,0,.26,0,.29.08.49.13.18.04.37-.03.54,0,.14.03.2.12.33.15.17.04.35-.03.53.02.07.02.06.09.16.11.09.02.19-.03.28-.02.37.06.73.23,1.1.29.15.03.32-.02.47,0,.08.01.08.1.16.11.11.03.22,0,.34,0,.18.02.24.11.4.15s.33-.03.49,0c.39.09.79.22,1.17.37.27.1.49.2.55.51.07.36-.17.69-.48.77-.63.16-1.31.13-2,.13-.17,0-.38.04-.55,0-.2-.04-.34-.14-.55-.15-.4-.02-.72,0-1.1-.1-.19-.05-.36-.01-.55-.06s-.28-.1-.48-.11c-.4-.02-.79-.15-1.17-.24-.16-.04-.32,0-.48-.04-.18-.04-.29-.12-.48-.13-.36-.02-.68-.12-1.03-.2-.16-.04-.32-.06-.48-.1-.19-.05-.37-.06-.56-.1-.17-.04-.21-.12-.4-.15-.07,0-.15.02-.22,0-.09-.02-.17-.1-.23-.11-.17-.04-.36.02-.53-.02s-.21-.13-.4-.15c-.38-.04-.73-.09-1.11-.13-.16-.02-.22-.1-.35-.13-.17-.04-.36,0-.54-.01-.38,0-.7-.14-1.1-.14-.36,0-.55-.14-.9-.14-.22,0-.34-.05-.55-.11s-.42.02-.62-.03c-.14-.03-.2-.12-.33-.15-.17-.04-.38.05-.56.01-.37-.07-.72-.27-1.1-.29s-.66-.13-1.03-.13c-.24,0-.33-.08-.55-.13-.21-.05-.41.01-.62-.04-.31-.08-.6-.17-.89-.25-.07-.02-.15.03-.22.01-.1-.02-.09-.09-.16-.12-.18-.05-.41-.12-.59-.16-.7-.14-1.42-.19-2.14-.28-.32-.04-.63-.16-.96-.25-.36-.09-.75-.08-1.11-.16-.17-.04-.21-.13-.4-.15-.18-.02-.31-.02-.48-.07-.21-.06-.34-.04-.55-.06s-.4-.12-.62-.14c-.33-.04-.64-.17-.96-.25-.39-.09-.79-.14-1.17-.24-1.37-.36-2.66-.66-4.06-.89-.19-.03-.37-.11-.55-.15-.14-.03-.23-.1-.35-.13-.33-.08-.64-.06-.96-.15-.61-.17-1.27-.31-1.91-.57-.5-.21-.98-.55-.63-.67Z"/>
        <path class="cls-12" d="m644.27,147.63l-.02-.11c-.23-.07-.49-.01-.73-.02-.28-.01-.49-.13-.76-.14-.5-.03-1.01,0-1.51,0-.42,0-.98.1-1.38,0-.12-.03-.14-.12-.26-.15-.12-.03-.3,0-.42,0-.27,0-.55.02-.83,0-.25-.01-.44-.13-.69-.14-.23-.01-.46,0-.69,0-.5,0-1.01,0-1.51,0-.63,0-1.19-.14-1.83-.14-.57,0-1.15,0-1.72,0-.33,0-.55-.1-.86-.14-.27-.04-.56.04-.83.01-.31-.04-.55-.15-.88-.14-.28,0-.56,0-.84,0h-1.73c-.28,0-.55,0-.83,0-.3-.01-.53-.12-.82-.14-.6-.04-1.22,0-1.82,0-.31,0-.62,0-.94,0-.35,0-.65-.12-.99-.14-.59-.03-1.2,0-1.79,0-.76,0-1.47-.08-2.22-.13-.63-.05-1.27-.25-1.91-.28-.32-.02-.65,0-.97,0-.41,0-.68-.08-1.06-.15-.19-.03-.37.02-.56-.02-.11-.03-.17-.09-.3-.11-.17-.03-.34,0-.52-.02-.16-.03-.3-.1-.47-.11-.31-.02-.63,0-.94,0-.41,0-.77-.1-1.18-.14-.56-.05-1.11-.22-1.68-.28-.28-.03-.54-.11-.82-.14-.2-.02-.36-.07-.56-.11s-.39,0-.59-.02c-.65-.09-1.28-.33-1.92-.43-.12-.02-.27.04-.39.02-.16-.03-.27-.12-.44-.15-.15-.03-.3.02-.45,0-.18-.03-.4-.11-.58-.16-.56-.14-1.14-.17-1.72-.27-.64-.12-1.29-.33-1.93-.38-.3-.03-.61-.07-.9-.13-.14-.03-.25-.11-.39-.13-.16-.03-.32.02-.47,0-.61-.11-1.2-.26-1.79-.39-.53-.12-1.1-.09-1.64-.16-.14-.02-.25-.09-.39-.11-.15-.03-.31,0-.44-.02-.13-.03-.22-.11-.34-.13-.2-.04-.39,0-.59-.04-.98-.23-1.98-.43-2.99-.51-.64-.05-1.24-.33-1.86-.43-.09-.01-.19.03-.28.02-.2-.03-.34-.14-.55-.15-.09,0-.18.01-.28,0-.21-.01-.35-.11-.55-.15-.08-.01-.19,0-.28,0-.23,0-.34-.05-.55-.11-.13-.03-.22-.02-.35-.03-.16-.01-.26-.08-.37-.11-.25-.06-.51,0-.76-.06-.09-.02-.17-.09-.3-.11-.14-.02-.28.02-.42,0-.27-.04-.39-.12-.69-.14s-.52-.13-.83-.14-.52-.15-.83-.14-.53-.12-.83-.14c-.27-.01-.53.03-.8-.03-.2-.04-.47-.19-.73-.11-.35.1-.2.23-.06.42.13.18.24.32.32.51-.4.23.11.32.3.31.28,0,.62-.05.89.01.15.03.26.11.41.13.14.02.28-.03.41-.01.32.04.56.15.89.14.28,0,.55,0,.83,0,.34,0,.58.11.89.14.27.03.56-.04.83-.01.33.04.58.15.93.14.37,0,.64.13,1,.14.3,0,.6,0,.89,0s.53.13.83.14c.27.01.51.06.76.13.24.07.43.1.68.15.15.03.26.11.41.13.17.02.31-.02.48.03.16.04.24.1.41.11.13,0,.28-.03.41-.01.15.03.26.13.41.15.16.03.32-.03.48,0,.58.12,1.14.31,1.72.41.27.05.55-.05.83.02.16.04.24.1.41.11s.32-.03.48,0c.15.03.26.11.41.13.14.01.27-.02.41,0,.15.03.26.11.41.13.17.02.31-.02.48.03.54.14,1.13.18,1.65.31.25.06.55.17.83.21.29.05.6.12.89.13s.53.14.83.14.47.11.75.14c.13.01.28-.04.42-.01.15.03.26.13.41.15.13.02.29-.05.42-.01s.19.12.33.15.29-.04.42-.01c.12.02.18.11.28.13.13.03.27,0,.4,0,.18.02.31.12.48.15.58.09,1.15.19,1.72.34s1.16.09,1.72.24,1.16.17,1.72.37c.3.1.54.09.83.15.27.06.43.15.75.14s.59.09.89.13c.15.02.27.1.41.13.16.03.33-.03.49,0,.11.03.15.12.26.15.13.03.29-.02.42-.01.14.02.19.08.3.11.16.04.29,0,.45.03.3.03.51.15.83.14.33,0,.58.12.89.14.61.03,1.14.13,1.72.26.26.06.56,0,.83.01.32,0,.57.14.89.14.28,0,.55,0,.83,0,.32,0,.48.08.75.14.25.05.58,0,.83,0,.13,0,.3-.03.42,0,.14.03.2.12.33.15.24.06.58,0,.83,0,.32,0,.48.08.75.14.13.03.28-.03.42-.01.16.02.26.1.41.13.29.07.66.01.96.01.52,0,1.23-.13,1.73,0,.11.03.15.12.26.15.12.03.29,0,.42,0,.3,0,.6,0,.89,0,.28,0,.55,0,.83,0,.32,0,.57.14.89.14.27,0,.55-.02.83,0,.32.02.56.14.89.14s.53.06.83.13c.27.06.61.02.89.01.31,0,.53.12.83.14s.61-.05.89,0c.3.07.5.13.83.13.3,0,.6,0,.89,0,.26,0,.57-.05.83,0,.15.03.26.13.41.15.17.03.38,0,.55,0,.32,0,.52-.09.83-.14.33-.06.59.07.89.13.52.11,1.18,0,1.72.01.13,0,.3.04.42,0,.11-.03.15-.12.26-.15.24-.06.72.15.9-.07s-.13-.46-.27-.61c-.16-.18-.23-.34.21-.69Z"/>
        <path class="cls-6" d="m503.17,130.97c.15-1.3.03-2.56-.37-3.78-.6.03-1.12-.04-1.72-.11-.56-.07-1.08,0-1.63-.07-1.22-.18-2.35-.74-3.58-.85"/>
        <path class="cls-4" d="m517.42,156.97v-.09c-.07.44.36.64.68.81.66.36,1.26.81,1.8,1.34s1,1.04,1.47,1.55c.29.31.73.61.86,1.02.17-.13.16-.39.21-.57.08-.3.23-.49.38-.76.13-.23.2-.48.37-.69.22-.27.49-.48.69-.76.36-.49.76-.97,1.13-1.45.15-.19.35-.38.52-.55.13-.13.6-.3.54-.53-.16.05-.32.2-.48.25-.24.07-.5.09-.75.18-.52.19-1.02.44-1.51.69s-.97.52-1.38.93c-.27.27-.67.7-.72,1.09-.29-.03-.23-.49-.45-.67-.23-.19-.55-.31-.82-.43-.38-.16-.81-.39-1.21-.5-.46-.14-.86-.3-1.35-.86Z"/>
        <path class="cls-4" d="m483.4,148.38v-.06c-.04.27.19.39.36.5.35.22.67.5.96.82s.53.64.79.95c.15.19.39.38.46.63.09-.08.08-.24.11-.35.04-.18.12-.3.2-.46.07-.14.11-.3.2-.42.12-.16.26-.29.37-.46.19-.3.4-.6.6-.89.08-.12.19-.23.28-.34.07-.08.32-.19.29-.33-.08.03-.17.12-.25.15-.13.04-.27.06-.4.11-.28.12-.54.27-.81.42s-.52.32-.74.57c-.14.16-.36.43-.38.67-.16-.02-.12-.3-.24-.41-.12-.12-.29-.19-.44-.26-.2-.1-.43-.24-.64-.31-.25-.08-.46-.18-.72-.53Z"/>
        <path class="cls-6" d="m663.41,242.2c-1.72-.62-3.44-1.24-5.16-1.86"/>
        <path class="cls-8" d="m641.93,230.53c.19-.56.82-1.03,1.24-1.42.46-.43.95-.84,1.39-1.31.25-.27.53-.51.78-.77.16-.16.27-.33.39-.52.1-.16.22-.26.34-.41.18-.23.34-.47.54-.7.14-.17.36-.24.49-.39.16.12.09.23.05.37-.04.15-.05.29-.05.46,0,.37-.04.72-.13,1.06-.15.58-.75,1.12-1.21,1.49-.31.24-.59.51-.93.7-.28.16-.56.23-.87.32-.13.04-.34.13-.48.2s-.24.07-.39.12c-.17.07-.7.41-1.16.81Z"/>
        <path class="cls-8" d="m548.49,225.47c-.25-.27-.38-.68-.62-.97-.11-.13-.25-.23-.37-.38s-.24-.28-.36-.41c-.51-.55-.91-1.13-1.5-1.6-.31-.24-.65-.55-1.03-.66-.15-.04-.33-.05-.47-.11-.17-.08-.23-.06-.42-.1-.07-.02-.09-.09-.16-.1-.08-.01-.18.02-.26,0s-.09-.08-.16-.1c-.08-.02-.17.01-.25,0-.2-.03-.35-.16-.57-.11-.16.03-.21.13-.34.24.11.29.28.57.48.83s.43.33.68.5c.29.19.58.36.89.53s.65.29.95.47c.29.17.58.35.86.54.14.09.24.18.37.28.14.11.33.15.48.26.23.18.45.28.72.41.19.09.51.46,1.06.49Z"/>
        <path class="cls-8" d="m545.29,235.39c.09-.33-.42-.45-.62-.51-.39-.12-.75-.29-1.14-.39-.3-.08-.78-.06-1.04.08-.19.1-.59.44-.39.71.04.06.29.11.37.15.14.07.27.14.41.21.33.16.7.31,1.06.41.15.05.27.13.41.18.15.06.31.05.47.1.18.05.82.34.86.03-.14-.09-.06-.2-.08-.34s-.1-.2-.16-.31c-.1-.16-.24-.36-.09-.54l-.06-.08"/>
        <path class="cls-8" d="m594.95,227.54c-.28-.06-.56-.61-.77-.83-.23-.23-.44-.45-.67-.67-.13-.13-.28-.24-.44-.34-.09-.05-.17-.11-.26-.16-.08-.04-.15-.04-.23-.07-.2-.07-.28-.12-.51-.11-.27.01-.39.14-.29.42.12.34.53.53.78.75s.49.4.74.61c.31.27.56.59.86.88.15.15.48.61.68.63.08-.27.02-.6-.06-.84-.1-.28-.19-.73-.44-.91"/>
        <path class="cls-8" d="m631.3,237.45c0-.24-.02-.42.1-.62.1-.17.22-.34.33-.51.21-.32.51-.88.97-.84-.13.1-.05.32-.07.46-.02.12-.14.28-.17.39-.1.32-.21.74-.41,1.01-.24.31-.77.66-.65,0,.03-.15.11-.38.18-.52.1-.18.28-.27.23-.51"/>
      </g>
      <g>
        <path class="cls-14" d="m569.23,467.82c5.21-3.18,7.32-12.21,9.45-17.48,3.25-8.05,6.09-17.1,7.19-25.78,1.16-9.07.93-17.19-1.28-26.06-1.94-7.77-2.45-15.71-.77-23.58,2.54-11.96,15.3-20.53,27.47-18.15,10.21,2,16.62,13.39,17.85,22.93,1.57,12.12.82,24.48,2.48,36.62,1.74,12.71,7.27,24.43,11.5,36.39,1.02,2.89,3.32,8.4.97,11.34-2.87,3.58-6.02-.67-8.89-1.3-3.58-.78-5.57,3.8-8.63,5.54-3.73,2.12-6.79,1.55-10.74.76-4.14-.83-6.69.31-10.74,1.47-5.13,1.46-5.38-2.51-9.53-3.9-6.07-2.02-14.45,7.14-20.56,4.54-2.02-.86-2.97-3.35-5.76-3.33Z"/>
        <g>
          <path class="cls-4" d="m611.8,379.61c-5.39-4.11-7.03,11.69-2.64,13.16,6.81,2.29,5.51-12.41,2.72-14.98"/>
          <path class="cls-4" d="m599.54,378.99c-5.56-3.87-6.52,11.98-2.07,13.27,6.9,1.99,4.97-12.64,2.07-15.08"/>
        </g>
      </g>
      <g>
        <path class="cls-14" d="m336.21,553.51c8.15-3.82,14.38-12.83,20.58-19.25,6.22-6.44,12.49-12.18,21.09-15,8.34-2.73,18.05-1.42,26.62-.6,9,.86,17.21,2.83,24.59,8.62,6.02,4.72,10.81,10.71,16.49,15.96.65.6,1.31,1.18,2.03,1.65-6.19,3.41-12.99,5.28-18.9,9.88-6.15,4.79-12.79,8-19.77,10.9-3.48,1.45-7.9.76-11.66.76-3.97,0-7.9-.59-11.66-.76-4.1-.19-7.46-.06-11.15-1.21s-7.19-3.26-10.9-5.06c-4.31-2.1-8.18-3.16-12.92-3.36-2.26-.09-4.41-.23-6.58,0-2.29.25-4.29.93-6.31-.56.27-1.75,1.51-3.26,3.26-3.75"/>
        <path class="cls-6" d="m491.8,544.64c-2.03-.56-4.05-1.13-6.08-1.69"/>
        <path class="cls-7" d="m376.41,520.48c-2.38.51-3.51,4.43-4.35,6.42-1.13,2.67-2.48,5.59-3.08,8.41-1.13,5.28.24,11.66,2.75,16.39,1.98,3.74,6.98,7.85,10.93,9.33,4.73,1.77,9.68,4.23,14.78,4.22,9.69-.01,17.2-9.38,19.5-18.18,1.18-4.51,1.34-10.15-.15-14.6s-3.47-9.32-8.04-11.46c-4.27-2-9.27-2.39-13.93-2.89-5.06-.55-10.77-.65-15.44,1.79-2.09,1.09-4.6,1.82-6.36,3.44"/>
        <path class="cls-4" d="m396.86,530.78c-2.43-2.49-9.55.05-11.62,2.2-3.12,3.24-3.83,8.31-1.39,12.06,4.4,6.77,17.33,7.93,19.42-1.5,1.52-6.85-4.97-12.36-11.15-13.09"/>
        <path class="cls-14" d="m398.93,538.94c.04.19.05.43-.25.65-1.21-1.03-2.4-2.91-3.17-4.32-.98-1.8-.03-2.39,1.42-3.64,1.27-1.1,2.22-2.71,4.03-2.47s3.76,1.2,5.58,1.65c1.46.36,3.89,1.98,3.89,3.69-1.31-.47-4.47,2.02-5.86,2.48-2.11.7-4,1.57-5.64,1.96Z"/>
      </g>
      <path class="cls-7" d="m233.96,529.66c4.16-8.39,2.35-20.59,4.27-29.85,2.36-11.42,15.52-35.63-.55-43.76-14.95-7.56-31.41,25.8-22.36,36.32-3.77-10.41-28.74-19.29-35.17-7.2-5.86,11.01,25.43,26.37,32.85,31.44,5.72,3.91,17.17,7.81,20.98,13.06Z"/>
      <path class="cls-1" d="m241.94,514.51c3.47-2.08,5.66-6.93,8.51-9.84,3.52-3.6,13.95-9.32,10.01-16.02-3.66-6.23-17.42,2.04-16.59,7.97,1.06-4.66-5.93-13.71-11.09-10.82-4.69,2.63,3.08,15.51,4.59,19.08,1.16,2.76,4.41,6.84,4.57,9.63Z"/>
      <path class="cls-14" d="m257.79,478.21c6.2-2.43,11.08-9.72,16.52-13.69,6.7-4.89,25.21-11.35,20.63-23.31-4.26-11.13-28.88-1.43-29.14,8.44,2.99-7.29-5.92-23.9-15.08-20.61-8.35,3,.79,26.05,2.27,32.26,1.14,4.8,5.31,12.32,4.81,16.9Z"/>
      <g>
        <path class="cls-14" d="m696.4,312.08c-.62.11-1.21.44-1.8.65s-1.13.5-1.68.72c-1.28.52-2.5.82-3.8,1.14-.69.17-1.31.54-1.96.83-.3.13-.65.17-.94.3-.17.08-.29.21-.47.29s-.37.16-.55.23c-.62.25-1.17.58-1.77.9-.26.14-.54.23-.78.43s-.47.45-.73.63c-.58.4-1.2.72-1.81,1.13-.55.37-.99.86-1.45,1.33-.9.93-1.73,1.95-2.62,2.89-.93,1-1.89,2.06-2.55,3.25-.72,1.32-1.43,2.65-2.23,3.91-.75,1.2-1.19,2.52-1.73,3.84-.51,1.27-.7,2.65-1.15,3.91-.23.64-.33,1.31-.48,1.96-.08.32-.12.63-.2.94-.09.34-.11.68-.2,1.02s-.02.68-.11,1.02c-.05.18-.12.28-.13.47s.03.37,0,.55c-.07.34-.14.57-.14.94s0,.7,0,1.05v2.24c0,.61-.12,1.37.03,1.96.18.69.31,1.4.42,2.12.05.32.13.62.17.93.05.36.19.66.27,1.02.09.39.08.78.21,1.18s.22.78.33,1.18c.19.67.49,1.3.73,1.95s.45,1.35.76,1.96.61,1.17.84,1.8c.22.58.6,1.08.88,1.64.31.61.6,1.2.9,1.8.68,1.35,1.75,2.51,2.96,3.39.5.36,1.02.72,1.5,1.1.33.26.59.62.95.84.23.14.45.26.68.43,1.02.74,2.17,1.28,3.22,1.97,1.83,1.21,3.93,2.08,5.8,3.15.24.14.49.22.74.34.96.47,2.06.98,3.1,1.32.61.2,1.18.34,1.74.55.4.15.91.27,1.32.31.84.09,1.67.38,2.49.46.35.04.61.03.94.12.53.14,1.18.02,1.72.05,1.11.07,2.18.14,3.29.14,1.5,0,2.98-.09,4.47-.16.64-.03,1.28-.25,1.93-.3.57-.04,1.15-.12,1.72-.16.12,0,.4.02.54-.01.07-.02.09-.12.13-.13.6-.15,1.24-.16,1.87-.28.79-.15,1.79-.36,2.51-.73.17-.09.29-.21.46-.28.16-.07.29-.09.44-.19.26-.17.56-.33.82-.51.59-.41,1.19-.76,1.73-1.21,1.09-.91,1.96-1.93,2.97-2.94,1.28-1.28,2.56-2.58,3.84-3.84.3-.3.5-.63.78-.94.31-.35.63-.64.9-1.02.13-.18.3-.3.44-.46.18-.2.21-.43.34-.64.24-.39.69-.67.98-1.02s.5-.73.77-1.08.52-.67.75-1.01c.48-.71.98-1.42,1.47-2.11.45-.63,1-1.43,1.28-2.15.34-.89.85-1.7,1.1-2.63.22-.82.54-1.6.74-2.43s.46-1.6.56-2.43c.02-.22-.03-.41.03-.63s.12-.34.13-.58c0-.49.12-.91.16-1.39.03-.43,0-.88,0-1.31,0-.57.1-1.05.16-1.61.05-.45.05-1.03,0-1.48-.05-.5-.13-1.06-.24-1.55-.22-.95-.48-1.9-.74-2.84s-.63-1.88-.94-2.82c-.29-.89-.69-1.69-1.05-2.54-.17-.39-.36-.79-.55-1.18-.08-.17-.2-.3-.3-.46-.13-.23-.16-.49-.29-.72-.2-.37-.51-.68-.71-1.05-.22-.4-.47-.84-.74-1.21-.57-.77-.97-1.72-1.49-2.54-.3-.47-.43-.96-.78-1.41s-.7-.84-1.02-1.29c-.33-.47-.66-.93-1.02-1.38s-.69-.96-1.1-1.35-.67-.83-1.02-1.26c-.16-.2-.35-.32-.55-.48-.27-.21-.41-.49-.66-.72-.79-.71-1.59-1.43-2.41-2.11s-1.75-1.42-2.72-1.83c-.48-.21-.9-.51-1.41-.71-.55-.21-1.08-.42-1.64-.59-1.11-.34-2.27-.64-3.41-.86-1.22-.23-2.36-.73-3.55-1.06s-2.36-.98-3.61-1.15c-1.36-.19-2.59-.58-3.99-.44-3.34.32-6.34,2.06-9.16,3.75"/>
        <path class="cls-9" d="m715.03,324.29c-.53-.14-1.25,1.18-1.37,1.57-.07.21-.13.42-.2.63-.05.13-.13.33-.16.46-.04.19.02.4-.03.6,0,.04-.11.11-.13.18-.03.14,0,.33,0,.48,0,.77.28,1.29.82,1.84.24.24.49.46.78.63.35.21.65.41,1.06.54.45.14.81.17,1.26-.04.18-.08.25-.14.46-.16.29-.03.37-.06.63-.16.1-.04.18.04.29-.03.06-.04.09-.13.14-.17.13-.08.28-.12.4-.22.26-.22.45-.68.58-.98.17-.39.4-.84.48-1.26.03-.19-.01-.43,0-.63,0-.26-.11-.36-.14-.56-.04-.22.02-.44-.05-.66-.03-.12-.18-.27-.24-.39-.15-.3-.36-.57-.6-.82-.55-.59-1.22-1.09-1.94-1.41-.94-.42-1.8-.23-2.04.55Z"/>
        <path class="cls-9" d="m728.18,337.6l.13-.03c.02-.18-.01-.38.16-.49-.06-.57-1.38-.2-1.7-.08-.47.18-.89.76-1.06,1.22s-.17.57-.05,1.02c.08.32.13.6.28.9.3.57.83,1.03,1.36,1.38.23.15.46.23.71.34.32.14.48.07.79-.07.68-.32,1.07-.96,1.41-1.6.13-.25.26-.44.35-.71.12-.34,0-.52-.23-.78-.21-.24-.46-.38-.74-.51-.45-.22-1.07-.36-1.43-.74"/>
        <path class="cls-9" d="m697.66,327.26c0-.13.08-.5-.02-.6-.07-.07-.51-.06-.61-.03-.53.13-.51.72-.16,1.03.3.27.82.33,1.19.16.21-.1.87-.84.39-.87"/>
        <path class="cls-9" d="m702.04,352.16c-.1-.45-.84-.84-1.26-.79-.16.02-.22.09-.34.12-.17.05-.34.01-.51.05-.3.06-.58.18-.85.3-1.16.51-2.48,1.21-3.41,2.07-.37.35-.71.82-.94,1.25-.16.3-.33.51-.43.83-.09.27-.28.5-.36.74-.21.65-.19,1.31-.19,2,0,.32-.07.72,0,1.02.06.29.21.55.28.86.15.62.24,1.36.7,1.84.99,1.04,2.24,2.33,3.66,2.68.86.21,1.63.59,2.55.64,1.06.07,2.22-.21,3.26-.43.54-.12,1.05-.46,1.48-.78.16-.12.34-.12.52-.27.13-.11.27-.21.4-.32.2-.17.32-.37.43-.59.26-.53.5-1.12.63-1.68.16-.69.19-1.31.19-2.04,0-.36.02-.68-.08-1.02s-.23-.69-.35-1.02c-.47-1.27-1.18-2.3-2.15-3.28-.52-.52-1.18-.97-1.8-1.37-.51-.33-.97-.64-1.53-.86-.81-.32-1.36-.43-2.23-.43"/>
        <path class="cls-9" d="m689.51,317.4c-.2-.41-.34-.73-.86-.79-.43-.05-.82-.04-1.1.31-.56.72-.66,1.93,0,2.59.32.32.95.56,1.34.47.41-.1.74-.49.94-.86.12-.22.11-.47.17-.7s.16-.28.14-.56c-.03-.48-.23-1.02-.79-1.1"/>
        <path class="cls-9" d="m676.68,332.27c.06-.11.1-.27.17-.37.06-.09.21-.19.26-.28.17-.33-.12-.61-.45-.41-.29.17-.45.61-.47.91,0,.13-.02.34,0,.47.04.28-.03.24.23.32.57.17,1.07-.24,1.42-.63.15-.17.34-.4.4-.62.15-.59-.4-.38-.48-.79"/>
        <path class="cls-9" d="m677.93,325.7c.05-.18-.09-.49-.31-.48-.13,0-.36.26-.43.36-.2.27-.51,1.02-.32,1.34.26.45.8,0,1.07-.2.39-.3.61-.82.44-1.3l-.13-.03"/>
        <path class="cls-9" d="m682,355.13l-.03-.13c-.33-.11-.8-.03-1.15-.03-.18,0-.37,0-.55,0-.29,0-.33.07-.56.14-.76.22-1.19.63-1.43,1.42-.5,1.6-.22,3.39.9,4.63.28.31.48.69.77.97.54.52,1.42.83,2.07,1.15.8.39,1.88.52,2.25-.48.06-.16.03-.31.07-.48.04-.19.14-.24.17-.46.05-.43.16-.81.15-1.26,0-.81.06-1.61-.27-2.35-.36-.8-.7-1.69-1.45-2.23s-1.45-.92-.94-.9Z"/>
        <path class="cls-9" d="m681.37,351.37c-.05-.23-.27-.22-.44-.35-.08-.06-.14-.2-.22-.24-.28-.15-.76-.05-.91.12-.37.43-.24,1.53.35,1.69.54.15,1.42.13,1.81-.31.17-.2.27-.66.2-.91-.09-.34-.54-.48-.63-.77"/>
        <path class="cls-9" d="m704.07,369.69c-.09-.27-.34-.66-.54-.87-.31-.32-.69-.23-1.1-.23-.71,0-1.43.15-2.11.32-.74.18-1.37.4-1.88,1.01s-.78,1.17-.78,1.96c0,.56.18,1.28.55,1.73.61.75,1.51.7,2.41.93,1.94.51,4.47.57,6.04-.86.55-.5,1.06-1.2,1.02-1.96-.06-1.03-1.17-1.48-1.96-1.88-.44-.22-.89-.39-1.33-.59s-1.03-.32-.31.43Z"/>
        <path class="cls-9" d="m713.31,360.77c-.36-.46-.38-.49-.94-.35-.34.09-.62.07-.94.23-.57.28-.67,1.46-.4,2,.42.84,2.07,1.02,2.59.22.17-.26.33-.87.28-1.16-.07-.37-.45-1.11-.91-1.1"/>
      </g>
      <g>
        <rect class="cls-3" x="287.13" y="142.62" width="228" height="346"/>
        <path class="cls-1" d="m346.62,302.78c4.98-1.61,14.58.25,20.9-.15-17.18-23.68,30.32-66.23,45.73-30.13,13.89,32.54-5.19,51.2-27.29,71.91-5.99,5.62-11.45,12.43-14.86,20.14-4.37,9.87,1.43,8.08,3.67,16.61,6.26-2.19,24.14-11.84,29.62-4.68-7.31-14.06,7.28-22.98,14.1-35.23,8.93-16.03,20.34-29.52,21.37-48.37s-3.47-52.31-22.17-61.6c-17.69-8.8-38.67,6.1-50.85,18.07-14.29,14.04-17.11,30.21-20.22,53.44Z"/>
        <path class="cls-1" d="m401.01,392.91c-6.68-4.72-15.42-.37-20.82,4.87-7.57,7.35-3.61,12.09,4.51,16.28,16.27,8.4,32.32-15.11,16.31-25.03"/>
      </g>
    </g>
  </g>
</svg>