<?xml version="1.0" encoding="UTF-8"?>
<svg id="Layer_2" data-name="Layer 2" xmlns="http://www.w3.org/2000/svg" viewBox="0 0 171.66 227.1">
  <defs>
    <style>
      .cls-1 {
        fill: #2a3c24;
      }

      .cls-2 {
        fill: #99785f;
      }

      .cls-3 {
        fill: #826755;
      }

      .cls-4 {
        fill: #fcf4d4;
      }

      .cls-5 {
        fill: none;
      }
    </style>
  </defs>
  <g id="Layer_1-2" data-name="Layer 1">
    <g>
      <path class="cls-2" d="m1.78,64.29c0-.45-.04-.77-.15-1.19-.08-.3.09-.79-.17-1,.37.03.75-.04,1.12,0,.31.04.47.17.78.21.35.04.47.1.79.2.39.12.79.12,1.2.18.22.04.37.18.59.22.13.02.27-.04.4-.02.23.04.4.18.64.22.21.04.44-.03.65,0,1.13.17,2.26.5,3.41.59,1.21.1,2.41.1,3.6.34.61.12,1.35.22,1.97.25.74.04,1.43.15,2.16.18,1.52.07,3.03.62,4.55.6s2.91.48,4.37.6c2.6.2,5.15.87,7.74,1.19,1.03.12,2.04.37,3.06.54.53.09,1.05.16,1.58.25.6.1,1.23.1,1.83.21.48.09.95.13,1.43.22s.92.11,1.39.2c.96.18,1.9.47,2.86.55.91.08,1.8.33,2.69.57,1.04.28,2.09.45,3.14.66.89.18,1.76.44,2.66.54.55.06.99.35,1.53.4.58.05,1.18.13,1.76.21.92.13,1.92.35,2.84.58.86.22,1.74.55,2.61.6.47.02.79.12,1.23.2.24.04.5-.06.75-.02.26.04.47.19.74.22.82.09,1.61.29,2.42.38.35.04.64.18.99.2.31.02.68-.07.98-.01.45.08.82.16,1.28.2.24.02.42.12.65.16.28.05.55,0,.83.06.79.14,1.53.39,2.33.53.86.15,1.71.27,2.57.43.79.15,1.65.3,2.41.55.71.23,1.44.47,2.17.65.77.18,1.6.28,2.37.39s1.55.4,2.37.4c.39,0,.63.06.99.15.33.09.65.02.99.04.36.02.63.19.99.21.46.03.76.04,1.19.15.72.18,1.46.21,2.17.4.33.09.65.02.99.04.42.02.75.2,1.18.2.38,0,.47.13.78.21.19.05.42-.07.61-.02.1.02.16.15.23.16.39.08.75.1,1.14.2s.79-.01,1.19.09c.36.09.6.13.99.15.36.02.63.19.99.21.66.03,1.31.25,1.98.39.5.1,1.16.2,1.38.78.17.44.44,1.66.05,2.04-.35.35-1.47.14-1.93.14-.36,0-.72,0-1.09,0-.41,0-.61-.15-.98-.2s-.63-.06-.99-.15c-.34-.09-.66.03-.99-.03-.35-.06-.62-.17-.98-.2-.48-.04-.95-.14-1.43-.19-.53-.05-1.07-.26-1.58-.36s-.98-.12-1.48-.24c-1.09-.25-2.17-.26-3.26-.44s-2.13-.41-3.21-.57c-1.21-.18-2.45-.39-3.65-.62-1.07-.2-2.15-.25-3.2-.5-1.32-.31-2.69-.43-4.02-.66-1.01-.17-1.99-.33-3-.57-.56-.14-1.07-.16-1.63-.24-.61-.09-1.22-.3-1.83-.36-.91-.1-1.74-.27-2.64-.49-.47-.11-1.03-.26-1.51-.3-.53-.05-1.05-.15-1.57-.19-.42-.03-.73-.11-1.14-.25-.35-.11-.64-.11-.99-.19-.8-.2-1.65-.42-2.48-.53-.71-.09-1.38-.22-2.07-.42-.77-.22-1.59-.24-2.37-.43-.72-.18-1.45-.32-2.16-.51-.38-.1-.81-.19-1.19-.25s-.79-.14-1.19-.19c-.59-.07-1.24-.21-1.77-.39-.96-.33-1.87-.41-2.86-.58-.42-.07-.84-.1-1.26-.17s-.78-.18-1.19-.25c-.88-.15-1.73-.37-2.6-.59s-1.87-.22-2.78-.38-1.75-.28-2.57-.6c-.44-.17-.74-.11-1.19-.19-.4-.07-.8-.27-1.18-.36-.92-.22-1.87-.31-2.8-.48-.78-.14-1.54-.26-2.32-.4-.97-.17-1.94-.48-2.93-.55-.86-.06-1.71-.32-2.57-.4-.8-.07-1.6-.31-2.42-.4-.72-.08-1.45-.28-2.18-.4-.36-.06-.72-.12-1.08-.19-.18-.03-.32-.11-.49-.16-.29-.08-.54,0-.83-.03-.71-.07-1.42-.38-2.13-.41s-1.46-.22-2.17-.4c-.36-.09-.71-.16-1.09-.19s-.7-.18-1.09-.2c-.33-.02-.67.05-.99,0-.38-.04-.57-.2-.98-.2-.69,0-1.29-.37-1.97-.4-.18,0-.42.06-.6.01s-.2-.17-.37-.22c-.11-.03-.31.01-.41.01-.33,0-.49-.07-.79-.15-.33-.09-.66.02-.99-.03-.19-.03-.31-.16-.49-.19-.17-.03-.33.02-.49,0-.75-.12-1.39-.39-.79-.01Z"/>
      <path class="cls-3" d="m35.36,174.26c.2.11.48.32.69.39.16.05.31.02.47.07.15.05.15.19.33.22.34.06.65-.16.97-.14.37.02.77.12,1.17.12.35,0,.69.03,1.02-.05.25-.06.46-.17.8-.17.75,0,1.49,0,2.24,0,.32,0,.64,0,.96,0,.34,0,.55-.12.8-.17.69-.15,1.48-.01,2.19-.05.37-.02.61-.17.96-.23.33-.06.73.01,1.07.01.36,0,.71,0,1.07,0,.14,0,.3.02.43,0,.21-.02.33-.15.47-.18.65-.14,1.42-.05,2.09-.05.73,0,1.22-.22,1.92-.22s1.33-.23,2.03-.22c.31,0,.62.04.91-.05.1-.03.22-.15.36-.18.24-.06.53.08.77.02.29-.07.38-.22.73-.23.17,0,.38.06.55.01.12-.03.17-.16.25-.18.33-.08.67-.04,1.02-.05.47,0,.71-.06.62.53-.02.15-.17.17-.21.34-.03.15.06.32.02.47-.04.17-.17.19-.21.34-.04.18.02.35,0,.53-.07.41-.23.66-.22,1.1,0,.14.02.32,0,.45-.02.22-.14.34-.17.49-.29,1.37-.56,2.62-1.06,3.93-.44,1.16-1.06,2.27-1.71,3.36s-1.48,1.97-2.28,2.94c-.78.95-1.7,1.81-2.69,2.53-.52.38-.91.82-1.45,1.16-.21.13-.41.32-.64.45-.26.14-.59.27-.85.43-1.19.73-2.55.99-3.85,1.32-.22.06-.39.18-.69.17-.33,0-.74-.07-1.07-.01-.44.08-.56.28-1.02.18-.05,0-.16-.16-.25-.18-.19-.05-.45,0-.65.01-1.43.02-2.52-.63-3.57-1.6-1.22-1.12-2.19-2.36-2.89-3.87-.31-.68-.58-1.49-.59-2.26,0-.47-.17-.68-.22-1.1-.04-.36.08-.75.02-1.11-.09-.5-.23-.79-.22-1.33,0-.37,0-.74,0-1.1v-2.54c0-.4,0-.81,0-1.21,0-.44-.21-.8-.2-1.2,0-.13.18-.19.21-.34.04-.17,0-.5-.01-.67,0-.46.03-.71-.43-.88Z"/>
      <path class="cls-4" d="m0,63.1c.37.05.72.37,1.03.54.41.22.83.34,1.24.54.84.42,1.52,1.11,2.27,1.69.78.61,1.74,1.03,2.49,1.65s1.54,1.18,2.21,1.95c.72.82,1.39,1.62,2.22,2.32.89.74,1.56,1.61,2.47,2.3,1.73,1.31,2.99,2.97,4.54,4.53.41.41.8.88,1.2,1.28.47.47,1.01.86,1.43,1.39.27.34.59.62.83.97.32.48.64,1.01.98,1.47.14.19.33.29.46.51.14.24.27.46.42.7.28.45.54,1.12.91,1.5.17.18.36.27.52.47.18.22.32.46.47.7.32.52.66.95,1.07,1.38.37.39.67.9.91,1.38.27.56.64,1.07.94,1.62.28.51.52,1.04.84,1.54.34.54.56,1.16.91,1.67.75,1.12,1.35,2.34,2.05,3.51.65,1.1,1.35,2.18,1.91,3.32.28.57.58,1.12.87,1.67.31.58.47,1.25.79,1.84.28.54.48,1.08.74,1.63.3.62.67,1.17.99,1.76s.46,1.22.78,1.79c.29.52.63,1.04.89,1.56.59,1.19,1.11,2.41,1.68,3.61.25.53.48,1.21.64,1.78.18.66.45,1.29.69,1.93.46,1.25.92,2.52,1.43,3.75s.95,2.43,1.43,3.64c.52,1.3.64,2.72,1.13,4.03.94,2.52,1.52,5.16,2.23,7.75.38,1.38.71,2.75,1.01,4.15.3,1.41.79,2.77,1.01,4.19.11.69.25,1.4.39,2.08s.21,1.41.33,2.12c.06.36-.03.72,0,1.09.04.41.2.75.22,1.16.01.35-.02.7-.01,1.05,0,.46.16.84.21,1.29.08.71,0,1.37.14,2.07.17.82-.07,1.7.03,2.52.04.29.19.54.22.83.03.33-.01.69-.01,1.01,0,.71-.02,1.43,0,2.14s.2,1.36.2,2.09c0,.59.08,1.23.01,1.81-.04.28-.18.53-.22.81s.01.64.01.92c0,.67,0,1.35,0,2.02,0,.33.03.68,0,1-.02.27-.12.42-.19.67-.13.55-.02,1.27-.02,1.84,0,.58-.15,1.02-.21,1.58s.04,1.16.01,1.73c-.02.49-.2.87-.2,1.38,0,.47.07,1.03-.04,1.48-.07.27-.15.39-.16.69,0,.22.06.49.01.7-.04.19-.17.28-.22.48-.06.25.04.54,0,.8-.09.47-.26.92-.36,1.38-.05.23,0,.46-.06.69-.08.29-.16.46-.15.79.01.46-.11.94-.19,1.38-.04.25-.18.44-.22.69s-.03.47-.09.69c-.22.84-.45,1.79-.5,2.7.33-.24.22-.86.31-1.21.13-.52.01-1.06.12-1.58.05-.25.17-.42.19-.69s.04-.44.09-.69c.05-.23.14-.48.2-.69.06-.22.06-.44.09-.69.25-1.99,1.35-3.96,2.03-5.83.76-2.09,1.97-4.07,3.02-6.02.56-1.04,1.12-2.06,1.68-3.11s.9-2.19,1.53-3.16c.57-.87,1.07-1.9,1.53-2.82.5-1.01,1.01-2.01,1.6-2.96.6-.96,1.24-1.91,1.85-2.86s1.21-1.9,1.93-2.76c.36-.43.55-.98.91-1.39s.7-.85,1.01-1.29c.15-.22.31-.29.5-.48.23-.24.35-.55.59-.8.43-.46.78-1.01,1.19-1.49,1.2-1.42,2.48-2.89,3.94-4.09.74-.61,1.48-1.12,2.28-1.66.75-.5,1.37-1.19,2.06-1.75.75-.61,1.69-1.23,2.53-1.74.33-.2.69-.36,1.04-.53.38-.19.68-.48,1.02-.74.39-.31.85-.52,1.24-.84s.76-.63,1.18-.89c.81-.5,1.73-.7,2.55-1.11s1.63-.8,2.49-1.01,1.53-.64,2.37-.9c.49-.15.99-.37,1.48-.45.21-.04.37-.1.54-.15.28-.08.56,0,.84-.06.97-.19,1.96-.56,2.96-.57.52,0,.94-.2,1.48-.2s1.06.03,1.58,0c.47-.03.88-.3,1.38-.21.3.05.48.2.79.21.26.01.53,0,.79,0,.46,0,1.02.09,1.46-.02.18-.04.28-.16.51-.19.28-.03.61,0,.89,0,.96,0,1.99-.44,2.97-.2.22.05.36.16.58.21.21.05.48-.01.7,0,.72.01.61-.24.4-.8-.12-.32-.34-.64-.41-.97-.03-.13.05-.29.02-.42-.02-.1-.15-.17-.16-.23-.06-.24-.03-.47-.09-.7-.22-.82-.64-1.84-.97-2.71-.37-.99-.77-1.97-1.14-2.96-.79-2.13-1.47-4.29-2.24-6.42-.43-1.18-.91-2.36-1.34-3.55-.46-1.27-.76-2.64-1.09-3.96-.37-1.49-.64-3-.88-4.49-.1-.62-.2-1.26-.35-1.87-.19-.78-.22-1.56-.4-2.33-.14-.61-.14-1.27-.24-1.88-.04-.25-.17-.44-.21-.68-.05-.29.05-.6,0-.89-.05-.25-.17-.42-.19-.69s0-.53,0-.79c0-.53.1-1.17-.02-1.68s-.18-.92-.18-1.48c0-.49.1-1.1.01-1.58-.04-.25-.19-.44-.22-.69-.03-.22,0-.47,0-.69,0-.51.08-1.09-.04-1.58-.08-.32-.16-.44-.15-.79,0-.21.05-.5,0-.7s-.17-.29-.22-.48c-.07-.28.05-.61,0-.9-.05-.25-.17-.42-.19-.69s0-.53,0-.79c0-.53-.2-.95-.2-1.48,0-.49,0-.99,0-1.48,0-.23.01-.46,0-.69-.02-.35-.14-.39-.21-.68-.1-.41.02-.83-.18-1.2-.18-.34-.47-.6-.6-.98-.11-.31.01-.3-.24-.55-.15-.15-.23-.17-.42-.27-.39-.2-.76-.33-1.21-.37s-.81-.15-1.24-.24c-.18-.04-.27-.14-.54-.16s-.47-.04-.69-.1c-.24-.06-.42-.06-.69-.09-.25-.03-.44-.17-.69-.22-.22-.04-.47.02-.69.01-.35-.02-.39-.15-.68-.21-.23-.05-.46-.02-.7-.09s-.46-.18-.69-.25c-.53-.16-1.06-.31-1.58-.44-1.03-.25-2.04-.55-3.06-.78-.23-.05-.46.03-.69,0-.3-.05-.48-.2-.79-.21-.52-.03-.98-.1-1.48-.19s-.92-.21-1.48-.2-1.02-.21-1.58-.2c-.52,0-.89-.18-1.38-.2-.25-.01-.54.06-.79.01-.29-.05-.49-.2-.79-.21-.53-.03-.97-.12-1.48-.19-.25-.04-.44-.17-.69-.21-.28-.05-.6.05-.89.02-.25-.03-.44-.17-.69-.22s-.54.03-.79.01c-.28-.02-.43-.12-.69-.19s-.53.02-.79,0c-.28-.04-.51-.18-.79-.21-.22-.03-.47.06-.69.02-.25-.04-.44-.18-.69-.22-.33-.05-.71,0-1.04,0-.52,0-.91-.2-1.43-.2-.58,0-1.03-.17-1.58-.2-.48-.03-1.01.09-1.48-.01-.26-.06-.42-.16-.68-.19-.36-.03-.74.06-1.1.01-.25-.03-.44-.17-.69-.22s-.54.03-.79.01c-.28-.02-.43-.12-.69-.19s-.53.02-.79,0c-1.09-.14-2.12-.6-3.26-.6-.49,0-.89-.17-1.38-.19-.31-.01-.5-.16-.79-.21-.25-.04-.54.07-.79.02-.3-.05-.48-.2-.79-.21-.27-.01-.43-.02-.69-.09-.49-.13-1.07-.29-1.58-.3s-.98-.11-1.48-.14-.88-.23-1.38-.25c-.28-.01-.43-.13-.69-.19-.23-.05-.46,0-.69-.06s-.46-.19-.69-.25c-.32-.09-.57-.03-.89-.09-.25-.04-.44-.19-.69-.22s-.45.03-.69-.04c-.3-.08-.46-.13-.79-.15-.3-.01-.5-.17-.79-.21-.46-.08-.82-.11-1.28-.2-.54-.11-1.02-.35-1.58-.38-1.05-.06-2.05-.51-3.06-.75-.26-.06-.45-.05-.69-.16-.28-.12-.36-.25-.69-.28-.52-.05-1.06-.27-1.57-.39-1.08-.25-2.11-.68-3.17-.95-.28-.07-.52.01-.79-.03-.25-.04-.44-.19-.69-.22-.22-.03-.47.06-.69.02-.4-.07-.67-.21-1.1-.21-.53,0-.95-.2-1.47-.19-.22,0-.47.03-.69,0-.32-.04-.56-.19-.89-.21-.49-.02-.91-.17-1.38-.2-.23-.01-.45.03-.67-.01-.26-.05-.38-.18-.71-.18-.52,0-.9-.03-1.38-.15-.26-.07-.52-.05-.79-.04-.33,0-.49-.08-.79-.15-.49-.13-.99-.11-1.48-.24-.55-.15-1-.18-1.58-.2-.52-.02-.94-.2-1.48-.2-.5,0-1.05.06-1.54-.04-.18-.04-.28-.14-.54-.16-.23-.01-.47.03-.7,0s-.38-.15-.58-.16c-.1,0-.18.13-.3.12-.18,0-.31-.14-.5-.17-.21-.04-.47.02-.69.01-.3,0-.42-.09-.69-.16s-.52-.05-.79-.04c-.33,0-.49-.08-.79-.15-.27-.07-.51-.03-.79-.04s-.44-.14-.69-.19c-.48-.09-1,.05-1.49-.01-.43-.06-.7-.21-1.18-.2s-1.13.12-1.55-.03c-.01-.05-.02-.11-.03-.56Z"/>
      <path class="cls-4" d="m145.98,69.03l.05-.18c.14.03.81,1.11.99,1.36.18.26.36.53.54.8.23.33.5.71.78,1,.16.17.32.18.45.37s.2.38.34.56c.17.22.37.44.54.68.45.64.85,1.26,1.2,1.93.3.58.41,1.23.79,1.78s.82,1.06,1.18,1.62c.8,1.21,1.48,2.49,2.27,3.7,1.59,2.43,3.07,5.14,3.95,7.91.24.77.56,1.57.75,2.37.08.32.11.67.19.99.06.23.18.4.21.64.04.27-.04.48.03.75.18.7.42,1.44.56,2.16.03.14-.02.3-.02.44,0,.32.09.46.16.75.11.47-.02.95.03,1.43.05.4.16.82.22,1.22.02.13.16.15.19.3.05.2-.02.39.03.6.19.73.35,1.4.35,2.17,0,.72,0,1.45,0,2.17s.35,1.42.15,2.17-.15,1.42-.15,2.17c0,.33,0,.66,0,.99,0,.44-.18.76-.2,1.19-.02.32.05.67,0,.99-.05.38-.21.57-.2.98.02.78-.29,1.43-.41,2.17-.06.35-.11.64-.19.99-.09.39-.1.81-.18,1.2-.06.26-.18.49-.25.78-.09.36-.26.65-.36.98-.2.67-.27,1.32-.43,1.99-.18.74-.46,1.42-.55,2.17-.08.71-.26,1.47-.44,2.17s-.28,1.47-.55,2.17c-.48,1.26-.66,2.51-1.19,3.75-.25.6-.36,1.28-.64,1.94-.26.6-.61,1.25-.94,1.82s-.45,1.12-.64,1.73c-.17.56-.61,1.15-.89,1.67-.34.62-.79,1.16-1.19,1.74-.37.52-.72,1.01-1.04,1.58-.75,1.31-1.21,2.9-2.13,4.08-.19-.43-.04-1.24-.04-1.71,0-.64-.13-1.27-.29-1.88-.31-1.16-.62-2.36-1.36-3.37-.61-.82-1.25-1.64-2.05-2.31-.41-.34-.77-.73-1.23-1.04-.22-.15-.44-.36-.64-.5-.28-.19-.6-.24-.9-.44-1.04-.67-2.25-1.17-3.4-1.67-.6-.26-1.15-.5-1.78-.7-.31-.1-.62-.24-.94-.3-.35-.07-.69,0-1.03-.09-1.23-.31-2.41-.77-3.65-.95s-2.62,0-3.85,0c-1.34,0-2.59.13-3.91.19-.35.02-.64.18-.99.21s-.59,0-.93.09c-.68.17-1.37,0-2.06.09-1.4.19-2.81.56-4.15.95s-2.83.77-4.17,1.38c-1.35.61-2.76,1.07-4.04,1.83-1.2.71-2.48,1.26-3.65,2.01-1.04.66-2.03,1.59-2.76,2.52-.88,1.13-1.94,2.13-2.97,3.17-1.1,1.1-2.13,2.26-3.23,3.29-.8.74-1.91,1.28-2.88,1.8-.49.26-.88.61-1.34.88-.62.36-1.13.58-1.83.74-.34.08-.66.28-.99.36-.35.08-.66.09-1,.24-.24.11-.48.23-.68.39-.23.18-.35.44-.65.53-.23-.68.09-1.45.16-2.1.08-.72.27-1.45.38-2.17.02-.15.13-.25.16-.4.05-.21,0-.38.03-.58.06-.38.15-.83.25-1.19.2-.72.37-1.45.54-2.17.16-.65.42-1.3.4-1.98-.01-.39.14-.62.21-.99.03-.19-.02-.4-.01-.59.01-.25.1-.37.16-.59.09-.36-.01-.73.06-1.09.08-.4.18-.66.18-1.09,0-.33,0-.66,0-.99,0-.44.18-.76.2-1.19.04-.7-.02-1.31.15-1.98.17-.66.04-1.48.04-2.17,0-.33,0-.66,0-.99,0-.39-.14-.62-.21-.99-.12-.66.01-1.49.01-2.17,0-.35.05-.74-.02-1.09-.08-.4-.19-.65-.18-1.09,0-.36-.13-.48-.21-.78-.03-.11.01-.29.01-.41,0-.33-.07-.49-.15-.79-.09-.33.02-.66-.03-.99-.03-.19-.16-.31-.19-.49-.03-.17.02-.33,0-.49-.12-.74-.49-1.44-.61-2.17-.48-2.96-1.5-5.8-2.41-8.69-.24-.75-.48-1.45-.8-2.17-.31-.73-.64-1.44-.98-2.17-.37-.78-.64-1.6-.99-2.39-.4-.9-.87-1.73-1.24-2.64-.16-.41-.39-.74-.64-1.1s-.4-.73-.59-1.14c-.39-.84-.95-1.63-1.39-2.46-.21-.4-.4-.76-.64-1.14-.22-.35-.54-.63-.75-.98-.24-.39-.31-.81-.58-1.19s-.54-.83-.83-1.23c-.32-.43-.51-.91-.79-1.35-.18-.27-.41-.51-.59-.78-.51-.75-.96-1.52-1.46-2.28-.47-.71-.97-1.37-1.46-2.07s-.86-1.54-1.44-2.13c-.5-.51-.88-1.11-1.37-1.62-.56-.6-1.16-1.28-1.59-1.98s-.9-1.31-1.38-1.93c-.24-.31-.55-.61-.79-.93-.12-.16-.23-.34-.34-.5-.18-.24-.33-.3-.52-.51-.31-.33-.57-.73-.91-1.07s-.57-.63-.83-.99c-.24-.33-.49-.66-.74-.99-.14-.19-.36-.32-.51-.49-.2-.22-.27-.47-.43-.7-.21-.29-.48-.47-.7-.78-.23-.35-.5-.65-.75-.99-.51-.69-1-1.31-1.53-1.98-.93-1.18-2.11-2.24-3-3.45-.44-.59-.96-1.12-1.43-1.67s-.78-1.13-1.28-1.64c-.38-.38-2.16-2.16-1.45-2.53.21-.11.74-.18,1-.19.36-.02.73,0,1.09,0,.69,0,1.44-.06,2.07.1,2.89.74,5.94,1.49,9.09,1.48.86,0,1.6.21,2.47.2.47,0,.83.16,1.29.21s.95-.01,1.42-.01c.44,0,.91-.06,1.34-.01s.76.2,1.19.21c.88.02,1.64.2,2.52.2,1.6,0,3.19,0,4.79,0,.8,0,1.5.21,2.29.2.49,0,.84.18,1.31.2s.91-.07,1.34.04c.68.18,1.44.31,2.16.35.47.02.87.19,1.34.21.6.03,1.06.04,1.64.15.76.15,1.58,0,2.36.04,1,.04,1.96.36,2.97.39.44.01.8.18,1.23.21.5.03.93-.02,1.42.09.41.09.83.17,1.25.25.18.03.31.03.49.04.39.03.7.15,1.08.21.45.06.94-.04,1.39-.01.39.02.68.19,1.08.21.91.05,1.75.19,2.68.19.39,0,.81-.05,1.19.04.28.07.38.14.68.16.18,0,.38-.05.56-.02.74.14,1.39.41,2.16.41s1.34.2,2.07.2c.79,0,1.48.15,2.27.19.67.04,1.32.3,1.98.41.16.03.34-.05.5-.02.13.03.24.14.33.16.35.1.77.04,1.14.04.34,0,.66.03.99.05.35.03.63-.1.99,0,.71.19,1.42.16,2.17.15.43,0,.69.1,1.09.18.34.07.74.02,1.09.02.33,0,.66,0,.99,0,.12,0,.28-.02.4,0,.27.04.34.16.58.21.12.03.29-.02.41-.02.26.01.36.1.59.16.33.09.66-.02.99.03.39.07.57.21.99.21s.68.03,1.03.15c.33.11.6.23.94.25.38.02.66-.15.99-.17.25-.01.34.15.59.13.07,0,.29-.15.4-.18.33-.07.82.2,1.04-.15.05.05.24.09.29.13.24-.38,1.06-.11,1.44-.16.46-.06.76-.2,1.28-.2.77,0,2.18-.29,2.72.36.05-.04.24-.09.29-.13.11.13.47.34.64.37s.35-.05.51-.02c.14.02.24.14.33.16.54.12,1.35.12,1.89,0,.26-.06.49-.21.84-.16.28.04.42.14.68.21.55.13.76.2,1.49,1.58Z"/>
      <path class="cls-4" d="m4.94,63.1c-.07-.26.13-.56.39-.61.28-.05.36.17.59.22.2.05.39-.02.6.03.15.04.23.13.4.16.3.05.67-.01.98-.01.74,0,1.48-.2,2.19-.35.79-.16,1.57-.31,2.36-.49,1.6-.36,3.18-.87,4.74-1.33,1.41-.42,2.96-.4,4.34-.94s2.89-1.01,4.16-1.83c.61-.39,1.2-.75,1.78-1.19.33-.25.66-.48.99-.74.29-.22.49-.46.78-.68.62-.48,1.29-1.13,1.79-1.74s1.15-1.1,1.77-1.59c.31-.25.53-.36.79-.68s.52-.48.8-.74.4-.57.69-.83c.3-.27.47-.55.74-.86.43-.51.77-1.04,1.14-1.62.43-.68.95-1.29,1.38-1.98.73-1.16,1.36-2.3,1.93-3.55.29-.64.41-1.34.7-1.99s.58-1.31.78-1.98c.37-1.21.76-2.47.74-3.75,0-.31.08-.5.15-.79.08-.32.04-.66.04-.99,0-.7.2-1.28.2-1.98,0-.64.21-1.16.2-1.78-.01-.67.2-1.2.2-1.88s.2-1.21.2-1.88c0-.54-.16-1.37,0-1.89.21-.75.88,0,1.24.26.15.11.34.18.49.29.28.21.54.29.84.44,1.12.55,2.3.85,3.46,1.31,1.24.5,2.48.88,3.75,1.26.59.18,1.17.45,1.77.59.8.19,1.61.29,2.43.45.7.14,1.42.2,2.12.34s1.36.22,2.07.29,1.51.26,2.25.38c.65.11,1.26.2,1.88.37.4.11.8-.04,1.19.03.28.06.5.18.79.21.79.08,1.58.36,2.38.4.34.02.66-.05.98.04.29.07.48.16.79.15.69-.01,1.28.19,1.98.2s1.28.2,1.97.2c.77,0,1.41.2,2.18.2.33,0,.66-.02.99,0,.3.02.51.14.79.21.64.15,1.29.28,1.93.43.21.05.48.21.74.25.31.06.59.18.89.25.33.09.66,0,.99.09s.66.22.99.31c.55.14,1.03.15,1.58.29.65.17,1.28.36,1.98.35.28,0,.61-.05.89,0,.32.05.56.19.89.21.64.03,1.36-.12,1.98.04s1.14.15,1.78.15c.27,0,.64-.07.9,0,.36.09.47.21.88.2.3,0,.53.03.79.1s.54.03.8.09c.21.05.45.16.66.23.28.09.61.28.91.38.4.14.96.16,1.33.43.4.3.63.72.83,1.14.07.14.13.45.24.55.17.17.57.15.76.23.52.23.62,1.08.74,1.58.05.21.16.47.2.64.07.31,0,.63.09.94.16.61.36,1.34.35,1.98,0,.24-.07.57,0,.8.08.33.2.37.21.78,0,.62.21,1.29.4,1.88.37,1.2.71,2.37,1.19,3.56s.89,2.21,1.17,3.36c.14.59.19,1.19.32,1.78.06.31.11.56.1.89,0,.42.13.69.2,1.09.03.15,0,.3.04.45.02.07.14.13.16.23.07.28-.06.6,0,.88s.19.36.18.71c0,.11-.02.28,0,.4.03.23.15.33.19.51.11.57-.08,1.19.03,1.76.07.34.18.53.18.89,0,.33,0,.66,0,.99,0,.67-.2,1.22-.2,1.88s0,1.25,0,1.88c0,.57.14,1.34,0,1.88-.07.27-.17.39-.21.68s0,.64,0,.93c.18-.96-2.21-1.41-2.77-1.53-.28-.06-.59.05-.87,0-.24-.05-.4-.18-.71-.18-.4,0-.62-.13-.99-.21-.42-.09-.85.02-1.28-.09-.37-.09-.7-.11-1.08-.1-.47,0-.75-.14-1.18-.21-.35-.06-.74.03-1.09.01-.46-.02-.87-.18-1.33-.2-.42-.02-.86,0-1.29,0-.45,0-.8-.11-1.23-.18-.41-.07-.82.01-1.23-.06-.57-.1-1.12-.2-1.68-.31-.37-.07-.73.02-1.09-.03-.5-.07-.86-.22-1.38-.21-.56,0-.94-.14-1.48-.21-.2-.03-.45.02-.65.02-.34,0-.52-.09-.83-.16-.97-.2-1.99-.13-2.96-.29-1.12-.18-2.23-.32-3.37-.35-.88-.02-1.77-.3-2.65-.41-.56-.07-1.07-.05-1.63-.14s-1.18,0-1.78-.04c-.49-.02-.93-.2-1.43-.21-.56-.01-1.12.05-1.68-.04-1.17-.19-2.36-.15-3.56-.15-.56,0-1.13.05-1.68-.04-.49-.09-.91-.16-1.43-.15s-1.03.05-1.53,0c-.61-.05-1.1-.21-1.73-.21-.95,0-1.97.1-2.91,0-.55-.05-1.01-.22-1.58-.21-.52,0-.93-.14-1.43-.21-.44-.06-.94.03-1.38.01s-.83-.18-1.26-.21c-.41-.03-.85.07-1.26.02-.57-.07-1.13-.25-1.68-.36-.4-.08-.81.02-1.21-.06s-.73-.19-1.16-.18c-.97.02-1.92-.25-2.87-.4-.83-.13-1.73-.38-2.57-.39-.39,0-.65-.1-1.03-.18-.49-.09-.95-.05-1.43-.17-.44-.11-.89,0-1.33-.09-.34-.06-.62-.16-.98-.15-.49.01-.79-.12-1.23-.21-.42-.08-1,.01-1.42.01-1.6,0-3.11-.4-4.7-.4-.78,0-1.46-.2-2.24-.2-.87,0-1.64-.2-2.5-.2-.78,0-1.55,0-2.33,0-.83,0-1.58-.19-2.41-.2-.45,0-.73.13-1.14.21-.36.06-.82-.01-1.19-.01-.33,0-.66,0-.99,0-.45,0-.75.18-1.18.2-.39.02-.8,0-1.19,0-.42,0-.7.16-1.1.2s-.87-.1-1.27-.02c-.42.09-.84.2-1.26.3-1.09.26-2.23.59-3.28.97-.68.25-1.33.38-1.98.71-.79.4-1.58.79.19.4Z"/>
      <path class="cls-2" d="m71.16,150.52c0-.27-.13-.9.15-.97.2.5.04,1.32.04,1.86,0,.27-.07.64-.01.9.08.31.21.4.21.78,0,.33-.13.46-.18.71-.06.3-.02.66-.02.97,0,.63,0,1.25,0,1.88s0,1.18-.15,1.78-.07,1.28-.24,1.88c-.09.31-.19.43-.21.78,0,.15.05.36.01.51-.02.1-.15.17-.16.23-.07.31.04.65-.03.95-.07.28-.26.37-.21.72-.05-.28.42-.71.59-.92.33-.4.71-.63,1.15-.84.67-.33,1.39-.55,2.07-.89s1.37-.59,1.93-1.14c.48-.47,1.03-.83,1.58-1.19.23-.15.61-.24.76-.53.18-.36.04-1.04.04-1.44,0-.42.09-.98,0-1.39-.04-.2-.17-.29-.22-.48-.05-.2,0-.49.01-.7,0-.95.06-1.92,0-2.86-.02-.45-.21-.81-.2-1.28s-.03-.99,0-1.48c.02-.3.16-.5.21-.79.04-.24-.01-.55-.01-.79,0-.49,0-.99,0-1.48,0-.54.2-.85.2-1.38s.11-1.18-.04-1.66c-.11.03-.26.34-.35.48-.13.2-.3.46-.45.65-.27.35-.68.59-.94.94-.54.73-1.17,1.36-1.83,2.01s-1.35,1.27-1.98,1.97c-.36.41-.76.74-1.14,1.14-.35.37-.92.75-.59,1.09Z"/>
      <path class="cls-2" d="m74.31,28.22c-.06-.25.11-.27.15-.44.06-.22.04-.42.04-.65,0-.49.2-.88.2-1.38-.01-1.09.04-2.18,0-3.26-.02-.62-.2-1.14-.2-1.78s0-1.22,0-1.83c0-.64-.21-1.18-.2-1.81,0-.54.02-1.05-.1-1.57s-.1-1.09-.1-1.66c0-.28.02-.56,0-.83-.02-.31-.16-.5-.22-.79-.07-.39,0-.88,0-1.28,0-.5-.19-.89-.2-1.38-.02-.89,0-1.78,0-2.67,0-.43,0-.86,0-1.28,0-.47.18-.83.2-1.28.05-.84.1-1.59.29-2.37.05-.22.15-.76.33-.94.29-.31.96-.3,1.35-.25.32.05.31-.05.4.29.04.16,0,.44-.03.6-.11.49-.18.86-.18,1.38s-.03.97-.15,1.48c-.17.71.06,1.46-.09,2.18s-.11,1.34-.15,2.07c-.03.66-.21,1.25-.2,1.93,0,1.13,0,2.27,0,3.4v8.5c0,.49,0,.99,0,1.48s.18.81.2,1.28c.02.44.11,1.07,0,1.49-.06.25-.18.29-.21.58-.02.23.04.46-.01.68-.02.1-.14.43-.18.52-.07.16-.18.4-.4.41-.27.02-.99-.53-.59-.81Z"/>
      <path class="cls-2" d="m102.32,64.71c0,.31-.01.4-.14.65-.1.19-.31.19-.26.47.02-.7,0-1.41,0-2.11,0-.39.06-.63.15-.99.13-.51.02-1.1.04-1.63.01-.41.18-.74.21-1.14.02-.33,0-.66,0-.99v-11.75c0-.65-.12-1.43-.01-2.07.07-.4.21-.65.21-1.09s0-.86,0-1.28c0-.33-.02-.66,0-.99.02-.36.19-.63.21-.99.04-.79-.05-1.58,0-2.37.02-.36.19-.63.21-.99.02-.39,0-.79,0-1.19,0-.31-.06-.69-.01-.99.08-.43.21-.73.21-1.19,0-.39.05-.81-.04-1.19-.09-.36-.16-.6-.15-.99,0-.79,0-1.58,0-2.37,0-.65-.04-1.32,0-1.98.02-.43.21-.74.2-1.19,0-.13,0-.26,0-.39,0-.3.1-.42.15-.64.15-.66.12-1.37.23-2.04.08-.45.61-1.22,1.15-1.04.65.22.43,1.26.44,1.74,0,.42-.14.6-.21.99-.06.36.01.8.01,1.17,0,1.65-.25,3.57.15,5.15.15.59.16,1.56.05,2.17-.09.49-.21.87-.21,1.39,0,.39.05.81-.04,1.19-.19.72-.11,1.41-.15,2.17-.02.36-.19.63-.21.99-.02.39,0,.79,0,1.19,0,.72,0,1.45,0,2.17,0,.8-.2,1.47-.2,2.27,0,1.44.2,3.08-.15,4.44-.19.72-.04,1.62-.04,2.37v2.57c0,.77-.1,1.61,0,2.37.05.37.21.58.2.98,0,.46,0,.92,0,1.38,0,.39,0,.79,0,1.18,0,.43.15.59.2.98.05.35.05.84,0,1.19-.06.43-.21.69-.2,1.18,0,.38.03.78-.04,1.14-.02.08-.14.21-.16.33-.04.21.09.46-.03.66-.47.76-1.52-.23-1.74-.95Z"/>
      <path class="cls-1" d="m74.67,1.59c.3-.41.91-.78,1.37-1.04.53-.31,1.27-.58,1.89-.54.32.02.41.14.68.21.31.07.68-.06,1-.01.63.09,1.1.35,1.61.75.88.69,1.8,1.25,2.72,1.88s1.94.96,2.97,1.29c.69.22,1.25.24,1.98.25.12,0,.28.02.4,0,.18-.02.31-.13.43-.16.08-.02.28-.02.35-.04.14-.05.38-.15.51-.18,1.06-.27,2.09-.69,3.04-1.25.5-.3.97-.67,1.49-.92.49-.23,1-.43,1.48-.61.51-.19,1.08-.42,1.57-.59.31-.11.61-.12.9-.2.34-.1.5-.2.88-.2.64,0,1.31.29,1.9.57.28.13.61.21.87.37.3.18.45.44.78.6.53.26,1.09.43,1.59.79.27.2.46.33.74.49.25.14.57.35.77.56-.48-.03-.79-.22-1.21-.11-.51.13-1.06.16-1.56.32-.71.23-1.4.78-1.94,1.31-.59.58-.91,1.41-1.36,2.1-.56.86-1.23,1.65-1.8,2.49-.9,1.34-1.88,3.06-3.31,3.85-.42.24-.89.62-1.38.71-.22.04-.47-.02-.69-.01-.36,0-.55.15-.89.21-.48.09-.76-.16-1.18-.21-.26-.03-.49.03-.75-.04s-.39-.16-.74-.15c-.51,0-.79-.2-1.28-.2-.53,0-1.05,0-1.58,0-.42,0-.99-.11-1.39-.01-.26.06-.28.18-.58.21s-.5.05-.79.14c-1.76.57-3.37,1.64-4.9,2.67-.66.44-1.3,1.03-1.82,1.63-.28.33-.55.72-.79,1.08-.15.22-.66,1.04-.99,1.02-.37-.02-.19-2.39-.19-2.79,0-.49,0-.99,0-1.48,0-.57-.2-1.01-.2-1.58.01-1.12-.15-2.35,0-3.46.03-.26.16-.34.21-.58.07-.28-.06-.61-.02-.9.05-.32.19-.56.21-.89.01-.26,0-.53,0-.79,0-.61-.18-1.1-.2-1.68s0-1.12,0-1.68c0-.64,0-1.18.15-1.78.09-.36.21-1.27-.16-1.5,0,.04,0,.08-.78.12Z"/>
      <path class="cls-1" d="m103.83,39.03c0-1.45,0-2.9,0-4.35,0-.8-.2-1.48-.2-2.27,0-.72,0-1.45,0-2.17,0-.65.12-1.45-.04-2.07-.1-.4-.14-.66-.15-1.09-.01-.37-.16-.53-.2-.88-.08-.62-.11-1.57,0-2.18.05-.3.17-.65.25-.94s.4-.61.35-.97c-.09.42.48.97.83,1.08.66.19,1.11-.17,1.73-.15.35,0,.43-.11.71-.18s.59-.02.87-.02.73.08,1,.01c.3-.07.42-.21.78-.21,1.23.03,2.47-.58,3.55-1.14,1.21-.61,2.34-1.05,3.65-1.24.51-.07,1.35-.08,1.83.05s.97.55,1.42.8c.53.29,1.01.61,1.52.92.45.28.96.51,1.34.91.46.49.55,1.06.7,1.68.09.37.21.59.2.99,0,.3-.08.71,0,1,.08.34.21.36.21.78,0,.3,0,.59,0,.89,0,.69,0,1.38,0,2.07,0,.39.14.63.21.99s-.01.82-.01,1.19c0,.66-.11,1.43.02,2.07.08.4.18.67.18,1.09,0,.36,0,.72,0,1.09,0,.16.02.34,0,.5-.03.21-.13.28-.16.43-.07.34.08.83-.19,1.08-.07-.32-.31-.47-.49-.72-.23-.33-.39-.6-.74-.84-.63-.44-1.5-.56-2.28-.55-.39,0-.82.11-1.19.19-.16.04-.27.16-.4.19-.22.05-.45,0-.67.06-.45.11-.82.28-1.28.34-.42.06-.89.2-1.29.35-1.4.54-2.83,1.19-4.24,1.83-.45.2-.74.1-1.19.19-.39.08-.62.21-1.08.2-.21,0-.49.05-.7,0-.17-.04-.26-.15-.4-.19-.4-.09-.86.01-1.27-.01-.46-.03-.77-.32-1.17-.41-.2-.04-.42-.04-.6-.09-.2-.05-.35-.1-.59-.1-.53,0-.95-.2-1.48-.2-.38,0-.59.09-.86.16-.04-.12.01-.17,1.55-.16Z"/>
      <path class="cls-2" d="m27.26,175.5c-.34.08-.37.29-.4.59-.01.13.05.28.02.41-.02.1-.15.16-.16.23-.06.28-.09.57-.14.84-.07.36-.25.72-.31,1.09-.05.28-.08.52-.14.79-.08.31-.16.5-.25.78-.17.57-.24,1.21-.38,1.79-.59,2.44-1.89,4.75-2.47,7.21-.07.3-.02.61-.09.9-.05.22-.17.33-.21.58-.07.49.23,1.11.45,1.54.54,1.07,1.39,2.01,1.93,3.11s1.08,2.1,1.43,3.26c.16.54.4,1.07.55,1.57.07.23.16.55.2.8.03.16-.03.32,0,.48.03.14.15.23.19.4s-.06.35-.02.51c.02.09.15.19.16.23.06.28,0,.55.06.83s.19.34.18.71.14.48.21.78c.07.28-.05.61,0,.9.07.34.18.53.18.89s.12.43.18.71.04.6.12.87c.07.25.03.54.09.8s.18.37.21.68c.06.57.26,1.09.4,1.68s.4,1.18.54,1.78.41,1.15.64,1.78c.76,2.09,1.95,4.22,3.51,5.78.7.7,1.43,1.36,2.26,1.88.93.58,1.77,1.29,2.72,1.83s1.96.9,2.96,1.19c1.07.31,2.22.35,3.36.64.28.07.48.16.79.15s.67-.04.99.04c.62.16,1.21.15,1.88.15.56,0,1.12,0,1.68,0,.7,0,1.29.2,1.98.2.64,0,1.16.2,1.78.2s1.25,0,1.88,0h7.31c.57,0,1.22.09,1.78,0,.32-.05.56-.19.89-.21s.66,0,.99,0c.61,0,1.14-.21,1.78-.2.35,0,.43-.11.71-.18.31-.07.65.03.97-.03.59-.12,1.18-.27,1.78-.38.15-.03.29,0,.45-.04.07-.02.12-.14.23-.16.13-.03.28.03.41.02.22-.03.28-.13.43-.16.28-.06.56,0,.84-.06.34-.07.54-.16.89-.18.62-.03,1.19-.34,1.77-.41,1.1-.12,2.22-.53,3.36-.58.33-.01.57-.17.89-.21.28-.04.6,0,.89,0,.66,0,1.32,0,1.98,0h1.68c.28,0,.61-.04.89,0,.31.04.47.17.78.21s.7-.09,1-.01c.22.05.33.18.58.21.63.08,1.34,0,1.98,0,.59,0,1.16.04,1.73-.1.21-.05.42-.09.64-.1.36-.02.47-.13.78-.2s.67.05,1-.03c.27-.07.54-.08.8-.14.16-.04.17-.16.3-.19.16-.04.33.03.49,0,.32-.07.39-.19.78-.2.54-.02,1.09-.26,1.57-.41.6-.18,1.26-.26,1.87-.41.29-.07.33-.19.71-.18.27,0,.44-.11.64-.15.3-.07.6-.02.9-.09.07-.02.12-.14.23-.16.19-.05.42.07.61.02.42-.1.81-.38,1.22-.55.56-.24.78-.49,1.26-.84.85-.64,1.69-1.26,2.61-1.83.41-.26.78-.56,1.22-.75s.93-.23,1.39-.48c.41-.23.89-.46,1.26-.72.35-.24.77-.47,1.05-.81.8-.96,1.47-2.01,2.33-2.92.33-.35.54-.74.89-1.09.31-.3.65-.6.93-.93.7-.82,1.41-1.74,1.88-2.68s.77-1.98,1.19-2.97c.42-1,.94-2.04,1.29-3.05.17-.49.32-.97.45-1.43.08-.27.13-.61.2-.9.08-.32.16-.66.19-.99.07-.6.28-1.19.4-1.78s.25-1.17.44-1.77c.17-.54.36-1.2.35-1.78,0-.31.08-.51.15-.79.09-.33-.02-.66.03-.99.07-.39.21-.57.21-.99,0-.26,0-.53,0-.79,0-.66.21-1.1.2-1.78,0-.57.21-1.14.35-1.62.07-.25-.02-.51.03-.76.04-.16.16-.17.19-.3.04-.19-.03-.39,0-.58.04-.23.14-.46.21-.68.06-.2.16-.38.21-.58.07-.31-.06-.69-.01-1s.17-.47.21-.78c.03-.26-.03-.49.04-.75.03-.09.13-.2.16-.33.04-.16-.05-.34-.02-.5.11-.63.33-1.25.41-1.88.15-1.14.36-2.32.78-3.46.18-.47.44-.99.55-1.43.05-.2.17-.44.2-.59s0-.32.04-.46c.04-.15.16-.27.19-.41.23-1.02.39-2.29.8-3.25.2-.47.43-1.04.55-1.57s.36-.88.54-1.38c.33-.92.71-1.86,1.09-2.76.09-.21.1-.48.19-.7.1-.24.22-.44.35-.69.23-.46.43-.89.69-1.33.5-.84.94-1.73,1.38-2.62.27-.55.5-1.03.74-1.59.2-.47.39-.91.59-1.36.22-.49.29-1,.39-1.49.11-.59.3-1.11.44-1.68s.28-1.02.35-1.58c.04-.29.13-.41.21-.68.08-.3.09-.59.19-.89.19-.6.22-1.2.4-1.79.14-.48.33-.87.44-1.37.14-.58.39-1.22.59-1.78.23-.62.41-1.14.59-1.73.15-.49.45-1.02.7-1.47.27-.49.42-1.11.64-1.64.45-1.09.98-2.15,1.43-3.26.09-.23.26-.37.36-.58.1-.23.12-.49.24-.75.27-.55.32-1.14.57-1.71.93-2.18,1.69-4.45,2.64-6.64.82-1.88,1.85-3.73,2.64-5.64.45-1.06.94-2.18,1.41-3.24.51-1.15.75-2.43,1.33-3.57.26-.51.45-.99.72-1.48.34-.61.63-1.25.91-1.89.48-1.1.89-2.25,1.43-3.35s1.21-2.19,1.49-3.36c.31-1.3.72-2.49,1.19-3.75.41-1.1.81-2.21,1.08-3.36.11-.5.39-.97.51-1.43.14-.59.34-1.12.48-1.69.1-.43.46-.97.56-1.42.03-.13-.05-.29-.02-.42s.14-.15.17-.23c.1-.42.1-.4.35-.74.25-.36.48-.8.73-1.19.15-.23.24-.55.39-.75.13-.19.37-.3.5-.48.24-.34.47-1,.59-1.38.14-.45.27-.91.43-1.35.18-.47.39-.93.4-1.48,0-.3.05-.61.05-.9,0-.24-.06-.48-.08-.75-.18-.03-.34-.04-.52-.07-.25-.05-.11-.14-.44-.06-.45.12-.51.44-.64.85-.11.33-.21.79-.35,1.14s-.16.65-.24,1.04c-.06.28-.27.66-.33.95-.04.18.03.38-.03.56s-.27.3-.34.51c-.13.39-.17.7-.33,1.09s-.34.73-.5,1.08c-.62,1.41-.96,2.84-1.68,4.26-.39.76-.62,1.58-.91,2.37s-.69,1.56-.99,2.37c-.25.69-.68,1.3-.99,1.95-.36.75-.84,1.45-1.26,2.2-.82,1.46-1.69,2.86-2.47,4.35-.38.72-.82,1.38-1.23,2.07s-.77,1.5-1.29,2.19c-1.03,1.37-2.12,2.67-3.01,4.13-.4.65-.79,1.33-1.22,1.97-.5.73-1.06,1.43-1.59,2.14-.99,1.32-2.04,2.56-3.15,3.75-.57.61-1.14,1.23-1.69,1.83-.21.23-.41.47-.63.69-.25.25-.34.48-.54.75-.59.81-1.42,1.51-2.13,2.22-.33.33-.66.66-.99.97s-.64.69-.99,1.01c-1.07.97-2.1,1.99-3.16,2.96s-2.34,1.89-3.38,2.93c-.48.49-1.05.86-1.56,1.31s-1,.85-1.6,1.18c-.29.16-.61.46-.91.55-.37.11-.69.14-1.05.24-.31.08-.64.28-.93.36-.43.12-.9,0-1.34.04-1.5.15-3.2.31-4.74.8-.67.21-1.35.41-2.02.74-.61.3-1.3.62-1.92.84-.17.06-.29.06-.44.14-.19.1-.37.25-.55.35-.27.15-.56.29-.83.43-.75.41-1.54.69-2.34,1.04-.63.28-1.3.54-1.96.83-.83.36-1.57.92-2.37,1.29-.71.33-1.36.64-2.05,1.03s-1.39.74-2.09,1.08c-.67.32-1.28.88-1.9,1.29-.65.43-1.3.86-1.95,1.28-.72.46-1.46.74-2.19,1.19-.65.4-1.25.65-1.97.89-.35.12-.66.14-1.04.24-.31.08-.72.33-1.03.45-.78.29-1.49.59-2.27.86-1.6.57-3.13,1.35-4.69,1.95s-3.22,1.35-4.65,2.27c-.63.41-1.26.85-1.88,1.28-.54.38-1.14.71-1.72,1.04-1.22.69-2.33,1.56-3.56,2.17-.64.32-1.2.77-1.83,1.14-.56.33-1.11.77-1.72,1.03-.66.28-1.29.63-1.89.99s-1.13.75-1.27,1.48c-.04.2.03.41,0,.6-.03.17-.16.26-.19.4-.09.41-.12.75-.23,1.15-.09.32-.19.65-.28,1.01-.1.42-.2.77-.31,1.17-.19.67-.5,1.38-.67,2.09-.08.34-.17.65-.3.98-.14.35-.13.7-.21,1.08-.06.29-.25.67-.34.95-.11.37-.18.67-.33,1.04-.28.68-.6,1.31-.92,1.95-.28.57-.58,1.13-.86,1.7-.34.69-.83,1.31-1.23,1.98-.71,1.19-1.71,2.47-2.81,3.35-1.15.93-2.17,1.98-3.41,2.73-.25.15-.65.33-.94.4-.43.1-.75.29-1.19.39-.41.1-.86.05-1.28.04-.45,0-.68.16-1.08.2s-.89-.1-1.3-.01c-.17.04-.26.15-.4.19-.22.05-.45-.02-.68.01-.4.05-.63.2-1.08.2s-.87.02-1.29-.2c-.31-.16-.6-.38-.88-.59-.3-.22-.66-.41-.87-.71-.16-.23-.26-.55-.39-.79-.17-.32-.39-.65-.62-.95s-.54-.37-.8-.61c-.32-.29-.53-.79-.69-1.19-.12-.3-.28-.59-.39-.89-.15-.39-.1-.85-.1-1.29,0-.4,0-.79,0-1.19,0-.2.06-.5.01-.7-.04-.16-.18-.21-.22-.37-.05-.19.07-.42.02-.61-.04-.16-.17-.22-.21-.37-.09-.3-.06-1.07-.36-1.25.14-.36.11-.61.18-1.02.03-.18.15-.28.19-.51.03-.2-.04-.41,0-.6.05-.38.21-.58.2-.98,0-.18-.05-.43,0-.6s.18-.21.22-.37c.05-.2.04-.42.09-.6.04-.16.09-.29.1-.49.03-.46,0-.71-.2-1.09-.12-.23-.2-.77-.55-.57-.17.1-.13.42-.28.54-.1.08-.43.08-.56.12-.12.04-.27.16-.39.2-.21.08-.38.03-.61.09-.4.09-.48.3-.98.16-.74-.2-1.64-.23-2.27.24-.45.34-.98.78-1.52.94-.33.1-.77.09-1.1,0-.15-.04-.25-.13-.43-.16-.23-.03-.49,0-.72,0,.12.17.31.26.52-.19Z"/>
      <path class="cls-2" d="m43.26,23.01c.13.03.26.02.38-.04-.1-.21-.43-1.02-.06-1.14.26-.09.86.44,1.12.54.39.16.85.36,1.23.45.2.05.37.1.54.15.23.07.46.17.66.22.94.26,1.87.29,2.74.61.96.36,2.07.54,3.07.78.5.12.98.29,1.48.38.53.1.99.09,1.49.2.18.04.28.17.48.21.25.06.54.12.8.18.52.12,1.07.09,1.59.21.19.05.29.17.48.21.25.06.56-.08.81-.02s.28.18.58.21.51.07.79.15c.52.13,1.06.16,1.58.28.25.06.42.14.69.15.35.02.56.15.89.21.25.04.5-.02.75.03.18.04.28.14.54.16.61.03,1.11,0,1.68.15.24.06.45.03.69.04.26,0,.35.12.54.16.51.11,1.06.02,1.54.14.44.12.9.07,1.38.09.3.02.5.16.79.21.27.05.52-.04.79.03.51.13,1.02.09,1.54.2.18.04.27.15.54.16.38.01.54.06.89.15.45.12,1.01.05,1.48.04.54,0,.84.2,1.38.2s.83.12,1.28.2c.55.1,1.14.16,1.68.3.48.12.97.1,1.48.1.57,0,1.02.2,1.58.2.26,0,.53-.02.79,0s.44.14.69.19c.26.05.53-.02.79.03.35.08.51.19.89.18.21,0,.5-.06.7,0,.22.05.36.16.58.21.2.05.49,0,.7,0,.37,0,.42.11.71.18.25.06.53-.04.78,0,.2.04.29.17.48.22.25.06.5-.04.76.03.09.03.09.13.23.16.13.03.28-.04.41-.02.53.09,1.05.32,1.58.42.22.04.45-.03.67,0,.11.02.12.14.23.16.16.04.32,0,.48.01.26.03.35.16.58.21s.47-.04.7,0c.56.13,1.13.31,1.68.53.38.15.71.29.79.73.1.51-.25.98-.7,1.1-.9.23-1.87.19-2.87.19-.25,0-.55.05-.79.01-.29-.05-.48-.2-.79-.21-.57-.03-1.04-.01-1.58-.15-.27-.07-.52-.02-.79-.09s-.39-.14-.69-.15c-.57-.02-1.13-.21-1.68-.35-.24-.06-.46-.01-.69-.06-.26-.05-.42-.17-.69-.19-.51-.02-.97-.17-1.48-.29-.23-.05-.46-.08-.69-.14-.27-.07-.54-.08-.8-.14-.24-.06-.3-.18-.58-.21-.1-.01-.21.03-.31.01-.13-.02-.24-.14-.33-.16-.25-.06-.52.02-.76-.03s-.3-.18-.58-.21c-.54-.06-1.04-.13-1.59-.19-.23-.02-.32-.14-.51-.19-.24-.06-.52-.01-.77-.01-.55-.01-1.01-.21-1.58-.2-.51,0-.79-.19-1.28-.2-.32,0-.49-.08-.79-.15s-.6.03-.9-.04c-.2-.04-.29-.17-.48-.22-.25-.06-.55.07-.8.02-.53-.11-1.03-.39-1.58-.41s-.95-.18-1.48-.19c-.34,0-.48-.11-.79-.18-.3-.07-.59.02-.89-.06-.45-.12-.86-.24-1.28-.36-.1-.03-.22.04-.31.02-.15-.03-.13-.14-.23-.17-.26-.08-.58-.17-.84-.22-1.01-.21-2.04-.28-3.07-.41-.45-.06-.91-.24-1.38-.36-.52-.13-1.08-.11-1.59-.23-.24-.06-.3-.18-.58-.21-.26-.03-.44-.02-.7-.09-.3-.08-.49-.06-.79-.09s-.57-.17-.89-.21c-.48-.05-.92-.24-1.38-.35-.56-.14-1.13-.19-1.68-.34-1.97-.52-3.82-.95-5.83-1.27-.27-.04-.53-.16-.79-.21-.2-.04-.33-.14-.51-.18-.47-.11-.92-.08-1.37-.21-.88-.24-1.83-.44-2.74-.82-.72-.3-1.4-.79-.91-.96Z"/>
      <path class="cls-2" d="m144.2,67.45l-.03-.16c-.33-.1-.71-.02-1.05-.03-.4-.02-.7-.18-1.09-.2-.72-.04-1.45,0-2.17,0-.6,0-1.41.15-1.99.01-.18-.04-.2-.17-.37-.22-.17-.04-.43,0-.6.01-.39,0-.79.03-1.19,0-.36-.02-.63-.19-.99-.21-.33-.02-.66,0-.99,0-.72,0-1.45,0-2.17,0-.91,0-1.71-.2-2.62-.2-.82,0-1.65-.01-2.47,0-.47,0-.78-.14-1.24-.21-.38-.05-.8.06-1.18.01-.44-.05-.79-.21-1.26-.2-.4,0-.8,0-1.2,0h-2.48c-.4,0-.79.01-1.19,0-.43-.02-.76-.18-1.17-.2-.86-.05-1.75,0-2.62,0-.45,0-.9,0-1.34,0-.51,0-.93-.18-1.42-.2-.85-.04-1.72,0-2.57,0-1.09,0-2.11-.11-3.19-.19-.91-.07-1.82-.36-2.74-.41-.46-.02-.93,0-1.39,0-.59,0-.97-.11-1.53-.21-.27-.05-.53.03-.8-.03-.16-.04-.24-.13-.43-.16-.25-.04-.49.01-.74-.03-.23-.04-.43-.15-.68-.16-.44-.03-.91,0-1.35,0-.59,0-1.11-.15-1.69-.2-.81-.07-1.6-.31-2.41-.4-.4-.04-.78-.16-1.18-.2-.29-.03-.52-.1-.8-.15s-.56,0-.84-.03c-.93-.13-1.84-.48-2.75-.61-.17-.03-.39.06-.56.02-.23-.05-.39-.18-.63-.22-.21-.04-.44.03-.65,0-.26-.05-.57-.16-.83-.23-.81-.2-1.64-.24-2.46-.39-.92-.17-1.85-.47-2.77-.55-.43-.04-.88-.1-1.3-.19-.2-.05-.36-.15-.56-.19-.22-.04-.46.03-.68,0-.87-.15-1.72-.37-2.57-.56-.76-.17-1.57-.13-2.35-.23-.2-.03-.36-.12-.56-.16-.21-.04-.44.01-.64-.03-.18-.04-.32-.16-.49-.19-.28-.06-.56,0-.85-.06-1.41-.33-2.84-.62-4.28-.74-.92-.07-1.78-.47-2.67-.61-.13-.02-.27.04-.4.02-.29-.05-.48-.2-.79-.21-.13,0-.26.02-.4,0-.31-.01-.5-.16-.79-.21-.11-.02-.28,0-.4.01-.33,0-.48-.07-.79-.15-.18-.05-.32-.03-.5-.04-.23-.02-.37-.12-.54-.15-.36-.08-.74-.01-1.1-.09-.13-.03-.25-.13-.43-.16-.2-.03-.41.04-.6,0-.39-.05-.56-.18-.98-.2s-.75-.18-1.18-.2-.75-.21-1.19-.2-.76-.18-1.19-.2c-.39-.02-.77.04-1.14-.04-.29-.06-.67-.27-1.04-.16-.51.15-.29.33-.09.6.19.25.35.46.46.73-.57.33.16.45.43.45.4,0,.89-.07,1.28.02.21.05.37.16.59.19.19.02.4-.04.59-.01.46.05.8.21,1.28.2.4,0,.79,0,1.19,0,.48,0,.83.15,1.28.2.39.05.8-.06,1.19-.01.47.06.83.21,1.33.21.53,0,.93.19,1.44.2.43,0,.86,0,1.28,0s.76.18,1.18.2c.39.02.73.09,1.09.19.34.1.61.14.98.22.21.04.37.16.59.19.24.03.45-.03.69.04.22.06.35.15.59.16.19,0,.41-.05.59-.01.21.04.38.18.59.22.23.04.46-.04.69,0,.83.18,1.63.44,2.47.59.39.07.79-.07,1.19.03.22.06.35.15.59.16s.46-.04.69.01c.21.05.37.16.59.19.2.02.39-.03.59,0,.21.05.37.16.59.19.24.03.45-.03.69.04.77.2,1.62.26,2.37.45.36.09.8.24,1.19.31.42.07.86.17,1.28.19s.76.19,1.18.2.68.16,1.08.2c.19.02.41-.05.6-.01.21.04.38.18.59.22.19.03.41-.07.6-.02s.28.17.48.22.41-.06.61-.01c.17.04.26.15.4.19.19.04.38-.01.58,0,.25.03.44.18.69.22.83.14,1.64.27,2.47.48s1.66.14,2.47.34,1.67.24,2.47.52c.42.15.78.13,1.19.21.39.08.62.21,1.08.21s.85.13,1.28.19c.22.03.38.14.59.19.23.05.48-.05.7,0,.16.04.21.18.37.22.19.05.42-.04.61-.01.21.02.28.11.43.16.23.06.42.01.65.04.42.05.73.21,1.18.21.48,0,.83.18,1.28.2.87.05,1.63.19,2.47.37.37.08.8,0,1.19.01.46,0,.82.2,1.28.2.39,0,.79,0,1.19,0,.46,0,.68.12,1.08.2.35.08.83,0,1.19,0,.18,0,.42-.05.6,0,.2.04.29.17.48.22.34.08.84,0,1.2-.01.46,0,.68.12,1.08.2.19.04.41-.04.6-.01.22.03.38.14.59.19.42.1.95.02,1.38.02.75,0,1.76-.18,2.48-.01.16.04.21.18.37.22.17.04.42,0,.6-.01.43,0,.86,0,1.28,0,.39,0,.79-.01,1.19,0,.46,0,.82.2,1.28.2.39,0,.8-.03,1.19,0,.45.02.81.21,1.28.2s.75.09,1.19.18c.39.09.88.02,1.28.02.44,0,.76.18,1.19.2s.88-.08,1.28.01c.43.09.72.18,1.19.18.43,0,.86,0,1.28,0,.37,0,.82-.07,1.19-.01.21.04.38.18.59.22.24.04.54-.01.79-.01.46,0,.75-.13,1.19-.21.47-.08.85.1,1.28.19.75.16,1.69.01,2.47.02.18,0,.43.05.6.01.16-.04.21-.18.37-.22.35-.08,1.03.21,1.29-.1s-.19-.66-.39-.88c-.23-.26-.34-.49.3-.99Z"/>
      <path class="cls-5" d="m171.66,203.15c-2.47-.89-4.94-1.78-7.41-2.67"/>
    </g>
  </g>
</svg>