<?xml version="1.0" encoding="UTF-8"?>
<svg id="Layer_2" data-name="Layer 2" xmlns="http://www.w3.org/2000/svg" viewBox="0 0 316.19 293.03">
  <defs>
    <style>
      .cls-1 {
        fill: #fbf3d3;
        stroke-linecap: round;
        stroke-linejoin: round;
        stroke-width: .75px;
      }

      .cls-1, .cls-2 {
        stroke: #2a3c24;
      }

      .cls-3 {
        fill: #f9dc5c;
        stroke: #f9dc5c;
      }

      .cls-3, .cls-2, .cls-4 {
        stroke-miterlimit: 10;
      }

      .cls-2 {
        fill: #2a3c24;
      }

      .cls-4 {
        fill: none;
        stroke: #000;
        stroke-width: .5px;
      }
    </style>
  </defs>
  <g id="stående_skrivemaskine" data-name="stående skrivemaskine">
    <g>
      <path class="cls-1" d="m138.93,22.94c.52-1.93,1.08-3.9,2.23-5.55,4.82-6.9,15.4-3.94,23.36-1.2,32.36,11.15,70.14,5.01,97.31-15.82,8.54,28.48,6.03,59.42-2.54,87.89-8.57,28.47-22.93,54.83-38.16,80.36-3.36,5.64-6.91,11.4-12.22,15.27-6.1,4.44-13.86,5.88-21.39,6.49-25.98,2.11-58.69-4.18-78.5-21.94,22.75-48.31,16.19-94.58,29.91-145.5Z"/>
      <path class="cls-2" d="m37.89,193.42c14.26-20.91,34.08-38.99,58.29-46.4,23.65-7.23,49.08-3.77,73.75-5.56,22.32-1.62,44.71-7.6,66.78-3.87,25.59,4.32,47.9,21.82,61.26,44.07,13.36,22.25,18.37,48.81,17.67,74.75-.33,12.11-2.88,25.9-13.23,32.2-6.33,3.85-14.16,3.95-21.57,3.93-82.79-.2-165.57-.41-248.36-.61-9.59-.02-20.02-.33-27.46-6.38-17.96-14.6,23.03-77.66,32.89-92.12Z"/>
      <path class="cls-2" d="m134.32,150.13c37.94.23,75.88.46,113.83.68,9.76.06,20.77-.05,27.45-2.52-5.11-5.63-21.5-9.26-38.12-10.57-16.62-1.31-33.91-.77-50.95-.8-26.89-.04-73.54-2.44-97.4,3.23-28.07,6.67,29.86,9.88,45.19,9.97Z"/>
      <path class="cls-3" d="m92.08,185.01c-3.09-2.39-6.39-4.49-9.87-6.27,3.24-5.01,10.81-6.55,15.74-3.2-.8,1.94-2.52,3.31-3.99,4.81-1.47,1.5-2.82,3.44-2.55,5.52"/>
      <path class="cls-3" d="m114.67,185.01c-3.09-2.39-6.39-4.49-9.87-6.27,3.24-5.01,10.81-6.55,15.74-3.2-.8,1.94-2.52,3.31-3.99,4.81-1.47,1.5-2.82,3.44-2.55,5.52"/>
      <path class="cls-3" d="m138.3,185.01c-3.09-2.39-6.39-4.49-9.87-6.27,3.24-5.01,10.81-6.55,15.74-3.2-.8,1.94-2.52,3.31-3.99,4.81s-2.82,3.44-2.55,5.52"/>
      <path class="cls-3" d="m160.89,185.01c-3.09-2.39-6.39-4.49-9.87-6.27,3.24-5.01,10.81-6.55,15.74-3.2-.8,1.94-2.52,3.31-3.99,4.81-1.47,1.5-2.82,3.44-2.55,5.52"/>
      <path class="cls-3" d="m184.52,185.01c-3.09-2.39-6.39-4.49-9.87-6.27,3.24-5.01,10.81-6.55,15.74-3.2-.8,1.94-2.52,3.31-3.99,4.81s-2.82,3.44-2.55,5.52"/>
      <path class="cls-3" d="m207.12,185.01c-3.09-2.39-6.39-4.49-9.87-6.27,3.24-5.01,10.81-6.55,15.74-3.2-.8,1.94-2.52,3.31-3.99,4.81-1.47,1.5-2.82,3.44-2.55,5.52"/>
      <path class="cls-3" d="m230.74,185.01c-3.09-2.39-6.39-4.49-9.87-6.27,3.24-5.01,10.81-6.55,15.74-3.2-.8,1.94-2.52,3.31-3.99,4.81s-2.82,3.44-2.55,5.52"/>
      <path class="cls-3" d="m253.34,185.01c-3.09-2.39-6.39-4.49-9.87-6.27,3.24-5.01,10.81-6.55,15.74-3.2-.8,1.94-2.52,3.31-3.99,4.81s-2.82,3.44-2.55,5.52"/>
      <path class="cls-3" d="m65.54,207.09c-3.09-2.39-6.39-4.49-9.87-6.27,3.24-5.01,10.81-6.55,15.74-3.2-.8,1.94-2.52,3.31-3.99,4.81-1.47,1.5-2.82,3.44-2.55,5.52"/>
      <path class="cls-3" d="m88.14,207.09c-3.09-2.39-6.39-4.49-9.87-6.27,3.24-5.01,10.81-6.55,15.74-3.2-.8,1.94-2.52,3.31-3.99,4.81-1.47,1.5-2.82,3.44-2.55,5.52"/>
      <path class="cls-3" d="m111.76,207.09c-3.09-2.39-6.39-4.49-9.87-6.27,3.24-5.01,10.81-6.55,15.74-3.2-.8,1.94-2.52,3.31-3.99,4.81s-2.82,3.44-2.55,5.52"/>
      <path class="cls-3" d="m134.36,207.09c-3.09-2.39-6.39-4.49-9.87-6.27,3.24-5.01,10.81-6.55,15.74-3.2-.8,1.94-2.52,3.31-3.99,4.81-1.47,1.5-2.82,3.44-2.55,5.52"/>
      <path class="cls-3" d="m157.98,207.09c-3.09-2.39-6.39-4.49-9.87-6.27,3.24-5.01,10.81-6.55,15.74-3.2-.8,1.94-2.52,3.31-3.99,4.81-1.47,1.5-2.82,3.44-2.55,5.52"/>
      <path class="cls-3" d="m180.58,207.09c-3.09-2.39-6.39-4.49-9.87-6.27,3.24-5.01,10.81-6.55,15.74-3.2-.8,1.94-2.52,3.31-3.99,4.81s-2.82,3.44-2.55,5.52"/>
      <path class="cls-3" d="m204.2,207.09c-3.09-2.39-6.39-4.49-9.87-6.27,3.24-5.01,10.81-6.55,15.74-3.2-.8,1.94-2.52,3.31-3.99,4.81-1.47,1.5-2.82,3.44-2.55,5.52"/>
      <path class="cls-3" d="m226.8,207.09c-3.09-2.39-6.39-4.49-9.87-6.27,3.24-5.01,10.81-6.55,15.74-3.2-.8,1.94-2.52,3.31-3.99,4.81s-2.82,3.44-2.55,5.52"/>
      <path class="cls-3" d="m115.7,229.18c-3.09-2.39-6.39-4.49-9.87-6.27,3.24-5.01,10.81-6.55,15.74-3.2-.8,1.94-2.52,3.31-3.99,4.81-1.47,1.5-2.82,3.44-2.55,5.52"/>
      <path class="cls-3" d="m138.3,229.18c-3.09-2.39-6.39-4.49-9.87-6.27,3.24-5.01,10.81-6.55,15.74-3.2-.8,1.94-2.52,3.31-3.99,4.81s-2.82,3.44-2.55,5.52"/>
      <path class="cls-3" d="m161.92,229.18c-3.09-2.39-6.39-4.49-9.87-6.27,3.24-5.01,10.81-6.55,15.74-3.2-.8,1.94-2.52,3.31-3.99,4.81s-2.82,3.44-2.55,5.52"/>
      <path class="cls-3" d="m184.52,229.18c-3.09-2.39-6.39-4.49-9.87-6.27,3.24-5.01,10.81-6.55,15.74-3.2-.8,1.94-2.52,3.31-3.99,4.81s-2.82,3.44-2.55,5.52"/>
      <path class="cls-3" d="m208.14,229.18c-3.09-2.39-6.39-4.49-9.87-6.27,3.24-5.01,10.81-6.55,15.74-3.2-.8,1.94-2.52,3.31-3.99,4.81s-2.82,3.44-2.55,5.52"/>
      <path class="cls-3" d="m230.74,229.18c-3.09-2.39-6.39-4.49-9.87-6.27,3.24-5.01,10.81-6.55,15.74-3.2-.8,1.94-2.52,3.31-3.99,4.81s-2.82,3.44-2.55,5.52"/>
      <path class="cls-3" d="m254.36,229.18c-3.09-2.39-6.39-4.49-9.87-6.27,3.24-5.01,10.81-6.55,15.74-3.2-.8,1.94-2.52,3.31-3.99,4.81-1.47,1.5-2.82,3.44-2.55,5.52"/>
      <path class="cls-3" d="m250.25,207.09c-3.09-2.39-6.39-4.49-9.87-6.27,3.24-5.01,10.81-6.55,15.74-3.2-.8,1.94-2.52,3.31-3.99,4.81s-2.82,3.44-2.55,5.52"/>
      <path class="cls-3" d="m276.96,229.18c-3.09-2.39-6.39-4.49-9.87-6.27,3.24-5.01,10.81-6.55,15.74-3.2-.8,1.94-2.52,3.31-3.99,4.81-1.47,1.5-2.82,3.44-2.55,5.52"/>
      <path class="cls-3" d="m45.34,229.18c-3.09-2.39-6.39-4.49-9.87-6.27,3.24-5.01,10.81-6.55,15.74-3.2-.8,1.94-2.52,3.31-3.99,4.81-1.47,1.5-2.82,3.44-2.55,5.52"/>
      <path class="cls-3" d="m68.97,229.18c-3.09-2.39-6.39-4.49-9.87-6.27,3.24-5.01,10.81-6.55,15.74-3.2-.8,1.94-2.52,3.31-3.99,4.81-1.47,1.5-2.82,3.44-2.55,5.52"/>
      <path class="cls-3" d="m91.56,229.18c-3.09-2.39-6.39-4.49-9.87-6.27,3.24-5.01,10.81-6.55,15.74-3.2-.8,1.94-2.52,3.31-3.99,4.81-1.47,1.5-2.82,3.44-2.55,5.52"/>
      <path class="cls-3" d="m45.86,253.31c-3.09-2.39-6.39-4.49-9.87-6.27,3.24-5.01,10.81-6.55,15.74-3.2-.8,1.94-2.52,3.31-3.99,4.81s-2.82,3.44-2.55,5.52"/>
      <path class="cls-3" d="m68.45,253.31c-3.09-2.39-6.39-4.49-9.87-6.27,3.24-5.01,10.81-6.55,15.74-3.2-.8,1.94-2.52,3.31-3.99,4.81-1.47,1.5-2.82,3.44-2.55,5.52"/>
      <path class="cls-3" d="m92.08,253.31c-3.09-2.39-6.39-4.49-9.87-6.27,3.24-5.01,10.81-6.55,15.74-3.2-.8,1.94-2.52,3.31-3.99,4.81s-2.82,3.44-2.55,5.52"/>
      <path class="cls-3" d="m114.67,253.31c-3.09-2.39-6.39-4.49-9.87-6.27,3.24-5.01,10.81-6.55,15.74-3.2-.8,1.94-2.52,3.31-3.99,4.81s-2.82,3.44-2.55,5.52"/>
      <path class="cls-3" d="m138.3,253.31c-3.09-2.39-6.39-4.49-9.87-6.27,3.24-5.01,10.81-6.55,15.74-3.2-.8,1.94-2.52,3.31-3.99,4.81s-2.82,3.44-2.55,5.52"/>
      <path class="cls-3" d="m160.89,253.31c-3.09-2.39-6.39-4.49-9.87-6.27,3.24-5.01,10.81-6.55,15.74-3.2-.8,1.94-2.52,3.31-3.99,4.81-1.47,1.5-2.82,3.44-2.55,5.52"/>
      <path class="cls-3" d="m184.52,253.31c-3.09-2.39-6.39-4.49-9.87-6.27,3.24-5.01,10.81-6.55,15.74-3.2-.8,1.94-2.52,3.31-3.99,4.81-1.47,1.5-2.82,3.44-2.55,5.52"/>
      <path class="cls-3" d="m207.12,253.31c-3.09-2.39-6.39-4.49-9.87-6.27,3.24-5.01,10.81-6.55,15.74-3.2-.8,1.94-2.52,3.31-3.99,4.81s-2.82,3.44-2.55,5.52"/>
      <path class="cls-3" d="m274.9,207.09c-3.09-2.39-6.39-4.49-9.87-6.27,3.24-5.01,10.81-6.55,15.74-3.2-.8,1.94-2.52,3.31-3.99,4.81s-2.82,3.44-2.55,5.52"/>
      <path class="cls-3" d="m230.57,253.31c-3.09-2.39-6.39-4.49-9.87-6.27,3.24-5.01,10.81-6.55,15.74-3.2-.8,1.94-2.52,3.31-3.99,4.81s-2.82,3.44-2.55,5.52"/>
      <path class="cls-3" d="m254.19,253.31c-3.09-2.39-6.39-4.49-9.87-6.27,3.24-5.01,10.81-6.55,15.74-3.2-.8,1.94-2.52,3.31-3.99,4.81-1.47,1.5-2.82,3.44-2.55,5.52"/>
      <path class="cls-3" d="m276.79,253.31c-3.09-2.39-6.39-4.49-9.87-6.27,3.24-5.01,10.81-6.55,15.74-3.2-.8,1.94-2.52,3.31-3.99,4.81s-2.82,3.44-2.55,5.52"/>
      <path class="cls-3" d="m89.28,273.08c2.05-2.52,7.64-2.91,12.3-2.96,43.7-.44,87.41-.41,131.1.1-1.75,3.01-7.93,3.94-13.17,4.37-22.6,1.87-45.38,2.94-68.18,3.21-20.53.24-41.61-3-62.05-4.72Z"/>
      <path class="cls-4" d="m148.73,39.52c3.85,4.95,10.97,7.07,16.9,5.02,3.68-1.27,6.89-3.97,10.76-4.42,2.59-.3,5.17.44,7.74.86,12.99,2.14,26.23-3.87,39.27-2.07,3.22.44,6.37,1.36,9.62,1.46s6.74-.79,8.81-3.29"/>
      <path class="cls-4" d="m147.72,62.31c6.52,5.45,16.59,6.16,23.81,1.66,2.16-1.34,4.17-3.13,6.67-3.55,1.26-.21,2.56-.04,3.83.12,6.19.8,12.38,1.61,18.56,2.41,11.48,1.49,22.96,2.98,34.44,4.48"/>
      <path class="cls-4" d="m149.19,82.82c1.32-.12,2.65-.24,3.97-.36,14.37-1.29,28.75-2.58,43.17-2.85,3.66-.07,7.32-.07,10.97-.01,4.23.07,8.45.23,12.68.39"/>
      <path class="cls-4" d="m145.65,100.43c18.64,2.77,37.61,3.27,56.37,1.48,3.99-.38,8.01-.86,12.01-.49,3.98.37,7.89,1.6,11.36,3.59"/>
      <path class="cls-4" d="m142.03,122.01c7.77,4.75,17.59,3.77,26.65,2.8,19.55-2.08,39.18-3.33,58.84-3.73"/>
    </g>
  </g>
</svg>