<?xml version="1.0" encoding="UTF-8"?>
<svg id="Layer_2" data-name="Layer 2" xmlns="http://www.w3.org/2000/svg" viewBox="0 0 263.01 85.65">
  <defs>
    <style>
      .cls-1 {
        opacity: .81;
      }

      .cls-1, .cls-2 {
        fill: #fcf4d4;
      }

      .cls-2 {
        opacity: .9;
      }
    </style>
  </defs>
  <g id="Layer_1-2" data-name="Layer 1">
    <g>
      <path class="cls-2" d="m.34,83.82c-.27-.04-.38.06-.33.28.65.24,1.38-.03,2.04.16.35.1.52.29.98.29.49,0,.61-.18.98-.29s.63-.05,1-.07c.44-.02.67-.19,1.07-.29.83-.2,1.65-.44,2.51-.44.75,0,1.1-.29,1.78-.37.88-.09,1.7-.05,2.53-.34,1.25-.43,2.67-1.66,3.72-2.53s1.85-1.84,2.9-2.64c1.48-1.11,2.81-2.36,4.29-3.44s2.76-2.25,4.27-3.22c1.19-.77,2.47-1.49,3.61-2.33s2.79-1.39,4.12-1.8c.62-.19,1.31-.34,1.97-.58.89-.32,1.61-.17,2.51-.35.5-.1.57-.23,1.07-.16.38.06.66.19,1.07.2.35,0,.73-.06,1.07-.02.46.05.8.31,1.25.39.4.07.82-.08,1.22.01.21.05.5.25.73.33.68.22,1.35.38,1.98.72s1.2.49,1.94.33c.15-.03.61-.26.75-.32.53-.26.44-.16.81-.73.65-1.01,1.4-1.97,2.33-2.76s2.29-1.18,3.41-.37c.51.37.56.84.88,1.27.15.21.41.31.56.52.2.28.11.76.52.93.74.32.82-.48,1.07-.92.35-.6.85-1.06,1.26-1.59.55-.7.75-1.22,1.45-1.82.5-.42.93-.85,1.51-1.17,1.29-.71,2.71-1.22,4.12-1.79.63-.26,1.3-.65,1.97-.81.36-.08.71-.07,1.07-.16.2-.05.33-.23.55-.26s.35.13.52.12c.66-.04,1.41-.16,2.15-.15.82,0,1.46-.32,2.15-.18,1.19.24,2.22.74,3.36,1.3,1.36.67,2.88,1.07,4.34,1.42.89.22,1.23.38,2.15.14.76-.2,1.42-.35,2.15-.57,1.19-.36,2.02-1.33,2.96-2.12s1.91-1.54,2.93-2.23c2.46-1.67,4.78-2.79,7.91-2.43.6.07,1.1.29,1.7.44.35.09.43.43.99.3.59-.14.32-.18.6-.65.68-1.13,1.3-2.25,2.43-2.95.52-.32,1.18-.49,1.79-.64.34-.08.66-.06,1-.16.12-.04.12-.21.29-.25.29-.06.6.05.89-.01.57-.13,1.15-.51,1.77-.66.7-.17,1.26-.4,1.97-.44,1.55-.08,3.11.07,4.66,0s2.44-.92,3.22-2.15c.34-.54.56-1.1.89-1.61.39-.6.88-1.16,1.26-1.78.83-1.36,1.46-2.69,2.33-3.99.95-1.42,1.78-2.73,3-3.95s2.47-2.06,3.88-2.89,2.77-1.64,4.2-2.36c1.26-.63,3.27-1.35,4.68-1.33s2.61.38,3.85,1.04c.45-.61.5-1.4.89-2.03s.67-1.26,1.08-1.86c.83-1.21,1.83-2.26,3.13-2.89.59-.29,1.29-.32,1.98-.35.48-.02.64-.21.97-.28.46-.1.88-.05,1.35-.07.5-.02.78-.24,1.25-.34.36-.07.72.01,1.07-.06.48-.1.76-.31,1.25-.34s.95.06,1.43-.07c3.22-.84,6.08.93,8.87,2.32.57.29,1.07.6,1.7.81.74.24,1.22.91,1.97.91,1.68,0,2.7-2.43,3.58-3.52.51-.63.8-1.34,1.25-2.06.54-.85,1.2-1.64,1.75-2.5,1.2-1.85,2.94-3.23,4.7-4.48.78-.56,1.52-1.19,2.31-1.65.87-.51,1.8-.94,2.7-1.39,1.81-.91,3.52-1.83,5.36-2.69.9-.42,1.86-.8,2.78-1.16,1.16-.46,2.4-.64,3.51-1.21,2.04-1.05,4.21-1.46,6.3-2.29,1.06-.42,2.19-.51,3.28-.8.61-.16.88-.24,1.51-.26s1.14-.35,1.79-.38C218.82.23,220.8,0,222.97,0c1.02,0,1.81.05,2.77.28,1.04.24,2.3.08,3.37.08,2.36,0,4.72,0,7.08,0,2.06,0,4.01.58,6.02.72,2.11.15,4.33.94,6.39,1.52,3.35.95,6.53,2.8,8.58,5.64.91,1.26,1.83,2.55,2.51,3.92.31.64.8,1.6.99,2.25.09.31.06.6.16.92.09.27.47.61.56.88.44,1.36.86,2.69,1.23,4.14.09.35.26.48.28.97.02.36,0,.72,0,1.08,0,.81.2,1.92.02,2.71-.13.55-.45,1.12-.69,1.64-.3.64-.56,1.27-.84,1.92-.65,1.48-1.21,2.99-1.63,4.39-.37,1.23-.85,2.38-1.59,3.48-.34.51-1.13,1.12-1.33,1.66-.43,1.19,1.05.88,1.77.87,1.51-.02,2.13,1.24,2.6,2.5.29.78.47,1.52.66,2.31.16.67.61,1.41.7,2.18.19,1.64-.06,3.45-.4,4.98-.08.35-.28.5-.34.92s.07.84-.02,1.26c-.18.83-.52,1.68-.72,2.51-.77,3.2-1.83,6.35-3.72,9.13-.95,1.39-2.05,2.97-3.27,4.08-1.14,1.04-2.49,1.96-3.7,2.91-.63.5-1.46.87-2.16,1.26s-1.53.95-2.33,1.25c-1.48.57-2.83.92-4.26,1.28-.6.15-1.36.43-2,.68-.94.37-1.68.36-2.69.36-.87,0-1.52.07-2.33.28s-1.82.08-2.69.08c-.78,0-1.55.01-2.33,0-.9-.01-1.6.37-2.51.36-1.67-.02-3.34,0-5.01,0-.8,0-1.7.12-2.49.02-1-.13-1.83-.38-2.87-.38-2.03,0-4.08-.11-6.11,0-1.08.05-2.03.37-3.15.37s-1.92.18-2.93.38c-.49.1-1.09-.03-1.59-.02-.55.01-.75.14-1.27.28s-.98-.03-1.47.06c-.52.09-.87.36-1.41.39-.98.05-2.01.16-2.97.33-.38.07-.61.33-.97.4-.48.09-.95-.07-1.44.06-.71.19-1.47.28-2.15.46-.74.19-1.69.5-2.51.55-3.75.2-7.39.71-11.19.71h-10.3c-.63,0-1.26.02-1.88,0-.82-.02-1.53-.32-2.34-.39-2.51-.21-5.23.45-7.7-.06-2.32-.49-4.81-.28-7.21-.28h-13.69c-1.1,0-2.17.08-3.22-.18s-2.08-.04-3.16-.17c-.47-.06-.81-.3-1.27-.39-.49-.09-1.14.02-1.64.02-1.02,0-1.87-.27-2.86-.37s-1.74-.01-2.66-.27c-1.06-.29-2.17.03-3.24-.26-1.77-.47-3.9-.18-5.73-.18-.88,0-1.92-.16-2.79-.02-.48.08-.86.32-1.33.39-.53.07-1.08-.08-1.61.02s-.9.3-1.43.34c-.35.02-.73-.09-1.08-.03-.45.08-.8.34-1.25.39s-.96-.08-1.43-.03c-.81.09-1.48.32-2.33.36-.49.02-.8.25-1.25.34-.47.09-.95-.04-1.43.02-1.7.19-3.3.98-5.02,1.09-.76.05-1.19.37-1.97.36-.93-.02-1.63.32-2.51.37-.8.04-1.72-.17-2.51-.03-.45.08-.79.34-1.25.39-.41.05-.84-.04-1.25-.02-.89.05-1.56.43-2.51.37s-1.77-.37-2.79-.37c-1.81,0-3.62,0-5.43,0-2.33,0-4.54-.41-6.82-.73-.58-.08-1.2.06-1.79.03-.66-.03-1.22-.32-1.88-.39-.52-.06-1.08.04-1.6.03-.82-.01-1.53-.28-2.34-.38-1.4-.17-2.7-.35-4.13-.35-1.28,0-2.69.18-3.94-.08s-2.38-.28-3.67-.28-2.76-.18-4.02.08c-1.09.22-2.19.2-3.27.46-1.22.29-2.5-.03-3.73.26-.47.11-.74.26-1.23.29s-1.04-.08-1.54-.02c-.91.11-1.79.52-2.68.74-.76.18-1.56.35-2.33.53-.83.19-1.83.51-2.69.55s-1.51.3-2.33.35c-.49.03-.8.16-1.25.28-.49.13-.94-.02-1.43.06-.85.14-1.41.38-2.33.38-.41,0-.84-.03-1.25,0-.55.03-.9.29-1.43.39-1.66.29-3.22-.38-4.84-.38-.36,0-.91.11-1.27.02s-.49-.32-.87-.39c-.52-.1-.61.19-.99.3-.34.1-.67.04-1,.15-.38.12-.58.45-.89.65-.27.18-.53.27-.81.43-.68.41-1.65.81-.8-1.51Z"/>
      <path class="cls-1" d="m138.25,54.45l-.32-.08c.08-.67,1.38-1.56,1.85-1.98.66-.59,1.28-1.14,2.03-1.61,1.91-1.18,4.29-2.27,6.47-2.79.97-.23,2.05-.6,3.04-.72s2.18.01,3.22.01c1.11,0,2.21-.14,3.24.31.84.37,1.56,1.5,2.64,1.04-.36-.85-.81-1.62-1.49-2.34s-1.04-1.05-2.01-1.22c-.09-.36.04-.69-.03-1.04-.06-.28-.28-.42-.39-.69-.17-.44-.2-.89-.44-1.35-.49-.96-1.04-1.86-1.7-2.75-.71-.95-1.72-1.72-2.72-2.36-1.33-.85-1.77-.57-2.87.36,1.02.83,2.13,1.46,2.73,2.68.23.48.26.77.35,1.27.05.27.24.59.28.79.14.68-.1,1.38-.53,1.94-1-.87-3.55-.05-4.49.4-1.24.6-2.22,1.36-3.13,2.44-.97,1.16-1.9,2.55-2.56,3.87s-1.64,2.99-1.81,4.46c-.1.02-.2.04-1.37-.66Z"/>
      <path class="cls-1" d="m191.27,29.01c-.5,1.5,1.81.3,2.24.09,1.11-.56,2.34-.91,3.49-1.42,2.11-.94,5.17-1.17,7.5-.74.79.15,1.35.28,2.17.28.6,0,1.19-.02,1.77.08,1.39.25,2.87.64,4.24,1.07,1.15.36,2.72.93,3.58,1.79.98.98,1.78,2.59,2.33,3.86.37.86.64,1.82,1.33,2.52.53.53.82.77,1.36.36.73-.55.32-.96.16-1.53-.14-.51-.2-.97-.35-1.43-.2-.61-.45-1.13-.72-1.72-.51-1.08-.9-2.2-1.6-3.21-1.35-1.95-3.46-3.68-5.56-4.76-.81-.42-1.69-.97-2.59-1.25-1.47-.45-2.74-.48-4.31-.45-3.62.09-6.89,1.94-10.01,3.67-1.54.86-2.86,1.81-4.32,2.78-.52.35-.88.75-1.33,1.17-.12.11-.37.22-.47.34-.28.34-.29.71-.56,1.03.07,0,.14-.02,1.64-2.53Z"/>
    </g>
  </g>
</svg>