<?xml version="1.0" encoding="UTF-8"?>
<svg id="Layer_2" data-name="Layer 2" xmlns="http://www.w3.org/2000/svg" viewBox="0 0 235.49 69.2">
  <defs>
    <style>
      .cls-1 {
        opacity: .81;
      }

      .cls-1, .cls-2 {
        fill: #fcf4d4;
      }

      .cls-2 {
        opacity: .92;
      }
    </style>
  </defs>
  <g id="Layer_1-2" data-name="Layer 1">
    <g>
      <path class="cls-2" d="m0,64.86c1.07-.51,2.39-.63,3.58-1.07,1.31-.49,2.63-.94,3.94-1.43,1.55-.58,3.15-1.01,4.68-1.7,1.35-.61,2.62-1.26,3.82-1.98.43-.25.98-.41,1.27-.88.41-.65.05-.47-.11-1.15-.13-.52.02-1.26.02-1.81,0-.72-.16-1.65-.01-2.34.27-1.27,1.56-2.05,2.6-2.57.59-.3,1.12-.84,1.71-1.1.72-.32,1.57-.57,2.33-.83,1.18-.41,2.52-.97,3.76-1.04.59-.03,1.2,0,1.79,0,.79,0,1.6.3,1.81-.52.31-1.22-1.1-2.51-1.72-3.42-.84-1.24-1.6-2.49-2.38-3.76-.75-1.23-.94-2.61-.94-4.04,0-2.01.07-3.95.34-5.91.52-3.89,1.77-7.87,2.96-11.62,1.22-3.86,4.06-7.16,6.74-10.13,1.15-1.27,2.17-3.01,3.66-3.96.45-.29.92-.37,1.35-.68.39-.27.63-.65,1.08-.89.93-.5,1.92-.79,2.94-1.01.81-.18,1.61-.5,2.42-.65.47-.08,1,.14,1.46.04.26-.06.45-.23.7-.3.77-.21,1.54-.07,2.3.1.79.18,1.63.16,2.38.54,1.06.53,2.15,1.2,3.2,1.8,1.26.71,2.36,1.27,3.15,2.59.57.95.45,2.03.44,3.14,0,.6.06,1.67.42,2.17.42.59,1.39.29,2.01.41.08.02.27.26.42.3.31.07.69,0,1.01.06.35.07.88.43,1.23.55,1.48.48,2.61.89,3.77,1.97.76.71,1.26,1.55,1.79,2.43.34.56.71,1.09.82,1.78.04.22-.04.5-.03.72.02.53.34.93.31,1.43-.01.16-.28.5-.32.72-.06.32.02.75.02,1.07,0,.6,0,1.19,0,1.79,0,1.4-.17,2.92,0,4.31.06.56.26,1.23.44,1.79s.76.92,1.09,1.41c.26.38.77,1.12,1.34,1.12.51,0,1.04-.69,1.42-.94.54-.35,1.18-.66,1.8-.88.77-.29,1.37-.2,2.15-.34.34-.06.56-.32.9-.32s.91.22,1.26.3c.58.12,1.1.26,1.7.44,1.26.36,2.11,1.31,2.77,2.43s.64,2.38,1.25,3.6,1.45,2.22,1.43,3.56c0,.31-.09.79-.02,1.09s.32.38.4.68c.08.35-.11.76-.04,1.11.08.39.43.54.44.99.92.11,1.46.43,2.45.42,1.05-.01,1.29.11,2.16.63s1.43,1.03,2.07,1.9c.42.58.61,1.26,1.14,1.78,1.54,1.54,2.49.05,3.95-.65,1.06-.51,4.11-1.65,4.74-.12.98.09.61-1.69.63-2.29.03-.94.37-1.71.36-2.69-.01-.98.3-1.74.36-2.69.05-.82.22-1.82.44-2.61.03-.12.26-.24.3-.42.05-.22-.08-.51-.04-.74.06-.39.28-.85.42-1.22.23-.6.4-1.33.75-1.91.71-1.16,1.78-2.22,2.77-3.17,1.23-1.18,3.11-2.56,4.85-2.65.69-.04,1.86.25,2.48-.02.85-.38.57-1.53.57-2.3-.02-1.82.92-3.05,1.4-4.69.16-.53.14-.73.39-1.22.2-.39.43-.78.62-1.16.42-.83,1.03-1.51,1.53-2.28.45-.7.95-1.3,1.51-1.94.29-.33.55-.54.82-.89.12-.16.12-.42.25-.57.24-.28.56-.29.79-.55.37-.4.47-.8.92-1.14.23-.18.52-.21.74-.43.18-.18.24-.49.42-.66.63-.61,1.82-1.1,2.61-1.5s1.46-1.11,2.33-1.36c.47-.14.93.02,1.4-.1.61-.15.78-.34,1.46-.33,1.68.02,3.75-.34,5.37.08,1.53.39,3.18.85,4.55,1.75,1.7,1.11,3.2,2.85,5.03,3.63,1.51.64,3.11.27,4.38-.79,1.74-1.46,3.05-3.57,5-4.76,1.49-.91,3.33-1.91,5.03-2.34.49-.12.95.02,1.43-.06.61-.1.96-.36,1.61-.38.47-.01.96-.01,1.43,0,.64.02,1,.27,1.61.38.46.08.97-.06,1.44-.03.86.05,1.78.32,2.61.57,1.55.48,3.14.94,4.63,1.6,2.01.89,3.92,1.97,5.98,2.76,3.36,1.28,7.85,1.96,10.39,4.7,1.37,1.47,2.04,3.83,2.76,5.65.49,1.23,1.65,2.89,1.57,4.24-.03.53-.42.67-.39,1.26.02.44.34,1.02.47,1.44.33,1.01.32,2.01.25,3.1.72-.67,1.25-1.74,1.8-2.47.73-.98,1.73-1.75,2.73-2.42,1.83-1.23,3.68-.75,5.5.34,2.08,1.24,4.25,1.99,6.01,3.72,1.14,1.12,1.51,2.74,1.91,4.23.31,1.16.32,2.29.34,3.54s-.6,2.44-1.08,3.57c-.18.43-.15,1.03-.34,1.45s-.22.98-.44,1.35c-.58,1.02-1.87,1.63-2.8,2.22s-1.93.96-2.68,1.78c-1.04,1.13-1.27,1.69-1.26,3.24,0,1.45.61,1.97,1.75,2.95,2.09,1.81,4.59,3.39,7.12,4.52,1.64.73,4.03,1.31,5.82,1.08s4.23-1.75,6.05-.65c2.03,1.23,1.34,3.81-.35,4.64-1.09.54-2.39.93-3.64,1.15-1.86.33-3.69.92-5.56,1.27-2.41.44-4.82.83-7.25,1.16-1.55.22-3.12.32-4.65.64-1.32.28-2.69-.06-4.02.16-1.48.25-2.83.19-4.31.26-.92.04-1.78.41-2.7.41-1.05,0-2.07-.38-3.13-.41-3.11-.09-6.41.39-9.49-.07-3.61-.54-7.37-.28-11.02-.28-1.59,0-3.08.05-4.66.28-1.38.2-2.96.39-4.37.46-.93.04-1.86-.08-2.79-.04s-1.77.35-2.69.4c-.56.03-1.14-.03-1.7-.03-1.11,0-2.12.33-3.21.39-2.61.14-5.27-.02-7.88-.02-2.79,0-5.45.36-8.23.36-1.06,0-2.19-.11-3.24-.02s-1.95.38-3.04.38-1.99-.25-3.05-.38c-.94-.11-2,.02-2.95.02s-1.56.08-2.42.28c-.91.21-1.93.08-2.87.08-.8,0-1.61,0-2.41,0-1.14,0-2.12.32-3.23.37-2.05.07-4.11,0-6.16,0-2.55,0-5-.36-7.54-.36-1.43,0-2.87,0-4.3,0-1.29,0-2.69.18-3.96-.08-2.85-.59-5.79-.06-8.67-.56-1.86-.32-3.79-.24-5.65-.42-1.5-.14-3.18-.26-4.64-.64-3.04-.79-6.24-1.01-9.32-1.62-3.22-.64-6.45-.93-9.69-1.31-1.69-.2-3.31.04-4.99-.31-1.47-.31-3.15-.08-4.65-.08-1.63,0-3.32.11-4.95.02-1.48-.09-2.85-.39-4.36-.38-1.72.01-3.33-.3-5.03-.35-.64-.02-1.17-.16-1.79-.29-.96-.2-1.9,0-2.87-.06-.53-.03-.92-.19-1.42-.3-1.05-.22-2.18-.08-3.25-.08-1.58,0-2.98-.02-4.54-.28-1.83-.3-3.94-.17-5.8-.1-3.57.13-7.23.6-15.79,2.88Z"/>
      <path class="cls-1" d="m141.85,21.16c.13-.87.95-1.62,1.77-1.81.42-.09,1.23-.03,1.63.05.91.19,2.11.45,2.97.71,3.39,1.06,7.18,3.16,9.58,5.72.57.61,1.51,1.14,1.69,2.01.28-.3.29-.73.53-1.06.18-.26.55-.59.8-.8.84-.67,1.92-.92,2.88-1.35,1.63-.74,3.94-.13,5.63.01,1.86.16,3.71.3,5.57.47,1.62.15,3.86.42,5.05,1.68-1.19-1.65-2.75-2.55-4.43-3.57-.74-.45-1.3-.9-2.14-1s-1.7,0-2.52,0c-.93,0-1.64.05-2.51.28-.82.21-1.69-.05-2.51.16-1.62.42-3.3.67-4.84,1.35-.55.24-1.56.71-2.13.16-.22-.21-.3-.68-.45-.96-.25-.44-.59-.85-1-1.15-1.26-.93-2.83-1.53-4.3-2.04-3.36-1.16-7.48-1.31-11.28,1.12Z"/>
      <path class="cls-1" d="m55.52,6.47c0,1.92-.08,3.79-1.25,5.39-.43.58-1.04.98-1.52,1.51-.28.3-1.11,1.28-1.11,1.65.95-.38,2.09-1.19,3.18-1.03.68.1,1.05.38,1.78.36.81-.01,1.4.1,2.15.28,1.56.38,2.39,1.02,3.58,2.23,1.02,1.04,2.32,1.65,2.59,3.2.54-.12-.49-2.33-.7-2.84-.5-1.18-1.23-1.51-2.18-2.24-.75-.58-1.18-1.24-2.04-1.7s-1.73-.97-2.59-1.37c-.26.39-.74.42-1.14.22.66-1.41,1.43-2.65,1.13-4.22-.22-1.14-.33-1.17-1.44-1.52-.72-.23-1.49-.75-.44.09Z"/>
    </g>
  </g>
</svg>