<?xml version="1.0" encoding="UTF-8"?>
<svg id="Layer_2" data-name="Layer 2" xmlns="http://www.w3.org/2000/svg" viewBox="0 0 260.33 70.24">
  <defs>
    <style>
      .cls-1 {
        fill: #f9dc5c;
        opacity: .76;
      }

      .cls-2 {
        fill: #fcf4d4;
      }

      .cls-3 {
        fill: none;
      }
    </style>
  </defs>
  <g id="Layer_1-2" data-name="Layer 1">
    <g>
      <path class="cls-1" d="m6.48,68.06c-.82,0-2.11.26-2.88.02-.69-.21-1.48-1.2-1.86-1.8-.56-.87-.82-1.45-1.06-2.44-.1-.39-.29-.62-.28-1.16,0-.21.04-.51,0-.72-.05-.4-.22-.49-.29-.79-.2-.88-.13-1.67.28-2.43.46-.86.36-1.69.36-2.69,0-1.95-.3-4.22.18-6.09.93-3.62,2.66-7.16,5.46-9.94.5-.5.95-.99,1.52-1.34.84-.53,1.86-.37,2.86-.36s1.68.08,1.8-1.07c.11-1.03.36-1.76.35-2.88,0-.97.14-1.96.34-2.88.14-.65.76-1.39,1.05-2,.7-1.48,1.73-2.58,2.65-3.98.81-1.22,1.82-2.45,3.14-3.23.65-.39,1.15-.81,1.77-1.25.85-.6,1.66-.61,2.53-.98.58-.24,1.48-.6,1.88-1.06.66-.74.96-2.32,1.25-3.25.55-1.76,1.19-3.24,2.41-4.65,2.16-2.47,4.33-4.91,6.97-6.9,1.82-1.36,3.65-2.14,5.77-2.78.97-.29,2.04-.77,3.04-1.08S47.6.02,48.74,0c1.78-.02,3.72,1.24,5.09,2.41.72.62,1.61,1.43,2.01,2.32.21.47.14.89.43,1.35.24.38.5.65.81,1.02,1.71-.83,3.48-1.77,5.28-2.55.91-.39,1.88-.83,2.87-.99.52-.09.92-.08,1.43-.25.59-.19,1.18-.42,1.79-.45s1.14.06,1.71-.07c.36-.08.66-.28,1.16-.28.53,0,1.3-.14,1.81-.02.6.14.67.39,1.42.38,1.96-.04,3.78.83,5.52,1.8.71.4,1.41.86,2.1,1.34.79.55,1.76,1.11,2.43,1.88.62.71,1.08,1.54,1.68,2.25.2.23.46.54.71.72.7.49.72.13,1.38-.06.49-.14.76-.21,1.21-.4.22-.09.82-.31,1.07-.37.29-.07.62.08.91.03s.66-.3.89-.31c.51-.03,1.25.25,1.79.38.76.17,1.76.68,2.42,1.07.81.48,1.63.91,2.45,1.35,1.56.83,2.98,2.42,3.64,4.02.35.85.71,1.65,1.17,2.43.27.47.29.6.88.73.73.16.95-.25,1.48-.34.28-.05.61.05.89-.01.15-.04.34-.28.42-.3.46-.09,1.07-.19,1.55-.09.98.21,1.83.85,2.67,1.45.71.51,1.32,1.09,1.87,1.77.73.9,1.14,2.37,2.44,2.17,1.55-.24,3.72-1.27,5.03-2.24.89-.66,1.7-1.61,2.59-2.34s1.79-1.23,2.79-1.79c.84-.47,1.85-1.01,2.85-1.18s2.2.03,3.22.02c.76-.01.8.23,1.42.38.46.11,1.01-.15,1.47-.04.28.07.3.29.55.35.29.07.6-.05.89.01.36.08,1.1.46,1.43.64,1.78.96,3.78,2.45,5.08,3.96.7.81,1.28,1.15,1.61,2.23.39,1.27.38,2.26.44,3.58.11,2.56,3.29-.75,4.31-1.25.84-.42,1.63-.61,2.53-.89.62-.19.66-.38,1.42-.37.6,0,1.19,0,1.79,0,1.08-.02,1.99.43,2.61,1.35.36.54.94,1.96,1.55,2.2,1.08.43,1.6-1.26,1.94-1.95.58-1.2,1.38-2.05,2.5-2.78,1.76-1.15,3.83-1.33,5.92-1.34,1.99,0,3.52.89,5.11,1.87,1.85,1.14,3.54,3.3,4.48,5.2.33.67.7,1.34,1.03,2.02.2.4.48.84.59,1.3.14.59-.08,1.23.06,1.81s.3.73.37,1.42c.05.52.1.61.46.97.92.92,1.69.08,2.78.09.98.01,2.12-.19,3.04.16,1.15.44,2.11,1.68,2.69,2.7.17.31.54.84.64,1.16.13.45.05.89.16,1.35.23.94.42,2.49,1.73,2.17.7-.17,1.48-.77,2.13-1.09.33-.17.64-.3.99-.45.57-.25.93-.11,1.54-.25s.66-.39,1.42-.38c.48,0,.96-.04,1.43,0,1.17.06,2.45.45,3.58.81,2.25.71,4.54,1.39,6.63,2.64,2.09,1.25,3.82,3.02,5.47,4.79.68.73,1.39,1.23,2.16,1.89s.97,1.29,2.04,1.34,2.16-.06,3.23,0c.92.05,1.85.38,2.67.73.78.34,1.74.5,2.54.97s1.64,1.27,2.31,1.89c1.46,1.35,2.89,2.7,4.38,4.03,1.6,1.43,4.03,2.81,6.19,3.15,1.03.16,2.03.31,3.04.52.57.12,1.02.14,1.61.17.65.03,1.14.35,1.79.38.68.03.97.18,1.61.32.3.07.62-.06.91.01.16.04.34.28.42.3.51.11,1,.09,1.53.08.82-.01,1.21.24,1.97.38.44.08.98,0,1.43-.02.66-.01.79.23,1.29.33s1.06-.04,1.59.02c.42.05.93.44,1.31.38-1.39-.24-2.84.84-4.17,1.08-.8.14-1.7.26-2.51.35-.97.11-1.88.35-2.88.35-.81,0-1.43.32-2.22.37-.91.05-1.85,0-2.77,0-.83,0-1.69.06-2.53,0-.88-.06-1.59-.37-2.51-.37-1.98.01-3.77-.36-5.73-.36-2.41,0-4.83,0-7.24,0-6.18,0-12.37.04-18.55,0-1.47,0-2.85.39-4.3.37-1.67-.02-3.34,0-5.01,0-2.84,0-5.75.19-8.58.02-1.32-.08-2.52-.38-3.87-.38-.58,0-1.22.09-1.8.02-.76-.09-1.36-.38-2.14-.39-2.22-.02-4.33-.99-6.54-1.07s-4.42-1.04-6.67-1.39c-2.12-.33-4.28-.35-6.41-.72-.54-.09-1.07.05-1.6-.01-.5-.06-.95-.33-1.45-.4-.93-.11-1.92.08-2.86.03-.58-.03-.96-.3-1.51-.39-.45-.07-.99.02-1.44.02-1,0-1.99,0-2.99,0-.9,0-1.85.1-2.73-.08s-1.69-.4-2.61-.29-1.7.38-2.69.37c-.9,0-1.79,0-2.69,0s-1.78-.01-2.68,0c-.94.02-1.75.32-2.7.36-1.92.07-3.73.67-5.69.71-.95.02-1.75.37-2.72.36-.85,0-1.88-.16-2.69.03s-1.29.33-2.12.33c-.97,0-1.94,0-2.91,0-.82,0-1.65,0-2.47,0-1.08.01-1.99-.37-3.04-.36-.95.01-1.91,0-2.86,0-1.36,0-2.6-.38-3.95-.36-1.27.01-2.34-.15-3.58-.32-1.39-.2-2.89-.03-4.29-.03-1.29,0-2.68.14-3.96-.03-1.38-.19-2.74-.45-4.12-.66-1.07-.16-2.26-.03-3.35-.03-.59,0-1.2.04-1.79.01-.81-.04-1.56-.35-2.37-.39-2.45-.11-4.94.01-7.39.01-1.21,0-2.4-.08-3.58.18-1.31.29-2.62.02-3.94.21-1.13.16-2.23.46-3.35.66-.6.11-1.2-.03-1.8.06-.83.13-1.48.35-2.34.33-1.02-.02-1.87.32-2.85.37-1.1.05-2.15.37-3.22.34-1.01-.03-1.86.37-2.87.36s-1.96,0-2.94,0-1.98.01-2.98,0-1.81.31-2.76.37c-1.02.06-2.13-.17-3.14.02s-1.81.33-2.86.33c-1.85,0-3.64.18-5.38.64-.87.23-1.77.03-2.66.26-.8.2-1.56.02-2.36.16s-1.44.38-2.33.38c-.78,0-1.55,0-2.33,0s-1.55,0-2.33,0c-.85,0-1.52.37-2.33.37s-1.47-.38-2.33-.37c-.36,0-.72.02-1.08,0-.47-.02-.62-.18-.97-.28-.73-.21-1.53.09-2.26-.07s-1.12-.38-1.96-.37c-.35,0-.74.05-1.08,0-.43-.06-.55-.23-.92-.33-.67-.19-1.8-.16-1.22-.39Z"/>
      <path class="cls-2" d="m61.28,36.89c.24-1.12,2.49-1.44,3.4-1.43.72,0,1.43,0,2.15,0,.86,0,1.51.32,2.33.37,1.56.09,2.88.27,4.29.8s2.77,1.33,4.1,2.06c2.04,1.12,3.97,2.64,5.75,4.14,1.24,1.05,2.59,2.14,3.43,3.56.21.36.58,1.31,1.07,1.45.6.18.67-.59.98-1.02,1.73-2.39,4.63-2.05,7.26-2.05,1.62,0,3.13.06,4.66.44.62.15,1.2.53,1.77.66.35.08.72-.03,1.09.06.39.1.87.3,1.25.45,1.34.53,2.77,1.34,3.86,2.25.8.67.99,2.73,2.01,1.3.36-.5.57-1.32.42-1.95-.07-.29-.33-.39-.4-.68-.1-.43-.03-.83-.16-1.27-.38-1.31-.83-2.65-1.71-3.67-.93-1.09-2.04-1.78-3.22-2.52s-2.57-.85-3.85-1.41c-1.48-.65-3.14-1.13-4.83-.78-1.46.3-3.05,1.48-4.39,2.06-.71-.5-.47-1.71-.81-2.47-.29-.64-.63-1.26-1.15-1.77-.48-.47-1.17-1.18-1.79-1.35-.42-.12-.84-.07-1.27-.16-.39-.08-.63-.28-1.16-.28-.93.01-1.72-.13-2.5.36-.52.32-.91.8-1.43,1.16-.88.61-1.12.79-1.89,0-.54-.56-.94-.93-1.61-1.25-.9-.42-1.56-.64-2.6-.63s-1.57-.37-2.51-.36c-1.8.03-3.54-.7-5.37-.38s-3.92,1.03-5.39,2.44c-.5.48-1.08,1.2-1.51,1.78-.49.67-.73,1.62-.26.1Z"/>
      <path class="cls-3" d="m182.36,39.4c-.09-.34.01-.63.3-.81-.08-.76-1.78-1.07-2.36-1.42-.67-.4-.89-.63-1.7-.64-.66-.01-1.31,0-1.97,0-.72,0-1.13.11-1.79.28-.39.1-.72-.02-1.09.06-.25.06-.32.29-.55.34-.63.15-1.34.2-1.96.38-.45.13-.83.55-1.27.69-2.11.68-3.79,1.73-5.43,3.35-.8.79-1.45,1.71-1.98,2.7-.2.38-.41.77-.62,1.15-.36.69-.37.73,0,1.43"/>
      <path class="cls-2" d="m203.13,43.7c0-.17.07-.29.2-.37-.47-.71-1.84.12-2.43.29-.54.15-1.14.08-1.71.08s-1.18-.2-1.71-.2c-.43,0-1,.2-1.51.2-.6,0-1.19,0-1.79,0-1.13-.02-2.09.53-3.23.73-1.06.19-2.31-.04-3.22-.37-1.12-.4-2.21-.43-3.41-.37-1,.05-1.94.54-2.68,1.26-.54.52-.95,1.8-1.72,1.93-.25-.68.07-1.24-.33-1.85-.3-.45-.84-.63-1.27-.88-1.03-.61-1.95-1.09-3.12-1.53-2.37-.9-6.03-.48-8.42.03s-4.53,2.22-6.18,4c-.88.95-1.7,1.97-2.32,3.05-.27.47-.68.93-.96,1.39-.25.43-.57,1.43-1.04,1.54-.21-.58-.13-1.54,0-2.12.08-.32.26-.67.37-1,.07-.22.2-.73.3-.94.12-.25.38-.33.52-.55.17-.28.18-.62.34-.92.27-.51.72-1.17,1.08-1.62,1.5-1.85,3.7-3.55,5.92-4.29,1.14-.38,2.33-1.03,3.57-1.34.72-.18,1.43-.17,2.15-.36s1.44-.07,2.15-.08c.78-.01,1.08.28,1.78.37s1.17.12,1.79.34c1.27.45,2.36.87,3.52,1.41.07-.57.34-.89.45-1.38.16-.71-.11-.93.51-1.46.92-.78,1.85-.71,3.05-.71,2.4,0,4.23,1.01,6.23,2.15.88.5,1.79.82,2.72,1.25.53.24.84.47,1.42.55.3.04.63-.08.92-.02.26.05.41.24.6.29.57.16,1.14,0,1.72.07s.83.34,1.34.3c.1,0,.6-.27.8-.3.29-.04.61,0,.9,0,.66,0,1.31,0,2.69,1.43Z"/>
    </g>
  </g>
</svg>