<?xml version="1.0" encoding="UTF-8"?>
<svg id="Layer_2" data-name="Layer 2" xmlns="http://www.w3.org/2000/svg" viewBox="0 0 130.34 50.19">
  <defs>
    <style>
      .cls-1 {
        fill: #fcf4d4;
      }

      .cls-2 {
        fill: #f9dc5c;
        opacity: .81;
      }
    </style>
  </defs>
  <g id="Layer_1-2" data-name="Layer 1">
    <g>
      <path class="cls-2" d="m8.64,41.92l-.06.3c-.48.06-1.09-.09-1,.55.07.51.7.55,1.05.59,1.14.12,2.14-.01,3.23.27.93.24,2.08.08,3.04.08.48,0,.96.02,1.43,0,.67-.02,1.15-.29,1.79-.38,1.76-.23,3.71.01,5.48.01,1.94,0,3.96-.2,5.8.28.56.15,1.15.06,1.72.11,1.51.12,2.88.33,4.41.33.75,0,1.8-.19,2.52-.02.65.16,1.03.38,1.74.38,1.2-.02,2.41,0,3.61,0,3.13,0,6.21.36,9.32.36,3.29,0,6.67-.09,9.79,1.05,2.08.76,4.45,1.35,6.64,1.44,2.42.1,4.84.3,7.26.39,3.17.13,6.26-.38,9.42-.38h11.56c4.19,0,8.42-.23,12.58.36,2.04.29,4.11.3,6.12.71,2.34.47,4.72.67,7.08.99,1.91.26,5.13,1.64,6.91.21.83-.67-.65-1.4-1.27-1.9-1.24-.99-2.71-1.9-3.86-3.12-2.56-2.73-5.46-5.44-7.12-8.83-.87-1.78-1.98-3.18-3.56-4.45-1.4-1.14-2.98-2.13-4.65-2.86-.76-.33-1.66-.67-2.5-.81-.58-.1-1.03,0-1.61-.16-.63-.17-1.11-.19-1.79-.18-.93.01-1.5-.18-2.07-.98-.5-.7-.94-1.89-1.25-2.68-1.36-3.55-5.07-7.49-9.22-7.44-.96.01-1.88-.02-2.7.35-.37.17-.6.45-1.06.4-.77-.09-.76-.88-.99-1.47-.7-1.8-1.6-3.17-3.32-4.2-.83-.5-1.72-.91-2.68-1.16-.47-.12-.95-.24-1.43-.4-.64-.22-1.13-.21-1.76-.34-.25-.05-.27-.28-.55-.35-.24-.05-.52.09-.76.04-.29-.07-.76-.27-1.05-.37-.49-.18-.91-.36-1.44-.38-.72-.03-1.11-.25-1.79-.37-.98-.17-2.13.05-2.94.3-.69.21-1.76.35-2.34.86-1.58,1.37-2.55,3.32-4.03,4.77-.4.39-1.2,1.68-1.79,1.65-.53-.03-1.33-1.19-1.7-1.56-1.42-1.42-2.61-3.2-4.11-4.48-3.48-2.96-7.42-5.07-11.74-6.62-1.09-.39-2.14-.95-3.22-1.35s-2.16-.72-3.22-.99c-.49-.13-.95.02-1.43-.06-.62-.11-.96-.37-1.61-.38-1.21-.03-2.28-.01-3.4.28-.5.13-.94.01-1.44.07s-.59.24-1.05.38c-.59.18-1.05.15-1.64.53-.46.3-.92.59-1.39.9-1.89,1.25-3.59,2.83-4.95,4.64-.64.85-1.15,1.85-1.67,2.75s-.58,1.98-.84,3-.29,1.82-.28,2.87c.01,1.1-.33,2.37-.67,3.4-.38,1.16-.83,2.18-2.11,1.17-1-.79-1.17-1.31-2.59-1.35-1.99-.05-3.34,1.3-3.59,3.21-.11.88.33,1.79-.43,2.43-.24.21-.87.37-1.16.45-.51.14-.94.2-1.43.35-1.66.51-2.54,1.86-3.32,3.3-.49.92-.85,1.79-1.09,2.78-.11.46-.07.9-.16,1.35-.02.12-.25.24-.3.42-.07.28.02.8.02,1.09,0,.86.32,1.7.63,2.52.35.92.66,1.93,1.37,2.68,1.87,1.97,3.78,3.06,6.6,2.69Z"/>
      <path class="cls-1" d="m21.18,22.94l-.24-.07c.34-.75,1.68-.73,2.39-.93.78-.22,1.73.15,2.52.26.65.09,1.37.53,2.03.7,1.84.49,3.71,1.15,5.48,1.83s3.11,1.36,4.66,2.42c.68.46,1.29.85,1.88,1.43.4.39.59,1.13,1.02,1.38-.56-.32-.59-1.14-.74-1.64-.27-.86-.54-1.74-.99-2.53-.63-1.11-1.33-1.66-2.32-2.41-.49-.37-1.28-.49-1.8-.71-.56-.24-1.02-.53-1.52-.8-.53-.29-1.07-.65-1.62-.98-.36-.22-.53-.3-.88-.45-.32-.13-.6-.05-.82-.43-.19-.33-.02-.67-.06-1.01-.06-.47-.14-.66-.37-1.07-.31-.55-.72-.95-1.15-1.41-.62-.66-1.23-1.34-2.07-1.73-.53-.25-1.58-.73-2.17-.46-1.02.46,1.26,2.07,1.74,2.53.7.68,2.37,2.43,2.25,3.45-1-1.05-1.74-1.19-3.06-.54-.89.43-3.04,1.57-4.13,3.18Z"/>
      <path class="cls-1" d="m67.39,21.5c.31-1.6,2.56-1.11,3.58-.72,1.58.61,3.16.99,4.71,1.79,1.7.88,3.32,1.81,4.88,2.89,2.64,1.84,5.27,3.35,7.46,5.75-.27-.35-.46-.75-.74-1.12-.3-.4-.59-.71-.81-1.16-.54-1.11-.9-2.11-1.2-3.31-.32-1.33-.48-2.42-.05-3.76.46-1.47,1.2-2.08,2.6-2.77.99-.49,2.52-.83.89-1.52-1.13-.48-2.01-.19-3.13.27-.97.4-1.66,1.27-2.07,2.23-.17.41-.24.9-.44,1.36-.18.41-.22,1.08-.63,1.38-.46-.43-.6-1.05-1.06-1.47-.49-.44-1.23-.87-1.8-1.25-1.19-.81-2.38-1.51-3.77-1.76-.76-.14-1.57-.3-2.33-.39s-1.35-.36-2.15-.36c-1.09,0-3.97.55-3.94,3.94Z"/>
    </g>
  </g>
</svg>