<?xml version="1.0" encoding="UTF-8"?>
<svg id="Layer_2" data-name="Layer 2" xmlns="http://www.w3.org/2000/svg" viewBox="0 0 60.54 24.42">
  <defs>
    <style>
      .cls-1 {
        fill: #fcf4d4;
      }
    </style>
  </defs>
  <g id="Layer_1-2" data-name="Layer 1">
    <path class="cls-1" d="m1.66,21.85c.91.01,1.65.15,2.51.35,1.02.24,1.8.75,2.87.73.93-.02,1.65.37,2.58.36,1.41-.02,2.82,0,4.23,0,1.54,0,3.08-.01,4.63,0s3.08-.36,4.68-.36,3.1.33,4.67.37,3.09.17,4.64.32c1.8.17,3.6.66,5.42.75,1.2.06,2.43-.02,3.64-.02,1.04,0,2.09,0,3.13,0s2-.3,3.04-.36c.87-.05,1.5.32,2.33.37s1.85.1,2.69,0c1.7-.2,3.09-.84,4.57-1.72,1.15-.69,2.25-1.66,2.88-2.95.68-1.38.24-3.66.25-5.19.03-3.47-2.62-6.8-5.37-8.69-1.49-1.02-2.94-1.57-4.66-1.9-.47-.09-.83.11-1.25.2s-.82.09-1.25.16c-.65.1-1.64.52-2.16.91-.41.3-.69.96-1.14,1.19-.26.13-.92.18-1.2.09-.54-.17-.39-.28-.69-.74-.33-.51-1.03-1.15-1.43-1.6-.73-.81-1.54-1.7-2.32-2.42C37.58.46,35.47.01,33.72,0s-3.69,1.16-5.19,1.96c-.92.48-1.82,1.25-2.7,1.81-.75.48-1.13,1.01-1.6,1.75-.55.87-1.04,1.47-1.08,2.54-.04.95.2,2.1-.07,3.01-1.05-.36-2.27-1.65-3.51-1.41s-2.21.68-2.95,1.79-.67,2.67-1.38,3.74c-.77,1.15-1.8,1.07-3.02,1.28-1.11.19-2.3,1.08-3.39,1.55s-2.16.9-3.21,1.34c-.21.09-.59.16-.81.26-.26.11-.48.24-.72.36-.48.24-.96.49-1.43.72-.98.48-1.77,1.11-2.65,1.8.08.03.15.05,1.66-.64Z"/>
  </g>
</svg>