<?xml version="1.0" encoding="UTF-8"?>
<svg id="Layer_2" data-name="Layer 2" xmlns="http://www.w3.org/2000/svg" viewBox="0 0 56.39 107.66">
  <defs>
    <style>
      .cls-1 {
        fill: #f9dc5c;
      }
    </style>
  </defs>
  <g id="Layer_1-2" data-name="Layer 1">
    <path class="cls-1" d="m5.23,48.02c-.15-.41.42-.15.56-.14.41.04.87-.04,1.29-.06.46-.02.88-.02,1.32-.14.34-.09.68-.21,1.03-.28.39-.07.78-.09,1.16-.18.52-.12,1-.35,1.51-.49.49-.14.95-.37,1.42-.55.54-.19,1.07-.47,1.57-.75.98-.57,1.94-1.19,2.87-1.82.86-.58,1.56-1.5,2.19-2.31.35-.45.73-.86,1.07-1.31.38-.5.69-1.09.96-1.65.48-.96.84-2.01,1.17-3.03.4-1.26.89-2.5,1.14-3.8.23-1.17.57-2.35.64-3.54.04-.66.18-1.31.32-1.96.15-.72.16-1.47.29-2.2.13-.68.21-1.34.28-2.03.06-.6.2-1.18.24-1.78.08-1.39.34-2.78.47-4.17.22-2.31.59-4.66.63-6.99.02-1.06.21-2.13.29-3.19.06-.85.18-1.69.25-2.54.05-.66.08-1.36.21-2,.04-.19.12-.38.15-.57.04-.22-.03-.32.1-.54-.19.32-.09.75-.08,1.11.03.58-.04,1.25.1,1.81.2.77.04,1.49.07,2.27.05,1.03.09,2.06.13,3.08.11,2.57.23,5.14.34,7.72.06,1.46.01,2.91.08,4.37.07,1.69.02,3.43.25,5.11.2,1.5.25,3.02.42,4.52.05.42.14.84.21,1.26s.06.83.13,1.23c.14.76.35,1.51.5,2.27.26,1.34.7,2.62,1.11,3.93s.97,2.39,1.52,3.57c.68,1.47,1.67,2.92,3.01,3.86,1.65,1.15,3.61,1.82,5.57,2.22s3.88.45,5.81.45c.85,0,1.7.1,2.55.11s1.75-.05,2.64-.02c.68.02,1.36,0,2.04.07.23.02.5.02.72.06.24.04,1.08.24.86.57-.07.1-.32.18-.42.2-.18.04-.33.07-.51.12-.42.12-.83.23-1.26.34-1.63.41-3.26.84-4.93.98-.42.03-.81.16-1.23.17-.56.02-1.15,0-1.7.1-1.16.21-2.36.25-3.53.44-1.05.17-2.12.3-3.14.62-.96.31-1.91.49-2.82.92-.36.17-.65.35-.96.58-.21.15-.45.21-.66.34s-.36.31-.53.5c-.68.76-1.21,1.62-1.71,2.51-.55.99-1.03,2.13-1.37,3.22-.17.53-.29,1.07-.47,1.6-.14.41-.16.84-.26,1.26-.11.47-.29.91-.39,1.39-.32,1.6-.6,3.2-.87,4.81s-.72,3.2-.81,4.81c-.05.98-.31,1.92-.45,2.88s-.18,1.85-.33,2.77c-.18,1.07-.2,2.14-.37,3.2-.08.48-.09.95-.13,1.43-.05.58-.18,1.14-.22,1.71-.26,3.64-.48,7.28-.71,10.92-.04.68-.09,1.36-.11,2.05,0,.33-.05.66-.06.99-.01.4.06.8.02,1.21-.05.5-.01.97-.02,1.47,0,.42-.09.82-.06,1.25.03.68.06,1.37.09,2.05.02.37.13.88.03,1.23-.27-.07-.22-.63-.24-.86-.02-.25-.12-.45-.15-.7-.06-.45-.02-.92-.05-1.37s-.16-.89-.18-1.35c-.02-.5-.02-1-.06-1.5-.05-.68-.18-1.33-.21-2.01-.03-.84-.2-1.66-.22-2.49s-.15-1.67-.25-2.49-.16-1.57-.27-2.35c-.27-1.97-.51-3.95-.72-5.92-.4-3.78-.85-7.56-1.46-11.31-.59-3.61-1.26-7.2-1.9-10.8-.29-1.64-.6-3.27-1.04-4.88-.39-1.44-.72-2.94-1.38-4.28-.5-1.03-.98-2.04-1.64-2.97-.29-.41-.63-.73-.93-1.12-.32-.42-.69-.8-1.14-1.09-1.45-.93-3.26-1.57-4.98-1.65-.89-.04-1.79-.09-2.68-.2-.43-.05-.85.06-1.27,0s-.82-.06-1.25-.03-.83-.05-1.26-.06c-.19,0-.37.04-.56.02s-.38-.08-.57-.09c-.39,0-.74.07-1.12,0-.27-.05-.73.06-.93-.13"/>
  </g>
</svg>