<?xml version="1.0" encoding="UTF-8"?>
<svg id="Layer_2" data-name="Layer 2" xmlns="http://www.w3.org/2000/svg" viewBox="0 0 167.26 143.51">
  <defs>
    <style>
      .cls-1, .cls-2 {
        fill: #f9dc5c;
      }

      .cls-3 {
        fill: #2a3c24;
      }

      .cls-4 {
        fill: #9b819a;
      }

      .cls-2 {
        opacity: .68;
      }

      .cls-5 {
        fill: #a690a4;
      }
    </style>
  </defs>
  <g id="Layer_1-2" data-name="Layer 1">
    <g>
      <path class="cls-3" d="m108.93,46.01c-.75-3.4-7.16-3.6-9.68-3.22-4.87.73-8.69,2.74-12.51,5.79-4.67,3.73-7.3,10.61,1.01,12.3,6.86,1.4,22.84-8.53,23.05-11.35.12-1.68-.53-4.14-1.86-3.52Z"/>
      <path class="cls-5" d="m114.37,44.79c-3.79.88-7.36,2.11-11.12,3.2-3.83,1.1-7.43,2.79-11.1,4.47-7.41,3.4-15.21,6.1-20.94,11.84-2.53,2.53-5.78,5.34-4.84,9.22,1.07,4.41,10.05,2.08,13.25,1.36,7.27-1.64,14.6-4.52,21.53-7.37,5.28-2.17,10.44-4.64,15.45-7.38,2.13-1.16,3.58-2.47,5.47-3.85,1.59-1.16,3.42-1.92,5.08-2.97,1.94-1.22,4.2-2.52,5.25-4.76,1.11-2.38-.26-4.51-2.74-4.73-4.56-.4-9.32-.26-13.82.65-.49.1-.98.21-1.47.32Z"/>
      <path class="cls-4" d="m103.14,51.35c-1.88.37-3.99,1.77-5.9,2.54-2.74,1.1-5.35,2.33-7.94,3.67-4.84,2.49-9.59,5.08-14.23,7.79-2.6,1.52-7.64,4.5-8.52,7.71-1.22,4.43,8.94,3.07,11.18,2.9,6.76-.51,13.37-3.59,19.65-5.82,5.36-1.91,10.76-4.43,15.96-6.83,4.1-1.89,8.23-4.19,11.79-6.88,2.53-1.92,7.43-5.34,8.22-8.66.96-4.04-10.44-1.49-12.33-1.05-5.2,1.22-10.54,2.74-15.56,4.49-2.02.7-3.62,1.9-5.5,2.85"/>
      <path class="cls-5" d="m113.11,59.12c-.19-.12-.4-.23-.61-.31-3.55-1.41-8.71.59-12.1,1.72-4.68,1.55-9.55,3.32-13.02,6.99-.53.55-1.52,1.77-1.52,2.63,0,.97,1.01,1.53,1.82,2.15,1.61,1.23,3.8,1.12,5.78.53,4.43-1.32,8.56-3.78,12.52-5.85,2.05-1.07,8.42-2.6,8.45-5.65,0-.93-.56-1.71-1.32-2.21Z"/>
      <path class="cls-1" d="m89.92,72.66c-.7-1.79,7.12-4.92,8.54-5.5,3.31-1.33,6.61-2.55,9.97-3.53.98-.29,4.29-1.73,4.78-.29.35,1.04-1.94,3.13-2.6,3.72-2.66,2.36-5.86,4.68-9.16,6.18s-8.56,2.53-11.53-.58Z"/>
      <path class="cls-2" d="m92.51,73.2c-.24,3.77.8,8.06,1.47,11.91.66,3.77.99,7.56,1.61,11.32s1.73,7.56,2.51,11.38c2.01,9.86,1.98,20.18,3.83,29.95.26,1.37.58,2.7.97,4.04.51,1.74.73,2.01,2.54,1.43,5.92-1.91,12.22-3.78,18.43-5,7-1.38,13.92-.99,20.99-1.47,3.3-.22,6.59.17,9.9.43,2.96.23,5.87.11,8.75.72.74.16,3.28,1.08,3.69.3s-1.98-3.53-2.39-4.11c-2.63-3.73-6.25-7.05-9.3-10.46-3.45-3.86-6.52-7.97-9.67-12.11-3.37-4.44-7.18-8.56-10.51-13.02-5.51-7.38-9.87-15.54-14.74-23.17-1.59-2.49-3.23-4.83-5-7.09-.79-1.01-1.47-2.23-2.39-3.07-1.35-1.23-1.87-.33-3.18.45-2.26,1.36-4.81,2.77-7.27,3.75s-4.91,1.37-7.31,2.47c-.88.4-2.04,1.34-2.94,1.34Z"/>
      <path class="cls-1" d="m29.25,38.71c-.07-.18.18-.07.25-.06.18.02.39-.02.57-.03.2,0,.39,0,.59-.06.15-.04.3-.09.46-.12.17-.03.34-.04.52-.08.23-.05.44-.16.67-.22.22-.06.42-.17.63-.24.24-.09.47-.21.7-.33.43-.25.86-.53,1.28-.81.38-.26.69-.66.97-1.03.15-.2.32-.38.48-.58.17-.22.3-.49.43-.73.21-.42.37-.89.52-1.35.18-.56.39-1.11.51-1.69.1-.52.25-1.04.28-1.57.02-.29.08-.58.14-.87.07-.32.07-.65.13-.98.06-.3.09-.6.12-.9.03-.26.09-.52.11-.79.04-.62.15-1.23.21-1.85.1-1.03.26-2.07.28-3.1,0-.47.09-.94.13-1.42.03-.38.08-.75.11-1.13.02-.29.04-.6.09-.89.02-.09.05-.17.07-.25.02-.1-.01-.14.04-.24-.09.14-.04.33-.03.49.01.26-.02.56.05.8.09.34.02.66.03,1.01.02.46.04.91.06,1.37.05,1.14.1,2.28.15,3.42.03.65,0,1.29.03,1.94.03.75,0,1.52.11,2.27.09.67.11,1.34.19,2.01.02.19.06.37.09.56s.02.37.06.55c.06.34.16.67.22,1.01.12.6.31,1.16.49,1.75s.43,1.06.67,1.59c.3.65.74,1.3,1.34,1.71.73.51,1.6.81,2.47.99s1.72.2,2.58.2c.38,0,.75.04,1.13.05s.78-.02,1.17,0c.3,0,.6,0,.91.03.1,0,.22,0,.32.03.11.02.48.11.38.25-.03.04-.14.08-.19.09-.08.02-.15.03-.22.05-.19.05-.37.1-.56.15-.72.18-1.45.37-2.19.43-.19.02-.36.07-.55.08-.25,0-.51,0-.76.04-.52.09-1.05.11-1.57.2-.46.08-.94.13-1.39.27-.43.14-.85.22-1.25.41-.16.08-.29.16-.43.26-.09.07-.2.09-.29.15s-.16.14-.23.22c-.3.34-.54.72-.76,1.11-.24.44-.46.95-.61,1.43-.07.24-.13.48-.21.71-.06.18-.07.37-.12.56-.05.21-.13.41-.17.62-.14.71-.27,1.42-.38,2.13s-.32,1.42-.36,2.14c-.02.43-.14.85-.2,1.28s-.08.82-.15,1.23c-.08.47-.09.95-.16,1.42-.04.21-.04.42-.06.63-.02.26-.08.51-.1.76-.11,1.61-.21,3.23-.32,4.84-.02.3-.04.61-.05.91,0,.15-.02.29-.03.44,0,.18.03.36,0,.54-.02.22,0,.43,0,.65,0,.19-.04.36-.03.55.01.3.03.61.04.91,0,.16.06.39.01.55-.12-.03-.1-.28-.1-.38,0-.11-.05-.2-.07-.31-.03-.2,0-.41-.02-.61s-.07-.39-.08-.6c0-.22,0-.45-.03-.67-.02-.3-.08-.59-.09-.89-.01-.37-.09-.73-.1-1.11s-.07-.74-.11-1.11-.07-.7-.12-1.04c-.12-.87-.22-1.75-.32-2.63-.18-1.68-.38-3.35-.65-5.02s-.56-3.19-.84-4.79c-.13-.73-.27-1.45-.46-2.17-.17-.64-.32-1.3-.61-1.9-.22-.46-.44-.91-.73-1.32-.13-.18-.28-.32-.41-.5-.14-.19-.3-.36-.5-.48-.64-.41-1.45-.7-2.21-.73-.39-.02-.8-.04-1.19-.09-.19-.02-.38.03-.56,0s-.36-.03-.56-.02-.37-.02-.56-.03c-.08,0-.17.02-.25,0s-.17-.04-.25-.04c-.17,0-.33.03-.5,0-.12-.02-.32.03-.41-.06"/>
      <path class="cls-1" d="m2.22,10.09c.14.04.15-.07.26-.09s.24.03.36,0c.13-.03.22-.09.35-.09.17,0,.28-.02.44-.07.2-.05.42-.01.62-.06.23-.06.47-.1.7-.2.79-.34,1.59-.71,2.09-1.43.12-.17.27-.33.4-.51.14-.2.22-.42.33-.64.2-.38.35-.87.45-1.27.02-.08.06-.18.09-.27s.05-.22.08-.31.06-.17.09-.26c.04-.12.06-.22.11-.35.08-.2.18-.45.22-.64.03-.11.06-.22.09-.33.03-.13,0-.26.03-.4.12-.54.19-1.09.32-1.63.07-.26.04-.54.1-.8.05-.23.22-.5.18-.76,0,.22.04.47-.02.68-.07.26-.05.52-.09.79-.06.48-.07.96-.07,1.45,0,.47-.09,1.04,0,1.5.03.14.08.2.08.35,0,.14,0,.22.04.35.03.12.03.23.05.35.01.06.06.11.07.18.02.07-.01.15,0,.22.04.19.19.43.29.61.05.1.11.17.18.26.07.1.11.24.17.33.22.3.42.6.68.86.28.28.54.49.9.64.4.17.77.32,1.14.53.49.27,1.07.19,1.56.38.43.17,1.07.11,1.56.08-.06.09-.33.22-.43.25-.23.07-.49.07-.73.12-.14.03-.2.08-.35.08-.12,0-.23,0-.35,0-.25,0-.5,0-.75,0-.23,0-.37.09-.62.09-.13,0-.19.05-.28.07-.13.03-.26,0-.38.02-.1.02-.16.07-.26.09-.11.02-.24-.03-.36,0-.19.03-.4.16-.56.29-.72.54-1.09,1.45-1.32,2.27-.11.4-.19.8-.26,1.23-.02.13-.09.22-.1.35,0,.14-.03.22-.07.35-.03.12-.02.23-.02.35,0,.17-.06.21-.09.35-.02.1,0,.25,0,.36,0,.17-.06.21-.09.35-.06.23,0,.56,0,.8,0,.17-.06.28-.09.44-.02.11,0,.24,0,.35,0,.13.03.32,0,.44-.03.14-.12.14-.09.32-.03-.22.09-.45.09-.68s0-.47,0-.7,0-.47,0-.7c0-.11.02-.25,0-.35-.03-.15-.09-.24-.09-.4,0-.21.04-.46,0-.66-.02-.13-.09-.22-.09-.35s.02-.27,0-.4c-.11-.48-.25-.97-.34-1.45-.15-.73-.28-1.46-.86-2.04-.12-.12-.26-.21-.39-.31-.05-.04-.14-.07-.2-.11-.08-.05-.16-.11-.24-.15-.2-.1-.36-.11-.59-.11s-.41-.09-.65-.1c-.1,0-.2,0-.32.01-.04,0-.12.05-.15.05-.05,0-.09-.06-.15-.05-.14.01-.26.13-.4.1-.12-.02-.15-.09-.3-.1-.13,0-.27.02-.4,0s-.19-.07-.3-.09c-.09-.02-.3-.02-.4,0-.15.03-.22.14-.88.18Z"/>
      <path class="cls-1" d="m0,51.6c.14.04.15-.07.26-.09s.24.03.36,0c.13-.03.22-.09.35-.09.17,0,.28-.02.44-.07.2-.05.42-.01.62-.06.23-.06.47-.1.7-.2.79-.34,1.59-.71,2.09-1.43.12-.17.27-.33.4-.51.14-.2.22-.42.33-.64.2-.38.35-.87.45-1.27.02-.08.06-.18.09-.27s.05-.22.08-.31.06-.17.09-.26c.04-.12.06-.22.11-.35.08-.2.18-.45.22-.64.03-.11.06-.22.09-.33.03-.13,0-.26.03-.4.12-.54.19-1.09.32-1.63.07-.26.04-.54.1-.8.05-.23.22-.5.18-.76,0,.22.04.47-.02.68-.07.26-.05.52-.09.79-.06.48-.07.96-.07,1.45,0,.47-.09,1.04,0,1.5.03.14.08.2.08.35,0,.14,0,.22.04.35.03.12.03.23.05.35.01.06.06.11.07.18.02.07-.01.15,0,.22.04.19.19.43.29.61.05.1.11.17.18.26.07.1.11.24.17.33.22.3.42.6.68.86.28.28.54.49.9.64.4.17.77.32,1.14.53.49.27,1.07.19,1.56.38.43.17,1.07.11,1.56.08-.06.09-.33.22-.43.25-.23.07-.49.07-.73.12-.14.03-.2.08-.35.08-.12,0-.23,0-.35,0-.25,0-.5,0-.75,0-.23,0-.37.09-.62.09-.13,0-.19.05-.28.07-.13.03-.26,0-.38.02-.1.02-.16.07-.26.09-.11.02-.24-.03-.36,0-.19.03-.4.16-.56.29-.72.54-1.09,1.45-1.32,2.27-.11.4-.19.8-.26,1.23-.02.13-.09.22-.1.35,0,.14-.03.22-.07.35-.03.12-.02.23-.02.35,0,.17-.06.21-.09.35-.02.1,0,.25,0,.36,0,.17-.06.21-.09.35-.06.23,0,.56,0,.8,0,.17-.06.28-.09.44-.02.11,0,.24,0,.35,0,.13.03.32,0,.44-.03.14-.12.14-.09.32-.03-.22.09-.45.09-.68s0-.47,0-.7,0-.47,0-.7c0-.11.02-.25,0-.35-.03-.15-.09-.24-.09-.4,0-.21.04-.46,0-.66-.02-.13-.09-.22-.09-.35s.02-.27,0-.4c-.11-.48-.25-.97-.34-1.45-.15-.73-.28-1.46-.86-2.04-.12-.12-.26-.21-.39-.31-.05-.04-.14-.07-.2-.11-.08-.05-.16-.11-.24-.15-.2-.1-.36-.11-.59-.11s-.41-.09-.65-.1c-.1,0-.2,0-.32.01-.04,0-.12.05-.15.05-.05,0-.09-.06-.15-.05-.14.01-.26.13-.4.1-.12-.02-.15-.09-.3-.1-.13,0-.27.02-.4,0s-.19-.07-.3-.09c-.09-.02-.3-.02-.4,0-.15.03-.22.14-.88.18Z"/>
      <path class="cls-1" d="m17.75,77.79c.14.04.15-.07.26-.09s.24.03.36,0c.13-.03.22-.09.35-.09.17,0,.28-.02.44-.07.2-.05.42-.01.62-.06.23-.06.47-.1.7-.2.79-.34,1.59-.71,2.09-1.43.12-.17.27-.33.4-.51.14-.2.22-.42.33-.64.2-.38.35-.87.45-1.27.02-.08.06-.18.09-.27s.05-.22.08-.31.06-.17.09-.26c.04-.12.06-.22.11-.35.08-.2.18-.45.22-.64.03-.11.06-.22.09-.33.03-.13,0-.26.03-.4.12-.54.19-1.09.32-1.63.07-.26.04-.54.1-.8.05-.23.22-.5.18-.76,0,.22.04.47-.02.68-.07.26-.05.52-.09.79-.06.48-.07.96-.07,1.45,0,.47-.09,1.04,0,1.5.03.14.08.2.08.35,0,.14,0,.22.04.35.03.12.03.23.05.35.01.06.06.11.07.18.02.07-.01.15,0,.22.04.19.19.43.29.61.05.1.11.17.18.26.07.1.11.24.17.33.22.3.42.6.68.86.28.28.54.49.9.64.4.17.77.32,1.14.53.49.27,1.07.19,1.56.38.43.17,1.07.11,1.56.08-.06.09-.33.22-.43.25-.23.07-.49.07-.73.12-.14.03-.2.08-.35.08-.12,0-.23,0-.35,0-.25,0-.5,0-.75,0-.23,0-.37.09-.62.09-.13,0-.19.05-.28.07-.13.03-.26,0-.38.02-.1.02-.16.07-.26.09-.11.02-.24-.03-.36,0-.19.03-.4.16-.56.29-.72.54-1.09,1.45-1.32,2.27-.11.4-.19.8-.26,1.23-.02.13-.09.22-.1.35,0,.14-.03.22-.07.35-.03.12-.02.23-.02.35,0,.17-.06.21-.09.35-.02.1,0,.25,0,.36,0,.17-.06.21-.09.35-.06.23,0,.56,0,.8,0,.17-.06.28-.09.44-.02.11,0,.24,0,.35,0,.13.03.32,0,.44-.03.14-.12.14-.09.32-.03-.22.09-.45.09-.68s0-.47,0-.7,0-.47,0-.7c0-.11.02-.25,0-.35-.03-.15-.09-.24-.09-.4,0-.21.04-.46,0-.66-.02-.13-.09-.22-.09-.35s.02-.27,0-.4c-.11-.48-.25-.97-.34-1.45-.15-.73-.28-1.46-.86-2.04-.12-.12-.26-.21-.39-.31-.05-.04-.14-.07-.2-.11-.08-.05-.16-.11-.24-.15-.2-.1-.36-.11-.59-.11s-.41-.09-.65-.1c-.1,0-.2,0-.32.01-.04,0-.12.05-.15.05-.05,0-.09-.06-.15-.05-.14.01-.26.13-.4.1-.12-.02-.15-.09-.3-.1-.13,0-.27.02-.4,0s-.19-.07-.3-.09c-.09-.02-.3-.02-.4,0-.15.03-.22.14-.88.18Z"/>
    </g>
  </g>
</svg>