<?xml version="1.0" encoding="UTF-8"?>
<svg id="Layer_2" data-name="Layer 2" xmlns="http://www.w3.org/2000/svg" viewBox="0 0 374.8 258.56">
  <defs>
    <style>
      .cls-1 {
        stroke: #000;
      }

      .cls-1, .cls-2 {
        stroke-miterlimit: 10;
      }

      .cls-1, .cls-2, .cls-3 {
        fill: none;
      }

      .cls-4, .cls-5 {
        fill: #a690a4;
      }

      .cls-2 {
        stroke: #2a3c24;
        stroke-width: .5px;
      }

      .cls-5 {
        opacity: .45;
      }

      .cls-6 {
        fill: #8e7d8d;
      }
    </style>
  </defs>
  <g id="Layer_1-2" data-name="Layer 1">
    <g>
      <path class="cls-3" d="m352,258.32l.35.24"/>
      <path class="cls-1" d="m179.92,238.7c.58.21.87.7.85,1.29l-.26-.21"/>
      <path class="cls-4" d="m373.26,2.56c.21.23.56.29.78.5.6.58.93,1.5.68,2.33-.28.89-.59,1.55-.64,2.48-.03.55-.1.92-.2,1.4-.1.49-.07.79-.07,1.3-.01.92-.5,1.85-.67,2.75-.22,1.13-.15,2.21-.22,3.33-.09,1.76-.22,3.47-.39,5.23-.18,1.88-.97,3.48-1.42,5.28-.28,1.12-.53,2.2-.87,3.31-.27.88-.41,1.87-.72,2.65-.74,1.91-1.02,3.95-1.49,5.93-.26,1.07-.7,2.11-.91,3.19-.11.58-.28.93-.46,1.44-.13.38-.05.44-.09.8-.08.65-.15.53-.34,1.1-.29.86-.31,1.91-.58,2.83-.35,1.18-.55,2.37-.86,3.55-.53,2.02-.95,3.98-1.65,5.82-.78,2.01-1.15,4.25-1.89,6.31-.32.89-.7,1.64-.98,2.58-.32,1.08-.52,2.09-.81,3.15-.62,2.28-.48,4.57-.76,6.86-.25,2.04-.65,4.03-.97,5.98-.33,2.04-.94,4.13-1.3,6.15-.19,1.01-.63,1.91-.99,2.83-.15.37-.08.94-.19,1.26-.21.55-.47,1.06-.67,1.61-.17.46-.26.88-.4,1.29-.14.39-.21.88-.34,1.22-.19.47-.43.87-.61,1.34-.18.49-.25.98-.43,1.43-.09.22-.36.37-.46.59-.11.29.06.31,0,.51-.15.53-.32,1.02-.5,1.51-.19.52-.31,1.05-.62,1.53-.34.54-.31.87-.5,1.38-.16.4-.58.83-.84,1.18-.38.53-.39.94-.64,1.51-.46,1.03-1.08,1.97-1.5,3.01-.05.12.08.32.01.51-.09.22-.35.4-.45.6-.23.45-.1.66-.28,1.09-.09.22-.29.39-.43.6-.03.05-.05.1-.08.15-.14.31-.09.62-.23.93-.22.49-.71,1.01-1.02,1.47-.59.82-.73,1.71-1.34,2.55-.41.58-.4.9-.64,1.51-.23.56-.73.97-.97,1.52-.25.57-.26.98-.64,1.51-.28.38-.53.73-.7,1.16-.18.41-.19.77-.52,1.25-.31.43-.86,1-1.04,1.48-.17.46-.14.77-.39,1.23-.22.42-.58.78-.83,1.18-.29.47-.27.91-.5,1.39-.28.61-.58,1-.81,1.63-.19.52-.59.88-.82,1.39-.24.56-.31.96-.65,1.51-.5.8-.86,1.97-1.13,2.79-.16.46-.5.77-.71,1.19-.03.04-.05.1-.07.14-.23.53-.38.98-.66,1.51-.21.41-.12.69-.27,1.08-.09.23-.33.39-.45.6-.17.32-.11.58-.21.81-.19.47-.58.84-.78,1.32-.24.61-.24.94-.64,1.51-.27.37-.46.8-.69,1.16-.05.07.04.31-.07.46-.33.46-.55.19-.81.77-.41.95-.86,1.76-1.49,2.67l-1.93,2.8c-.58.84-1.16,1.67-1.73,2.51-.16.23-.33.45-.52.64.09.31.19.6.29.94.62,2.1,1.02,3.97,1.11,6.12.09,1.92.49,3.87.83,5.76.22,1.21.2,2.46.4,3.67.15.88.22,1.77.25,2.65.03,1.1-.37,2.3-.43,3.44-.05,1-.12,2.04-.14,3.06-.11,4.47-.65,9.04-1.32,13.41-.19,1.3-.43,2.69-.51,4.03-.03.73.03,1.37-.11,2.1-.13.63-.4,1.22-.53,1.84-.18.99-.61,1.99-.73,2.96-.12,1-.41,2.02-.66,3-.29,1.16-.21,2.4-.58,3.54-.3.93-.65,1.91-.88,2.86-.61,2.56-1.96,5.12-2.79,7.65-.42,1.29-1.03,2.52-1.59,3.74-.23.5-.22.87-.5,1.36-.32.59-.45,1.06-.72,1.69-.19.47-.67.84-.89,1.31-.13.31-.06.58-.24.94-.1.2-.3.44-.42.6-.43.61-.41,1.03-.7,1.69-.35.75-2,2.02-1.66,2.89-.38.26-.46.73-.7,1.15-.3.51-.7.98-1.02,1.47-.39.59-.86.78-1.33,1.26-.2.2-.3.5-.5.7-.15.15-.34.03-.49.18-.39.4-.68.85-1.08,1.19-.34.3-.82.6-1.19.92-.85.75-1.14,1.32-2.34,1.53-1.85.33-3.96.81-5.13-.93-.98-1.43-1.37-3.21-1.25-4.99.06-.77.26-1.59.35-2.36.09-.87-.04-1.74.03-2.6.12-1.63.36-3.38.63-5.01.31-1.96.75-3.92,1.03-5.92.31-2.16.02-4.47-.12-6.62-.06-.9-.08-1.89-.24-2.77-.08-.43-.35-.78-.38-1.22-.02-.34.12-.66.08-1.04-.09-.85-.28-1.69-.47-2.5-.09-.36-.02-.69-.04-1.01-.05-.48-.24-.98-.31-1.51-.21-1.87-.57-3.64-.86-5.49-.31-2.05-.26-4.14-.65-6.17-.17-.9-.23-1.75-.46-2.65-.18-.74-.24-1.5-.31-2.27-.08-.97-.36-2.08-.71-3-.28-.77-.41-1.47-.61-2.27-.11-.43-.24-.83-.39-1.24-.93.88-1.85,1.75-2.8,2.73-.68.7-1.47,1.15-2.12,1.79-.78.78-1.84,1.65-2.76,2.25-.81.52-1.4,1.2-2.19,1.75-.83.59-1.82,1.16-2.68,1.84-.72.57-1.45,1.03-2.09,1.61-.33.31-.83.61-1.19.92-.2.18-.3.38-.48.56-.22.21-.49.33-.67.5-.69.58-1.25,1.35-1.96,1.93-.75.61-1.86,1.13-2.65,1.76-1.65,1.3-3.28,2.89-5.16,4.01-1.73,1.05-3.6,1.95-5.43,2.82-1.83.86-3.42,2.25-5.22,3.03-1.62.71-3.07,1.82-4.7,2.53-.87.38-1.67.77-2.54,1.3-.77.48-1.49,1.06-2.3,1.47-1.61.81-3.17,1.54-4.84,2.28-2.03.88-3.78,2.2-5.82,3.07-1.88.81-3.68,1.78-5.44,2.7-.72.38-1.4.54-2.13,1.02-.31.21-.76.29-1.08.48-.55.32-1.01.71-1.58,1.02-1.83.98-3.91,1.65-5.83,2.54-2.19,1.01-4.44,1.97-6.76,2.72-1.88.61-3.61,1.63-5.51,2.21-4,1.24-7.76,3.06-11.88,3.98-3.89.86-7.62,2.18-11.57,2.89-1.86.34-3.69.3-5.56.31-.91,0-1.88.16-2.8.27-.96.1-1.91,0-2.86.1-1.06.12-2.2.12-3.26,0-.69-.09-.98,0-1.6.04-.7.06-1.21-.24-1.87-.38-1-.22-2.15-.06-3.16-.1-1.23-.06-2.57-.33-3.79-.53-1.93-.34-3.96-.69-5.77-1.28-2.04-.67-4.39-.77-6.51-1.43-1.1-.34-2.26-.44-3.36-.8-.99-.32-2.08-.34-3.02-.65-.94-.31-1.85-.85-2.77-1.07-.94-.22-1.81-.55-2.75-.91-.3-.12-.76-.21-1.15-.36-.52-.2-1.07-.34-1.59-.54-.98-.4-1.95-.74-3.02-1-1.02-.24-1.99-.68-3.02-.99-1.05-.32-1.96-.57-3.01-.99-.91-.35-1.8-.77-2.71-1.11-.52-.19-.96-.51-1.48-.71-.57-.23-1.08-.28-1.62-.45-.86-.28-1.95-.66-2.78-1.04-.6-.28-.84-.51-1.5-.67-.6-.16-1.2-.35-1.8-.54-1.9-.58-3.86-1.11-5.73-1.79-.99-.36-2.05-.59-3.06-.91-.38-.12-.94-.1-1.27-.21-.57-.19-1.05-.5-1.67-.62-3.48-.65-6.95-1.5-10.63-1.57-1.85-.03-3.71-.23-5.6.06-1.49.22-2.99.55-4.48.82-3.16.58-6.36,1.01-9.46,1.74-.87.2-1.61.49-2.43.84-.97.41-1.93,1.14-2.96,1.46-.83.25-1.72.44-2.55.71-.95.3-1.82.79-2.78,1.03-1.8.44-3.48,1.18-5.24,1.74-2.13.68-4.48,1-6.69,1.02-2.03.01-3.91.1-5.95-.19-1.08-.15-2.2-.37-3.23-.5-1.07-.13-2.1-.31-3.13-.41-1.87-.19-3.72-.33-5.58-.69-.98-.18-1.98-.61-2.88-.9-1.06-.33-2.28-.59-3.38-.8-1.86-.36-3.71-.48-5.6-.7-.9-.11-1.82-.06-2.69-.18-.91-.11-1.76-.12-2.68-.05-1.12.1-2.13.43-3.23.59-.85.13-1.7.05-2.56.2-1.53.29-3.14.45-4.65.89.61-1.12,2.13-1.42,3.16-1.91,1.22-.58,2.39-1.21,3.51-1.92.87-.54,1.75-1.27,2.79-1.66,1.16-.44,2.5-.73,3.64-1.32,1.88-.96,3.73-2.04,5.59-3.09.89-.49,1.96-.8,2.86-1.29,1.02-.57,1.7-1.44,2.74-1.93,2.26-1.05,4.15-2.48,5.99-4.13.54-.49,1.24-.88,1.76-1.4.39-.39.69-1.04,1.01-1.49l2.44-3.53c1.5-2.18,3.36-3.72,5.64-5.09,2.07-1.23,4.13-2.24,6.59-2.69,2.53-.46,5.19-1.15,7.75-.96.55.04,1.09-.04,1.6,0,.71.06,1.47.38,2.23.36.41-.01.74-.06,1.06-.07.33.21.66.42.99.62.88.54,2.21.82,3.25.82.56,0,1.26-.35,1.87-.41.2.02.42.05.63.07-.19-.08-.4-.09-.63-.07-3.98-.47-4.5-.72-5.19-.92-.36-.1-.63-.12-.92-.11-1.46-.96-2.73-2.02-3.47-3.66-.7-1.57-1.4-3.17-1.92-4.8-.56-1.77.72-4.16,1.04-5.91.36-1.97,1.58-3.37,1.47-5.45-.07-1.65-.78-3.5-1.41-4.98-.81-1.89-1.79-3.68-2.77-5.44-.79-1.43-1.8-2.6-2.61-4.02-1.36-2.41,2.87-1.3,4.02-.93,2.12.66,4.12,1.43,5.97,2.71,1.75,1.21,3.62,2.34,5.31,3.65.44.34.58.76.97,1.13.41.41.84.61,1.23,1.05.75.86,1.68,1.57,2.5,2.36.38.37.53.8.96,1.13.48.37.84.64,1.24,1.06.38.41.81.68,1.24,1.06.42.38.52.74.94,1.11.79.69,1.52,1.4,2.22,2.17.37.41.7.87,1.06,1.29.41.46.98.68,1.38,1.15.37.42.53.72,1.02,1.04.38.25.79.48,1.07.83.34.4.42.63.94.99.47.32,1.06.63,1.46,1.04.43.45.6.82,1.14,1.18l1.18.81c.95.65,1.85,1.39,2.9,1.8.96.36,1.69,1.16,2.65,1.51.54.19.85.22,1.34.58.63.46,1.19.47,1.83.81.99.54,1.76.9,2.9,1.02,1.05.12,1.94.69,2.99.88,1.71.32,3.23.69,4.95.49,1.04-.11,2.1.06,3.11-.04.73-.08,1.51-.26,2.23-.42,3.77-.82,6.95-2.62,10.71-3.39,1.8-.37,3.66-.65,5.45-1.11,2.03-.53,3.91-1.46,5.98-1.87.83-.17,1.8-.4,2.57-.72.79-.32,1.46-.48,2.31-.69.91-.22,1.71-.72,2.53-1,.94-.32,1.55-.44,2.38-1.07,1.48-1.14,3.07-2.14,4.63-3.11,1.08-.67,1.95-.96,2.66-2.09.65-1.02.08-2.05-.61-2.92-1.09-1.38-3-3.05-1.05-4.65.66-.54,1.87-.62,2.69-.87.42-.13.79-.26,1.21-.35.5-.11.76-.34,1.2-.49,3.54-1.26,7.28-2.44,11.05-2.8,2.13-.21,4.37-.35,6.36-1.13,1.75-.7,3.59-1.3,5.31-2.03,1.56-.65,3.22-.85,4.93-1.16.92-.17,1.93-.33,2.78-.69.44-.18.78-.43,1.24-.57.54-.17,1.15-.22,1.66-.49,3.74-1.95,7.52-4.08,10.3-7.25.35-.4.66-.43,1.01-.8.18-.17.23-.45.4-.62.17-.17.46-.23.59-.34.77-.71,1.4-1.59,2.13-2.35.66-.69,1.49-1.19,2.13-1.77.21-.2.28-.56.48-.77.2-.2.46-.24.66-.42.4-.35.84-.58,1.18-.9.74-.69,1.3-1.63,2.05-2.32.77-.72,1.49-1.5,2.27-2.11.44-.33.81-.54,1.13-.97.34-.44.54-.52.88-.8.89-.74,1.54-1.82,2.33-2.64.38-.39.8-.52,1.13-.96.29-.38.48-.76.83-1.08.12-.11.41-.15.58-.33.17-.17.23-.45.4-.63.16-.17.46-.21.58-.33.2-.19.33-.48.52-.64.39-.32.66-.42,1.02-.8.33-.37.49-.82.88-1.15.47-.4.71-.7,1.14-1.17.43-.49.93-.72,1.32-1.26,1.22-1.68,2.9-2.71,4.24-4.26.39-.44.84-.69,1.22-1.12.38-.41.54-.91.97-1.29.41-.35.7-.57,1.03-1.02.39-.52.93-.75,1.33-1.26.68-.9,1.49-1.52,2.12-2.46.64-.96,1.47-1.49,2.12-2.45.56-.81,1.11-1.92,1.85-2.54.36-.29.57-.32.89-.8.39-.59.73-.87,1.25-1.31.77-.66,1.31-1.56,2.1-2.21.2-.17.38-.06.6-.25.17-.16.22-.47.39-.63.19-.2.45-.25.64-.42.32-.27.39-.56.66-.85.66-.67,1.47-1.18,2.16-1.76.84-.73,1.64-1.29,2.51-1.97,1.71-1.36,3.61-2.38,5.24-3.79.38-.34.52-.84.87-1.16.31-.29.6-.28.91-.65.7-.82,1.37-1.35,2.02-2.31.31-.44.56-.86.93-1.21.27-.25.62-.39.89-.8.63-.94,1.25-1.91,1.94-2.81.39-.51.6-.43,1.01-.8.32-.28.57-.85.81-1.2.33-.49.61-.66,1.04-1.02.46-.41.68-.98,1.15-1.38.87-.76,1.63-1.36,2.34-2.31.66-.85,1.64-1.51,2.44-2.23.79-.71,1.63-1.44,2.43-2.14.3-.26.61-.38.89-.8.41-.57.86-.78,1.33-1.26.37-.38.54-.95.89-1.34.39-.42.85-.68,1.22-1.12.64-.73,1.47-1.43,2.21-1.95,1.69-1.22,3.41-2.54,5.01-3.95,1.55-1.38,2.92-2.94,4.27-4.46.3-.34.6-.36.91-.63.39-.35.55-.98.9-1.36.39-.44.87-.64,1.23-1.12.41-.53.67-.56,1.1-.96.32-.28.57-.85.82-1.2.33-.49.61-.66,1.04-1.03.86-.73,1.3-1.9,2.14-2.65.45-.39.7-.75,1.05-1.23.33-.43.77-.59,1.13-.96.35-.35.63-.93.9-1.34.41-.61.79-.8,1.29-1.29.38-.37.55-.93.92-1.32.38-.39.8-.52,1.13-.96.28-.37.47-.87.79-1.19.49-.5.91-.66,1.32-1.26.57-.85,1.14-1.95,1.91-2.61.43-.37.7-.52,1.03-1.02.31-.47.61-1.01,1.04-1.36.14-.11.41-.18.59-.34.17-.15.26-.41.43-.59.43-.43.8-.64,1.18-1.14.32-.43.76-.58,1.13-.96.41-.42.6-1.07,1-1.5.35-.39.64-.46,1.01-.8.39-.37.53-.98.9-1.36.38-.39.79-.53,1.12-.96.38-.48.62-1.03,1.07-1.43,1.67-1.44,3.25-2.96,4.77-4.55.36-.38.8-.53,1.13-.96.41-.56.69-.7,1.17-1.15.23-.22.31-.54.53-.75.13-.12.41-.1.49-.18.45-.39.82-.81,1.33-1.16.8-.54,1.43-1.16,2.12-1.76.39-.34.6-.43,1-.89.36-.43.74-.52,1.11-.95.16-.18.22-.47.4-.63.12-.1.43-.12.49-.18.33-.31.5-.79.83-1.09.32-.28.69-.47,1.04-.78.48-.41.85-.83,1.3-1.24.18-.18.38-.06.6-.25.17-.16.22-.47.39-.63.31-.33.78-.71,1.12-.99.8-.63,1.68-1.25,2.47-1.98,1.5-1.38,2.95-2.59,4.62-3.77,1.7-1.21,3.39-2.38,5.11-3.56,1.58-1.08,3.39-1.71,5.25-2.24,1.86-.55,3.74-1.15,5.7-1.17,1.71-.03,3.3-.63,4.99-.8.94-.1,2.04-.11,2.99-.03,1.11.11,1.7.54,2.65,1.2.39.26.75.49,1.07.83.07.06.07.37.18.48Z"/>
      <path class="cls-5" d="m66.47,199.03c-.61.06-1.31.41-1.87.41-1.03,0-2.37-.28-3.25-.82-.33-.2-.66-.41-.99-.62.29,0,.56.01.92.11.7.2,1.22.45,5.19.92Z"/>
      <path class="cls-3" d="m290.9,178.11c-.36.91.39,2.43.73,3.21.58,1.34.96,2.77,1.53,4.11.49,1.16.84,2.41,1.16,3.62.39,1.47.49,2.99.83,4.48.63,2.82,1.8,5.49,2.31,8.35.26,1.43.67,2.78.78,4.23.14,1.79.31,3.55.45,5.34.23,2.96.55,5.97.37,8.95-.09,1.44-.36,2.93-.44,4.4-.08,1.47.05,2.96,0,4.43-.12,3.08-.95,6.25-.61,9.4.24,2.27.87,5.14,2.27,6.78.48.56,1.13.87,1.76,1.09.67.24,1.28.68,2.03.86,1.26.3,2.41.53,3.72.4,1.53-.16,3.15-.54,4.47-1.39,2.04-1.31,4.53-3.88,5.41-6.27.27-.74.45-1.53.78-2.26.68-1.48.74-2.93,1.41-4.44.71-1.6,1.04-3.27,1.54-4.75.95-2.81,1.98-5.59,2.43-8.59.24-1.57.48-3.11.82-4.62.39-1.71.57-3.63.92-5.39.23-1.14.28-2.21.31-3.35.04-1.28.16-2.64.31-3.9.16-1.39.33-2.64.69-4.02.29-1.1.27-2.03.3-3.12.05-1.39-.26-2.69-.35-4.08-.06-.83-.5-1.57-.55-2.37-.05-.84-.08-1.67-.04-2.53.08-2.05.1-4.08-.02-6.04-.15-2.66,0-5.32-.16-7.97-.32-5.47-1.52-10.67-2.92-15.93-.32-1.19-.85-2.29-1.39-3.34-.64-1.25-1.15-2.54-1.72-3.82-.23-.52-.59-1.02-.83-1.54-.29-.59-.52-1.19-.81-1.75-.6-1.16-.89-2.37-1.37-3.57-.48-1.2-.99-2.26-1.58-3.37"/>
      <path class="cls-6" d="m346.87,114.02c.69.48,1.38.96,2.07,1.43.72.49,1.01.94,1.56,1.51.6.62,1.14,1.31,1.71,1.96.34.37.65.74.98,1.1.26.3.62.4.86.67.28.3.35.59.65.91.19.19.36.26.56.48.56.64,1.26,1.21,1.71,1.96,1.44,2.38,2.95,4.79,4.26,7.19,1.35,2.5,2.98,4.84,3.78,7.59.83,2.85,1.88,5.57,2.41,8.52.53,2.99,1.04,6.01,1.07,9.03.01,1.62-.01,3.22-.23,4.9-.27,2.1-.86,4.19-1.27,6.27-.61,3.01-.98,6.27-1.61,9.29-.15.69-.51,1.43-.65,2.2-.1.51-.16,1.15-.33,1.59-.22.6-.34,1.09-.59,1.65-.43.94-1.29,1.85-1.88,2.7-.62.91-1.66,3.06-2.77,2.28-.02-.01-.38-.61-.49-.69-.26-.24-.67-.34-.91-.6-.4-.42-.76-.91-1.15-1.34-1.37-1.53-1.88-4.14-2.17-6.28-.34-2.55-1.51-4.65-2.85-6.77-1.51-2.41-3.06-4.97-4.62-7.32-.9-1.32-1.81-2.6-2.79-3.88-.29-.38-.52-1-.86-1.37-.24-.26-.69-.33-.93-.61-.13-.14-.1-.4-.18-.48-3.31-3.76-5.64-8.06-7.38-12.81-.38-1.03-.52-2.13-.72-3.22-.14-.77-.35-1.48-.54-2.19.21-.41.55-.73.71-1.19.27-.82.63-1.99,1.13-2.79.34-.54.41-.94.65-1.51.23-.51.63-.86.82-1.39.23-.63.52-1.02.81-1.63.23-.49.21-.92.5-1.39.24-.4.61-.76.83-1.18.25-.46.21-.76.39-1.23.19-.48.74-1.05,1.04-1.48.34-.49.35-.84.52-1.25.17-.43.43-.78.7-1.16.38-.54.39-.94.64-1.51.24-.55.74-.96.97-1.52.24-.61.23-.93.64-1.51.61-.84.75-1.73,1.34-2.55.31-.45.81-.97,1.02-1.47.14-.31.09-.63.23-.93.03-.06.05-.1.08-.15.1.05.19.12.29.18Z"/>
      <path class="cls-2" d="m290.1,184.96l-.28-.12c-.44.35-.62.91-1.05,1.28-.28.24-.84.48-1.15.7-.93.64-1.8,1.34-2.73,1.91-2.01,1.23-3.52,2.8-5.44,4.1-.97.66-1.74,1.55-2.67,2.29-1.05.84-2.2,1.5-3.24,2.33-.8.64-1.65,1.21-2.52,1.74-1.19.73-2.23,1.69-3.42,2.43-3.68,2.27-7.38,4.24-10.82,6.56-2.03,1.36-4.09,2.62-6.19,3.91s-4.22,2.48-6.62,3.28c-1.32.44-2.64.77-3.93,1.18-.8.26-1.86.57-2.66.67s-1.4.54-2.24.74c-1.66.4-3.08.94-4.67,1.55-.72.28-1.44.59-2.19.66-.62.06-1.87-.43-2.22.21"/>
      <path class="cls-2" d="m289.41,178.39l-.11.28c.14.16.28.31.43.45-.78.86-1.87,1.3-2.85,1.84-1.88,1.04-3.49,2.64-5.3,3.77-1.15.72-2.42,1.24-3.56,1.99-1.26.83-2.74,1.11-3.92,2.01-.92.7-1.92,1-2.92,1.55-1.12.62-2.12,1.38-3.28,1.97-.66.34-1.36.53-2.03.85-.85.41-1.53,1.08-2.32,1.59-1.77,1.14-3.65,2.23-5.5,3.23-1.97,1.06-4.04,2.11-5.91,3.33-1.79,1.17-3.47,2.5-5.24,3.69s-3.55,2.16-5.27,3.35c-1.39.96-2.69,1.39-4.16,2.16-.56.29-1.08.73-1.69.93-.53.17-1.13.11-1.67.23-.67.15-2,.82-2.66.34"/>
      <path class="cls-2" d="m290.69,172.74c-.64.49-1.65.69-2.36,1.06-.6.31-1.07.75-1.68,1.04-.89.42-1.73.7-2.58,1.22-2.66,1.65-5.46,3.06-8.14,4.68-3.62,2.19-7.24,4.37-10.9,6.5-6.78,3.95-13.19,8.38-20.68,10.88-3.04,1.02-6.07,1.96-9.14,2.83-.98.28-1.74.81-2.66,1.21-.77.33-1.69.42-2.15,1.22"/>
      <path class="cls-2" d="m290.79,166.29l-.28-.11c-.26.37-.46.23-.75.36-.53.23-.92.5-1.43.82-1.32.82-2.74,1.3-3.97,2.32-4.84,3.99-10.45,7.22-15.8,10.53-2.59,1.61-4.97,3.55-7.57,5.15-1.8,1.1-3.68,2.1-5.52,3.13-1.55.87-3.3,1.61-4.99,2.14-.8.25-1.97.56-2.8.31"/>
      <path class="cls-2" d="m290.1,159.72c-.21.59-.39.21-.68.5-.25.24-.36.52-.6.76-.84.88-1.87,1.61-2.88,2.26-1.81,1.18-3.43,2.67-5.24,3.83-1.61,1.03-3.43,1.75-5.09,2.67-1.53.86-3.04,1.73-4.66,2.44-.9.4-1.73.69-2.49,1.36-.46.4-.84.7-1.39.97-1.12.55-2.2,1.21-3.29,1.77-.69.35-1.55.32-2.17.76"/>
      <path class="cls-2" d="m288.49,155.12c.66.58-.69.89-1.07,1.1-1,.56-1.99,1.09-2.99,1.62-.6.32-1.06.78-1.62,1.16-1.11.75-2.37,1.16-3.5,1.86-1.75,1.09-3.59,1.99-5.45,2.87"/>
      <path class="cls-2" d="m323.73,163.33l.11-.28c-.81-.68-.62-2.57-.62-3.55,0-1.26-.25-2.46-.48-3.72-.47-2.54-1.58-4.94-2.63-7.24-.59-1.3-1-2.62-1.79-3.87-.72-1.14-1.35-2.26-1.99-3.43-1.36-2.49-2.53-5.14-3.82-7.75-.53-1.07-1.12-2.47-1.25-3.68-.1-.95-.11-1.89-.15-2.83-.03-.76-.3-1.64-.23-2.37.15-1.51.74-2.95,1.17-4.35.15-.48.12-1.09.23-1.61.18-.87.4-1.77.62-2.64.39-1.57,1-3.09,1.58-4.57.26-.67.43-1.44.77-2.08.38-.72.97-1.39,1.43-2.06.83-1.2,2.07-2.51,2.62-3.85.3-.74.47-1.27.95-1.96.53-.76.7-1.5,1.12-2.27.17-.31.47-.56.63-.87.19-.36.18-.71.33-1.08.16-.39.47-.69.69-1.04.26-.42.25-.78.44-1.22.14-.34.42-.57.6-.89.2-.36.18-.71.33-1.08.32-.78.74-1.53,1.11-2.28,1.42-2.85,2.07-6.09,3.22-9.1.57-1.5,1.09-3,1.75-4.45.53-1.16,1.13-2.59,1.36-3.85.25-1.37.9-2.88,1.3-4.33.45-1.64,1.04-3.05,1.28-4.77.23-1.6.5-2.99,1.07-4.45.2-.51.22-1.18.36-1.74.16-.66.5-1.18.8-1.82.13-.27.1-.6.25-.94.16-.36.25-.69.38-1.05.28-.75.7-1.44.98-2.17.13-.33.04-.61.17-.93s.41-.53.53-.87c.1-.27.03-.48.21-.81.2-.37.54-.66.7-1.05.33-.81.54-1.36,1.05-2.1.44-.64.88-1.28,1.32-1.92s.87-1.28,1.32-1.92c.53-.74.6-1.53,1.13-2.27.49-.69.58-1.26.91-1.98s.99-1.41,1.44-2.05c.9-1.3,1.7-2.67,2.87-3.67.53-.46.89-1.14,1.29-1.72.52-.76,1.1-1.24,1.72-1.87.43-.44.87-.82,1.37-1.23.61-.49,1.51-.82,2.03-1.31.26-.25.4-.52.63-.79.25-.29.45-.29.68-.48.64-.51,1.18-1.16,1.8-1.71,1.14-1.01,2.07-1.88,2.97-3.18,1.76-2.55,3.54-5.1,5.29-7.67.18-.27.37-.7.61-.91.22-.2.49-.13.71-.33.56-.5.98-1.47,1.42-2.09.84-1.19,1.03-2.44,1.23-3.83.08-.56.17-1.08.28-1.65.12-.61-.09-1.93.41-2.34"/>
      <path class="cls-2" d="m322.04,62.95c-2.02-.82-.01,3.37.7.9.09-.32.05-1.29-.28-1.52-.24-.17-1.38.04-1.54.28-.26.38.14,1.39.42,1.63.81.71,1.69.01,1.96-.76.61-1.71-2.23-1.94-2.14-.51.03.51,1.13,1.16,1.56.91.55-.33.72-1.2.65-1.76-.09-.69-.3-1.45-1.17-1.37-.55.05-1.34.94-1.45,1.54-.24,1.31,2.21,2.11,2.89.88.29-.52.03-1.1-.18-1.52-.48-.93-.8-.4-1.58-.91-.26.31-.47.73-.93.71-.12.51-.32,1.4-.03,1.95.33.62,1.45,1.24,2.03.62,1.18-1.26-.73-3.39-2.11-1.91-.45.48-.43.62-.32,1.1,0,.04.33.71.37.73.64.36,1.73-.29,1.95-.9.23-.66.03-1.68-.82-1.54s-1.08,1.42-.2,1.73"/>
      <path class="cls-2" d="m328.4,82.13l-.21-.22c.18-.7.72-1.26.85-1.96.13-.66.08-1.44.24-2.1.38-1.54.5-3.01.43-4.57-.05-1.32-.04-2.65-.07-4-.03-1.64.27-3.04.49-4.66.39-2.81-.03-5.43.63-8.17.15-.63.17-1.51.36-2.12.28-.88.65-1.66.83-2.6.09-.5.29-.79.44-1.25.09-.28-.04-.5.07-.78.14-.34.37-.68.49-.99.14-.36.25-.85.42-1.24.31-.71.48-1.41.76-2.07.3-.71,1-1.42,1.44-2.07s1.18-1.38,1.44-2.07c.13-.33.05-.61.17-.93.16-.4.59-.83.84-1.18.95-1.37,1.9-2.75,2.85-4.13.47-.69.95-1.38,1.42-2.06.2-.29.41-.59.61-.88.33-.49.53-.5.88-.79.63-.52.84-1.44,1.44-1.98.26-.23.54-.25.81-.49.33-.3.54-.84.81-1.2.94-1.29,2.64-1.95,3.8-3.03,1.22-1.14,1.71-3.08,2.99-4.15.22-.19.44-.2.68-.49.27-.31.48-.71.71-1.04.51-.74,1.02-1.47,1.53-2.21l1.63-2.36c.49-.7.99-1.82,1.62-2.38.54-.48,1.28-.83,1.82-1.31.34-.3.51-.87.81-1.22.32-.37.58-.35.91-.64.31-.28.4-.79.7-1.08s.61-.36.91-.64c.63-.6,1.13-1.65,1.62-2.38.55-.81,1.18-1.06,1.72-1.86.25-.37.49-.89.81-1.2s.75-.36,1.05-.73c.5.59.67,2.31.8,3.11"/>
      <path class="cls-2" d="m321.92,152.08c.34-2.3,1.07-4.68,2.39-6.62,1.27-1.86,3.23-2.8,4.55-4.7.7-1,.84-1.88,1.54-2.86.28-.4.58-.76.75-1.22.25-.69.67-1.28.93-1.97.74-2.04,2.35-3.96,3.63-5.76.69-.98.91-2.12,1.37-3.19.21-.49.68-.85.91-1.33.17-.37.11-.74.28-1.11.16-.33.41-.55.56-.91.88-2.21,1.57-4.41,2.17-6.78.59-2.36,1.62-4.39,2.32-6.67.15-.48.28-1.01.44-1.43s.43-.86.6-1.33c.25-.67.36-1.02.79-1.63.34-.49.75-.96.95-1.52.82-2.24,1.93-4.29,2.37-6.63.42-2.19,1.44-4.28,1.97-6.47.26-1.06.58-2.1.8-3.13.2-.97.24-2.13.5-3.03.24-.86.52-1.98.91-2.74.14-.26.43-.47.54-.74.08-.22.05-.5.1-.66.19-.56.7-.91.92-1.44.94-2.21,1.11-4.83,1.72-7.08.3-1.09.57-2.33.72-3.42.16-1.21.71-2.52.74-3.75.05-2.47.72-5.06,1.33-7.45.28-1.1.66-2.17.94-3.27s.4-2.37.58-3.51c.24-1.44.56-2.73,1.06-4.06.44-1.17.83-2.36,1.2-3.5.83-2.61,1.69-5.34,2.22-8.07.27-1.38.55-2.78,1.04-4.07.21-.54.31-.9.44-1.43.05-.18.23-.49.28-.7.06-.25,0-.69.07-.91.17-.58.27-.81.32-1.4.06-.73.24-1.47.32-2.2.09-.77-.08-2.79.55-3.32-.24.47-.13.21-.01.71.18-1.5.24-3.13.49-4.55.12-.68.28-1.31.39-1.98.11-.71.1-1.74.46-2.4"/>
      <path class="cls-2" d="m313.23,129.98c-.46-.58-.7-.07-1.16.07.13.52-.5.79-.27,1.4.41-.7.48-1.24.83-1.88.42-.76.52-1.39,1.04-2.12.56-.78.71-1.47,1.12-2.27.19-.37.52-.67.73-1.02.29-.48.3-.96.54-1.46.46-.94,1.09-1.82,1.53-2.78.38-.84.58-1.76.94-2.61.67-1.6,1.81-3.03,2.4-4.65.27-.74.98-1.25,1.28-1.97.14-.34.04-.6.17-.93.17-.44.67-.74.85-1.17.37-.85.55-1.48,1.11-2.28s.7-1.61,1.24-2.41c.5-.74.59-1.52,1.13-2.27.58-.81.73-1.62,1.22-2.42.45-.72.71-1.2.94-1.96.27-.9.72-1.75.94-2.64.37-1.46,1.03-2.92,1.59-4.33.65-1.66.52-3.48,1.05-5.17.87-2.76,1.7-5.97,2.6-8.83.53-1.68,1.05-3.5,1.64-5.2.54-1.57,1.21-3.05,1.71-4.7.21-.69.57-1.34.72-2.11.15-.78.21-1.6.4-2.33.4-1.54.92-3.02,1.51-4.52.28-.72.52-1.68.83-2.47.26-.68.39-1.49.68-2.24.33-.87.59-1.93,1.09-2.72s.64-1.51.92-2.42c.55-1.79,1.16-3.59,1.25-5.43.05-.96.2-1.92.24-2.88.02-.49.16-.96.14-1.46-.02-.45-.19-.71.06-1.16l-.2-.22"/>
      <path class="cls-2" d="m318.56,144.97c.66-1,.69-1.82,1.16-2.9.21-.48.61-.82.78-1.32.05-.14.04-.46.11-.66.1-.3.35-.69.48-.99.88-2.06,2.53-3.98,3.82-5.85.61-.88,1.21-1.77,1.83-2.65.12-.17.32-.4.42-.59.15-.31.12-.58.21-.81.22-.54.65-.94.92-1.46.43-.83.51-1.86,1.32-2.59.47-.42.7-.31,1.11-.95.37-.57.67-.56,1.11-.95,1.81-1.62,2.12-4.39,2.93-6.49.75-1.94,1.18-3.99,1.51-6.15.3-1.91,1.15-3.52,1.59-5.44.22-.97.56-1.8.84-2.79.14-.49.31-.85.53-1.38.03-.08-.07-.36,0-.51.13-.32.41-.53.53-.87.31-.9.43-1.77,1.05-2.64.74-1.04,1.16-2.12,1.48-3.33.3-1.14.69-2.24,1.31-3.23.29-.46.31-.9.5-1.39.27-.7.63-1.28.95-1.96,1.01-2.12,1.2-4.64,2.07-6.84.41-1.04.63-2.16,1.02-3.21.11-.29.37-.52.46-.79.07-.19.06-.52.11-.66.19-.55.47-1.07.68-1.61.42-1.1.89-2.14,1.31-3.23.43-1.15.89-2.28,1.39-3.39.2-.43.39-1.03.54-1.49.06-.18.01-.43.1-.66.11-.28.44-.46.55-.75.12-.31.2-.75.29-1.07.18-.65.34-1.25.42-1.89.29-2.15,1.18-4.13,1.69-6.23.27-1.1.66-2.17.95-3.26s.34-2.17.57-3.19c.53-2.42.79-4.83,1.26-7.19.21-1.03.7-2.14.83-3.24s.27-2.21.46-3.38c.34-2.11,1.12-3.87,1.42-5.98.14-.97.13-1.92.23-2.86.13-1.14.57-2.51.37-3.69"/>
      <path class="cls-2" d="m314.82,135.87c-.2-.23-.46-.32-.74-.24.55-.66.86-1.5,1.13-2.28.11-.32.09-.58.25-.94.21-.47.33-.91.52-1.4.32-.83.6-1.78.97-2.6.39-.87.75-1.79,1.31-2.58.52-.73.85-1.52,1.28-2.17.49-.74.91-1.63,1.48-2.46.51-.74,1.01-1.48,1.52-2.21.53-.74.64-1.55.91-2.42.25-.8.39-1.78.75-2.53.17-.37.53-.63.68-1.01.2-.5.08-.7.46-1.24.45-.63,1.12-1.35,1.44-2.05.41-.89.59-1.9,1.01-2.79.38-.81.72-1.66,1.25-2.4s.63-1.37,1.02-2.12c.87-1.67,1.69-3.32,2.59-4.97.22-.41.2-.84.39-1.25.18-.38.54-.64.7-1.04.37-.91.62-1.89.92-2.85.28-.89.61-1.81.8-2.72.2-.97.12-2.01.37-3.01.49-1.92,1.15-3.71,1.72-5.56.26-.85.58-1.64.83-2.47.15-.49.31-.95.44-1.45.08-.31.18-.78.29-1.07.32-.78.78-1.51,1.09-2.32.34-.87.72-1.81.99-2.7.14-.45.18-.62.44-1.11.2-.38.11-.61.24-.95.15-.38.51-.64.68-1.01.21-.45.32-.95.51-1.4.66-1.55,1.18-3.42,1.77-5.08.58-1.63,1.23-3.18,1.61-4.94.21-.96.28-1.97.48-2.97.21-1.02.33-1.84.71-2.78.75-1.88,1.37-3.7,1.89-5.66,1.08-4.03,2.85-8.02,2.02-12.31"/>
      <path class="cls-2" d="m317.14,140.08c1.18-1.75,1.39-3.53,2.14-5.49.35-.92.8-1.84,1.12-2.71.16-.43.28-.69.57-1.13.37-.56.41-1.11.71-1.69.91-1.8,2.42-3.49,3.57-5.15.3-.44.61-.89.91-1.33.35-.49.36-.83.53-1.26.37-.93,1.14-1.79,1.72-2.63s1.18-1.66,1.73-2.5c.64-.97.87-2.17,1.34-3.22.79-1.71,1.35-3.69,2.06-5.53.4-1.04.96-1.98,1.25-3.07.08-.32.17-.76.29-1.07.09-.23.37-.37.46-.6.12-.3-.03-.47.07-.78.29-.93.67-1.91.91-2.88s.3-2.11.66-3.03c.67-1.68,1.2-3.44,1.7-5.12.15-.52.39-1.05.56-1.59s.43-.86.62-1.34c.15-.37.12-.69.28-1.08.24-.56.44-1.14.73-1.68.5-.92.77-1.93,1.16-2.9.12-.29.4-.48.51-.76.07-.17-.05-.41,0-.52.21-.57.47-1.05.61-1.66.13-.53.32-.91.52-1.39.19-.44.16-.64.29-1.07.15-.47.42-1.09.63-1.55.25-.54.44-1.15.72-1.68.5-.95,1.14-1.7,1.46-2.71.26-.8.47-1.61.7-2.44.09-.32-.05-.84.07-1.17.08-.22.31-.37.38-.58s.06-.51.11-.66c.14-.42.31-.91.47-1.32.19-.5.25-.98.43-1.42.09-.23.37-.37.46-.6.11-.28-.06-.31,0-.51.15-.52.33-1.02.47-1.54.27-.99.51-1.94.73-2.94.18-.83.28-1.66.49-2.53.13-.52.31-.92.52-1.39.23-.5.24-.89.5-1.37,1.03-1.89,1.44-4.21,1.53-6.45s1.25-4.37,1.77-6.51,1.07-4.28,1.21-6.67c.12-2.1.78-4.37.49-6.52"/>
    </g>
  </g>
</svg>